<?xml version="1.0" standalone="no"?>
<!DOCTYPE svg PUBLIC "-//W3C//DTD SVG 1.1//EN" "http://www.w3.org/Graphics/SVG/1.1/DTD/svg11.dtd">

<svg style="stroke-width:0.7pt; stroke-linejoin: round; stroke:#444; fill:white;" xmlns="http://www.w3.org/2000/svg" font-family="Helvetica, Arial, FreeSans, Sans, sans, sans-serif" height="836px" viewBox="0 0 1200 836" width="1200px" version="1.1" xmlns:xlink="http://www.w3.org/1999/xlink" enable-background="new 0 0 1200 836"><defs><style type="text/css">path { fill-rule: evenodd; }
#context path { fill: #eee; stroke: #bbb; } </style></defs><metadata><views><view padding="24.0" h="836.114828507" w="1200"><proj up="0" lon0="-80.0" dist="1.5" id="satellite" lat0="29.0" /><bbox y="310.65" h="839.71" w="1206.6" x="116.12" /></view></views></metadata><g id="USA"><path data-fips="25" data-hasc="US.MA" data-iso="USA" d="M1119,240L1118,237L1118,239L1116,240L1113,241L1118,242L1119,240Z M1102,239L1106,237L1103,235L1103,235L1101,237L1100,240L1102,239Z M1095,233L1097,231L1099,229L1101,227L1101,230L1103,233L1106,232L1108,230L1111,230L1114,229L1118,227L1117,223L1115,220L1113,217L1110,217L1113,219L1115,222L1116,224L1114,226L1110,227L1106,227L1103,224L1102,221L1100,219L1099,216L1096,213L1093,211L1090,211L1088,210L1089,207L1091,205L1092,203L1095,202L1097,200L1095,200L1093,198L1091,196L1090,194L1089,193L1088,193L1088,193L1086,194L1085,195L1085,195L1083,195L1083,195L1083,195L1083,196L1082,197L1081,197L1081,198L1080,199L1080,199L1077,199L1076,199L1072,199L1070,199L1067,198L1065,198L1062,198L1058,198L1057,198L1053,198L1050,198L1048,198L1044,198L1042,198L1039,198L1037,198L1034,198L1032,198L1032,198L1031,201L1031,205L1030,210L1029,212L1029,216L1028,217L1029,219L1032,219L1035,219L1038,219L1041,219L1045,219L1046,220L1047,220L1047,219L1051,219L1052,219L1054,219L1057,219L1061,219L1065,219L1068,219L1071,219L1073,219L1075,219L1080,219L1081,219L1081,220L1082,223L1082,223L1083,223L1083,223L1083,223L1083,224L1083,225L1083,225L1084,226L1084,227L1085,227L1086,228L1089,227L1088,229L1089,230L1089,231L1089,231L1089,231L1090,232L1090,232L1090,234L1092,234L1095,233Z" data-oid="3513" /><path data-fips="32" data-hasc="US.MN" data-iso="USA" d="M591,174L591,171L592,168L592,166L592,162L590,160L588,159L585,158L582,155L580,151L577,148L574,147L572,144L568,143L566,140L566,137L567,135L567,131L569,129L570,125L571,123L573,120L572,118L569,116L570,113L574,110L576,108L579,107L581,106L584,105L586,103L587,99L588,96L589,93L590,89L593,87L595,86L598,87L601,86L604,85L606,83L609,82L612,81L614,80L616,79L619,77L621,76L624,75L626,74L629,73L632,73L636,73L640,73L643,73L645,71L647,69L648,66L650,64L652,62L654,60L655,58L657,55L654,55L651,55L647,55L644,52L638,53L635,53L631,52L629,50L626,51L621,54L618,55L615,54L613,52L610,51L608,49L605,47L602,48L600,50L599,48L599,45L596,45L596,42L591,41L586,41L582,42L578,43L575,43L574,41L571,41L567,39L561,39L560,36L561,32L561,29L562,26L560,24L557,24L555,27L554,30L553,33L549,33L545,33L541,33L537,33L533,33L529,33L525,33L521,33L516,33L516,33L515,36L515,39L514,42L512,45L511,47L509,51L509,54L509,57L508,61L508,63L508,66L507,69L506,71L505,75L504,78L503,81L503,83L501,86L500,89L500,92L500,95L501,98L500,102L499,104L498,107L498,108L496,110L494,112L491,114L489,115L490,118L490,121L493,122L493,125L491,131L489,137L487,143L485,148L483,154L481,160L479,166L477,173L484,173L491,173L498,173L504,173L511,173L518,173L525,174L532,174L539,174L547,174L554,174L561,174L568,174L576,174L583,175L590,175L591,174Z" data-oid="3514" /><path data-fips="30" data-hasc="US.MT" data-iso="USA" d="M228,139L232,139L234,138L237,138L240,138L243,137L245,135L247,134L247,137L247,140L248,139L249,136L251,133L253,130L255,128L257,128L260,128L263,128L266,128L268,128L271,128L274,128L277,128L280,128L283,128L286,128L289,128L292,128L295,129L298,129L301,129L304,129L307,129L310,129L313,129L317,129L320,129L323,129L326,129L330,129L333,129L337,129L340,130L343,130L347,130L350,130L353,130L355,128L356,125L357,122L359,120L360,117L361,114L363,112L364,109L365,106L368,102L370,98L372,94L374,90L376,86L378,82L380,78L382,74L384,70L387,66L389,62L391,58L393,55L395,51L397,47L399,43L401,40L404,35L402,35L399,36L395,36L392,36L389,36L386,36L383,36L380,36L377,36L373,36L370,36L367,36L364,36L361,37L358,37L356,37L353,37L350,37L347,37L344,37L341,37L338,37L336,37L333,37L330,37L328,38L325,38L322,38L320,38L314,38L309,38L304,38L299,39L295,39L290,39L285,39L281,39L276,39L272,40L268,40L264,40L260,40L258,43L256,45L254,47L252,50L251,52L249,55L247,57L245,59L244,63L243,65L242,68L241,70L239,73L239,75L240,78L239,81L239,84L238,86L238,89L241,90L239,92L237,94L236,96L234,98L232,100L231,102L230,105L228,107L226,108L225,111L223,113L224,115L226,114L229,112L231,113L230,115L229,118L228,120L227,123L227,126L226,128L225,130L227,132L226,135L225,137L226,140L228,139Z" data-oid="3515" /><path data-fips="38" data-hasc="US.ND" data-iso="USA" d="M499,104L500,102L501,98L500,95L500,92L500,89L501,86L503,83L503,81L504,78L505,75L506,71L507,69L508,66L508,63L508,61L509,57L509,54L509,51L511,47L512,45L514,42L515,39L515,36L516,33L516,33L513,33L509,33L505,33L501,33L498,33L494,34L490,34L486,34L482,34L479,34L475,34L471,34L468,34L464,34L460,34L457,34L453,34L450,34L445,34L442,35L439,35L435,35L432,35L429,35L425,35L422,35L418,35L415,35L412,35L408,35L404,35L401,40L399,43L397,47L395,51L393,55L391,58L389,62L387,66L384,70L382,74L380,78L378,82L376,86L374,90L372,94L370,98L368,102L365,106L369,106L373,106L377,106L381,107L385,107L388,107L392,107L396,107L400,107L404,107L408,107L412,107L416,107L420,107L424,107L428,107L433,107L437,107L441,107L445,107L449,107L454,107L458,107L462,107L467,107L471,107L476,107L480,107L484,107L489,107L493,107L498,107L499,104Z" data-oid="3516" /><path data-fips="16" data-hasc="US.ID" data-iso="USA" d="M216,198L218,194L220,190L222,186L224,182L226,178L228,174L231,170L233,166L235,162L237,158L239,155L241,151L243,147L245,143L247,140L247,137L247,134L245,135L243,137L240,138L237,138L234,138L232,139L228,139L226,140L225,137L226,135L227,132L225,130L226,128L227,126L227,123L228,120L229,118L230,115L231,113L229,112L226,114L224,115L223,113L225,111L226,108L228,107L230,105L231,102L232,100L234,98L236,96L237,94L239,92L241,90L238,89L238,86L239,84L239,81L240,78L239,75L239,73L241,70L242,68L243,65L244,63L245,59L247,57L249,55L251,52L252,50L254,47L256,45L258,43L260,40L257,40L254,40L251,41L248,44L246,47L243,50L241,53L239,57L236,60L234,63L231,67L229,70L226,73L224,76L222,80L219,83L217,87L215,90L211,95L210,98L208,101L207,103L206,104L206,107L206,110L204,113L202,115L199,118L198,120L196,122L192,126L190,129L188,130L186,133L184,135L182,137L181,139L179,142L180,144L179,146L177,148L176,151L174,153L172,156L170,159L169,161L168,163L166,166L165,168L163,171L162,173L161,175L159,178L158,180L156,183L155,185L154,188L152,190L151,193L149,195L153,195L156,196L160,196L164,197L167,197L171,197L175,198L179,198L183,199L187,199L192,199L196,200L200,200L205,201L210,201L214,202L216,198Z" data-oid="3518" /><path data-fips="53" data-hasc="US.WA" data-iso="USA" d="M197,59L198,57L200,55L199,55L196,60L195,62L197,59Z M203,49L203,49L202,51L203,49Z M163,110L166,108L169,110L171,109L174,109L177,108L179,106L182,106L185,104L187,104L190,103L193,103L197,103L200,103L203,103L207,103L208,101L210,98L211,95L215,90L217,87L219,83L222,80L224,76L226,73L229,70L231,67L234,63L236,60L239,57L241,53L243,50L246,47L248,44L251,41L250,41L246,41L242,41L239,41L235,41L232,42L229,42L225,42L222,42L219,42L216,43L213,43L211,43L208,44L206,47L205,49L203,51L201,53L200,56L198,58L197,60L199,58L197,60L195,63L194,65L192,67L190,69L188,71L187,74L185,76L183,77L180,80L178,80L180,78L182,76L183,74L182,77L180,79L182,76L184,75L183,77L185,75L186,72L188,70L190,68L192,66L193,63L191,65L188,69L186,70L183,74L181,75L183,73L185,71L188,68L190,66L188,69L190,67L192,65L193,62L195,60L192,61L194,59L191,60L188,59L187,57L185,59L184,61L182,63L181,65L179,68L178,70L176,72L174,76L172,79L170,81L168,84L171,82L169,84L167,86L166,89L164,91L162,93L164,90L161,95L159,97L162,96L163,99L163,101L162,103L161,105L159,108L158,110L160,111L163,110Z" data-oid="3519" /><path data-fips="04" data-hasc="US.AZ" data-iso="USA" d="M133,506L134,501L136,496L137,490L138,485L140,480L141,474L142,469L144,464L145,459L147,454L148,448L150,443L151,438L153,433L154,427L156,422L158,417L159,412L161,407L163,402L164,396L166,391L168,386L169,381L171,376L173,371L175,366L176,361L178,355L180,350L182,345L184,340L179,340L175,339L170,338L166,337L162,336L157,336L153,335L149,334L145,333L141,332L138,332L134,331L130,330L126,329L123,328L119,328L119,328L118,331L117,334L115,337L114,341L113,344L112,347L110,350L109,351L107,353L106,350L103,349L102,352L101,354L100,357L99,360L98,365L96,368L96,372L95,375L93,377L92,380L92,380L91,384L91,387L91,391L91,393L90,396L91,399L91,401L89,403L86,405L85,408L83,411L82,413L81,416L80,418L79,421L76,424L76,427L75,430L74,434L75,436L75,439L73,441L70,442L70,443L69,445L68,448L68,448L71,453L75,459L79,464L82,469L86,475L90,480L95,485L99,491L101,493L102,495L105,497L108,498L111,499L114,500L117,501L120,502L122,503L125,504L127,505L130,505L133,506L133,506Z" data-oid="3520" /><path data-fips="06" data-hasc="US.CA" data-iso="USA" d="M37,424L37,421L37,418L36,421L37,425L37,424Z M42,410L41,409L41,412L42,410Z M34,387L33,387L33,390L34,387Z M38,389L36,387L36,387L35,389L38,389Z M73,441L75,439L75,436L74,434L75,430L76,427L76,424L79,421L80,418L81,416L82,413L83,411L85,408L86,405L89,403L91,401L91,399L90,396L91,393L91,391L91,387L91,384L92,380L92,380L92,375L91,371L91,366L90,362L90,358L89,354L89,350L89,347L89,343L88,339L88,335L88,331L88,327L87,323L87,319L87,315L87,311L87,307L87,303L87,299L87,295L87,290L87,286L87,281L87,276L87,272L87,267L88,261L90,257L92,252L95,248L97,244L99,239L101,235L104,230L106,226L108,222L111,217L113,213L115,209L118,205L120,200L122,196L125,192L121,191L117,191L114,190L111,189L107,189L104,188L101,188L98,187L98,188L96,190L95,194L94,196L93,199L91,202L89,204L87,207L86,210L83,214L81,216L79,219L78,221L77,224L75,226L75,230L74,232L73,237L71,240L69,244L68,246L67,249L66,251L65,254L63,256L62,260L62,263L61,269L60,272L59,275L58,277L57,280L57,283L57,286L58,284L59,281L62,279L63,282L66,281L64,283L62,281L60,282L59,285L58,288L57,291L55,296L56,293L56,290L57,287L56,289L54,292L54,294L52,298L51,301L50,303L50,307L51,309L50,314L48,316L47,318L46,321L45,324L44,326L44,331L43,334L43,336L42,339L42,342L42,345L42,348L41,351L40,355L40,358L39,360L38,364L37,366L36,369L36,372L36,375L39,376L40,378L42,380L42,386L42,388L43,391L46,392L46,395L45,398L44,400L47,401L47,405L48,408L48,411L48,414L48,419L48,424L46,428L46,431L46,434L46,437L49,438L52,439L55,439L58,440L61,440L64,441L67,442L70,442L73,441Z" data-oid="3521" /><path data-fips="08" data-hasc="US.CO" data-iso="USA" d="M304,354L305,351L306,348L307,345L308,342L308,340L309,337L310,334L311,331L312,328L313,325L314,323L315,320L316,317L316,314L317,311L318,309L319,306L320,303L321,300L322,297L323,295L324,292L325,289L326,286L326,284L327,281L328,278L329,275L330,273L331,270L332,267L333,264L335,260L336,256L337,253L339,249L340,246L341,242L342,239L339,238L335,238L330,238L326,238L322,237L318,237L314,237L309,236L307,236L305,236L302,236L299,236L297,235L294,235L291,235L289,235L286,235L281,234L276,234L271,234L266,233L261,233L256,232L251,232L247,232L242,231L238,231L233,230L229,230L227,233L226,237L224,240L223,243L221,247L220,250L218,253L217,257L215,260L214,264L212,267L211,270L209,274L208,277L207,281L205,284L204,288L202,291L201,295L200,298L198,302L197,305L195,309L194,312L193,316L191,319L190,323L189,326L187,330L186,333L185,337L184,340L186,341L189,341L192,342L195,342L198,343L201,343L203,344L206,344L209,344L212,345L215,345L218,346L222,346L225,347L228,347L231,348L234,348L237,349L241,349L244,349L247,350L250,350L254,351L257,351L260,352L264,352L267,353L271,353L274,353L278,354L281,354L285,355L290,355L294,356L299,356L303,357L304,354Z" data-oid="3522" /><path data-fips="32" data-hasc="US.NV" data-iso="USA" d="M93,377L95,375L96,372L96,368L98,365L99,360L100,357L101,354L102,352L103,349L106,350L107,353L109,351L110,350L112,347L113,344L114,341L115,337L117,334L118,331L119,328L119,328L121,323L123,319L124,315L126,311L128,307L130,303L131,298L133,294L135,290L137,286L139,282L140,278L142,274L144,270L146,266L148,262L150,258L152,254L153,250L155,245L157,241L159,238L161,234L163,230L165,226L167,222L169,218L171,214L173,210L175,206L177,202L179,198L175,198L171,197L167,197L164,197L160,196L156,196L153,195L149,195L146,195L143,194L140,194L137,193L134,193L131,193L128,192L125,192L122,196L120,200L118,205L115,209L113,213L111,217L108,222L106,226L104,230L101,235L99,239L97,244L95,248L92,252L90,257L88,261L87,267L87,272L87,276L87,281L87,286L87,290L87,295L87,299L87,303L87,307L87,311L87,315L87,319L87,323L88,327L88,331L88,335L88,339L89,343L89,347L89,350L89,354L90,358L90,362L91,366L91,371L92,375L92,380L93,377Z" data-oid="3523" /><path data-fips="35" data-hasc="US.NM" data-iso="USA" d="M243,506L244,501L245,497L246,493L248,488L249,484L250,479L251,475L252,471L253,466L254,462L255,457L256,453L257,449L258,444L260,440L261,436L262,431L263,427L264,423L265,418L267,414L268,410L269,405L270,401L271,397L273,393L274,388L275,384L276,380L278,376L280,370L281,366L283,362L284,358L285,355L281,354L278,354L274,353L271,353L267,353L264,352L260,352L257,351L254,351L250,350L247,350L244,349L241,349L237,349L234,348L231,348L228,347L225,347L222,346L218,346L215,345L212,345L209,344L206,344L203,344L201,343L198,343L195,342L192,342L189,341L186,341L184,340L182,345L180,350L178,355L176,361L175,366L173,371L171,376L169,381L168,386L166,391L164,396L163,402L161,407L159,412L158,417L156,422L154,427L153,433L151,438L150,443L148,448L147,454L145,459L144,464L142,469L141,474L140,480L138,485L137,490L136,496L134,501L133,506L133,506L135,507L138,508L140,508L143,509L146,509L147,506L147,504L148,501L149,498L151,497L154,498L157,498L159,499L162,500L164,500L167,501L169,502L172,502L175,503L177,504L177,502L176,502L176,499L177,496L181,497L185,498L188,499L192,500L196,501L200,502L204,502L208,503L213,504L217,505L221,506L225,507L229,508L234,509L238,509L242,510L243,506Z" data-oid="3524" /><path data-fips="41" data-hasc="US.OR" data-iso="USA" d="M151,193L152,190L154,188L155,185L156,183L158,180L159,178L161,175L162,173L163,171L165,168L166,166L168,163L169,161L170,159L172,156L174,153L176,151L177,148L179,146L180,144L179,142L181,139L182,137L184,135L186,133L188,130L190,129L192,126L196,122L198,120L199,118L202,115L204,113L206,110L206,107L206,104L207,103L203,103L200,103L197,103L193,103L190,103L187,104L185,104L182,106L179,106L177,108L174,109L171,109L169,110L166,108L163,110L160,111L158,110L159,108L161,105L162,103L163,101L163,99L161,98L159,98L157,101L156,103L154,105L152,108L150,110L148,113L146,115L145,118L143,120L142,122L140,124L138,126L137,129L135,131L132,136L130,139L127,142L126,144L124,146L121,151L119,153L118,156L116,157L114,159L111,164L109,166L107,169L106,172L105,175L103,177L102,180L100,182L99,185L98,187L101,188L104,188L107,189L111,189L114,190L117,191L121,191L125,192L128,192L131,193L134,193L137,193L140,194L143,194L146,195L149,195L151,193Z" data-oid="3525" /><path data-fips="49" data-hasc="US.UT" data-iso="USA" d="M185,337L186,333L187,330L189,326L190,323L191,319L193,316L194,312L195,309L197,305L198,302L200,298L201,295L202,291L204,288L205,284L207,281L208,277L209,274L211,270L212,267L214,264L215,260L217,257L218,253L220,250L221,247L223,243L224,240L226,237L227,233L229,230L225,230L222,229L218,229L215,229L211,228L208,228L205,228L202,227L203,224L205,221L206,218L208,214L210,211L211,208L213,205L214,202L210,201L205,201L200,200L196,200L192,199L187,199L183,199L179,198L177,202L175,206L173,210L171,214L169,218L167,222L165,226L163,230L161,234L159,238L157,241L155,245L153,250L152,254L150,258L148,262L146,266L144,270L142,274L140,278L139,282L137,286L135,290L133,294L131,298L130,303L128,307L126,311L124,315L123,319L121,323L119,328L123,328L126,329L130,330L134,331L138,332L141,332L145,333L149,334L153,335L157,336L162,336L166,337L170,338L175,339L179,340L184,340L185,337Z" data-oid="3526" /><path data-fips="56" data-hasc="US.WY" data-iso="USA" d="M308,233L310,229L311,226L312,222L314,219L315,215L317,212L318,209L319,205L321,202L322,198L324,195L325,192L327,188L328,185L330,182L331,178L332,175L334,172L335,168L337,165L338,162L340,159L341,155L343,152L344,149L346,146L347,142L349,139L350,136L352,133L353,130L350,130L347,130L343,130L340,130L337,129L333,129L330,129L326,129L323,129L320,129L317,129L313,129L310,129L307,129L304,129L301,129L298,129L295,129L292,128L289,128L286,128L283,128L280,128L277,128L274,128L271,128L268,128L266,128L263,128L260,128L257,128L255,128L253,130L251,133L249,136L248,139L247,140L245,143L243,147L241,151L239,155L237,158L235,162L233,166L231,170L228,174L226,178L224,182L222,186L220,190L218,194L216,198L214,202L213,205L211,208L210,211L208,214L206,218L205,221L203,224L202,227L205,228L208,228L211,228L215,229L218,229L222,229L225,230L229,230L233,230L238,231L242,231L247,232L251,232L256,232L261,233L266,233L271,234L276,234L281,234L286,235L289,235L291,235L294,235L297,235L299,236L302,236L305,236L307,236L308,233Z" data-oid="3527" /><path data-fips="05" data-hasc="US.AR" data-iso="USA" d="M534,508L536,506L536,503L535,500L536,497L536,495L535,492L537,490L536,488L538,485L540,483L541,480L542,478L545,477L546,475L544,473L547,471L550,468L552,466L555,465L556,462L557,457L558,454L560,453L561,450L564,449L567,447L566,445L566,444L569,443L571,441L573,439L572,435L573,432L575,430L577,427L579,426L580,423L579,420L584,419L585,415L588,414L586,412L586,411L582,411L578,411L575,411L569,410L570,408L572,407L574,405L577,403L579,401L579,398L577,395L575,394L568,394L561,393L553,393L546,393L539,392L532,392L525,391L518,391L511,391L504,390L497,390L490,389L483,389L476,388L470,388L463,387L463,392L462,397L462,401L462,406L461,410L461,415L461,420L460,424L459,432L457,439L456,446L454,453L453,461L452,468L450,475L449,483L449,483L451,486L453,485L456,485L459,487L459,489L458,493L458,497L457,501L457,505L461,506L466,506L471,507L475,507L480,508L485,508L489,508L494,509L499,509L504,510L509,510L514,510L518,511L523,511L528,511L533,512L534,508Z" data-oid="3528" /><path data-fips="19" data-hasc="US.IA" data-iso="USA" d="M568,266L568,263L569,261L572,260L575,259L577,256L578,253L581,250L582,248L581,244L580,241L581,238L583,235L591,235L594,233L598,232L600,229L602,226L604,225L606,222L607,220L607,217L606,214L602,211L602,208L600,206L598,203L598,201L596,199L592,198L590,195L590,192L589,189L590,186L591,183L593,180L590,178L590,175L583,175L576,174L568,174L561,174L554,174L547,174L539,174L532,174L525,174L518,173L511,173L504,173L498,173L491,173L484,173L477,173L474,174L474,177L474,180L474,183L472,185L471,188L469,190L468,192L467,195L468,198L468,200L469,202L469,205L468,208L468,211L468,214L470,216L469,219L470,222L469,224L468,227L469,230L470,233L469,237L469,240L468,243L468,245L468,248L467,251L466,254L467,257L467,257L471,257L475,258L480,258L486,258L491,259L496,259L498,259L501,259L504,259L506,259L509,259L511,259L514,259L517,259L520,259L522,260L525,260L528,260L532,260L537,260L541,260L546,260L550,260L555,260L558,260L561,261L562,263L564,265L566,267L568,266Z" data-oid="3529" /><path data-fips="20" data-hasc="US.KS" data-iso="USA" d="M467,367L468,363L469,359L470,355L471,350L472,346L473,342L473,338L474,334L475,330L476,326L477,322L478,318L479,314L480,310L481,306L480,302L478,301L477,298L476,294L474,292L473,289L475,287L477,285L480,284L480,281L478,279L476,280L474,278L472,276L467,275L463,275L458,275L453,275L449,274L444,274L439,274L435,274L430,273L426,273L421,273L417,273L412,272L408,272L403,272L399,272L395,271L390,271L386,271L382,271L378,270L373,270L369,270L365,270L361,269L357,269L353,269L349,268L345,268L341,268L337,268L332,267L331,270L330,273L329,275L328,278L327,281L326,284L326,286L325,289L324,292L323,295L322,297L321,300L320,303L319,306L318,309L317,311L316,314L316,317L315,320L314,323L313,325L312,328L311,331L310,334L309,337L308,340L308,342L307,345L306,348L305,351L304,354L303,357L308,357L313,358L318,358L322,359L327,359L332,360L336,360L341,361L346,361L351,362L356,362L361,363L366,363L371,364L376,364L381,364L386,365L391,365L396,366L401,366L407,367L412,367L417,367L423,368L428,368L433,369L439,369L444,370L450,370L455,370L461,371L466,371L467,367Z" data-oid="3530" /><path data-fips="29" data-hasc="US.MO" data-iso="USA" d="M588,409L590,407L589,403L592,402L591,400L593,398L593,395L593,393L595,395L594,396L597,395L598,393L600,391L602,393L604,390L606,386L607,382L607,379L605,378L603,376L602,378L600,375L599,373L598,370L599,367L600,365L599,361L599,358L599,355L597,354L596,351L593,349L591,347L588,345L585,343L583,341L582,339L580,336L581,333L583,330L585,327L587,324L587,321L589,319L589,316L584,314L581,313L577,315L576,312L576,309L576,306L576,304L575,301L570,297L569,294L564,288L563,284L563,281L562,279L563,272L564,269L566,267L564,265L562,263L561,261L558,260L555,260L550,260L546,260L541,260L537,260L532,260L528,260L525,260L522,260L520,259L517,259L514,259L511,259L509,259L506,259L504,259L501,259L498,259L496,259L491,259L486,258L480,258L475,258L471,257L467,257L467,257L466,258L467,260L467,263L468,266L470,268L470,271L470,274L472,276L474,278L476,280L478,279L480,281L480,284L477,285L475,287L473,289L474,292L476,294L477,298L478,301L480,302L481,306L480,310L479,314L478,318L477,322L476,326L475,330L474,334L473,338L473,342L472,346L471,350L470,355L469,359L468,363L467,367L466,371L466,375L465,379L464,383L463,387L470,388L476,388L483,389L490,389L497,390L504,390L511,391L518,391L525,391L532,392L539,392L546,393L553,393L561,393L568,394L575,394L577,395L579,398L579,401L577,403L574,405L572,407L570,408L569,410L575,411L578,411L582,411L586,411L586,412L588,409Z" data-oid="3531" /><path data-fips="31" data-hasc="US.NE" data-iso="USA" d="M470,274L470,271L470,268L468,266L467,263L467,260L466,258L467,257L466,254L467,251L468,248L468,245L468,243L469,240L469,237L470,233L469,230L468,227L469,224L470,222L469,219L470,216L468,214L468,211L468,208L469,205L469,202L468,200L465,198L464,195L462,194L459,193L456,191L454,189L448,189L445,189L442,190L440,192L437,190L433,188L430,185L426,185L423,185L420,185L416,185L413,185L410,185L406,185L403,184L400,184L397,184L393,184L390,184L387,184L384,184L381,184L378,184L375,183L371,183L368,183L365,183L362,183L359,183L356,183L353,183L350,182L347,182L344,182L341,182L339,182L336,182L333,182L330,182L328,185L327,188L325,192L324,195L322,198L321,202L319,205L318,209L317,212L315,215L314,219L312,222L311,226L310,229L308,233L307,236L309,236L314,237L318,237L322,237L326,238L330,238L335,238L339,238L342,239L341,242L340,246L339,249L337,253L336,256L335,260L333,264L332,267L337,268L341,268L345,268L349,268L353,269L357,269L361,269L365,270L369,270L373,270L378,270L382,271L386,271L390,271L395,271L399,272L403,272L408,272L412,272L417,273L421,273L426,273L430,273L435,274L439,274L444,274L449,274L453,275L458,275L463,275L467,275L472,276L470,274Z" data-oid="3532" /><path data-fips="40" data-hasc="US.OK" data-iso="USA" d="M450,475L452,468L453,461L454,453L456,446L457,439L459,432L460,424L461,420L461,415L461,410L462,406L462,401L462,397L463,392L463,387L464,383L465,379L466,375L466,371L461,371L455,370L450,370L444,370L439,369L433,369L428,368L423,368L417,367L412,367L407,367L401,366L396,366L391,365L386,365L381,364L376,364L371,364L366,363L361,363L356,362L351,362L346,361L341,361L336,360L332,360L327,359L322,359L318,358L313,358L308,357L303,357L299,356L294,356L290,355L285,355L284,358L283,362L281,366L280,370L283,370L285,370L289,371L293,371L298,372L303,373L309,373L314,374L320,375L325,375L329,376L333,376L336,376L340,378L339,382L338,385L337,389L336,393L335,396L334,400L333,403L332,407L332,411L331,414L330,418L329,421L328,425L327,429L326,432L325,436L327,439L331,445L334,444L336,446L338,444L340,446L340,449L342,452L345,452L347,454L352,455L354,457L356,458L359,456L362,457L364,458L364,461L366,464L366,466L369,466L372,464L375,464L376,467L377,469L381,468L384,469L383,471L385,472L386,469L389,468L391,467L392,469L395,470L398,470L399,472L402,473L404,474L407,474L409,472L413,472L416,472L418,471L421,470L423,472L426,473L430,472L432,470L435,473L438,475L439,477L441,479L443,481L446,482L449,483L450,475Z" data-oid="3533" /><path data-fips="46" data-hasc="US.SD" data-iso="USA" d="M468,198L467,195L468,192L469,190L471,188L472,185L474,183L474,180L474,177L474,174L477,173L479,166L481,160L483,154L485,148L487,143L489,137L491,131L493,125L493,122L490,121L490,118L489,115L491,114L494,112L496,110L498,108L498,107L493,107L489,107L484,107L480,107L476,107L471,107L467,107L462,107L458,107L454,107L449,107L445,107L441,107L437,107L433,107L428,107L424,107L420,107L416,107L412,107L408,107L404,107L400,107L396,107L392,107L388,107L385,107L381,107L377,106L373,106L369,106L365,106L364,109L363,112L361,114L360,117L359,120L357,122L356,125L355,128L353,130L352,133L350,136L349,139L347,142L346,146L344,149L343,152L341,155L340,159L338,162L337,165L335,168L334,172L332,175L331,178L330,182L333,182L336,182L339,182L341,182L344,182L347,182L350,182L353,183L356,183L359,183L362,183L365,183L368,183L371,183L375,183L378,184L381,184L384,184L387,184L390,184L393,184L397,184L400,184L403,184L406,185L410,185L413,185L416,185L420,185L423,185L426,185L430,185L433,188L437,190L440,192L442,190L445,189L448,189L454,189L456,191L459,193L462,194L464,195L465,198L468,200L468,198Z" data-oid="3534" /><path data-fips="22" data-hasc="US.LA" data-iso="USA" d="M533,652L533,652L530,653L533,652Z M540,653L537,652L540,653L540,653Z M550,638L550,638L553,639L550,638Z M502,633L503,631L501,629L498,629L496,631L499,633L502,634L502,633Z M589,629L590,624L588,621L589,624L589,626L589,630L589,629Z M578,619L577,619L580,616L577,618L575,620L578,619Z M572,656L575,655L577,657L580,655L580,651L579,649L577,647L575,646L573,644L570,643L567,643L567,641L564,639L563,637L561,634L564,634L563,632L565,633L568,633L566,632L568,630L570,628L573,629L574,626L572,625L572,622L573,620L570,620L568,622L567,625L564,626L562,623L560,621L562,619L565,619L565,616L563,618L563,615L562,618L560,616L557,617L554,619L550,619L548,618L544,617L543,614L544,612L547,609L549,607L552,607L555,608L557,611L560,612L562,613L564,615L567,616L569,615L568,614L567,611L566,607L565,604L563,601L563,598L562,595L564,592L565,589L566,586L563,585L559,585L556,585L552,585L547,584L543,584L538,583L533,583L529,583L525,582L521,582L515,582L511,581L513,577L514,574L514,571L516,571L517,568L517,565L518,563L520,560L521,556L523,552L526,551L528,549L530,548L532,546L534,542L536,539L538,536L535,535L534,532L533,529L532,527L532,523L535,522L533,520L534,517L535,514L533,512L528,511L523,511L518,511L514,510L509,510L504,510L499,509L494,509L489,508L485,508L480,508L475,507L471,507L466,506L461,506L457,505L456,509L455,514L455,518L454,522L453,526L453,530L452,534L452,538L452,542L454,544L455,547L456,550L455,553L455,556L457,559L458,561L458,564L459,567L460,569L460,572L461,574L459,577L458,580L458,582L456,586L454,589L453,591L453,594L451,597L451,599L452,602L452,605L451,608L449,610L449,611L449,613L447,616L445,617L447,620L449,618L453,619L458,619L461,619L464,619L468,622L472,623L474,626L477,627L483,629L488,631L491,629L493,628L492,624L495,623L499,622L502,622L501,625L503,625L507,626L507,629L509,630L509,633L513,634L515,635L517,634L517,636L518,639L520,641L519,644L519,641L516,640L514,642L517,644L521,646L524,646L525,648L529,648L531,650L534,649L536,646L535,644L538,644L541,643L543,645L545,647L545,650L546,652L550,650L550,647L552,646L552,643L552,640L549,639L549,636L551,637L556,639L558,642L560,644L558,645L564,646L565,648L568,649L569,652L572,654L573,651L573,654L571,657L570,660L572,656Z" data-oid="3535" /><path data-fips="48" data-hasc="US.TX" data-iso="USA" d="M345,729L345,727L345,730L345,729Z M345,724L345,726L345,727L345,724Z M345,722L345,718L343,707L343,701L344,692L343,696L343,699L342,705L343,708L343,712L343,714L344,717L345,723L345,724L345,722Z M346,687L348,683L351,678L354,673L352,675L349,679L347,681L346,684L345,687L345,690L346,687Z M356,671L358,668L359,664L357,669L355,671L356,671Z M365,662L367,661L371,659L373,658L372,658L369,658L366,660L364,661L363,664L365,662Z M416,633L419,629L418,629L417,631L414,633L410,636L416,633Z M340,735L343,734L346,735L345,731L343,733L344,730L342,729L342,726L341,723L341,720L339,718L340,716L340,712L340,708L339,705L340,702L338,700L341,698L341,695L342,692L343,689L340,690L337,689L335,688L337,686L336,683L339,687L342,686L342,688L344,687L345,684L347,681L348,678L349,676L346,672L345,669L349,670L351,672L355,667L356,664L353,665L352,663L354,661L357,660L358,662L359,660L359,663L361,661L363,658L363,656L364,653L366,655L367,658L372,655L373,653L370,653L371,650L369,647L370,644L371,647L372,649L374,647L375,645L377,648L380,647L380,650L384,650L378,653L381,652L384,651L387,650L390,648L386,648L392,647L396,646L399,645L402,643L405,640L408,638L409,636L409,633L411,633L413,631L416,630L419,628L416,626L417,624L414,622L414,619L415,616L418,618L420,615L423,616L422,619L422,623L426,622L428,624L425,624L422,626L421,629L423,626L432,623L436,622L438,621L441,620L445,619L444,615L449,610L451,608L452,605L452,602L451,599L451,597L453,594L453,591L454,589L456,586L458,582L458,580L459,577L461,574L460,572L460,569L459,567L458,564L458,561L457,559L455,556L455,553L456,550L455,547L454,544L452,542L452,538L452,534L453,530L453,526L454,522L455,518L455,514L456,509L457,505L457,501L458,497L458,493L459,489L459,487L456,485L453,485L451,486L449,483L449,483L446,482L443,481L441,479L439,477L438,475L435,473L432,470L430,472L426,473L423,472L421,470L418,471L416,472L413,472L409,472L407,474L404,474L402,473L399,472L398,470L395,470L392,469L391,467L389,468L386,469L385,472L383,471L384,469L381,468L377,469L376,467L375,464L372,464L369,466L366,466L366,464L364,461L364,458L362,457L359,456L356,458L354,457L352,455L347,454L345,452L342,452L340,449L340,446L338,444L336,446L334,444L331,445L327,439L325,436L326,432L327,429L328,425L329,421L330,418L331,414L332,411L332,407L333,403L334,400L335,396L336,393L337,389L338,385L339,382L340,378L336,376L333,376L329,376L325,375L320,375L314,374L309,373L303,373L298,372L293,371L289,371L285,370L283,370L280,370L278,376L276,380L275,384L274,388L273,393L271,397L270,401L269,405L268,410L267,414L265,418L264,423L263,427L262,431L261,436L260,440L258,444L257,449L256,453L255,457L254,462L253,466L252,471L251,475L250,479L249,484L248,488L246,493L245,497L244,501L243,506L242,510L238,509L234,509L229,508L225,507L221,506L217,505L213,504L208,503L204,502L200,502L196,501L192,500L188,499L185,498L181,497L177,496L176,499L176,502L177,502L177,504L179,505L180,508L180,511L180,514L182,517L184,519L185,521L186,525L187,527L188,530L189,533L191,537L192,539L194,541L194,541L196,544L197,547L198,550L197,553L198,556L199,559L199,563L198,566L198,569L198,572L199,575L199,578L200,581L202,583L204,585L205,588L206,591L208,593L211,595L212,598L215,599L216,601L218,603L220,605L223,605L225,603L227,601L228,598L229,596L230,595L231,592L233,589L234,586L236,584L239,584L241,584L243,582L245,583L248,585L252,586L254,586L260,589L262,590L263,593L266,595L266,598L268,600L269,603L271,605L273,608L273,611L274,613L275,616L275,619L276,622L277,624L277,628L278,631L278,634L279,637L280,640L280,644L282,646L284,650L285,653L286,655L286,658L287,661L289,663L290,666L292,667L294,670L294,672L294,675L293,678L293,679L294,682L294,684L293,687L294,690L296,693L297,696L297,699L298,703L298,706L299,708L300,711L302,712L305,713L306,714L308,717L311,718L313,720L316,721L317,724L319,726L322,726L324,727L327,728L330,729L333,730L334,733L336,735L338,737L340,735Z" data-oid="3536" /><path data-fips="09" data-hasc="US.CT" data-iso="USA" d="M1029,250L1032,250L1034,249L1037,247L1040,246L1042,245L1045,244L1047,243L1050,242L1052,243L1055,242L1058,242L1060,242L1060,239L1061,241L1064,240L1067,240L1070,240L1073,240L1074,237L1073,233L1073,230L1072,226L1072,223L1071,219L1071,219L1068,219L1065,219L1061,219L1057,219L1052,219L1051,219L1047,220L1046,220L1045,219L1041,219L1038,219L1035,219L1032,219L1029,219L1029,222L1029,224L1030,227L1030,230L1030,233L1030,236L1030,238L1030,242L1032,245L1029,246L1027,248L1029,251L1029,250Z" data-oid="3537" /><path data-fips="33" data-hasc="US.NH" data-iso="USA" d="M1080,199L1080,199L1081,198L1081,197L1082,197L1083,196L1083,195L1083,195L1083,195L1085,195L1085,195L1086,194L1088,193L1088,193L1090,194L1091,191L1091,187L1089,186L1088,183L1086,181L1084,178L1084,175L1083,173L1082,170L1082,167L1081,164L1080,160L1079,157L1079,154L1078,151L1077,148L1076,145L1076,143L1075,140L1074,137L1073,134L1073,131L1072,128L1071,125L1071,125L1068,126L1066,125L1064,128L1064,130L1063,133L1062,133L1063,136L1062,139L1062,142L1064,144L1063,147L1061,149L1058,151L1055,152L1054,155L1055,159L1054,162L1053,165L1053,167L1051,170L1051,172L1049,175L1050,181L1050,184L1050,187L1050,191L1049,193L1049,196L1051,198L1051,198L1055,198L1058,198L1062,198L1065,198L1067,198L1069,199L1072,199L1076,199L1077,199L1080,199Z" data-oid="3538" /><path data-fips="44" data-hasc="US.RI" data-iso="USA" d="M1084,235L1084,232L1084,236L1084,235Z M1090,232L1090,232L1089,231L1089,231L1089,231L1089,230L1088,229L1088,232L1090,234L1090,232Z M1087,235L1087,234L1086,231L1085,233L1085,236L1087,235Z M1075,240L1079,239L1082,238L1083,235L1083,231L1083,229L1083,226L1085,227L1085,230L1085,227L1084,227L1084,226L1083,225L1083,225L1083,224L1083,223L1083,223L1083,223L1082,223L1082,223L1081,220L1081,219L1080,219L1075,219L1073,219L1071,219L1072,223L1072,226L1073,230L1073,233L1074,237L1073,240L1075,240Z" data-oid="3539" /><path data-fips="50" data-hasc="US.VT" data-iso="USA" d="M1049,196L1049,193L1050,191L1050,187L1050,184L1050,181L1049,175L1051,172L1051,170L1053,167L1053,165L1054,162L1055,159L1054,155L1055,152L1058,151L1061,149L1063,147L1064,144L1062,142L1062,139L1063,136L1062,133L1063,133L1061,133L1056,133L1052,133L1047,133L1042,133L1038,133L1033,133L1029,133L1024,133L1020,133L1021,135L1021,138L1022,141L1021,143L1022,146L1024,149L1024,152L1024,155L1023,157L1022,160L1023,163L1024,166L1025,169L1025,174L1028,173L1029,175L1029,178L1030,181L1030,185L1031,188L1031,191L1031,195L1032,198L1034,198L1037,198L1039,198L1042,198L1044,198L1048,198L1050,198L1051,198L1049,196Z" data-oid="3540" /><path data-fips="01" data-hasc="US.AL" data-iso="USA" d="M611,615L609,615L605,616L612,616L611,615Z M617,617L621,617L627,616L627,613L630,613L632,611L633,609L633,609L633,605L633,602L631,600L630,597L628,595L629,592L630,590L635,590L640,590L645,591L649,591L654,591L659,591L664,592L668,592L673,592L678,592L683,593L688,593L693,593L697,593L702,593L707,593L707,593L707,590L706,588L705,585L705,582L706,577L707,574L707,571L705,568L705,562L706,559L708,556L708,554L709,551L712,549L712,547L710,545L711,542L711,541L710,538L708,535L707,532L707,529L706,526L705,522L705,519L704,515L704,511L704,508L703,505L703,502L703,499L702,496L702,493L702,489L701,486L701,483L701,479L701,476L700,473L700,470L700,467L699,464L699,459L698,455L698,451L693,451L688,451L684,450L679,450L675,450L670,450L666,450L661,449L657,449L652,449L648,449L644,448L639,448L635,448L630,448L625,448L625,449L627,452L626,455L625,460L625,462L624,465L623,469L622,473L622,477L621,481L620,485L619,490L618,495L617,500L616,504L615,509L614,514L613,519L612,523L611,528L610,532L609,536L609,540L608,544L607,547L607,550L606,554L605,557L605,560L605,563L605,567L605,570L605,573L604,577L604,580L604,583L604,587L604,590L604,593L604,597L604,600L603,604L603,607L603,610L606,610L609,611L611,613L612,608L613,604L614,602L616,599L618,601L618,605L617,608L618,611L620,613L621,616L617,616L615,617L617,617Z" data-oid="3541" /><path data-fips="12" data-hasc="US.FL" data-iso="USA" d="M808,829L808,829L806,830L808,829Z M813,827L811,825L811,825L811,828L809,829L813,827Z M818,826L816,823L818,827L818,826Z M831,824L831,823L829,825L831,824Z M846,814L848,812L851,809L851,808L852,806L854,802L852,804L851,806L848,809L847,812L845,814L844,816L846,814Z M797,762L793,761L792,760L791,758L792,761L794,763L797,762Z M794,756L792,754L793,757L795,759L794,756Z M852,720L851,717L850,714L849,712L849,715L850,717L851,720L853,725L854,728L856,733L857,735L852,720Z M841,694L842,688L843,685L842,684L839,686L839,689L840,693L842,697L841,694Z M709,642L712,641L714,639L712,641L705,643L703,644L706,644L709,642Z M658,613L660,613L657,613L654,613L650,613L647,613L643,614L638,615L658,613Z M831,809L834,808L837,809L839,809L841,808L844,806L846,807L849,807L850,804L852,800L851,798L852,795L854,791L855,788L856,786L858,784L858,787L859,774L860,766L861,763L862,757L862,753L861,749L860,743L859,740L857,736L854,734L856,735L851,724L850,718L840,695L839,692L838,689L837,684L836,680L836,677L838,680L838,683L841,684L844,684L844,687L843,692L843,700L844,703L846,706L848,709L846,705L844,702L844,698L844,695L844,691L846,689L844,685L843,682L841,680L839,676L835,669L833,666L831,661L829,655L827,650L825,646L824,643L823,641L823,638L822,635L821,631L821,628L820,626L819,620L818,618L818,615L816,613L816,610L817,612L818,608L816,607L814,607L811,606L807,605L803,603L801,604L799,606L798,609L800,611L799,614L798,617L797,619L794,619L793,617L793,614L791,612L788,611L785,611L780,611L777,610L774,610L771,610L768,609L765,609L761,609L758,609L754,608L751,608L747,608L744,607L741,607L737,607L734,606L731,606L728,606L725,605L720,605L716,604L714,604L711,604L709,600L708,596L707,593L702,593L697,593L693,593L688,593L683,593L678,592L673,592L668,592L664,592L659,591L654,591L649,591L645,591L640,590L635,590L630,590L629,592L628,595L630,597L631,600L633,602L633,605L633,609L633,609L634,611L633,613L631,615L636,614L637,612L640,611L641,608L641,606L642,608L643,610L644,608L647,606L645,609L647,610L645,612L641,613L644,613L649,612L652,612L657,612L660,611L662,611L665,610L669,610L672,611L671,614L668,614L665,614L661,613L664,614L670,616L673,617L677,619L679,621L684,623L682,620L680,619L683,617L685,619L688,619L686,620L684,623L687,624L690,625L691,628L694,628L691,628L689,626L685,624L687,626L690,630L693,632L695,634L696,637L694,640L693,637L693,634L693,636L694,641L698,641L703,640L707,639L710,637L709,640L711,639L714,638L716,635L719,634L722,633L725,632L722,631L725,630L727,628L729,627L732,627L736,627L738,629L741,631L744,633L747,634L748,636L749,639L751,641L753,643L755,644L755,647L756,649L759,652L762,654L763,657L765,659L766,662L769,661L772,662L774,664L775,667L776,670L779,673L778,677L778,679L778,682L777,687L776,691L775,694L773,697L773,700L773,703L772,706L771,709L772,712L773,714L775,717L774,714L773,711L775,714L778,714L779,712L780,709L778,709L775,707L778,706L776,703L778,706L781,708L783,710L785,708L786,712L784,714L782,716L780,718L779,721L779,723L777,724L774,722L776,725L778,726L780,729L780,732L782,735L783,738L787,744L787,747L790,748L793,749L792,747L791,743L789,741L791,743L794,743L797,744L794,745L796,748L795,753L796,756L797,759L799,758L802,754L805,752L803,754L800,758L798,761L802,761L803,763L802,766L803,769L804,773L805,776L806,779L808,781L810,781L813,782L816,783L818,785L819,788L821,790L822,792L824,795L824,797L825,801L828,802L830,803L830,806L827,805L825,803L824,805L825,808L827,810L831,809Z" data-oid="3542" /><path data-fips="13" data-hasc="US.GA" data-iso="USA" d="M817,603L818,600L818,597L816,600L816,603L817,606L817,603Z M798,617L799,614L800,611L798,609L799,606L801,604L803,603L807,605L811,606L814,607L816,607L816,604L816,602L816,599L817,596L816,593L818,595L819,592L816,592L818,591L821,590L823,586L821,585L818,583L823,584L824,581L825,577L822,578L821,576L824,576L825,573L827,575L827,572L824,572L825,569L829,569L830,566L827,565L830,564L833,564L835,562L835,559L834,558L831,557L828,555L827,553L828,550L827,547L826,543L825,541L822,539L820,537L819,535L819,532L819,529L817,524L815,522L813,520L809,518L807,515L806,512L804,510L804,507L802,505L800,503L798,502L796,500L795,497L793,494L790,493L788,491L786,489L784,486L783,483L781,481L780,477L778,474L778,471L774,470L772,469L770,467L767,465L763,462L764,459L766,457L769,454L771,452L766,452L762,452L757,452L753,452L749,452L744,452L740,452L735,452L733,452L730,452L727,452L723,452L719,451L716,451L712,451L708,451L705,451L701,451L698,451L698,455L699,459L699,464L700,467L700,470L700,473L701,476L701,479L701,483L701,486L702,489L702,493L702,496L703,499L703,502L703,505L704,508L704,511L704,515L705,519L705,522L706,526L707,529L707,532L708,535L710,538L711,541L711,542L710,545L712,547L712,549L709,551L708,554L708,556L706,559L705,562L705,568L707,571L707,574L706,577L705,582L705,585L706,588L707,590L707,593L707,593L708,596L709,600L711,604L714,604L716,604L720,605L725,605L728,606L731,606L734,606L737,607L741,607L744,607L747,608L751,608L754,608L758,609L761,609L765,609L768,609L771,610L774,610L777,610L780,611L785,611L788,611L791,612L793,614L793,617L794,619L797,619L798,617Z" data-oid="3543" /><path data-fips="28" data-hasc="US.MS" data-iso="USA" d="M583,614L583,614L581,614L583,614Z M598,616L595,615L592,615L598,616L598,616Z M573,613L576,611L577,609L578,611L582,610L586,609L590,609L587,608L590,608L595,611L598,611L601,612L603,610L603,607L603,604L604,600L604,597L604,593L604,590L604,587L604,583L604,580L604,577L605,573L605,570L605,567L605,563L605,560L605,557L606,554L607,550L607,547L608,544L609,540L609,536L610,532L611,528L612,523L613,519L614,514L615,509L616,504L617,500L618,495L619,490L620,485L621,481L622,477L622,473L623,469L624,465L625,462L625,460L626,455L627,452L625,449L625,448L624,448L620,448L616,447L613,447L609,447L605,447L602,447L598,447L595,446L591,446L587,446L584,446L580,446L577,445L573,445L570,445L566,445L567,447L564,449L561,450L560,453L558,454L557,457L556,462L555,465L552,466L550,468L547,471L544,473L546,475L545,477L542,478L541,480L540,483L538,485L536,488L537,490L535,492L536,495L536,497L535,500L536,503L536,506L534,508L533,512L535,514L534,517L533,520L535,522L532,523L532,527L533,529L534,532L535,535L538,536L536,539L534,542L532,546L530,548L528,549L526,551L523,552L521,556L520,560L518,563L517,565L517,568L516,571L514,571L514,574L513,577L511,581L515,582L521,582L525,582L529,583L533,583L538,583L543,584L547,584L552,585L556,585L559,585L563,585L566,586L565,589L564,592L562,595L563,598L563,601L565,604L566,607L567,611L568,614L569,615L572,615L573,613Z" data-oid="3544" /><path data-fips="45" data-hasc="US.SC" data-iso="USA" d="M835,557L837,555L839,553L837,556L840,555L841,551L839,549L838,546L837,544L836,541L839,542L839,545L842,547L842,543L843,546L843,550L846,550L848,548L849,546L846,547L848,544L846,542L843,541L846,540L848,542L851,543L853,542L856,538L858,539L861,538L864,537L866,534L866,531L868,533L870,531L872,529L875,527L875,524L878,523L881,524L882,521L883,518L885,519L887,517L886,515L884,513L886,510L886,513L888,515L889,509L892,505L895,501L897,499L900,496L903,494L906,492L904,490L902,488L900,486L898,484L896,483L894,481L892,479L890,477L888,475L886,473L884,471L882,469L880,467L878,465L876,463L872,460L869,460L866,460L861,460L858,459L856,459L853,459L850,459L845,459L842,459L839,458L838,453L835,449L832,450L831,447L828,447L824,447L819,447L816,447L813,446L811,446L806,446L801,446L797,445L793,445L791,446L789,447L786,447L783,449L780,449L771,452L769,454L766,457L764,459L763,462L767,465L770,467L772,469L774,470L778,471L778,474L780,477L781,481L783,483L784,486L786,489L788,491L790,493L793,494L795,497L796,500L798,502L800,503L802,505L804,507L804,510L806,512L807,515L809,518L813,520L815,522L817,524L819,529L819,532L819,535L820,537L822,539L825,541L826,543L827,547L828,550L827,553L828,555L831,557L834,558L835,559L835,557Z" data-oid="3545" /><path data-fips="17" data-hasc="US.IL" data-iso="USA" d="M606,376L608,374L610,372L614,371L621,375L625,377L626,375L625,371L625,368L628,365L631,364L637,362L636,359L637,356L639,353L638,350L640,348L641,345L642,343L644,341L643,338L645,337L647,335L649,333L651,331L653,328L654,326L657,324L657,320L657,317L657,314L656,312L655,309L657,306L658,303L660,301L660,296L661,292L662,287L662,283L663,278L663,273L664,269L665,264L665,260L666,255L667,251L667,246L668,242L668,237L669,233L670,227L673,227L677,227L678,225L679,222L681,218L682,214L684,209L685,205L680,205L676,205L671,205L666,205L662,205L658,205L653,205L649,205L645,205L641,205L636,204L632,204L628,204L624,204L619,204L615,204L611,204L607,204L603,204L598,203L600,206L602,208L602,211L606,214L607,217L607,220L606,222L604,225L602,226L600,229L598,232L594,233L591,235L583,235L581,238L580,241L581,244L582,248L581,250L578,253L577,256L575,259L572,260L569,261L568,263L568,266L566,267L564,269L563,272L562,279L563,281L563,284L564,288L569,294L570,297L575,301L576,304L576,306L576,309L576,312L577,315L581,313L584,314L589,316L589,319L587,321L587,324L585,327L583,330L581,333L580,336L582,339L583,341L585,343L588,345L591,347L593,349L596,351L597,354L599,355L599,358L599,361L600,365L599,367L598,370L599,373L600,375L602,378L603,376L605,378L607,379L606,376Z" data-oid="3546" /><path data-fips="18" data-hasc="US.IN" data-iso="USA" d="M644,352L645,349L647,351L650,350L651,352L653,350L657,349L659,350L663,352L666,353L669,349L671,349L674,349L676,351L679,351L681,349L683,346L685,344L686,341L688,343L690,346L693,347L695,348L698,346L699,341L701,339L704,339L706,337L709,333L711,331L713,328L713,324L719,324L721,325L727,322L730,322L731,320L729,318L729,315L731,312L731,310L731,307L732,304L732,302L732,299L732,296L732,294L733,291L733,289L733,286L733,283L734,281L734,276L735,271L735,265L736,260L736,255L737,250L737,245L738,240L738,235L739,230L737,228L733,228L729,228L725,228L721,228L717,228L713,228L709,228L705,228L701,228L697,228L694,228L690,228L686,228L682,227L677,227L673,227L670,227L669,233L668,237L668,242L667,246L667,251L666,255L665,260L665,264L664,269L663,273L663,278L662,283L662,287L661,292L660,296L660,301L658,303L657,306L655,309L656,312L657,314L657,317L657,320L657,324L654,326L653,328L651,331L649,333L647,335L645,337L643,338L644,341L642,343L641,345L640,348L638,350L639,353L641,353L644,352Z" data-oid="3547" /><path data-fips="21" data-hasc="US.KY" data-iso="USA" d="M593,393L593,395L595,395L593,393Z M757,396L759,395L762,394L767,393L770,392L774,390L775,388L778,387L781,386L782,383L785,382L785,379L788,378L793,375L796,374L798,372L803,368L807,365L805,365L802,364L800,362L798,360L797,357L795,355L794,353L793,350L791,347L789,344L790,341L791,339L791,336L790,333L785,330L784,329L783,325L780,325L778,327L775,329L772,329L770,328L767,327L765,326L762,328L759,327L756,324L753,323L750,323L746,320L745,317L744,315L742,314L739,312L736,313L733,311L731,312L729,315L729,318L731,320L730,322L727,322L721,325L719,324L713,324L713,328L711,331L709,333L706,337L704,339L701,339L699,341L698,346L695,348L693,347L690,346L688,343L686,341L685,344L683,346L681,349L679,351L676,351L674,349L671,349L669,349L666,353L663,352L659,350L657,349L653,350L651,352L650,350L647,351L645,349L644,352L641,353L639,353L637,356L636,359L637,362L631,364L628,365L625,368L625,371L626,375L625,377L621,375L614,371L610,372L608,374L606,376L607,379L607,382L606,386L604,390L602,393L600,391L598,393L597,395L601,395L606,395L611,396L615,396L620,396L625,396L630,396L635,394L634,390L638,391L642,392L645,392L649,392L652,392L655,392L658,392L661,392L664,392L667,392L672,393L675,393L679,392L682,393L685,393L690,394L695,394L702,394L708,395L716,395L723,395L730,396L736,396L742,396L747,396L751,397L754,397L757,396Z" data-oid="3548" /><path data-fips="37" data-hasc="US.NC" data-iso="USA" d="M928,482L928,482L927,484L928,482Z M938,471L941,469L941,469L939,470L934,474L938,471Z M965,464L962,463L965,465L965,464Z M958,462L961,462L960,462L955,463L949,465L958,462Z M969,459L972,457L974,454L972,456L969,459L966,465L969,459Z M983,447L986,445L982,447L980,449L983,447Z M991,444L993,443L994,442L995,440L995,434L995,430L994,427L993,424L994,427L995,429L995,432L995,435L994,438L994,441L991,443L988,445L991,444Z M990,421L987,420L990,423L990,421Z M991,420L987,412L985,409L984,406L983,404L982,398L981,398L981,398L982,400L983,403L984,407L986,411L986,414L988,417L991,421L993,424L991,420Z M980,398L979,398L979,398L977,398L977,398L980,398Z M909,492L913,491L916,491L919,491L923,491L924,488L924,485L924,481L925,485L925,490L926,487L927,482L929,479L930,477L932,474L936,471L938,470L941,468L940,465L940,463L942,465L942,468L944,467L948,463L948,461L950,463L955,461L958,461L961,459L963,462L964,459L965,461L967,459L969,457L971,455L971,453L968,452L967,450L966,453L964,454L961,453L958,455L956,454L953,453L951,450L950,447L953,450L955,452L958,452L960,451L963,449L964,446L961,446L964,445L966,443L965,441L960,440L956,438L953,437L951,435L954,436L956,437L959,437L962,436L961,434L963,433L966,434L963,436L966,438L968,436L968,439L970,438L973,439L976,439L978,438L980,435L981,433L983,429L984,432L987,430L987,427L987,424L986,421L983,418L982,421L979,421L978,427L977,424L977,421L978,419L976,417L973,417L971,420L968,418L965,418L962,419L958,419L958,416L957,413L957,411L958,408L957,411L958,413L961,415L964,416L966,415L968,413L966,411L968,412L973,413L972,411L974,412L976,410L974,407L976,409L980,410L980,407L981,409L982,412L985,414L984,411L982,406L979,404L977,401L977,398L974,398L970,398L967,398L963,398L959,398L955,398L952,398L948,398L944,399L941,399L937,399L934,399L930,399L927,399L923,399L919,399L914,399L910,399L905,399L901,399L896,399L892,399L888,399L884,399L881,399L877,399L874,399L870,399L867,399L864,399L860,399L856,399L852,399L850,399L845,399L841,399L837,398L833,398L829,398L826,398L823,398L820,398L817,397L815,397L813,399L813,402L813,406L810,405L807,408L802,414L800,412L797,413L794,414L792,416L790,418L787,418L785,416L782,417L781,420L778,420L777,423L775,425L771,425L768,427L766,429L764,430L760,432L756,432L754,432L751,433L748,435L746,436L745,439L744,441L742,443L738,443L736,445L736,449L735,452L740,452L744,452L749,452L753,452L757,452L762,452L766,452L771,452L780,449L783,449L786,447L789,447L791,446L793,445L797,445L801,446L806,446L811,446L813,446L816,447L819,447L824,447L828,447L831,447L832,450L835,449L838,453L839,458L842,459L845,459L850,459L853,459L856,459L858,459L861,460L866,460L869,460L872,460L876,463L878,465L880,467L882,469L884,471L886,473L888,475L890,477L892,479L894,481L896,483L898,484L900,486L902,488L904,490L906,492L906,493L909,492Z" data-oid="3549" /><path data-fips="39" data-hasc="US.OH" data-iso="USA" d="M795,335L798,334L799,331L802,330L802,327L802,323L803,321L804,319L807,316L810,317L812,319L814,317L813,314L815,311L816,309L819,307L820,305L824,303L827,304L830,303L832,302L834,299L837,297L839,294L839,291L841,289L842,286L843,283L843,281L844,278L846,275L846,272L846,270L846,267L846,264L849,263L849,260L849,257L849,254L849,250L849,247L849,244L849,240L849,237L849,234L849,231L849,228L849,224L849,221L849,218L849,215L849,212L846,212L843,213L840,213L836,214L833,214L830,215L826,217L822,219L819,221L815,223L811,225L807,227L803,229L799,231L792,231L788,229L783,226L782,223L773,229L769,229L764,229L760,229L756,230L751,230L747,230L743,230L739,230L738,235L738,240L737,245L737,250L736,255L736,260L735,265L735,271L734,276L734,281L733,283L733,286L733,289L733,291L732,294L732,296L732,299L732,302L732,304L731,307L731,310L731,312L733,311L736,313L739,312L742,314L744,315L745,317L746,320L750,323L753,323L756,324L759,327L762,328L765,326L767,327L770,328L772,329L775,329L778,327L780,325L783,325L784,329L785,330L790,333L791,335L792,336L795,335Z" data-oid="3550" /><path data-fips="47" data-hasc="US.TN" data-iso="USA" d="M736,449L736,445L738,443L742,443L744,441L745,439L746,436L748,435L751,433L754,432L756,432L760,432L764,430L766,429L768,427L771,425L775,425L777,423L778,420L781,420L782,417L785,416L787,418L790,418L792,416L794,414L797,413L800,412L802,414L807,408L810,405L813,406L813,402L813,399L815,397L812,397L808,396L805,397L802,397L799,397L796,397L793,397L790,397L787,397L784,397L781,397L778,397L775,397L772,397L769,397L766,396L763,396L760,396L757,396L754,397L751,397L747,396L742,396L736,396L730,396L723,395L716,395L708,395L702,394L695,394L690,394L685,393L682,393L679,392L675,393L672,393L667,392L664,392L661,392L658,392L655,392L652,392L649,392L645,392L642,392L638,391L634,390L635,394L630,396L625,396L620,396L615,396L611,396L606,395L601,395L597,395L594,396L595,395L593,395L593,398L591,400L592,402L589,403L590,407L588,409L586,412L588,414L585,415L584,419L579,420L580,423L579,426L577,427L575,430L573,432L572,435L573,439L571,441L569,443L566,444L566,445L570,445L573,445L577,445L580,446L584,446L587,446L591,446L595,446L598,447L602,447L605,447L609,447L613,447L616,447L620,448L624,448L625,448L630,448L635,448L639,448L644,448L648,449L652,449L657,449L661,449L666,450L670,450L675,450L679,450L684,450L688,451L693,451L698,451L701,451L705,451L708,451L712,451L716,451L719,451L723,452L727,452L730,452L733,452L735,452L736,449Z" data-oid="3551" /><path data-fips="51" data-hasc="US.VA" data-iso="USA" d="M980,398L980,397L979,398L980,398Z M980,376L980,374L981,369L982,366L983,364L986,364L987,362L988,359L990,354L991,352L991,351L992,348L991,348L987,349L985,350L985,350L982,352L983,354L981,355L981,358L979,361L978,364L977,367L976,370L976,372L976,375L978,378L980,376Z M994,351L996,347L995,347L995,347L994,349L994,352L994,351Z M864,399L867,399L870,399L874,399L877,399L881,399L884,399L888,399L892,399L896,399L901,399L905,399L910,399L914,399L919,399L923,399L927,399L930,399L934,399L937,399L941,399L944,399L948,398L952,398L955,398L959,398L963,398L967,398L970,398L974,398L977,398L977,398L979,398L978,396L979,393L980,395L981,398L982,398L981,396L978,389L978,386L975,386L972,385L968,384L968,387L965,386L962,387L963,384L960,382L958,381L956,377L954,376L950,376L948,374L946,373L943,373L940,372L943,372L946,372L948,372L951,375L952,372L953,374L956,375L958,375L959,378L961,380L965,384L967,382L969,380L967,377L965,375L962,375L959,372L956,369L955,366L958,369L960,372L963,374L966,373L964,371L964,368L966,370L969,371L969,367L967,366L966,363L963,362L961,362L959,359L958,357L955,356L953,353L951,352L949,349L948,347L945,346L944,343L946,345L948,346L950,349L952,351L954,353L957,355L959,357L962,359L964,361L966,361L967,359L967,356L968,354L967,351L964,350L962,348L960,346L958,344L955,344L952,343L949,343L947,340L945,339L945,336L942,337L939,338L938,336L938,333L938,330L941,328L942,326L945,324L944,319L943,319L940,317L938,315L936,314L933,313L931,311L931,308L928,306L925,306L925,306L923,308L922,311L920,310L917,308L914,305L910,303L908,303L908,306L906,309L906,311L904,313L902,316L900,318L897,319L896,321L894,324L890,322L888,325L887,328L886,331L884,333L882,336L879,335L877,333L875,331L872,330L871,333L871,336L869,338L868,341L866,343L865,345L864,348L862,351L859,354L857,356L856,358L855,361L855,364L854,366L848,368L846,368L843,370L840,370L838,370L838,372L833,374L830,374L828,375L826,373L823,374L820,375L818,376L815,376L813,374L810,373L808,371L808,368L807,365L803,368L798,372L796,374L793,375L788,378L785,379L785,382L782,383L781,386L778,387L775,388L774,390L770,392L767,393L762,394L759,395L757,396L760,396L763,396L766,396L769,397L772,397L775,397L778,397L781,397L784,397L787,397L790,397L793,397L796,397L799,397L802,397L805,397L808,396L812,397L815,397L817,397L820,398L823,398L826,398L829,398L833,398L837,398L841,399L845,399L850,399L852,399L856,399L860,399L864,399Z" data-oid="3552" /><path data-fips="55" data-hasc="US.WI" data-iso="USA" d="M685,199L685,196L685,191L686,187L686,184L686,181L687,176L688,171L689,168L690,165L691,162L693,157L695,154L696,151L697,148L699,146L700,143L702,140L704,136L706,134L708,132L712,129L715,127L712,126L709,124L707,123L704,121L700,121L696,121L694,123L692,126L690,127L688,128L686,132L683,131L681,128L682,126L682,123L678,123L680,121L680,118L681,115L680,113L677,112L675,111L675,108L672,107L669,106L667,106L664,106L661,105L658,104L656,103L654,102L651,101L648,101L644,100L641,99L637,98L634,97L633,95L631,92L629,91L631,88L633,86L635,84L636,82L638,80L640,77L642,75L643,73L640,73L636,73L632,73L629,73L626,74L624,75L621,76L619,77L616,79L614,80L612,81L609,82L606,83L604,85L601,86L598,87L595,86L593,87L590,89L589,93L588,96L587,99L586,103L584,105L581,106L579,107L576,108L574,110L570,113L569,116L572,118L573,120L571,123L570,125L569,129L567,131L567,135L566,137L566,140L568,143L572,144L574,147L577,148L580,151L582,155L585,158L588,159L590,160L592,162L592,166L592,168L591,171L591,174L590,175L590,178L593,180L591,183L590,186L589,189L590,192L590,195L592,198L596,199L598,201L598,203L603,204L607,204L611,204L615,204L619,204L624,204L628,204L632,204L636,204L641,205L645,205L649,205L653,205L658,205L662,205L666,205L671,205L676,205L680,205L685,205L685,199Z" data-oid="3553" /><path data-fips="54" data-hasc="US.WV" data-iso="USA" d="M820,375L823,374L826,373L828,375L830,374L833,374L838,372L838,370L840,370L843,370L846,368L848,368L854,366L855,364L855,361L856,358L857,356L859,354L862,351L864,348L865,345L866,343L868,341L869,338L871,336L871,333L872,330L875,331L877,333L879,335L882,336L884,333L886,331L887,328L888,325L890,322L894,324L896,321L897,319L900,318L902,316L904,313L906,311L906,309L908,306L908,303L910,303L914,305L917,308L920,310L922,311L923,308L925,306L925,306L924,304L923,301L921,300L920,297L917,296L915,294L911,294L909,296L905,296L904,299L901,299L898,298L895,297L893,299L890,301L887,302L885,304L883,305L881,307L877,310L877,293L873,293L870,293L866,293L863,293L859,293L856,293L852,293L849,291L849,286L849,281L849,276L849,271L849,266L849,263L846,264L846,267L846,270L846,272L846,275L844,278L843,281L843,283L842,286L841,289L839,291L839,294L837,297L834,299L832,302L830,303L827,304L824,303L820,305L819,307L816,309L815,311L813,314L814,317L812,319L810,317L807,316L804,319L803,321L802,323L802,327L802,330L799,331L798,334L795,335L792,336L791,335L791,336L791,339L790,341L789,344L791,347L793,350L794,353L795,355L797,357L798,360L800,362L802,364L805,365L807,365L808,368L808,371L810,373L813,374L815,376L818,376L820,375Z" data-oid="3554" /><path data-fips="10" data-hasc="US.DE" data-iso="USA" d="M986,334L990,334L995,333L999,333L999,333L1000,333L1000,332L998,330L995,328L999,326L998,323L996,322L993,320L991,316L989,313L988,310L988,307L986,304L984,302L983,299L983,297L983,294L985,292L986,289L984,289L981,289L979,290L977,292L977,297L978,302L978,307L979,311L980,316L980,321L981,326L981,331L982,334L986,334Z" data-oid="3555" /><path data-fips="11" data-hasc="US.DC" data-iso="USA" d="M948,320L944,316L943,319L944,319L945,320L945,323L948,320Z" data-oid="3556" /><path data-fips="24" data-hasc="US.MD" data-iso="USA" d="M995,347L996,347L997,346L998,343L998,339L998,342L997,345L995,347L995,347Z M1000,333L999,333L1000,333L1000,337L1000,333Z M981,350L985,350L987,349L991,348L992,348L992,348L993,345L995,343L997,340L998,336L996,335L999,333L995,333L990,334L986,334L982,334L981,331L981,326L980,321L980,316L979,311L978,307L978,302L977,297L977,292L974,292L970,292L967,292L964,292L961,293L958,293L955,293L952,293L949,293L946,293L943,293L939,293L936,293L933,293L930,293L927,293L924,293L921,293L918,293L914,293L911,293L908,293L905,293L902,293L899,293L896,293L893,293L889,293L886,293L883,293L880,293L877,293L877,310L881,307L883,305L885,304L887,302L890,301L893,299L895,297L898,298L901,299L904,299L905,296L909,296L911,294L915,294L917,296L920,297L921,300L923,301L924,304L925,306L928,306L931,308L931,311L933,313L936,314L938,315L940,317L942,318L944,316L948,320L945,323L945,326L943,327L941,330L939,332L939,335L941,337L943,335L946,335L947,338L951,339L949,336L951,338L953,341L956,341L958,342L960,344L962,342L963,345L965,346L965,344L963,341L961,339L959,337L956,334L955,331L955,327L956,333L958,335L961,337L963,337L962,334L959,330L959,327L958,324L959,322L958,320L960,317L958,314L961,314L960,312L958,310L957,307L961,308L959,306L962,306L961,303L964,304L966,301L966,304L968,302L968,300L970,298L973,297L972,300L976,298L976,301L973,301L971,303L974,304L968,304L967,307L966,309L966,312L967,315L967,312L970,312L968,314L967,316L964,316L964,318L966,317L969,318L968,321L969,323L967,322L964,322L965,326L965,323L967,325L969,326L971,328L974,328L972,330L969,328L966,329L967,331L965,333L966,335L968,336L971,339L974,340L975,338L975,340L978,337L977,340L979,341L977,344L980,344L979,346L981,346L979,348L979,351L981,350Z" data-oid="3557" /><path data-fips="34" data-hasc="US.NJ" data-iso="USA" d="M1004,317L1006,314L1007,311L1009,308L1009,305L1012,305L1014,304L1015,301L1014,297L1017,299L1017,296L1019,294L1020,291L1020,289L1020,286L1020,283L1022,282L1022,285L1022,289L1022,286L1022,283L1022,279L1023,276L1023,273L1021,269L1016,269L1015,266L1016,264L1018,262L1020,260L1021,257L1021,256L1022,251L1020,250L1017,249L1014,247L1011,246L1009,245L1006,243L1003,242L1001,240L999,241L997,243L996,246L994,248L993,250L990,252L992,254L992,257L990,259L990,262L991,265L993,266L994,269L997,270L999,273L1001,275L1003,278L1001,279L998,281L996,283L996,283L994,286L992,287L989,288L986,290L984,294L983,296L984,299L986,301L991,306L993,307L996,309L998,309L1001,309L1002,312L1001,315L1002,318L1004,317Z" data-oid="3558" /><path data-fips="36" data-hasc="US.NY" data-iso="USA" d="M1018,265L1019,262L1018,262L1016,263L1015,267L1018,265Z M1037,263L1040,261L1040,261L1036,262L1033,264L1037,263Z M1043,262L1047,260L1051,258L1047,260L1044,261L1040,262L1043,262Z M1027,264L1031,263L1034,262L1038,261L1040,260L1043,259L1046,259L1048,258L1051,257L1054,257L1058,256L1060,255L1063,254L1065,252L1069,251L1072,248L1069,250L1067,249L1064,250L1062,251L1059,253L1056,252L1058,251L1060,248L1064,246L1063,245L1061,247L1058,249L1055,251L1052,252L1048,252L1044,252L1041,253L1038,253L1035,254L1033,254L1029,255L1028,257L1025,257L1022,258L1020,262L1021,264L1024,262L1027,263L1024,265L1027,264Z M1023,257L1026,255L1027,253L1029,251L1027,248L1029,246L1032,245L1030,242L1030,238L1030,236L1030,233L1030,230L1030,227L1029,224L1029,222L1029,219L1028,217L1029,216L1029,214L1030,210L1031,205L1031,201L1032,198L1032,198L1031,195L1031,191L1031,188L1030,185L1030,181L1029,178L1029,175L1028,173L1025,174L1025,169L1024,166L1023,163L1022,160L1023,157L1024,155L1024,152L1024,149L1022,146L1021,143L1022,141L1021,138L1021,135L1020,133L1019,133L1015,133L1010,133L1005,134L1001,134L996,134L991,134L988,134L985,133L984,133L982,135L979,136L974,139L972,141L969,143L966,145L965,148L962,150L956,153L955,156L952,158L949,161L947,164L945,167L943,171L941,173L935,173L930,173L924,173L918,173L912,173L907,173L901,173L894,173L889,175L883,178L885,181L886,184L886,187L887,190L888,192L890,195L888,197L884,199L880,200L876,202L872,204L869,205L869,206L869,209L869,212L869,215L869,218L869,220L870,221L873,221L877,221L880,221L884,221L887,221L891,221L894,221L898,221L901,221L905,221L908,221L912,221L915,221L919,221L922,221L926,221L929,221L933,221L936,221L940,221L943,221L947,221L950,221L954,221L957,221L961,221L964,221L968,221L971,221L975,221L978,221L982,221L984,222L986,225L989,225L990,228L990,230L991,233L993,236L996,238L999,238L1001,240L1003,242L1006,243L1009,245L1011,246L1014,247L1017,249L1020,250L1022,251L1022,251L1021,246L1020,243L1022,245L1023,248L1023,252L1022,256L1021,260L1023,257Z" data-oid="3559" /><path data-fips="42" data-hasc="US.PA" data-iso="USA" d="M863,293L866,293L870,293L873,293L877,293L880,293L883,293L886,293L889,293L893,293L896,293L899,293L902,293L905,293L908,293L911,293L914,293L918,293L921,293L924,293L927,293L930,293L933,293L936,293L939,293L943,293L946,293L949,293L952,293L955,293L958,293L961,293L964,292L967,292L970,292L974,292L977,292L979,290L981,289L984,289L986,289L988,288L992,287L994,284L996,283L998,281L1001,279L1003,278L1001,275L999,273L997,270L994,269L993,266L991,265L990,262L990,259L992,257L992,254L990,252L993,250L994,248L996,246L997,243L999,241L1001,240L999,238L996,238L993,236L991,233L990,230L990,228L989,225L986,225L984,222L982,221L978,221L975,221L971,221L968,221L964,221L961,221L957,221L954,221L950,221L947,221L943,221L940,221L936,221L933,221L929,221L926,221L922,221L919,221L915,221L912,221L908,221L905,221L901,221L898,221L894,221L891,221L887,221L884,221L880,221L877,221L873,221L870,221L869,220L869,218L869,215L869,212L869,209L869,206L869,205L868,205L864,207L860,209L856,210L853,211L849,212L849,215L849,218L849,221L849,224L849,228L849,231L849,234L849,237L849,240L849,244L849,247L849,250L849,254L849,257L849,260L849,263L849,266L849,271L849,276L849,281L849,286L849,291L852,293L856,293L859,293L863,293Z" data-oid="3560" /><path data-fips="23" data-hasc="US.ME" data-iso="USA" d="M1130,158L1127,157L1130,159L1130,158Z M1142,151L1142,151L1140,149L1138,149L1137,152L1139,152L1142,151Z M1093,187L1094,183L1094,180L1097,179L1098,176L1099,174L1101,171L1100,168L1102,166L1105,165L1106,167L1107,165L1110,167L1109,164L1106,161L1108,159L1108,161L1109,164L1111,167L1110,163L1112,160L1112,163L1114,165L1114,162L1116,164L1118,160L1120,162L1122,160L1124,159L1123,156L1124,153L1125,151L1124,148L1126,147L1128,145L1129,148L1129,151L1131,152L1134,151L1133,148L1135,149L1135,146L1138,147L1140,145L1143,146L1144,149L1146,149L1146,146L1148,148L1147,145L1150,143L1151,146L1154,145L1154,142L1157,143L1158,140L1161,142L1163,140L1163,137L1161,135L1162,133L1160,130L1158,128L1156,127L1153,127L1151,125L1151,122L1150,118L1148,116L1145,116L1143,115L1140,114L1140,110L1139,107L1138,104L1137,100L1136,97L1135,93L1134,90L1133,86L1132,83L1130,78L1128,77L1125,75L1123,73L1120,72L1117,71L1114,73L1112,74L1109,74L1107,76L1103,74L1102,72L1102,69L1097,69L1095,74L1093,76L1092,78L1091,81L1089,83L1088,85L1087,87L1087,90L1087,95L1084,98L1084,101L1084,104L1084,107L1085,109L1083,111L1082,114L1080,115L1078,120L1079,123L1076,123L1075,126L1073,124L1071,125L1072,128L1073,131L1073,134L1074,137L1075,140L1076,143L1076,145L1077,148L1078,151L1079,154L1079,157L1080,160L1081,164L1082,167L1082,170L1083,173L1084,175L1084,178L1086,181L1088,183L1089,186L1091,187L1093,187Z" data-oid="3561" /><path data-fips="26" data-hasc="US.MI" data-iso="USA" d="M743,230L747,230L751,230L756,230L760,229L764,229L769,229L773,229L782,223L781,221L782,218L782,214L785,211L787,210L791,209L796,204L798,203L800,200L800,196L801,194L802,191L803,188L805,184L806,181L808,177L809,173L808,167L808,161L807,155L806,149L805,143L804,137L803,131L801,124L797,121L791,118L787,116L783,114L779,111L781,108L781,105L778,103L773,104L770,103L768,100L768,98L767,95L767,92L763,93L760,94L757,94L755,91L753,89L753,85L752,83L749,81L747,80L744,79L742,77L739,76L736,75L734,73L731,72L729,71L725,69L720,66L716,64L712,62L708,60L705,59L701,57L697,55L694,53L690,51L686,50L682,48L677,49L673,50L670,51L666,53L663,55L660,56L657,55L655,58L654,60L652,62L650,64L648,66L647,69L645,71L643,73L642,75L640,77L638,80L636,82L635,84L633,86L631,88L629,91L631,92L633,95L634,97L637,98L641,99L644,100L648,101L651,101L654,102L656,103L658,104L661,105L664,106L667,106L669,106L672,107L675,108L675,111L677,112L680,113L681,115L680,118L680,121L678,123L682,123L682,126L681,128L683,131L686,132L688,128L690,127L692,126L694,123L696,121L700,121L704,121L707,123L709,124L712,126L715,127L712,129L708,132L706,134L704,136L702,140L700,143L699,146L697,148L696,151L695,154L693,157L691,162L690,165L689,168L688,171L687,176L686,181L686,184L686,187L685,191L685,196L685,199L685,205L684,209L682,214L681,218L679,222L678,225L677,227L682,227L686,228L690,228L694,228L697,228L701,228L705,228L709,228L713,228L717,228L721,228L725,228L729,228L733,228L737,228L739,230L743,230Z" data-oid="3562" /></g></svg>