<?xml version="1.0" standalone="no"?>
<!DOCTYPE svg PUBLIC "-//W3C//DTD SVG 1.1//EN" "http://www.w3.org/Graphics/SVG/1.1/DTD/svg11.dtd">

<svg style="stroke-width:0.7pt; stroke-linejoin: round; stroke:#000; fill:#f3f3f0;" xmlns="http://www.w3.org/2000/svg" font-family="Helvetica, Arial, FreeSans, Sans, sans, sans-serif" height="514px" viewBox="0 0 800 514" width="800px" version="1.1" xmlns:xlink="http://www.w3.org/1999/xlink" enable-background="new 0 0 800 514">

<defs>

<style type="text/css">path { fill-rule: evenodd; }
#context path { fill: #eee; stroke: #bbb; } </style>

</defs>

<metadata>

<views>

<view padding="0" h="514.527078971" w="800">

<proj lon0="-98" id="laea" lat0="37.5" />

<bbox y="818.86" h="335.1" w="522.04" x="749.8" />

<llbbox lon1="-73.5" lon0="-120.5" lat1="50.0" lat0="25.0" />

</view>

</views>

</metadata>

<g id="usa">

<path data-fips="US25" data-iso="USA" d="M764.8,146.1L763.1,144.5L762.2,145.0L762.7,146.8Z M756.9,145.7L758.2,144.4L758.0,142.7L759.7,142.0L759.9,139.9L761.0,140.9L761.9,143.5L763.7,142.4L764.3,140.8L770.5,138.0L769.4,134.6L768.7,136.2L765.9,138.6L763.5,138.6L761.9,137.9L760.9,135.7L759.8,135.7L759.9,134.5L757.1,131.4L754.8,131.0L753.8,131.9L752.2,130.7L752.6,128.3L753.9,126.7L753.1,126.1L755.2,124.6L756.4,123.1L755.5,122.2L754.9,123.3L753.0,122.5L751.9,119.7L750.4,119.9L749.3,120.9L749.1,121.5L748.9,121.7L748.3,121.9L748.1,122.1L748.0,122.2L747.8,122.6L747.7,123.3L747.3,123.8L746.8,124.7L746.7,124.9L745.3,125.3L742.5,126.0L739.7,126.8L736.9,127.5L729.3,129.4L727.3,129.9L722.1,131.2L720.8,131.6L720.7,131.9L721.0,143.8L721.0,144.5L721.5,145.2L728.0,143.7L730.5,143.1L730.7,143.6L731.2,143.3L733.0,142.3L733.9,142.1L743.9,139.3L745.2,139.1L746.4,138.8L748.7,138.0L749.5,137.7L750.2,139.8L750.3,139.9L750.9,140.1L750.9,140.2L751.2,141.4L751.3,141.5L751.6,141.9L751.9,141.9L753.9,143.2L754.8,143.2L754.9,143.8L755.0,144.0L755.1,144.3L755.2,144.4L755.4,144.8L755.8,145.9Z " data-name="Massachusetts" />

<path data-fips="US32" data-iso="USA" d="M475.9,160.4L475.5,155.3L474.7,152.6L472.7,150.8L471.1,150.1L469.5,150.1L466.9,148.2L465.2,145.4L463.0,143.6L460.7,143.2L458.9,141.2L456.3,140.8L452.9,138.2L453.6,135.0L452.9,132.1L453.4,131.6L453.3,127.9L454.2,125.1L452.9,123.0L451.2,122.8L451.0,120.2L452.1,119.0L453.1,116.4L457.5,113.9L458.3,112.8L457.6,101.9L458.6,101.7L459.8,99.7L460.0,99.8L461.6,97.6L463.5,96.1L465.3,94.4L467.0,92.6L472.8,85.2L475.4,82.6L478.5,80.6L480.8,79.7L484.0,78.2L488.1,75.6L489.7,74.3L490.0,74.0L487.2,74.1L486.0,74.7L485.0,74.4L483.6,72.7L482.2,72.6L477.9,73.6L474.6,73.5L473.8,71.3L472.7,71.3L470.9,72.5L468.5,74.7L466.6,75.4L464.8,75.3L463.2,74.5L462.2,72.8L459.7,72.3L458.4,70.3L457.1,70.2L455.2,71.0L455.5,72.1L454.3,72.5L452.2,68.6L450.0,68.7L450.6,67.1L447.5,66.4L446.3,65.8L442.8,65.6L440.5,66.4L440.0,67.4L436.7,68.1L435.1,65.9L430.6,65.8L429.6,64.7L427.5,65.1L426.0,64.7L424.5,63.2L424.4,61.2L423.0,56.4L422.7,54.1L420.7,53.0L418.5,52.8L418.8,59.6L418.6,59.9L393.1,60.4L393.0,60.9L394.7,66.9L394.0,69.0L394.5,71.0L394.4,75.8L396.3,82.5L397.5,85.1L398.3,90.6L398.6,97.8L399.5,99.4L399.0,102.0L399.2,104.5L399.7,105.4L400.3,108.5L401.7,110.6L402.4,114.7L402.4,117.7L401.4,121.1L398.7,123.4L398.5,124.2L400.9,127.8L402.5,128.0L404.0,129.8L404.7,163.6Z " data-name="Minnesota" />

<path data-fips="US30" data-iso="USA" d="M304.0,115.1L308.2,57.9L161.0,37.5L156.8,55.8L158.5,59.3L158.7,60.5L159.6,62.3L159.7,64.2L158.9,64.9L159.7,66.4L160.6,70.0L162.5,71.2L163.1,72.8L166.5,78.8L166.3,80.2L167.8,81.8L167.6,82.8L168.7,82.5L169.9,84.7L172.6,84.6L172.9,85.5L170.7,90.7L169.9,91.9L169.8,93.5L168.8,94.1L169.3,94.9L168.8,97.0L169.4,97.5L169.3,99.1L166.8,100.7L167.2,102.4L166.1,104.7L167.3,105.1L168.5,106.8L171.6,105.7L174.1,103.9L175.9,106.3L175.7,109.0L175.9,111.7L177.8,115.5L178.5,117.9L177.6,119.0L179.2,122.0L181.1,122.2L182.4,125.3L181.9,126.0L182.6,127.6L182.4,129.0L184.1,130.9L185.6,129.0L186.7,128.9L190.9,130.2L191.5,128.9L192.8,128.6L194.7,129.6L197.6,129.5L198.5,130.2L200.1,129.9L202.4,130.5L203.6,127.4L204.7,126.9L205.6,127.5L206.5,130.2L208.3,132.4L209.8,122.9L302.6,132.8L302.8,132.8Z " data-name="Montana" />

<path data-fips="US38" data-iso="USA" d="M402.4,114.7L401.7,110.6L400.3,108.5L399.7,105.4L399.2,104.5L399.0,102.0L399.5,99.4L398.6,97.8L398.3,90.6L397.5,85.1L396.3,82.5L394.4,75.8L394.5,71.0L394.0,69.0L394.7,66.9L393.0,60.9L393.1,60.4L308.2,57.9L304.0,115.1L402.4,117.7Z " data-name="North Dakota" />

<path data-fips="US16" data-iso="USA" d="M208.3,132.4L206.5,130.2L205.6,127.5L204.7,126.9L203.6,127.4L202.4,130.5L200.1,129.9L198.5,130.2L197.6,129.5L194.7,129.6L192.8,128.6L191.5,128.9L190.9,130.2L186.7,128.9L185.6,129.0L184.1,130.9L182.4,129.0L182.6,127.6L181.9,126.0L182.4,125.3L181.1,122.2L179.2,122.0L177.6,119.0L178.5,117.9L177.8,115.5L175.9,111.7L175.7,109.0L175.9,106.3L174.1,103.9L171.6,105.7L168.5,106.8L167.3,105.1L166.1,104.7L167.2,102.4L166.8,100.7L169.3,99.1L169.4,97.5L168.8,97.0L169.3,94.9L168.8,94.1L169.8,93.5L169.9,91.9L170.7,90.7L172.9,85.5L172.6,84.6L169.9,84.7L168.7,82.5L167.6,82.8L167.8,81.8L166.3,80.2L166.5,78.8L163.1,72.8L162.5,71.2L160.6,70.0L159.7,66.4L158.9,64.9L159.7,64.2L159.6,62.3L158.7,60.5L158.5,59.3L156.8,55.8L161.0,37.5L149.1,34.9L137.9,82.4L137.4,83.3L138.3,87.2L137.3,88.6L137.9,90.6L138.0,92.4L138.7,94.0L141.2,96.2L141.6,98.4L141.4,99.6L138.0,103.4L136.3,106.9L134.5,108.7L133.8,110.8L132.3,112.7L130.8,113.5L128.7,116.4L127.1,117.9L126.5,121.4L129.2,122.5L129.9,124.3L128.5,126.0L128.7,127.1L126.6,131.3L119.2,164.5L159.9,172.4L201.2,179.1Z " data-name="Idaho" />

<path data-fips="US53" data-iso="USA" d="M137.3,88.6L138.3,87.2L137.4,83.3L137.9,82.4L149.1,34.9L81.2,17.4L80.3,19.3L81.0,21.9L82.5,22.3L82.1,23.7L82.4,26.1L81.5,26.8L80.1,29.4L81.5,31.1L80.9,32.5L80.8,35.3L81.8,37.6L80.2,38.0L78.2,40.7L78.2,41.9L77.1,44.4L77.0,48.1L74.9,49.9L74.0,48.7L73.0,50.6L70.5,52.2L69.8,50.5L67.9,51.5L69.1,48.0L70.3,47.6L70.3,50.5L72.1,48.4L73.4,49.6L73.6,48.2L75.6,45.1L75.3,43.8L74.2,44.2L73.8,42.8L75.1,41.6L77.4,40.9L77.5,38.0L76.2,38.0L75.4,33.8L74.7,32.9L72.9,33.0L71.3,31.4L70.0,31.7L66.7,30.0L62.2,28.3L60.5,27.1L60.1,26.2L58.5,25.2L55.4,22.0L54.2,23.3L53.3,25.2L52.4,29.4L53.9,34.3L53.9,36.0L52.8,41.5L53.4,43.5L52.7,47.9L54.3,48.6L54.3,49.5L52.6,51.8L51.9,54.0L53.7,54.6L52.7,56.5L53.0,57.8L52.4,59.7L49.8,61.1L51.7,63.3L54.1,63.0L54.9,64.1L56.5,64.3L58.4,67.2L59.7,67.2L60.5,67.3L62.6,69.4L63.1,72.2L62.2,78.2L62.9,79.1L64.5,79.7L67.7,81.7L71.7,81.3L74.3,80.5L77.2,81.1L80.8,82.5L81.7,84.3L83.4,84.3L85.2,85.0L89.1,84.3L91.0,85.2L94.1,85.5L95.7,84.8L98.4,84.5L102.0,84.8L103.1,84.1L106.4,84.5L109.5,85.2L110.9,84.5L137.9,90.6Z M76.5,41.9L76.1,41.4L75.2,43.3L76.2,43.6Z M79.9,37.9L79.9,36.5L78.4,33.9L78.4,32.3L77.7,31.7L79.0,30.4L79.6,28.9L78.8,28.8L76.8,31.0L77.2,33.0L77.9,33.0L77.4,34.6L77.6,36.4L78.7,37.0L78.7,38.2Z M75.5,25.3L75.8,25.1L74.5,22.8L73.9,23.1L73.6,24.8L74.7,26.3Z M79.3,23.4L78.3,22.2L77.4,22.0L76.4,23.1L76.7,24.0Z " data-name="Washington" />

<path data-fips="US04" data-iso="USA" d="M217.5,276.7L143.3,265.8L140.8,280.5L140.3,281.3L139.1,283.6L137.4,283.7L136.0,281.3L134.7,281.2L133.0,280.3L130.2,281.2L129.6,283.1L130.3,285.4L129.6,288.2L129.9,290.0L129.2,292.1L129.8,295.4L129.6,298.4L128.5,299.2L128.2,301.5L128.2,301.9L128.0,304.1L128.7,306.5L129.4,306.8L130.6,311.3L130.5,312.5L133.7,315.8L133.5,316.7L129.1,318.9L128.4,320.2L126.4,321.9L126.3,326.1L125.0,329.0L123.3,331.2L121.8,331.2L121.3,333.3L121.8,335.3L121.1,337.4L121.4,338.1L123.4,338.9L124.2,340.0L124.2,342.1L122.5,344.4L120.2,343.8L119.5,344.4L117.9,346.4L117.3,348.2L166.7,375.7L173.4,379.3L174.3,379.5L205.6,383.4Z " data-name="Arizona" />

<path data-fips="US06" data-iso="USA" d="M120.2,343.8L122.5,344.4L124.2,342.1L124.2,340.0L123.4,338.9L121.4,338.1L121.1,337.4L121.8,335.3L121.3,333.3L121.8,331.2L123.3,331.2L125.0,329.0L126.3,326.1L126.4,321.9L128.4,320.2L129.1,318.9L133.5,316.7L133.7,315.8L130.5,312.5L130.6,311.3L129.4,306.8L128.7,306.5L128.0,304.1L128.2,301.9L128.1,301.8L121.0,292.1L103.3,266.4L86.1,241.3L65.0,210.8L78.9,155.2L22.6,139.6L22.0,142.1L20.7,143.5L21.9,145.3L21.5,150.7L18.3,156.9L18.3,158.6L15.1,163.7L14.5,163.2L11.4,167.5L11.5,169.9L11.1,171.2L13.4,174.9L13.7,176.6L14.5,177.5L15.6,181.1L15.7,184.1L15.4,186.6L13.4,189.7L13.8,194.8L13.3,196.8L12.5,198.0L15.0,203.0L16.4,207.0L18.5,209.5L18.8,211.9L19.6,213.1L20.0,215.3L18.4,217.3L20.5,218.8L21.7,221.3L22.6,221.6L23.7,223.2L25.1,222.7L24.9,221.1L25.4,218.0L27.1,217.5L29.1,220.1L26.9,220.5L25.9,221.3L27.0,222.9L26.4,224.9L27.8,225.9L28.0,230.1L26.8,230.3L26.2,229.0L24.8,227.8L25.4,224.2L24.0,224.0L23.2,227.1L22.4,229.1L23.0,229.5L23.2,232.7L22.4,234.9L23.1,237.0L24.6,239.9L26.2,241.2L28.3,241.5L29.5,244.9L28.3,247.3L27.2,248.3L26.6,247.6L25.6,248.6L25.6,252.9L26.1,255.1L27.9,257.1L28.8,260.2L29.5,260.7L29.9,263.3L31.3,265.5L31.5,268.2L33.1,269.2L34.2,272.2L36.4,274.0L36.7,275.9L35.6,276.5L35.5,277.8L38.5,280.2L38.5,281.4L37.1,284.4L37.6,285.7L37.1,288.3L36.0,290.4L37.3,291.4L38.2,293.5L42.5,294.2L44.6,294.8L46.9,296.5L49.2,297.4L51.3,297.3L53.1,298.8L55.4,301.4L55.7,303.6L58.4,305.9L62.0,307.5L65.4,308.0L66.3,308.9L67.0,311.7L66.3,313.6L67.6,314.9L68.6,314.3L70.9,314.8L73.0,317.9L74.6,319.3L75.7,321.0L78.6,324.5L80.3,328.0L80.8,330.0L81.0,333.6L80.3,334.9L80.1,337.1L81.9,337.5L81.7,340.8L119.5,344.4Z M49.9,304.0L48.6,304.5L46.2,303.3L45.5,302.6L45.2,304.6L46.3,305.2L49.8,305.2Z M43.0,304.8L42.8,303.1L39.5,302.6L40.9,305.0Z " data-name="California" />

<path data-fips="US08" data-iso="USA" d="M324.9,228.6L325.8,209.8L297.2,208.2L226.6,201.6L217.5,276.7L308.1,284.5L322.6,285.2Z " data-name="Colorado" />

<path data-fips="US32" data-iso="USA" d="M128.2,301.5L128.5,299.2L129.6,298.4L129.8,295.4L129.2,292.1L129.9,290.0L129.6,288.2L130.3,285.4L129.6,283.1L130.2,281.2L133.0,280.3L134.7,281.2L136.0,281.3L137.4,283.7L139.1,283.6L140.3,281.3L140.8,280.5L143.3,265.8L159.9,172.4L119.2,164.5L78.9,155.2L65.0,210.8L86.1,241.3L103.3,266.4L121.0,292.1L128.1,301.8Z " data-name="Nevada" />

<path data-fips="US35" data-iso="USA" d="M219.7,376.3L246.8,379.1L247.2,379.4L245.8,377.9L244.9,374.6L302.4,378.7L307.0,294.3L307.7,293.9L308.1,284.5L217.5,276.7L205.6,383.4L218.9,384.9Z " data-name="New Mexico" />

<path data-fips="US41" data-iso="USA" d="M126.6,131.3L128.7,127.1L128.5,126.0L129.9,124.3L129.2,122.5L126.5,121.4L127.1,117.9L128.7,116.4L130.8,113.5L132.3,112.7L133.8,110.8L134.5,108.7L136.3,106.9L138.0,103.4L141.4,99.6L141.6,98.4L141.2,96.2L138.7,94.0L138.0,92.4L137.9,90.6L110.9,84.5L109.5,85.2L106.4,84.5L103.1,84.1L102.0,84.8L98.4,84.5L95.7,84.8L94.1,85.5L91.0,85.2L89.1,84.3L85.2,85.0L83.4,84.3L81.7,84.3L80.8,82.5L77.2,81.1L74.3,80.5L71.7,81.3L67.7,81.7L64.5,79.7L62.9,79.1L62.2,78.2L63.1,72.2L62.6,69.4L60.5,67.3L59.7,67.2L58.7,67.8L56.8,66.9L56.0,65.0L53.1,65.3L52.6,64.5L51.1,65.0L50.5,64.1L49.1,68.0L48.2,68.5L48.2,69.9L47.2,71.8L47.5,73.5L46.5,75.3L47.2,75.8L46.7,77.4L44.9,79.3L43.9,82.9L42.7,84.5L41.9,87.1L40.7,88.5L38.3,95.9L37.1,98.0L35.3,103.3L33.2,107.5L32.9,109.1L31.9,109.9L29.0,114.3L28.0,114.8L25.8,119.7L23.1,122.9L22.9,124.7L23.8,126.7L23.4,128.6L22.4,130.2L21.4,134.3L21.4,137.1L22.6,139.6L78.9,155.2L119.2,164.5Z " data-name="Oregon" />

<path data-fips="US49" data-iso="USA" d="M226.6,201.6L198.4,197.9L201.2,179.1L159.9,172.4L143.3,265.8L217.5,276.7Z " data-name="Utah" />

<path data-fips="US56" data-iso="USA" d="M299.9,170.4L302.6,132.8L209.8,122.9L208.3,132.4L201.2,179.1L198.4,197.9L226.6,201.6L297.2,208.2Z " data-name="Wyoming" />

<path data-fips="US05" data-iso="USA" d="M491.6,357.9L491.5,355.9L492.4,355.2L492.2,353.0L490.9,352.1L491.6,350.8L491.6,349.1L490.7,347.3L491.0,346.2L489.7,345.2L492.4,342.7L492.4,340.4L491.6,339.2L494.3,338.3L494.6,337.1L493.4,336.1L494.7,335.1L495.3,333.6L496.1,333.6L496.4,331.8L498.7,330.6L498.4,326.5L498.8,324.7L500.3,324.1L500.0,322.9L502.9,320.8L502.3,319.4L503.5,318.4L504.1,316.8L505.2,316.9L505.4,315.6L504.8,313.9L504.8,311.9L505.9,310.5L506.0,309.5L507.4,308.6L506.8,307.6L507.4,306.6L506.8,305.1L509.9,303.0L508.9,302.2L510.3,300.8L509.6,299.8L499.8,300.9L500.8,298.4L502.9,296.4L504.0,294.9L503.9,293.3L502.2,291.0L434.8,295.0L438.3,316.0L438.7,348.7L440.3,350.3L443.4,349.6L445.6,350.2L446.1,360.4Z " data-name="Arkansas" />

<path data-fips="US19" data-iso="USA" d="M478.5,219.0L478.2,215.2L480.9,213.9L481.7,213.0L482.1,210.6L483.7,208.1L483.6,205.8L482.9,204.5L481.7,203.7L481.3,202.5L481.8,200.1L482.5,199.0L486.6,198.4L487.9,197.1L490.2,196.3L491.4,195.1L491.8,192.3L493.0,191.0L493.6,186.8L493.0,185.3L489.6,183.1L488.5,180.7L485.7,178.8L485.8,178.4L486.0,177.8L484.7,175.7L481.0,175.1L479.8,174.5L478.4,171.4L477.5,166.7L478.5,164.3L478.0,163.2L476.8,162.9L475.9,160.4L404.7,163.6L402.7,163.7L403.6,165.8L403.3,168.9L404.4,169.0L404.8,170.8L404.1,172.2L403.4,176.1L402.3,177.8L404.0,179.8L404.6,182.1L405.8,182.5L405.7,185.0L406.6,186.2L406.6,188.1L407.7,189.6L407.8,190.9L409.4,192.1L409.7,194.4L410.7,195.7L410.2,197.7L410.6,200.3L411.9,200.6L412.7,201.9L412.4,204.3L413.6,204.8L413.0,206.8L413.8,207.2L413.7,210.2L414.3,211.0L414.5,214.5L414.0,215.7L415.3,217.1L415.4,218.2L434.0,218.1L447.1,217.3L453.7,217.0L470.2,215.6L473.2,215.1L474.0,216.4L477.7,219.4Z " data-name="Iowa" />

<path data-fips="US20" data-iso="USA" d="M433.0,245.5L433.0,245.0L429.8,243.8L428.7,241.8L428.7,240.7L426.8,239.5L425.7,238.1L426.5,235.7L427.5,234.0L428.6,234.3L428.7,232.5L427.7,231.0L425.9,231.8L424.1,231.0L422.2,229.3L324.9,228.6L322.6,285.2L434.4,285.6Z " data-name="Kansas" />

<path data-fips="US29" data-iso="USA" d="M509.6,299.8L510.2,297.9L511.1,297.1L511.3,294.9L510.5,293.3L511.9,292.4L511.3,290.2L512.3,290.1L513.3,290.0L514.1,287.3L515.8,288.5L517.2,285.2L516.9,283.0L517.0,280.6L516.2,280.7L514.2,278.9L513.9,280.2L510.5,275.7L511.3,273.9L511.3,272.4L510.0,270.1L509.4,267.7L507.9,267.1L506.6,265.2L503.4,263.3L500.6,262.3L496.8,259.1L496.1,257.4L497.5,252.6L498.3,250.8L498.1,248.8L499.0,247.1L498.1,246.1L494.4,244.9L492.2,246.7L490.4,244.7L489.7,240.8L488.2,238.6L484.6,236.4L483.8,234.9L479.9,231.9L478.3,229.1L478.2,227.5L477.5,226.3L476.9,223.3L477.0,220.7L477.7,219.4L474.0,216.4L473.2,215.1L470.2,215.6L453.7,217.0L447.1,217.3L434.0,218.1L415.4,218.2L416.5,219.7L417.5,222.9L421.0,227.1L420.8,228.5L422.2,229.3L424.1,231.0L425.9,231.8L427.7,231.0L428.7,232.5L428.6,234.3L427.5,234.0L426.5,235.7L425.7,238.1L426.8,239.5L428.7,240.7L428.7,241.8L429.8,243.8L433.0,245.0L433.0,245.5L434.4,285.6L434.8,295.0L502.2,291.0L503.9,293.3L504.0,294.9L502.9,296.4L500.8,298.4L499.8,300.9Z " data-name="Missouri" />

<path data-fips="US31" data-iso="USA" d="M420.8,228.5L421.0,227.1L417.5,222.9L416.5,219.7L415.4,218.2L415.3,217.1L414.0,215.7L414.5,214.5L414.3,211.0L413.7,210.2L413.8,207.2L413.0,206.8L413.6,204.8L412.4,204.3L412.7,201.9L411.9,200.6L410.6,200.3L410.2,197.7L410.7,195.7L409.7,194.4L409.4,192.1L407.8,190.9L407.7,189.6L406.6,188.1L406.6,186.2L405.7,185.0L405.8,182.5L404.6,182.1L402.8,182.0L401.4,179.2L400.1,179.1L399.3,178.1L395.6,177.2L393.1,175.4L387.8,176.0L385.7,175.7L384.1,177.4L382.4,177.0L380.1,175.7L376.8,173.2L299.9,170.4L297.2,208.2L325.8,209.8L324.9,228.6L422.2,229.3Z " data-name="Nebraska" />

<path data-fips="US40" data-iso="USA" d="M438.3,316.0L434.8,295.0L434.4,285.6L322.6,285.2L308.1,284.5L307.7,293.9L311.7,294.1L353.1,295.6L352.3,332.0L354.2,332.2L357.3,335.5L359.4,335.1L361.6,335.6L361.8,334.4L363.7,335.2L364.9,336.9L364.9,338.6L368.6,339.0L372.2,340.5L374.5,340.2L375.8,341.7L376.9,341.6L377.7,340.5L382.0,340.4L382.0,342.6L384.2,343.2L384.1,345.1L385.3,345.7L386.6,345.2L388.5,343.4L389.7,343.5L390.2,345.0L391.7,345.1L392.0,346.2L393.3,346.3L395.8,344.7L396.0,347.1L397.4,348.2L399.4,344.2L400.5,343.9L401.4,345.4L403.9,345.7L404.6,344.5L407.0,347.0L408.4,347.0L409.7,348.5L410.3,347.3L411.7,347.3L412.4,346.2L415.8,344.7L417.0,345.4L418.4,345.3L421.1,343.5L421.9,344.6L424.9,345.0L427.0,343.2L430.8,345.0L432.6,346.9L435.2,348.0L438.7,348.7Z " data-name="Oklahoma" />

<path data-fips="US46" data-iso="USA" d="M404.0,179.8L402.3,177.8L403.4,176.1L404.1,172.2L404.8,170.8L404.4,169.0L403.3,168.9L403.6,165.8L402.7,163.7L404.7,163.6L404.0,129.8L402.5,128.0L400.9,127.8L398.5,124.2L398.7,123.4L401.4,121.1L402.4,117.7L304.0,115.1L302.8,132.8L302.6,132.8L299.9,170.4L376.8,173.2L380.1,175.7L382.4,177.0L384.1,177.4L385.7,175.7L387.8,176.0L393.1,175.4L395.6,177.2L399.3,178.1L400.1,179.1L401.4,179.2L402.8,182.0L404.6,182.1Z " data-name="South Dakota" />

<path data-fips="US22" data-iso="USA" d="M527.0,430.0L529.0,430.3L531.6,427.9L528.3,424.2L527.6,425.0L524.5,423.6L523.1,423.9L522.8,422.5L520.4,421.7L519.4,419.6L521.5,418.5L523.4,415.6L524.6,416.1L525.2,415.0L524.3,412.9L523.4,412.1L524.1,411.3L522.6,410.9L521.4,412.8L520.7,414.9L519.5,414.9L517.0,413.1L517.6,411.0L516.0,410.1L515.3,411.3L513.6,412.5L511.5,413.0L508.7,412.4L507.0,411.1L507.4,409.6L510.2,406.1L512.9,406.4L514.5,408.2L518.1,408.4L518.8,409.5L521.1,409.0L521.2,409.1L521.8,408.9L521.1,409.0L519.8,407.0L518.9,404.2L516.8,402.3L515.8,400.1L517.2,395.0L517.2,394.0L486.2,396.3L487.3,395.2L486.5,393.7L486.7,392.4L486.0,391.2L487.7,390.9L488.3,388.4L487.6,386.8L489.0,385.3L489.4,382.2L490.3,379.9L491.6,379.4L494.0,376.6L493.9,374.1L494.8,374.0L496.4,370.3L493.5,368.4L493.3,366.5L492.1,365.2L492.3,360.8L493.1,359.4L491.6,357.9L446.1,360.4L446.8,379.5L449.1,381.6L450.7,384.8L450.6,387.1L452.2,388.4L452.0,389.0L453.6,391.1L453.2,391.9L454.7,394.4L455.4,394.4L455.3,396.2L456.0,397.2L455.1,397.9L455.8,399.1L455.3,401.4L453.6,405.6L452.9,406.4L453.4,408.4L452.7,409.6L453.4,411.6L453.5,415.5L452.3,417.2L452.7,418.8L452.1,420.1L450.9,420.4L451.7,422.5L453.5,421.4L457.4,421.1L461.2,420.6L464.0,421.0L467.2,422.0L470.4,423.6L476.9,424.4L480.3,422.7L479.8,420.2L482.1,418.7L484.3,418.5L484.3,420.6L487.1,419.8L488.0,420.3L487.9,421.8L489.1,421.7L489.8,423.8L491.1,423.4L493.7,424.5L496.8,427.0L497.0,428.3L496.0,428.2L496.1,427.1L494.7,426.5L493.5,428.1L495.2,429.0L497.6,429.7L498.4,429.1L501.0,430.6L503.9,430.7L506.0,426.7L507.4,427.2L508.2,426.0L511.2,427.6L511.0,429.2L511.8,430.7L514.2,428.8L513.8,426.8L514.6,425.2L513.9,423.5L511.4,422.4L511.9,421.3L515.5,423.0L516.5,422.9L518.8,423.8L518.6,425.5L521.2,425.9L521.8,426.6L523.9,426.7L525.7,429.5L526.9,429.6L525.5,431.7L526.1,432.1Z M485.4,424.9L485.6,422.9L483.2,422.0L481.7,423.7L484.8,425.0Z " data-name="Louisiana" />

<path data-fips="US48" data-iso="USA" d="M394.6,496.5L394.4,495.3L396.5,494.0L396.3,492.3L395.2,491.4L394.7,487.3L392.8,485.9L393.3,483.7L392.1,479.2L391.0,478.3L390.9,474.9L392.2,474.5L391.9,472.9L392.8,472.5L393.0,469.7L391.2,470.4L389.7,469.3L393.4,468.7L395.7,461.7L393.6,460.2L393.8,459.3L395.7,458.4L396.7,459.5L399.8,455.3L399.8,454.2L398.4,454.7L398.0,455.8L396.5,454.7L397.4,453.0L401.1,453.7L403.8,451.5L403.8,447.8L405.9,450.0L410.0,447.8L408.1,445.6L406.6,445.2L406.0,443.1L406.9,442.5L408.6,444.4L411.0,444.0L412.0,443.1L413.3,444.8L416.3,443.5L417.4,443.9L417.4,442.8L419.7,441.9L423.2,441.3L426.9,439.0L430.4,435.8L430.4,433.8L431.9,432.7L434.8,429.5L432.4,426.4L432.7,423.1L434.3,424.1L435.3,422.2L436.5,421.6L437.6,423.0L436.5,426.5L439.7,425.6L439.8,426.5L436.5,429.1L437.1,429.4L438.5,427.9L448.2,423.2L451.3,423.2L449.8,420.7L451.4,417.4L452.3,417.2L453.5,415.5L453.4,411.6L452.7,409.6L453.4,408.4L452.9,406.4L453.6,405.6L455.3,401.4L455.8,399.1L455.1,397.9L456.0,397.2L455.3,396.2L455.4,394.4L454.7,394.4L453.2,391.9L453.6,391.1L452.0,389.0L452.2,388.4L450.6,387.1L450.7,384.8L449.1,381.6L446.8,379.5L446.1,360.4L445.6,350.2L443.4,349.6L440.3,350.3L438.7,348.7L435.2,348.0L432.6,346.9L430.8,345.0L427.0,343.2L424.9,345.0L421.9,344.6L421.1,343.5L418.4,345.3L417.0,345.4L415.8,344.7L412.4,346.2L411.7,347.3L410.3,347.3L409.7,348.5L408.4,347.0L407.0,347.0L404.6,344.5L403.9,345.7L401.4,345.4L400.5,343.9L399.4,344.2L397.4,348.2L396.0,347.1L395.8,344.7L393.3,346.3L392.0,346.2L391.7,345.1L390.2,345.0L389.7,343.5L388.5,343.4L386.6,345.2L385.3,345.7L384.1,345.1L384.2,343.2L382.0,342.6L382.0,340.4L377.7,340.5L376.9,341.6L375.8,341.7L374.5,340.2L372.2,340.5L368.6,339.0L364.9,338.6L364.9,336.9L363.7,335.2L361.8,334.4L361.6,335.6L359.4,335.1L357.3,335.5L354.2,332.2L352.3,332.0L353.1,295.6L311.7,294.1L307.7,293.9L307.0,294.3L302.4,378.7L244.9,374.6L245.8,377.9L247.2,379.4L249.3,380.3L250.2,383.1L252.0,385.8L254.5,386.9L256.6,389.1L258.0,391.3L260.7,393.5L261.2,394.9L264.1,398.0L266.2,398.9L269.6,401.6L271.4,404.1L271.8,406.9L274.3,411.2L273.8,414.1L274.1,415.9L275.7,418.9L276.4,421.5L279.0,423.8L280.4,424.1L283.6,427.9L285.7,428.9L287.8,429.3L289.8,431.4L292.0,431.9L292.9,433.3L295.7,434.9L298.2,435.4L299.0,434.1L301.4,431.6L302.6,431.1L303.0,428.9L304.9,424.2L306.5,421.5L309.3,420.8L311.1,421.1L312.6,418.9L316.0,420.8L323.8,421.6L325.3,420.9L325.6,421.9L327.5,422.0L328.1,423.6L330.5,425.0L330.3,426.0L331.8,427.4L333.4,427.9L333.8,429.2L336.9,431.6L337.8,433.4L339.3,434.5L340.0,438.1L341.6,440.5L342.0,442.3L343.6,444.5L345.3,450.1L346.8,451.8L348.8,452.9L350.3,456.0L352.0,457.7L352.2,459.6L354.3,461.1L354.9,462.3L356.6,462.6L358.1,464.0L358.6,466.8L357.9,468.9L359.3,470.9L358.7,473.7L362.3,478.0L363.7,483.5L364.5,483.7L365.0,486.0L369.9,486.8L372.5,489.2L373.5,488.7L377.2,490.1L378.4,491.6L379.7,492.4L386.9,492.6L389.8,493.6L393.2,496.5Z M396.4,485.3L394.6,479.5L394.2,479.5L396.8,487.7L397.1,491.5L397.6,491.6Z M394.7,468.2L397.2,462.5L396.1,463.2L394.0,468.3Z M405.1,452.5L410.0,449.4L408.0,449.8L405.0,452.0L403.3,452.5L403.8,453.6Z " data-name="Texas" />

<path data-fips="US09" data-iso="USA" d="M725.8,164.6L728.2,161.9L730.7,160.4L732.4,158.6L733.0,157.3L733.7,157.5L737.3,156.1L738.8,156.2L740.6,154.7L741.6,154.8L742.6,153.8L743.8,153.6L746.4,152.1L747.3,152.4L746.8,148.5L744.0,139.5L743.9,139.3L733.9,142.1L733.0,142.3L731.2,143.3L730.7,143.6L730.5,143.1L728.0,143.7L721.5,145.2L724.6,159.5L725.9,160.6L723.2,163.7L724.7,165.1Z " data-name="Connecticut" />

<path data-fips="US33" data-iso="USA" d="M736.9,127.5L739.7,126.8L742.5,126.0L745.3,125.3L746.7,124.9L746.8,124.7L747.3,123.8L747.7,123.3L747.8,122.6L748.0,122.2L748.1,122.1L748.3,121.9L748.9,121.7L749.1,121.5L749.3,120.9L750.4,119.9L751.9,119.7L752.2,115.9L751.6,115.6L750.1,114.5L749.8,113.1L746.9,111.1L746.0,107.8L734.0,76.5L733.5,77.7L731.4,77.5L730.4,78.9L730.4,83.5L731.0,85.6L730.4,89.0L732.4,91.2L731.6,94.4L730.1,96.8L728.4,97.6L727.9,98.9L728.7,101.5L728.5,106.7L728.6,108.6L727.8,110.2L728.0,111.9L727.6,114.0L728.9,118.3L728.7,119.0L729.6,124.2L729.2,126.6L731.2,129.0Z " data-name="New Hampshire" />

<path data-fips="US44" data-iso="USA" d="M755.8,145.9L755.4,144.8L755.2,144.4L755.1,144.3L755.0,144.0L754.9,143.8L754.8,143.2L753.9,143.2L754.8,146.4Z M750.4,150.3L751.6,150.2L752.1,147.9L751.2,146.1L751.4,142.6L752.6,143.9L753.2,142.8L751.9,141.9L751.6,141.9L751.3,141.5L751.2,141.4L750.9,140.2L750.9,140.1L750.3,139.9L750.2,139.8L749.5,137.7L748.7,138.0L746.4,138.8L745.2,139.1L744.0,139.5L746.8,148.5L747.3,152.4Z " data-name="Rhode Island" />

<path data-fips="US50" data-iso="USA" d="M722.1,131.2L727.3,129.9L729.3,129.4L731.2,129.0L729.2,126.6L729.6,124.2L728.7,119.0L728.9,118.3L727.6,114.0L728.0,111.9L727.8,110.2L728.6,108.6L728.5,106.7L728.7,101.5L727.9,98.9L728.4,97.6L730.1,96.8L731.6,94.4L732.4,91.2L730.4,89.0L731.0,85.6L730.4,83.5L707.2,90.5L707.8,93.6L708.5,94.3L708.8,97.2L709.4,98.5L710.9,100.2L711.0,102.2L711.8,104.6L711.3,105.2L711.3,108.3L712.0,109.1L713.9,113.7L714.0,116.7L715.5,115.8L716.5,116.9L720.0,129.5L720.8,131.6Z " data-name="Vermont" />

<path data-fips="US01" data-iso="USA" d="M552.0,404.9L554.7,402.5L555.8,400.9L555.4,400.1L554.9,399.0L555.3,397.0L551.3,393.2L551.7,390.7L593.1,385.6L592.8,384.1L591.2,382.4L590.9,374.2L589.9,372.9L589.1,370.5L589.9,366.9L589.8,364.4L591.8,361.4L590.1,360.2L590.4,358.9L589.7,357.0L588.2,355.6L585.6,349.5L578.3,325.2L574.5,312.1L557.3,314.1L545.1,315.2L534.8,316.2L535.0,316.5L536.5,318.3L535.8,375.4L539.7,403.5L541.3,403.2L544.3,404.0L544.3,401.8L544.9,397.3L546.7,397.7L547.4,399.7L547.5,402.1L549.9,403.9L549.9,405.4Z " data-name="Alabama" />

<path data-fips="US12" data-iso="USA" d="M675.2,485.0L676.0,484.1L678.5,484.4L680.2,483.4L680.5,482.3L683.1,481.6L684.6,479.0L683.8,476.8L684.6,472.3L685.5,471.5L685.5,469.5L686.3,469.3L685.5,456.1L685.8,455.4L685.0,451.2L683.9,448.4L681.8,445.3L677.9,439.1L676.9,436.3L669.8,425.5L668.3,422.8L666.0,416.7L667.7,417.3L667.8,419.7L670.4,419.3L671.1,421.2L670.9,423.7L671.4,426.9L671.9,426.8L671.3,423.2L672.2,421.7L671.2,420.1L664.9,412.6L662.1,408.7L660.6,405.9L658.3,402.7L656.5,399.1L654.3,392.8L652.7,390.0L652.6,388.3L651.3,386.1L651.1,382.9L649.9,382.5L646.5,382.5L643.0,381.7L642.1,381.9L641.2,383.5L642.1,386.2L642.1,390.3L639.9,390.8L638.5,387.2L596.0,390.7L595.1,390.0L594.4,387.6L593.1,385.6L551.7,390.7L551.3,393.2L555.3,397.0L554.9,399.0L555.4,400.1L556.7,401.0L555.5,402.2L557.2,403.0L559.6,399.8L561.2,399.9L561.9,398.7L562.6,399.3L562.2,400.7L567.4,399.9L570.4,398.6L575.0,397.5L576.8,399.2L577.7,400.9L581.1,402.2L583.2,403.4L583.5,402.2L586.1,403.5L587.4,403.5L587.8,405.8L590.0,407.2L591.1,408.9L591.2,410.8L594.1,409.9L598.0,409.2L600.3,407.7L603.7,404.8L606.3,404.8L605.7,402.1L608.2,400.7L608.6,401.3L611.0,400.3L614.0,401.8L617.0,402.9L620.0,406.4L622.1,407.0L622.5,409.6L625.9,411.4L627.1,413.2L628.4,413.6L629.6,415.3L633.2,414.8L634.4,416.7L634.4,417.7L636.7,420.9L637.4,428.0L636.0,433.7L636.5,434.7L635.7,439.3L637.4,441.4L639.6,442.0L639.7,438.5L637.8,437.8L638.7,436.0L640.8,437.6L640.9,439.0L642.0,439.3L641.7,438.0L642.7,437.3L643.4,439.5L641.4,442.6L641.0,444.7L639.7,445.4L639.3,446.7L641.5,447.5L642.0,449.6L645.9,455.5L647.3,457.0L649.3,457.6L650.2,454.7L651.4,456.0L651.5,459.5L653.2,463.0L656.1,463.9L657.7,469.7L659.3,471.5L665.1,473.1L666.6,474.3L666.0,474.9L667.4,475.6L670.5,481.0L673.5,482.0L674.8,483.1L674.5,483.8L670.7,482.3L670.5,484.2L672.3,486.0Z M670.4,420.1L670.1,419.6L668.6,420.9L670.1,422.7Z " data-name="Florida" />

<path data-fips="US13" data-iso="USA" d="M642.1,390.3L642.1,386.2L641.2,383.5L642.1,381.9L643.0,381.7L646.5,382.5L649.9,382.5L649.2,380.1L649.1,377.7L650.2,376.4L650.4,374.2L651.9,371.3L650.9,370.7L652.5,366.8L650.5,366.5L652.9,364.0L651.7,362.8L652.9,362.3L653.7,360.6L653.1,359.3L654.6,359.4L654.6,357.8L655.6,356.1L653.3,355.3L652.4,355.6L650.9,353.8L650.8,351.3L649.3,348.4L645.6,346.4L645.3,344.2L643.2,340.9L642.7,338.9L638.6,337.4L638.1,336.3L635.2,334.0L634.8,331.9L633.0,330.6L630.4,329.5L629.3,327.5L627.2,326.1L623.7,324.3L622.9,322.9L620.5,320.6L619.8,318.7L617.8,315.8L614.8,315.6L612.7,313.7L609.5,312.3L609.9,310.1L612.3,306.3L593.9,309.4L574.5,312.1L578.3,325.2L585.6,349.5L588.2,355.6L589.7,357.0L590.4,358.9L590.1,360.2L591.8,361.4L589.8,364.4L589.9,366.9L589.1,370.5L589.9,372.9L590.9,374.2L591.2,382.4L592.8,384.1L593.1,385.6L594.4,387.6L595.1,390.0L596.0,390.7L638.5,387.2L639.9,390.8Z " data-name="Georgia" />

<path data-fips="US28" data-iso="USA" d="M521.8,408.9L522.9,409.0L523.4,407.5L524.7,406.6L524.8,405.1L526.2,406.1L532.4,403.6L534.2,404.7L536.5,403.7L538.6,404.9L539.7,403.5L535.8,375.4L536.5,318.3L535.0,316.5L502.3,319.4L502.9,320.8L500.0,322.9L500.3,324.1L498.8,324.7L498.4,326.5L498.7,330.6L496.4,331.8L496.1,333.6L495.3,333.6L494.7,335.1L493.4,336.1L494.6,337.1L494.3,338.3L491.6,339.2L492.4,340.4L492.4,342.7L489.7,345.2L491.0,346.2L490.7,347.3L491.6,349.1L491.6,350.8L490.9,352.1L492.2,353.0L492.4,355.2L491.5,355.9L491.6,357.9L493.1,359.4L492.3,360.8L492.1,365.2L493.3,366.5L493.5,368.4L496.4,370.3L494.8,374.0L493.9,374.1L494.0,376.6L491.6,379.4L490.3,379.9L489.4,382.2L489.0,385.3L487.6,386.8L488.3,388.4L487.7,390.9L486.0,391.2L486.7,392.4L486.5,393.7L487.3,395.2L486.2,396.3L517.2,394.0L517.2,395.0L515.8,400.1L516.8,402.3L518.9,404.2L519.8,407.0L521.2,409.1Z " data-name="Mississippi" />

<path data-fips="US45" data-iso="USA" d="M655.5,355.4L657.5,353.4L658.3,352.1L656.1,350.5L655.2,348.0L655.6,347.5L656.5,349.6L658.5,348.8L658.8,350.9L661.2,349.4L660.6,346.6L662.9,346.0L665.4,343.7L667.6,342.5L669.3,340.5L667.9,339.7L667.9,338.8L669.4,339.4L670.9,338.4L672.6,335.8L672.7,333.9L673.6,333.2L674.2,334.0L675.7,333.2L675.8,332.3L678.2,329.5L678.2,325.0L680.4,320.2L682.6,317.1L685.2,315.1L685.1,314.5L665.4,300.8L664.6,300.8L648.3,303.5L647.6,301.0L645.2,298.6L643.7,299.8L642.8,298.1L624.3,300.4L622.6,300.5L622.0,301.3L618.7,302.8L616.8,304.0L612.3,306.3L609.9,310.1L609.5,312.3L612.7,313.7L614.8,315.6L617.8,315.8L619.8,318.7L620.5,320.6L622.9,322.9L623.7,324.3L627.2,326.1L629.3,327.5L630.4,329.5L633.0,330.6L634.8,331.9L635.2,334.0L638.1,336.3L638.6,337.4L642.7,338.9L643.2,340.9L645.3,344.2L645.6,346.4L649.3,348.4L650.8,351.3L650.9,353.8L652.4,355.6L653.3,355.3L655.6,356.1Z " data-name="South Carolina" />

<path data-fips="US17" data-iso="USA" d="M517.0,280.6L516.0,279.1L517.8,276.2L519.9,275.8L524.1,277.3L526.4,277.9L527.0,276.0L525.7,274.2L526.0,271.5L531.0,269.7L531.5,268.8L530.1,266.7L531.4,264.5L531.5,263.4L531.0,258.8L532.4,256.6L531.5,255.7L532.0,254.0L533.4,253.9L534.4,250.6L535.9,249.3L536.1,246.8L537.0,246.1L537.4,244.5L536.4,242.5L536.5,240.7L534.3,238.1L535.2,236.3L534.6,234.6L535.8,233.3L530.7,188.5L529.8,187.8L529.0,185.9L528.1,183.3L526.6,181.7L525.5,179.7L525.1,177.5L525.1,175.1L525.1,174.9L485.8,178.4L485.7,178.8L488.5,180.7L489.6,183.1L493.0,185.3L493.6,186.8L493.0,191.0L491.8,192.3L491.4,195.1L490.2,196.3L487.9,197.1L486.6,198.4L482.5,199.0L481.8,200.1L481.3,202.5L481.7,203.7L482.9,204.5L483.6,205.8L483.7,208.1L482.1,210.6L481.7,213.0L480.9,213.9L478.2,215.2L478.5,219.0L477.7,219.4L477.0,220.7L476.9,223.3L477.5,226.3L478.2,227.5L478.3,229.1L479.9,231.9L483.8,234.9L484.6,236.4L488.2,238.6L489.7,240.8L490.4,244.7L492.2,246.7L494.4,244.9L498.1,246.1L499.0,247.1L498.1,248.8L498.3,250.8L497.5,252.6L496.1,257.4L496.8,259.1L500.6,262.3L503.4,263.3L506.6,265.2L507.9,267.1L509.4,267.7L510.0,270.1L511.3,272.4L511.3,273.9L510.5,275.7L513.9,280.2L514.2,278.9L516.2,280.7Z " data-name="Illinois" />

<path data-fips="US18" data-iso="USA" d="M533.6,262.7L532.9,261.4L533.6,260.8L535.0,261.7L538.7,260.6L540.4,259.7L544.5,261.1L545.2,262.2L546.1,260.1L549.2,257.8L550.6,259.4L553.6,258.5L553.5,256.8L555.2,254.7L555.2,253.3L556.8,254.0L557.0,255.4L559.6,256.2L560.6,256.9L562.3,254.9L562.3,252.3L563.2,250.5L565.4,249.8L565.8,247.4L568.3,245.0L567.4,241.5L570.2,240.8L571.4,241.6L573.9,239.8L576.5,239.0L576.7,237.0L575.2,236.7L575.8,235.2L574.9,234.1L575.6,233.3L568.7,184.4L568.6,183.3L539.9,187.1L537.7,188.9L535.4,190.1L532.8,190.3L530.7,188.5L535.8,233.3L534.6,234.6L535.2,236.3L534.3,238.1L536.5,240.7L536.4,242.5L537.4,244.5L537.0,246.1L536.1,246.8L535.9,249.3L534.4,250.6L533.4,253.9L532.0,254.0L531.5,255.7L532.4,256.6L531.0,258.8L531.5,263.4L532.9,263.7Z " data-name="Indiana" />

<path data-fips="US21" data-iso="USA" d="M534.2,288.0L533.4,284.5L536.4,284.5L537.0,284.9L556.2,282.5L557.5,282.2L563.5,282.0L573.1,281.1L577.7,280.2L598.6,278.0L599.4,277.5L601.6,276.0L603.0,275.6L605.5,274.0L606.9,273.6L607.5,271.8L610.2,270.2L610.5,268.7L612.1,267.1L612.2,265.7L613.1,264.6L617.0,261.7L621.8,255.9L619.5,255.8L618.4,254.7L616.5,253.9L614.5,251.7L613.1,249.1L610.1,246.0L610.5,243.0L609.9,241.0L609.7,240.8L607.9,239.1L605.9,238.4L604.6,235.5L602.6,236.5L601.4,238.4L599.0,239.3L597.9,238.3L595.3,237.7L593.8,239.4L592.9,239.5L590.3,237.5L588.8,237.2L587.1,237.6L585.4,237.3L583.0,233.4L581.1,232.4L578.3,233.3L576.9,232.2L575.6,233.3L574.9,234.1L575.8,235.2L575.2,236.7L576.7,237.0L576.5,239.0L573.9,239.8L571.4,241.6L570.2,240.8L567.4,241.5L568.3,245.0L565.8,247.4L565.4,249.8L563.2,250.5L562.3,252.3L562.3,254.9L560.6,256.9L559.6,256.2L557.0,255.4L556.8,254.0L555.2,253.3L555.2,254.7L553.5,256.8L553.6,258.5L550.6,259.4L549.2,257.8L546.1,260.1L545.2,262.2L544.5,261.1L540.4,259.7L538.7,260.6L535.0,261.7L533.6,260.8L532.9,261.4L533.6,262.7L532.9,263.7L531.5,263.4L531.4,264.5L530.1,266.7L531.5,268.8L531.0,269.7L526.0,271.5L525.7,274.2L527.0,276.0L526.4,277.9L524.1,277.3L519.9,275.8L517.8,276.2L516.0,279.1L517.0,280.6L516.9,283.0L517.2,285.2L515.8,288.5L514.1,287.3L513.3,290.0Z " data-name="Kentucky" />

<path data-fips="US37" data-iso="USA" d="M687.8,313.2L689.8,312.7L693.2,312.6L694.1,310.3L695.0,310.0L695.1,306.1L696.9,302.4L698.6,300.2L702.4,296.9L703.9,294.3L704.7,294.6L710.3,291.3L710.7,292.5L712.7,291.9L714.8,288.1L715.1,286.4L713.2,286.8L712.4,285.3L711.7,287.0L710.2,287.5L708.4,289.3L705.5,288.7L704.3,287.4L705.1,287.1L706.9,288.2L708.1,287.9L710.5,284.7L711.3,281.7L710.7,281.0L707.7,280.9L704.1,279.9L703.1,280.3L702.6,279.2L708.9,279.8L709.2,278.5L710.3,279.6L711.2,279.0L713.9,279.6L715.7,279.1L716.9,278.1L718.4,273.9L719.8,273.8L720.5,272.2L720.0,268.7L718.5,267.0L717.6,268.3L716.4,267.6L715.8,268.5L716.4,271.5L715.2,271.0L714.5,269.3L714.6,267.0L713.7,266.8L711.0,267.9L709.8,269.0L709.6,268.3L707.2,269.6L704.6,270.1L704.8,267.8L707.4,268.0L708.7,266.3L711.1,265.4L710.8,264.3L712.7,264.5L713.2,263.4L715.3,261.5L715.6,260.5L712.5,257.2L712.3,256.3L707.2,257.5L685.1,262.8L652.8,269.5L650.6,269.8L648.4,270.1L644.0,270.7L635.8,272.1L629.9,272.7L629.3,272.5L628.7,277.6L627.8,277.6L626.4,279.1L625.3,282.2L624.5,283.1L622.6,282.3L620.0,284.0L618.9,286.2L617.5,286.8L616.6,285.3L614.6,286.8L614.2,288.1L612.7,288.0L612.9,289.0L612.0,291.2L610.7,291.4L606.9,294.4L604.9,296.5L600.8,297.5L599.1,298.5L597.6,300.5L597.3,302.8L596.7,303.7L594.2,304.1L593.8,305.1L593.9,309.4L612.3,306.3L616.8,304.0L618.7,302.8L622.0,301.3L622.6,300.5L624.3,300.4L642.8,298.1L643.7,299.8L645.2,298.6L647.6,301.0L648.3,303.5L664.6,300.8L665.4,300.8L685.1,314.5Z M713.2,256.1L713.6,256.0L714.1,255.9L712.6,256.3Z " data-name="North Carolina" />

<path data-fips="US39" data-iso="USA" d="M613.5,239.8L614.1,236.8L615.2,236.4L614.3,233.2L615.7,228.7L616.4,228.2L620.1,229.2L618.9,226.7L619.7,226.1L619.5,224.4L620.2,222.7L621.7,222.1L622.7,219.8L624.1,220.3L626.2,219.2L628.2,216.3L630.4,214.0L630.6,211.9L630.0,211.3L631.1,208.0L630.8,205.5L631.3,201.7L631.8,201.0L631.2,197.5L629.8,195.5L631.7,194.0L625.5,162.8L615.6,166.9L601.7,179.6L597.7,180.2L592.3,177.9L591.0,176.4L587.1,180.9L568.7,184.4L575.6,233.3L576.9,232.2L578.3,233.3L581.1,232.4L583.0,233.4L585.4,237.3L587.1,237.6L588.8,237.2L590.3,237.5L592.9,239.5L593.8,239.4L595.3,237.7L597.9,238.3L599.0,239.3L601.4,238.4L602.6,236.5L604.6,235.5L605.9,238.4L607.9,239.1L609.7,240.8L609.9,241.0L611.1,241.0Z " data-name="Ohio" />

<path data-fips="US47" data-iso="USA" d="M535.0,316.5L534.8,316.2L545.1,315.2L557.3,314.1L574.5,312.1L593.9,309.4L593.8,305.1L594.2,304.1L596.7,303.7L597.3,302.8L597.6,300.5L599.1,298.5L600.8,297.5L604.9,296.5L606.9,294.4L610.7,291.4L612.0,291.2L612.9,289.0L612.7,288.0L614.2,288.1L614.6,286.8L616.6,285.3L617.5,286.8L618.9,286.2L620.0,284.0L622.6,282.3L624.5,283.1L625.3,282.2L626.4,279.1L627.8,277.6L628.7,277.6L629.3,272.5L625.6,273.0L625.0,273.5L599.4,277.5L598.6,278.0L577.7,280.2L573.1,281.1L563.5,282.0L557.5,282.2L556.2,282.5L537.0,284.9L536.4,284.5L533.4,284.5L534.2,288.0L513.3,290.0L512.3,290.1L511.3,290.2L511.9,292.4L510.5,293.3L511.3,294.9L511.1,297.1L510.2,297.9L509.6,299.8L510.3,300.8L508.9,302.2L509.9,303.0L506.8,305.1L507.4,306.6L506.8,307.6L507.4,308.6L506.0,309.5L505.9,310.5L504.8,311.9L504.8,313.9L505.4,315.6L505.2,316.9L504.1,316.8L503.5,318.4L502.3,319.4Z " data-name="Tennessee" />

<path data-fips="US51" data-iso="USA" d="M625.0,273.5L625.6,273.0L629.3,272.5L629.9,272.7L635.8,272.1L644.0,270.7L648.4,270.1L650.6,269.8L652.8,269.5L685.1,262.8L707.2,257.5L712.3,256.3L712.6,256.3L713.2,256.1L712.6,253.1L713.2,253.1L714.5,255.8L714.9,255.7L711.2,249.4L710.1,249.8L707.2,249.6L706.7,251.1L704.3,251.3L704.0,250.2L701.1,249.0L700.3,246.8L699.5,247.4L698.3,246.8L697.0,247.1L696.9,245.9L699.3,246.3L700.3,245.7L701.2,247.4L704.1,248.8L704.7,249.8L706.4,248.6L705.9,246.3L700.9,244.2L697.7,241.4L698.1,241.2L701.0,243.8L703.0,244.5L704.2,243.9L702.8,242.5L702.9,241.0L705.6,242.9L705.6,241.3L704.3,239.8L702.8,239.1L701.9,237.7L700.5,238.0L699.2,236.4L696.9,235.4L695.6,233.8L693.4,232.5L693.6,232.1L695.8,233.3L696.8,234.5L698.2,234.9L700.9,237.3L702.2,237.2L703.6,235.8L703.1,235.3L703.4,231.9L698.8,230.7L698.7,229.8L697.1,228.6L695.2,229.2L694.7,228.8L692.1,228.6L690.0,226.8L689.8,225.3L687.1,227.3L685.2,225.8L685.7,225.3L686.0,221.2L687.3,221.2L688.3,219.1L687.3,216.1L686.5,215.6L686.4,215.5L684.6,215.1L683.8,214.1L681.5,214.1L679.9,212.9L680.2,211.1L678.7,210.3L676.1,210.3L675.4,214.1L667.2,210.0L666.8,213.4L667.1,215.5L665.4,219.3L663.9,221.1L663.4,220.9L661.9,224.0L660.2,223.2L658.8,227.6L658.5,229.6L657.4,232.0L654.3,231.6L653.2,230.1L651.9,229.8L651.7,232.9L650.8,236.1L649.4,238.4L648.8,241.9L646.5,246.0L645.8,248.6L646.9,249.8L646.0,250.8L646.3,252.0L644.3,253.9L643.1,253.3L640.4,255.5L638.6,255.0L638.6,256.6L637.5,257.7L634.8,258.6L633.7,259.4L631.6,258.1L629.0,260.9L627.6,261.2L624.7,260.3L622.8,258.8L621.7,257.1L621.8,255.9L617.0,261.7L613.1,264.6L612.2,265.7L612.1,267.1L610.5,268.7L610.2,270.2L607.5,271.8L606.9,273.6L605.5,274.0L603.0,275.6L601.6,276.0L599.4,277.5Z M711.5,243.3L711.6,238.7L712.7,236.4L713.5,237.5L714.6,230.4L715.0,229.7L714.7,227.5L715.2,226.6L711.9,228.0L711.7,228.7L711.8,231.0L710.3,233.5L710.4,234.7L709.3,236.2L709.8,238.7L709.4,243.1L710.7,245.0Z " data-name="Virginia" />

<path data-fips="US55" data-iso="USA" d="M525.1,174.9L524.9,173.1L524.9,170.9L524.7,168.9L523.5,166.2L522.8,164.1L522.3,161.7L522.2,159.1L522.9,156.7L522.9,154.5L523.8,151.9L523.1,149.8L523.0,147.7L523.7,144.5L525.2,142.8L524.4,140.4L524.8,136.3L525.7,133.8L526.2,131.2L524.8,129.8L522.9,130.6L521.4,132.0L520.8,134.1L519.0,135.7L517.6,134.0L518.2,131.8L519.2,129.9L521.0,128.1L521.9,125.7L521.9,125.6L521.2,125.4L520.0,124.3L519.9,123.2L520.6,121.0L520.0,120.5L517.9,121.3L517.5,119.7L518.2,118.8L517.8,115.0L516.3,113.7L514.1,113.6L513.8,112.0L512.2,110.5L507.5,109.7L506.1,110.2L503.5,109.9L499.6,108.2L486.3,105.9L484.5,102.8L482.4,102.3L482.0,101.6L482.1,101.3L480.0,101.3L477.6,99.8L475.7,101.8L476.0,99.6L476.4,97.6L476.6,95.3L474.6,95.4L472.9,96.4L470.4,97.4L468.9,98.8L466.8,99.4L464.0,100.7L461.8,101.1L459.9,100.0L460.0,99.8L459.8,99.7L458.6,101.7L457.6,101.9L458.3,112.8L457.5,113.9L453.1,116.4L452.1,119.0L451.0,120.2L451.2,122.8L452.9,123.0L454.2,125.1L453.3,127.9L453.4,131.6L452.9,132.1L453.6,135.0L452.9,138.2L456.3,140.8L458.9,141.2L460.7,143.2L463.0,143.6L465.2,145.4L466.9,148.2L469.5,150.1L471.1,150.1L472.7,150.8L474.7,152.6L475.5,155.3L475.9,160.4L476.8,162.9L478.0,163.2L478.5,164.3L477.5,166.7L478.4,171.4L479.8,174.5L481.0,175.1L484.7,175.7L486.0,177.8L485.8,178.4Z M527.3,129.3L527.7,127.2L528.8,125.5L528.9,123.3L529.6,122.4L527.3,123.4L526.2,125.2L525.2,127.2L525.1,129.5Z " data-name="Wisconsin" />

<path data-fips="US54" data-iso="USA" d="M629.0,260.9L631.6,258.1L633.7,259.4L634.8,258.6L637.5,257.7L638.6,256.6L638.6,255.0L640.4,255.5L643.1,253.3L644.3,253.9L646.3,252.0L646.0,250.8L646.9,249.8L645.8,248.6L646.5,246.0L648.8,241.9L649.4,238.4L650.8,236.1L651.7,232.9L651.9,229.8L653.2,230.1L654.3,231.6L657.4,232.0L658.5,229.6L658.8,227.6L660.2,223.2L661.9,224.0L663.4,220.9L663.9,221.1L665.4,219.3L667.1,215.5L666.8,213.4L667.2,210.0L675.4,214.1L676.1,210.3L675.7,209.0L674.0,206.9L673.3,205.4L671.6,206.0L668.9,204.7L667.8,205.1L667.1,206.4L665.6,206.8L664.9,208.8L661.7,209.3L660.1,207.9L658.1,211.9L656.7,211.6L654.0,215.7L651.7,217.9L649.8,208.3L635.1,211.3L631.7,194.0L629.8,195.5L631.2,197.5L631.8,201.0L631.3,201.7L630.8,205.5L631.1,208.0L630.0,211.3L630.6,211.9L630.4,214.0L628.2,216.3L626.2,219.2L624.1,220.3L622.7,219.8L621.7,222.1L620.2,222.7L619.5,224.4L619.7,226.1L618.9,226.7L620.1,229.2L616.4,228.2L615.7,228.7L614.3,233.2L615.2,236.4L614.1,236.8L613.5,239.8L611.1,241.0L609.9,241.0L610.5,243.0L610.1,246.0L613.1,249.1L614.5,251.7L616.5,253.9L618.4,254.7L619.5,255.8L621.8,255.9L621.7,257.1L622.8,258.8L624.7,260.3L627.6,261.2Z " data-name="West Virginia" />

<path data-fips="US10" data-iso="USA" d="M717.4,217.7L717.7,217.6L717.9,217.5L717.2,215.6L716.1,214.6L715.8,211.3L714.6,211.5L712.0,209.7L710.2,207.3L709.2,204.0L705.5,200.4L705.7,199.1L704.6,197.9L706.2,193.7L703.7,193.8L702.1,195.3L701.7,196.6L708.6,219.9Z " data-name="Delaware" />

<path data-fips="US11" data-iso="USA" d="M689.5,215.8L687.2,214.4L686.5,215.6L687.3,216.1L688.3,217.7Z " data-name="District of Columbia" />

<path data-fips="US24" data-iso="USA" d="M709.5,229.0L711.7,228.7L711.9,228.0L715.2,226.6L716.0,224.7L716.2,222.4L717.4,221.8L717.7,219.5L717.0,219.1L717.4,217.7L708.6,219.9L701.7,196.6L649.8,208.3L651.7,217.9L654.0,215.7L656.7,211.6L658.1,211.9L660.1,207.9L661.7,209.3L664.9,208.8L665.6,206.8L667.1,206.4L667.8,205.1L668.9,204.7L671.6,206.0L673.3,205.4L674.0,206.9L675.7,209.0L676.1,210.3L678.7,210.3L680.2,211.1L679.9,212.9L681.5,214.1L683.8,214.1L684.6,215.1L686.4,215.5L687.2,214.4L689.5,215.8L688.3,217.7L688.8,219.4L686.9,222.1L686.3,224.3L687.6,226.5L688.6,225.0L690.2,224.5L692.4,226.9L694.5,227.5L696.4,226.9L698.3,228.5L701.3,228.8L701.3,227.7L699.7,226.0L698.9,223.0L696.7,220.8L696.0,217.8L695.2,216.8L695.6,216.0L694.4,213.4L694.9,212.4L696.2,211.6L694.7,209.1L695.5,205.0L697.3,204.7L698.9,202.2L698.2,200.8L700.1,200.1L701.4,201.2L698.0,205.5L697.6,208.8L698.3,209.5L699.3,208.6L699.6,214.8L698.4,215.0L698.4,217.6L700.0,216.7L701.6,217.7L701.4,219.8L699.8,221.6L701.7,223.7L702.0,222.9L705.8,224.3L707.0,226.2L708.9,226.9L708.1,229.2L708.7,230.1Z " data-name="Maryland" />

<path data-fips="US34" data-iso="USA" d="M718.0,207.8L719.3,205.3L719.9,202.2L720.6,200.7L721.4,197.4L722.3,196.7L721.9,194.8L722.9,194.9L723.0,193.7L724.3,190.6L723.8,189.8L724.2,186.9L723.6,185.7L724.6,184.4L724.1,183.0L724.2,179.5L723.1,177.6L719.0,177.3L718.8,175.8L719.6,172.5L720.4,172.9L721.0,171.8L721.5,167.5L721.3,166.4L708.7,162.6L707.1,164.6L707.1,166.5L705.8,169.4L704.5,171.0L706.1,172.4L706.0,174.3L705.0,175.4L706.0,178.8L707.3,178.6L708.1,180.5L709.6,181.0L714.2,184.6L710.8,188.4L709.9,191.5L707.7,192.7L706.2,194.4L705.3,197.6L706.2,198.7L706.3,200.3L709.3,202.2L711.1,202.6L713.0,204.3L714.4,203.4L716.9,204.1L716.8,208.3Z " data-name="New Jersey" />

<path data-fips="US36" data-iso="USA" d="M721.1,174.3L720.9,173.3L719.4,173.8L719.2,176.5Z M723.7,169.1L723.2,168.2L724.7,165.1L723.2,163.7L725.9,160.6L724.6,159.5L721.5,145.2L721.0,144.5L721.0,143.8L720.7,131.9L720.8,131.6L720.0,129.5L716.5,116.9L715.5,115.8L714.0,116.7L713.9,113.7L712.0,109.1L711.3,108.3L711.3,105.2L711.8,104.6L711.0,102.2L710.9,100.2L709.4,98.5L708.8,97.2L708.5,94.3L707.8,93.6L707.2,90.5L690.2,95.5L687.9,95.8L685.0,98.3L683.5,99.9L679.5,106.5L678.1,110.2L675.9,112.0L674.8,113.7L675.0,114.3L673.4,115.8L672.1,118.1L669.7,127.4L669.2,127.8L644.8,133.3L639.1,137.9L641.5,141.3L642.1,144.4L642.9,145.8L644.7,146.7L644.9,147.8L643.9,149.6L634.9,156.7L636.9,166.1L637.0,166.7L697.0,153.0L698.2,153.6L698.7,154.8L701.3,155.1L701.9,156.1L702.5,159.0L703.9,160.7L705.8,161.5L707.7,161.2L708.7,162.6L721.3,166.4L720.3,163.3L720.9,163.3L721.5,165.4L721.9,169.8Z M723.6,174.2L728.5,171.0L729.8,170.4L731.7,168.8L733.7,168.0L737.4,165.6L740.6,164.2L745.9,159.5L744.5,158.4L742.5,159.8L740.7,162.6L739.8,161.8L742.1,157.5L742.9,157.3L741.6,157.6L738.8,161.3L737.0,162.4L731.6,163.9L730.8,165.3L728.6,165.1L728.0,165.9L725.6,166.8L724.6,167.7L724.3,169.6L723.4,169.4L722.0,170.4L721.3,173.1L722.0,174.3Z " data-name="New York" />

<path data-fips="US42" data-iso="USA" d="M649.8,208.3L701.7,196.6L702.1,195.3L703.7,193.8L706.2,193.7L706.5,193.1L709.6,191.0L709.7,189.6L710.8,188.4L714.2,184.6L709.6,181.0L708.1,180.5L707.3,178.6L706.0,178.8L705.0,175.4L706.0,174.3L706.1,172.4L704.5,171.0L705.8,169.4L707.1,166.5L707.1,164.6L708.7,162.6L707.7,161.2L705.8,161.5L703.9,160.7L702.5,159.0L701.9,156.1L701.3,155.1L698.7,154.8L698.2,153.6L697.0,153.0L637.0,166.7L636.9,166.1L634.9,156.7L629.0,161.2L625.5,162.8L631.7,194.0L635.1,211.3Z " data-name="Pennsylvania" />

<path data-fips="US23" data-iso="USA" d="M771.6,85.5L770.4,85.2L770.2,86.1L771.2,87.1Z M775.2,82.8L776.2,82.1L776.0,81.2L774.4,80.1L773.4,81.2L773.3,83.3L775.2,84.2Z M752.6,115.1L753.0,112.3L752.6,111.4L752.9,109.7L753.7,109.2L754.6,107.1L754.2,105.0L755.7,104.3L754.3,101.9L755.3,99.5L756.1,98.8L756.8,99.8L757.9,98.7L759.6,99.8L760.2,97.1L759.3,96.5L759.8,93.9L761.1,96.8L762.8,96.1L762.7,93.8L763.1,92.9L764.6,93.6L766.1,92.9L765.9,91.8L766.9,90.6L766.1,89.2L766.3,85.9L766.8,84.9L765.6,83.6L767.4,82.1L767.0,80.2L768.0,80.4L767.8,82.3L768.2,83.7L772.3,84.9L771.0,82.0L772.2,82.0L773.2,79.9L776.2,78.7L777.8,81.2L778.3,78.8L779.3,79.2L778.9,75.7L780.9,76.5L781.3,75.0L782.5,75.1L782.0,73.2L784.1,73.4L784.1,72.2L786.2,71.4L787.0,68.9L787.9,67.5L786.0,65.0L783.1,62.3L782.0,62.1L780.8,63.3L778.6,61.7L778.4,59.6L776.9,58.0L777.5,56.9L776.6,55.7L773.9,56.1L771.7,55.6L771.2,53.2L770.2,50.9L762.6,31.6L759.5,29.4L755.8,27.8L753.9,28.2L753.8,29.3L752.0,30.0L751.1,31.4L749.8,32.1L748.4,33.5L746.4,33.0L744.8,29.8L742.9,29.9L742.4,30.5L738.4,46.8L739.4,52.2L738.4,53.8L738.2,56.8L739.1,58.0L738.8,59.5L739.1,60.8L740.1,61.4L740.0,63.2L739.2,64.9L739.7,66.1L737.9,68.2L737.1,71.4L738.6,72.5L738.3,73.4L736.8,73.1L737.0,75.4L736.5,76.8L735.4,75.5L734.0,76.5L746.0,107.8L746.9,111.1L749.8,113.1L750.1,114.5L751.6,115.6Z " data-name="Maine" />

<path data-fips="US26" data-iso="USA" d="M568.6,183.3L568.7,184.4L587.1,180.9L591.0,176.4L590.3,174.5L590.2,170.7L591.1,168.8L594.1,166.7L595.7,163.7L596.6,163.3L597.2,161.7L597.0,158.5L597.4,155.2L597.2,154.0L596.2,153.1L594.9,150.0L594.0,146.8L591.6,140.3L590.5,138.3L588.5,136.7L586.6,136.1L584.9,137.5L583.0,138.3L581.0,139.9L581.3,142.0L580.5,144.2L578.8,146.0L576.4,146.0L574.4,144.7L574.2,142.6L574.4,140.3L576.1,139.0L577.8,137.9L578.0,135.3L578.6,133.3L580.3,132.2L579.9,126.6L579.6,124.0L578.8,122.0L577.2,120.7L576.8,118.7L579.1,118.8L578.1,116.8L576.6,115.4L575.5,113.6L573.1,113.2L571.1,112.7L568.8,111.6L566.8,111.9L565.2,109.9L562.8,109.2L559.8,108.6L557.5,107.6L554.8,108.6L553.9,111.0L553.6,113.4L554.9,114.9L553.1,116.4L551.2,117.8L551.2,121.9L551.1,125.2L550.1,128.3L550.1,126.3L550.1,124.1L549.5,126.1L549.0,128.2L548.6,125.2L548.7,123.0L548.6,120.7L547.0,122.2L545.8,125.2L543.6,126.3L542.7,129.2L541.0,130.4L541.2,132.6L541.1,134.8L541.4,137.1L540.7,139.1L540.0,141.3L538.8,143.0L539.7,144.9L540.6,147.7L539.7,150.2L540.2,152.6L543.1,158.2L544.6,160.9L545.5,162.8L546.4,168.2L546.2,172.8L545.3,177.0L544.1,179.6L543.0,183.3L541.6,185.7L539.9,187.1Z M524.5,119.3L525.0,117.0L526.1,114.4L527.2,112.1L527.8,109.6L528.2,111.7L528.8,113.6L530.2,112.2L530.8,110.1L532.7,109.6L532.9,111.6L532.1,113.5L533.9,112.5L535.4,111.0L536.6,109.0L539.6,106.8L541.8,107.4L545.0,105.9L546.2,103.6L548.3,103.2L550.8,103.4L553.2,104.0L554.7,105.3L556.8,106.5L557.1,104.5L558.2,102.7L560.5,103.6L562.6,103.1L566.3,103.1L565.5,100.8L564.1,99.2L562.7,97.3L561.6,94.9L560.0,93.7L559.8,93.7L558.3,95.4L556.4,94.4L554.5,95.5L552.5,94.9L551.3,93.1L551.2,90.9L548.6,90.3L545.4,92.4L540.4,92.7L537.5,93.7L535.2,95.1L533.4,96.4L531.6,98.5L531.3,98.5L531.5,98.4L530.4,96.7L531.3,98.5L531.3,98.5L531.3,98.5L531.3,98.5L529.4,98.1L527.4,98.7L525.5,97.9L523.4,98.9L521.2,98.3L519.9,96.5L518.1,94.7L516.7,93.0L513.7,92.0L511.6,92.1L509.7,92.9L507.5,93.6L506.7,95.6L506.5,93.5L506.5,91.3L505.5,89.5L504.2,88.8L506.4,89.2L506.8,91.4L507.6,89.5L508.7,87.5L510.1,86.0L512.1,84.0L513.9,83.0L514.9,82.5L510.4,81.7L508.5,82.5L506.3,84.0L504.9,86.1L504.0,88.6L504.2,88.8L504.0,88.7L504.0,88.6L503.7,88.4L501.1,89.5L500.0,91.4L498.0,92.1L496.7,93.6L494.6,95.1L489.6,96.2L486.9,99.0L484.2,100.3L482.3,101.2L482.1,101.3L482.0,101.6L482.4,102.3L484.5,102.8L486.3,105.9L499.6,108.2L503.5,109.9L506.1,110.2L507.5,109.7L512.2,110.5L513.8,112.0L514.1,113.6L516.3,113.7L517.8,115.0L518.2,118.8L517.5,119.7L517.9,121.3L520.0,120.5L520.6,121.0L519.9,123.2L520.0,124.3L521.2,125.4L521.9,125.6Z M572.9,102.5L572.0,100.4L570.1,99.7L569.3,101.6L571.0,102.5Z M498.0,75.3L501.2,72.7L501.8,72.2L503.3,70.0L500.8,70.9L499.0,72.0L495.8,74.2L494.9,76.1Z " data-name="Michigan" />

</g>

</svg>

