<?xml version="1.0" standalone="no"?>
<!DOCTYPE svg PUBLIC "-//W3C//DTD SVG 1.1//EN" "http://www.w3.org/Graphics/SVG/1.1/DTD/svg11.dtd">

<svg style="stroke-width:0.7pt; stroke-linejoin: round; stroke:#000; fill:#f3f3f0;" xmlns="http://www.w3.org/2000/svg" font-family="Helvetica, Arial, FreeSans, Sans, sans, sans-serif" height="1258px" viewBox="0 0 1000 1258" width="1000px" version="1.1" xmlns:xlink="http://www.w3.org/1999/xlink" enable-background="new 0 0 1000 1258">

<defs>

<style type="text/css">path { fill-rule: evenodd; }
#context path { fill: #eee; stroke: #bbb; } </style>

</defs>

<metadata>

<views>

<view padding="0" h="1258.5224731" w="1000">

<proj lon0="8.74795501145" id="laea" lat0="50.6479161146" />

<bbox y="995.72" h="57.93" w="46.07" x="960.93" />

<llbbox lon1="180" lon0="-180" lat1="90" lat0="-90" />

</view>

</views>

</metadata>

<g id="nuts">

<path data-nuts="BE24" d="M231.688821,42.690793L241.084752,20.274367L247.090683,10.343989L238.169109,4.557334L230.963710,7.610157L224.213931,0.000000L63.326340,0.000000L55.856884,14.281181L58.121130,22.219502L53.859024,31.205873L42.203391,35.332306L36.259019,32.024495L26.296974,43.068183L24.993835,48.829793L31.675854,55.114103L53.270612,55.040645L60.518439,52.575221L67.974875,46.708811L85.129876,58.481770L92.562621,57.957744L96.993175,50.918035L106.762325,52.473965L122.709163,43.180339L132.727877,51.061331L145.556515,42.048480L146.430410,48.427639L155.242141,45.022828L154.165237,36.685632L165.874522,36.355737L171.658450,31.801025L181.950974,40.629846L200.806024,50.868219L210.390060,44.057960L216.590836,49.239853L220.525021,56.738870L230.141693,61.597148Z M109.349841,39.963982L100.626694,36.523703L93.678474,19.058982L96.335761,5.581176L110.525305,4.479988L115.371371,0.382380L119.675197,5.504636L117.106697,12.659647L123.894446,17.438223L126.087763,32.661901Z " />

<path data-nuts="BE35" d="M195.081156,302.729549L199.524087,289.325829L212.496593,280.728235L214.394981,274.008172L221.124338,270.932789L220.325224,261.645938L211.943348,253.930257L204.380959,255.011467L203.363485,237.923531L211.276078,235.887511L216.789213,225.453619L243.683242,224.325035L251.025760,220.778145L253.899915,212.639463L246.097290,199.619004L246.418303,192.820739L255.143314,185.931311L260.065098,187.133653L274.539124,176.603785L271.921901,165.779294L275.347284,151.822590L268.338060,149.070073L258.759448,154.953849L243.501487,123.572294L237.491992,126.203102L226.256888,109.105484L219.614580,105.855372L215.930070,93.015227L208.030661,84.340518L208.967439,78.060075L173.902392,87.424663L164.821266,84.013094L162.119900,88.247937L153.268442,86.301145L150.521281,96.861155L138.809603,96.206401L138.844618,101.077819L134.904407,110.594249L141.875279,118.777862L138.633438,126.873846L142.579724,133.912119L141.392730,144.071268L136.680300,150.624032L137.374715,160.401814L125.211410,161.173835L117.972338,157.349428L114.820798,163.498090L105.301395,161.482077L97.321937,170.265004L92.390951,169.484747L94.375850,183.240214L104.080851,182.352187L102.722149,194.934870L96.281356,198.451376L102.379486,211.473266L99.352943,215.191579L99.943734,231.784894L107.236902,257.047675L104.855528,260.318245L120.603256,258.790058L131.080800,250.617851L140.181491,250.152082L149.207407,245.293815L153.617196,221.677592L162.255916,217.764227L164.460748,211.553732L175.159845,203.848202L184.308285,207.737019L183.029531,220.327340L176.937755,223.415339L166.911208,259.396182L176.149981,262.319628L183.092013,273.392454L175.633395,284.199208L178.155973,296.014826L176.211514,303.215163L184.206465,306.552266Z " />

<path data-nuts="BE23" d="M36.259019,32.024495L42.203391,35.332306L53.859024,31.205873L58.121130,22.219502L55.856884,14.281181L63.326340,0.000000L0.000000,0.000000L0.000000,30.959901L3.052025,31.286367L6.306497,37.841149L16.945650,40.014290L24.161565,38.055084L26.296974,43.068183Z " />

<path data-nuts="BE10" d="M126.087763,32.661901L123.894446,17.438223L117.106697,12.659647L119.675197,5.504636L115.371371,0.382380L110.525305,4.479988L96.335761,5.581176L93.678474,19.058982L100.626694,36.523703L109.349841,39.963982Z " />

<path data-nuts="BE31" d="M138.844618,101.077819L138.809603,96.206401L150.521281,96.861155L153.268442,86.301145L162.119900,88.247937L164.821266,84.013094L173.902392,87.424663L208.967439,78.060075L212.647619,72.405533L212.131114,58.262970L216.590836,49.239853L210.390060,44.057960L200.806024,50.868219L181.950974,40.629846L171.658450,31.801025L165.874522,36.355737L154.165237,36.685632L155.242141,45.022828L146.430410,48.427639L145.556515,42.048480L132.727877,51.061331L122.709163,43.180339L106.762325,52.473965L96.993175,50.918035L92.562621,57.957744L85.129876,58.481770L67.974875,46.708811L60.518439,52.575221L58.371984,62.183503L60.529488,72.062401L66.035839,72.893810L72.390177,65.006892L76.067793,75.463216L81.913602,75.821269L83.595383,83.717275L92.981848,92.077861L120.907251,95.671376L127.496045,104.815995Z " />

<path data-nuts="DE73" d="M995.400213,160.026460L1000.000000,163.037134L1000.000000,0.000000L835.368543,0.000000L840.874710,0.490336L845.156090,7.782625L850.971224,4.380228L854.034333,10.211592L874.550452,11.642684L880.051980,7.741347L885.896142,16.959750L909.191481,19.783338L915.440403,42.109451L929.578990,44.941450L934.524921,49.768759L952.047694,51.579502L954.554823,57.391170L964.962780,52.923632L976.186522,68.854126L987.777623,59.980797L992.723843,62.355028L993.462842,73.040278L998.816467,83.184823L995.520327,91.001326L999.602393,97.271834L990.413963,102.726192L982.301219,94.066081L975.599282,101.913111L969.281726,118.502039L967.234843,130.673322L968.268625,141.843098L972.348050,147.636406L973.658574,154.914500L985.212514,163.543678Z M830.769178,7.771231L835.368543,0.000000L807.481483,0.000000L802.305113,6.727720L809.639073,10.640693L822.801674,12.132176Z " />

<path data-nuts="LU00" d="M392.438188,393.940789L397.271365,391.191973L414.984143,390.338347L427.871874,401.948911L433.885474,401.656432L432.502457,385.563806L436.785419,379.865110L432.874369,373.904214L444.622189,361.146544L445.927571,349.516089L459.826425,337.299046L462.416255,324.247265L457.492718,310.482410L441.895594,307.566796L436.189103,299.603733L431.381166,302.852729L427.577761,294.460886L414.393458,285.753494L413.782790,276.005594L399.978252,258.992576L396.155272,243.293373L399.971459,223.486045L397.166618,214.631927L381.939047,213.596754L381.183415,208.704828L371.781375,210.301907L369.789925,221.901735L358.378402,226.818973L356.485501,235.502344L350.668582,240.627859L349.979470,250.330347L344.249092,253.024324L346.716318,261.877952L335.144963,269.689057L328.678957,282.563585L330.067680,294.782260L330.952391,311.845204L336.966454,310.626632L343.664771,324.026218L342.476796,330.303602L352.688455,334.592658L348.583064,343.190066L355.330727,347.828076L351.279526,354.969138L348.795537,370.439486L339.044325,377.841931L347.382064,390.815480L351.779348,391.471461L360.016907,390.812177L365.812284,396.380187L366.174476,403.689848L379.872869,400.787844L387.328745,404.460078Z " />

<path data-nuts="BE22" d="M367.237795,60.303111L364.370481,54.841739L349.950719,53.790582L345.308722,46.794250L338.584773,53.333762L328.755159,52.930357L343.748257,55.002083L351.658943,65.047582L362.364226,66.925908Z M247.824852,59.048981L264.352119,61.289150L272.722735,53.403004L284.067869,61.217920L293.968134,60.199384L301.746851,51.295560L319.827152,45.745580L330.279785,38.397572L324.858835,35.739447L323.201564,23.993006L337.815783,11.948656L343.779211,1.001286L343.986872,0.000000L224.213931,0.000000L230.963710,7.610157L238.169109,4.557334L247.090683,10.343989L241.084752,20.274367L231.688821,42.690793L230.141693,61.597148L240.427705,65.506645Z " />

<path data-nuts="DE71" d="M879.198582,414.071871L879.815138,407.752108L889.256986,397.032854L899.053958,400.399940L907.839335,388.697536L909.372670,379.455782L903.019642,367.819800L908.975151,361.960572L906.710117,348.362211L913.615045,345.898616L917.641473,334.698570L910.084604,330.849080L904.968189,309.973273L897.420140,303.686183L896.727029,286.191488L893.848167,268.704753L898.202000,263.341893L890.962199,246.842999L894.354829,236.138153L908.051005,232.192446L915.859011,235.555482L929.202375,226.242315L955.093421,230.911146L962.060571,243.488178L979.183420,240.406914L978.109356,226.808013L981.469346,220.454274L976.468809,218.561523L983.799168,205.361341L997.175215,205.697279L1000.000000,199.105104L1000.000000,163.037134L995.400213,160.026460L985.212514,163.543678L973.658574,154.914500L972.348050,147.636406L958.542131,161.860726L948.185097,145.420994L941.657212,141.582663L939.544328,148.889051L934.551348,143.091600L923.744877,147.049564L906.730326,149.084478L899.849818,132.102961L888.428280,137.491363L888.142213,144.782975L881.969960,151.119740L873.611234,151.625580L867.411093,146.776254L857.818108,149.217681L853.478896,137.555315L830.592969,136.572701L822.539492,142.877712L818.798623,155.020786L811.986292,154.517264L804.533529,160.326497L799.906103,154.963297L780.024808,166.051502L778.098193,178.192313L781.480826,184.043072L773.355801,193.232935L763.712930,195.116904L757.240323,187.781522L740.750491,191.541545L725.683194,207.931755L718.574494,203.486817L704.496906,211.113021L699.451821,216.888088L699.554503,234.874170L694.302994,230.923332L690.132902,240.594028L680.378248,247.274845L680.645822,250.680960L694.849284,263.497175L699.740543,272.790222L713.509522,271.484087L725.446776,265.285131L748.944542,256.739634L761.419257,258.774367L776.315036,275.392022L780.313160,288.050870L778.085614,294.843521L784.926873,304.599739L783.945894,312.857554L792.031319,328.448418L792.917475,341.575157L782.524975,345.900913L779.984648,350.748123L784.313653,365.837223L791.504567,377.535351L798.758037,376.106888L813.834381,394.624329L820.776326,394.640726L825.836515,387.846023L821.140771,370.826327L838.151879,366.962126L836.880510,381.055801L840.026820,390.778530L856.434055,396.610290L858.955467,392.720203L865.912549,404.376844L861.495709,408.270410L862.141276,420.906174L866.261177,427.705202Z " />

<path data-nuts="DEC0" d="M606.349226,488.663241L603.180200,488.118055L592.724019,469.931432L604.727043,456.064049L609.535277,453.236448L608.717316,445.929823L613.273939,439.207452L612.129949,432.381233L593.861170,427.661310L593.695949,419.880085L586.580181,411.960456L592.476548,401.383256L592.159928,385.334673L588.531204,377.484155L582.484563,380.278124L574.189458,369.895819L560.006966,370.073313L549.533720,359.625666L532.808796,361.172449L516.109117,373.881164L511.446662,371.329380L501.778272,379.339499L480.526482,383.614838L472.147821,389.695209L468.217598,383.745160L460.535963,387.407288L452.169426,382.290891L436.785419,379.865110L432.502457,385.563806L433.885474,401.656432L443.100747,400.002856L462.657459,411.784212L463.333808,421.043360L471.125922,425.162254L467.090680,433.310747L474.628798,446.658435L484.894543,453.756583L491.513524,478.736923L496.108240,485.182533L504.076442,484.422731L512.860814,489.027184L523.413951,473.736295L529.210257,470.476200L537.698874,474.084390L546.660520,484.990194L553.313981,500.212784L563.978043,492.670914L569.577272,498.625140L584.573966,496.505722L593.084796,500.563550Z " />

<path data-nuts="DEB3" d="M762.415029,538.734684L768.204152,530.995101L772.108082,517.410120L779.809838,506.274326L781.166357,489.757015L787.907416,475.209416L786.027606,469.854483L802.260286,456.313110L796.597357,445.113666L803.272543,438.334066L798.234575,431.025517L805.869307,418.415985L796.083131,414.978435L798.321184,408.182877L789.894310,385.304676L791.504567,377.535351L784.313653,365.837223L779.984648,350.748123L782.524975,345.900913L792.917475,341.575157L792.031319,328.448418L783.945894,312.857554L784.926873,304.599739L778.085614,294.843521L780.313160,288.050870L776.315036,275.392022L761.419257,258.774367L748.944542,256.739634L725.446776,265.285131L713.509522,271.484087L699.740543,272.790222L694.849284,263.497175L680.645822,250.680960L680.378248,247.274845L678.876163,242.880248L668.815416,248.576095L661.838831,256.253852L676.693934,266.183381L680.354292,273.037065L701.483331,284.476023L704.784554,297.151145L713.487665,303.564177L712.794879,309.875727L705.499050,317.573917L706.642283,327.793898L701.889638,331.629327L694.707657,328.143291L684.329677,329.473662L670.669962,340.958604L672.175272,345.840051L666.661597,357.915689L660.711337,355.886309L659.929588,344.694926L648.831254,350.847332L638.272777,342.416090L635.308929,350.631254L623.656857,351.405894L618.836650,357.154469L620.767366,372.744241L607.546298,372.018670L602.035494,380.178995L592.159928,385.334673L592.476548,401.383256L586.580181,411.960456L593.695949,419.880085L593.861170,427.661310L612.129949,432.381233L613.273939,439.207452L608.717316,445.929823L609.535277,453.236448L604.727043,456.064049L592.724019,469.931432L603.180200,488.118055L606.349226,488.663241L618.201325,483.530371L628.318671,486.621228L628.792768,496.350854L640.337218,510.635646L651.768626,512.756469L652.644887,518.116258L663.169649,517.297068L674.591162,520.855765L680.718031,515.102988L693.035233,524.003352L704.575597,517.816454L725.171155,529.690450L732.448584,536.074854L757.284164,542.588257Z " />

<path data-nuts="DEB1" d="M602.035494,380.178995L607.546298,372.018670L620.767366,372.744241L618.836650,357.154469L623.656857,351.405894L635.308929,350.631254L638.272777,342.416090L648.831254,350.847332L659.929588,344.694926L660.711337,355.886309L666.661597,357.915689L672.175272,345.840051L670.669962,340.958604L684.329677,329.473662L694.707657,328.143291L701.889638,331.629327L706.642283,327.793898L705.499050,317.573917L712.794879,309.875727L713.487665,303.564177L704.784554,297.151145L701.483331,284.476023L680.354292,273.037065L676.693934,266.183381L661.838831,256.253852L668.815416,248.576095L678.876163,242.880248L680.378248,247.274845L690.132902,240.594028L694.302994,230.923332L699.554503,234.874170L699.451821,216.888088L704.496906,211.113021L718.574494,203.486817L725.683194,207.931755L740.750491,191.541545L737.447832,178.389536L730.432757,165.202698L718.413814,158.280522L718.842453,146.619154L722.266317,144.709349L716.786734,135.904377L717.480454,128.620448L727.795299,116.571056L732.686865,121.963440L744.148310,118.174388L746.411724,105.555180L739.450236,89.943091L742.288654,82.190214L737.712352,77.290275L727.843913,79.144136L727.918242,71.367727L716.052346,58.610787L717.755939,42.588128L707.357696,39.073195L701.618242,31.230131L692.442170,29.175114L692.593483,17.024825L685.286032,13.529206L678.756113,20.733891L680.783940,29.510860L670.458182,43.951636L663.482669,58.920119L653.324927,59.738853L652.304253,66.042444L645.246826,64.958220L624.163751,74.322669L614.977009,71.724924L612.169428,90.145995L595.086555,96.620405L587.708108,95.497671L570.658520,99.509172L565.572605,106.202733L560.450019,100.738746L550.009740,111.678670L537.592601,114.296290L538.387617,119.664203L530.309112,121.408219L533.319883,137.042716L525.180084,140.727179L516.167549,130.282726L510.061244,138.873200L512.884316,149.159483L510.200782,156.868019L515.249846,165.267824L513.767203,174.467343L524.313158,174.740990L535.348324,180.366286L545.278597,180.607154L548.888273,185.554776L560.941014,188.264046L558.213797,198.898240L549.697982,204.049345L540.717187,202.376817L544.792954,240.398324L552.787429,245.447754L562.155552,245.174851L572.009745,265.810885L580.736915,266.968610L584.902247,277.264254L590.491683,279.322526L584.241431,294.266058L591.591625,302.679668L568.614246,321.646453L567.514982,328.914977L552.675592,346.085109L553.409123,355.339227L549.533720,359.625666L560.006966,370.073313L574.189458,369.895819L582.484563,380.278124L588.531204,377.484155L592.159928,385.334673Z " />

<path data-nuts="DE72" d="M773.355801,193.232935L781.480826,184.043072L778.098193,178.192313L780.024808,166.051502L799.906103,154.963297L804.533529,160.326497L811.986292,154.517264L818.798623,155.020786L822.539492,142.877712L830.592969,136.572701L853.478896,137.555315L857.818108,149.217681L867.411093,146.776254L873.611234,151.625580L881.969960,151.119740L888.142213,144.782975L888.428280,137.491363L899.849818,132.102961L906.730326,149.084478L923.744877,147.049564L934.551348,143.091600L939.544328,148.889051L941.657212,141.582663L948.185097,145.420994L958.542131,161.860726L972.348050,147.636406L968.268625,141.843098L967.234843,130.673322L969.281726,118.502039L975.599282,101.913111L982.301219,94.066081L990.413963,102.726192L999.602393,97.271834L995.520327,91.001326L998.816467,83.184823L993.462842,73.040278L992.723843,62.355028L987.777623,59.980797L976.186522,68.854126L964.962780,52.923632L954.554823,57.391170L952.047694,51.579502L934.524921,49.768759L929.578990,44.941450L915.440403,42.109451L909.191481,19.783338L885.896142,16.959750L880.051980,7.741347L874.550452,11.642684L854.034333,10.211592L850.971224,4.380228L845.156090,7.782625L840.874710,0.490336L835.368543,0.000000L830.769178,7.771231L822.801674,12.132176L809.639073,10.640693L802.305113,6.727720L798.934433,7.687054L798.576465,20.808914L787.205715,27.563590L783.486560,35.321806L773.053132,35.749832L766.951964,30.365263L742.517500,54.972552L749.473960,69.124865L742.288654,82.190214L739.450236,89.943091L746.411724,105.555180L744.148310,118.174388L732.686865,121.963440L727.795299,116.571056L717.480454,128.620448L716.786734,135.904377L722.266317,144.709349L718.842453,146.619154L718.413814,158.280522L730.432757,165.202698L737.447832,178.389536L740.750491,191.541545L757.240323,187.781522L763.712930,195.116904Z " />

<path data-nuts="DEA2" d="M511.556262,164.197769L515.249846,165.267824L510.200782,156.868019L512.884316,149.159483L510.061244,138.873200L516.167549,130.282726L525.180084,140.727179L533.319883,137.042716L530.309112,121.408219L538.387617,119.664203L537.592601,114.296290L550.009740,111.678670L560.450019,100.738746L565.572605,106.202733L570.658520,99.509172L587.708108,95.497671L595.086555,96.620405L612.169428,90.145995L614.977009,71.724924L624.163751,74.322669L645.246826,64.958220L652.304253,66.042444L653.324927,59.738853L663.482669,58.920119L670.458182,43.951636L680.783940,29.510860L678.756113,20.733891L685.286032,13.529206L684.813618,2.829047L679.640778,0.000000L388.510621,0.000000L387.346252,7.550691L397.813099,14.742405L398.688290,24.502126L393.265893,30.143065L386.773133,31.364588L386.184114,55.664341L388.121013,61.572651L400.945148,64.468285L413.685072,87.775760L420.869030,85.103609L427.773983,90.686290L419.827818,104.944376L419.091132,101.093415L413.322836,107.218544L413.655560,115.498498L416.355305,112.476789L415.374679,119.448633L418.523939,126.851862L432.492933,125.374098L437.723306,135.758448L443.505273,138.862942L442.203915,150.493264L437.308557,158.116721L446.714081,167.451676L445.687657,157.899501L449.481122,155.587893L456.849524,167.975634L461.145236,169.566457L469.762731,161.559607L481.677584,157.047126L484.524569,165.882184L493.002266,162.232490L497.705608,171.602402Z M416.355305,112.476789L416.600178,110.735843L419.827818,104.944376L420.402258,107.947209Z " />

<path data-nuts="DEA5" d="M749.473960,69.124865L742.517500,54.972552L766.951964,30.365263L773.053132,35.749832L783.486560,35.321806L787.205715,27.563590L798.576465,20.808914L798.934433,7.687054L802.305113,6.727720L807.481483,0.000000L679.640778,0.000000L684.813618,2.829047L685.286032,13.529206L692.593483,17.024825L692.442170,29.175114L701.618242,31.230131L707.357696,39.073195L717.755939,42.588128L716.052346,58.610787L727.918242,71.367727L727.843913,79.144136L737.712352,77.290275L742.288654,82.190214Z " />

<path data-nuts="DEB2" d="M480.526482,383.614838L501.778272,379.339499L511.446662,371.329380L516.109117,373.881164L532.808796,361.172449L549.533720,359.625666L553.409123,355.339227L552.675592,346.085109L567.514982,328.914977L568.614246,321.646453L591.591625,302.679668L584.241431,294.266058L590.491683,279.322526L584.902247,277.264254L580.736915,266.968610L572.009745,265.810885L562.155552,245.174851L552.787429,245.447754L544.792954,240.398324L540.717187,202.376817L549.697982,204.049345L558.213797,198.898240L560.941014,188.264046L548.888273,185.554776L545.278597,180.607154L535.348324,180.366286L524.313158,174.740990L513.767203,174.467343L515.249846,165.267824L511.556262,164.197769L497.705608,171.602402L493.002266,162.232490L484.524569,165.882184L481.677584,157.047126L469.762731,161.559607L461.145236,169.566457L456.849524,167.975634L449.481122,155.587893L445.687657,157.899501L447.365630,173.515167L439.502922,176.668552L430.586568,173.946381L425.466556,187.881073L413.241638,190.872786L405.778579,199.856308L409.063371,203.861247L400.640203,213.295374L399.971459,223.486045L396.155272,243.293373L399.978252,258.992576L413.782790,276.005594L414.393458,285.753494L427.577761,294.460886L431.381166,302.852729L436.189103,299.603733L441.895594,307.566796L457.492718,310.482410L462.416255,324.247265L459.826425,337.299046L445.927571,349.516089L444.622189,361.146544L432.874369,373.904214L436.785419,379.865110L452.169426,382.290891L460.535963,387.407288L468.217598,383.745160L472.147821,389.695209Z " />

<path data-nuts="DE26" d="M934.888675,377.364829L944.523598,359.312770L962.745138,355.760857L964.252684,348.456576L961.019273,338.278359L953.530582,344.660681L947.188032,337.420524L946.171678,327.707417L964.644474,322.206207L968.446156,326.059516L978.769636,322.556053L981.978127,329.327801L988.518327,324.397244L1000.000000,322.036733L1000.000000,199.105104L997.175215,205.697279L983.799168,205.361341L976.468809,218.561523L981.469346,220.454274L978.109356,226.808013L979.183420,240.406914L962.060571,243.488178L955.093421,230.911146L929.202375,226.242315L915.859011,235.555482L908.051005,232.192446L894.354829,236.138153L890.962199,246.842999L898.202000,263.341893L893.848167,268.704753L896.727029,286.191488L897.420140,303.686183L904.968189,309.973273L910.084604,330.849080L917.641473,334.698570L913.615045,345.898616L906.710117,348.362211L908.975151,361.960572L903.019642,367.819800L909.372670,379.455782L925.449432,379.855193Z " />

<path data-nuts="NL42" d="M386.773133,31.364588L393.265893,30.143065L398.688290,24.502126L397.813099,14.742405L387.346252,7.550691L388.510621,0.000000L343.986872,0.000000L343.779211,1.001286L337.815783,11.948656L323.201564,23.993006L324.858835,35.739447L330.279785,38.397572L332.414122,46.270081L328.755159,52.930357L338.584773,53.333762L345.308722,46.794250L349.950719,53.790582L364.370481,54.841739L376.118370,53.343700L386.184114,55.664341Z " />

<path data-nuts="BE33" d="M400.640203,213.295374L409.063371,203.861247L405.778579,199.856308L413.241638,190.872786L425.466556,187.881073L430.586568,173.946381L439.502922,176.668552L447.365630,173.515167L446.929477,167.665457L437.308557,158.116721L442.203915,150.493264L443.505273,138.862942L437.723306,135.758448L432.492933,125.374098L418.523939,126.851862L415.374679,119.448633L416.355305,112.476789L413.655560,115.498498L413.322836,107.218544L419.091132,101.093415L419.827818,104.944376L427.773983,90.686290L420.869030,85.103609L413.685072,87.775760L400.945148,64.468285L388.121013,61.572651L386.184114,55.664341L376.118370,53.343700L364.370481,54.841739L367.237795,60.303111L362.364226,66.925908L351.658943,65.047582L343.748257,55.002083L328.755159,52.930357L332.414122,46.270081L330.279785,38.397572L319.827152,45.745580L301.746851,51.295560L293.968134,60.199384L284.067869,61.217920L272.722735,53.403004L264.352119,61.289150L247.824852,59.048981L240.427705,65.506645L230.141693,61.597148L220.525021,56.738870L216.590836,49.239853L212.131114,58.262970L212.647619,72.405533L208.967439,78.060075L208.030661,84.340518L215.930070,93.015227L219.614580,105.855372L226.256888,109.105484L237.491992,126.203102L243.501487,123.572294L258.759448,154.953849L268.338060,149.070073L275.347284,151.822590L296.309620,140.589761L300.550635,150.019162L309.919598,148.475066L322.476511,159.706913L330.840804,160.051435L327.734245,167.708461L337.320249,184.153135L348.164803,185.071535L355.849820,171.264376L354.911423,163.444340L367.816473,166.859015L379.672628,173.626525L381.183415,208.704828L381.939047,213.596754L397.166618,214.631927L399.971459,223.486045Z M420.402258,107.947209L419.827818,104.944376L416.600178,110.735843L416.355305,112.476789Z " />

<path data-nuts="BE34" d="M293.488417,380.344506L302.678780,387.060676L303.868178,381.272545L312.342586,374.815675L319.430308,378.999826L328.607660,378.399265L331.044970,372.659365L339.044325,377.841931L348.795537,370.439486L351.279526,354.969138L355.330727,347.828076L348.583064,343.190066L352.688455,334.592658L342.476796,330.303602L343.664771,324.026218L336.966454,310.626632L330.952391,311.845204L330.067680,294.782260L328.678957,282.563585L335.144963,269.689057L346.716318,261.877952L344.249092,253.024324L349.979470,250.330347L350.668582,240.627859L356.485501,235.502344L358.378402,226.818973L369.789925,221.901735L371.781375,210.301907L381.183415,208.704828L379.672628,173.626525L367.816473,166.859015L354.911423,163.444340L355.849820,171.264376L348.164803,185.071535L337.320249,184.153135L327.734245,167.708461L330.840804,160.051435L322.476511,159.706913L309.919598,148.475066L300.550635,150.019162L296.309620,140.589761L275.347284,151.822590L271.921901,165.779294L274.539124,176.603785L260.065098,187.133653L255.143314,185.931311L246.418303,192.820739L246.097290,199.619004L253.899915,212.639463L251.025760,220.778145L243.683242,224.325035L216.789213,225.453619L211.276078,235.887511L203.363485,237.923531L204.380959,255.011467L211.943348,253.930257L220.325224,261.645938L221.124338,270.932789L214.394981,274.008172L212.496593,280.728235L199.524087,289.325829L195.081156,302.729549L201.705341,308.419390L215.280682,313.476552L221.496260,327.895823L227.517671,333.541501L245.461508,333.421521L258.483603,351.543436L266.170703,355.785795L272.203468,361.895861L277.837905,377.230111L278.294837,388.441417Z " />

<path data-nuts="BE32" d="M107.236902,257.047675L99.943734,231.784894L99.352943,215.191579L102.379486,211.473266L96.281356,198.451376L102.722149,194.934870L104.080851,182.352187L94.375850,183.240214L92.390951,169.484747L97.321937,170.265004L105.301395,161.482077L114.820798,163.498090L117.972338,157.349428L125.211410,161.173835L137.374715,160.401814L136.680300,150.624032L141.392730,144.071268L142.579724,133.912119L138.633438,126.873846L141.875279,118.777862L134.904407,110.594249L138.844618,101.077819L127.496045,104.815995L120.907251,95.671376L92.981848,92.077861L83.595383,83.717275L81.913602,75.821269L76.067793,75.463216L72.390177,65.006892L66.035839,72.893810L60.529488,72.062401L58.371984,62.183503L60.518439,52.575221L53.270612,55.040645L31.675854,55.114103L24.993835,48.829793L26.296974,43.068183L24.161565,38.055084L16.945650,40.014290L6.306497,37.841149L3.052025,31.286367L0.000000,30.959901L0.000000,143.826708L11.611554,143.940583L20.107165,151.808988L42.299656,144.960268L56.860893,160.494835L58.895393,172.800415L70.944639,169.161216L73.807826,173.233364L61.245985,185.124914L60.747170,198.246475L68.039485,206.490183L71.242059,225.683028L60.106448,228.895661L54.864353,237.825791L59.522181,243.473125L55.511093,247.608623L70.782013,253.906123L84.061010,251.785496L90.979097,256.581041L104.855528,260.318245Z " />

<path data-nuts="CH04" d="M841.639369,1014.726000L845.604998,1006.954004L856.499800,1005.008127L857.818957,1003.063906L881.907214,999.624183L885.834264,987.467886L890.768126,983.566501L882.811881,965.612992L876.219852,961.741556L876.851716,949.108039L872.566746,943.286236L875.167443,928.705399L864.658463,926.779057L862.676775,915.606425L847.915777,910.755849L847.915734,902.496007L857.751233,908.322862L862.000821,896.172202L855.119483,891.318874L847.588105,898.123123L837.106946,895.203596L833.840937,885.968885L832.532201,885.481582L825.661097,884.014391L822.376719,890.325062L820.378402,907.326857L813.787251,921.402142L809.546735,912.159264L814.474036,908.771201L813.507354,901.966526L806.305307,899.516925L795.134086,907.737912L796.742764,916.003957L789.848026,917.433792L785.872146,926.161879L777.961828,932.439704L778.560482,944.103580L783.434653,956.274107L781.437563,961.123061L789.881087,988.369205L784.257770,992.230849L786.519714,1002.929661L788.473429,1009.254149L799.027433,1013.182632L809.938822,1009.330671L823.797982,1015.677881L825.438267,1022.968018Z M837.368685,982.658459L830.788416,972.934960L833.097665,969.536743L840.336728,979.745378Z " />

<path data-nuts="CH01" d="M383.062885,1255.198361L383.985440,1247.453043L379.050331,1256.522473L384.042810,1256.522473Z M735.011592,1255.694159L748.469275,1253.368123L750.863652,1247.070754L768.404347,1233.096235L769.801854,1222.904031L780.899374,1215.676104L782.293140,1204.025284L791.667953,1204.066424L798.059910,1195.347679L789.041418,1191.426460L785.078480,1179.751281L787.453191,1171.504155L785.825251,1161.781915L778.114008,1168.545718L777.386043,1180.685752L772.006798,1186.486268L757.575329,1194.657380L743.170050,1196.984790L724.175157,1187.599006L709.469842,1186.488369L703.062072,1191.766266L703.997199,1198.576647L690.853978,1206.691983L681.125721,1208.035768L656.450991,1224.719288L640.811695,1216.236820L624.447519,1233.957176L614.358676,1235.248769L605.700354,1231.214351L590.095871,1240.649797L583.020172,1241.974311L580.107644,1236.088879L573.350191,1238.386202L571.532069,1245.637385L565.478594,1246.001696L561.044421,1215.789721L568.147484,1212.533824L566.979112,1203.765173L571.491117,1195.596573L569.672744,1185.843304L561.274400,1187.615467L543.878664,1203.278094L536.848283,1203.122215L528.575406,1213.623348L523.896095,1213.029052L517.186617,1198.780258L501.035500,1188.181592L505.165204,1183.425329L500.949066,1177.975292L491.974638,1175.803716L488.963725,1162.605788L495.832476,1155.007551L502.159988,1155.653291L516.361888,1133.649166L512.467482,1129.181614L521.383989,1118.219419L525.808748,1099.372358L513.719030,1090.336750L508.276607,1095.548805L515.048196,1104.461459L509.898958,1111.139136L510.929234,1123.798819L501.655160,1121.625094L495.234179,1125.349818L484.828829,1115.360288L475.820141,1116.091724L464.016918,1121.599549L460.821027,1116.650199L483.245742,1099.281326L476.190005,1089.372615L477.071149,1081.134558L440.611011,1101.486576L428.934665,1102.593898L423.888449,1115.562351L428.098626,1119.579619L422.526185,1127.671218L416.125449,1129.902365L406.150048,1139.793300L392.585897,1146.643198L384.616554,1155.613295L362.285203,1173.803762L367.116286,1179.319328L370.678853,1182.845095L354.247346,1203.170540L356.708837,1209.576865L352.438152,1216.716124L358.403167,1218.871952L371.437519,1230.504174L358.284135,1251.919171L360.112441,1256.522473L368.843344,1256.522473L370.793022,1249.923258L379.360380,1234.661672L404.753895,1206.334254L415.454150,1207.157925L426.327135,1202.146787L435.645392,1192.707439L450.057132,1192.156773L466.666451,1196.997148L473.914008,1201.567935L494.201239,1207.445144L507.088180,1215.055992L509.828898,1226.784107L489.026817,1226.748380L482.433135,1235.322758L484.585345,1243.153446L498.714875,1256.522473L734.258568,1256.522473Z M501.918455,1138.153711L493.338916,1134.534231L499.574472,1124.974270L505.403331,1131.923523Z M539.166262,1096.763227L543.321239,1089.081156L537.622190,1091.383268L539.142055,1082.670777L540.007466,1073.457477L535.759483,1070.445846L521.160805,1084.684391L530.837481,1097.545514Z " />

<path data-nuts="AT34" d="M1000.000000,983.520473L999.883059,983.756905L989.787902,996.012566L996.799024,1003.711576L994.209036,1008.598227L1000.000000,1013.226687Z " />

<path data-nuts="CH05" d="M949.634960,1241.693531L945.919094,1238.320195L946.168123,1225.689646L940.076057,1216.988329L945.746464,1213.063643L946.684409,1203.342260L963.073733,1201.272788L970.525618,1211.409515L979.802076,1200.152177L978.340839,1223.481774L979.793569,1235.611434L986.537415,1238.945941L996.100238,1254.876442L1000.000000,1255.824498L1000.000000,1053.824529L996.021729,1055.220163L987.637291,1045.105739L986.504820,1031.027844L982.098043,1019.897372L989.787902,996.012566L999.883059,983.756905L1000.000000,983.520473L1000.000000,941.508724L995.077650,934.735550L983.638136,940.685612L972.395471,933.019368L963.110448,922.412050L962.069789,915.618440L947.563286,905.529473L926.188485,893.523061L921.587949,890.633633L908.482230,888.755289L891.462803,890.278638L879.361523,896.142862L870.840912,893.730655L864.927199,878.677086L856.750122,881.114383L856.427452,888.402825L844.315762,883.546276L841.706120,864.595767L837.782607,867.022858L831.586457,854.869505L823.748530,854.857759L801.189837,862.086932L793.293938,875.662283L786.067850,882.433589L789.305161,890.708091L798.450646,897.061101L808.936007,896.123600L812.882719,889.817940L822.376719,890.325062L825.661097,884.014391L832.532201,885.481582L833.840937,885.968885L837.106946,895.203596L847.588105,898.123123L855.119483,891.318874L862.000821,896.172202L857.751233,908.322862L847.915734,902.496007L847.915777,910.755849L862.676775,915.606425L864.658463,926.779057L875.167443,928.705399L872.566746,943.286236L876.851716,949.108039L876.219852,961.741556L882.811881,965.612992L890.768126,983.566501L885.834264,987.467886L881.907214,999.624183L857.818957,1003.063906L856.499800,1005.008127L858.814942,1010.350570L859.145204,1010.350300L882.925259,1010.795712L888.209615,1010.781104L886.916987,1020.987219L887.652376,1047.219245L884.363770,1055.972970L875.754765,1058.908047L877.759721,1066.676654L887.415354,1080.740325L882.128213,1090.470374L885.814481,1102.605330L870.536463,1111.383052L871.547395,1119.153746L862.567191,1124.995524L859.915892,1139.571059L850.916162,1137.147190L847.916976,1144.433938L834.239869,1151.713583L835.234177,1159.000817L829.884219,1166.766880L835.222557,1172.115978L835.213954,1181.830784L865.305858,1186.197166L877.331097,1179.862185L877.315027,1172.090342L895.691913,1173.010474L902.063587,1179.301656L897.436579,1194.376901L904.185735,1208.923038L911.908655,1213.261071L913.310891,1226.854745L910.698265,1242.895331L905.168782,1256.522473L947.095532,1256.522473Z M820.378402,907.326857L814.474036,908.771201L809.546735,912.159264L813.787251,921.402142Z " />

<path data-nuts="DE12" d="M802.652224,717.287329L800.775055,699.300677L812.092348,693.018580L822.737684,695.472738L835.004309,694.518363L845.977298,700.355837L853.076723,689.178074L851.456263,661.965054L847.914371,639.611216L856.273749,642.524327L856.905271,625.515008L866.207341,618.215758L868.763383,610.922333L863.297593,599.752411L857.204911,594.898367L862.963881,588.089287L873.207754,586.615578L869.670723,577.388244L879.570649,569.592296L876.674860,561.337180L883.035236,549.657885L877.885920,531.688925L870.221151,524.414333L872.411202,502.540429L859.993508,491.865844L861.574358,483.602205L873.649539,485.041907L872.051072,479.698909L884.429303,476.753981L892.975851,468.951007L900.545178,457.258239L918.001411,460.577889L920.138327,445.499587L927.749733,446.913058L934.133780,454.162572L941.995490,445.359535L949.477189,429.750162L957.443877,436.489768L966.320532,437.869877L969.400641,428.606656L980.201137,432.875319L991.277365,432.757589L994.387561,427.862322L987.583211,412.869906L980.962439,414.397797L981.184134,405.160602L986.092504,391.499634L978.365321,376.026339L985.891328,372.545648L984.833537,361.863678L978.228725,362.418229L962.745138,355.760857L944.523598,359.312770L934.888675,377.364829L925.449432,379.855193L909.372670,379.455782L907.839335,388.697536L899.053958,400.399940L889.256986,397.032854L879.815138,407.752108L879.198582,414.071871L866.261177,427.705202L862.141276,420.906174L861.495709,408.270410L865.912549,404.376844L858.955467,392.720203L856.434055,396.610290L840.026820,390.778530L836.880510,381.055801L838.151879,366.962126L821.140771,370.826327L825.836515,387.846023L820.776326,394.640726L813.834381,394.624329L798.758037,376.106888L791.504567,377.535351L789.894310,385.304676L798.321184,408.182877L796.083131,414.978435L805.869307,418.415985L798.234575,431.025517L803.272543,438.334066L796.597357,445.113666L802.260286,456.313110L786.027606,469.854483L787.907416,475.209416L781.166357,489.757015L779.809838,506.274326L772.108082,517.410120L768.204152,530.995101L762.415029,538.734684L757.284164,542.588257L751.203330,544.974847L737.920546,568.684561L734.291547,581.775817L728.140720,589.497327L721.406496,590.406341L718.133040,597.664574L711.078509,598.079188L708.724083,608.746699L716.339701,617.086932L728.824658,620.607486L750.884966,632.937710L758.274483,632.989895L753.000060,651.906311L753.870192,665.519837L762.538200,669.952237L762.123308,684.528589L757.885206,691.304045L761.037060,702.988113L768.759682,707.895891L773.339069,697.717252L777.851196,699.199668L778.760209,710.867344L791.668030,715.301689L793.907580,721.142331Z " />

<path data-nuts="CH03" d="M783.524365,1008.260048L786.519714,1002.929661L784.257770,992.230849L789.881087,988.369205L781.437563,961.123061L783.434653,956.274107L778.560482,944.103580L777.961828,932.439704L785.872146,926.161879L789.848026,917.433792L772.137934,916.374577L766.615492,907.110825L753.830593,907.027998L748.613433,903.103617L742.662696,909.861093L732.474038,912.693387L728.808118,919.464104L716.321524,921.292139L705.512484,919.239248L697.934567,922.072870L693.787331,911.336417L680.014936,911.172587L675.655426,918.892442L654.241299,924.920156L638.713718,909.625330L637.671077,913.496678L622.098583,922.964769L623.910821,932.713660L627.346000,943.946441L613.484014,947.115649L611.897990,943.686583L607.557983,947.497961L599.182490,956.094135L600.255917,951.254292L590.426319,949.127647L599.182490,956.094135L610.209998,965.524317L611.296675,959.712074L625.062756,963.346253L626.150831,957.047034L642.679604,951.961676L644.773597,943.732557L652.743916,938.018519L659.912782,942.492973L654.129425,956.503052L645.883716,957.840683L647.690225,969.529230L662.844216,969.257955L667.043009,975.631051L674.595936,977.672882L676.321111,971.378199L705.467252,955.680565L706.567789,944.516715L716.917160,962.598037L713.480656,977.626542L702.546933,983.344650L695.359055,977.435527L679.963628,997.175356L682.505552,1005.466252L705.010083,1000.376025L703.085318,995.011219L711.021899,993.149768L714.553009,1003.387809L727.802776,998.166501L731.722094,1003.058968L749.179159,1008.540728L751.870929,1001.272284L753.557226,995.939749L764.126359,994.065396L773.217924,1021.325051L780.109581,1031.563310L786.724826,1031.594490Z " />

<path data-nuts="CH06" d="M805.764563,1192.458813L809.478509,1179.840421L829.526576,1185.224588L835.213954,1181.830784L835.222557,1172.115978L829.884219,1166.766880L835.234177,1159.000817L834.239869,1151.713583L847.916976,1144.433938L850.916162,1137.147190L859.915892,1139.571059L862.567191,1124.995524L871.547395,1119.153746L870.536463,1111.383052L885.814481,1102.605330L882.128213,1090.470374L887.415354,1080.740325L877.759721,1066.676654L875.754765,1058.908047L884.363770,1055.972970L887.652376,1047.219245L886.916987,1020.987219L888.209615,1010.781104L882.925259,1010.795712L867.077499,1014.713861L859.145204,1010.350300L858.814942,1010.350570L855.514184,1013.753606L841.639369,1014.726000L825.438267,1022.968018L823.797982,1015.677881L809.938822,1009.330671L799.027433,1013.182632L788.473429,1009.254149L786.519714,1002.929661L783.524365,1008.260048L786.724826,1031.594490L780.109581,1031.563310L773.217924,1021.325051L764.126359,994.065396L753.557226,995.939749L751.870929,1001.272284L749.179159,1008.540728L731.722094,1003.058968L727.802776,998.166501L714.553009,1003.387809L711.021899,993.149768L703.085318,995.011219L705.010083,1000.376025L682.505552,1005.466252L690.248619,1021.591373L691.467784,1030.836642L687.437810,1036.134335L689.991925,1044.423495L686.890040,1055.075975L693.388412,1066.810894L702.607861,1073.227430L695.504959,1085.781888L687.840630,1088.123857L689.435709,1093.972231L684.683612,1102.661427L688.236284,1111.933617L696.505857,1116.399311L707.699572,1128.662778L714.397061,1124.842903L727.045277,1125.445396L737.299249,1134.275595L754.650106,1130.517562L762.618021,1134.941108L778.323449,1125.799544L783.291620,1131.652992L792.624592,1130.236225L793.538464,1152.585017L783.870383,1151.086332L785.825251,1161.781915L787.453191,1171.504155L785.078480,1179.751281L789.041418,1191.426460L798.059910,1195.347679Z M820.665389,1098.258844L817.034110,1087.078078L819.056295,1072.508654L805.104630,1078.787643L789.188826,1075.328257L789.217131,1068.527156L778.275664,1067.990205L766.928128,1080.558865L768.971282,1071.340488L777.651189,1060.214098L790.906740,1060.761396L802.141391,1071.491126L818.731596,1069.107381L822.375324,1071.543624L824.991220,1094.866224Z M805.515441,1052.555593L796.272356,1043.779281L796.626449,1037.465003L794.367601,1022.395889L804.942112,1023.404844L801.594775,1036.025256L807.509954,1050.132567Z M744.344625,1037.169272L733.835080,1027.368986L734.539612,1022.030617L745.379886,1031.347097Z " />

<path data-nuts="DE14" d="M1000.000000,655.953507L980.567509,661.300301L972.455370,654.575327L962.194933,659.041825L947.644025,650.411916L929.295155,648.593737L928.920630,639.848468L908.347808,639.958676L898.730030,646.802791L883.607568,644.422504L872.375166,656.597238L866.261992,658.065044L865.308951,667.785550L851.456263,661.965054L853.076723,689.178074L845.977298,700.355837L846.945508,707.645152L842.741901,717.363103L833.686832,719.786265L840.793478,733.884200L839.817494,742.144571L844.024322,755.752563L850.833499,758.182426L858.611574,752.347248L862.835569,761.575852L867.703094,763.027289L872.262915,773.224204L884.597817,772.710058L892.423772,783.376624L896.732375,807.171676L895.143766,818.353390L905.572678,819.770326L904.939415,824.146241L919.309691,830.394319L916.110129,842.558669L906.038416,852.809962L918.501462,863.440129L933.908802,871.124936L936.247419,878.884176L956.961414,891.851857L965.458695,889.836937L976.967906,895.076748L982.531201,894.536529L992.857437,910.950471L1000.000000,911.600513Z " />

<path data-nuts="CH02" d="M571.532069,1245.637385L573.350191,1238.386202L580.107644,1236.088879L583.020172,1241.974311L590.095871,1240.649797L605.700354,1231.214351L614.358676,1235.248769L624.447519,1233.957176L640.811695,1216.236820L656.450991,1224.719288L681.125721,1208.035768L690.853978,1206.691983L703.997199,1198.576647L703.062072,1191.766266L709.469842,1186.488369L724.175157,1187.599006L743.170050,1196.984790L757.575329,1194.657380L772.006798,1186.486268L777.386043,1180.685752L778.114008,1168.545718L785.825251,1161.781915L783.870383,1151.086332L793.538464,1152.585017L792.624592,1130.236225L783.291620,1131.652992L778.323449,1125.799544L762.618021,1134.941108L754.650106,1130.517562L737.299249,1134.275595L727.045277,1125.445396L714.397061,1124.842903L707.699572,1128.662778L696.505857,1116.399311L688.236284,1111.933617L684.683612,1102.661427L689.435709,1093.972231L687.840630,1088.123857L695.504959,1085.781888L702.607861,1073.227430L693.388412,1066.810894L686.890040,1055.075975L689.991925,1044.423495L687.437810,1036.134335L691.467784,1030.836642L690.248619,1021.591373L682.505552,1005.466252L679.963628,997.175356L695.359055,977.435527L702.546933,983.344650L713.480656,977.626542L716.917160,962.598037L706.567789,944.516715L705.467252,955.680565L676.321111,971.378199L674.595936,977.672882L667.043009,975.631051L662.844216,969.257955L647.690225,969.529230L645.883716,957.840683L654.129425,956.503052L659.912782,942.492973L652.743916,938.018519L644.773597,943.732557L642.679604,951.961676L626.150831,957.047034L625.062756,963.346253L611.296675,959.712074L610.209998,965.524317L599.182490,956.094135L590.426319,949.127647L575.525645,954.182500L573.328732,948.792620L562.169786,947.590381L566.032798,935.521685L555.275025,931.405867L544.374783,934.082182L536.240142,930.495564L528.938146,933.727811L531.661806,943.997842L520.360981,949.075970L519.860355,956.354119L509.767275,965.341047L508.978948,970.667630L539.659098,968.967602L540.815682,976.283563L532.195281,978.516247L532.052362,984.830801L519.434661,988.420281L521.800516,1000.140976L507.987444,1011.467649L503.797584,1020.596668L493.980768,1029.579936L482.254747,1035.103462L475.114150,1042.200962L461.592635,1064.183141L438.133668,1072.250800L436.546075,1069.773048L424.560163,1082.045837L429.915482,1091.930853L428.934665,1102.593898L440.611011,1101.486576L477.071149,1081.134558L476.190005,1089.372615L483.245742,1099.281326L492.536614,1086.889336L504.679418,1079.422702L505.828217,1073.133807L525.644750,1062.922643L534.894018,1064.594800L535.759483,1070.445846L540.007466,1073.457477L539.142055,1082.670777L548.550145,1077.533940L552.118839,1081.498686L543.321239,1089.081156L539.166262,1096.763227L530.837481,1097.545514L521.160805,1084.684391L513.719030,1090.336750L525.808748,1099.372358L521.383989,1118.219419L512.467482,1129.181614L516.361888,1133.649166L502.159988,1155.653291L495.832476,1155.007551L488.963725,1162.605788L491.974638,1175.803716L500.949066,1177.975292L505.165204,1183.425329L501.035500,1188.181592L517.186617,1198.780258L523.896095,1213.029052L528.575406,1213.623348L536.848283,1203.122215L543.878664,1203.278094L561.274400,1187.615467L569.672744,1185.843304L571.491117,1195.596573L566.979112,1203.765173L568.147484,1212.533824L561.044421,1215.789721L565.478594,1246.001696Z M656.378662,1155.250889L648.262295,1139.104101L660.164446,1146.558335L664.084391,1152.926541Z M505.403331,1131.923523L499.574472,1124.974270L493.338916,1134.534231L501.918455,1138.153711Z M501.655160,1121.625094L510.929234,1123.798819L509.898958,1111.139136L515.048196,1104.461459L508.276607,1095.548805L484.828829,1115.360288L495.234179,1125.349818Z M550.670846,1055.713188L542.482912,1051.159593L557.919252,1041.776480L559.364881,1052.011625Z M627.346000,943.946441L623.910821,932.713660L611.897990,943.686583L613.484014,947.115649Z " />

<path data-nuts="DE13" d="M675.655426,918.892442L680.014936,911.172587L693.787331,911.336417L697.934567,922.072870L705.512484,919.239248L716.321524,921.292139L728.808118,919.464104L732.474038,912.693387L742.662696,909.861093L748.613433,903.103617L753.830593,907.027998L766.615492,907.110825L772.137934,916.374577L789.848026,917.433792L796.742764,916.003957L795.134086,907.737912L806.305307,899.516925L813.507354,901.966526L814.474036,908.771201L820.378402,907.326857L822.376719,890.325062L812.882719,889.817940L808.936007,896.123600L798.450646,897.061101L789.305161,890.708091L786.067850,882.433589L793.293938,875.662283L801.189837,862.086932L823.748530,854.857759L831.586457,854.869505L837.782607,867.022858L841.706120,864.595767L844.315762,883.546276L856.427452,888.402825L856.750122,881.114383L864.927199,878.677086L870.840912,893.730655L882.631002,893.705441L897.011635,885.400731L921.587949,890.633633L926.188485,893.523061L932.390087,890.084441L925.786849,880.406340L924.761891,872.637908L908.040124,862.519132L906.038416,852.809962L916.110129,842.558669L919.309691,830.394319L904.939415,824.146241L905.572678,819.770326L895.143766,818.353390L896.732375,807.171676L892.423772,783.376624L884.597817,772.710058L872.262915,773.224204L867.703094,763.027289L862.835569,761.575852L858.611574,752.347248L850.833499,758.182426L844.024322,755.752563L839.817494,742.144571L840.793478,733.884200L833.686832,719.786265L842.741901,717.363103L846.945508,707.645152L845.977298,700.355837L835.004309,694.518363L822.737684,695.472738L812.092348,693.018580L800.775055,699.300677L802.652224,717.287329L793.907580,721.142331L791.668030,715.301689L778.760209,710.867344L777.851196,699.199668L773.339069,697.717252L768.759682,707.895891L761.037060,702.988113L757.885206,691.304045L762.123308,684.528589L762.538200,669.952237L753.870192,665.519837L753.000060,651.906311L758.274483,632.989895L750.884966,632.937710L728.824658,620.607486L716.339701,617.086932L708.724083,608.746699L696.372522,623.190831L687.640363,628.433834L680.392617,642.924282L680.788067,662.855608L673.938254,669.571522L672.839225,679.763168L667.150223,695.239022L669.178474,712.762407L660.034822,719.440418L654.873547,741.236481L650.606790,745.062010L638.593112,767.720888L636.617013,790.531435L646.117404,807.687193L638.794250,818.266543L634.014651,832.284564L634.849504,841.531277L628.698156,858.927370L631.781895,870.640279L625.078121,880.736384L626.269848,888.045368L639.100255,905.743787L638.713718,909.625330L654.241299,924.920156Z " />

<path data-nuts="CH07" d="M910.698265,1242.895331L913.310891,1226.854745L911.908655,1213.261071L904.185735,1208.923038L897.436579,1194.376901L902.063587,1179.301656L895.691913,1173.010474L877.315027,1172.090342L877.331097,1179.862185L865.305858,1186.197166L835.213954,1181.830784L829.526576,1185.224588L809.478509,1179.840421L805.764563,1192.458813L798.059910,1195.347679L791.667953,1204.066424L782.293140,1204.025284L780.899374,1215.676104L792.305541,1212.326353L795.969527,1218.169202L795.528225,1247.310286L788.782396,1256.522473L905.168782,1256.522473Z " />

<path data-nuts="DE11" d="M866.261992,658.065044L872.375166,656.597238L883.607568,644.422504L898.730030,646.802791L908.347808,639.958676L928.920630,639.848468L929.295155,648.593737L947.644025,650.411916L962.194933,659.041825L972.455370,654.575327L980.567509,661.300301L1000.000000,655.953507L1000.000000,322.036733L988.518327,324.397244L981.978127,329.327801L978.769636,322.556053L968.446156,326.059516L964.644474,322.206207L946.171678,327.707417L947.188032,337.420524L953.530582,344.660681L961.019273,338.278359L964.252684,348.456576L962.745138,355.760857L978.228725,362.418229L984.833537,361.863678L985.891328,372.545648L978.365321,376.026339L986.092504,391.499634L981.184134,405.160602L980.962439,414.397797L987.583211,412.869906L994.387561,427.862322L991.277365,432.757589L980.201137,432.875319L969.400641,428.606656L966.320532,437.869877L957.443877,436.489768L949.477189,429.750162L941.995490,445.359535L934.133780,454.162572L927.749733,446.913058L920.138327,445.499587L918.001411,460.577889L900.545178,457.258239L892.975851,468.951007L884.429303,476.753981L872.051072,479.698909L873.649539,485.041907L861.574358,483.602205L859.993508,491.865844L872.411202,502.540429L870.221151,524.414333L877.885920,531.688925L883.035236,549.657885L876.674860,561.337180L879.570649,569.592296L869.670723,577.388244L873.207754,586.615578L862.963881,588.089287L857.204911,594.898367L863.297593,599.752411L868.763383,610.922333L866.207341,618.215758L856.905271,625.515008L856.273749,642.524327L847.914371,639.611216L851.456263,661.965054L865.308951,667.785550Z " />

<path data-nuts="ITC4" d="M1000.000000,1255.824498L996.100238,1254.876442L986.537415,1238.945941L979.793569,1235.611434L978.340839,1223.481774L979.802076,1200.152177L970.525618,1211.409515L963.073733,1201.272788L946.684409,1203.342260L945.746464,1213.063643L940.076057,1216.988329L946.168123,1225.689646L945.919094,1238.320195L949.634960,1241.693531L947.095532,1256.522473L1000.000000,1256.522473Z " />

<path data-nuts="ITC1" d="M795.528225,1247.310286L795.969527,1218.169202L792.305541,1212.326353L780.899374,1215.676104L769.801854,1222.904031L768.404347,1233.096235L750.863652,1247.070754L748.469275,1253.368123L735.011592,1255.694159L734.258568,1256.522473L788.782396,1256.522473Z " />

<path data-nuts="FR221" d="M29.686213,399.438125L28.656962,390.604219L30.130422,372.185737L36.295035,369.652232L37.487573,355.600170L29.539220,341.456912L32.641203,337.269428L42.226068,340.309213L47.747505,327.501587L58.429243,322.804344L70.343697,307.945091L65.185402,294.479993L71.951478,281.253642L73.961679,268.711578L67.266118,265.381768L70.782013,253.906123L55.511093,247.608623L45.379722,249.410923L40.975955,244.748587L28.036173,241.487062L29.216923,227.921183L12.392662,236.573201L12.772478,230.751058L4.060727,225.303914L0.000000,224.766270L0.000000,402.007431L8.261359,397.577402L14.360737,406.254293L26.715325,411.428637Z " />

<path data-nuts="FR412" d="M291.464254,672.159057L299.230668,663.726979L310.364192,667.588557L318.798055,658.199956L319.521001,648.014217L310.807843,640.366751L311.099424,633.082133L320.079136,625.661387L317.125477,610.950104L320.959688,603.321151L313.277180,594.742062L325.216796,568.468171L321.384403,543.992983L328.951881,538.457686L338.295510,536.392503L334.228009,517.749262L337.226236,506.192449L332.078285,507.449431L335.114710,494.921686L326.492540,495.552818L322.285300,481.276615L326.202383,470.731966L319.201523,470.935974L322.109323,461.810859L320.001926,451.023061L326.435701,448.850517L327.157595,438.663700L319.697209,434.956883L323.450756,428.298486L314.693626,417.725009L315.879036,411.935828L306.287222,406.673049L287.344020,413.164617L276.207463,400.026958L278.294837,388.441417L277.837905,377.230111L272.203468,361.895861L266.170703,355.785795L263.370296,361.984918L256.783858,361.197930L242.597947,374.652235L238.214516,367.146063L225.529237,368.486790L222.754567,360.565581L217.405515,360.305003L210.672496,381.875894L206.771040,384.116355L215.347507,396.219972L215.484762,406.447245L210.109050,419.324360L205.391839,418.604576L198.929597,427.530194L202.521287,444.744335L198.087716,444.523231L184.613774,453.576867L191.538863,461.229372L181.999601,467.558854L190.793503,488.934949L191.759774,507.965421L196.389438,511.117401L194.819397,530.020242L178.171878,536.966405L173.018073,544.002838L175.643974,555.332618L167.529891,570.003169L176.039445,572.874909L183.108948,585.402156L188.182123,586.631036L188.710969,595.417883L183.592544,601.487529L184.031611,618.543727L190.674612,620.823128L194.465477,615.658184L196.857270,625.996273L205.525735,626.421065L209.879826,636.364765L231.493527,649.555417L237.626440,649.353291L246.497538,659.977072L253.535936,661.268033L255.125329,669.123637L265.460802,676.393051Z " />

<path data-nuts="FR413" d="M585.248049,640.404227L588.716314,627.348623L581.921758,613.603067L584.818603,613.175094L593.218688,593.410660L590.485851,585.580093L572.529790,571.119341L566.103214,572.441397L562.015242,584.019869L553.276087,588.202094L548.844194,571.573736L554.068270,566.830358L533.861581,555.667381L538.673101,541.197272L546.308628,542.347545L546.177555,534.080111L558.826835,510.058790L563.194123,529.113774L571.482377,529.291449L577.390513,536.706607L582.861453,534.387921L592.353766,538.465416L597.940273,546.836813L620.082732,540.435243L634.922514,550.406183L642.371702,543.720209L644.109315,534.512188L652.644887,518.116258L651.768626,512.756469L640.337218,510.635646L628.792768,496.350854L628.318671,486.621228L618.201325,483.530371L606.349226,488.663241L593.084796,500.563550L584.573966,496.505722L569.577272,498.625140L563.978043,492.670914L553.313981,500.212784L546.660520,484.990194L537.698874,474.084390L529.210257,470.476200L523.413951,473.736295L512.860814,489.027184L504.076442,484.422731L496.108240,485.182533L491.513524,478.736923L484.894543,453.756583L474.628798,446.658435L467.090680,433.310747L471.125922,425.162254L463.333808,421.043360L462.657459,411.784212L443.100747,400.002856L433.885474,401.656432L427.871874,401.948911L414.984143,390.338347L397.271365,391.191973L392.438188,393.940789L387.328745,404.460078L379.872869,400.787844L366.174476,403.689848L365.812284,396.380187L360.016907,390.812177L351.779348,391.471461L357.978448,394.626475L359.624017,409.767779L354.034045,415.392878L357.698683,418.937026L358.363989,435.013940L365.655954,443.555821L369.192738,442.227494L368.678667,456.313974L372.853334,463.762961L364.374727,469.773754L363.450239,486.276817L365.954868,496.097407L354.508659,495.669568L353.073032,499.992854L358.348227,512.351672L368.447451,515.158040L373.315703,521.658510L373.268848,531.870489L387.111513,537.714883L386.942734,542.572351L403.551531,542.659848L419.349255,548.049011L421.684788,554.933176L416.322439,562.538503L417.637586,571.334864L426.130312,586.198478L439.650548,584.193816L442.979820,590.617963L457.263018,595.425792L461.804289,593.614888L468.227239,604.498388L479.380664,607.246072L490.304800,618.729196L496.440649,617.435586L500.102104,624.825150L508.141248,624.548387L510.908645,629.480872L540.989593,635.075510L547.721995,650.299633L552.129370,654.773840L567.846860,657.546219Z " />

<path data-nuts="FR421" d="M650.606790,745.062010L654.873547,741.236481L660.034822,719.440418L669.178474,712.762407L667.150223,695.239022L672.839225,679.763168L673.938254,669.571522L680.788067,662.855608L680.392617,642.924282L687.640363,628.433834L696.372522,623.190831L708.724083,608.746699L711.078509,598.079188L718.133040,597.664574L721.406496,590.406341L728.140720,589.497327L734.291547,581.775817L737.920546,568.684561L751.203330,544.974847L757.284164,542.588257L732.448584,536.074854L725.171155,529.690450L704.575597,517.816454L693.035233,524.003352L680.718031,515.102988L674.591162,520.855765L663.169649,517.297068L652.644887,518.116258L644.109315,534.512188L642.371702,543.720209L634.922514,550.406183L620.082732,540.435243L597.940273,546.836813L592.353766,538.465416L582.861453,534.387921L577.390513,536.706607L571.482377,529.291449L563.194123,529.113774L558.826835,510.058790L546.177555,534.080111L546.308628,542.347545L538.673101,541.197272L533.861581,555.667381L554.068270,566.830358L548.844194,571.573736L553.276087,588.202094L562.015242,584.019869L566.103214,572.441397L572.529790,571.119341L590.485851,585.580093L593.218688,593.410660L584.818603,613.175094L581.921758,613.603067L588.716314,627.348623L585.248049,640.404227L567.846860,657.546219L552.129370,654.773840L552.312329,661.097248L559.727517,660.774609L552.285390,691.720669L556.364833,697.157816L550.404589,703.830914L558.041295,709.346536L570.602479,711.558680L571.815797,715.472445L585.687354,717.211214L594.430701,733.906064L599.303872,733.025789L621.118937,745.079312L619.627308,756.718212L628.658977,759.785582L628.232730,766.096629L638.593112,767.720888Z " />

<path data-nuts="FR411" d="M386.684008,689.917105L405.877914,685.707530L412.256950,678.138397L414.632763,684.537542L427.562844,683.981028L432.865715,689.982711L440.813994,683.421819L448.524489,684.628600L460.652421,678.181415L464.028153,672.931463L472.809332,670.265786L474.419216,681.979550L486.632915,683.776300L504.196465,691.048906L513.173615,680.583390L518.213388,685.570894L534.390693,669.921252L559.727517,660.774609L552.312329,661.097248L552.129370,654.773840L547.721995,650.299633L540.989593,635.075510L510.908645,629.480872L508.141248,624.548387L500.102104,624.825150L496.440649,617.435586L490.304800,618.729196L479.380664,607.246072L468.227239,604.498388L461.804289,593.614888L457.263018,595.425792L442.979820,590.617963L439.650548,584.193816L426.130312,586.198478L417.637586,571.334864L416.322439,562.538503L421.684788,554.933176L419.349255,548.049011L403.551531,542.659848L386.942734,542.572351L387.111513,537.714883L373.268848,531.870489L373.315703,521.658510L368.447451,515.158040L358.348227,512.351672L353.073032,499.992854L354.508659,495.669568L365.954868,496.097407L363.450239,486.276817L364.374727,469.773754L372.853334,463.762961L368.678667,456.313974L369.192738,442.227494L365.655954,443.555821L358.363989,435.013940L357.698683,418.937026L354.034045,415.392878L359.624017,409.767779L357.978448,394.626475L351.779348,391.471461L347.382064,390.815480L339.044325,377.841931L331.044970,372.659365L328.607660,378.399265L319.430308,378.999826L312.342586,374.815675L303.868178,381.272545L302.678780,387.060676L293.488417,380.344506L278.294837,388.441417L276.207463,400.026958L287.344020,413.164617L306.287222,406.673049L315.879036,411.935828L314.693626,417.725009L323.450756,428.298486L319.697209,434.956883L327.157595,438.663700L326.435701,448.850517L320.001926,451.023061L322.109323,461.810859L319.201523,470.935974L326.202383,470.731966L322.285300,481.276615L326.492540,495.552818L335.114710,494.921686L332.078285,507.449431L337.226236,506.192449L334.228009,517.749262L338.295510,536.392503L328.951881,538.457686L321.384403,543.992983L325.216796,568.468171L313.277180,594.742062L320.959688,603.321151L317.125477,610.950104L320.079136,625.661387L311.099424,633.082133L310.807843,640.366751L319.521001,648.014217L318.798055,658.199956L322.527437,661.753337L335.967226,655.956868L343.095203,663.526234L339.765453,666.317113L346.736534,687.009698L351.521044,688.648575L351.809438,698.386204L368.088441,695.093694L379.928889,698.434033Z " />

<path data-nuts="FR301" d="M55.511093,247.608623L59.522181,243.473125L54.864353,237.825791L60.106448,228.895661L71.242059,225.683028L68.039485,206.490183L60.747170,198.246475L61.245985,185.124914L73.807826,173.233364L70.944639,169.161216L58.895393,172.800415L56.860893,160.494835L42.299656,144.960268L20.107165,151.808988L11.611554,143.940583L0.000000,143.826708L0.000000,224.766270L4.060727,225.303914L12.772478,230.751058L12.392662,236.573201L29.216923,227.921183L28.036173,241.487062L40.975955,244.748587L45.379722,249.410923Z " />

<path data-nuts="FR211" d="M172.846657,447.616461L178.914475,446.956879L184.613774,453.576867L198.087716,444.523231L202.521287,444.744335L198.929597,427.530194L205.391839,418.604576L210.109050,419.324360L215.484762,406.447245L215.347507,396.219972L206.771040,384.116355L210.672496,381.875894L217.405515,360.305003L222.754567,360.565581L225.529237,368.486790L238.214516,367.146063L242.597947,374.652235L256.783858,361.197930L263.370296,361.984918L266.170703,355.785795L258.483603,351.543436L245.461508,333.421521L227.517671,333.541501L221.496260,327.895823L215.280682,313.476552L201.705341,308.419390L195.081156,302.729549L184.206465,306.552266L176.211514,303.215163L178.155973,296.014826L175.633395,284.199208L183.092013,273.392454L176.149981,262.319628L166.911208,259.396182L176.937755,223.415339L183.029531,220.327340L184.308285,207.737019L175.159845,203.848202L164.460748,211.553732L162.255916,217.764227L153.617196,221.677592L149.207407,245.293815L140.181491,250.152082L131.080800,250.617851L120.603256,258.790058L104.855528,260.318245L90.979097,256.581041L84.061010,251.785496L70.782013,253.906123L67.266118,265.381768L73.961679,268.711578L71.951478,281.253642L65.185402,294.479993L70.343697,307.945091L58.429243,322.804344L47.747505,327.501587L42.226068,340.309213L32.641203,337.269428L29.539220,341.456912L37.487573,355.600170L36.295035,369.652232L30.130422,372.185737L28.656962,390.604219L29.686213,399.438125L54.182842,402.913156L64.337373,407.915704L73.551998,423.568074L85.164920,425.717700L88.509384,433.705752L100.022532,437.783273L124.238397,436.234884L126.629673,450.487590L139.273856,445.828052L150.126445,450.797109L161.025639,448.943893L169.569767,455.720969Z " />

<path data-nuts="FR213" d="M142.902123,623.710532L158.609615,618.699628L162.194361,605.257952L170.182989,599.830742L183.592544,601.487529L188.710969,595.417883L188.182123,586.631036L183.108948,585.402156L176.039445,572.874909L167.529891,570.003169L175.643974,555.332618L173.018073,544.002838L178.171878,536.966405L194.819397,530.020242L196.389438,511.117401L191.759774,507.965421L190.793503,488.934949L181.999601,467.558854L191.538863,461.229372L184.613774,453.576867L178.914475,446.956879L172.846657,447.616461L169.569767,455.720969L161.025639,448.943893L150.126445,450.797109L139.273856,445.828052L126.629673,450.487590L124.238397,436.234884L100.022532,437.783273L88.509384,433.705752L85.164920,425.717700L73.551998,423.568074L64.337373,407.915704L54.182842,402.913156L29.686213,399.438125L26.715325,411.428637L14.360737,406.254293L8.261359,397.577402L0.000000,402.007431L0.000000,611.281531L9.292142,597.381041L19.282391,597.039606L23.695336,588.062167L32.421174,592.502612L38.828721,587.540760L50.585384,589.719849L62.630936,587.035630L68.089328,598.073690L63.655374,613.393321L77.600011,628.336547L99.562475,638.850530L108.532891,634.000306L119.481019,634.121927L125.323088,639.310954L133.807527,637.338328L148.089671,641.509949Z " />

<path data-nuts="FR414" d="M505.846819,844.702069L519.400495,837.748830L515.419635,826.957357L521.413183,821.757577L520.005406,812.487839L524.582413,798.016646L535.133938,791.948177L540.641558,778.465765L548.962889,769.419083L545.900874,761.087058L556.999409,742.862907L560.141287,732.237588L571.815797,715.472445L570.602479,711.558680L558.041295,709.346536L550.404589,703.830914L556.364833,697.157816L552.285390,691.720669L559.727517,660.774609L534.390693,669.921252L518.213388,685.570894L513.173615,680.583390L504.196465,691.048906L486.632915,683.776300L474.419216,681.979550L472.809332,670.265786L464.028153,672.931463L460.652421,678.181415L448.524489,684.628600L440.813994,683.421819L432.865715,689.982711L427.562844,683.981028L414.632763,684.537542L412.256950,678.138397L405.877914,685.707530L386.684008,689.917105L379.928889,698.434033L368.088441,695.093694L351.809438,698.386204L351.521044,688.648575L346.736534,687.009698L339.765453,666.317113L343.095203,663.526234L335.967226,655.956868L322.527437,661.753337L318.798055,658.199956L310.364192,667.588557L299.230668,663.726979L291.464254,672.159057L265.460802,676.393051L254.054992,686.103839L256.685046,699.843493L266.662651,693.473010L274.949433,696.265586L276.557543,704.118347L285.115297,716.158273L289.174445,711.951433L296.692306,718.102283L294.131735,725.292357L302.139743,727.568685L300.877727,750.864473L295.397011,757.934812L295.022363,767.161051L309.563577,777.482368L318.777481,791.468089L317.005932,803.556843L331.553767,806.556754L334.300021,811.525449L345.884688,797.861149L349.899836,803.846601L356.423889,803.601092L363.036073,791.684837L379.471787,786.920967L383.530696,791.924945L385.313121,806.574091L397.518586,811.851877L404.853234,806.747736L413.267546,808.481729L420.548864,804.826155L433.076151,810.567585L440.440473,825.864447L452.297965,821.843580L455.778266,814.167319L463.362396,810.983828L470.554867,821.882935L494.625813,836.634622L501.869827,847.030783Z " />

<path data-nuts="FR212" d="M53.131783,788.065210L58.542794,790.333001L72.058888,787.715157L77.092809,790.927099L96.426691,789.105491L95.986782,779.344716L101.878381,772.859539L117.898069,777.638065L124.143889,776.517341L127.749278,769.897703L122.296782,762.301466L130.395790,750.570591L148.366540,754.931855L152.104808,745.393398L149.887962,737.977003L155.140367,730.463961L152.379124,714.745437L155.411768,712.470169L149.773949,702.440970L148.440091,690.689355L137.778932,684.282102L139.349189,679.011778L131.717140,676.654588L125.279023,664.135360L118.111314,659.360904L121.539340,655.655037L125.323088,639.310954L119.481019,634.121927L108.532891,634.000306L99.562475,638.850530L77.600011,628.336547L63.655374,613.393321L68.089328,598.073690L62.630936,587.035630L50.585384,589.719849L38.828721,587.540760L32.421174,592.502612L23.695336,588.062167L19.282391,597.039606L9.292142,597.381041L0.000000,611.281531L0.000000,791.564478L4.455653,794.826216L7.709175,789.673549L16.157312,795.558127L27.113360,786.981686L40.595435,796.079664L48.990873,797.556913Z " />

<path data-nuts="FR433" d="M293.734634,986.940355L299.979172,987.679339L309.820784,980.777645L320.457276,978.762702L336.388373,967.214904L348.083083,972.025888L364.126721,965.799240L371.092936,954.862938L379.908390,957.114308L387.515698,946.192269L393.586722,951.744706L411.496656,926.566342L421.344286,926.879963L425.416643,922.632332L441.068828,926.514350L450.763591,932.149123L461.241811,921.758047L468.172799,920.495895L475.259319,913.401554L482.789347,914.092867L492.138247,920.660630L497.232294,913.988716L492.347140,899.765353L496.414593,894.525001L489.665293,864.210709L501.869827,847.030783L494.625813,836.634622L470.554867,821.882935L463.362396,810.983828L455.778266,814.167319L452.297965,821.843580L440.440473,825.864447L433.076151,810.567585L420.548864,804.826155L413.267546,808.481729L404.853234,806.747736L397.518586,811.851877L385.313121,806.574091L383.530696,791.924945L379.471787,786.920967L363.036073,791.684837L356.423889,803.601092L349.899836,803.846601L345.884688,797.861149L334.300021,811.525449L334.388806,817.850995L327.894171,817.114598L323.447962,831.045218L311.463325,828.626675L305.481630,839.572693L296.577747,841.642400L295.842058,851.825940L300.795137,858.837143L295.930472,865.934052L296.888265,874.727626L279.744632,877.420958L274.895303,867.974410L267.643566,876.905851L259.285549,873.138794L245.426406,875.445351L239.054094,893.644293L243.553376,895.792080L248.538671,886.772004L257.760320,893.501616L260.313250,910.636976L250.896916,923.357803L242.079536,921.993383L239.898031,926.759882L247.250548,939.248107L250.609021,953.015531L258.522077,952.874952L256.197385,968.824312L261.528848,975.378006L271.837807,989.435933Z " />

<path data-nuts="FR262" d="M4.839954,1004.243317L16.806780,1003.517422L21.813921,1002.848034L26.400675,992.414642L17.790852,975.825775L9.653947,979.221905L5.996588,952.215705L0.000000,951.841357L0.000000,1009.998043L4.489440,1010.064341Z " />

<path data-nuts="FR431" d="M362.285203,1173.803762L384.616554,1155.613295L392.585897,1146.643198L406.150048,1139.793300L416.125449,1129.902365L422.526185,1127.671218L428.098626,1119.579619L423.888449,1115.562351L428.934665,1102.593898L429.915482,1091.930853L424.560163,1082.045837L436.546075,1069.773048L438.133668,1072.250800L461.592635,1064.183141L475.114150,1042.200962L482.254747,1035.103462L493.980768,1029.579936L503.797584,1020.596668L507.987444,1011.467649L521.800516,1000.140976L519.434661,988.420281L532.052362,984.830801L532.195281,978.516247L540.815682,976.283563L539.659098,968.967602L508.978948,970.667630L509.767275,965.341047L519.860355,956.354119L520.360981,949.075970L522.472079,929.199935L510.959674,916.281584L498.774160,917.917015L497.232294,913.988716L492.138247,920.660630L482.789347,914.092867L475.259319,913.401554L468.172799,920.495895L461.241811,921.758047L450.763591,932.149123L441.068828,926.514350L425.416643,922.632332L421.344286,926.879963L411.496656,926.566342L393.586722,951.744706L387.515698,946.192269L379.908390,957.114308L371.092936,954.862938L364.126721,965.799240L348.083083,972.025888L336.388373,967.214904L320.457276,978.762702L309.820784,980.777645L299.979172,987.679339L293.734634,986.940355L297.212422,999.238685L313.521490,1013.502929L313.830588,1022.753755L304.767797,1034.552817L308.378814,1052.686777L329.693910,1059.344393L331.486336,1064.760226L340.105483,1065.082222L344.959500,1077.901602L341.729450,1084.589218L350.683039,1094.639386L372.152418,1109.010544L381.649904,1123.918403L376.763604,1130.557460L355.977091,1143.442543L361.946006,1154.348230L351.214783,1165.146987L367.116286,1179.319328Z " />

<path data-nuts="FR214" d="M229.645413,891.271081L235.301659,896.879800L239.054094,893.644293L245.426406,875.445351L259.285549,873.138794L267.643566,876.905851L274.895303,867.974410L279.744632,877.420958L296.888265,874.727626L295.930472,865.934052L300.795137,858.837143L295.842058,851.825940L296.577747,841.642400L305.481630,839.572693L311.463325,828.626675L323.447962,831.045218L327.894171,817.114598L334.388806,817.850995L334.300021,811.525449L331.553767,806.556754L317.005932,803.556843L318.777481,791.468089L309.563577,777.482368L295.022363,767.161051L295.397011,757.934812L300.877727,750.864473L302.139743,727.568685L294.131735,725.292357L296.692306,718.102283L289.174445,711.951433L285.115297,716.158273L276.557543,704.118347L274.949433,696.265586L266.662651,693.473010L256.685046,699.843493L254.054992,686.103839L265.460802,676.393051L255.125329,669.123637L253.535936,661.268033L246.497538,659.977072L237.626440,649.353291L231.493527,649.555417L209.879826,636.364765L205.525735,626.421065L196.857270,625.996273L194.465477,615.658184L190.674612,620.823128L184.031611,618.543727L183.592544,601.487529L170.182989,599.830742L162.194361,605.257952L158.609615,618.699628L142.902123,623.710532L148.089671,641.509949L133.807527,637.338328L125.323088,639.310954L121.539340,655.655037L118.111314,659.360904L125.279023,664.135360L131.717140,676.654588L139.349189,679.011778L137.778932,684.282102L148.440091,690.689355L149.773949,702.440970L155.411768,712.470169L152.379124,714.745437L155.140367,730.463961L149.887962,737.977003L152.104808,745.393398L148.366540,754.931855L130.395790,750.570591L122.296782,762.301466L127.749278,769.897703L124.143889,776.517341L129.458192,780.697775L139.525094,781.234684L137.970594,792.346521L148.321479,793.864684L151.625104,799.390246L144.772311,805.845920L149.705397,811.457121L158.184806,805.082736L173.114026,833.092945L166.149840,848.313174L168.026545,856.680460L164.375617,864.281389L171.723720,868.058306L178.216606,862.543530L183.583117,866.701784L180.406950,871.410569L194.727199,880.383127L201.352259,871.944734L203.627510,879.351490L213.172657,885.641933L216.784157,899.919416Z " />

<path data-nuts="FR264" d="M6.378148,945.909333L0.397607,935.798107L3.854538,927.735778L11.068620,922.827165L10.753368,906.251835L21.520568,896.688945L26.643145,882.393968L37.312810,868.432345L40.964893,856.479201L40.583528,846.231438L45.988705,848.989205L53.504714,843.592621L52.093437,828.415888L54.256420,819.293121L43.722632,820.613644L45.638091,804.660260L48.990873,797.556913L40.595435,796.079664L27.113360,786.981686L16.157312,795.558127L7.709175,789.673549L4.455653,794.826216L0.000000,791.564478L0.000000,951.841357L5.996588,952.215705Z " />

<path data-nuts="FR422" d="M590.426319,949.127647L600.255917,951.254292L607.557983,947.497961L611.897990,943.686583L623.910821,932.713660L622.098583,922.964769L637.671077,913.496678L638.713718,909.625330L639.100255,905.743787L626.269848,888.045368L625.078121,880.736384L631.781895,870.640279L628.698156,858.927370L634.849504,841.531277L634.014651,832.284564L638.794250,818.266543L646.117404,807.687193L636.617013,790.531435L638.593112,767.720888L628.232730,766.096629L628.658977,759.785582L619.627308,756.718212L621.118937,745.079312L599.303872,733.025789L594.430701,733.906064L585.687354,717.211214L571.815797,715.472445L560.141287,732.237588L556.999409,742.862907L545.900874,761.087058L548.962889,769.419083L540.641558,778.465765L535.133938,791.948177L524.582413,798.016646L520.005406,812.487839L521.413183,821.757577L515.419635,826.957357L519.400495,837.748830L505.846819,844.702069L509.499658,855.488040L522.493955,858.724634L536.037595,866.821641L539.807731,873.712810L539.733508,891.694169L533.324234,899.808931L535.758949,908.127757L547.592539,906.937591L551.286862,918.197209L557.695714,925.626007L555.275025,931.405867L566.032798,935.521685L562.169786,947.590381L573.328732,948.792620L575.525645,954.182500Z " />

<path data-nuts="FR434" d="M531.661806,943.997842L528.938146,933.727811L536.240142,930.495564L544.374783,934.082182L555.275025,931.405867L557.695714,925.626007L551.286862,918.197209L547.592539,906.937591L535.758949,908.127757L533.324234,899.808931L539.733508,891.694169L539.807731,873.712810L536.037595,866.821641L522.493955,858.724634L509.499658,855.488040L505.846819,844.702069L501.869827,847.030783L489.665293,864.210709L496.414593,894.525001L492.347140,899.765353L497.232294,913.988716L498.774160,917.917015L510.959674,916.281584L522.472079,929.199935L520.360981,949.075970Z " />

<path data-nuts="FR718" d="M484.585345,1243.153446L482.433135,1235.322758L489.026817,1226.748380L473.033047,1222.438826L435.126586,1222.336071L427.859666,1229.893685L416.325145,1233.914118L411.801712,1239.118746L403.667155,1230.599515L396.257775,1231.332754L383.985440,1247.453043L383.062885,1255.198361L384.042810,1256.522473L498.714875,1256.522473Z " />

<path data-nuts="FR432" d="M324.254405,1244.361791L328.618710,1244.525333L336.858778,1230.247985L352.438152,1216.716124L356.708837,1209.576865L354.247346,1203.170540L370.678853,1182.845095L367.116286,1179.319328L351.214783,1165.146987L361.946006,1154.348230L355.977091,1143.442543L376.763604,1130.557460L381.649904,1123.918403L372.152418,1109.010544L350.683039,1094.639386L341.729450,1084.589218L344.959500,1077.901602L340.105483,1065.082222L331.486336,1064.760226L329.693910,1059.344393L308.378814,1052.686777L304.767797,1034.552817L313.830588,1022.753755L313.521490,1013.502929L297.212422,999.238685L293.734634,986.940355L271.837807,989.435933L261.528848,975.378006L256.094070,979.033604L253.641726,997.895046L247.165017,1002.474831L249.597638,1007.445443L245.176613,1017.950914L239.722074,1021.600012L234.895997,1033.543696L223.895261,1034.991549L215.959969,1041.923173L209.850859,1059.636808L210.539974,1073.774480L218.630646,1071.229735L223.292582,1086.033914L235.971291,1085.145748L235.407841,1090.470376L245.869484,1094.823404L244.936088,1101.104609L235.319409,1100.193162L221.908659,1109.802496L232.276002,1116.592564L230.813348,1127.226291L240.056227,1152.924691L232.737065,1159.895104L232.422600,1167.175569L226.057601,1167.377051L223.332180,1183.788614L234.823830,1189.165035L234.260223,1194.489111L213.780469,1202.806881L212.766607,1210.541352L225.427638,1220.354335L222.598458,1223.631163L235.386212,1238.788317L242.433201,1239.096870L238.625091,1249.627688L250.594004,1253.063607L264.009868,1245.853626L268.055637,1237.271464L286.656770,1242.896105L288.179879,1255.597259L295.645812,1253.950754L311.698657,1256.522473Z " />

<path data-nuts="FR716" d="M104.762862,1254.312511L95.366497,1234.347422L77.069080,1243.075960L75.058860,1236.639167L62.248817,1243.220027L59.882986,1237.247108L48.692553,1232.715418L44.867811,1234.928125L40.397649,1254.621151L40.618158,1256.522473L104.443008,1256.522473Z " />

<path data-nuts="FR263" d="M119.239720,1247.780716L127.886544,1229.745759L127.892134,1222.935667L135.223181,1210.666136L136.758329,1200.042945L145.027866,1181.979753L159.065415,1182.685430L167.409069,1190.394166L194.452715,1185.373695L196.306242,1196.160655L203.782749,1201.373419L213.780469,1202.806881L234.260223,1194.489111L234.823830,1189.165035L223.332180,1183.788614L226.057601,1167.377051L232.422600,1167.175569L232.737065,1159.895104L240.056227,1152.924691L230.813348,1127.226291L232.276002,1116.592564L221.908659,1109.802496L235.319409,1100.193162L244.936088,1101.104609L245.869484,1094.823404L235.407841,1090.470376L235.971291,1085.145748L223.292582,1086.033914L218.630646,1071.229735L210.539974,1073.774480L209.850859,1059.636808L203.997501,1056.930868L193.411898,1063.239259L176.462837,1063.392244L172.433571,1057.356506L162.235019,1062.201262L144.056821,1060.306498L143.531364,1064.171778L130.100756,1066.880845L121.513200,1072.267404L115.976226,1070.026657L105.033727,1075.764108L92.363832,1063.879380L82.444436,1050.675430L82.562328,1042.408487L74.817863,1044.406481L70.837280,1038.340465L59.671259,1036.241147L55.394787,1023.825109L46.828426,1028.679850L45.758263,1018.394691L33.950656,1016.235294L21.813921,1002.848034L16.806780,1003.517422L9.956831,1012.835666L4.489440,1010.064341L0.000000,1009.998043L0.000000,1256.522473L39.251980,1256.522473L40.397649,1254.621151L44.867811,1234.928125L48.692553,1232.715418L59.882986,1237.247108L62.248817,1243.220027L75.058860,1236.639167L77.069080,1243.075960L95.366497,1234.347422L104.762862,1254.312511L104.443008,1256.522473L116.570335,1256.522473Z " />

<path data-nuts="FR261" d="M115.976226,1070.026657L121.513200,1072.267404L130.100756,1066.880845L143.531364,1064.171778L144.056821,1060.306498L162.235019,1062.201262L172.433571,1057.356506L176.462837,1063.392244L193.411898,1063.239259L203.997501,1056.930868L209.850859,1059.636808L215.959969,1041.923173L223.895261,1034.991549L234.895997,1033.543696L239.722074,1021.600012L245.176613,1017.950914L249.597638,1007.445443L247.165017,1002.474831L253.641726,997.895046L256.094070,979.033604L261.528848,975.378006L256.197385,968.824312L258.522077,952.874952L250.609021,953.015531L247.250548,939.248107L239.898031,926.759882L242.079536,921.993383L250.896916,923.357803L260.313250,910.636976L257.760320,893.501616L248.538671,886.772004L243.553376,895.792080L239.054094,893.644293L235.301659,896.879800L229.645413,891.271081L216.784157,899.919416L213.172657,885.641933L203.627510,879.351490L201.352259,871.944734L194.727199,880.383127L180.406950,871.410569L183.583117,866.701784L178.216606,862.543530L171.723720,868.058306L164.375617,864.281389L168.026545,856.680460L166.149840,848.313174L173.114026,833.092945L158.184806,805.082736L149.705397,811.457121L144.772311,805.845920L151.625104,799.390246L148.321479,793.864684L137.970594,792.346521L139.525094,781.234684L129.458192,780.697775L124.143889,776.517341L117.898069,777.638065L101.878381,772.859539L95.986782,779.344716L96.426691,789.105491L77.092809,790.927099L72.058888,787.715157L58.542794,790.333001L53.131783,788.065210L48.990873,797.556913L45.638091,804.660260L43.722632,820.613644L54.256420,819.293121L52.093437,828.415888L53.504714,843.592621L45.988705,848.989205L40.583528,846.231438L40.964893,856.479201L37.312810,868.432345L26.643145,882.393968L21.520568,896.688945L10.753368,906.251835L11.068620,922.827165L3.854538,927.735778L0.397607,935.798107L6.378148,945.909333L5.996588,952.215705L9.653947,979.221905L17.790852,975.825775L26.400675,992.414642L21.813921,1002.848034L33.950656,1016.235294L45.758263,1018.394691L46.828426,1028.679850L55.394787,1023.825109L59.671259,1036.241147L70.837280,1038.340465L74.817863,1044.406481L82.562328,1042.408487L82.444436,1050.675430L92.363832,1063.879380L105.033727,1075.764108Z M16.806780,1003.517422L4.839954,1004.243317L4.489440,1010.064341L9.956831,1012.835666Z " />

<path data-nuts="FR711" d="M295.645812,1253.950754L288.179879,1255.597259L286.656770,1242.896105L268.055637,1237.271464L264.009868,1245.853626L250.594004,1253.063607L238.625091,1249.627688L242.433201,1239.096870L235.386212,1238.788317L222.598458,1223.631163L225.427638,1220.354335L212.766607,1210.541352L213.780469,1202.806881L203.782749,1201.373419L196.306242,1196.160655L194.452715,1185.373695L167.409069,1190.394166L159.065415,1182.685430L145.027866,1181.979753L136.758329,1200.042945L135.223181,1210.666136L127.892134,1222.935667L127.886544,1229.745759L119.239720,1247.780716L116.570335,1256.522473L311.698657,1256.522473Z M358.284135,1251.919171L371.437519,1230.504174L358.403167,1218.871952L352.438152,1216.716124L336.858778,1230.247985L328.618710,1244.525333L324.254405,1244.361791L311.698657,1256.522473L360.112441,1256.522473Z " />

</g>

</svg>

