<?xml version="1.0" standalone="no"?>
<!DOCTYPE svg PUBLIC "-//W3C//DTD SVG 1.1//EN" "http://www.w3.org/Graphics/SVG/1.1/DTD/svg11.dtd" >
<svg xmlns="http://www.w3.org/2000/svg">
<metadata>
This is a custom SVG webfont generated by Font Squirrel.
Copyright   : Manfred Klein  CybaPee Based on Aquiline by Expert Software
</metadata>
<defs>
<font id="webfontuTSmdbOR" horiz-adv-x="500" >
<font-face units-per-em="1000" ascent="800" descent="-200" />
<missing-glyph horiz-adv-x="412" />
<glyph unicode=" "  horiz-adv-x="412" />
<glyph unicode="&#x09;" horiz-adv-x="412" />
<glyph unicode="&#xa0;" horiz-adv-x="412" />
<glyph unicode="!" horiz-adv-x="470" d="M82 6q1 8 1.5 15t-0.5 12l4 3q19 27 30 39q4 5 7.5 11t8.5 11q7 10 34 21v1q7 3 12 3q18 0 25 -19l-1 2l3 -2q2 -20 -1 -24q-9 -12 -11 -18q-2 -5 1 -23q1 -13 -10 -24q-9 -6 -14 -11q-2 -2 -3.5 -5t-3.5 -5q-7 -7 -43 -21q-2 -1 -6 -1q-25 0 -29 13q-7 13 -4 22z M205 229q-2 -8 9 -33q46 8 47 9q7 8 14 15l15 15l7 2q2 4 2.5 7t1.5 5l7.5 29t3.5 12q4 10 28 34l7 2q7 10 16 35q5 12 9 20.5t8 13.5l-1 44q24 78 27 97l12 24l3 -1l2 6q4 31 3 48q5 45 25 90q2 5 11 16t11 19v15q0 7 -1 12q1 2 2.5 6t5.5 9q6 10 5 15h1q-1 19 -18 19 q-16 0 -36 -13q-21 -14 -24 -19q-2 -4 -10 -36q-5 -21 -18 -33l-3 -8q-1 -4 0 -13q0 -11 -1 -14l-2 -4q-14 -19 -14 -20q-1 -1 1 -10q2 -6 -2 -8q-18 -18 -29 -43q-12 -27 -8 -27l-5 -34t-4 -21v-2q-3 -9 -5.5 -15.5l-4.5 -11.5q-1 -11 -1.5 -19.5t0.5 -13.5q-2 -10 -15 -26 q-13 -18 -14 -26q-1 -3 -0.5 -8t1.5 -13q1 -14 0 -24q-8 -38 -39 -83q-30 -44 -30 -40z" />
<glyph unicode="&#x22;" horiz-adv-x="422" d="M61 599l8 -4q18 6 32 18t18 13q9 2 14 0q14 5 25.5 11.5t21.5 13.5l15.5 19t10.5 15q5 4 8.5 6t5.5 4q11 11 10 24q-1 19 0 23t11 19q1 4 0 24l-3 1v-1q-8 17 -24 17q-8 0 -12 -2q-27 -10 -35 -22q-4 -5 -8 -11t-7 -11q-12 -19 -16 -29l1 -19q-12 -14 -21 -21l1 -1 q-12 -32 -32 -52q-19 -19 -21 -26zM220 600l8 -4q18 6 32 18t18 13q9 2 14 0q14 5 25.5 11.5t21.5 13.5l15.5 19t10.5 15q5 4 8.5 6t5.5 4q11 11 10 24q-1 19 0 23t11 19q1 4 0 24l-3 1v-1q-8 17 -24 17q-8 0 -12 -2q-27 -10 -35 -22q-4 -5 -8 -11t-7 -11q-12 -19 -16 -29 l1 -19q-12 -14 -21 -21l1 -1q-12 -32 -32 -52q-19 -19 -21 -26z" />
<glyph unicode="#" horiz-adv-x="400" d="M24 286q4 -19 13 -19q12 2 29 13l3 2h2q12 0 18 2l3 2h4q1 -1 3 -1h28q7 0 15 5q3 -3 6 -3q-1 -3 -1 -14q0 -13 -8 -19l-1 -2q-3 -1 -5 -8q0 1 -1.5 -6.5t-3.5 -21.5l-8 -8q-2 -5 1 -9l1 -1q1 -2 -1 -4q-10 -10 -12 -23q-2 -8 -5 -11q-2 -2 -3 -4l-2 -4l11 -11 q46 7 54 27q3 11 -4 25v3q4 15 3 21l1 1q4 7 4 18v2l3 1q11 17 6 26q6 6 7 9l1 7q3 3 4 6t5 3q8 -3 19 3h1v-2q3 -3 6 -3q5 0 10 4t7 4h1v-2l3 -3q-15 -50 -18 -72q-11 -41 -16 -48q-10 -24 -18 -50l10 -12q55 7 53 26q-1 8 8 36q9 27 9 38q0 4 -2 10l15 67h6q2 0 7 -3 q4 -3 9 -3q7 0 21 10q15 12 16 17q1 2 -10 12q-11 8 -14 8q-1 0 -7 -2t-5 -2l-1 1l-1 1q-5 8 -9 8q3 7 1 15l1 1q4 7 4 19v2l3 1q10 16 6 25q7 7 8 10v6q3 3 4 6t5 3q8 -3 19 3h1l1 -2q2 -2 5 -2q4 -1 10 3q5 4 7 4h1l1 -2q2 -8 8 -8l6 3l3 2v-1q5 -5 11 -5q5 0 10 2 q4 0 6.5 0.5t4.5 -0.5q2 0 7 -3q4 -3 9 -3q6 -2 21 9q15 12 16 17q1 2 -10 12q-11 8 -14 8q-1 0 -7 -2t-5 -2l-1 1l-1 2q-2 8 -8 8q-6 -2 -10 -5q-5 -3 -7 -3q-10 2 -13.5 3t-0.5 1q-1 0 -2.5 -0.5t-3.5 -0.5q-3 -2 -7 -2v1q-4 4 -11 6q-10 -4 -19 -6.5t-17 -3.5h1q3 4 -3 9 v2h-1l-1 1l3 3h1q7 4 2 15l-1 2q-2 4 3 6h2q12 8 8 16v1l2 2q9 13 11 22q11 23 16 27q3 8 -4 19q-6 12 -13 12q-5 0 -17 -12q-11 -12 -12 -16q-2 -3 0 -9q0 -3 -4 -6l-2 -2q-13 -7 -10 -17l1 -2q1 -2 1 -4q-1 -1 -2 -3t-3 -4q-2 -3 -4 -7q0 -3 1 -8q0 -5 -3 -6l-2 -2 q-5 -5 -9 -12q6 -32 -23 -32v2q-1 1 -2 1l-2 1q-3 4 -9 4q-3 -3 -12 -4l15.5 44t19.5 52q3 6 -4 18q-6 12 -13 12q-5 0 -17 -12q-11 -12 -12 -16q-2 -3 0 -9q0 -3 -4 -6l-2 -2q-7 -4 -32 -80q-1 1 -3 1q-5 0 -9 -2q-3 0 -5 -0.5t-4 -0.5l-1 1v1h-1q-4 2 -8 2l-13 -12 q-3 -11 0 -27q4 -19 13 -19q8 0 16 5v-6l1 -2q1 -2 1 -4q-1 -1 -2 -3t-3 -4q-2 -3 -4 -7q-2 -2 0 -8q0 -5 -3 -6l-2 -1q-5 -5 -8 -12q6 -32 -23 -32l-3 3l-1 1q-4 4 -10 4q-8 -2 -15 -4t-13 -3l-6 5q-6 0 -11 -4q-5 -3 -6 -3l-2 2q-4 4 -10 4q-2 1 -4 0.5t-6 -0.5 q-4 -2 -8 -2l-1 1l-2 1q-1 1 -7 1l-13 -11q-3 -12 0 -28zM204 324q1 8 1.5 16t0.5 15l-1 1q-2 4 3 6l2 1q12 8 7 16l1 1l2 1q9 13 11 22q2 8 3.5 11.5l1.5 3.5l9 3l1 -1q7 -3 13 -3q7 0 15 5q3 -3 6 -3v-18q-2 -10 -8 -15l-2 -1q-2 -3 -4 -9q0 1 -1.5 -6t-3.5 -21l-8 -8 q-2 -6 1 -10v-1q1 -1 1 -3v1h-4q-4 6 -11 7q-18 -10 -36 -11z" />
<glyph unicode="$" />
<glyph unicode="%" horiz-adv-x="482" d="M24 -91q-1 -3 7 -26q37 5 38 6q6 7 12 13t11 12l6 2q1 1 3 8q4 16 5.5 24t2.5 10q5 11 23 27l6 2q3 4 6 11l7 17q6 20 13 27l-1 35q22 63 23 78q4 8 6.5 12.5t3.5 6.5h2l1 4q2 14 3 25.5t1 19.5l10.5 40.5t8.5 24.5q5 10 9.5 16.5t7.5 11.5q0 17 -1 22q1 4 6 12q2 4 3 7 t2 5q2 16 3 27.5t2 19.5q12 59 34 97q4 5 7 9.5l5 7.5q4 17 14 27l1 5q3 12 1 19q5 9 9 15.5t8 10.5q7 15 9 24q6 7 27 26q23 20 34 40l-11 3l-27.5 -17.5l-19.5 -12.5l-12 -21l-14 -10l-14 -10q-14 -11 -18 -29q-1 -6 -1 -11v-7q-10 -11 -20 -13q-4 -6 -6 -13 q-23 -29 -42 -91q-4 -24 -6 -40q-1 -7 -4.5 -15.5t-8.5 -18.5t-8 -18t-5 -14q-11 -45 -22 -56l-2 -6q-1 -7 -1.5 -12t0.5 -9l-1 -4q-12 -12 -12 -16q-2 -9 0 -14q-15 -15 -23 -35q-9 -21 -6 -21q-2 -17 -4 -28t-4 -17v-1q-5 -16 -9 -22v-15q0 -6 1 -11q-7 -14 -13 -24 t-11 -17q0 -12 0.5 -21t1.5 -16q-8 -32 -32 -66q-25 -34 -25 -32zM54 509q0 -14 24 -33q22 -19 36 -19q43 0 94 74q7 8 12.5 13t9.5 9q4 14 6 23q7 9 10 11q4 8 6.5 13.5t4.5 9.5q15 22 15 38q0 17 4 33q4 15 4 27q0 13 -1 16l-5 6q-1 7 -1.5 14t-1.5 14q-3 19 -15 19 q-3 0 -7 0.5t-9 1.5t-9 1.5t-6 0.5q-17 0 -27 -13l-4 -6t-12 -19q-13 -11 -19 -15q-23 -27 -37 -46l-16 -16q-4 -11 -4 -18q-4 -7 -7.5 -12t-5.5 -9q-2 -6 -2.5 -10.5t-1.5 -8.5q-4 -5 -6.5 -9.5t-4.5 -7.5q-1 -1 -1 -8q0 -6 -1 -8q-5 -8 -8 -11q-3 -5 -8 -28q-6 -26 -6 -27 zM100 532l22 48q7 25 9 41l4 2q11 14 20 24t14 15q4 7 7 13t7 13q7 10 30 10q12 0 14 -11v-21l1 1l1 -3q-5 -32 -8 -35q-9 -13 -12 -19q-4 -7 -8 -35q-3 -21 -15 -30q-3 -3 -6 -4t-6 -4q-2 -5 -4 -11t-5 -11q-8 -15 -36 -15q-8 -2 -18 12q-11 13 -11 20zM220 91 q0 -13 24 -32q22 -19 36 -19q41 0 94 74q7 8 12.5 13t9.5 8l6 24q6 7 10 10q4 8 6.5 13.5t4.5 9.5q15 24 15 40q0 15 4 31q3 16 3 27q0 13 -1 16l-4 6q-1 7 -1.5 14t-1.5 15q-3 19 -15 19q-3 0 -7 0.5t-9 1.5t-9 1.5t-6 0.5q-17 0 -27 -13l-9 -13t-9 -12q-8 -11 -17 -16 l-21 -25l-16 -20q-5 -5 -9 -9.5t-7 -7.5q-2 -5 -2.5 -9.5t-1.5 -7.5q-5 -8 -8.5 -13t-5.5 -9l-3 -18l-10 -17q-2 -4 -2 -9q0 -6 -1 -8q-5 -8 -8 -11q-3 -5 -8 -28q-6 -26 -6 -27zM266 115q0 3 10 23q6 11 8.5 17.5t3.5 7.5q8 26 9 40l4 3q11 14 20 23.5l14 14.5q4 7 7 13 t7 13q7 10 30 10q12 0 14 -11v-21v2l2 -4q-5 -32 -8 -35q-9 -13 -12 -19q-4 -7 -8 -35q-3 -21 -15 -30q-4 -2 -7 -4t-5 -3l-4.5 -11t-4.5 -12q-8 -15 -36 -15q-8 0 -18 13q-11 13 -11 20z" />
<glyph unicode="&#x26;" horiz-adv-x="484" d="M26 136q0 -6 3 -13q2 -10 2 -12v-2q0 -8 1 -11q1 1 2 1l-1 -3q-2 -19 11 -32q5 -5 9 -9.5t7 -6.5l1 -2q6 -10 13 -11v-2q5 -9 26 -17t31 -8q3 0 6.5 -0.5t8.5 -1.5q10 -2 13 -2q-5 0 6.5 1t39.5 3q28 1 35 5l2 1q13 4 23.5 6t18.5 4q6 3 8 5q10 0 28 8q11 5 17.5 7.5 t9.5 3.5q3 10 -7 23h-4q-4 0 -12 -5h-1q-7 0 -11 -3q-8 -5 -9 -6q-7 0 -18 -4q-9 -4 -16 -4q-12 0 -19 -4h-4q-3 -1 -16 -1h-30h-19q-10 0 -25 6q-12 4 -20 6l-4 1q-19 14 -30 29l-3 2q-7 4 -9 22q-1 3 -1 9t-1 15v6t-2 10q-1 9 0 19l3.5 10.5t3.5 8.5q12 29 30 46l3 2 q8 8 13.5 15.5l9.5 12.5l2 2q2 1 7 8l1 2q19 16 30 24q2 0 3 1l2 1q10 5 16 9.5t10 6.5l5 2q10 4 14 8l2 1q8 4 15 6.5l13 4.5q13 2 16 4l4 2q16 4 39 4h18q11 4 10 4h6q2 -1 5 -1q8 0 13 4l4 2q8 4 16 4q5 8 5 14q0 13 -19 13h-5q-2 0 -6 -1q-5 -1 -11 -1h-9q-5 0 -15 -2 q-4 -1 -6.5 -1.5t-4.5 -0.5q-26 0 -29 9q-1 7 9 19q9 12 16 16q6 2 12 7l5 4q10 9 22 9q5 0 20 -5t23 -5q20 0 42 16v20q-36 10 -52 10q-49 -2 -67 -20l-2 -2q-2 -2 -3 -2l-2 -1q-18 -10 -23 -16l-3 -1q-6 -2 -12 -9q-1 -1 -5 -4l-11 -8q-8 -7 -13 -15l-1 -2l-3 -3h1 q-11 -13 -11 -20q0 -4 4 -8q4 -3 4 -4q0 -3 -14 -9q-8 -5 -11 -8h-1q-7 -1 -17 -10q-17 -11 -27 -15l-3 -2q-8 -5 -13 -8.5t-9 -5.5q-5 -4 -8.5 -7.5l-5.5 -5.5l-1 -1q-8 -2 -10 -8v-2l-21 -18l-2 -3q-5 -8 -9.5 -12.5l-7.5 -7.5l-2 -3q-1 -1 -1 -2l-2 -1q-7 -4 -12 -14 l-1 -4q-1 -2 -8 -7q-12 -9 -20 -30q-6 -16 -9.5 -23.5t-3.5 -8.5q-5 -10 -5 -17zM372 83q0 -12 15 -12q6 0 9 3l4 3q15 11 24 18.5t11 9.5l8 11.5t5 8.5l2 2q21 21 21 49q0 8 -5 13q-8 18 -18 18q-11 0 -13 -11q0 -2 3 -15q3 -12 -2 -23l-2 -1q-5 -7 -8 -12.5t-5 -9.5l-2 -2 q-6 -3 -8 -8q-1 -2 -7 -8q-2 -2 -4 -3.5t-3 -3.5l-2 -3q-8 -12 -18 -12q-5 -7 -5 -12z" />
<glyph unicode="'" horiz-adv-x="262" d="M61 599l8 -4q18 6 32 18t18 13q9 2 14 0q14 5 25.5 11.5t21.5 13.5l15.5 19t10.5 15q5 4 8.5 6t5.5 4q11 11 10 24q-1 19 0 23t11 19q1 4 0 24l-3 1v-1q-8 17 -24 17q-8 0 -12 -2q-27 -10 -35 -22q-4 -5 -8 -11t-7 -11q-12 -19 -16 -29l1 -19q-12 -14 -21 -21l1 -1 q-12 -32 -32 -52q-19 -19 -21 -26z" />
<glyph unicode="(" horiz-adv-x="419" d="M37 197q4 -20 9 -30q1 -4 -2 -14q-2 -10 -2 -12q0 -11 4 -24l6 -24l-3 -6l8.5 -18.5t5.5 -12.5l-4 -6q7 -21 14 -35l-9 -16l2 -3l9 -9l-7 -3q19 -27 33 -39q1 -2 4.5 -10l9.5 -22q4 -10 9 -17.5t10 -13.5q30 -26 49 -40q8 -11 13.5 -20l8.5 -14q38 -24 62 -35q6 3 16 3 q9 4 20 20q9 15 9 28q0 8 -6 16q-5 6 -20 11q-17 5 -23 12q-12 13 -22 25q-24 11 -32 18q-5 4 -11.5 10t-14.5 15q-31 43 -38 59q-10 10 -10 17q0 4 2 6q0 2 0.5 2.5t0.5 1.5q0 4 -11 13t-12 12l7 3q-10 20 -19 29q-5 5 -7 5l-8 37l-8 37q-9 43 -9 74q0 20 19 89 q9 34 15.5 55.5t10.5 31.5q17 30 29 47q1 8 1.5 14t-0.5 10q10 16 19 25l13.5 32.5t8.5 22.5q15 18 27 28q4 4 9 20q5 15 9 19q6 4 10.5 6.5t7.5 4.5l36 46l32 42l25 22.5t19 17.5q19 18 32.5 32l22.5 24q27 16 42 24q4 5 7 9.5l5 7.5q33 19 60 33t48 23q159 70 181 71h12 t13 -2q6 -1 10 -1.5t6 -0.5q12 0 32 9l14 6l-5 5l5 4l13 5t9 4l-5 5l10 6l24 10l-14 13q-3 2 -5 6q-29 -6 -93 -12q-32 -2 -55.5 -5t-37.5 -6q-116 -63 -191 -114l-25 -14l-19 -10l-32.5 -30t-21.5 -22q-19 -13 -32 -18q-14 -19 -20 -29l-38.5 -34l-27.5 -24 q-56 -75 -78 -114q-9 -10 -15.5 -16.5l-11.5 -11.5q-9 -22 -12 -31q-13 -11 -19 -15q-4 -11 -5.5 -19t-2.5 -14l-10.5 -12t-8.5 -8q-2 -5 1 -13q0 -10 -1 -13q-2 -4 -7 -8q-7 -5 -8 -7l1 -11q0 -3 -9 -15q-7 -9 -9 -14q-5 -19 -8 -33.5l-5 -24.5l-12 -18q-2 -7 -6.5 -24.5 t-10.5 -46.5q-12 -57 -12 -69z" />
<glyph unicode=")" horiz-adv-x="507" d="M-207 -244l16 -10l6 -6l36 12.5t54 16.5q63 18 89 30q53 43 93.5 80l71.5 67q12 12 22 19.5l17 12.5q30 40 42 63q9 8 16 13.5l12 9.5l15 33l30.5 41t23.5 29q38 81 55 125q7 11 12 20t9 14q5 22 6 31l8.5 11.5l6.5 8.5q1 11 1.5 20t-0.5 14l8.5 13.5t6.5 9.5 q-2 19 -4 25q7 13 12 18l-3 11q-1 1 5 15q6 12 6 15q1 21 1.5 36.5t-0.5 25.5q5 15 8 19q2 11 4 71q1 29 0.5 47t-1.5 24q-9 19 -15 27q-1 19 0 28q-11 29 -20 44l2 8q-6 9 -11 15.5l-9 11.5l3 7q-5 11 -10 19t-9 13l5 17l-3 2q-3 2 -5.5 4t-4.5 3l6 5q-11 11 -20.5 18.5 t-17.5 12.5q-4 3 -20 29q-12 19 -25 27q-8 5 -29 15q-22 10 -28 15l-17 17.5t-11 12.5q-20 8 -36.5 13l-30.5 9q-6 -5 -16 -6q-20 -17 -20 -46q0 -15 8 -21q4 -2 10 -4t14 -2q18 -3 25 -9l14.5 -11l11.5 -9q39 -11 64 -29q39 -38 49 -53q14 -11 14 -18v-3q-1 -1 -1 -3 q0 -5 6 -8l21 -13l-6 -5q16 -18 25 -24q6 -3 8 -3q2 -6 28 -71q19 -44 23 -71q3 -20 -1 -91q-2 -35 -4 -57t-4 -33q-1 -8 -11 -26q-8 -15 -10 -25q1 -15 5 -24q-10 -22 -16 -29q-4 -19 -6.5 -33.5t-3.5 -24.5l-11 -19.5t-9 -13.5q-1 -2 -2 -7t-3 -13q-3 -15 -7 -20l-15 -15 l-26 -52.5l-23 -47.5q-11 -16 -20.5 -28t-16.5 -20q-5 -6 -19 -33q-13 -23 -22 -32q-12 -11 -21.5 -18.5t-16.5 -12.5q-8 -12 -9 -19l-52.5 -44t-43.5 -33l-39 -26.5l-39 -27.5q-63 -44 -85 -49q-11 -3 -22 -3q-14 0 -26.5 -4t-22.5 -11l-13 -9l7 -5l-5 -4q-8 -5 -13.5 -8 t-7.5 -5l7 -4l-9 -8z" />
<glyph unicode="*" horiz-adv-x="236" d="M28 513q0 -20 8 -20q1 0 19 8q8 0 17 3q6 -2 13 1q8 -2 9 -2q4 0 9 3v-1l-2 -2q-5 0 -8 -3q-3 -5 -6 -8.5t-5 -6.5h-4q-2 -2 -3 -6l-2 -5q-2 0 -3 1q-1 0 -6 -5q-2 -4 -3.5 -6l-1.5 -2q-4 0 -6 -2l-1 -11q10 -16 22 -16t12 22q7 7 8 12l2 1l-2 -8l-5 -5q0 3 2 -7 q0 -1 -1 -1q-10 -16 -11 -21q-2 -6 -2 -7l6 -6q34 3 34 21q0 5 -4 12l1 1q3 9 3 10v2q-1 1 -1 2h1l2 6v7l2 1q2 3 3 5l2 4q5 -5 5 -10l-1 -2q0 -5 1 -6q7 -7 10 -14v-7q1 -3 4 -4h2q2 -5 3 -9.5t2 -8.5q7 -8 5 -13h10q13 17 13 32q0 8 -15 13v1l-1 1q-4 9 -7 10q1 4 -7 12 h-1l1 2q-2 11 -8 14q0 6 -1 8l-3 2v1q4 -1 10 2v-1q2 -2 4 -2q1 0 6 3l4 2h1v-1q1 -4 5 -4h2q3 0 4 1q3 -3 7 -3q2 0 5 1h5h2q1 0 2.5 -0.5t3.5 -0.5q2 -2 6 -2q2 0 13 6q9 6 9 9t-6 9q-7 5 -9 5l-4 -2l-4 -2v2q-5 5 -6 5t-7 -2l-4 -2q-2 0 -3 1t-4 1q-2 0 -4 -1t-5 -1v1 q-1 4 -7 4q-2 -1 -4.5 -2t-6.5 -2q0 4 1 5h2q2 0 3 -1q5 0 5 6l1 1q4 -1 9 4t7 8q4 2 6.5 3t4.5 2q5 5 5 22q0 7 -7 7q-13 0 -13 -4q-2 -2 -4 -6h-1q-2 0 -3 1h-3q-3 0 -5 -5l-2 -6q-6 -4 -8 -5v-1h-1v1l1 1q5 8 7 13q1 2 6 11q5 7 5 9q0 16 -12 16q-3 0 -11 -8 q-7 -7 -7 -10q0 -2 1 -3v-3q0 -1 -6 -4t-6 -6l0.5 -1.5t2.5 -5.5q-6 -15 -6 -12q0 -7 -3 -8q-3 -2 -5 -5h-2q-3 4 -3 6h1q0 1 1 2v2q0 5 -5 7q-1 5 -2 8.5t-3 7.5q-3 7 -3 11q0 16 -17 16q-8 0 -8 -11q0 -13 1 -15q3 -3 4 -3l2 -4v-4q-1 -1 -1 -5q0 -6 4 -7q2 -1 2.5 -1.5 l0.5 -0.5q3 -6 3 -10q3 -9 4 -8h1v-1q-1 -1 -1 -2t1 -2v-3h-2q-5 -2 -9.5 -2.5t-8.5 -1.5l-4 4l-6 -3l-4 -2l-1 1h-1q-1 4 -6 4q-1 0 -2.5 -0.5t-3.5 -0.5q-3 -2 -6 -2v1q-2 2 -6 2l-8 -8q-1 -2 -1 -8z" />
<glyph unicode="+" horiz-adv-x="370" d="M10 223q0 -8 2 -18q5 -23 15 -23q12 0 37 16l4 2h2q16 0 22 2l4 3q8 -2 10 -2q1 0 18 5v-1q10 -3 16 -3q8 0 20 6q6 -7 17 -2l1 -1q-2 3 -5 2q2 4 -1 5l-5 -6q-2 -4 -2 -23q0 -12 -8 -20l-3 -2q-4 -4 -7 -11q3 -6 -5 -35l-10 -9q-2 -7 1 -11l1 -2q1 -4 -1 -6 q-14 -14 -15 -27q-8 -20 -12 -24l13 -15q18 3 37 12q26 12 30 22q4 11 -5 31v5q6 16 4 26l2 1q5 10 5 23v2l3 2q12 19 7 32q6 4 11 12v8q2 2 4 7q1 4 6 4q9 -4 25 4q1 -1 1 -2l1 -1q1 -3 7 -3q5 0 13 5t9 5v-1l1 -2q1 -12 35 -12q2 0 5 0.5t8 1.5q11 2 13 1q1 0 9 -5 q4 -4 11 -4q9 0 26 13q18 12 21 20q1 4 -12 15q-14 11 -18 11q-5 0 -9 -3q-6 -2 -7 -2v2l-2 1q-4 10 -12 10q-4 0 -11 -4t-9 -4q-2 -1 -8 1t-8 2q-1 0 -9 -2q-6 -2 -8 -2v2q-4 6 -14 7q-23 -11 -44 -12q4 7 -2 11l-3 3v1q0 1 2 3h2q10 7 4 20l-2 2q-1 3 3 7l3 1q16 7 11 20 l-1 1l2 2q13 9 16 27q10 27 19 34q3 8 -5 24q-8 15 -18 15q-7 0 -20 -15q-15 -16 -16 -20q-1 -2 1 -11q0 -6 -5 -8l-3 -2q-18 -11 -13 -22l2 -2q1 -4 0 -5q-7 -14 -10 -18v-9q0 -7 -4 -8l-1 -2q-8 -5 -12 -13q1 -5 1.5 -9.5t0.5 -8.5q0 -23 -30 -23q-2 0 -4 2l-1 2 q-4 4 -11 4q-11 -2 -20 -4t-17 -3l-7 6q-6 0 -13 -4q-5 -4 -8 -4h-1l-1 2q-8 5 -14 5q-2 0 -4.5 -0.5t-6.5 -0.5q-5 -2 -11 -2q-1 0 -1 1h-1l-1 1q-4 2 -8 2l-17 -14q-2 -8 -2 -17z" />
<glyph unicode="," horiz-adv-x="176" d="M-27 -82l8 -4q18 4 31 17q14 12 20 12q10 2 12 2q14 5 25.5 11.5t21.5 13.5l15.5 19t10.5 15q5 4 8.5 6t5.5 4q11 11 10 24q-1 19 0 23q1 3 11 18q1 4 0 24l-2 2l-1 -1q-8 18 -24 18q-6 0 -12 -3q-27 -11 -34 -22q-4 -5 -8 -11t-7 -11q-12 -19 -16 -29v-19 q-10 -12 -20 -21v-1q-11 -32 -31 -52q-19 -19 -21 -26z" />
<glyph unicode="-" horiz-adv-x="331" d="M15 233q1 -14 11 -33q11 -23 21 -23q13 0 33 17q6 3 9 3q21 2 30 8l1 -3h3q1 -1 3 -1q5 0 13 4q5 2 4 1.5t5 -1.5q28 -3 33 -3q6 0 9 1h9q2 0 7 3q4 3 6 3q10 -9 17 -9q2 0 5.5 0.5t8.5 1.5q13 2 15 1q5 0 12 -4t13 -4v-1q8 0 21 13t13 20q0 4 -16 13q-16 8 -20 8 q-3 0 -7 -3q-5 -3 -8 -3q-4 0 -10 8q-6 7 -11 7q-2 0 -9 -5q-4 -4 -9 -4q-2 0 -4 0.5l-6 1.5q-8 2 -10 2h-9q-5 -1 -10 -1q-24 0 -43 -4q-14 -2 -15.5 -3t-1 -1.5t-1.5 -1t-16 -1.5l-11 6q-2 0 -9 -5q-4 -4 -9 -4q-3 0 -8 4t-11 4q-2 1 -13 -1q-10 -2 -11 -2q-2 0 -6 3 q-6 2 -7 2z" />
<glyph unicode="." horiz-adv-x="232" d="M29 6v27l4 3q21 29 31 39l6.5 11t8.5 11q8 11 34 21v1q6 3 12 3q18 0 25 -19v2l2 -2q2 -20 -1 -24q-5 -5 -7 -9.5t-4 -8.5q-2 -3 1 -23q1 -13 -10 -24q-9 -6 -14 -11q-2 -2 -3.5 -5t-3.5 -5q-9 -8 -43 -21q-2 -1 -6 -1q-15 0 -26 11q-12 10 -6 24z" />
<glyph unicode="/" horiz-adv-x="416" d="M1 -146q-1 -5 10 -34q46 8 47 9q7 8 14 15l15 15l7 3q2 5 4 11l7.5 29t3.5 12q4 10 28 34l7 2q7 10 16 35q5 13 9 21.5t8 13.5l-2 43q5 12 8.5 24t8.5 25q3 9 6 21t5 28l7 13.5t5 9.5h3l2 5q3 32 2 45q3 41 26 93q2 5 11 16t11 19v15q0 7 -1 12q4 11 7.5 18.5t5.5 12.5 q6 37 6 58q8 37 19 67t24 54q10 13 15 21q1 5 2 9.5t2 9.5q2 5 14 16l2 6q1 8 1.5 13.5t-0.5 9.5q11 20 21 32q4 11 7 18.5l5 12.5q5 10 32 34q29 26 42 49l-12 3l-34.5 -21t-24.5 -16q-5 -8 -9.5 -14t-6.5 -11l-8 -6l-25 -19q-19 -13 -24 -37q-2 -17 -3 -24t-11 -10t-13 -6 q-5 -11 -6 -15q-14 -19 -27 -48t-26 -67q-3 -16 -5 -28.5t-3 -21.5q-2 -18 -15 -43q-13 -24 -16 -39q-2 -10 -4.5 -19l-5.5 -19q-4 -17 -19 -32l-2 -8q-1 -8 -1 -15v-11l-2 -5q-14 -19 -14 -20q-1 -1 1 -10q2 -6 -2 -8q-17 -16 -29 -42q-12 -27 -8 -27l-5 -34t-4 -21v-2 q-6 -21 -10 -28q-1 -11 -1.5 -19.5t0.5 -13.5q-1 -8 -15 -25q-13 -18 -14 -26q-1 -4 -0.5 -9t1.5 -13q1 -15 0 -24q-9 -38 -40 -82q-30 -44 -30 -40zM430 939q-4 -6 21 -11q21 -5 37 -7t27 -3l1 -11q-7 -1 -19 -22q-13 -20 -14 -29q-1 -2 -1 -9l5 -6q44 16 52 34l16.5 8 l18.5 9q18 7 21 23h1q4 16 -8 29q-11 12 -28 12q-9 0 -24 -4q-15 -3 -23 -3q-6 0 -18 5q-10 5 -13 6h-8q-39 -16 -44 -21z" />
<glyph unicode="0" horiz-adv-x="258" d="M14 57q0 5 7 34l6 24.5t3 10.5l6.5 8t4.5 5q3 15 3 22q4 7 7.5 12t5.5 9q2 8 3 14.5t2 10.5q5 9 9 15.5t7 10.5q2 7 3 12t2 9q7 8 12.5 13.5t9.5 8.5l25.5 31t19.5 25l24 18q9 14 13.5 22t5.5 9q14 17 35 17q5 0 19 -3q7 -1 11.5 -1.5t8.5 -0.5q16 0 19 -24q2 -8 2 -17 t1 -18l5 -8q2 -8 2 -18q0 -7 -1.5 -15.5l-3.5 -19.5t-3.5 -21t-1.5 -19q0 -19 -4 -27q-4 -5 -7.5 -11t-7.5 -11q-10 -21 -12 -29q-5 -5 -8.5 -8t-5.5 -5l-5 -17t-3 -12q-8 -10 -14.5 -17t-11.5 -11q-63 -93 -117 -92q-18 0 -47 25q-29 24 -29 39zM71 87q0 -8 14 -25 q13 -16 23 -16q36 0 46 19q2 8 5 15t5 14q11 8 16 9q14 10 19 37q3 18 5 28.5t3 13.5q5 11 16 25q6 7 10 44l-2 4l-1 -1q1 11 1 17v9q-3 14 -18 14q-28 0 -37 -13q-5 -8 -9 -16l-8 -16l-25 -28l-19 -20l-5 -3q-4 -14 -6 -27t-4 -24l-8 -15.5t-9 -15.5q-12 -23 -12 -29z" />
<glyph unicode="1" horiz-adv-x="160" d="M21.5 72.5q-0.5 -10.5 0.5 -14.5q1 -12 17 -38q4 -8 15 -12q5 -2 10 -3t10 -3q3 -3 7 -6q4 -4 10 -4q13 0 25 14q18 20 22 21q2 1 7 3t15 5q13 4 18 12q4 15 4 25q-6 3 -9 3q-4 0 -8 -7q-3 -7 -4 -8q-11 -8 -33 -8q-29 0 -32 24q0 6 16 50q16 45 19 51q5 10 11 19.5 l12 19.5q9 15 13 26t5 18l10 22q7 15 11 34q1 4 12 27q7 16 6 23q-6 18 -38 18q-8 0 -17.5 -1.5l-22.5 -3.5q-12 -2 -18.5 -3t-7.5 -1h-1q-12 -6 -12 -11q0 -4 18 -16q17 -11 17 -23q0 -3 -2 -11q-7 -22 -7 -21q1 -15 -3 -24l-5 -11.5t-3 -6.5q-1 -7 -1.5 -12t0.5 -9 q-2 -11 -15 -27q-20 -21 -21 -24q-8 -13 -14.5 -22.5l-11.5 -16.5q-9 -20 -12 -30q-9 -7 -11 -8q-1 -19 -1.5 -29.5z" />
<glyph unicode="2" horiz-adv-x="300" d="M-103 -59q0 -7 8 -7q9 0 36 11q12 5 19 7q7 7 9 10q26 14 48 14q25 0 57 -17q19 -10 38 -19q13 -8 21 -21l6 -6q6 -2 12 -2.5t11 -1.5q10 -5 16 -10t10 -9q27 -11 48 -11q2 0 4 0.5l6 1.5l6 1.5t4 0.5t9.5 -0.5t21.5 -0.5h38h47q20 5 35 16q16 10 34 15q8 2 17 18 q9 15 9 25q0 9 -6 9q-10 0 -32 -18q-26 -17 -31 -16q-31 -2 -57 -4t-47 -4q-48 5 -72 16q-4 4 -6 10q-9 1 -14 3q-3 1 -16 14q-9 9 -17 9q-14 0 -13 -1q-1 1 -1 6q-1 4 -4 4q-12 3 -15 7v-1q-7 8 -21 15t-35 15q-36 12 -36 24q0 7 11 16q10 9 15 12l3 6q15 15 32 27 q6 7 10.5 11.5t6.5 8.5l14 12t11 8q8 4 14 6.5t10 4.5q14 12 20 20q2 1 5 2t7 1q5 2 11 4q14 15 24 27.5t16 22.5q2 3 22 17q15 11 17 20q3 13 3 21q6 25 6 32q0 6 -6 9q-15 10 -17 12q-16 21 -20 31q-5 4 -15 8t-25 8q-16 3 -28 5t-20 2q-27 0 -46 -13q-8 -5 -11 -10v-16 q17 -4 44 -4h11q7 0 16 2q9 0 15.5 0.5t10.5 0.5q5 0 8 -2q2 0 3.5 -0.5t3.5 -0.5q2 -1 7 -1q4 0 6 -9q1 -8 0 -18q-2 -11 -4 -17q-3 -10 -6.5 -16t-5.5 -10l-7.5 -7.5t-6.5 -5.5q-17 -19 -29.5 -31t-20.5 -17l-14 -8.5t-11 -5.5q-20 -16 -34 -28.5l-24 -21.5l-17.5 -10.5 t-12.5 -6.5q-5 -6 -9.5 -10.5t-6.5 -8.5q-28 -25 -41 -35q-5 -8 -9.5 -14.5t-6.5 -11.5q-11 -15 -18 -21q-10 -14 -19.5 -29t-18.5 -31q-20 -31 -20 -40z" />
<glyph unicode="3" horiz-adv-x="344" d="M-30 48q2 -15 8 -20v-1q1 -10 15 -22q12 -10 23 -12q4 -4 11 -4q1 0 11 -2q4 -1 6.5 -1.5t4.5 -0.5t8 2h6q3 -2 9 1q2 0 4 0.5t4 0.5q10 0 23 7l3 1t10 3q9 1 14 13l7 6q14 8 17 14q8 3 15 11l13 8q12 7 15 18l1 1q4 5 6.5 9t4.5 6l2 1q13 13 18 21l1 1q10 7 16 30 q5 8 9.5 14l8.5 11q0 1 5 8q4 5 4 12q0 5 -2 11l-2 3v1q3 12 3 13q0 19 -3 28q-7 7 -8 9q-10 13 -16 15v1q-3 4 -7 7q-19 10 -37 10q1 0 -23 -3v-1q0 2 1 2l11 6q28 29 47 56q27 11 28 12t2 1t3 1h5h5q2 -1 4 -1q-7 0 -6 1q8 1 13.5 1.5t9.5 0.5q24 6 26 23q2 6 2 8 q0 21 -32 23q-3 0 -7.5 -0.5t-11.5 -0.5q-7 -2 -12 -2h-7q-15 0 -34 4q-18 3 -44 -4q-4 -10 -6 -10q-9 -2 -12 -5q-6 -4 -8 -5v1q1 0 -2 0.5t-8 1.5q-5 0 -8 -4q-11 0 -15 1v1q-7 -2 -16 -10q-12 -11 -13 -12q-4 -9 -5 -21q-2 -3 -4 -9q-1 -7 4 -10t9 -8q3 -5 8 -5l11.5 13 t7.5 8q7 7 30 17q25 11 35 11q7 0 4 -5l-12 -26q-2 -2 -12 -9q-9 -7 -10 -11q-2 -4 -13 -15q-8 -8 -9 -15q-2 -5 -8 -11q-7 -6 -7 -13t-3 -10q-7 -7 -10 -15q-11 -5 -11 -16v-4l-1 -1q-3 -3 -3 -8l3 -9q4 -12 26 -12q17 0 28 9l2 3q7 4 9 13q10 6 17 12t12 11h5l1 -2 q11 -4 13 -4q5 2 5 -1q0 -4 0.5 -8.5t1.5 -9.5v-11q0 -3 -2 -6q0 -2 -0.5 -3.5t-0.5 -3.5t1 -4v-5l-6 -12q-3 -2 -6 -5l-5 -5q-11 -9 -12 -19q-2 -5 -4 -8.5t-3 -5.5q-12 -7 -16 -19q-3 -11 -15 -19q-11 -6 -16 -12l-4 -4q-10 -7 -18 -11.5t-13 -6.5v-1q-10 1 -19 -6l-1 -3 q-5 0 -9 1t-9 1q-12 2 -20 0q-11 0 -12 1q-2 2 -3 10q-6 39 -30 39q-13 0 -17 -7q-1 -1 -7 -18l1 -2v-8q-1 -3 -1 -6z" />
<glyph unicode="4" horiz-adv-x="277" d="M-44 60q0 4 12 18.5l27 32.5t27.5 36.5t14.5 30.5q8 14 18.5 34.5t21.5 30.5l1 9q-18 15 -7 37.5t34.5 46.5t51 45.5l42.5 32.5l14 2q17 -17 12 -39t-30 -37q-14 -8 -19 -16t-7.5 -16.5l-5 -17t-9.5 -17.5q-12 -15 -18 -28.5t-16 -27.5q-5 -8 -16.5 -14.5t-16.5 -14.5 q-2 -4 -3 -15t-3 -16q-7 -6 -14.5 -10.5t-13.5 -9.5t-9.5 -10.5t-1.5 -12.5q2 1 3.5 0t3.5 -2q14 3 23.5 0.5t20.5 -0.5q11 13 25 26.5t30 21.5q8 16 15.5 24.5t21.5 22.5q5 25 14 47.5t11 33.5t-0.5 23.5t0.5 25.5q8 10 15 21.5l14 23.5t15 22.5t18 17.5q13 -5 27 -17 t16 -26q-18 -42 -38 -77.5t-32 -78.5q-33 -26 -38 -70l-12 -12q-5 -17 -14.5 -32t-16.5 -32q-8 -18 -12 -41t-7 -46.5l-6 -46t-9 -41.5h6l-6 -8t-5 -9l-64 38l19 40t19.5 45.5t17.5 46t13 41.5l-15 -4.5t-15 -6t-12.5 -8.5t-7.5 -14q-11 -3 -17 -3.5t-11 -1.5t-10 -4.5 t-14 -10.5q-8 -6 -20 -9.5t-23 -2t-19.5 8.5t-9.5 20z" />
<glyph unicode="5" horiz-adv-x="305" d="M-44 48q2 -15 8 -20v-1q1 -10 15 -22q12 -10 23 -12q4 -4 11 -4q1 0 11 -2q4 -1 6.5 -1.5t4.5 -0.5t8 2h6q3 -2 9 1q2 0 4 0.5t4 0.5q10 0 23 7l3 1t10 3q9 1 14 13l7 6q14 8 17 14q8 3 16 12q3 4 10 10.5t18 14.5t18.5 15t12.5 13l1 1q10 7 16 30q2 5 5 5q2 1 4 8 q4 8 5.5 13.5t2.5 9.5l1.5 1.5t3.5 4.5q5 7 5 13q0 5 -2 11l-2 3v1q3 12 3 13q0 19 -3 28q-7 7 -8 9q-10 13 -16 15v1q-3 4 -7 7q-19 10 -37 10q1 0 -23 -3v-1q0 2 1 3l2 1q4 7 4 16v4q0 1 13 13q13 10 15 18l4.5 6l1.5 2q24 8 28 12q3 0 5 1h5h5q2 -1 4 -1q5 0 11 3 q8 1 14 1.5t10 0.5q24 6 26 23q2 6 2 8q0 21 -32 23q-3 0 -7.5 -0.5t-11.5 -0.5q-7 -2 -12 -2h-7q-15 0 -34 4q-6 1 -16 -3q-17 -8 -25 -9h1q-14 -27 -21 -34l-15 -34q-13 -17 -19 -50l-2 -4l-3 -6q-3 -6 -3 -14q0 -7 -3 -10q-7 -7 -10 -15q-11 -5 -11 -16v-4l-1 -1 q-3 -3 -3 -8l3 -9q4 -12 26 -12q17 0 28 9l2 3q7 4 9 13q10 6 17 12t12 11h5l1 -2q11 -4 13 -4q5 2 5 -1q0 -4 0.5 -8.5t1.5 -9.5v-11q0 -3 -2 -6q0 -2 -0.5 -3.5t-0.5 -3.5t1 -4v-5q-4 -8 -5 -11q-2 -5 -12 -6q-6 -2 -6 -19l1 -2v-1q-6 -6 -7 -13q-3 -2 -5 -4l-3 -3 q-22 -10 -24 -17q-1 -9 -26 -27l-15.5 -12t-15.5 -11v-2q-10 1 -19 -6l-1 -3q-5 0 -9 1t-9 1q-12 2 -20 0q-11 0 -12 1q-2 2 -3 10q-6 39 -30 39q-13 0 -17 -7q-1 -1 -7 -18l1 -2v-8q-1 -3 -1 -6z" />
<glyph unicode="6" horiz-adv-x="284" d="M22 100q0 13 23 56v1q0 20 4 27q2 2 3.5 5t3.5 6l4 6t4 5q3 10 12 30l5 5l4 4t5 4q0 4 3 12l2 8t3 9q2 2 2 3q1 13 6 30l4.5 17.5l5.5 20.5q10 17 21 49q0 2 0.5 4.5t0.5 4.5q0 7 1 12q3 13 15 39q0 5 1 6h-5l3 6q1 1 1.5 2t2.5 2q4 28 26 54l22.5 23.5l22.5 23.5 l20 21.5t25 24.5l30.5 28l36.5 32q8 2 29 12q20 20 54 44q39 21 88 21q34 0 56 -13q2 -2 4.5 -5t5.5 -7l16 -16q2 -1 4 -1t5 -2q4 0 12 -5q4 -6 4 -13q0 -3 0.5 -5.5t0.5 -4.5q0 -4 1 -5l-27.5 18t-27.5 17q-28 17 -62 17q-41 0 -70 -20q-3 -4 -6.5 -8t-8.5 -9l-20 -10 q-6 -3 -12 -6.5t-14 -7.5q-9 -11 -27 -27q-20 -13 -58 -46l-18 -33q-7 -5 -14.5 -14t-16.5 -21q-2 -3 -4 -9l-3 -9h3q-2 -4 -2 -6q-2 -2 -2 -5q-8 -17 -11 -30t-4 -21l-2 -16.5l-2 -16.5q-3 -15 -3 -29q18 7 33 7q16 0 46 -24t30 -39q0 -2 -2 -11l-5 -23q-7 -31 -10 -35 q-3 -5 -9 -12q0 -7 -3 -23q-9 -9 -14 -20q-2 -6 -3 -11q-1 -4 -3 -14q-7 -9 -15 -26q-3 -8 -6 -21l-21 -21q-5 -5 -9.5 -11.5t-9.5 -14.5q-6 -7 -12 -15t-14 -17q-9 -5 -24 -18q-5 -7 -8.5 -12.5t-5.5 -9.5q-5 -8 -5 -9q-15 -17 -36 -17q-7 0 -19 3q-6 1 -11 1.5t-8 0.5 q-16 0 -19 24q-1 4 -1 8t-1 9q0 5 -0.5 9t-0.5 9l-6 8q-1 3 -1 17l-6 -1q0 2 -5 10q-5 5 -2 10zM100 136l2 -4v-25q3 -14 18 -14q28 0 37 13q2 4 4.5 8t4.5 9q3 8 8 16l8.5 8.5t9.5 10.5q5 5 11 12.5t14 15.5l6 3l2 10.5t2 12.5q2 6 3.5 13t3.5 15q3 8 8 16q2 4 4 7.5t4 7.5 q12 22 12 29q0 8 -14 25q-13 16 -23 16q-37 0 -46 -19q-2 -4 -2.5 -7t-2.5 -7t-3 -7t-2 -7q-6 -2 -15 -9q-16 -11 -19 -38q-3 -17 -4.5 -27.5t-3.5 -14.5q-2 -2 -3.5 -5l-3.5 -7l-4.5 -6.5l-5.5 -7.5q-7 -7 -10 -43z" />
<glyph unicode="7" horiz-adv-x="384" d="M11 207q0 24 9 38q15 21 18 27q5 15 15 32q2 2 5 5.5t7 7.5l6.5 9t7.5 10q1 2 1.5 5t2.5 7q1 7 6 15q3 2 15 -4l11 -6.5l13 -7.5q13 -8 24 -12q11 -5 12 -1q5 20 8 25q2 3 14 8q11 5 15 11q0 9 9 24q2 4 3.5 -2t2.5 -13.5t1.5 -13t0.5 -2.5q0 22 6.5 27.5t19.5 5.5 q5 0 10.5 9.5t12 19.5t13 16.5t14.5 0.5q7 2 23 -17h4q3 0 9 3q7 2 9 1q7 0 11 -4l5 -1q6 0 15 4q9 3 14 3q18 0 29 -6l3 -5q12 -9 12 -18q0 -17 3 -33l1.5 -12t0.5 -5q0 -9 -14 -21l-14.5 -16.5t-15.5 -18.5l-16 -20.5l-16 -21.5q-7 -9 -15.5 -22.5l-19.5 -32.5 q-10 -5 -11 -24q-1 -12 -2 -19.5t-2 -9.5q-11 -8 -27 -47l-9 -23.5l-8 -20.5t-6.5 -18t-4.5 -15q-5 -14 -12 -30l-6.5 -17.5l-7.5 -19.5v-1q0 -6 -3 -18q-2 -3 -4 -6.5t-4 -8.5q-5 -9 -9 -21q-1 -4 -2 -9t-3 -10q-2 -11 -6 -24q-6 -6 -13 -21h-73q4 8 6 13q2 3 4 6.5t4 7.5 q20 32 24 47q5 20 7 34.5t2 25.5q0 8 -1 11v7q0 5 16 27q11 14 19 33q0 5 1.5 15l3.5 24q6 13 6 24q0 1 2 7t2 8q0 4 12 21q1 2 3 8q1 2 2 4.5t2 5.5l5 5t5 6t5 6t5 6q8 11 8 33q0 7 11 15q10 6 12 10q2 8 12 26q5 7 11.5 13.5t14.5 13.5t16.5 13l18.5 13v4q23 23 22 31 q0 3 -1 4v5q-1 1 -3.5 3t-7.5 7q-9 9 -13 9q-15 0 -29 -11q-19 -15 -25 -17q-2 -1 -4 -1t-4 -1q-5 -2 -12 -3q-1 -2 -3 -3.5t-4 -3.5q-6 -6 -10 -9q-3 -2 -6.5 -4t-8.5 -4t-10 -4.5t-10 -6.5q-8 -6 -31 -36q-4 -7 -19 -4q-11 1 -28 8q-15 6 -27 12q-13 5 -15 4q-1 -2 -2 -6 t-2 -9q-1 -10 -5 -15q-29 -23 -29 -47q0 -4 0.5 -9t1.5 -13t1.5 -13.5t0.5 -9.5v-9q-4 -5 -5.5 -7.5t-2.5 -4.5v-23q0 -23 -19 -23q-1 0 -19 9q-3 4 -3 24q0 9 -3 27q-1 9 -1.5 15.5t-0.5 10.5z" />
<glyph unicode="8" horiz-adv-x="321" d="M21 38q0 -9 30 -24q30 -14 46 -14q56 0 117 55q18 13 26 17q7 12 8 17q4 2 7.5 4t6.5 3q9 11 13 18q4 4 7.5 7t7.5 6q4 5 4 17q0 9 5 24q2 7 3 11.5t1 8.5q0 9 -1 12l-6 4q-5 29 -10 33q21 12 22 13q5 9 7 17q13 7 15 8q9 12 12 18q4 4 7.5 7t7.5 6q4 5 4 16q0 8 5 23 q2 7 3 12t1 9v1q0 8 -1 11l-6 5q-1 5 -1.5 10.5t-2.5 12.5q-3 12 -18 12h-9q-4 0 -11 2q-6 0 -10.5 0.5t-7.5 0.5q-22 0 -35 -10q-5 -5 -10 -9.5t-10 -9.5q-8 -4 -13.5 -6.5t-10.5 -4.5l-25.5 -18.5t-19.5 -15.5l-21 -12q-2 -4 -3 -7.5t-2 -5.5q-5 -5 -9 -9.5t-7 -6.5 q-2 -5 -3 -9t-2 -6q-9 -8 -15 -12q-1 -5 -1 -9q0 -3 -1 -5q-4 -2 -6 -4t-4 -3q-3 -3 -10 -21t-7 -21q1 -13 46 -30q-18 -13 -21 -16q-2 -2 -5 -4t-7 -4t-6.5 -3.5t-3.5 -2.5q-5 -10 -6 -13q-9 -11 -15 -15q-2 -5 -3 -9t-2 -6q-7 -7 -15 -13q-1 -4 -1 -8q0 -3 -1 -5 q-4 -2 -6 -4t-4 -3q-3 -3 -10 -21t-7 -21zM92 67q0 3 25 32q4 8 6.5 15t3.5 12l4 2q13 10 22 16t16 10q8 9 17 17q8 8 32 8q14 0 16 -8v-15l1 2l2 -3q-5 -20 -9 -23q-5 -5 -9 -8t-6 -5q-4 -6 -8 -24q-3 -15 -15 -19q-5 -2 -9.5 -3.5t-6.5 -2.5q-2 -4 -4 -7.5t-4 -7.5 q-9 -10 -41 -10q-7 -1 -21 8q-12 9 -12 14zM154 239l26 32q7 16 9 27l5 2q26 18 38 25q8 9 17 17q8 8 32 8q14 0 16 -8v-14v1l2 -2q-5 -20 -9 -23q-5 -4 -8.5 -7.5l-5.5 -5.5q-3 -3 -6 -21q-2 -12 -15 -18q-1 -1 -3 -2l-6 -3q-8 -5 -9 -6l-9 -15q-9 -10 -41 -10q-8 0 -21 9 q-12 9 -12 14z" />
<glyph unicode="9" horiz-adv-x="271" d="M34 132q0 7 7 34q7 31 10 35q2 2 4 5.5t6 7.5q1 3 1 9q0 8 1 13q6 6 14 20q1 2 1 4q0 3 2 7q0 3 1 6.5t2 7.5q2 2 3.5 5l3.5 7q2 3 4 6.5t4 7.5q1 7 6 21q6 6 10 9l12 12l9 11.5t10 14.5q5 7 11.5 5.5t13.5 6.5q9 4 24 18q2 3 4 1.5t4 -4t3.5 -5t2.5 -0.5l3 6t2 3 q15 17 36 17q5 0 19 -3q6 -1 10.5 -1.5t8.5 -0.5q14 0 19 -24q0 -2 0.5 4t0.5 13v12q0 6 0 4q1 -5 1 -9t1 -9l6 -7q1 -3 1 -18l6 1q0 -2 4 -9q5 -6 3 -11q-2 -11 -18 -54q-4 -11 -7.5 -19l-6.5 -15q-5 -14 -9 -18q-3 -10 -13 -29q-3 -3 -6 -5l-8 -8q-2 -6 -2 -13 q-2 -4 -2.5 -8t-2.5 -9l-3 -3q-1 -7 -3 -14.5l-4 -15.5l-4.5 -17.5t-4.5 -20.5q-5 -8 -10 -20.5t-10 -28.5q0 -8 -4 -20q-2 -7 -5.5 -16.5l-8.5 -23.5q-1 -4 -2 -10.5t-3 -14.5t-3 -14t-2 -10q-7 -10 -16 -37q0 -10 -4 -22q-2 -7 -5.5 -16t-7.5 -23q-2 -4 -3 -9t-3 -11 q-2 -5 -4 -12t-4 -15q-7 4 -13.5 7t-13.5 7l-27 15l4 10l4 10l4.5 11.5t4.5 13.5v12q1 3 1 7t1 9q1 13 15 48q4 8 6.5 15.5t4.5 14.5t3 12t2 9l2 16.5l2 16.5q1 16 3 30q-21 -8 -33 -8q-17 0 -47 24q-29 24 -29 39zM91 162q0 -8 14 -25q13 -16 23 -16q36 0 46 19q1 4 2 7 t3 7t3 7t2 7q2 2 7 4q3 1 9 5q15 11 18 38q2 17 4 27.5t4 14.5q5 11 17 25q6 7 10 44l-2 4v25q-3 14 -18 14q-28 0 -37 -13q-2 -4 -4.5 -8t-4.5 -9l-4 -8l-4 -8q-4 -4 -9 -8.5t-10 -10.5q-5 -5 -11 -12.5l-13 -15.5l-6 -3l-2 -10.5t-3 -12.5q-1 -11 -6 -28l-4 -8l-4 -8 t-4 -7.5t-4 -7.5q-12 -23 -12 -29z" />
<glyph unicode=":" horiz-adv-x="321" d="M29 6q1 16 0 27l4 3q10 14 18 23.5l13 15.5q4 5 7.5 11t7.5 11q7 10 34 21v1q7 3 12 3q18 0 25 -19v2l2 -2q2 -20 -1 -24q-9 -12 -11 -18q-2 -5 1 -23q1 -13 -10 -24q-9 -6 -14 -11q-2 -2 -3.5 -5t-3.5 -5q-7 -7 -43 -21q-2 -1 -6 -1q-15 0 -26 11q-11 10 -6 24zM166 273 q1 16 0 26l5 3q19 27 30 39q4 5 7.5 11t7.5 12q7 10 34 21h1q7 3 13 3q15 0 23 -18v1l3 -1q2 -20 -1 -24q-10 -15 -11 -19q-1 -2 1 -22q1 -13 -10 -24l-8.5 -7t-5.5 -5t-4 -5t-4 -5q-7 -7 -43 -21q-6 -3 -20 2q-12 5 -14 10q-6 16 -4 23z" />
<glyph unicode=";" horiz-adv-x="321" d="M-27 -82l8 -4q18 4 31 17q14 12 20 12q10 2 12 2q14 5 25.5 11.5t21.5 13.5l15.5 19t10.5 15q5 4 8.5 6t5.5 4q11 11 10 24q-1 19 0 23q1 3 11 18q1 4 0 24l-2 2l-1 -1q-8 18 -24 18q-6 0 -12 -3q-27 -11 -34 -22q-4 -5 -8 -11t-7 -11q-12 -19 -16 -29v-19 q-10 -12 -20 -21v-1q-11 -32 -31 -52q-19 -19 -21 -26zM166 275q1 16 0 26l5 3q19 27 30 39q4 5 7.5 11t7.5 12q7 10 34 21h1q7 3 13 3q15 0 23 -18v1l3 -1q2 -20 -1 -24q-10 -15 -11 -19q-1 -2 1 -22q1 -13 -10 -24l-8.5 -7t-5.5 -5t-4 -5t-4 -5q-7 -7 -43 -21q-6 -3 -20 2 q-12 5 -14 10q-6 16 -4 23z" />
<glyph unicode="&#x3c;" horiz-adv-x="479" d="M44 328q18 18 20 19q21 13 54 15q19 1 32 3t20 4l57.5 30t41.5 23l12 1l22.5 10.5t15.5 8.5q28 6 44 6q11 4 20 6.5t14 4.5l42 3.5t30 0.5l3 0.5t10 2.5q9 2 11 0q2 -4 4 -5.5t3 -2.5q-3 -3 -6 -13q-1 -10 -6 -13q-9 -7 -51 -16q-20 -4 -33 -6t-20 -2q-10 0 -31 -6 q-14 -4 -22 -6t-10 -3q-78 -13 -101 -30l-8 -4t-9 -4q-9 -2 -9 -4q0 -3 17 -22q11 -13 39 -19q26 -6 31 -11t8 -8.5t5 -6.5q24 -12 37 -12q15 -8 37 -28q20 -19 35 -27q2 -1 5 -2t8 -2q9 -1 23 -11q13 -7 13 -46q0 -34 -24 -34q-3 0 -11 2q-10 3 -21 8t-22 13l-29 19.5 t-11 7.5q-3 2 -11 5l-21 8q-20 7 -27 14l-14 14q-16 8 -28 13t-21 7l-17 13.5t-12 10.5q-29 9 -45 12q-19 7 -47 26q-13 9 -23 13q-11 5 -16 6q-3 3 -3 7q-2 2 -2.5 4t-1.5 3h-1z" />
<glyph unicode="=" horiz-adv-x="453" d="M15 203q1 -14 11 -33q11 -23 21 -23q13 0 33 17q6 3 9 3q21 2 30 8l1 -3h3q1 -1 3 -1q6 0 13 4q7 3 10 3l2 -4q10 -2 14 -2q10 0 19 9q4 -6 12 -8q7 2 15 2.5t17 -0.5q28 -3 33 -3q6 0 9 1h9q2 0 7 3q4 3 6 3q10 -9 17 -9q2 0 5.5 0.5t8.5 1.5q13 2 15 1q5 0 12 -4t13 -4 v-1q8 0 21 13t13 20q0 4 -16 13q-15 9 -20 9q-3 0 -7 -4q-5 -3 -8 -3q-4 0 -10 8q-6 7 -11 7q-2 0 -9 -5q-4 -4 -9 -4q-2 0 -4 0.5l-6 1.5q-8 2 -10 2h-9q-5 -1 -10 -1q-24 0 -43 -4q-20 -3 -46 -3h-5t-8 2q-5 0 -8 0.5t-5 0.5q-12 -2 -22.5 -4t-19.5 -3l-11 6q-2 0 -9 -5 q-4 -4 -9 -4q-3 0 -8 4t-11 4q-2 1 -13 -1q-10 -2 -11 -2q-2 0 -6 3q-6 2 -7 2zM65 341q1 -14 11 -33q11 -23 21 -23q13 0 33 17q3 3 8 3q21 2 30 8l2 -3h3q1 -1 3 -1q4 0 11 4q7 3 11 3l2 -4q7 -3 15 -3q9 0 18 9q5 -5 12 -7q7 2 15 2.5t17 -0.5q28 -3 33 -3q7 0 10 1h9 q2 0 7 3q4 3 6 3q10 -9 17 -9q2 0 5 0.5t8 1.5q11 2 15 1q2 -1 5 -2t7 -3q7 -4 13 -4q9 0 22 13t13 20q0 4 -16 13q-16 8 -20 8t-8 -3q-5 -3 -8 -3q-4 0 -10 8q-4 7 -10 7q-2 0 -9 -5q-5 -4 -10 -4q-1 0 -9 2t-10 2h-10q-5 -1 -10 -1q-24 0 -43 -4q-20 -3 -46 -3h-5t-8 2 q-5 0 -8 0.5t-5 0.5q-12 -2 -22.5 -4t-19.5 -3l-10 6q-3 0 -10 -5q-4 -4 -9 -4q-3 0 -7 4t-11 4q-3 0 -13 -2t-12 -2t-6 3q-5 3 -7 3z" />
<glyph unicode="&#x3e;" horiz-adv-x="479" d="M-26 131q0 -9 11 -9q7 0 12 2q40 14 69 26t49 22l45.5 15.5l33.5 11.5q18 13 22 14l38 12t27 8q29 14 46 24q34 9 53 12q14 4 30.5 10.5t36.5 15.5q10 5 18 8t15 5q12 4 20 6q12 9 17 14h2q-2 7 -4 11.5t-4 7.5h1q-10 14 -42 16q-38 1 -48 6q-7 4 -14.5 10.5t-17.5 16.5 q-9 10 -16.5 16l-12.5 10l-11 1l-14.5 10.5t-10.5 8.5q-24 6 -38 6q-9 4 -15.5 6.5t-10.5 4.5l-40 3.5t-30 0.5l-2.5 0.5t-7.5 2.5q-7 1 -11 0l-10.5 -6l-3.5 -2q1 -2 -4 -13q-4 -10 -3 -13q7 -9 40 -16q35 -8 48 -8q10 0 27 -6q11 -4 17.5 -6t8.5 -3q14 -3 41 -13 q31 -10 36 -17q4 -6 11 -7q8 -2 8 -3q0 -5 -34 -24q-22 -13 -52 -19q-28 -6 -39 -11q-8 -5 -14.5 -8.5t-11.5 -6.5q-32 -12 -44 -12q-22 -8 -58 -28l-32.5 -17t-22.5 -10l-45 -15q-13 -5 -36 -31q-23 -28 -23 -40z" />
<glyph unicode="?" horiz-adv-x="603" d="M73 640q2 -11 2.5 -28t-1.5 -39q0 -16 8 -29q9 -15 9 -20q0 -43 24 -64q8 -4 13.5 -6t9.5 -4q14 -12 17 -20q7 -12 25 -12q7 0 21 -3q13 -3 22 -3q10 0 18 8q7 4 12 5.5t9 2.5q7 2 18 9t25 20q28 25 28 38q0 5 9 19q8 14 8 24t-4 26q-3 16 -3 26q0 72 -75 71 q-35 0 -47 -20q-10 -15 -18 -23l-1 -6q0 -10 -4 -19q-3 -11 -3 -17q0 -7 8 -18l4 -5q9 -11 9 -25q29 -7 27 -7q11 0 25 10t23 10q17 0 17 -24l-1 -6l-4 -4q-10 -29 -16 -35q-10 -5 -18 -8.5t-15 -5.5q-2 -2 -18 -9q-7 -4 -22 -4q-21 0 -28 3q-10 7 -15 14q-5 4 -18 9 q-13 3 -13 9q-2 2 -4 6t-6 9q-2 6 -2 7q0 15 -6 24q-1 2 2 12v39q0 11 -9 25q-8 14 -8 21q0 10 11 21l4 4q9 9 9 18v5q-1 2 -1 4q0 3 5 11q23 34 26 42q4 20 6 32l6 6t16 13l17.5 13t10.5 7v2q5 1 9 1.5t6 0.5q12 2 19 9t10.5 10t4.5 4q4 3 33 16q27 12 29 12q9 0 17 -5 q23 -10 41 -10q21 0 27 -6l4 -4q2 -2 5 -3l21 -13l21 -13q24 -17 32 -35q2 -10 4 -16.5t3 -11.5q1 -1 3 -4.5t6 -8.5q5 -6 5 -14q0 -13 4 -29t4 -27q0 -10 -3 -29q-3 -20 -3 -29q0 -5 -1.5 -13l-3.5 -19q-5 -25 -5 -33q0 -3 0.5 -7.5t1.5 -11.5t1.5 -11.5t0.5 -8.5 q0 -11 -9 -20q-2 -6 -2 -12q0 -7 -5 -12q-8 -7 -10 -19q-1 -5 -1 -11v-11q-6 -18 -12 -21l-19.5 -40t-13.5 -28q-14 -14 -15 -21q-2 -9 -3 -14t-2 -7q-7 -15 -30 -50q-25 -37 -33 -44q-7 -5 -14 -9l-15 -9q-20 -12 -18 -23l1 -13l15 -4q18 10 35 36q14 11 20 11q22 12 42 37 q4 9 6.5 15.5l4.5 11.5q25 34 41 47q6 14 10 25t6 19q9 9 15 12q2 2 22 43q19 39 19 43q0 3 -0.5 8.5t-1.5 13.5q-2 15 3 20l5 5t5 6q1 1 9 23q7 18 7 22q0 11 5 28t5 23t-3 18q-1 5 -1.5 9.5t-0.5 6.5v4q0 4 2 11q1 10 0 23l-4 7v3q-2 6 0 12q10 36 10 46q-11 16 -18 28 t-11 20l-4 4q-6 8 -7 16q-6 31 -23 41q-16 10 -22 23q-7 14 -26 19q-8 2 -17 3t-17 3q-1 1 -3 2l-6 3q-5 4 -12 4q-2 0 -5 -0.5t-7 -0.5q-5 -2 -12 -2t-18 4q-11 3 -17 3q-13 -4 -22.5 -6.5t-14.5 -4.5q-11 -1 -22 -1.5t-22 -2.5q-22 -3 -38 -22q-16 -17 -30 -22t-17 -8 q-3 -4 -6 -7.5t-7 -7.5q-5 -6 -23 -16q-17 -8 -23 -17q-7 -11 -11.5 -20t-8.5 -14t-7.5 -10.5t-8.5 -10.5q-9 -11 -9 -21q0 -22 -10 -32t-10 -20zM173 -10q-3 -8 4 -25q6 -17 33 -17q6 0 8 1q49 28 57 39l4 2q2 1 4 3q14 12 12 26q-2 21 -1 22l6.5 13t4.5 7q4 4 1 28l-4 2 q-9 19 -27 19q-7 0 -14 -3q-26 -11 -38 -24q-13 -19 -20 -31l-16.5 -18.5t-8.5 -11.5l-4 -3q-3 -17 -1 -29z" />
<glyph unicode="@" horiz-adv-x="566" d="M24 184q0 -9 4 -21q4 -13 3 -19q-10 -43 9 -67l9.5 -9.5t8.5 -6.5q10 -15 12 -23q4 -15 21 -18q14 -5 23.5 -9l16.5 -7q10 -3 20 3q13 4 23 2q14 1 46 18q35 18 38 30q2 6 8 12l4 4q14 14 15 22q6 34 6 52q3 10 3 22q0 50 -60 65q-33 8 -49 -7l-12.5 -10.5t-10.5 -7.5 l-2 -6l-7 -14.5l-5 -10.5q-4 -7 -4 -14q0 -6 7 -20q6 -14 3 -26q8 -3 12 -7q8 -7 19 -7q7 0 18 4q5 2 9.5 3t6.5 2q12 1 18 -6q5 -8 2 -22l-1 -5l-5 -3q-19 -28 -24 -31q-20 -4 -35 -6q-7 -1 -12 -2t-9 -2q-23 -6 -48 12q-4 5 -6.5 9t-3.5 7q-5 8 -17 14q-13 6 -14 10 q3 7 -2 19q-2 3 0 6q3 16 -1 27q2 4 3.5 6.5t2.5 4.5q3 13 5 22.5t4 15.5q2 11 -2 23t-4 19q0 13 16 23l5 3q12 8 15 25q2 4 3.5 6.5t2.5 3.5q29 25 36 34l8.5 17t5.5 12q3 3 27 13q23 11 31 13v2h8q3 -1 7 -1q10 -2 21 3q5 2 9 5t9 5q3 1 12 3t23 4q30 6 31 5q9 -1 17 -8 q19 -16 37 -20q17 -4 24 -13l3 -4q5 -9 33 -35q24 -22 28 -47q1 -19 0 -29l1 -3.5t4 -10.5q3 -10 2 -15q-2 -15 -3 -26t-1 -18q-6 -23 -11.5 -39t-10.5 -27q-7 -21 -13.5 -36.5t-11.5 -25.5q-5 -27 -6 -37q-1 -11 -14 -19l-2 -4t-2 -6q-1 -6 -9 -11q-10 -6 -13 -17l-6 -21 q-10 -15 -17 -17l-29 -33.5l-20 -24.5l-6 -3q-18 -21 -23 -34q-9 -12 -41 -41q-33 -30 -43 -34q-8 -2 -15.5 -4.5t-15.5 -5.5q-21 -8 -23 -19l-4 -12l14 -8q34 16 42 27q17 8 23 6q27 6 49 25l12 13.5t7 10.5q31 27 51 36q10 13 16 22.5t10 16.5q5 2 9 4l6 3l11 11t23 26 t21 26.5t8 11.5q1 7 1.5 11.5t0.5 8.5q1 14 8 19q7 4 10 6l3 2l13.5 21l12.5 19q2 8 4.5 14.5t6.5 12.5q5 10 8.5 19.5t3.5 19.5q0 7 2 15q8 28 12 38l-3 7l1 3q0 7 3 12q19 34 20 42q-2 4 -4 10.5t-4 16.5q-3 18 -8 27l-3 5q-2 4 -2 16q1 30 -13 46q-11 11 -16 26 q-4 14 -16 23q-2 2 -8.5 4.5t-16.5 7.5q-11 4 -18 12q-7 6 -17 8q-5 1 -9.5 1.5t-9.5 1.5q-2 1 -7 2.5t-14 6.5q-15 6 -25 5q-19 -3 -24 -2l-35 6t-13 2q-20 0 -39 -13q-18 -12 -33 -14q-14 -2 -19 -4q-7 -6 -16 -11q-8 -5 -25 -9q-18 -5 -27 -12l-28 -28l-10 -8l-11 -9 q-11 -7 -14 -18q-6 -23 -19 -30q-9 -6 -28 -80q-2 -8 -2 -13z" />
<glyph unicode="A" horiz-adv-x="582" d="M-432 -72q-9 -34 78 -34q29 0 49 5q43 19 67 33q19 1 30 3q2 1 7.5 3.5t13.5 7.5q16 9 23 9q2 0 5 -1h4q22 10 39 19t31 19q10 2 17.5 4t12.5 3q5 4 21.5 15l35 23.5l33.5 23t17 12.5q21 11 36.5 18t26.5 11q10 8 17 15t11 12q20 11 34.5 18t25.5 11l24.5 19.5t17.5 15.5 l129 93q8 7 13 12.5t9 9.5q38 -5 50 -15q3 -4 6 -7q2 -2 17 -3q8 -1 15 -1t12 -1l-21 -63q-11 -19 -20.5 -33t-17.5 -24q-20 -38 -33 -67t-20 -49q-7 -14 -12.5 -23.5l-9.5 -16.5q-2 -8 0 -18l1.5 -12t0.5 -6h14h3l6 8l42 24l14 8q17 10 26 22.5t13 25.5l6.5 16t3.5 8 q7 15 42 145q-2 5 4 30q11 45 58 120l17 27t8 15l13.5 32.5l9.5 22.5q1 4 12 18q7 10 10 19q2 8 3 14t2 10q5 14 22 40q19 28 20 39q3 10 3 16q13 16 21 24l24.5 51.5t15.5 37.5q5 8 9.5 14.5t8.5 10.5q10 23 16 40.5t10 30.5q-5 4 -9.5 7l-7.5 5l-22 -9t-18 -8 q-5 -8 -7 -10q-1 -3 -30 -26l-21.5 -16.5t-9.5 -6.5h-3q-14 -31 -18 -49q-4 -9 -13 -21q-8 -12 -13 -29q-10 -40 -15 -46q-23 -24 -38 -35l-21 -30t-14 -22q-15 -18 -27 -28l-5 -11.5t-4 -8.5l-28.5 -31t-21.5 -21l-19 -28.5l-13 -20.5q-23 -20 -36 -27q-8 -8 -13 -14 t-9 -10q-9 1 -15 2t-9 2q-26 12 -36 21q-24 1 -36 0q-10 4 -17 7.5t-12 5.5q-5 1 -13 0.5t-19 -2.5q-21 -5 -32 -3q-20 7 -30 12q-8 1 -21 -3q-17 -5 -21 -6q-8 -1 -16 -0.5t-16 1.5q-11 2 -18 2h-10q-20 0 -42 -9q-73 -30 -73 -89q0 -15 6 -31q9 -22 37 -26q14 -2 17.5 2 t5.5 -1q3 -2 17 -10.5t31 -8.5l-2 3l9 4q6 15 17 21q18 7 23 12q4 3 9 18q4 12 16 24l-1 3l6 3l2 1q6 4 23 2q16 -2 22 1q22 13 31 19q4 1 7 1.5t7 0.5q8 0 19 -4t19 -4q5 0 9 1t9 3q22 9 29 9q6 0 17 -11t17 -11l-1 -3l-43.5 -33t-32.5 -22q-2 -2 -14 -12l-35 -30 q-15 -13 -28 -23t-24 -16q-19 -9 -28 -12q-30 -23 -45 -36q-33 -16 -49 -20q-4 -3 -20.5 -13l-34.5 -21l-33 -21t-17 -11q-32 -9 -48 -12q-12 -6 -21 -11t-15 -9q-30 -10 -96 -10q-49 0 -70 6q-32 9 -29 9q-7 0 -9 -1q-10 -1 -23 -16q-9 -11 -14 -16l-6 -6t-7 -5t-19 -12 q-18 -11 -21 -20zM425 339q20 13 32 18q6 5 33 35q23 26 31 30q15 4 22 4q14 -20 14 -22q0 -6 -1 -9q-29 -62 -48 -90l-3 -3q-5 2 -14 7l-23 13q-20 12 -43 17z" />
<glyph unicode="B" horiz-adv-x="1112" d="M-257 279q1 9 6 27q-3 7 -3 28q4 6 12 21q1 2 1 5t1 7q1 7 3 12v6q9 16 24 48q1 11 9 31q7 7 19 22q2 2 3.5 5.5l3.5 8.5t4 9.5t4 9.5t4 9t4 9l3.5 8.5t3.5 5.5q7 6 19 19q1 4 3 8t4 9t5 10.5l7 12.5q5 5 13 16q9 20 24 50q5 5 14 12l21 17q2 4 5.5 8l7.5 9q7 10 18 24 q2 2 5 5.5l7 8.5q7 10 13 14l5 8q8 2 17.5 4l19.5 4q21 5 31 15q26 3 74 15q2 1 10 9q7 7 13 7h5q2 -1 5 -1q2 0 10 3q6 1 15 6q4 2 8 3t9 3q10 2 15 2q4 0 8.5 -0.5t11.5 -0.5q7 -2 11 -2h8q5 0 11 0.5t14 1.5q15 2 34 6q39 9 57 9q8 0 22 -3q7 -1 12 -1.5t9 -0.5q6 0 19 5 q5 2 9.5 3t7.5 1q-1 0 41 -9q10 -5 24 -5h16q9 0 18 2q9 0 18 1t19 1q9 1 17 1.5t16 -0.5q5 0 6 -1q27 1 52 -7q22 -8 45 -18q11 -5 21 -11t21 -11q21 -11 45 -15q7 -5 18 -12q12 -8 25 -15l49.5 -23.5t40.5 -20.5q18 -9 31.5 -17t23.5 -15q79 -56 89 -129q1 -7 1.5 -12 t0.5 -10q1 -8 0 -12q-1 -11 -13 -23q-17 -17 -18 -20q-4 -8 -23 -35q-5 -7 -14 -13.5l-20 -14.5l-24.5 -15t-30.5 -16l-16 -6l-16 -6t-15.5 -6.5t-15.5 -6.5q-44 -18 -54 -34q-3 -12 -12 -36l21 -13l21 -13t21.5 -13t21.5 -13q46 -34 46 -81v-10q-1 -2 -1 -5q0 -2 -1 -4 q-12 -68 -86 -104q-47 -23 -141 -60q-8 -2 -18 -3q-5 -1 -10 -1t-10 -1h-23q-12 0 -14 -1t-5 -1.5t-7 -2.5q-4 -1 -8.5 -3t-9.5 -4q-17 -6 -32 -6q-11 0 -32 3q-10 1 -18 1.5t-13 0.5q-11 0 -30 -3q-10 -1 -18 -1.5t-14 -0.5q-7 0 -18 1.5t-27 6.5q-7 2 -13.5 3.5t-12.5 3.5 q-5 1 -10 1.5t-9 1.5q-5 -1 -12 -1h-15q-8 1 -17 1t-20 2q-4 0 -18 7q-11 6 -22 6h-7q-4 0 -9 -1t-10 -1h-7q-10 0 -18 5q-11 4 -15 6l-14.5 2t-16.5 2t-19.5 2t-22.5 2q0 3 -8 9q1 1 1 3t2 4q0 4 5 12q7 2 14 6q4 2 7.5 3.5t7.5 3.5l4.5 4.5t6.5 4.5t8 4.5l9 5.5q24 8 43 8 q23 0 81 -14t81 -14q31 0 69 9q46 11 65 26q2 2 4.5 5.5t6.5 7.5l6.5 9t7.5 10q3 3 6 4q2 1 3.5 2t3.5 3q15 12 25 27q11 24 28 45q18 21 24 47q2 9 -10 14q-16 6 -19 9q-2 2 0 8q1 2 -1 7l30 18t33 23q3 3 17 50q5 14 8 29t7 29t7 29t8 29q26 81 59 98q6 0 17 6q12 5 23 12 q6 5 28 9q7 -21 6 -30q-8 -14 -15 -30q-4 -8 -8 -17.5l-9 -20.5q-1 -7 -3 -16.5t-4 -20.5l-4.5 -24t-6.5 -27q-2 -4 -3.5 -9t-3.5 -11t-3.5 -13.5t-3.5 -15.5l-1 -10q16 -2 22 -3q4 -1 6 -1h4q9 0 23 8q5 4 9.5 6t7.5 4l6 3q33 17 53.5 25t26.5 13q16 12 26.5 30t14.5 44 q2 16 4 39t5 54q-4 6 -9 10q-6 5 -22 7q-17 1 -22 7q-2 2 -5.5 6.5t-8.5 9.5l-9 4.5t-10 5.5t-11.5 6.5l-13.5 7.5q-2 3 -8 9q-2 2 -5 4.5t-7 6.5q-4 1 -8 3t-9 4t-10.5 5l-12.5 7q-5 9 -20 23q-8 3 -28 3q-14 0 -24 7q-14 9 -19 11q1 -1 -16 -1q-8 0 -42 25q-37 27 -50 31 q-37 -1 -73 8q-35 9 -70 9q-1 0 -27 8q-8 4 -63 4h-20t-20 -1t-20 -1.5t-20 -1.5q-4 -1 -8.5 -2t-9.5 -2t-11.5 -2l-13.5 -2q-8 0 -21 3q-7 1 -12 1.5t-9 0.5q-11 0 -24 -7q-14 -8 -19 -9t-11 -1.5t-13 -0.5q-7 -2 -15 -2.5t-18 -2.5q-1 -1 -5 -1q-4 -2 -7 -3l-1 -8 q-1 1 -28 1q-4 0 -16 -5q-5 -2 -9 -4t-7 -3q-4 0 -8.5 -0.5t-9.5 -0.5q-5 -2 -12 -3.5t-15 -4.5h-1l-8 -16q-23 -18 -66 -71q-3 -14 -13 -34l-10.5 -15l-12.5 -18l-13.5 -21.5l-15.5 -24.5q-1 -1 -1 -5t-1 -7q-8 -11 -15 -24q-4 -7 -8 -15t-9 -17l-2 -8q-2 -7 -3 -16 l-12 -33l-6.5 -22l-7.5 -26q-3 -10 -3.5 -24.5t0.5 -33.5q1 -37 6 -55l2 -4t3 -4q3 -5 3 -8q-2 -18 1 -41q2 -6 16 -18l12.5 -11t6.5 -5v-8q-2 -8 -27 -18q-28 -11 -36 -11q-9 0 -18 3l-6 8q-4 0 -5 -1h-4q-4 0 -19 21l-7 9t-5 8q-2 3 -3 5t-2 3q0 3 2 9q1 15 3 23q1 4 1 2 q2 11 -5 20q-6 8 -4 21zM536 39q1 -1 5 -3q3 -3 5 -4t8 -1t14 -1t20 -1.5t27 -0.5q12 0 30 -5q8 -5 15 -5q3 -2 5 -2q3 0 5 -1q16 -3 53 -3q82 0 116 19q9 4 17 19q4 8 8 14q2 3 6 7l6 3q1 1 3 1.5t4 2.5q10 12 13 34q4 31 -3 50q-6 15 -32 33q-11 8 -20 13t-20 13 q-3 2 -6 5t-6 5t-6 5t-6 5q-15 12 -28 12h-2l-1 -1q-29 -17 -46 -40l-16 -23l-16 -23q-5 -5 -13.5 -12.5t-21.5 -17.5q-5 -3 -9.5 -6t-9.5 -6t-9.5 -6t-9.5 -7q-13 -15 -43 -40q-2 -1 -5 -1.5t-7 -2.5q-4 -1 -8 -3t-9 -4q-1 -3 -3 -11q-1 -2 -2 -5t-2 -5z" />
<glyph unicode="C" horiz-adv-x="849" d="M6 125q-1 19 3 43q12 73 37 119q2 4 5.5 8l7.5 9q7 8 15 23q1 13 9 37q2 2 5 4.5t7 5.5l14 14q1 4 5 14q2 4 3.5 7.5t3.5 7.5q5 2 14 8q7 13 21 33l14.5 20.5l16.5 23.5q2 1 8 7q2 3 10 9l4.5 9t6.5 12q4 6 8 13t9 15l4 4t6 4q3 2 6 4.5t7 4.5t7 4.5t7 4.5t6 3.5t4 3.5 q4 4 8 9l9 11l11 13l13 15q4 2 8 4.5t9 6.5l11 6.5l13 7.5q7 7 16 15l20 17l50 41l9 3q3 1 13 5q2 3 15 16l14.5 8l17.5 9t20.5 11l23.5 13q5 5 19 16q22 12 60 21l60 15l36 12q11 3 23.5 6t26.5 7q4 1 9 1h11q5 1 12 1h16q48 0 56 -6q5 -3 5 -11q2 -4 2.5 -6t1.5 -4 q-58 -34 -93 -34q-9 0 -28 3q-18 3 -28 3q-79 0 -136 -25q-16 -6 -35 -21l-22 -16t-12 -8q-5 -2 -12 -5.5l-15 -7.5q-17 -8 -36 -18q-1 -3 -6 -8l-9 -9l-8 -1q-2 -2 -5 -5.5t-7 -7.5t-8 -8.5t-9 -9.5q-26 -17 -72 -57q-8 -13 -36 -46q-3 -1 -9 -5q-5 -2 -9 -6q-2 -2 -2 -7 q-2 -2 -2.5 -4.5t-2.5 -4.5t-5.5 -4.5l-7.5 -5.5q-8 -6 -15 -15q-1 -1 -2.5 -4.5t-5.5 -10.5q-11 -9 -29 -29l-5 -12.5t-8 -15.5q-3 -2 -6.5 -5.5l-8.5 -8.5q-4 -5 -8 -13t-8 -19l-12 -36q-7 -10 -21 -47q-1 -2 -1 -6q0 -3 -1 -8q-1 -4 -1.5 -9t-1.5 -10q-4 -13 -9 -35 q-2 -11 -5 -23t-6 -26t-3.5 -24.5t0.5 -17.5q1 -5 6 -12q4 -10 3 -14q-1 -1 -1 -2t-1 -3t-1 -4q0 -1 -1 -3q-1 -4 4 -11t5 -8q1 -5 1.5 -10.5t2.5 -12.5q1 -13 6 -31q5 -12 24 -31q18 -19 28 -22q2 -1 15 -1h6q6 0 11 1h17q15 0 26 -0.5t18 -0.5q7 -1 9 -1q3 0 1 0 q59 0 95 15q2 2 5.5 4.5t7.5 4.5l9 4.5t10 6.5q28 8 79 33q12 12 38 32q14 6 40 20q19 21 63 57q2 1 3 1q2 0 4 1l9 3q1 3 7 9q3 2 9 10q5 2 13.5 7t19.5 13q2 4 5.5 9l7.5 11q4 5 8 11.5t10 14.5q33 40 62 40q14 0 21 -10q7 -9 5 -24q-3 -17 -19 -35q-15 -17 -15 -18 q0 2 -2 2q-4 0 -30 -17t-32 -17h-1q-21 0 -43 -21q-5 -4 -9.5 -8t-9.5 -9t-9.5 -9t-9.5 -8q-5 -2 -12.5 -6t-15.5 -9t-18.5 -10t-21.5 -12l-13 -13q-4 -4 -9 -7.5t-10 -8.5q-9 -2 -19 -6l-11.5 -4.5t-13.5 -6.5q-15 -13 -37 -27q-5 -2 -11 -5t-13 -6q-16 -7 -30 -11l-23 -7 l-17 -5l-15 -5q-5 -2 -48 -24q-23 -12 -53 -12q-15 0 -27 -6q-9 -5 -19 -7q-6 -2 -15 -2q-5 -1 -10.5 -1.5t-12.5 -0.5q-62 -3 -82 11q-2 3 -4.5 6t-5.5 6l-14.5 12.5l-11.5 9.5l-7.5 6t-3.5 3q-12 14 -19 46q2 14 0 40q-1 4 -5 9.5l-10 13.5q-11 13 -13 27z" />
<glyph unicode="D" horiz-adv-x="1411" d="M-91 222q1 9 6 27q-3 7 -3 28q4 6 12 21q1 2 1 5t1 7q1 7 3 12v6q9 16 24 48q1 11 9 31q7 7 19 22q2 2 3.5 5.5l3.5 8.5t4 9.5t4 9.5t4 9t4 9l3.5 8.5t3.5 5.5q7 6 19 19q1 4 3 8t4 9t5 10.5l7 12.5q5 5 13 16q9 20 24 50q5 5 14 12l21 17q2 4 5.5 8l7.5 9q7 10 18 24 q2 2 5 5.5l7 8.5q7 10 13 14l5 8q8 2 17.5 4l19.5 4q21 5 31 15q26 3 74 15q2 1 10 9q7 7 13 7h5q2 -1 5 -1q2 0 10 3q6 1 15 6q4 2 8 3t9 3q10 2 15 2q4 0 8.5 -0.5t11.5 -0.5q7 -2 11 -2h8q5 0 11 0.5t14 1.5q15 2 34 6q39 9 57 9q8 0 22 -3q7 -1 12 -1.5t9 -0.5q6 0 19 5 q5 2 9.5 3t7.5 1q-1 0 41 -9q5 -2 31 -1.5t72 1.5q64 1 109 -18l6 -8q12 0 44 -8q3 -3 4 -5q3 -3 5 -6q3 -1 6.5 -2t8.5 -3q8 -1 22 -6l5 -5q2 -1 3.5 -2t3.5 -3q15 -1 44 -9q3 -3 20 -15q14 -5 32 -13q20 -8 41 -21q3 -5 9 -12l14 -14q6 -2 10 -3q2 -1 5.5 -2t7.5 -2 q2 -3 5.5 -6.5l8.5 -8.5l19 -19q3 -1 6.5 -3t8.5 -4q4 -2 9 -5t10 -7l1.5 -2.5t5.5 -7.5q3 -5 8 -11.5t12 -16.5l6.5 -4.5l7.5 -5.5q7 -6 16 -16q2 -6 3 -19q10 -8 27 -27q1 -2 1 -5t1 -7t3 -14q7 -4 16 -18v-9q0 -4 1 -9q1 -11 3 -24q7 -6 16 -19q15 -39 5 -95 q-12 -66 -101 -135q-11 -11 -33 -30q-20 -8 -57 -27q-2 -2 -6.5 -5.5l-10.5 -8.5l-11 -4.5l-13 -5.5q-7 -2 -15 -5.5t-18 -7.5q-10 -8 -22 -15q-5 -1 -10.5 -2t-12.5 -3q-14 -2 -33 -6q-2 -1 -5 -2t-7 -3q-6 -3 -15 -6h-30q-9 0 -17 -5q-8 -4 -10 -4q-2 -2 -3 -2t-2 -1 q-14 -5 -28 -6q-8 -1 -16 -1.5t-18 0.5h-7t-9 2q-5 0 -10.5 1t-10.5 2l-10 2t-10 1q-5 1 -9 1.5t-7 0.5q-8 0 -23 -4q-13 -4 -24 -4q-13 0 -33 5l-6 8q-5 2 -58 0q-23 0 -51 12q-9 4 -16.5 6.5l-13.5 4.5q-13 5 -19 6l-28 4l-28 4l-27.5 4l-27.5 4q-68 11 -101 34q0 6 1 8 q1 4 32 24q32 20 43 20q6 0 18 -5l8.5 -3.5t5.5 -2.5l99 -15q4 -2 8 -2q2 -2 5 -2.5t7 -2.5q13 -5 23 -5q13 0 34 2.5t50 8.5q56 12 80 24q2 2 5 4.5t7 5.5q3 2 7 5l9 7q2 1 8 3q2 1 4.5 2t6.5 3q9 5 25 26l19 24t24 33l5 5t6 7q2 4 5.5 8l7.5 9q2 5 4 11.5t5 14.5 q2 8 5.5 16.5l7.5 18.5q5 5 11 14q2 5 5 10l6 10q1 2 0.5 5t-0.5 7q-2 4 -2 6v5q3 3 8 11q4 6 9 15q2 4 5.5 21l9.5 48q1 4 2 9t3 11t4 13t4 15q5 11 41 35q37 25 48 25q3 -1 10 -1q3 -1 13 -3q-7 -40 -18.5 -79.5t-28.5 -78.5q-2 -4 -5.5 -9.5t-7.5 -12.5t-9 -14.5 l-10 -15.5q-1 -1 -1 -6t-1 -8q-4 -6 -7 -9q-5 -5 -9 -12q-2 -4 -4.5 -9.5l-5.5 -12.5l-6.5 -14.5l-7.5 -15.5q-80 -125 -253 -200q1 -3 1 -10q-1 -2 -1 -6q0 -3 -1 -7l21 -6l14.5 -4l15.5 -4h11t14 -1q13 -1 35 -3q7 -2 13 -6q4 -2 8.5 -3.5t9.5 -3.5q5 -1 18 -1q5 -1 11 -1 h13q15 0 44 3q14 2 31.5 4t38.5 4q5 1 12 1q8 0 17 2q8 0 18.5 1t21.5 3q33 9 78 38l12 12q3 3 7 6.5t9 7.5q4 1 12 6q4 2 8 4.5t9 4.5l11 10.5t11 13.5q5 7 10.5 15.5t10.5 18.5q22 43 26 69q3 16 0 25q-5 15 -5 18v6q1 2 1 6q0 5 1 10q2 14 -3 19l2 8q1 2 2 5t3 7 q3 7 6 16q3 19 -20 38l-34 28l-2 6l-3 9q-2 2 -5 4.5t-7 5.5q-3 3 -6.5 7l-7.5 9q0 8 -3 23q-5 8 -19 15q-8 4 -12.5 7.5t-6.5 5.5q-1 2 -5 8q-1 4 -6 10q-2 1 -5.5 3t-7.5 4t-8.5 4.5t-9.5 6.5q-2 6 -9 15q-1 1 -6 1q-2 1 -8 3q-2 4 -5.5 8t-8.5 9q-9 10 -21 20 q-7 4 -16.5 6.5t-22.5 4.5q-26 4 -37 9l-51 30q-14 3 -44 12q-3 4 -13 10q-39 19 -78 27q1 -1 -22 -1q-17 0 -44 10t-47 10q-9 0 -25 -3q-8 -1 -13.5 -1.5t-9.5 -0.5q-1 0 -27 8q-8 4 -63 4h-20t-20 -1t-20 -1.5t-20 -1.5q-4 -1 -8.5 -2t-9.5 -2t-11.5 -2l-13.5 -2 q-8 0 -21 3q-7 1 -12 1.5t-9 0.5q-11 0 -24 -7q-14 -8 -19 -9t-11 -1.5t-13 -0.5q-7 -2 -15 -2.5t-18 -2.5q-1 -1 -5 -1q-4 -2 -7 -3l-1 -8q-1 1 -28 1q-4 0 -16 -5q-5 -2 -9 -4t-7 -3q-4 0 -8.5 -0.5t-9.5 -0.5q-5 -2 -12 -3.5t-15 -4.5h-1l-8 -16q-23 -18 -66 -71 q-3 -14 -13 -34l-10.5 -15l-12.5 -18l-13.5 -21.5l-15.5 -24.5q-1 -1 -1 -5t-1 -7q-8 -11 -15 -24q-4 -7 -8 -15t-9 -17l-2 -8q-2 -7 -3 -16l-12 -33l-6.5 -22l-7.5 -26q-3 -10 -3.5 -24.5t0.5 -33.5q1 -37 6 -55l2 -4t3 -4q3 -5 3 -8q-2 -18 1 -41q2 -6 16 -18l12.5 -11 t6.5 -5v-8q-2 -8 -27 -18q-28 -11 -36 -11q-9 0 -18 3l-6 8q-4 0 -5 -1h-4q-4 0 -19 21l-7 9t-5 8q-2 3 -3 5t-2 3q0 3 2 9q1 15 3 23q1 4 1 2q2 11 -5 20q-6 8 -4 21z" />
<glyph unicode="E" horiz-adv-x="1145" d="M48 150q0 -12 4 -24q5 -17 7 -26q1 -11 1 -19v-12l5 -5q0 -9 -0.5 -15.5t-1.5 -11.5q3 -24 22 -46q10 -8 19 -17l18 -18q13 -17 18 -27q10 -7 16 -9q5 -8 9 -13t6 -9q34 -24 56 -24q12 0 14 -2q6 -6 9 -7q10 -4 37 -6t34 -4q16 -6 35 -6q-2 0 26.5 2.5l86.5 7.5 q20 2 35 2.5t25 1.5q18 6 29 11q34 9 59 15l42 10l5 2.5t8 4.5q12 5 13 5q15 0 20 3l10.5 6t5.5 3l24 6l35 14.5t25 11.5l5 13h-14q-6 0 -12 -6q-6 -5 -9 -6q-15 -3 -22 -3q-23 -11 -33 -18q-1 -1 -3 -1q-13 0 -43 -11q-27 -10 -43 -10h-27q-10 -3 -17 -6l-12 -5 q-15 -4 -43 -4q-6 0 -15 0.5t-22 1.5q-12 1 -21 1.5t-16 0.5h-12q-6 0 -14 -1t-14 -1h-9q-30 -1 -112 28q-16 4 -26 6q-16 13 -26.5 23.5t-17.5 18.5q-5 2 -8.5 4t-5.5 3q-4 7 -6.5 12l-4.5 9l-14.5 14t-11.5 10q-23 40 -26 121q0 8 -4 23t-4 25q0 20 5 42q9 29 16 36 q1 6 1.5 10.5t0.5 7.5q18 43 72 114l21 21l27.5 36.5l19.5 26.5q11 9 18 13q9 11 13 18l37.5 29.5t28.5 20.5q6 6 10 12q18 9 27 12q17 11 28.5 19.5l19.5 14.5l27 11.5l19 7.5q12 9 17 14q31 12 48 15q2 1 4.5 2.5t7.5 5.5q7 5 14 5q25 0 21 -1q21 8 27 13q39 11 104 11h42 q3 1 13 6q10 4 16 4l6.5 -0.5t20.5 -0.5q10 0 20 5q8 5 12 7l6 3q18 4 29 6q1 1 1 2t2 3q0 2 0.5 2.5t0.5 1.5q2 11 -24 11q-9 0 -28 -3q-9 -1 -15.5 -1.5t-11.5 -0.5h-42q-5 -1 -20 -6q-12 -4 -25 -4q-21 0 -54 12q-37 14 -41 28q-3 9 -1 22q5 24 26 51q11 14 21.5 25 t21.5 17q5 3 9 4.5t7 2.5q5 1 27 20q8 7 15.5 11t14.5 6q31 10 73 9h13q10 0 24 -1q11 -1 20 -1h17q6 -6 8 -7q-6 -20 -6 -23q-5 -8 2 -13q0 1 -1 -1h1q7 0 9 1h1q1 1 0 1q25 29 42 38q18 9 27 12l-1 16l-48 15q-12 2 -26 3t-31 1q-14 0 -29 -1t-31 -3q-41 -5 -85 -32 q-7 -7 -12 -11.5t-9 -8.5q-8 -3 -14 -5t-11 -4q-27 -21 -39 -33q-5 -2 -9.5 -3t-7.5 -2l-19 -17.5l-13 -12.5q-41 -28 -45 -34q-4 -7 -6 -12t-4 -9l-6 -8t-7 -8q-5 -6 -8 -21q-3 -23 10 -35q14 -13 13 -16l-3 -6l-1 -2v-3q-18 -7 -31.5 -11.5t-23.5 -8.5q-20 -11 -27 -18 q-8 -2 -13.5 -4t-9.5 -3q-26 -18 -35 -27q-13 -5 -22 -9t-16 -6q-8 -7 -14.5 -11.5t-10.5 -8.5l-29.5 -18.5l-20.5 -12.5q-14 -11 -24 -20t-17 -16q-4 -2 -7 -4t-5 -3q-2 -4 -3 -6.5t-2 -4.5q-14 -12 -26 -20l-20 -13l-7 -12.5t-5 -9.5l-21 -25t-16 -18q-13 -14 -17 -23 q-10 -8 -17 -12q-15 -23 -21 -36q-23 -24 -38 -36q-16 -20 -28 -54l-21 -57q-5 -14 -9.5 -24t-6.5 -16q-1 -5 -1 -13zM908 13h12q4 -2 11 5l10 10q67 47 83 66q22 32 30 46q7 8 12.5 13.5l9.5 9.5q23 33 30 76q3 16 0 27q-2 4 -4 6l-4 4q-2 5 -3.5 10.5t-3.5 10.5 q-3 11 -14 11q-8 0 -9 -6l1.5 -5t3.5 -15q3 -11 4 -21.5t1 -19.5q0 -23 -7 -38q-9 -13 -16 -19l-14.5 -25t-10.5 -19q-7 -8 -12.5 -13t-9.5 -9q-5 -10 -6 -13q-8 -8 -15.5 -13.5t-12.5 -9.5q-7 -8 -11.5 -15l-7.5 -12q-29 -29 -45 -27l-1 -5q-1 -4 -1 -9v-1z" />
<glyph unicode="F" horiz-adv-x="1294" d="M2 -16q7 -16 13 -23q4 -14 6 -23.5t4 -16.5q19 -24 31 -34l3.5 -4.5t11.5 -12.5q9 -11 18 -15t20.5 -7t25.5 -5q13 -2 25 -2.5t24 -2.5q3 -1 9 -2.5t16 -3.5q15 -4 27 -4h9q26 7 42 14q5 2 31 3q19 1 31 6q5 3 8.5 5.5t5.5 4.5q25 8 43 13t31 7q9 5 15.5 9t10.5 8 q10 2 17.5 4t12.5 3l43 22.5t29 17.5q9 4 16 6t12 4q4 4 7 7.5t5 5.5q27 16 41 20q55 46 79 73l18 14l13 10q2 2 4 5.5l5 8.5q4 10 9 15l7 3l6.5 16.5l4.5 11.5l18 24.5l13 17.5q5 11 7.5 20t4.5 14l12 13.5t9 9.5q5 12 8 21l5 15l19 37.5t13 26.5q1 3 2 7.5t2 9.5t2 9.5 t2 6.5q0 1 20 36q13 22 15 36q3 23 7 27l3 1q4 3 7.5 6t7.5 5q7 5 22 5q3 0 7.5 -0.5t10.5 -0.5q6 -2 10 -2h9q61 0 132 27v13q-72 -9 -120 -9q-62 0 -65 16q-3 9 0 23l14.5 40.5t11.5 28.5l31.5 80.5t15.5 35.5l33 48.5t25 34.5q2 2 7.5 11l13.5 23q13 21 23 31 q18 18 54 33l37.5 16t19.5 10l2 10q-21 10 -25 10q-5 0 -11 -3l-8 -4q-17 -3 -26 -3q-5 -2 -15 -7.5l-26 -14.5q-26 -15 -45 -15q-4 0 -14 2q-5 2 -9 2h-6q-36 3 -116 3q-4 0 -10.5 -0.5t-14.5 -1.5t-14.5 -1.5t-11.5 -0.5q-8 0 -19 0.5t-26 1.5t-26.5 1.5t-19.5 0.5 q-38 0 -57 -10h-3q-2 0 -12 2q-4 1 -6.5 1.5t-4.5 0.5q-9 0 -24 -4t-25 -4h-9t-12 1t-12 1h-7q-23 0 -52 -5.5t-63 -19.5q-16 -6 -26.5 -12l-17.5 -10q-10 -4 -20 -7t-20 -7l-20.5 -9.5t-15.5 -10.5q-15 -15 -21 -24q-4 -2 -7 -4.5t-7 -4.5q-7 -4 -9 -14q-3 -15 -11 -21 q-9 -7 -10 -11q-2 -5 0 -9q1 -4 1 -9h16q3 0 39 17q33 17 35 22q2 6 2 7q1 7 1.5 11.5t0.5 8.5q2 4 2 5q9 26 37 42q15 9 41 12q10 2 20 3t21 2q6 1 23 9q13 6 24 6q31 -3 33 -2t6.5 2.5t11.5 4.5q9 4 20 4q4 0 9 -0.5t12 -1.5t12 -1.5t9 -0.5t9.5 0.5t13.5 0.5h22 q45 0 73.5 1t42.5 3t24 4t18 4q6 0 14.5 -1.5l19.5 -3.5q20 -4 33 -4q4 0 10 0.5t14 1.5t14 1.5t10 0.5q13 0 18 -5q2 -2 4.5 -5t4.5 -5q-16 -28 -29.5 -48.5t-21.5 -34.5l-17 -29l-12 -20l-14 -13.5t-10 -9.5l-14 -32.5t-9 -23.5q-2 -5 -15 -24q-10 -14 -11 -26 q-2 -13 -3 -22t-2 -16q-14 -26 -24 -36q-4 -6 -6 -13q-8 -6 -27 -6q-29 0 -36 -3q-8 -5 -17 -9t-17 -9v-17q4 -1 14 -1q11 0 29 -2q14 -1 24 -3t18 -4l-1 -6l1 -3v-7q0 -3 -6 -10q-3 -4 -4.5 -6.5t-2.5 -3.5q-5 -12 -13 -41q-6 -29 -12 -42q-7 -11 -12.5 -18.5l-9.5 -12.5 q-4 -8 -7 -19.5l-7 -27.5q-6 -32 -12 -45q-5 -14 -23 -34l-14 -17.5t-8 -12.5q-5 -13 -8 -23l-5 -17q-20 -26 -33 -36q-7 -7 -19 -33q-11 -23 -20 -30q-5 -4 -9 -6.5t-8 -3.5q-23 -21 -33 -33q-24 -13 -35 -17q-15 -14 -21 -21q-3 -1 -11 -3q-4 -1 -7 -1q-2 0 -4 -1 q-26 -18 -37 -28q-12 -4 -21 -6.5t-15 -3.5q-10 -5 -17 -9l-12 -7q-101 -40 -205 -40q-82 0 -120 26q-11 13 -14 20q-8 9 -15.5 15.5t-12.5 11.5q-13 22 -13 63q0 13 1.5 26.5t3.5 27.5q2 13 4.5 24.5t6.5 21.5q-4 0 -4 2q1 3 1 5q-21 -3 -23 -3q-23 -40 -29 -74 q-5 -27 -2 -40z" />
<glyph unicode="G" horiz-adv-x="1057" d="M34 125q2 -13 14 -27q13 -15 15 -23q2 -26 0 -40q6 -33 19 -46q1 -2 10 -9.5l26 -22.5q7 -6 11 -12q19 -13 82 -11q14 1 23.5 1.5t14.5 2.5q10 2 20 7q10 6 26 6q30 0 53 12q44 23 48 23q4 2 55 19q17 5 30 11l24 11q24 15 37 27q14 7 25 11t19 6q11 9 19 16.5l13 12.5 l40 22.5t28 14.5q10 8 19 17t19 17q22 21 43 21q24 0 19 -20q-3 -15 -20 -51q-8 -17 -13 -29t-6 -19q-2 -10 -2 -17q0 -6 -1 -11q-10 -23 -18.5 -39.5t-15.5 -27.5q-8 -20 -13.5 -35t-8.5 -26q-20 -27 -31 -40l-12 -24t-8 -17q-26 -26 -39 -36q-8 -11 -13.5 -19.5 l-8.5 -13.5q-45 -33 -72 -46l-21 -15.5t-14 -11.5l-32 -14l-24 -10q-7 -5 -11.5 -9.5l-7.5 -7.5q-37 -20 -89 -20q-42 0 -78 17q-17 8 -33.5 17l-33.5 18q1 -1 1 -15q1 -8 6 -13q8 -4 15 -5.5l12 -2.5q4 -2 16 -14q10 -12 16 -14q27 -13 70 -13q57 0 110 21l40 25t28 19 q22 9 35 12q16 8 33.5 21l38.5 30q30 25 47 38l22 17q15 9 26 15q18 23 30.5 40.5t19.5 30.5q1 2 26 30q21 24 21 30q2 10 2 9q8 15 17 24q6 16 10 28t6 20q1 3 11 18q7 12 8 19q1 8 1.5 14t0.5 10q6 14 11 23t9 14q9 34 12 49q1 2 4 7l8 13q7 12 9 20q1 7 1.5 11.5t0.5 8.5 q7 17 13.5 29t11.5 20q2 5 7 22.5l14 48.5q7 25 12.5 41.5t10.5 25.5l10 5q14 17 37 52q25 39 27 53q1 3 -4 12l-3 6t-2 3q-57 -8 -88 -37q-29 -26 -36 -45q-1 -1 -1 -5q-2 -12 -3 -17q-12 -22 -22 -30q-8 -20 -9 -29q-9 -17 -16.5 -29l-12.5 -20q-5 -13 -8.5 -23t-5.5 -17 q-22 -16 -37 -21l-19 -25t-13 -19q-23 -17 -33 -21q-5 -6 -9.5 -10.5t-6.5 -8.5q-5 -2 -9 -3t-7 -2q-44 -36 -63 -57q-29 -16 -41 -20q-13 -10 -22 -18t-15 -14q-53 -26 -79 -33q-11 -7 -19.5 -11.5t-13.5 -8.5q-35 -15 -94 -15h-11q-6 0 -16 1q-9 1 -16 1h-12 q-14 0 -22.5 -0.5t-10.5 -0.5q-12 0 -15 1q-10 3 -28 22q-19 20 -24 31q-4 18 -6.5 31.5t-3.5 22.5q0 1 -5 8t-4 11t2 7t2 5q1 5 -4 14q-2 4 -3 7t-2 5q-1 5 -0.5 15.5t3.5 26.5q5 28 10 49t9 35q2 11 3 19.5t2 13.5q14 36 21 47l12 36q7 20 17 32q4 5 7.5 8.5t6.5 5.5 q5 9 8.5 16t5.5 12q18 20 29 29q2 5 4 9l3 6l16.5 14.5l12.5 10.5q3 5 4.5 9.5t2.5 6.5q5 4 9.5 6.5t8.5 4.5q27 31 36 46l40.5 34.5t30.5 22.5l17.5 18l12.5 13l8 1l9 9t6 8q20 11 36 18.5l27 12.5q4 2 12 8.5t21 15.5q20 14 35 21q60 25 137 25q9 0 29 -3q18 -3 27 -3 q35 0 93 34q-1 2 -2 4.5t-1 6.5q-3 8 -6 10q-9 6 -57 6q-17 0 -28.5 -0.5t-19.5 -1.5q-29 -7 -50 -13.5t-35 -11.5l-60 -15q-38 -9 -60 -21q-14 -11 -19 -16l-44 -24l-32 -17q-5 -5 -9.5 -9t-6.5 -7q-16 -7 -21 -8q-15 -10 -44 -37l-24.5 -22t-18.5 -14q-25 -17 -40 -25 l-24 -28l-17 -20q-4 -4 -10 -8l-14 -9q-15 -8 -23 -16q-21 -32 -29 -49q-6 -5 -10.5 -9.5t-7.5 -6.5q-5 -5 -11.5 -15t-14.5 -24q-16 -29 -25 -38q-10 -7 -14 -8q-4 -8 -7 -15.5t-5 -13.5l-14.5 -14t-11.5 -10q-8 -24 -9 -37q-8 -14 -15.5 -23.5t-12.5 -16.5 q-22 -40 -37 -119q-6 -27 -4 -43z" />
<glyph unicode="H" horiz-adv-x="1501" d="M-43 -202q2 9 5 18.5t8 20.5q7 16 10.5 25.5t4.5 11.5q4 12 9 41q11 65 65 115q2 2 5 4t7 4t8 4.5l9 5.5q6 7 16 16q5 4 10 9t12 10q3 1 13 5q4 2 9 4l10 4q8 9 36 31l12 3q4 1 7.5 2t8.5 3q7 5 16.5 13t23.5 18q7 2 22 9q7 2 14.5 5.5l15.5 7.5q4 4 8.5 7.5t9.5 8.5 q5 4 12 9t15 10l57 27l36 17.5l42 20.5l17.5 11l20.5 13l24.5 13l29.5 15q9 1 27 6q7 2 22 12l18.5 12l24.5 16q47 31 70 34q-3 -1 18 -1q3 0 8 3q4 1 10 6l9 6q4 3 6 3q5 2 12 4t16 4q18 4 45 9l2 -10q-2 -11 -38 -21q-5 -2 -11 -3t-12 -3t-12 -3t-11 -3q-3 -2 -156 -66 q-4 -2 -8.5 -4.5l-9.5 -5.5q-5 -2 -10 -5.5l-11 -7.5l-23.5 -16.5t-16.5 -8.5l-45.5 -19.5t-61.5 -28.5q-4 -4 -9 -7.5t-10 -8.5q-5 -4 -12 -9t-15 -10q-5 -1 -16 -6l-10 -4t-12 -4q-5 -4 -10.5 -8l-12.5 -9l-14.5 -10l-16.5 -11q-4 -1 -11 -2.5t-17 -6.5q-5 -2 -10.5 -5.5 l-11.5 -7.5t-12.5 -9l-13.5 -10q-10 -8 -17.5 -13t-13.5 -10q-5 -4 -9.5 -6.5t-6.5 -4.5q-14 -5 -30 -15l-17.5 -11l-20.5 -13q-3 -3 -12 -15q-5 -6 -10 -14t-13 -19l-21.5 -31.5t-8.5 -15.5q-2 -8 -3 -18q-1 -5 -1.5 -11.5t-2.5 -14.5q-1 -9 -11 -23q-4 -7 -6.5 -12 t-3.5 -8q-5 -12 -5 -20q-2 -5 -2 -9t-1 -8q-1 -5 -1.5 -11t-1.5 -11t-1 -11v-11q0 -59 32 -97q34 -39 99 -39q50 0 108 20l14.5 8l17.5 9l21 10.5l24 12.5q10 3 37 12q8 9 26 23l12 3q4 1 7.5 2t8.5 3q31 16 79 48l9 9t12 11l13.5 11.5l15.5 13.5l9 4.5l11 5.5l13 6.5 t15 8.5q7 4 18 15l10.5 10.5t11.5 12.5q12 13 21.5 22t17.5 15q13 8 30.5 20.5t39.5 31.5l10.5 11l12.5 14l14.5 16.5t17.5 18.5q6 3 18 14q5 4 10.5 9l12.5 11l13.5 21.5t17.5 25.5l21 29.5l24 32.5q10 6 25 23q1 6 6 17q2 5 4.5 10t6.5 12q4 3 7.5 6t7.5 7q2 7 6 13 q2 4 4 8.5t4 9.5q1 4 12 16q5 6 11 14t15 19q22 26 26 56q2 9 7.5 21t14.5 28l28 47q1 3 1 6q0 4 1 9t1.5 10t1.5 10q1 15 24 42q22 28 26 54q2 10 6 17l10 4q2 7 6 13q2 4 4 8.5t4 9.5q12 10 26 31q1 5 2 11.5t3 14.5q2 7 4 15.5t4 18.5q1 2 2 5t2 5l3 9q2 5 -5 10 q-2 2 -3.5 4t-2.5 3q-10 -2 -23 -6l-14.5 -4t-16.5 -4q0 1 1 1q-1 -1 -4 -1q-16 0 -14 2q1 1 2 1l2 2q5 2 14 11l6.5 6.5l4.5 4.5q3 3 17 10q5 3 12.5 7l17.5 9q30 16 43 30q1 3 3 6.5t4 8.5q4 9 12 21q10 13 48 37q37 24 50 24q20 0 17 -1q1 -1 1 -2l2 -2q0 -1 4 -7 q3 -4 1 -15q-8 -14 -24 -39q-8 -13 -16 -31.5t-16 -44.5q-9 -28 -16 -46.5t-14 -29.5q-4 -4 -9.5 -10.5t-11.5 -16.5q-13 -20 -25 -46t-25 -59l4 -2l6 -3q7 -4 14 -4q11 0 25 9q9 4 16 9q2 2 4 2.5t3 1.5q10 2 23 6l14.5 4t17.5 4l39 21q17 2 50 9q5 4 12 7.5t15 8.5 q8 4 16.5 9t18.5 10h5q11 12 25 50q3 9 6.5 16.5l6.5 14.5q2 6 5 10.5t5 8.5l9 9q4 3 8 7t10 9q19 16 20 29q1 10 18 24q12 12 16 15l7 7q2 5 5.5 11l7.5 13l18 33q11 8 32 26q1 1 4 4.5t8 8.5t11.5 13t15.5 18q6 8 12 13.5l11 10.5q10 10 18 15q2 1 4 1t4 1q6 2 10 3 q6 6 16.5 14.5t25.5 19.5q2 1 4.5 2t4.5 2q7 2 13 6q16 13 51 39q16 4 51 18q5 4 11 8l14 9q7 5 15.5 10t18.5 12q4 2 9 4l10 4t11.5 4l13.5 4q18 5 29 9q5 2 9.5 3t6.5 2q10 7 27 15q8 4 18 8t21 8q5 1 15 1q4 1 12 1h1q60 0 60 -50q0 -57 -60 -130q-25 -30 -51.5 -55.5 t-55.5 -45.5q-5 -2 -12 -6l-8 -4t-9 -4q-12 -12 -36 -30q-9 0 -18 -4q-4 -4 -9 -8l-11 -9q-5 -5 -12 -10.5t-15 -12.5l-15.5 -8.5t-19.5 -9.5q-21 -11 -46 -26q-5 -5 -14 -11q-5 -3 -10 -6.5t-12 -7.5q-15 -5 -42 -18q-6 -8 -21 -18q-6 -2 -16 -2q-9 0 -15 -2l-6 -9l-35 -20 l-37 -20t-38 -19l-39 -19q-14 -4 -43 -18q-4 -9 -12 -22q-4 -4 -8 -8.5t-9 -9.5t-10 -11t-11 -14q-5 -8 -9 -18q-2 -5 -5 -11t-5 -13t-5 -13t-5 -11t-4 -9l-4 -8l-17 -19.5t-22 -28.5q-8 -11 -19 -40q-3 -7 -5 -13t-4 -11t-4 -8.5t-4 -6.5q-22 -25 -51 -70q-4 -12 -10 -28.5 t-15 -36.5q-2 -4 -6 -9.5t-9 -13.5q-7 -10 -10 -27q-7 -8 -15.5 -19.5l-19.5 -26.5q-3 -5 -6 -15q-1 -5 -2 -9t-2 -6l-28 -40q-2 -9 -6 -19l-4.5 -11.5t-6.5 -13.5q-5 -8 -18 -24q-6 -6 -10 -31q-7 -8 -18 -32q-4 -8 -6.5 -18t-4.5 -23q-1 -8 -2 -14.5t-2 -11.5t-2 -9t-2 -6 q11 -10 20 -15q7 -4 20 -7v-3q-1 -2 -1 -4t-1 -4q-2 -11 -52 -27q-47 -15 -62 -15q-11 0 -19 8q-4 4 -8 7t-8 7q1 2 1.5 5t2.5 7q2 7 6 14q7 4 14.5 10.5t16.5 15.5q3 7 7 15l9 18l24 45q6 6 12.5 13.5l14.5 17.5q2 4 5 9t5 11l5 12t5 15q4 16 9 27q2 5 4 9.5t4 8.5 q5 8 12 14q5 3 8 22q2 7 12 20q11 14 15 37q0 4 4 8l9 9l10 10q4 2 6 7q5 10 10.5 24t10.5 31q3 10 5.5 17.5t4.5 14.5q4 13 9 21l8 8q3 2 9 10q6 10 42 87l10 9q1 2 1 5t1 7t1.5 8t1.5 9q1 2 2 5t3 7t4 7.5t4 7.5t4 7t4 7q2 3 3 5l2 4l6 20t7 21q8 20 22 33q3 1 3 5 q1 9 -14 26q-13 -4 -27 -7.5t-28 -8.5l-30 -8.5t-33 -10.5q-92 -32 -107 -47q-17 -19 -30 -47q-3 -6 -5.5 -12.5t-5.5 -13.5l-6 -12t-5 -13q-4 -8 -14 -24q-5 -7 -10 -15t-12 -17t-12 -17t-10 -15q-4 -7 -7.5 -12t-5.5 -9q-1 -2 -3 -5.5t-4 -8.5t-4.5 -10t-4.5 -10 q-2 -2 -8 -9.5l-17 -21.5q-15 -18 -18 -34q-1 -9 -12 -17q-17 -12 -18 -15q-4 -7 -9.5 -14.5l-12.5 -16.5l-14.5 -19.5l-16.5 -22.5q-18 -15 -52 -49q-3 -8 -12 -21q-5 -6 -12 -13t-18 -15q-6 -5 -11 -8t-9 -7q-4 -3 -7 -5.5t-5 -4.5q-2 -4 -5.5 -8l-7.5 -9t-9 -10.5 l-11 -12.5q-8 -3 -24 -12l-2 -8h-4l-21 -21q-7 -7 -15.5 -14.5l-19.5 -16.5l-22 -18.5t-26 -21.5l-9 -4.5t-10 -6.5q-11 -6 -24 -15l-10 -10q-2 -2 -5.5 -5t-7.5 -7q-8 -3 -18 -9q-5 -2 -11 -5.5l-13 -7.5q-6 -7 -27 -25q-7 -2 -13 -6q-4 -2 -9 -4l-10 -4q-4 -2 -8 -5.5 t-9 -7.5l-24 -18q-17 -8 -48 -21q-6 -6 -17 -15t-27 -21q-13 -8 -47 -19q-19 -6 -30.5 -10t-16.5 -6l-39 -17.5t-39 -16.5q-38 -16 -84 -16h-34q-5 1 -10 1h-10h-14q-17 0 -50 38q-31 36 -34 56q2 11 0 34q0 5 -6 28q-4 13 -1 31zM883 708q2 8 2 9q0 7 4 3q5 9 17 18 q2 1 5 1q4 0 8 1t9 1.5t10 1.5q6 1 15 6q5 2 10 3.5l12 3.5h14q8 0 18 1q19 2 43 3q17 3 49 22q31 18 49 17l-2 -9q-33 -21 -110 -60q-4 -1 -9 -1.5t-12 -2.5q-14 -2 -30 -6l-1.5 -0.5t-5.5 -2.5t-9 -4t-12 -4q-14 -7 -30 -7q1 0 -44 6zM932 467l2 14q82 39 103 39q9 0 9 -6 q-1 -4 -7 -12q-8 -4 -19 -7.5t-25 -8.5q-14 -4 -29.5 -9t-33.5 -10zM1651 782h7q2 0 1 -4q14 2 41 9q4 4 12 9q4 2 8 5l9 7q9 1 24 8l15 6.5t18 7.5q1 3 7 9l9 9q10 7 38 18q7 3 13 5t11 4l8.5 3.5t5.5 3.5q11 11 37 31q4 1 8 3t9 4l11 4.5l13 5.5q2 2 5.5 5t7.5 7l9 6.5 t10 7.5l11 4.5l13 5.5t15 7l18 9l20 20l12 11.5l15 13.5l14 10l14 10l13.5 10l13.5 10q36 27 47 46q1 2 2 5t2 7q1 6 6 15q4 8 8 14.5t9 13.5q2 5 5 13.5t5 22.5q1 3 1 10q1 3 1 9q0 36 -32 36q-14 0 -16 -1q-6 -4 -9 -7q-2 -2 -4.5 -3.5t-6.5 -3.5q-8 -2 -15 -5t-15 -6 t-15.5 -5.5t-15.5 -5.5q-36 -13 -57 -29q-2 -2 -4.5 -5.5t-6.5 -8.5q-4 -2 -8.5 -5t-10.5 -6l-27 -12l-27.5 -12t-17.5 -9q-37 -23 -63 -44t-43 -39q-8 -14 -24 -39q-15 -12 -42 -39q-2 -5 -5.5 -10.5t-7.5 -12.5t-9 -14.5l-10 -15.5l-25.5 -32l-25.5 -32q-26 -32 -39 -75z " />
<glyph unicode="I" horiz-adv-x="645" d="M-20 59v4q1 1 1 3q14 62 20 71q5 1 13 9q9 -3 22 -13q3 -5 2 -17q-1 -5 -1 -12v-6q6 -63 69 -63q39 0 101 20q65 21 89 50q4 12 18 36q6 3 18 12q3 3 10 15l7 11.5t9 15.5q19 36 21 45q1 2 1 5t1 7q1 6 3 15q3 17 26 60q22 40 27 63q0 2 3 34q2 11 11 25q8 13 10 22 q0 2 2 12q2 7 3 16t11 23q7 13 9 22q1 2 1 5t1 7q1 6 3 15l2 6t3 7t4.5 7t4.5 7l4 6l4 6q3 4 3 8q2 8 3 23l-3 3l-1 1.5t-2 3.5q-2 3 -13 3q-10 0 -26 -3.5t-39 -9.5q-53 -15 -61 -22q-6 -4 -12 -20q-6 -13 -11 -20l-69 -39h-7q-15 0 -12 12q4 21 29 43h8q2 1 7.5 5.5 t14.5 13.5q11 9 16.5 14t7.5 6q18 10 99 32q8 2 17.5 4t20.5 5t22.5 6.5l25.5 7.5q29 15 60 55q3 7 12 18q1 1 10 7.5t28 16.5l12 7t18 9h8q26 0 23 -17q-3 -14 -29 -46q-14 -11 -38 -35q-4 -4 -11 -23q-8 -21 -9 -24q-1 -1 -2.5 -4.5t-5.5 -10.5l-9 -16l-12 -22 q-8 -16 -14 -29.5t-8 -24.5l-6 -36q-2 -12 -7 -27.5t-14 -35.5l-11 -25t-9 -19q-3 -8 -5 -12.5t-3 -6.5q-25 -57 -40.5 -99t-28.5 -66q-51 -95 -117 -139q-2 -1 -5 -2t-7 -3q-6 -1 -17 -6l-5.5 -5.5t-8.5 -7.5q-10 -8 -22 -15q-4 -1 -14 -3q-4 -1 -9 -2t-10 -3 q-7 -2 -13.5 -5l-13.5 -6l-27 -12q-30 -12 -58 -12q-41 0 -96 23q-2 1 -4 2.5t-6 3.5q-3 2 -6 5l-6 6q-6 5 -11 11q-4 4 -4 8z" />
<glyph unicode="J" horiz-adv-x="582" d="M-499 -125q0 13 3 30q13 78 42 114q43 57 140 97q-1 -3 2 -11q-27 -17 -75 -54q-30 -30 -44 -77q-3 -11 -9 -30q-2 -3 -5.5 -9t-7.5 -15q-2 -10 -2 -23q0 -8 0.5 -16.5t0.5 -19.5q2 -43 8 -56q2 -3 5.5 -7l7.5 -9q37 -65 78 -76q21 -6 52 -6h16t15 2q7 0 13.5 1l12.5 2 l12.5 5t15.5 7q-2 -1 14 -1q6 0 17 8q5 4 9 5.5t6 2.5q14 3 44 12q10 7 30 18q4 2 9 4t12 4q6 2 13 5.5l15 7.5q4 4 24 19q2 1 5 2t7 3q5 1 16 6q13 6 38 31q6 6 11 10.5t10 8.5l8.5 7t5.5 5l9 4.5t10 5.5t11 7l13 9q1 10 12 18q5 4 9 6t6 4t3.5 2.5l1.5 0.5q2 2 4 5t4 7 q3 6 12 16l12 9q4 3 7.5 6.5t8.5 7.5q2 8 12 26q6 5 13 11.5l15 14.5q2 5 5 11.5t5 16.5q4 17 11 27q3 4 21 19q9 7 14 33q2 10 7.5 19t14.5 20q8 8 13 14.5l9 11.5q4 4 6 6.5t3 3.5l8.5 15.5t9.5 19.5l11 23.5l13 26.5l5 5t6 7l6.5 8.5l7.5 9.5q1 3 2 6.5t3 8.5l4 10l4 10 q4 4 9 9.5t10 13.5q4 9 9 35q3 17 11 27q7 7 9 12q3 6 7 22q2 7 3.5 14.5t3.5 15.5q7 35 15 52q10 7 24 36v10q1 3 1 6q0 4 1 8q1 8 18 31q18 24 22 46q1 12 0 36q-1 0 -9 2t-10 2q-13 0 -55 -13q-45 -14 -54 -18q-9 -5 -18 -18q-7 -9 -10.5 -14t-5.5 -7q-12 -12 -41 -28 q-32 -18 -41 -18q-2 0 -4.5 0.5t-6.5 1.5l-6 1.5t-4 0.5q1 1 1 13l4.5 3.5l13.5 10.5q14 14 56 45q2 1 5 2t7 3q3 2 7 4t9 4q6 6 14 10q9 4 21 12q6 1 15 3l10 2t11 3l9 8q16 1 40 6q12 2 26 4t30 6q12 4 40 29q24 21 45 21q27 0 23 -24q-1 -1 -2 -3t-3 -4q-4 -6 -5 -7 l-2 -6q-1 -2 -2 -4.5t-1 -5.5q-3 -5 -3 -10q-2 -3 -2 -6q-5 -17 -12 -30l-6 -13.5t-7 -13.5q-5 -8 -12 -18q-4 -5 -7.5 -11.5l-7.5 -13.5q-1 -4 -2 -8.5t-3 -9.5q-2 -11 -6 -24q-2 -4 -5.5 -9.5t-7.5 -12.5q-8 -14 -15 -33q-1 -1 -4 -21q-1 -5 -4 -13t-10 -20 q-17 -31 -18 -34q-4 -8 -8 -19l-9 -24l-10.5 -28.5t-13.5 -32.5q-2 -7 -11 -19l-6 -10.5t-8 -11.5l-21 -29.5t-8 -10.5q-2 -5 -4.5 -10.5t-6.5 -12.5l-8 -14.5l-9 -16.5q-2 -2 -5 -5.5t-6 -7.5t-6.5 -8l-7.5 -9q-3 -8 -7.5 -18l-9.5 -21t-11.5 -24t-14.5 -27q-8 -6 -18 -18 l-3 -9q-1 -2 -2 -4.5t-3 -6.5q-5 -2 -13 -8l-9 -17.5t-12 -20.5q-18 -13 -38 -33q-1 -2 -2.5 -6.5t-3.5 -9.5q-14 -9 -36 -27q-20 -23 -65 -65q-3 -2 -6.5 -4t-8.5 -4q-11 -5 -20 -12l-17 -17q-11 -9 -24 -21l-12.5 -5t-15.5 -7q-4 -2 -9 -5.5t-10 -7.5t-11.5 -8.5 l-13.5 -9.5q-4 -1 -9 -3t-11 -4t-13.5 -5t-15.5 -7q-9 -7 -20 -14l-13 -8.5l-15 -9.5q-1 -1 -9 2q-6 0 -18 -9q-15 -10 -19 -11q-13 0 -28 -4q-7 -5 -16 -9q-5 -2 -10 -4.5t-12 -5.5q-28 -10 -55.5 -15.5t-55.5 -6.5q-20 0 -36 6q-12 5 -19.5 7.5t-11.5 3.5h-11q-7 0 -13 10 q-5 8 -7.5 11.5l-2.5 3.5q-17 8 -41 30q1 2 1 7q-1 2 -1 5q0 2 -1 4q-9 8 -23 26q-5 8 -3 23q1 19 0 23q-2 7 -7 19q-5 15 -5 21z" />
<glyph unicode="K" horiz-adv-x="881" d="M-343 -55l120 15q35 5 65 10t54 13q48 17 83 32.5l58 26.5q40 14 58 18q1 1 6 4t14 10q13 10 20 10h10q8 5 15 10t12 9q12 5 21 9.5t16 6.5l27.5 24t18.5 18q8 4 14 6.5l11 4.5q35 29 47 42q17 14 30.5 23.5t22.5 16.5q5 8 9 13.5t6 9.5l60 51q7 10 12 18.5l9 15.5 q13 4 23 4q2 -4 6 -8q6 -4 4 -12q-2 -16 -3 -22.5t-2 -3.5q0 -6 6 -15q6 -7 4 -18q-4 -20 -5.5 -28.5t-1.5 -6.5q0 -2 1 -5t3 -8q4 -9 3 -16q-6 -33 -6 -27q0 -5 1 -12.5t4 -16.5q2 -9 3 -16t1 -12q0 -8 -5 -26q-2 -8 -3 -14.5t-1 -10.5q0 -9 4 -22q3 -12 1 -23 q-2 -12 -4 -21t-3 -15v-14q0 -10 1 -24q2 -25 -1 -39q-11 -64 -11 -75q2 -7 4 -12.5t4 -9.5q2 -31 -4 -65q-2 -14 -4 -25t-4 -18v-13t1 -23q2 -24 -1 -36l-8.5 -27.5t-6.5 -19.5q-2 -13 4 -33q4 -20 3 -33q-8 -44 -6 -51l2 -4t3 -5q4 -4 2 -14q-4 -20 -9 -31 q-7 -36 -10 -61.5t-4 -39.5q1 -25 5 -41q-4 -21 -2 -29q3 -8 4.5 -13.5t2.5 -8.5q1 -8 1.5 -14.5t-0.5 -10.5q3 -50 87 -50q33 0 52 8l23 10.5l23 10.5l-2 11h-18q-1 1 -6 1l-8 -9q-20 -6 -38 -6q-27 0 -31 15q-1 6 -1 11v8q-3 5 -8 20q-4 11 -4 21q0 12 6 42q5 28 5 41 q-2 7 -4 12.5t-4 9.5q-1 14 -0.5 33t3.5 42q2 19 4.5 38t4.5 38q1 9 -2 38q-3 22 -1 37q5 31 3 36t-3 10t-1 10q0 28 9 79q11 58 11 79q0 20 -1 34t-2 23q11 44 11 48t-5 16q-2 5 -3 10.5t1 12.5q3 17 5.5 29.5t4.5 20.5q0 6 -3 18q-1 5 -1.5 9.5t-0.5 7.5q0 20 5 48 q22 118 24 141q0 9 -4 21q-3 13 -3 20q0 9 1.5 23l3.5 34q5 36 3 56q0 7 -4 23q-3 15 -2 24q2 5 3 9t2 6q18 17 37 21q37 9 38 10q110 43 178 112q-4 -2 -4 1q-2 2 -4 2t-99 -51q-97 -50 -133 -50q-13 0 -14 4q-3 4 -5 6l-3 3q3 12 3 19q2 8 14 22t14 22q4 26 12 34t13 14.5 t8 11.5q28 68 39 104q7 15 14 24q20 38 27 88l-21 8l-5.5 -2l-16.5 -6q-42 -15 -79 -58l-11.5 -13.5t-7.5 -9.5q-26 -10 -37 -11l-5 -8q-35 -21 -86 -21q-12 0 -36 3q-23 3 -35 3q-22 0 -38 -9q-8 -4 -16 -8.5t-16 -9.5q-13 -4 -21 -4l-5 -8q0 2 -2 0q-2 -5 -3 -8.5t-2 -7.5 q10 -4 11 -8q5 1 13.5 2.5t21.5 3.5q20 4 35 4q23 0 37 6q21 10 29 12q10 1 16.5 1.5t11.5 0.5q75 18 121 36q1 -1 2.5 -3t3.5 -4q5 -5 5 -13q0 -7 -1 -11q-9 -33 -16 -46q-5 -22 -15 -38q-11 -17 -12 -25q-2 -10 -2.5 -17t-1.5 -12q-8 -10 -15 -17t-13 -11q-5 -9 -8 -15.5 t-5 -11.5q-24 -29 -39 -42l-10.5 -22t-6.5 -16q-11 -9 -18 -12q-7 -9 -14 -27q-6 -19 -14 -27q-18 -16 -27 -20q-4 -8 -6.5 -13.5t-4.5 -9.5q-27 -27 -42 -39q-4 -4 -19 -28q-6 -9 -12 -14.5t-12 -9.5q-12 -7 -20 -9q-32 -27 -44 -42l-25 -14l-18 -10q-23 -20 -34 -31 q-26 -11 -37 -15q-8 -6 -13 -11l-9 -9q-26 -10 -37 -11q-10 -7 -17.5 -11.5t-12.5 -8.5l-31.5 -8.5l-21.5 -5.5q-5 -2 -14 -9q-11 -8 -17 -8q-22 0 -18 1q-8 -2 -24 -9q-18 -8 -25 -8q-14 0 -35 -3t-48 -8t-48.5 -7.5t-38.5 -2.5l-2 -9h-2h-21l-3 -15l-17 -8v-3q-2 -6 -2 -8 zM855 595q-3 -1 12 -1q7 0 33 24q25 23 29 26q13 5 17 5q23 20 32 30q51 43 78 69q12 10 21 16.5t15 11.5q4 7 7.5 11.5t5.5 8.5q3 6 25 24q18 15 24 27q5 10 7 18l32 34.5t25 23.5l27 42q40 40 61 58l13 17.5t19 26.5q19 31 33 45q8 6 13 8q19 25 27 42q6 5 10.5 9.5 t7.5 6.5q11 19 18 33t11 25l32 43.5t24 29.5q2 5 4 9t3 7q17 14 26 19l6.5 11.5t4.5 8.5q33 31 51 45q25 28 36 47q12 22 17 34q13 16 39 30l21.5 12l21.5 12q13 10 19 16q17 6 30.5 10t22.5 6q2 1 6 2.5t10 6.5q7 6 18 6q28 0 30 1q16 7 29 11l3 15h-8q-5 0 -13 2 q-7 1 -12 1.5t-10 0.5q-45 0 -71 -16q-5 -3 -8 -6l-5 -5l-45.5 -19t-33.5 -13l-47 -32t-33 -25q-8 -5 -14.5 -9.5t-11.5 -6.5q-5 -11 -6 -15l-30 -30q-7 -18 -8 -25q-36 -38 -60 -57q-21 -25 -31 -42l-5.5 -5l-17.5 -16q-17 -15 -18 -23q-1 -11 -20 -33q-18 -21 -18 -30 q-1 -8 -3 -13q-17 -19 -29 -30q-2 -4 -6.5 -11t-9.5 -18q-5 -10 -9.5 -17t-8.5 -12l-17.5 -17t-13.5 -12l-25.5 -40l-17.5 -29q-8 -8 -15 -13.5l-12 -9.5l-36 -44t-25 -33l-13.5 -11.5l-9.5 -7.5q-22 -32 -30 -46q-10 -10 -18 -16.5l-13 -10.5q-8 -14 -9 -21q-8 -14 -43 -49 q-30 -25 -44 -35q-13 -16 -17 -23l-30.5 -29.5t-23.5 -20.5q-2 -2 -8.5 -6t-19.5 -11q-19 -10 -22 -18v-3q-1 -4 -1 -7t-1 -5z" />
<glyph unicode="L" horiz-adv-x="829" d="M33 269v4l1.5 6t0.5 4l1 2v1q43 28 93 28q45 0 93 -16q2 -1 5 -2t7 -3q3 -2 6.5 -3.5t7.5 -3.5q5 -1 14 -1.5t23 -0.5q16 0 34 -8q15 -7 27 -7q43 0 102 48q19 16 86 83q7 4 14.5 10.5t15.5 14.5l2.5 10t5.5 15t21 26q16 16 21 27v1q0 2 2 6q0 3 1 8t2 12q4 6 8 14 q2 5 4.5 10t5.5 10q3 7 5.5 13.5t4.5 13.5q5 12 6 22q5 29 -12 29q-14 0 -59 -25q-44 -24 -45 -24q-17 0 -17 9q0 7 12 15q10 1 31 9q1 1 12 6.5t33 17.5q50 26 70 53q4 10 18 37q12 16 66 45q5 5 28 16q1 1 9 1q22 0 19 -19q-3 -15 -20 -38q-4 -5 -7.5 -10t-6.5 -10 q-2 -5 -4 -8.5t-3 -5.5q-1 -1 -4 -33q-1 -8 -10 -20q-7 -10 -9 -17q-2 -10 -12 -40l-10 -8l-9 -18l-11 -21l-13 -24l-15 -28q-2 -5 -7 -14t-13 -22q-4 -3 -9 -7.5t-10 -9.5l-11.5 -11l-13.5 -13q-1 -2 -3 -5t-4 -7t-4.5 -7.5t-4.5 -8.5q-11 -13 -34 -27q-32 -20 -36 -24 l-12.5 -12l-16.5 -15t-20 -16l-24 -18q-1 -1 -27 -10q-19 -6 -22 -13q-1 -1 -1 -4q0 -2 -0.5 -4.5l-1.5 -7.5q5 -4 27 -17l61 -36q14 -8 25.5 -16l22.5 -16q19 -12 37 -27q9 -14 30 -36q11 -7 26.5 -19.5l35.5 -29.5q3 -8 12 -21q7 -2 13 -6q4 -2 8 -4.5l9 -5.5q6 -4 15 -16 q3 -5 7 -11l9 -13q5 -8 9.5 -14.5t8.5 -11.5q8 -12 14 -15q2 -1 5.5 -3t7.5 -4t8 -4.5t9 -4.5q2 -3 5.5 -6.5l7.5 -7.5t8.5 -9t9.5 -10q12 -5 40 -24q1 -5 6 -9q2 -2 4 -5t4 -7l7.5 -2.5t10.5 -5.5q7 -5 14.5 -14t16.5 -21q5 -7 9.5 -12t8.5 -10l13 -13q4 -2 9 -5t10 -7 q5 -3 11 -7l13 -9q8 -10 19 -22.5t26 -27.5q15 -12 47 -29q34 -17 44 -27q1 -1 7 -10q1 -3 14 -3l15 -12l10 -6t10 -7q15 0 32 -4q8 -6 19 -11q12 -5 24 -5q7 -2 15 -2q9 0 19 -1q8 -1 16.5 0t18.5 3q7 2 14 4.5t15 7.5l20 12t9 5q8 2 18 5.5t21 8.5t24.5 10.5l29.5 12.5 q5 4 11 8l14 9t16.5 11l18.5 13q8 4 24 14t31 23q2 4 12 19q4 4 12 8q9 4 12 9q10 11 22 88q1 2 1 5t1 5t1 5q0 2 1 4q5 0 7 -1h8h5q10 -37 6 -64q-7 -39 -62 -91l-12 -15q-6 -8 -15 -6q-5 -6 -15 -15q-11 -3 -35 -12q-11 -8 -27 -18l-17.5 -10.5t-20.5 -12.5l-19 -5t-24 -8 l-8 -8l-4.5 -4.5t-6.5 -4.5q-14 -8 -30 -15l-16 -6t-17 -7h-13q-4 0 -14 -6l-12 -6q-8 -3 -34 -3q-15 0 -29 -7t-19 -7q-9 0 -22 6l-12 3.5t-7 2.5h-9t-10 1t-11.5 1.5t-13.5 1.5q-4 2 -8.5 5t-9.5 6t-11.5 6.5l-14.5 7.5q-14 0 -29 4q-2 3 -8 9l-12 12q-2 1 -5 1t-6 2 q-5 0 -13 5q-3 6 -15 25q-7 2 -15 6.5t-19 9.5q-2 6 -7 14t-13 18l-9 4.5l-11 5.5l-13 6.5t-15 8.5q-6 4 -11 10q-2 4 -5 7.5t-6 7.5q-2 4 -5 7.5t-6 7.5q-4 7 -9 10q-2 1 -8 3q-2 1 -4.5 2t-5.5 2q-2 5 -7 12l-13 18q-5 1 -9 3t-9 4q-8 13 -27 33q-3 1 -9 2.5t-14 5.5 q-8 12 -24 33q-5 1 -9 6q-2 2 -5 4.5t-6 5.5q-1 2 -2.5 6.5t-3.5 9.5q-12 7 -33 21l-30 36q-5 4 -12.5 9t-15.5 11l-17.5 13.5l-20.5 15.5l-8.5 10.5l-10.5 12.5q-5 7 -12.5 14.5l-15.5 15.5q-5 2 -11.5 5.5l-14.5 7.5t-16.5 9t-18.5 10l-12 12q-4 4 -7.5 9t-7.5 10t-7.5 10 t-7.5 9q-3 4 -6 7l-5 5q-13 10 -28 14q-11 4 -20 6q-4 1 -6 2l-4 2l-14 8t-15 8l-13.5 8t-14.5 8q-21 11 -72 11q-18 0 -34 6q-20 7 -27 9q-9 1 -69 0q-52 -1 -79 21q-21 13 -21 19z" />
<glyph unicode="M" horiz-adv-x="1050" d="M-187 -45q-6 -34 82 -34q26 0 46 5q45 19 67 33q19 1 28 3q2 1 7.5 3.5t13.5 7.5q13 9 20 9q3 0 5 -1h5q21 10 38 19t30 19q9 2 16 4t12 3q18 15 24 24q20 11 35 18t26 11q20 17 26 27q19 11 33 18t24 11q13 11 22 19.5t15 15.5l121 93l24 28t16 20l21.5 14l15.5 10 q9 6 30 33q20 26 30 31q12 4 20 4q7 -6 13 -13q7 -7 4 -18q-24 -62 -42 -90q-18 -59 -24 -87q-20 -38 -33 -57q-31 -79 -41 -116q-6 -14 -11 -23.5l-9 -16.5v-8q0 -5 2 -10q4 -12 4 -18h14h3l5 8q49 28 53 32q31 23 35 48q2 7 3.5 13t3.5 11q9 22 32 49q16 18 28.5 30.5 t21.5 20.5l18.5 29l12.5 20q24 21 34 27q5 8 7 14.5t4 10.5q6 5 11 7.5t8 4.5q24 33 33 51q14 16 25 26.5l19 17.5l29 43.5t20 32.5q9 7 14 9q14 19 21 32q11 8 19.5 13.5l14.5 9.5q5 8 7 14t4 10q25 10 39 12q0 -1 1 -2.5t3 -5.5q4 -5 4 -9q-11 -26 -22 -48l-22 -42 q-2 -8 -5 -24t-8 -39q-3 -20 -7 -35.5t-9 -26.5q-8 -13 -15 -22.5t-13 -16.5q-8 -23 -12.5 -41t-7.5 -32q-13 -18 -16 -33q-4 -38 -6 -59l-3.5 -14t-3.5 -10q-6 -15 -20.5 -32t-38.5 -35q-5 -5 -10 -8t-9 -5q-2 -2 -2 -5v-8q0 -2 -0.5 -4t-0.5 -3t-2 -3q5 -3 7 -5q4 -4 9 -4 q14 0 111 41q0 -1 1 2.5t2 11.5q1 7 -5 15q-7 9 -7 11t0.5 7.5l1.5 16.5q3 20 6 31q2 5 6 11.5l10 16.5q11 18 14 37q4 20 5.5 34.5l2.5 24.5q2 12 8.5 27t16.5 35q12 21 18.5 36.5t8.5 25.5q1 2 5 20.5t10 53.5q9 47 22 71q8 11 14.5 19t11.5 13q16 26 27 45.5t18 33.5 q7 8 12 14.5t9 10.5q10 30 12 45q14 26 20 40q3 9 -1 13t-4 5q-66 -16 -103 -59l-10.5 -17l-7.5 -12q-21 -20 -36 -27q-7 -13 -11.5 -23l-7.5 -17q-18 -17 -33 -25q-9 -10 -16.5 -17.5l-12.5 -12.5q-6 -4 -20 -11q-8 -4 -13.5 -7t-8.5 -7q-5 -11 -9 -19t-7 -13 q-17 -15 -24 -20q-5 -11 -7 -21l-3 -3t-6 -4q-8 -5 -11 -8q-8 -11 -13 -20l-9 -16l-14 -14t-11 -10q-8 -14 -13.5 -25l-9.5 -19q-17 -21 -30.5 -36t-23.5 -25q-5 -8 -10 -17t-11 -17q-15 -24 -27 -24q-3 0 -5 2q-2 0 -3.5 0.5t-3.5 0.5h-3q0 3 -3 5q-2 1 -2.5 1.5l-0.5 0.5 q-2 7 1 33q4 21 20 59q3 7 10.5 21.5l18.5 37.5q7 13 12 23.5t8 18.5q5 9 9 28l9 27q2 2 4.5 6.5l6.5 11.5q6 9 8 19q2 8 2 14v10q2 7 6.5 16.5t12.5 23.5q16 28 17 39q2 5 2 9v7l9 14t7 10q25 61 32 89l9 14.5t7 10.5q16 46 21 71l-18 12q-35 -13 -39 -17q-5 -6 -6 -10 q-1 -2 -27 -25q-25 -22 -29 -24h-4q-5 -15 -8 -27t-5 -22q-1 -6 -11 -21q-5 -7 -7 -14t-4 -15q-6 -38 -11 -46q-21 -26 -34 -35q-10 -17 -17 -30.5t-12 -21.5q-8 -10 -14.5 -16.5l-11.5 -11.5q-3 -11 -6 -20q-28 -36 -46 -52q-19 -31 -29 -49q-21 -20 -33 -27l-30 -37 t-21 -27l-40 -34t-30 -22q-2 -2 -13 -12l-33 -30q-27 -26 -48 -39q-14 -8 -25 -12q-32 -24 -44 -36q-32 -16 -47 -20q-8 -5 -13 -9t-10 -7q-31 -9 -46 -12q-12 -7 -21 -11.5t-15 -8.5q-30 -10 -95 -10q-48 0 -69 6q-32 9 -30 9q-7 0 -9 -1q-11 -1 -22 -16l-12 -16.5t-5 -6.5 t-7.5 -4.5t-18.5 -11.5q-15 -11 -18 -20z" />
<glyph unicode="N" horiz-adv-x="760" d="M-199 -85q4 -34 91 -34q27 0 45 5q39 19 58 33q18 1 27 3q3 1 18 11q12 9 19 9q2 0 5 -1h4q18 10 32 19t25 19q10 2 16.5 4t11.5 3q13 15 17 24q17 11 30 18t22 11q13 16 18 27q30 21 50 29q10 11 17 19.5t11 15.5l96 93q19 31 27 48q19 16 30 24q7 7 20 33q13 25 22 31 q11 4 19 4q5 -3 9 -6t8 -7q6 -5 8 -18q1 -10 0 -21t-5 -25q-5 -20 -8 -31t-4 -13q-2 -59 0 -87q-11 -38 -18 -57q-10 -76 -9 -116q-1 -2 -2.5 -7t-3.5 -13q-5 -11 -3 -20q10 -26 16 -36h14h2l4 8l22 16l22 16q25 22 22 48q-1 8 -1.5 14t1.5 10q5 17 10 29t9 20l19.5 30 t15.5 21l20 49q16 19 25 27q5 17 6 25q7 9 14 12l12 29.5t7 21.5q10 16 18 26.5t14 17.5l17 43.5l12 32.5q7 7 12 9q5 10 8 18t5 14l14 13.5t11 9.5l6 24q21 10 35 12q5 -5 8.5 -9t5.5 -8q7 -18 13 -18q2 0 12 5q15 8 19 19q9 26 14.5 46t8.5 34q7 15 14 24q1 7 0 18v27 q1 2 2 6.5t4 12.5q5 14 4 21q-8 16 -12 18q-63 -18 -86 -59q-8 -20 -9 -29q-3 -5 -16 -12q-12 -8 -15 -15q-3 -13 -4.5 -23l-2.5 -17q-17 -18 -26 -25l-21 -30q-2 -2 -6 -5t-11 -7q-12 -7 -16 -13q-4 -11 -6.5 -19t-3.5 -13q-12 -15 -18 -20q-3 -14 -3 -21l-7 -8.5t-6 -6.5 l-8.5 -21t-5.5 -15q-10 -18 -16 -24q-9 -28 -12 -44q-23 -40 -39 -61q-2 -8 -4.5 -17t-5.5 -17q-9 -24 -21 -24q-3 0 -6 2q-2 0 -3.5 0.5t-3.5 0.5h-3q-4 5 -9 7q-2 5 -4 12.5t-3 18.5q-3 34 17 120l6.5 27t2.5 15q2 18 2 31v24l6 18q4 10 3 19q-1 8 -2 14t-2 10q-1 11 7 40 t7 39q-1 8 -1 11v5q-1 5 4 14l3 6l2 4q4 29 5.5 51.5l2.5 37.5l5.5 14.5t4.5 10.5v71l-12.5 7l-9.5 5h1q-30 -13 -34 -17q-3 -6 -3 -10q-2 -4 -21 -26q-10 -11 -15.5 -16.5t-7.5 -6.5h-4q-3 -7 -1 -20q3 -23 2 -29q0 -6 -5 -21q-5 -14 -3 -29q3 -39 1 -46q-14 -25 -24 -35 q-5 -17 -9.5 -30.5t-6.5 -21.5q-5 -10 -9.5 -16.5t-7.5 -11.5q-3 -14 -3 -20q-17 -35 -29 -52l-10.5 -29t-6.5 -20q-15 -20 -24 -27q-13 -21 -21.5 -37t-13.5 -27q-17 -20 -31 -34t-24 -22q-2 -2 -10.5 -12l-24.5 -30q-20 -24 -38 -39l-12.5 -7l-9.5 -5q-23 -23 -33 -36 l-24 -12t-17 -8q-14 -11 -19 -16q-29 -9 -43 -12q-19 -11 -30 -20q-27 -10 -92 -10q-49 0 -71 6q-35 9 -33 9q-7 0 -9 -1q-10 -1 -16 -17q-7 -18 -10 -21q-2 -2 -23 -17q-14 -11 -13 -20z" />
<glyph unicode="O" horiz-adv-x="624" d="M31 137q-2 -12 2 -21q7 -15 7 -18q1 -2 3 -24q2 -10 11 -21q4 -6 5 -9q1 -4 14 -4q30 0 68 28q17 12 32 24t31 23q25 14 44 23.5l32 15.5l29.5 25t20.5 19q3 3 40 30q24 18 37 33q4 8 6 14q21 19 33 27q4 7 6.5 12t3.5 9q9 5 11 6q8 10 13 18l8 13l22 29t16 20 q13 29 21 51l13 36q13 22 19 31q2 8 5 18t5 24q10 55 -4 111q-19 73 -51 73q-10 1 -16 0q-28 7 -24 7q-9 0 -25 -7q-22 -11 -25 -11q-8 -1 -14.5 -1.5t-10.5 -0.5q-21 -10 -31 -18l-26 -10.5t-19 -6.5l-12 -12t-8 -9q-9 -4 -15.5 -6.5l-11.5 -4.5q-15 -15 -21 -24l-19 -12.5 t-13 -9.5q-9 -7 -18 -32q-9 -23 -18 -33q-13 -11 -24 -16q-16 -22 -20 -32q-17 -15 -24 -20l-8.5 -21t-4.5 -15q-1 -2 -13 -14q-7 -7 -9 -20q-3 -18 -19 -42q-17 -26 -18 -40q-1 -7 -1.5 -12.5t-0.5 -9.5q-5 -14 -10 -24t-9 -16q-2 -14 -2.5 -25t-1.5 -18q-5 -26 -9 -39 q-3 -13 -1 -18q5 -14 3 -20q-2 -8 -2.5 -13.5t-1.5 -9.5zM136.5 260.5q0.5 12.5 2.5 23.5l12.5 47t10.5 33q0 3 1 4v3q2 10 3 16.5t2 11.5q9 16 15 24q4 8 14 42q7 24 17 42l24 33t18 23q32 53 38 58q18 13 27 18q4 6 6 10.5t4 7.5q31 39 84 41q51 1 66 -34q4 -13 4 -23 q4 -7 7.5 -11.5t5.5 -8.5q3 -18 3 -27q0 -3 4 -8t3 -9l-7 -17.5t-6 -12.5q-3 -18 -3 -27q-2 -9 -12 -27l-16 -27q-13 -32 -21.5 -56.5t-13.5 -41.5l-22.5 -30.5t-17.5 -21.5q-7 -10 -11.5 -18l-7.5 -13q-12 -12 -16 -15q-5 -7 -7 -14l-13 -9t-11 -7l-30 -39q-56 -45 -84 -62 q-8 -5 -14 -9.5t-11 -7.5q-5 -1 -9 -1h-5q-22 -1 -28 21q-1 4 -1 14q0 11 -1 28q-1 13 -1.5 25t-1.5 25q-1 14 -0.5 26.5z" />
<glyph unicode="P" horiz-adv-x="1097" d="M6 799q0 15 5 26q12 30 105 77h-1q6 -3 18 -3q-1 -1 -1 -5q0 -5 -1 -8q0 -2 -4 -6q-3 -2 -9 -8q-2 -2 -4 -5t-4 -7q-3 -4 -5 -13q-4 -25 11 -48q13 -21 38 -32q44 -19 118 -19q29 0 59 3l30 12q46 1 138 15q4 2 10.5 5t14.5 5t20 3t28 0q9 0 16.5 -0.5t14.5 -0.5 q6 1 10 1q5 0 9 1q5 1 11.5 2.5t14.5 4.5q18 5 31 5h23q4 -1 7 -1h6h10h21q7 1 14 1q8 0 17 1t17 1h15q7 1 12 1h10q23 0 67 -3q2 -1 4.5 -2t5.5 -3q2 -2 5.5 -3.5t7.5 -3.5q5 -1 11.5 -1.5t14.5 -2.5q16 -2 35 -6q5 -2 20 -12q12 -5 27 -5q13 0 17 -4q4 -6 7 -9q7 -2 13 -6 q4 -2 8.5 -4t9.5 -4l9 -11.5t12 -14.5q2 -1 6.5 -2.5t10.5 -5.5q17 -18 28 -61q11 -44 11 -80q0 -35 -12 -59q-14 -11 -36 -33q-6 -11 -21 -33q-5 -2 -12 -8l-17 -14q-5 -8 -13 -17t-19 -20q-3 -1 -13 -5q-8 -2 -18 -6q-4 -4 -11.5 -10l-18.5 -15q-2 -1 -5.5 -2t-8.5 -3 q-10 -2 -20 -6q-2 -2 -5 -4.5t-7 -5.5q-8 -5 -18 -12q-3 -1 -13 -5q-8 -2 -18 -6q-48 -24 -49 -24q-27 -12 -50 -12q-20 0 -44 11l5 14q21 -1 64 3q3 2 6.5 5t8.5 6q9 4 21 12q1 1 8 -1q6 0 23 11q20 13 22 15q11 4 23 9q15 5 31 13q7 3 13 9.5t12 14.5q16 22 21 27 q1 1 4.5 2.5t8.5 5.5q5 13 15 29q2 2 6.5 5.5l10.5 8.5q12 15 26 47q14 34 14 49q0 7 -5 17q-2 4 -3 7.5t-2 7.5q1 4 1 15q-1 4 -1.5 9t-1.5 10q-4 3 -19 18q-1 3 -1 6q0 4 -2 8q0 6 -5 18q-2 1 -8 3q-2 1 -4.5 2t-4.5 2q-2 2 -4.5 5.5t-6.5 7.5l-17 17q-8 5 -20.5 10 t-29.5 9l-13.5 2t-13.5 3t-13.5 3l-13.5 2q-10 1 -34 15q-19 8 -45 8q-17 0 -30 -0.5t-21 -0.5h-14h-7q-3 0 -8 1t-10 1q-4 0 -9 2q-5 0 -9 0.5t-9 1.5t-9 1h-6q-8 0 -20.5 -2t-31.5 -6q-18 -5 -31 -5q-7 -2 -12 -2h-9h-11q-6 0 -14 2q-8 0 -13.5 0.5t-9.5 0.5q-15 0 -28 -5 q-8 -5 -12 -5q-2 -2 -4 -2t-4 -1q-3 -1 -34 -1q-17 0 -36 -8q-5 -2 -10 -4.5l-9 -4.5t-7 -2.5t-5 -1.5q-10 -2 -20 -2q-6 -1 -13 -1.5t-15 -0.5q-34 0 -47 -4q-2 -1 -5 -2t-7 -3q-8 -4 -16 -5q-5 -1 -13.5 -2t-21.5 -1q-12 -2 -29 -2h-36q-60 0 -78 5q-14 5 -26 14 q-13 11 -22 23q-10 14 -15 28q-5 15 -5 29zM368 -97q1 1 1 6l3 12q5 3 9.5 6t9.5 5q8 5 23 5h8t13 -1t13 -1h10q3 0 7.5 0.5t9.5 1.5q9 1 27 19q14 14 22 27l2.5 12t6.5 17q6 14 13 27.5t14 29.5l14 32.5t15 33.5q-1 3 -1 12q-1 5 -1 17q2 8 22 27q19 18 24 24 q13 22 23.5 57.5t18.5 84.5q3 14 -4 32q-6 16 -6 27q0 7 5 25l14 48q7 22 14 38q11 24 22 35q33 33 56 34q25 2 17 -31h1q-1 -3 -1.5 -6.5t-2.5 -7.5q-2 -8 -6 -18l-4.5 -15.5t-6.5 -19.5l-6.5 -23t-8.5 -26q-2 -4 -4 -7.5t-4 -8.5t-4.5 -10t-4.5 -10v-13q-1 -4 -1 -8t-1 -9 q-1 -3 -2 -6.5t-3 -8.5q-2 -4 -4 -9l-4 -10l-5 -12l-4 -10q-4 -10 -5 -13q-22 -79 -81 -232l-17 -32.5l-18 -33.5l-18 -34l-19 -36q-2 -2 -3.5 -4t-3.5 -4q-2 -3 -8 -9q5 -1 11.5 -1.5t13.5 -0.5q7 -1 14.5 -0.5t15.5 0.5q86 3 126 13q-1 -1 -1 -4q1 -3 0 -7q-1 -9 -44 -24 q-36 -13 -52 -13q-9 0 -19 3q-8 1 -12 3q-2 1 -5 1q-2 0 -4 1q-3 1 -12 1h-17h-16q-5 -1 -11 -1h-10h-22q-5 -1 -9 -1h-7q-9 0 -28 3q-9 1 -16 1.5t-12 0.5q-10 0 -20 -6q-9 -6 -14 -6h-8l-8 2q-1 1 -3.5 3t-6.5 6z" />
<glyph unicode="Q" horiz-adv-x="719" d="M-309 -196q1 4 3 14q1 10 58 36q14 6 24.5 11l18.5 9q16 7 27 9q-3 -1 24 -1q3 0 11 3q5 1 15 5q4 2 7 3t7 3q4 1 6.5 1.5t4.5 0.5q8 -1 18 -0.5t22 1.5q25 2 56 6q4 2 8.5 5t9.5 6q10 4 24 12q7 0 24 3q13 3 36 19q22 15 35 15q6 0 30 19l12 10t9 8l6 4.5t3 2.5 q9 1 24 9q9 9 32 29l42 27q12 8 25.5 18.5l29.5 23.5q3 5 7 10.5l9 12.5l10 14.5t12 15.5l6.5 4.5t8.5 6.5l9 6.5t10 8.5q1 2 3 5t4 7t4.5 8t6.5 9q2 2 8 5q4 1 8 5q2 3 4 6.5t4 8.5t4.5 10t6.5 11q15 13 32 36q1 1 3 17q2 4 6 8q2 2 3.5 4.5t3.5 6.5q1 3 2.5 9t5.5 14 q11 11 31 45q1 3 1 11q1 3 1 5t1 4q2 10 13 22q11 15 14 28q1 3 1 14q1 5 1.5 10t1.5 10q1 6 6 15q2 5 3.5 10l3.5 12q3 19 0 49q-3 33 -12 46q-5 1 -12 6q-2 4 -6.5 9.5t-12.5 13.5q-16 13 -48 13q-48 0 -83 -32l-18 -24q-5 -7 -11 -14.5l-14 -17.5q-5 -3 -9 -6l-9 -7 q-1 -4 -6 -10q-2 -2 -4 -5.5t-4 -7.5q-11 -9 -30 -30q-19 -22 -29 -45q-2 -6 -2 -12q-2 -3 -2.5 -6.5t-2.5 -8.5q-6 -6 -9 -10q-2 -2 -5 -5.5t-7 -7.5l-2 -8t-3 -9t-3.5 -11t-4.5 -13q-5 -11 -10.5 -24.5l-13.5 -32.5q-1 -2 -1 -6q0 -3 -1 -7t-1.5 -8t-1.5 -9q-1 -3 -5 -13 q-2 -4 -3.5 -9t-3.5 -10q3 -11 3 -35q-1 -2 -2 -5.5t-1 -7.5q-2 -6 -4 -17q-2 -12 1 -16l3 -9l2 -4q1 -5 1 -9t2 -9q0 -5 4 -15q3 -8 9 -12q5 -4 17 -4q1 0 31 3l2 -9q-7 -5 -14 -9l-15 -9l-15 -9t-14 -9q-40 -25 -58 -25q-20 0 -27 18l-6 18t-5 18q-6 7 -13 23q-2 11 0 32 q1 10 3 23t4 29q1 12 6 30l4.5 18.5t6.5 21.5q2 2 4 4.5t4 4.5t4.5 5.5t4.5 7.5q4 9 6 36q3 16 12 24q14 12 15 15q2 9 6 20q2 5 4 12t4 15q6 5 14 14q4 5 9 10t10 11q1 7 6 13q7 4 18 15q10 10 27 36q4 7 7.5 12.5l6.5 10.5q6 9 11 14q13 8 46 36l13.5 11.5l16.5 14.5 q18 13 42 33q6 6 10 9l6.5 4.5t7.5 6.5q15 8 35 11q7 2 12.5 2.5t10.5 1.5q4 1 7.5 2t5.5 2q1 1 12 6q5 2 11.5 5l16.5 8q24 11 44 11q50 0 77 -64q21 -46 13 -92q-4 -7 -9 -20l-5 -12t-5 -15q-1 -5 -2 -13.5t-3 -19.5q-3 -19 -20 -49l-21 -34l-7 -11q-3 -14 -13 -34 q-7 -3 -19 -30l-8 -10t-9 -10t-10 -11.5l-10 -13.5l-4.5 -6.5t-5.5 -8.5q-2 -5 -5.5 -10t-7.5 -10q-2 -1 -4.5 -3t-5.5 -4q-5 -5 -12 -9q-4 -8 -18 -26q-7 -3 -22 -17q-4 -7 -9 -15t-13 -18q-2 -2 -5 -4t-7 -4t-7.5 -4.5t-7.5 -6.5q-20 -23 -63 -63q-6 -4 -13.5 -8l-16.5 -9 q-8 -5 -18.5 -11t-21.5 -13q-3 -2 -6.5 -5.5t-8.5 -7.5l-10 -8t-12 -9q-2 -1 -4 -1t-5 -2q-3 0 -5 -1l-4 -2l-12 -12q-3 -3 -7 -6.5t-9 -7.5t-12 -8l-15 -9l-16 -10.5t-19 -11.5q-8 -5 -21 -12t-30 -18q-7 -3 -10 -6q1 -1 1 -3h1v-1q-2 -5 -6 -9q6 -2 27 -8t58 -15 q2 -1 4.5 -2t6.5 -3q4 -1 14 -5q-2 1 23 1q8 0 20 -6q9 -5 17 -7h28q7 0 15 -5q4 -2 6 -3.5t4 -2.5q-2 1 32 1q19 0 51 -9l18 -5.5l15 -4.5q6 -2 10.5 -2.5t6.5 -1.5q16 0 45 -3q2 -1 4.5 -2t5.5 -3q4 -1 14 -5q20 -3 42.5 -5.5t47.5 -4.5l52 -4t56 -2h87q1 0 11 -2 q4 -1 6.5 -1.5t4.5 -0.5q143 0 219 55l5.5 5.5t8.5 7.5l10 8l11 9q10 4 25 17q22 25 29 68q1 9 0 13q-2 5 -3.5 7.5l-1.5 2.5q-1 7 -5 16q-4 10 -5 15q-8 11 -35 11h-8t-12 -2q-11 0 -34 -5v3h-6l2 10q37 17 63 17q22 0 58 -19q34 -18 39 -35q-2 -8 0 -21l5 -17q4 -6 2 -18 l-2 -4q-6 -27 -92 -81q-73 -47 -115 -63q-3 -1 -10 -1h-7q-3 0 -7 -1q-20 -11 -60 -24q-20 -2 -48 -3q-14 -1 -31 -3t-37 -4q-2 -1 -4 -1t-6 -2q-4 0 -16 -5q-20 -5 -26 -5q-3 0 -6.5 0.5t-8.5 1.5l-8 2t-9 3t-9 3t-9 2t-8.5 1.5t-6.5 0.5q-4 0 -9.5 -0.5t-13.5 -1.5 t-13.5 -1.5t-9.5 -0.5q-29 0 -62 3q-16 1 -33 3l-35 4q-12 4 -37 9q-11 2 -24 5t-27 5h-15q-7 0 -15 1t-16 1.5t-16 1.5q-14 7 -22 7h-8t-13 -1t-14 -1h-9q-20 0 -31 13q-11 12 -31 12q-11 0 -20 -0.5t-14 -0.5h-7q-16 0 -53 14t-55 14h-11t-14 -2q-8 0 -13.5 -0.5 t-9.5 -0.5q-3 0 -6.5 0.5t-8.5 1.5l-8 2t-9 2t-9 2l-8 2q-10 2 -13 2l-12 -3q-6 -1 -15 -3t-21 -4q-4 -1 -8 -1t-9 -2q-9 0 -24 -5l-15 -9q-6 -2 -15 -3q-5 -1 -10 -1.5t-12 -2.5q-19 -4 -34 -7.5t-26 -5.5q-20 -4 -32 -4q-13 0 -15 1z" />
<glyph unicode="R" horiz-adv-x="844" d="M-67 -59q12 12 36 26q13 4 72 4q63 0 107 80l14 33.5t15 33.5t15 33.5l14 33.5q23 34 54 97q5 15 3 23q-3 13 -2 17t2 8.5t3 9.5t3.5 12t4.5 15q5 14 9.5 24.5t8.5 18.5l5 7.5t7 9.5q3 5 8 11l11 13q17 20 31 56q2 5 3 10t1 10q0 9 -4 17q-3 9 -3 12q0 12 22 31 q2 1 5.5 3t8.5 4t11 5.5t14 7.5q31 16 36 16q6 0 10 -4q3 -3 6 -3q-1 -5 -2.5 -10t-3.5 -10l-12 -27q-4 -8 -9 -16.5l-11 -19.5q-14 -22 -21.5 -38t-11.5 -26q-1 -4 -3 -9.5t-4 -12.5t-4.5 -14.5t-5.5 -15.5q-2 -4 -3 -8t-3 -9q-6 -6 -10 -14q-2 -5 -5.5 -10t-6.5 -11 q-5 -8 -1 -13q6 -5 6 -7q44 0 85 3q40 3 58 9q15 4 54 27l9 4.5t10 5.5t12 6t15 8q16 9 38 30.5t52 55.5l15.5 17.5t14.5 17.5q12 16 12 43q0 52 -39 66q-10 2 -29 2q-15 0 -36 12q-11 6 -19.5 9.5t-16.5 3.5h-8t-9 -2q-5 0 -10.5 -1t-12.5 -2t-13 -2t-11 -1q-5 -2 -9 -2h-6 q-10 0 -22 5t-20 5q-9 0 -25 -3q-8 -1 -14 -1.5t-10 -0.5q-5 0 -13.5 0.5t-19.5 1.5t-19.5 1.5t-15.5 0.5h-20q-2 -1 -6 -2t-9 -3q-11 -3 -17 -3q-29 0 -51 12q-2 0 -9 9q-3 3 -22 3h-16q-3 -1 -10 -1h-7q-18 0 -26 5q-4 3 -6 5l-4 4l-3 3q-6 2 -10 3q-3 1 -6.5 2t-7.5 2 q-12 10 -12 32q0 6 1 13.5t4 15.5q22 60 127 101l12 -7l-14.5 -30t-11.5 -26q-10 -26 -7 -35q2 -8 11 -13l4 -2t4 -3q4 -4 7 -5q39 -30 117 -39q11 -2 25 -2t31 -2q17 0 37.5 -0.5t44.5 -0.5h21q7 0 16 0.5t20 0.5h58h34q8 -3 22 -7t34 -8q7 -2 14 -2t14 -1t13 -1q7 0 14 -1 q32 -5 47 -18q11 -9 17 -59q2 -10 3 -13t-2 -14q-11 -29 -51 -75q-20 -23 -37 -39t-30 -24q-3 -1 -13 -5q-6 -1 -17 -6q-5 -5 -12.5 -11.5t-17.5 -13.5q-9 -7 -20 -14.5t-24 -15.5q-19 -5 -38 -12q-10 -4 -21 -8t-22 -9l-2 -4t-3 -5q-1 -5 -5 -9l15 -15l10 -10t10 -12 q3 -3 5.5 -8t6.5 -10l6.5 -11t7.5 -14l14 -25.5t11 -16.5l12 -12q3 -4 6.5 -8l7.5 -9q2 -5 6.5 -12l9.5 -15l10.5 -17.5t13.5 -20.5l25 -37.5t17 -28.5q2 -2 5 -12q2 -5 3.5 -11t4.5 -14q7 -21 18 -32l11 -9l13 -11l32 -29q1 -3 7 -11l4.5 -6.5l5.5 -7.5q2 -1 5 -2l6 -2 q7 -2 14 -6q4 -4 7.5 -8t7.5 -8q8 -8 25 -8q46 0 128 38q2 1 8 5q4 1 10 6h4q2 0 8 -2t9 -2q-3 -8 -16 -18q-15 -11 -46 -20q-11 -3 -19.5 -5t-14.5 -4q-14 -4 -15 -4q-6 -5 -15 -9q-5 -2 -10 -4.5l-11 -5.5q-20 -6 -54 -6q-33 0 -45 6q-3 4 -12 15q-2 1 -5 1t-6 2 q-5 0 -13 5l-4.5 6.5l-5.5 7.5l-6.5 9t-8.5 10q-9 2 -25 11q-5 4 -6 18q-1 13 -8 16q-3 2 -7.5 4t-10.5 6q-5 4 -11 11.5t-11 20.5q-2 7 -5.5 17.5l-8.5 26.5q-11 10 -24 33q1 3 1 13q-1 4 -1 7q0 4 -1 9q-3 3 -6 4q-5 1 -9 6q0 11 -4 23q-3 6 -13 12q-13 6 -16 10 q-3 9 -14 32q-2 2 -5 4.5t-7 5.5t-7.5 6.5t-8.5 7.5q-10 11 -16 21t-10 18q0 15 -7 29q-5 2 -12.5 4.5t-18.5 6.5q-2 6 -9 15q-8 5 -20.5 8t-29.5 4l-57 3l-16 1l-4 -4q-4 -2 -8 -6q-5 -3 -9 -15q-2 -6 -4.5 -14.5l-5.5 -19.5q-3 -9 -8 -21.5t-12 -28.5l-15 -34.5l-18 -41.5 q-11 -26 -21.5 -46l-18.5 -35q-15 -28 -24 -40q-4 -2 -8.5 -5.5t-11.5 -8.5q-2 -4 -4.5 -10.5t-7.5 -14.5q24 -2 42 -4t31 -4q25 -3 30 -3q20 0 41 3l21 12l13 6.5l15 7.5q3 1 13 1q7 1 18 3q-2 -2 -2 -4l-1.5 -7.5t-0.5 -3.5q-60 -26 -66 -27q-39 -17 -66 -20q-5 -1 -11 -1 h-14q-13 -1 -35 -3q-2 -1 -7 -2t-12 -3q-14 -3 -21 -3q-25 0 -47 12l-6 6q-3 5 -8 5q-2 0 -5.5 -0.5t-8.5 -1.5t-8 -1.5t-5 -0.5h-7q-3 0 -8 1t-18 1q-5 1 -10 1q-4 0 -9 1q-4 1 -7 1h-7q-11 0 -24 -5q-11 -4 -15 -4q-6 0 -9 5q-1 3 -4 6z" />
<glyph unicode="S" horiz-adv-x="763" d="M8 279q0 6 1 8q2 12 13 23q15 15 18 21q1 3 5 13q2 9 6 19q2 2 34 25q31 22 36 24q6 2 11 2q4 1 6 1t4 1q0 -4 3 -8q2 -6 1 -8q-2 -8 -9 -15l-13 -13q-21 -30 -21 -65q0 -4 14 -52q26 -85 95 -113h9q2 -1 4 -1q3 0 6 -1l5 -5q1 -2 6 -7q5 -1 14 -2.5l20 -3.5q4 -2 9 -6 q2 -2 5 -3.5l7 -3.5q24 -10 51.5 -15t58.5 -3q47 1 136 18l5 14l-4 2t-5 3q-7 3 -6 7q1 2 1 3v2q1 2 1 3q3 3 19 10q10 0 30 3q9 4 18 15l7.5 9.5l7.5 9.5q4 2 9 7l12 12q13 13 19 51q3 15 1 28l-15 27l-5.5 16.5l-8.5 24.5q-3 3 -6 4q-4 2 -8 6q0 2 1 3v3q1 4 -12 15 q-4 3 -9 8l-4 4q-2 6 -4 9q-1 2 -6 11q-12 15 -21 21q-9 2 -25 9q-4 10 -13 20q-2 1 -5 1t-6 2q-6 0 -14 5q-9 6 -14 23l-5 18t-3 9q-1 1 -5 4.5t-12 11.5q-11 11 -10 19q1 3 2.5 8.5l3.5 13.5q9 34 15 38l8 4t9 4t9 4t9 4q4 2 8.5 5.5l9.5 7.5t11.5 8t13.5 9q4 2 10 4t14 4 t17 4t20 4q22 4 37 6t25 2q34 0 51 -14l2 -2l3 -3q2 -4 3 -5q-3 -3 -10 -16q-8 -1 -15.5 -1.5t-14.5 -0.5q-7 -1 -13.5 -1.5t-13.5 -0.5h-14h-9q-4 0 -9 1t-10 1h-9q-4 1 -8 1h-5h-7q-4 0 -9 -1l-12 -2q-10 0 -20 -18q-8 -14 -9 -27q-3 -19 1 -26q2 -2 4.5 -5.5t6.5 -8.5 q4 -7 14 -20q8 -13 21 -26q3 -1 11 -5q2 -2 5.5 -4t7.5 -4q13 -18 45 -51l12 -6q4 -2 7.5 -4.5t7.5 -6.5q1 -3 5 -9q1 -2 6 -11q7 -5 14.5 -14t15.5 -20q1 -8 6 -26q6 -6 12 -22q1 -3 1 -18q-2 -14 -3 -36q-7 -42 -15 -53q-8 -6 -17 -15l-12.5 -13t-16.5 -19q-2 -8 -12 -24 q-10 -11 -50 -33q-20 -11 -33.5 -16t-19.5 -5q-4 0 -6 1h-6q-6 0 -19 -7q-16 -9 -20 -10q-60 -21 -82 -21h-8q-6 0 -10 1h-19q-17 0 -39 -7t-39 -7q-7 0 -15 4q-5 2 -8 3t-5 2q-3 1 -7 1q-3 0 -8 1q-9 1 -21 3q-10 5 -24 10t-33 10h-31q-23 0 -33 10q-11 10 -16.5 14.5 t-6.5 5.5q-4 1 -7.5 1.5t-8.5 2.5q-9 2 -19 6q-4 1 -30 35q-24 31 -24 36q1 5 1 21q1 13 0 30q-2 7 -7 15q-6 9 -6 16z" />
<glyph unicode="T" horiz-adv-x="644" d="M-201 -5q0 7 2 15q0 14 3 28q6 35 18 53q4 5 8 11t9 11t9 11t9 11q2 9 11 18q3 1 10 1q4 1 14 3q0 -4 3 -10q3 -5 2 -12q-2 -8 -11 -20l-5.5 -7.5t-4.5 -5.5q-4 -6 -5 -7l-6 -14.5t-5 -16.5l-4.5 -18.5t-4.5 -21.5q-3 -15 -3 -28q-2 -6 -2 -11v-11q0 -40 24 -56 q21 -15 81 -21q28 -3 57 -3q92 0 168 29q4 1 9 6q2 2 4.5 3.5t6.5 3.5q8 2 17.5 5t20.5 7l24 8.5t28 11.5q6 6 13.5 12.5l17.5 14.5q13 6 33 18l19.5 13.5t23.5 15.5q2 5 5.5 10.5t8.5 12.5q7 13 21 30q2 2 5.5 4t7.5 5q4 2 8.5 5.5l9.5 7.5q11 12 18 43q4 17 7 28.5t7 16.5 q2 6 9 13l7 9t9 10q16 16 19 35q1 3 1 13q1 4 1.5 8t1.5 9q1 10 12 25q8 12 10 23q0 2 2 12q1 3 1 6q0 4 1 9q1 6 5 13t10 15q13 17 14 30q1 3 1 6q0 4 1 9q1 9 3 21q1 7 6 15q2 4 4.5 7.5l5.5 7.5q2 4 5 7.5t5 7.5q4 7 6 17q0 10 0.5 24.5t2.5 34.5q1 10 6.5 24t14.5 33 t15 33q2 7 4 12.5t3 10.5q-2 3 -5 6t-5 6q-5 6 -27 6q-3 0 -7.5 -0.5t-9.5 -0.5q-11 -3 -23 -3q-11 -3 -22 -3q-5 -2 -10 -2h-7q-12 0 -27 7t-27 7q-8 0 -26 -3q-8 -1 -14.5 -1.5t-11.5 -0.5h-44q-11 0 -36 5q-23 5 -33 5q-6 0 -21 -5t-21 -5h-8q-4 0 -10 1t-11 1h-7 q-36 1 -55 -21q-4 -7 -8 -13t-8 -13t-8 -13t-8 -13q-11 -18 -38 -40q-31 -27 -46 -30q-1 -1 -6 -1q-23 0 -20 1l2 16q4 33 21 45q10 8 21 15.5l22 15.5l11.5 11.5t14.5 13.5l17 15l20 18q16 6 51 18q5 4 11.5 7.5l14.5 7.5q8 3 16.5 7l19.5 9q28 7 73 12q22 2 48 3.5t55 1.5 h21t23 -1q11 -1 23 -1q13 0 26 -2q4 0 11 -1t17 -2t22 -3t26 -4q25 -5 43 -5q10 -2 18 -2h16q31 0 48 4q16 10 43 10q17 0 24 4q13 10 17 12q42 17 119 17v-1q83 0 99 -10q4 -4 6 -13q1 -4 1 -10q0 -4 1 -5q-78 -32 -114 -32h-11q-6 0 -14 2q-8 0 -14.5 0.5t-11.5 0.5 q-19 0 -28 -6q-7 -5 -11.5 -6.5t-6.5 -2.5t-57 -1q-13 0 -28 -3l-6 -4q-4 -2 -8 -6q-4 -8 -7.5 -17t-7.5 -17t-7 -16.5t-7 -16.5q-17 -39 -21 -67q-5 -27 -12 -78q-1 -12 -9 -35q-10 -10 -20 -35q-2 -11 -3 -30l-2 -6t-3 -7t-3.5 -7.5t-4.5 -7.5q-14 -20 -15 -27 q-1 -2 -1 -5q0 -2 -1 -6q-1 -3 -1 -7q0 -3 -1 -7q0 -6 -4 -11q-3 -3 -9 -11t-9 -11q-2 -2 -3 -4l-2 -4q-1 -4 -1.5 -8t-2.5 -9q-1 -8 -6 -22q-3 -6 -9 -16q-2 -4 -5.5 -8.5l-7.5 -9.5q-7 -8 -11.5 -14l-7.5 -10l-4.5 -6t-2.5 -3q-7 -14 -18 -31l-25 -39q-4 -2 -8.5 -5.5 l-9.5 -7.5l-10.5 -8.5t-12.5 -9.5l-4.5 -6.5t-5.5 -8.5t-6.5 -10t-7.5 -10q-28 -31 -90 -64l-25 -13t-24 -13t-24 -13l-25 -13q-13 -10 -40 -25q-17 -2 -50 -9q-2 -1 -6 -2.5t-9 -5.5q-11 -6 -14 -6h-10q-8 0 -33 -11l-24.5 -10t-13.5 -5l-23 -4l-24 -4q-23 -3 -48 -3 q-56 0 -85 10l-14 7l-27 13q-32 16 -36 21q-16 19 -16 77v16z" />
<glyph unicode="U" horiz-adv-x="1084" d="M-26 282q5 -10 6 -11q85 32 98 60q1 2 4.5 13t11.5 31q12 32 18 38q4 4 10 5q39 41 58 72q11 24 14 35q10 17 27.5 36t43.5 41q49 42 88 56q17 4 29.5 5.5l20.5 2.5q6 2 13 8t15 6h7q3 -1 7 -1q7 0 23 8q15 7 21 9q14 3 31 5t37 2h21t15 -1q-5 -11 -8 -20l-5 -15 q-15 -15 -24 -21l-12 -17.5t-8 -12.5q-15 -11 -27 -19t-20 -12q-17 -18 -29 -32l-20 -24l-25 -20t-19 -14q-4 -7 -6.5 -12t-3.5 -9q-7 -17 -39 -52q-26 -29 -33 -54q-11 -39 -15 -46q-14 -14 -23 -20q-10 -14 -17.5 -30.5t-12.5 -35.5q-4 -14 -6.5 -24.5l-4.5 -18.5 q-3 -15 -18 -37q-8 -11 -12.5 -20.5t-6.5 -16.5q-2 -8 -2 -10q0 -6 5 -14t5 -17q0 -10 -4 -22q-6 -21 -6 -23q0 -7 8 -21q3 -3 3 -6q2 -2 2 -3t1 -2q7 -7 27 -7q38 0 81 23q2 6 6 8q14 4 25 6.5t21 3.5q34 15 49 25q22 7 38 11t27 6q37 21 56 35q13 5 22.5 8l15.5 5l26 19.5 t18 14.5q21 10 34 13q10 7 49 49q36 39 47 42q10 2 15 2q29 -2 29 -33q0 -14 -4 -26q-7 -26 -18 -43q-3 -4 -13 -13q-7 -5 -11 -22l-5 -22t-4 -16q-6 0 -7 -4q-1 -2 2 -13q3 -17 3 -26q4 0 10 -3q6 -2 8 -2l2 1l1 4l28.5 8t28.5 9q43 13 48 29q1 4 -3 12q-2 3 -3.5 6t-3.5 5 q-5 12 -5 27q0 6 1 14.5t3 19.5q2 14 3.5 22.5t1.5 11.5q11 100 22 141q10 42 29 72l22 33l22 33q16 30 27 52.5t18 38.5l17.5 21t13.5 14q16 24 27 63q10 37 5 56q-8 13 -13 18h-17q-10 0 -53 -30q-43 -29 -47 -39q-2 -5 -3 -6q-1 -11 -2 -19t-1 -13l-5 -12t-9 -16 q-12 -20 -13 -28l-1 -5l5 -13q-1 -13 -3 -28.5t-7 -32.5q-2 -7 -4 -12t-4 -9q-11 -14 -21.5 -24.5t-18.5 -17.5l-35.5 -40.5t-26.5 -28.5q-9 -15 -15 -26q-7 -5 -12 -8t-9 -5q-10 -10 -20 -34q-5 -13 -10 -21t-9 -13q-22 -17 -32 -23q-11 -15 -16 -25l-29.5 -23.5 t-22.5 -14.5q-11 -11 -18.5 -20l-12.5 -15q-21 -14 -49.5 -28t-65.5 -28q-78 -29 -117 -29q-16 0 -22 2q-10 10 -13 18q-14 18 -14 50q0 35 18 79l17.5 27.5l12.5 19.5l21 50.5t14 35.5q2 4 7 10.5l13 16.5q10 13 15 29q6 25 9 30q36 46 57 65q20 30 27 43q13 7 15 8 q5 5 12 13l17 19l16.5 19.5t14.5 13.5q10 7 18 11.5t13 6.5q4 5 6.5 9.5t4.5 8.5q3 6 35 35q31 28 37 31q36 11 50 11q16 7 24 12q1 1 10.5 2.5t27.5 6.5q14 3 38 17l6 18q3 16 -22 16q-22 0 -59 -18q-39 -17 -58 -17h-8q-4 0 -10 1t-11 1h-7q-12 0 -42 -11q-27 -10 -47 -10 h-21t-14 -2q-13 -5 -22.5 -9t-16.5 -8l-48 -8.5t-34 -5.5q-50 -19 -71 -30l-31.5 -10.5t-21.5 -6.5q-14 -7 -28 -17l-30 -22q-8 -7 -22 -18t-33 -28l-23 -16l-23 -16q-30 -20 -35 -37q-4 -18 -28 -42t-28 -39q-5 -19 -7 -22q-7 -7 -12.5 -12t-10.5 -9q-45 -57 -54 -93 q-3 -8 0 -13z" />
<glyph unicode="V" horiz-adv-x="399" d="M-29 -67q4 24 21 71q2 2 3.5 4.5t3.5 6.5l4.5 6.5t4.5 7.5q4 14 11.5 36t20.5 53q5 5 16 24q0 2 0.5 6.5t1.5 10.5q1 5 5.5 14.5t12.5 23.5q15 27 18 40v10q1 3 1 6q0 4 1 8q2 9 8 19l7.5 12t3.5 6q5 9 9 28q4 18 9 27l4.5 9t4.5 10t5 10.5t6 12.5q6 11 10.5 20.5 l8.5 17.5q4 7 6 12t4 9q8 18 13 33t7 27q4 22 1 32l-0.5 0.5t-2.5 1.5q-3 1 -3 5h-3q-4 0 -7 2q-2 0 -3 0.5t-2 0.5q-12 0 -27 -24q-2 -4 -5 -8t-6 -9q-2 -5 -5 -9t-5 -8l-11 -11t-13 -14q-14 -15 -30 -36l-4.5 -9t-5.5 -10q-2 -5 -5.5 -11.5l-7.5 -13.5l-7 -7q-3 -2 -9 -8 v79q2 2 3.5 5t3.5 5t3.5 5t3.5 5q4 2 19 12q2 4 4.5 10l6.5 15q9 5 34 27q2 4 5.5 9l7.5 11t8.5 13.5l9.5 15.5q5 4 10 9l12 12q6 7 13 14t15 16q24 28 32 49q1 2 2 5t1 6q2 5 4 13q5 26 35 48q1 1 4.5 3.5t10.5 6.5l16 9.5t22 12.5l5 8h17q0 -3 1 -7.5t3 -10.5q3 -13 2 -18 q-2 -4 -4.5 -8t-4.5 -9t-4.5 -10.5t-6.5 -12.5q-5 -22 -15 -49l-11.5 -31t-14.5 -36q-14 -20 -33 -57q-6 -29 -24 -87q-18 -29 -42 -90q-2 -12 4 -19l6 -6t7 -6q9 0 20 4q11 6 31 31l17.5 21t11.5 12q4 2 7.5 4.5t8.5 5.5t10 6.5l11 7.5l7 9l9 11l11 13l13 15l121 93 q3 4 6.5 7.5l8.5 8.5q5 4 10 9t12 10l11 4.5t13 6.5l33 18q2 2 4.5 5t5.5 7q7 8 16 15l11.5 4.5t14.5 6.5l16.5 8.5l18.5 9.5q7 9 24 24l12 3q4 1 7.5 2t8.5 2q7 5 14.5 9.5l15.5 9.5t17.5 9.5l20.5 9.5h5q1 -1 5 -1q6 0 20 9q4 2 7.5 4t6.5 4q6 2 7 3q9 2 28 3q24 14 67 33 q22 5 46 5q88 0 82 -34q-2 -10 -18 -20l-10.5 -7t-8.5 -5q-6 -3 -7 -4t-17 -23q-10 -14 -22 -16q-1 -1 -9 -1q1 0 -30 9q-21 6 -69 6q-66 0 -95 -10q-6 -5 -15 -9q-5 -2 -10 -4.5t-11 -6.5q-13 -3 -46 -12q-6 -4 -10 -7q-2 -2 -5.5 -4.5t-7.5 -4.5q-4 -1 -9 -3t-11 -4 q-5 -2 -12 -5.5l-15 -7.5q-4 -4 -8.5 -7.5t-9.5 -8.5t-11.5 -10t-14.5 -10q-4 -2 -10.5 -4.5t-14.5 -7.5q-20 -14 -48 -39q-23 -20 -33 -30q-5 -5 -8.5 -8t-4.5 -4q-7 -4 -14.5 -9.5t-15.5 -12.5l-18.5 -15.5t-21.5 -18.5q-8 -11 -21 -27l-14.5 -17t-15.5 -20 q-12 -8 -33 -27l-12 -21l-17 -28l-9 -9t-11 -12l-12.5 -14.5t-13.5 -16.5q-1 -2 -2.5 -7t-3.5 -13l-12 -12q-3 -3 -6.5 -7l-7.5 -9q-2 -4 -5 -9.5l-7 -12.5l-8 -14.5t-9 -15.5q-8 -6 -16 -15l-18 -20q-1 -2 -2 -6t-3 -10l-2.5 -12.5l-3.5 -17.5q-2 -8 -4 -15t-7 -14 q-10 -15 -11 -21q-3 -22 -13 -49h-4q-1 -1 -8 -7l-20 -17t-19.5 -17.5l-7.5 -7.5t-3 -5q-3 -3 -4 -5q-3 -3 -39 -17z" />
<glyph unicode="W" horiz-adv-x="494" d="M-88 28l4 8t4 9t5 10.5l7 12.5q0 15 12 45q2 2 4 4.5l5 6.5q6 8 12 14q3 7 7.5 15.5t10.5 18.5q10 19 27 45q5 5 11 13t15 19l6.5 14.5t5.5 16.5q3 8 5.5 18.5t4.5 21.5q13 68 15 74q3 19 27 62q18 34 25 62q0 10 3 25q1 7 2 15.5t3 18.5q1 9 5 20q2 5 4 9t5 8 q3 5 5.5 8.5t4.5 7.5l6 12q2 8 3 13q1 7 3 18q0 5 0.5 9.5t0.5 7.5q1 3 1 7q0 5 -7 12q-6 8 -5 14q3 15 3 14q97 41 111 41q5 0 9 -4q2 -2 3.5 -3t3.5 -2q-1 -1 -2 -11q0 -9 -3 -12q-5 -2 -9 -6q-6 -4 -10 -7q-48 -38 -59 -67q-2 -4 -4 -10q-1 -4 -3 -14q-3 -20 -6 -59 q-2 -13 -16 -33q-2 -7 -3.5 -15t-3.5 -17q-3 -9 -6 -19.5t-7 -21.5l-6 -8l-7 -9q-8 -10 -15 -22q-3 -5 -5 -12t-4 -15t-3.5 -16.5t-3.5 -18.5l-4 -21t-4 -18t-3 -14t-2 -10q-6 -10 -11.5 -20.5t-10.5 -21.5q-6 -11 -11.5 -23t-10.5 -25q0 -3 4 -10q4 -8 4 -7q12 1 39 12 q1 2 2 4.5t2 5.5q2 3 3.5 6.5t3.5 7.5l6.5 4.5l7.5 5.5q5 2 9.5 5.5t10.5 7.5q5 11 21 32q5 2 14 9q4 7 9 15l11 18l13 19.5l16 23.5l19 17.5t25 26.5q9 18 33 51q4 2 19 12q2 4 4 10t7 15q5 3 13.5 9.5t20.5 17.5q2 4 5 9t7 11t8.5 13.5t10.5 15.5q9 7 21 21l14 14t15 16 q12 15 19.5 27t12.5 22q1 3 3 11t4 13q3 25 35 48q1 1 4.5 3.5t10.5 6.5q6 4 15.5 9.5l22.5 12.5l5 8h3h14q0 -7 4 -18q2 -6 2 -11v-7q-2 -4 -4.5 -8t-4.5 -9t-5 -10.5t-6 -12.5l-6.5 -22.5t-8.5 -26.5l-11.5 -31t-14.5 -36q-15 -20 -33 -57q-6 -29 -24 -87q-18 -29 -42 -90 q-3 -11 4 -19l6 -6t7 -6q9 0 20 4q9 4 31 31q19 24 29 33l7 4.5l9 5.5t10 6.5l11 7.5l7 9l9 11l10.5 13t13.5 15l121 93q3 4 6.5 7.5l8.5 8.5q5 4 10 9t12 10q5 2 10.5 4.5t13.5 6.5l33 18q2 2 4.5 5t5.5 7q7 8 16 15l11.5 4.5t14.5 6.5t16 8.5t19 9.5q6 9 24 24l12 3 q3 1 7 2t9 2q11 9 30 19q8 5 17.5 9.5l20.5 9.5h5q1 -1 5 -1q5 0 20 9q4 2 7.5 4t5.5 4q4 1 8 3q9 2 28 3q11 7 27.5 15t39.5 18q10 2 21 3.5t25 1.5q86 0 82 -34q-2 -10 -18 -20l-10.5 -7t-8.5 -5l-7 -4q-1 -1 -5 -6.5l-12 -16.5q-12 -15 -22 -16q-2 -1 -9 -1l-30 9 q-21 6 -69 6q-66 0 -95 -10q-6 -5 -15 -9q-5 -2 -10 -4.5t-11 -6.5q-8 -2 -19.5 -4.5t-26.5 -7.5q-6 -4 -10 -7q-2 -2 -5.5 -4.5t-7.5 -4.5q-5 -1 -9.5 -3t-10.5 -4q-5 -2 -12 -5.5l-15 -7.5q-4 -4 -8.5 -7.5t-9.5 -8.5q-11 -10 -26 -20q-8 -3 -25 -12q-21 -14 -48 -39 q-23 -20 -33 -30q-6 -5 -9 -8l-4 -4q-7 -4 -14.5 -9.5t-15.5 -12.5l-19 -15.5l-21 -18.5l-21 -27l-14.5 -17t-15.5 -20q-12 -8 -33 -27q-5 -9 -12.5 -21t-16.5 -28q-5 -4 -9.5 -9l-10.5 -12l-12.5 -14.5t-13.5 -16.5q-1 -2 -2.5 -7t-3.5 -13q-3 -2 -5.5 -5t-6.5 -7 q-3 -3 -6.5 -7l-7.5 -9q-5 -6 -12 -22l-8 -14.5t-9 -15.5q-17 -13 -34 -35q-2 -2 -5 -16l-2.5 -12.5l-3.5 -17.5q-2 -8 -4 -15t-7 -14q-10 -15 -11 -21q-2 -11 -5 -23t-8 -26h-4q-2 -1 -28 -24q-27 -23 -27 -25q-1 -1 -3 -5q-2 -1 -4 -5q-3 -3 -39 -17l-18 12q4 24 21 71 q2 2 3.5 4.5t3.5 6.5q4 7 9 14q3 14 11 36t21 53q5 5 16 24v6q0 5 2 11q2 11 18 38q15 27 18 40v10q1 3 1 6q0 4 1 8q0 6 8 19l7.5 12t3.5 6q2 5 4 11.5l5 16.5q4 18 9 27q2 4 4 9l4 10t5 10.5l7 12.5l9.5 20.5l8.5 17.5q4 7 6.5 12l4.5 9q16 38 20 60q3 25 1 32l-0.5 0.5 t-2.5 1.5q-3 1 -3 5h-3q-4 0 -7 2q-2 0 -3 0.5t-2 0.5q-12 0 -27 -24q-3 -4 -5.5 -8l-5.5 -9q-2 -5 -5 -9t-5 -8l-11 -11t-13 -14q-14 -15 -30 -36l-4.5 -9t-5.5 -10q-2 -5 -5.5 -11.5l-7.5 -13.5q-4 -3 -11 -10l-14 -14q-2 -4 -4.5 -7.5t-4.5 -8.5l-6 -10t-7 -10 q-4 -4 -11 -8q-4 -2 -6 -4l-3 -3q-2 -5 -3.5 -10.5t-3.5 -10.5q-6 -4 -24 -20q-2 -2 -3.5 -5.5t-3.5 -7.5l-4.5 -9t-4.5 -10q-1 -1 -9 -7l-6 -4t-7 -4l-12 -6q-2 -2 -4 -2.5t-4 -1.5q-3 -2 -6 -5.5t-6 -7.5l-8 -8l-9 -9q-8 -4 -16 -10.5l-17 -14.5q-2 -4 -3.5 -8l-3.5 -9 l-6 -10.5t-6 -12.5q-15 -8 -36 -27q-2 -2 -3.5 -5l-3.5 -7t-4.5 -8t-6.5 -9q-35 -42 -103 -59q0 2 -4 5q-4 4 -1 13z" />
<glyph unicode="X" horiz-adv-x="685" d="M-290 -52q0 -29 52 -29q33 0 61 16l28.5 16l28.5 16q36 15 54 21q76 40 114 63q0 2 4 6q3 4 3 5q3 5 -6 5h-6q-8 -5 -14.5 -8.5t-10.5 -7.5l-47.5 -25.5t-19.5 -9.5q-35 -15 -67 -15q-29 0 -42 6q-5 2 -11 10q-5 6 -15 6q-6 0 -8 -1q-27 -13 -45 -26q-39 -21 -40 -22 q-13 -13 -13 -26zM100 96h9q5 0 22 14q8 7 13 11t7 5q14 6 24 9.5t17 5.5q19 18 26 27q15 10 26.5 17l19.5 12l48.5 39l33.5 28l18.5 12t12.5 8l11.5 11l26.5 26q28 28 40 32q4 3 8 3q2 0 3 -0.5t3 -0.5q2 -2 5 -2l4 1q7 -27 7 -46q0 -26 -10 -47q-19 -33 -31 -50 q-12 -29 -2 -59q0 -1 3 -4q2 -4 2 -6q1 -2 -1 -8q-5 -9 -9.5 -15.5t-7.5 -11.5q-5 -39 0 -59q-1 -2 -3.5 -10.5t-7.5 -22.5q-8 -23 -5 -30q6 -12 22 -12q29 0 122 41q-1 5 -1.5 9.5t-0.5 6.5q-3 2 -10 5q-8 3 -9 9q-1 7 5 28q3 10 4.5 16t2.5 9q1 15 -5 45q-6 27 -4 44 q4 19 9 30q1 13 -3 39q-5 25 -3 39q2 8 4 14.5t4 11.5q1 13 -5 37q-6 22 -6 35q0 26 16 51q19 19 30 26l32.5 32.5t21.5 23.5l22.5 18.5t16.5 12.5l14 16l10 12q11 7 20 12t15 8l29 32l44 31t32 21q18 17 31 30.5t21 22.5q8 7 21 15l30 19q33 19 49 33q11 10 17.5 17.5 t11.5 12.5q25 17 44 28.5l33 19.5q4 2 15 11l29 23q29 23 46 30q13 5 29 5h8q5 0 12 -1q6 -1 10 -1h8q28 0 111 45v3q2 3 3 5l2 4q-4 2 -8 5t-8 5q-8 5 -20 5q-10 0 -25 -6t-20 -6q-9 -2 -14 0q-7 -3 -12 -6t-9 -5q-17 -7 -30.5 -11.5l-22.5 -7.5q-29 -20 -42 -30l-50.5 -27 l-35.5 -18l-22.5 -19.5t-15.5 -14.5q-75 -56 -114 -81l-20 -23q-13 -8 -23 -13t-17 -8l-46.5 -38.5t-31.5 -29.5q-13 -8 -22 -14.5t-16 -10.5q-22 -23 -31 -37l-53 -41l-39 -28q-14 -14 -23.5 -25t-15.5 -19q-16 -11 -35 -11q-21 0 -24 45q-2 42 -3.5 62t-1.5 21 q-9 45 -47 45q-27 0 -79 -28v-1l-2 -2q-1 -2 -2 -5t-3 -7l36 -18q23 -12 28 -23q2 -8 2 -13q0 -8 -5 -31q-4 -19 -4 -29q0 -6 1 -8q2 -3 4 -5l4 -4q3 -5 4 -44q1 -42 0 -46q-5 -11 -35 -43q-14 -16 -25 -26.5l-19 -17.5q-11 -8 -20 -13.5t-15 -9.5l-48.5 -43l-34.5 -31 q-23 -17 -41 -29l-31 -20l-26 -24.5l-18 -17.5q-11 -4 -23 -11q-17 -9 -18 -13l-2 -6z" />
<glyph unicode="Y" horiz-adv-x="754" d="M-453 -317q-2 -20 7 -33l8 -14l8 -14q1 -2 3 -9t6 -19q5 -16 15 -24q9 -8 28 -9q16 -2 23.5 -2.5l7.5 -0.5q7 -1 27 -11q13 -7 39 -7q11 0 27.5 1.5t39.5 5.5t39.5 6t27.5 2q31 0 45 3q23 8 40.5 15.5l28.5 12.5l39.5 10t27.5 6q23 11 40 20t28 16q27 9 37 12l30 18 t21 14l83.5 46.5t44.5 25.5q72 44 118 89q117 112 163 215q24 53 32 90q1 19 0 28q2 8 6 19.5t10 25.5l24.5 54t18.5 39q8 17 13 29.5t9 20.5q8 20 12 25q2 3 15 16q10 10 13 18t5 14.5t4 11.5q9 19 43 59q47 54 52 61l35 49t26 35l20 25.5t8 10.5q5 14 -2 25q-11 10 -15 12 q-43 -36 -61 -57l-17.5 -13.5t-12.5 -9.5q-11 -17 -16 -28q-5 -7 -21 -20q-11 -11 -18 -25q-2 -9 -5.5 -16t-7.5 -12l-11 -9l-9 -7l-8.5 -14t-5.5 -10l-5.5 -5.5t-9.5 -8.5q-12 -12 -14 -17q-3 -5 -5 -9.5t-4 -7.5q-3 -5 -10.5 -13.5t-20.5 -21.5q-18 -19 -28 -41 q-12 -28 -19 -43t-9 -17q-3 -5 -10 -12.5t-19 -18.5q-9 -9 -15.5 -17.5t-9.5 -18.5l-2 -6l3 -12l-2 -4l-9 -20t-7 -15q-6 -11 -6 -19q0 -5 3 -14t2 -16q-3 -16 -12 -37q-2 -5 -9.5 -20t-20.5 -39q-21 -38 -26 -61q-2 -10 -3 -17t-2 -12q-26 -33 -46 -50l-15.5 -24t-10.5 -17 q-14 -13 -25 -22t-19 -14l-13 -16.5t-8 -11.5l-21 -17l-16 -12q-10 -10 -17 -18t-12 -13l-40 -24l-29 -17q-21 -11 -36 -20.5l-25 -15.5q-47 -20 -69 -27l-7 -9q-33 -9 -46 -12l-42 -16l-30 -12q-17 -2 -29.5 -3t-20.5 -1l-21 -7t-16 -5q-26 -4 -51.5 -6t-48.5 -2 q-39 0 -77 8q-43 9 -62 31q-19 23 -23 65q-2 8 -4 13q-2 8 -2 10q0 6 6 20l13.5 29.5t9.5 20.5q-3 0 -9 3t-10 3q-21 0 -34 -34q-9 -23 -12 -56zM78 24q0 -22 30 -22q21 0 47 15l45 27l63 24q13 10 19 16q10 5 19.5 11t19.5 11l21.5 12.5t16.5 12.5q11 11 18.5 19.5 t12.5 13.5q1 1 14 7q7 3 10 13q12 7 21 11t14 6q41 33 56 51q1 1 20 12q12 7 16 16q0 4 -2 6l2 2q-23 2 -36 -7l-3 -9l-10 -4q-10 -11 -12 -16l-30.5 -21t-24.5 -14q-14 -15 -17 -21l-28.5 -19t-21.5 -13l-28 -21l-28 -20q-17 -12 -31 -21t-28 -14l-1 -4q-5 -1 -12 -1 q-23 -2 -23 17q0 8 4 16q12 22 22 37.5t16 26.5q37 62 57.5 104t34.5 60q10 13 18 22l13 15q11 17 18 29l12 20l13.5 16.5t10.5 11.5q10 24 11 34l28.5 41t22.5 29q22 32 36 54.5t20 36.5l5 13.5t4 9.5l6 9l11 9q5 7 10 16q3 10 3 17q0 15 -17 15h1q-8 0 -21 -6 q-20 -10 -23 -11q-2 -1 -15.5 -4t-36.5 -9q-32 -8 -53 -18q-31 -19 -47 -32q1 0 4 -4q1 -4 9 -4t27 13q20 14 25 15q11 2 20 3t14 1q0 -3 3 -6q4 -2 2 -5q-8 -17 -17.5 -33t-20.5 -32q-2 -3 -6 -7.5t-11 -11.5q-9 -9 -15 -23q-9 -23 -14.5 -40t-9.5 -28q-7 -17 -35 -55 q-13 -18 -21.5 -31.5t-12.5 -23.5q-7 -17 -10.5 -30l-5.5 -21q-4 -4 -9 -14q-6 -7 -11 -11.5t-9 -8.5q-14 -17 -23.5 -30.5l-15.5 -22.5q-5 -5 -11 -9t-11 -8t-9 -10.5t-8 -14.5q-3 -8 -5 -14.5t-4 -10.5q-32 -47 -50 -65q-52 -68 -52 -96z" />
<glyph unicode="Z" horiz-adv-x="546" d="M-124 -126q5 -2 5 -6q2 -5 9 -5q21 0 70 28l45.5 25.5t24.5 11.5q17 5 42 7.5t57 2.5q25 0 75 -3q25 -1 43 -1.5t31 -0.5h12q8 0 19 1q11 0 19 0.5t13 0.5q14 -1 21 -1h8q8 -5 14 -9.5l10 -7.5q22 -3 39 -4t28 -1h27t37 2q20 1 35.5 1.5t25.5 0.5q32 0 60 -5l20 -9t15 -7 q16 -4 62 -9q20 -2 36 -5t27 -6l17 -10l12 -7q7 -1 12 -1h9q5 0 10.5 -0.5t13.5 0.5q9 0 15 0.5t9 0.5h13q63 -8 109.5 -15l77.5 -12h10h6q5 0 10 1q5 0 9.5 0.5t7.5 0.5q18 0 51 -18q32 -17 54 -17q10 0 30 3q17 4 28 4q16 0 48 -9q34 -8 51 -8h12q8 0 18 1q10 0 17.5 0.5 t12.5 0.5q26 0 49 -9q33 -13 43 -14q79 -7 118 -6l36.5 -9t25.5 -7q20 -2 42.5 -3t47.5 -1q17 0 40 1t52 3q35 2 58 3t34 2l5 1q3 0 7.5 -0.5t10.5 -1.5q5 -1 9 -1h8q14 0 19 6q4 6 8 7q-5 19 -12 22q-19 4 -59 6q-8 0 -19.5 -0.5t-25.5 -0.5q-16 -1 -27 -1h-18 q-12 -3 -28 1q-5 0 -17 9q-13 8 -32 8h-22q-8 -1 -13 -1h-9q-16 0 -37 7q-23 8 -36 10l-66 3.5t-47 1.5q-36 9 -55 15q-102 10 -155 12q-19 2 -59 19q-38 15 -62 15q-4 0 -10.5 -0.5t-14.5 -1.5t-15 -1h-11q-32 0 -89 16q-35 9 -58.5 14.5t-34.5 7.5l-78 6q-4 1 -19.5 5.5 t-44.5 14.5q-19 6 -35 9.5t-30 3.5q-4 0 -9 -0.5t-13 -0.5q-8 -1 -14 -1h-9q-21 0 -49 9q-20 5 -32 8.5t-16 4.5q-10 2 -20 3t-20 1h-57q-20 0 -25 2q-27 9 -36 16q-17 3 -45 3q-65 0 -72 3l-14.5 5.5t-10.5 4.5q-8 3 -41 3t-92 -10q-60 -9 -90 -9q0 2 -5 9q-4 7 -3 15 t10 15q16 6 17 9q15 21 21 33q11 11 28 25t42 31t42 31t27 25q8 8 13 15t8 12q31 21 47 28q21 24 30 36q8 11 33 28q22 15 34 27q15 19 22 33q-9 7 -10 11q-6 3 -26 3q-5 0 -12.5 -0.5t-17.5 -1.5t-17 -1h-12h-34q-19 0 -45 2q-28 1 -47.5 1.5t-31.5 0.5q-23 0 -42.5 -1.5 t-36.5 -3.5q-21 -3 -90 -41q-71 -40 -78 -55q-2 -6 -3 -10v-20q0 -8 1 -13l19 -3.5l13 -2.5q11 8 37 37q11 13 21 20.5t18 12.5q48 23 123 23q28 0 55 -10q13 -5 26 -9.5t26 -9.5q-1 -8 -1.5 -14t-0.5 -10q-3 -16 -25 -32q-8 -7 -17 -13l-18 -12l-30.5 -30.5t-21.5 -22.5 l-116 -90t-53 -44q-6 -6 -27 -35q-17 -24 -27 -30q-15 -6 -23 -6q-9 -5 -25 -19q-8 -7 -14 -11.5t-11 -6.5q-14 -5 -25 -7.5t-19 -3.5q-14 -6 -27 -18q-2 -2 -7.5 -8zM2176 -223q10 0 13 -3l-3 -2q121 12 155 27q8 5 14.5 8.5t10.5 6.5q25 6 39 6q41 20 59 33l25 7.5t25 8.5 q28 9 48 21q25 17 43 30.5t30 23.5q10 4 17 6.5t12 4.5q39 32 58 54q58 43 76 64q47 53 52 81q0 24 -3 36q3 5 1 12q-3 6 -40 16q-39 11 -49 11q-44 0 -52 -47q-3 -18 -4 -32t-2 -23q-18 -99 -103 -156q-31 -16 -47 -22q-11 -11 -19.5 -18.5t-13.5 -12.5q-55 -30 -82 -39 l-7 -10q-20 -12 -47.5 -22.5t-62.5 -20.5q-19 -5 -52 -8q-17 -2 -30.5 -4t-22.5 -4q-22 -10 -35 -17q1 -1 1 -5q-1 -2 -2 -4.5t-2 -6.5z" />
<glyph unicode="[" horiz-adv-x="283" d="M-153 -93q0 9 13 23l30 50l29 47q29 63 46 104q11 10 10 27q-1 21 2 28q18 33 25 54h-1q19 56 22 90l31.5 75.5t25.5 67.5q5 8 14 29l23 53q18 41 15 53q1 3 23 39q17 27 14 37q5 23 9.5 41.5t8.5 32.5q4 28 6.5 52l4.5 44q-2 18 7 27l19.5 20.5l19.5 19.5q16 10 24 12 l5 3q11 1 26 -7l12 -10.5t7 -7.5l3 -2q8 2 12 -1q7 -6 9 -11l4 -1q22 7 30 7q6 -2 17 6q10 6 17 6q3 0 9 -2l6 -3q-3 4 -5 2q-1 -1 6 -8q6 -3 3 -24q-3 -22 -10 -29q-8 -7 -14 -14t-13 -14q-18 -15 -39 -15q-13 0 -25 4q-9 3 -21 27q-4 7 -1 19q1 10 -9 16q-2 1 -15 -2 q-18 -5 -17 -5q-6 -6 -8 -7q-7 -7 -7 -39l-3 -4q14 -38 7 -71q-4 -11 -7.5 -18.5t-5.5 -12.5q0 1 0 -5q0 -5 1 -16q2 -15 -4 -21q-17 -22 -22 -43l-6 -39q-5 -14 -9 -20q-5 -21 -7 -25q-4 -6 -4 -9l-4 -6q-11 -11 -15 -24q-12 -22 -24 -37l-8.5 -23t-4.5 -14 q-15 -29 -42 -109q-3 -26 -2 -37l-3.5 -14t-0.5 -11q0 -13 -14 -39q-5 -15 -6 -20q-5 -7 -9.5 -14t-9.5 -14q-7 -12 -4 -33q0 -7 -9 -16q-14 -15 -14 -16q-8 -20 -14 -38l-11 -33q-19 -33 -59 -72v-5q-23 -29 -22 -38q0 -2 2 -3q0 -1 2 -3q25 -8 27 -7q16 6 20 15 q8 14 14 19q28 23 43 28q13 3 25 3q21 0 29 -15q2 -8 3 -15t3 -14q2 -9 -11 -29q-12 -20 -21 -25q-3 2 -10 -5q0 -2 5 0l-5 -1l-2 -1q-6 -3 -11 -3q-6 0 -13 7q-5 6 -11 8q-4 1 -13 0q-7 0 -14 5l-4 -1l-18 -12q-4 -3 -12 -1l-5 -1q-19 -10 -31 -18q-21 -8 -30 -7l-4 3 q-15 3 -15 12q-1 15 -6 29q-4 12 -4 15z" />
<glyph unicode="\" horiz-adv-x="560" d="M23 896q1 -1 3 -1q3 0 20 11q17 14 28.5 25l19.5 19l9 -6q-3 -6 5 -29q4 -11 7.5 -18t5.5 -10q2 -2 4 -3.5t3 -2.5l9 -2q8 35 8 44q0 11 -4 18q1 2 3 8t5 17q5 14 5 27q0 31 -33 31q-11 0 -21 -8q-10 -9 -20 -28q-11 -21 -18 -27q-14 -8 -22 -11l-4 -5q-15 -39 -13 -49z M118 786q6 -20 10 -29q1 -10 0 -23q-1 -9 -1.5 -14t-0.5 -7q0 -20 14 -39q1 -1 4 -3.5t8 -7.5q8 -8 8 -13q0 -3 -4 -10q-3 -8 -2 -11q5 -13 7 -15q17 -51 57 -113q11 -13 20 -22l16 -16q8 -11 21 -38q11 -26 21 -38l12 -15.5l12 -15.5q11 -14 13 -34l4 -7q13 -14 19 -18 l3 -4q5 -25 5 -24q2 -1 3.5 -2t5.5 -3q6 -3 6 -6q1 -22 16 -51q14 -26 15 -22q28 -31 37 -43l1 -1q11 -15 16 -25q18 -16 25 -21q6 -8 11 -28t11 -28q2 -2 6 -5t11 -7q13 -7 19 -15q19 -25 31 -68q7 -26 12 -42t8 -22q18 -11 31 -13q24 40 24 44q0 2 -3 14l-3 26l3 7 q-5 6 -6 10q-12 15 -18 24t-8 11q-5 12 -8 43l3 7q-3 10 -18 34q-12 19 -15 34l-35 27q-22 34 -36.5 54.5t-21.5 28.5q-4 8 -6.5 14t-4.5 10l2 2l-3 5q-24 27 -40 40q-20 25 -32.5 42t-17.5 27l-6 18q-3 13 -8 20q-7 7 -12 11t-9 6q-11 19 -15 30l-24 23.5l-18 16.5 q-45 57 -67 110q-5 17 -6 25l-12 15q-2 4 -4 21l-4 5l-9.5 9.5t-8.5 6.5q-10 24 -11 37q-5 9 -9.5 15.5t-7.5 11.5q-5 9 -6 48q-1 19 -3.5 35t-7.5 29l-10 -9z" />
<glyph unicode="]" horiz-adv-x="283" d="M-154 -104q0 26 11 37q8 7 15 14l15 15q16 14 37 14q13 0 25 -4q9 -3 21 -27q3 -5 1 -18q-2 -11 9 -17q2 -1 15 2q17 5 17 6q2 1 2.5 1.5t2.5 1.5l3 3q6 7 6 39l4 4q-14 38 -7 71q4 11 7.5 18.5t5.5 12.5q0 -1 0 4q0 6 -1 17q-1 12 4 21q19 23 23 44q1 10 2 19t3 19 q2 7 4 11.5t4 8.5q5 12 6.5 18.5t2.5 7.5q6 10 7 14q8 10 14 24q15 26 25 37l8.5 23t4.5 14q15 29 42 109q3 27 2 37l3.5 14t0.5 11q0 13 14 39q4 12 6 20q5 7 9.5 14t9.5 14q7 12 4 33q0 7 10 18q12 12 13 14q8 20 14 38l11 33q19 33 59 72v5q23 29 22 38q0 2 -2 3 q0 1 -2 3q-25 8 -27 7q-16 -6 -20 -15q-8 -14 -14 -19q-29 -24 -41 -27q-15 -4 -27 -4q-22 0 -29 15q-2 8 -3 15t-3 14q-2 9 11 29q12 20 21 25q2 -3 10 5q0 2 -5 0l4 1l3 1q8 2 11 2q6 0 13 -7q5 -5 11 -7q4 -1 13 0q6 0 14 -5l3 1q13 8 17 12q8 2 14 0l5 2q19 10 31 18 q21 8 30 7l3 -3q13 -3 15 -12q1 -15 6 -29q4 -12 4 -15q0 -8 -12 -23l-30 -50l-29 -47q-29 -63 -46 -104q-11 -11 -10 -27q1 -22 -2 -29q-7 -7 -15 -25q-4 -7 -10 -28h1q-19 -56 -22 -90l-31.5 -75.5t-25.5 -67.5q-7 -11 -16.5 -31t-21.5 -51q-16 -40 -14 -53q-1 -3 -23 -39 q-17 -27 -14 -37q-4 -11 -8.5 -29.5l-10.5 -44.5q-4 -28 -6 -52t-4 -44q1 -17 -9 -27l-26.5 -27t-11.5 -13q-17 -11 -23 -12l-6 -3q-12 -2 -26 9q-14 9 -18 16l-3 2q-8 -2 -12 1q-7 6 -9 11l-4 1q-22 -7 -30 -5l-7.5 -2.5t-9.5 -5.5q-11 -6 -17 -6q-3 0 -9 2l-6 3q3 -4 5 -2 q1 1 -6 8q-5 2 -5 16z" />
<glyph unicode="^" horiz-adv-x="292" d="M78 374q4 0 6 -2q8 2 14.5 2.5t11.5 1.5q9 6 22 21q15 18 16 22q13 16 22 24q14 15 24.5 25t20.5 15q6 3 10 7q3 4 6 4q5 0 18 -7q12 -5 12 -16q3 -11 6 -12q5 -2 8 -3t5 -2q7 -8 5 -14q13 -11 24 -18l19 -12q8 -11 9 -14q7 -5 42 -5q41 0 36 14q-18 22 -33 33 q-3 3 -8 12t-10 11q-4 2 -7 3t-5 2l-6.5 13l-4.5 9q-9 6 -18 10q-5 12 -6 18q-5 10 -17 19q-4 3 -7 5t-5 4v3l-1 1q0 1 -2 3h1q-2 0 -3 0.5t-3 0.5q-12 0 -34 -21l-15 -13.5l-14 -13.5q-21 -14 -37.5 -23.5l-28.5 -16.5l-2 -5q-2 -1 -4.5 -3t-7.5 -4q-4 -2 -7 -4t-5 -4 q-9 -11 -13 -18q-5 -4 -9 -7.5t-7 -5.5q-11 -21 -14 -29l-1 -1.5t-3 -3.5q-1 -4 0 -5z" />
<glyph unicode="_" horiz-adv-x="281" d="M-82 -47q1 -14 11 -33q11 -23 21 -23q13 0 33 17q3 3 8 3q20 0 30 7l2 -2q2 0 3 -1h3q4 0 11 4q7 3 11 3l2 -4q7 -3 15 -3q9 0 18 9q5 -5 12 -7l11 2l7 -4l9 5l11 -4q4 0 12 3q7 3 11 3q10 -4 23 4h1q2 0 7 -3q3 -3 5 -3q4 -2 11 5q5 5 9 5q5 0 9 -7q4 -6 8 -6q2 0 7 3 q4 3 6 3q10 -9 17 -9q2 0 5 0.5t8 1.5q11 2 15 1q2 -1 5 -2t7 -3q7 -4 13 -4q9 0 22 13t13 20q0 4 -16 13q-16 8 -20 8t-8 -3q-5 -3 -8 -3q-4 0 -10 8q-4 7 -10 7q-2 0 -9 -5q-5 -4 -10 -4q-1 -1 -10 1q-8 2 -9 2q-3 1 -9 -2q-6 -2 -8 -2t-7 5q-4 3 -11 5q-24 -12 -57 -12 l-8 3q-3 0 -7 -4q-5 -3 -7 -3l-12 7q-5 0 -20 -5t-20 -5q-2 0 -9 5q-8 4 -10 4q-12 -3 -22.5 -4.5t-19.5 -2.5l-10 6q-3 0 -10 -5q-4 -4 -9 -4q-3 0 -7 4t-11 4q-3 0 -13 -2t-12 -2t-6 3q-5 3 -7 3z" />
<glyph unicode="`" horiz-adv-x="313" d="M94 887q-2 4 0 24l3 1v-1q8 17 24 17q8 0 12 -2q27 -10 35 -22q4 -5 8 -11t7 -11q12 -19 16 -29l-1 -19l21 -21l-1 -1q11 -30 32 -52q19 -19 21 -25l3 -10l-8 -4q-18 6 -32 18t-18 13q-11 2 -14 1q-21 4 -47 24l-15.5 19t-10.5 15q-6 6 -14 10q-12 11 -10 25q1 19 0 23 q-1 3 -11 18z" />
<glyph unicode="a" horiz-adv-x="335" d="M9 38q4 8 7 35q-2 11 8 25q13 19 14 23q1 5 3 12.5l4 15.5t5.5 17.5l7.5 20.5l4.5 4.5t4.5 6.5l4.5 6.5t6.5 8.5q1 2 3 8q1 2 2 4.5t2 6.5q2 3 8 8q2 2 5 4l6 4t6 3.5t5 3.5q5 3 5 4q11 22 34 45q29 28 46 26q1 0 21 5q19 5 20 6l11 9t13 10q13 10 30 27h1q5 -2 9 -3 t7 -2q6 -2 9 -6q2 -3 4 -10q1 -3 1 -8q0 -4 1 -10q3 -32 -4 -39q-4 -5 -6.5 -9.5t-4.5 -7.5t-3 -5t-2 -3q2 -15 -8 -32q-8 -16 -20 -28q-1 -2 -1.5 -5t-2.5 -7q-2 -7 -6 -14q-1 -1 -4 -4.5t-11 -8.5q-9 -6 -9 -15q1 -2 1 -4t1 -4q2 -6 3 -10q0 -5 -3 -12l-2 -6t-3 -7t-3 -7 t-2 -7t-1.5 -6.5t-0.5 -4.5q2 -16 14 -26q14 -11 28 -11q5 0 13 5q4 2 6.5 3t4.5 1q1 0 15 -11q0 -8 -3 -24q-3 -5 -11 -8q-5 -2 -8.5 -4t-5.5 -2q-1 -2 -3 -4.5t-5 -7.5q-4 -7 -13 -10q-17 -12 -43 -12q-18 0 -37 12q-20 12 -30 12q-20 0 -60 -15l-5 -5l-10 -2 q-68 -5 -73 45zM63 60q0 -2 5 -9q2 -2 4.5 -5t4.5 -5t5 -4l6 -4q6 -3 9 -3q31 0 40 12q2 2 3 5t3 5l6 9q5 2 10 5l10 6q10 6 15 17q2 4 4 15q1 4 1 8v9v17q0 7 2 13q0 1 4 8.5l12 23.5q9 19 7 45t-23 26q-19 0 -53 -46q-32 -44 -31 -68h1v-5q-1 -1 -1 -5q-4 -2 -8 -5t-8 -8 q-8 -8 -15 -18q-4 -5 -6.5 -10t-4.5 -10q-3 -11 -2 -19z" />
<glyph unicode="b" horiz-adv-x="265" d="M8 33q3 33 16 55q5 8 9 15.5t8 13.5q7 14 8 19q3 8 6 19q1 5 2 12t2 15q4 31 12 48q2 4 5.5 8.5l7.5 9.5q7 10 18 24q1 4 2 7.5t3 8.5l4 10t4 12q2 2 3.5 5l3.5 7t4.5 8t4.5 9q1 5 1.5 11t2.5 13q1 13 6 33q5 14 24 38q13 16 16 55q2 15 8 23t8 13q1 5 1.5 11t2.5 13 q1 7 3 14.5t4 16.5q4 15 39 75q26 45 29 80q1 6 3.5 13.5t8.5 15.5q4 6 7.5 10t5.5 8q28 40 54.5 71.5t47.5 53t33.5 32.5l12.5 11l20 29l10.5 13l18.5 23q5 1 13.5 4t19.5 10q1 2 2 4.5t2 4.5q1 4 6 12l27 18q2 2 4 4.5t4 5.5q2 2 5.5 5t7.5 7q16 3 37 13q52 34 81 34 q17 0 38 -12q20 -11 26 -25q1 -2 1 -8q2 -6 3 -10q1 -1 2.5 -3t4.5 -5q7 -5 5 -13q-3 -34 -23 -58q-23 -27 -54 -27q-5 0 -10 1q-4 1 -7.5 1.5t-8.5 0.5l-8 2t-8 1q-10 2 -14 2h-18q-5 -1 -11 -1t-13 -1q-30 -3 -41 -3h-2h-3q-23 0 -24 -9q0 -1 -1 -2l-17 -11l-17 -11 l-33 -21l-13 -12t-32 -33.5t-41 -51.5t-40 -66l-10 -21t-12 -24q-3 -3 -15 -20q-2 -6 -6 -15l-4 -10t-4 -11q-6 -6 -10 -13q-2 -4 -5 -9t-5 -10v-5t1 -8q1 -4 1 -7v-4q-1 -6 -12 -20q-11 -13 -14 -36l-26 -67l-20 -50t-8 -19q-9 -14 -9 -15q0 -11 -1 -13l6 -6q10 -3 34 -3 q6 0 10 4l4 4l4 4q2 3 7 8q3 3 7 3q19 0 39 -21q19 -19 17 -41q-2 -12 -11 -28q-8 -15 -10 -27q0 -6 -3 -13q-2 -4 -3.5 -7.5t-3.5 -7.5t-3 -8t-3 -8q-3 -8 -3 -11q0 -4 -5 -11q-5 -5 -9 -12q-2 -3 -4.5 -6t-4.5 -7q-4 -7 -4 -13t-5.5 -17t-15.5 -27q-19 -31 -32 -29 q-2 -4 -4.5 -8.5l-6.5 -11.5q-3 -6 -13 -13.5l-25 -18.5q-26 -18 -28 -29h-2q-4 -2 -8 -6t-8 -10q-8 -13 -16 -18q-14 -9 -44 -9q-20 0 -29 17q-6 13 -5 35zM86 101q-2 -6 6 -12q6 -6 12 -6q7 0 15 8q1 2 5 6l6 6q12 4 32 18q20 23 44 73q2 2 3 5.5t3 7.5t4 8.5t4 9.5 q1 1 1 18q5 5 11 24q3 36 -35 36h-7l-23 -23q-6 -5 -12 -11.5l-12 -13.5q-2 -6 -2 -12q-1 -3 -2 -6.5t-3 -8.5q-3 -4 -6 -7t-5 -6q-5 -5 -3 -21l-1 -3l-6 -7q-2 -5 -3 -21q-2 -7 -10 -21q-9 -17 -10 -29l-5 -4z" />
<glyph unicode="c" horiz-adv-x="254" d="M-16 67q0 -28 20 -51q19 -22 47 -22q17 0 31 12q14 11 22 11q19 0 51 21q37 23 54 26q14 33 19 63l-2 -1l-5 1q-3 0 -7 -7q-3 -4 -6 -7q-12 -8 -22 -12l-10.5 -10.5t-6.5 -8.5q-13 -6 -22.5 -10t-16.5 -6l-2.5 -2.5t-5.5 -4.5q-8 -5 -13 -5q-45 0 -49 7q-6 6 -6 52 q9 5 10 23q2 13 2 19v7l14 9q1 2 2 5t2 7t2 6l2 4l49 58q3 5 5 9.5t4 7.5q28 18 47 24l8 1q10 0 28 3q8 1 14 1.5t10 0.5q22 0 35 10q1 1 7.5 8t20.5 21v2q0 16 -10 30q-11 14 -23 17l-3 5l-8 1q-9 0 -22 3q-7 1 -11 1.5t-5 0.5h-1q-4 0 -12 -5t-9 -6l-23.5 -8.5t-16.5 -5.5 q-16 -15 -22 -25l-11.5 -6.5t-8.5 -4.5l-22 -26.5t-18 -23.5q-2 -3 -16 -14q-12 -8 -17 -16q-2 -8 -4 -13.5t-3 -9.5q-2 -8 -19 -22q-18 -14 -18 -24q0 -5 3 -12q1 -4 1.5 -6.5t0.5 -4.5q0 -6 -10 -21q-11 -13 -11 -24q0 -12 -6 -27q-7 -14 -7 -25z" />
<glyph unicode="d" horiz-adv-x="343" d="M-19 65q0 -3 2.5 -10.5t9.5 -20.5q13 -24 18 -27q6 -2 16 -2q28 0 57 16q28 15 38 15q19 0 35 -22t33 -22q5 0 38 11q31 11 35 15l9.5 9.5t6.5 8.5q11 5 18.5 9t12.5 6l1 10v1l-5 6q-10 -2 -16 -3t-8 -1q-2 -2 -6.5 -4.5t-12.5 -7.5q-3 -2 -49 -10q-7 7 -9 10l1 4 q3 48 39 102q35 53 37 72t3 29.5t1 13.5q1 3 3.5 7.5t7.5 12.5q5 9 7 19q3 14 6 24l5 17q1 17 14 28q10 9 12 18q0 6 -1 11q-1 4 -1 10q10 22 21 31q1 2 7 18.5l17 48.5q22 60 22 64q1 16 13 29q12 12 12 18q3 27 14 43l11 17t11 18q4 14 6 23q2 2 5.5 6.5t10.5 9.5 q11 9 12 19q2 16 3 17q12 10 25 15q13 19 18 30q10 13 65 51q53 38 65 38t36 3t36 3q11 0 19 -6q6 -6 8 -6h46q36 0 48 -5q29 23 30 37q3 36 1 40l-6 14l-6 14q-1 7 -1.5 12t-0.5 9l-6 2q-26 44 -53 43h-25q-10 0 -16 0.5t-10 0.5h1q-19 0 -57 -34q-35 -32 -44 -48 q-26 -13 -38 -17l-26 -19.5t-18 -14.5q-3 -2 -30 -29q-13 -13 -20 -21t-9 -10q-7 -12 -11.5 -21l-7.5 -15l-14 -15.5t-11 -10.5q-18 -31 -25 -47q-5 -8 -9 -13.5t-6 -9.5q-6 -14 -11 -16q-7 -16 -9 -25q-5 -8 -9.5 -14.5t-7.5 -11.5q-3 -12 -5 -21t-3 -15q-3 -8 -18 -24 q-13 -14 -14 -26q-2 -18 -14 -36q-11 -18 -13 -31q-1 -22 -14 -33q-11 -11 -12 -22q-2 -16 -8 -24q-5 -7 -8 -12t-5 -8q-2 -10 -4 -17t-4 -12q-10 -16 -31 -25q-9 -2 -18 -5l-18 -6l-17 -12t-12 -9l-24 -12t-17 -9q-14 -18 -18 -26q-11 -10 -19.5 -17l-14.5 -12l-14 -23 t-15 -23q-20 -29 -37 -34q-4 -4 -18 -31q-14 -30 -14 -32q-1 -14 -13 -34q-10 -18 -12 -29zM46 92q13 28 22 39q4 12 6.5 21t3.5 15q5 10 17.5 25t32.5 35q43 43 60 43q30 0 27 -28q-1 -8 -6 -23t-13 -36q-17 -43 -26 -51q-2 -18 -37 -43t-55 -25q-34 0 -31 28h-1z" />
<glyph unicode="e" horiz-adv-x="294" d="M-26 32q0 8 1 11l22.5 47.5l23.5 50.5v16q1 7 20 33q19 27 21 39q0 5 4 9l9 9q2 2 4 5l4 6q3 3 5 11q1 7 8 12q5 4 8.5 6t4.5 3q3 6 14 26q3 3 9 6q2 2 5 3.5t6 3.5q8 4 12 7q6 4 7 6q1 3 5 9q2 2 4 5.5t4 7.5q5 6 23 17q19 12 26 12h-1q9 0 23 -14l3 1q1 0 5 -7 q3 -7 4 -8q1 -11 -3 -30l-3 -15q-1 -4 -2 -7.5t-2 -7.5q-2 -11 2 -16l6 -12q5 -1 8 -1.5t5 -0.5l15 6v-12q-1 -4 -1 -7t-1 -5q-4 -17 -14 -25q-14 -3 -31 -20h-6q-5 -8 -15 -18h-8q-9 -5 -20 -9q-7 -2 -14.5 -5t-17.5 -5q-20 -5 -31.5 -9.5l-16.5 -6.5q-2 -2 -5.5 -5 l-8.5 -7l-10 -8l-11 -9q-11 -18 -17 -50l-1 -6q20 -11 26 -11q19 0 59 28q41 29 44 43q-1 7 0 19q3 19 50 19q22 0 18 -13q-1 -9 -10 -18q-4 -4 -8 -7l-8 -6q-2 -4 -5 -8.5t-6 -10.5q-8 -12 -15 -30q-5 0 -7 1h-8h-7l-37 -23l-8 -10q-6 -2 -13.5 -5.5l-15.5 -7.5l-8 -6 t-9 -6t-9 -6t-8 -7q-14 -8 -44 -8q-52 0 -52 31zM126 234q-5 -29 16 -29q22 0 19 1l20 20q9 9 11 20q2 15 -5 26q-8 12 -21 12q-33 0 -40 -49v-1z" />
<glyph unicode="f" horiz-adv-x="235" d="M-567 -318l3 -33q0 -5 28 -33q27 -27 33 -29q13 -3 21 -3q2 -1 4 -1.5t4 -2.5q4 -3 11 -3q3 0 9 3q8 2 10 2l8 -2q6 -2 8 -1l4 5h6q17 1 37 9q19 6 26 6q9 -1 15 -1.5t8 0.5l4 4l7 1q4 0 15 -3q9 -3 14 -3q8 0 16 8q7 7 14 7q23 0 19 -1l5 5q37 11 51 19q8 5 17.5 13 t21.5 22l7 8.5t5 5.5t6.5 4.5t11.5 4.5q14 5 20 9q4 7 6.5 12t3.5 9l14.5 14t11.5 9l17 26l12 19q7 7 13 11q4 9 4 17q4 2 6.5 4t4.5 3q10 21 11 33q7 12 10 15l6 42q1 3 14 16q10 10 9 18q-2 22 5 29q10 11 11 20q2 8 2 15t1 14q1 9 17 25v2l3 3v6q-3 24 -1 29q2 3 10 9 q10 6 8 11l-2 13q0 1 10 20q9 18 9 24q-3 46 3 67q4 5 8 9t8 9q7 6 22 6q49 0 52 2q4 0 11 9q6 7 13 7q6 0 14 -6q8 -5 12 -5q5 0 18 16q11 14 11 20l-1 8q-1 0 -5 3q-6 2 -7 2q-8 -7 -16 -7q-4 0 -13 6q-10 5 -15 5h-3l-8 -7q-3 -1 -15 -1q-42 0 -45 32q-1 14 16 36 q23 27 24 31q4 16 6 26q7 11 11.5 19t8.5 13q19 55 35 61q21 8 25 15q6 13 15 17q5 2 8.5 3t6.5 2q5 5 9 8.5t6 5.5q11 5 19.5 7.5t14.5 3.5l4 5h4q18 0 28 8t21 8q7 2 16 -1q5 0 8.5 -0.5t5.5 -0.5q27 0 30 -4q7 -8 18 -12q10 -2 17 -3t12 -2q2 -1 13 -28q5 -13 7.5 -20.5 l3.5 -10.5q0 -4 -5 -12t-3 -12q0 -14 16 -14q1 0 17 14q8 7 11.5 10.5l4.5 4.5q6 11 1 37q0 27 -8 42q-2 5 -23 28q-24 25 -26 26q-20 6 -30 6q-7 2 -13 5t-12 5q-13 5 -32 5q-15 0 -28 -7q-14 -6 -18 -6q-28 0 -40 -15q-18 -22 -26 -26q-11 -5 -20 -8.5t-16 -5.5 q-15 -9 -24 -24q-12 -21 -16 -25q-15 -11 -27 -16q-8 -11 -13 -19.5t-7 -15.5l-14 -14.5t-11 -10.5q-4 -6 -8 -17q-2 -5 -4 -9.5t-4 -6.5q-4 -4 -7.5 -6.5t-5.5 -4.5q-10 -24 -11 -35q-6 -8 -11 -13l-9 -9q-19 -34 -31 -59q-1 -2 -39 -16q-31 -12 -31 -26q0 -5 14 -33 q2 -2 12 -5t10 -9l1 -7l-5 -2q-5 -21 -6 -33h-3v-6q0 -13 -1 -22.5t-5 -17.5q-8 -15 -7 -23q1 -14 0 -18l-4 -1q-11 -33 -11 -39q0 -15 -8 -27q-8 -15 -7 -22q1 -12 -8 -39q-6 -16 -9 -25.5t-4 -11.5q-1 -11 -1.5 -19t-0.5 -14q-13 -21 -21 -29q-5 -8 -9 -27t-10 -29 q2 -14 -15 -37q-16 -21 -31 -32q-14 -10 -24 -13q-15 -20 -19 -29q-10 -5 -27.5 -12t-42.5 -16q-59 -21 -75 -21h-5t-8 2q-4 0 -7.5 0.5t-5.5 0.5q-9 0 -20 -8q-10 -7 -19 -7q-15 0 -31 21q-20 27 -26 30q-24 10 -35 11l-3 6q-14 9 -26 18l-23 17l-3 4l-5 1q-39 -16 -42 -19 q-5 -15 -5 -20l-6 -3q-2 -2 -2 -7q1 -8 -5 -16q-5 -8 -5 -12z" />
<glyph unicode="g" horiz-adv-x="287" d="M-325 -400q0 20 3 22l8 8q0 4 5 26q3 2 9 8q2 2 4.5 5t6.5 7q1 4 3 9l4 10l27.5 34.5t26.5 30.5l25.5 28t26.5 27l26.5 26l27.5 26t29.5 25.5l32.5 26.5l48 36q1 2 2 3.5t3 3.5q1 4 6 9q5 3 11 7t12 9q11 14 11 42q0 16 -9 27q-9 10 -9 18q0 35 9 58q7 8 12 19q1 1 -2 24 q0 9 14 23q20 15 21 19l4.5 9t6.5 12l6.5 13l7.5 15q3 2 6 4.5t7 6.5q2 6 4 9q1 4 6 12l9 5q8 17 38 44q31 27 49 30q6 -1 22 2q3 3 4 5q3 3 4 6q5 5 10.5 9.5t10.5 9.5l21 18l12 -6q1 -8 9 -24q1 -1 7 -6.5l18 -16.5q15 -14 15 -29l-1 -5l-5 -8v-15q0 -17 -23 -20 q-32 -3 -36 -6v-2q-6 -2 -6 -10l-4 -10q-2 -1 -3.5 -3t-3.5 -4q-6 -6 -9 -10q-1 -5 -3 -11.5l-4 -13.5l-5 -5q-1 -2 -6 -7q-1 -5 -3 -11.5l-4 -13.5q0 -1 -9 -8q-3 -5 -3 -12q0 -10 9 -10q7 0 19 6q13 5 18 5h13q0 -12 1 -14q-26 -23 -54 -45q-14 -11 -27.5 -23l-27.5 -25 q-1 -14 -9 -40q-5 -9 -21 -24q-7 -6 -7 -55q0 -9 -10 -32q-5 -14 -9 -21q-2 -4 -3 -6.5t-2 -4.5q-12 -7 -22 -35q3 -44 -20 -85q0 -20 -7 -37q-6 -17 -15 -33l-63 -68q-6 -2 -11.5 -5.5t-10.5 -7.5q-11 -8 -17 -14q-4 -3 -6.5 -6t-4.5 -5l-5 -5q-9 0 -22 -8 q-6 -4 -10.5 -6.5t-6.5 -3.5q-6 0 -10 -4q-2 -2 -5 -4t-7 -4l-6.5 -4.5t-7.5 -4.5t-7.5 -3t-8.5 -2l-14 -6t-15 -6q-15 -6 -30 -6q-40 0 -54 7q-18 6 -43 31q-4 7 -4 44zM-240 -343q0 -61 51 -61q29 5 52 16q12 6 23.5 12.5t22.5 13.5l21.5 14l21.5 15q20 13 44 24h1 q1 3 1 8q0 4 1 6q7 15 13 32q5 17 5 32l9 6v4q1 1 1 4q0 4 3 13t3 16t9 22q11 14 12 19l4 15.5l4 15.5l3 30l2 4t3 4q4 6 5 9q9 16 9 35q0 18 -14 18q-6 0 -51 -44q-48 -45 -51 -44l-19.5 -20l-19.5 -20l-20 -19.5l-21 -19.5l-9 -3q-2 -1 -4.5 -2t-6.5 -2q-6 -4 -15 -13 q-5 -5 -9.5 -8.5t-6.5 -5.5q-2 -1 -7 -6q-2 -2 -3.5 -4t-3.5 -4v-10l-8 -10l-9 -11l-21 -27q-2 -2 -5.5 -6.5t-7.5 -11.5q-12 -14 -12 -36zM16 -314h3q1 1 1 2v1l2 4l-3 -3q-1 -2 -3 -4zM61 96q0 -18 28 -18q16 0 39 26q22 25 22 42q0 7 7 17q6 7 8 14v24q0 3 3 8q1 4 6 10 l6 12q2 8 2 11q0 8 -8 26l-8 -1l-3 1h-1q-1 -1 -4 -3.5l-9 -7.5q-5 -5 -14 -12t-20 -17q-26 -22 -26 -56q0 -4 -4 -8q-2 -2 -4 -5t-4 -7l-4 -8t-4 -9q-3 -9 -3 -21q0 -3 -3 -9q-2 -6 -2 -9z" />
<glyph unicode="h" horiz-adv-x="355" d="M23 42q-3 -45 24 -51q8 0 25 30l21 39q5 6 9.5 10.5l6.5 6.5q1 4 1.5 9t-0.5 13q-1 9 -1.5 15.5t-0.5 10.5q0 11 5 16q10 12 14 23q5 14 8 23.5l5 15.5q14 19 21 22q3 3 6 14q3 9 5 14q22 11 53 48l5 1q3 0 11 -3q8 -2 9 -2q4 -1 10 2q8 2 9 2l7 -2h1q4 -9 4 -15 q1 -11 -15 -27v-10q1 -8 1.5 -14t-0.5 -8q-16 -21 -27 -28q-8 -24 -9 -37q-1 -1 -4 -6t-9 -14q-8 -13 -7 -24q3 -26 -18 -36q-20 -9 -19 -31q2 -25 21 -38q1 1 7 1l6 2q2 4 4 6.5t3 4.5l44 42l40 37q14 18 12 32q-2 10 -8 16q-2 2 -6 4.5t-9 6.5v7q0 2 6 7q5 4 5 13 q-1 15 8 29q8 14 8 19q-2 20 23 65q25 46 25 51q-2 18 -17 26q4 1 -2 1h-21q-21 0 -32 -10q-20 -15 -22 -15q-3 -2 -15 -2q-11 -2 -15 -4q-2 -8 -12 -15l-18 -12l-44 -31q-7 4 -7 13q0 7 10 31l10.5 15.5t8.5 10.5q2 10 3 16.5t2 11.5q4 5 6.5 9.5t4.5 6.5q0 5 -1 9 q-1 3 -1 8q10 18 16 23q10 21 12 29l16 19t12 13q15 25 22 42l13.5 13.5t10.5 9.5q6 14 10 25t6 19l3 -1q48 29 52 38h5q12 22 15 35q5 8 13.5 15t19.5 12q18 7 31 13q9 11 13 20q20 12 28 14l9.5 9.5t6.5 7.5q16 6 26 6q3 1 9 5l16 11q16 11 27 11t34 6q21 6 32 6 q18 -5 31.5 -9.5t21.5 -9.5q22 -5 31 -6q13 -6 33 -32q20 -27 19 -40q-2 -28 -1 -30q2 -6 5 -12t5 -12l0.5 -1.5l1.5 -4.5q1 -6 5 -6h12q7 10 17 45l8.5 30t3.5 18q0 5 -3 11q-2 2 -2.5 4t-1.5 4q-14 55 -15 56q-6 4 -11 5.5t-9 2.5q-17 19 -23 29q-33 14 -53 19 q-2 1 -6 3.5t-11 7.5q-10 7 -19 7l-12 -5q-10 -5 -17 -5l-30 3q-12 0 -36 -11t-31 -11h-15l-37 -25q-1 -1 -4 -7t-5 -8l-17.5 -8.5t-12.5 -5.5l-30 -26.5t-21 -19.5l-18 -9q-36 -33 -48 -49q-23 -19 -37 -28q-13 -23 -17 -32q-14 -6 -22 -17q-9 -14 -15 -18q-5 -2 -9.5 -4 t-8.5 -4l-3 -11q-19 -48 -28 -55q-5 -15 -6 -20q-4 -5 -7 -9.5t-5 -6.5q-7 -19 -9 -31l-13.5 -13.5t-10.5 -9.5q-7 -21 -9 -32q-7 -11 -13 -17l-2 -8q-2 -6 -3 -8q-9 -11 -15 -15q-7 -16 -9 -25q-1 -6 -17 -25q-11 -13 -13 -25q-1 -23 -11 -36q-8 -13 -8 -16 q-1 -11 -1.5 -16l-0.5 -5l-6 -8v-3q0 -11 1 -20t2 -14q-2 -11 -9 -23l-8 -12t-8 -11l-5 -3q-3 -8 -3 -15q-1 -14 -0.5 -23.5t1.5 -16.5l-7 -22.5t-6 -15.5z" />
<glyph unicode="i" horiz-adv-x="193" d="M-7 73q0 5 0.5 12t1.5 17q1 1 3.5 2.5t7.5 5.5q3 10 12 30q2 4 5 8t6 9q4 5 7 10t8 12q0 1 21 24q7 8 10 15l5 12q-1 3 -1 9q0 2 2 12q0 1 2 7q1 2 6 11q3 9 3 24q0 -1 1 4.5t6 16.5q7 19 11.5 29.5t6.5 12.5q9 14 36 28h1q3 0 10 -5l4.5 -4.5t4.5 -6.5t4 -7t4 -7 q3 -8 3 -12q0 -7 -15 -23q-16 -18 -16 -22q1 -7 -2 -22l-7 -15q-2 -7 -6 -18t-12 -26l-6 -10l-6 -10t-6 -9.5t-5 -9.5q-3 -4 -7 -17q-3 -6 -6 -15t-7 -20q-15 -44 -15 -49q3 -24 32 -24q20 0 33 8q0 1 1 2.5t3 5.5q4 7 8 7q3 0 9 -3q0 -5 -1 -11t-3 -14q-6 -8 -18 -12 q-5 -2 -9 -3t-7 -2q-5 -1 -7 -3q-3 -2 -21 -21q-12 -13 -25 -13q-6 0 -11 4q-6 4 -6 5q-5 2 -10 3.5t-10 3.5q-10 3 -15 11q-17 26 -17 38q-1 3 -1 15zM140 473q-1 7 11 24q12 16 21 16q12 0 24 -13q11 -14 12 -26q0 -10 -8 -17l-9 -7t-8 -7l-7 -1q-13 0 -34 21z" />
<glyph unicode="j" horiz-adv-x="203" d="M-616 -488l34 -18t34 -17q36 -17 77 -17q53 0 88 20q6 6 20 17l11 4.5l13 5.5l15 6.5l17 7.5q2 2 5.5 5l8.5 7t10 7.5t10 8.5l14.5 8.5t17.5 9.5q20 12 41 27q4 10 21 33q13 10 39 36q1 4 3 8t4 9q4 10 12 24q3 3 6.5 7l7.5 9q7 10 18 24q3 12 9 26q2 8 5.5 16.5 l7.5 18.5q14 24 33 67q1 3 1 12q2 7 3 16q1 13 18 48q8 17 13.5 30t6.5 21q2 11 2.5 22.5t2.5 23.5l2 23t3 25q3 1 20 24q1 6 6 17q2 5 4.5 10.5t4.5 12.5l12 21q4 6 8 13.5t9 15.5q2 10 9 28q10 9 22 31q1 4 1.5 7.5t1.5 8.5q0 4 1 5q1 3 35 45q33 30 89 37q0 -3 -2 -7 q0 -6 -3 -18q-4 -23 -54 -85l-15 -25q-3 -5 -5.5 -11t-6.5 -14l-6.5 -18l-7.5 -21q-3 -8 -6 -17l-6 -18q-7 -19 -11 -34q-4 -7 -9 -20q-2 -6 -5 -13.5l-6 -15.5q-1 -3 -1 -13q-1 -4 -1.5 -7.5t-1.5 -8.5q-5 -14 -15 -39q-1 -3 -1.5 -7t-2.5 -9q-1 -8 -6 -22q-2 -3 -4 -7 t-4 -9l-4.5 -11t-4.5 -13q-2 -8 -3 -25q-4 -6 -8 -14l-4.5 -9t-5.5 -12q-2 -8 -6 -21l-4.5 -13t-6.5 -15q-1 -1 -3 -3.5l-6 -7.5q-7 -9 -7 -11q0 -9 -2 -11q-2 -7 -21 -29l-10.5 -12.5t-8.5 -9.5l-4.5 -6t-2.5 -3l-8.5 -14.5t-11.5 -15.5l-13.5 -18.5t-16.5 -21.5 q-5 -3 -11.5 -6.5t-14.5 -8.5q-2 -2 -8 -6.5t-14 -11.5t-20 -16l-27 -21q-11 -8 -20 -15.5l-18 -14.5q-17 -14 -33 -21q-2 -2 -5.5 -2.5t-8.5 -2.5l-10 -4t-11 -4q-5 -4 -12.5 -9l-15.5 -10l-18.5 -11.5l-21.5 -13.5q-53 -21 -110 -21q-44 0 -70 13q-5 2 -17 14 q-9 10 -15 15q-6 2 -12 2q-4 2 -7.5 3t-7.5 3q-5 5 -5 15zM220 473q-1 7 11 24q12 16 21 16q12 0 24 -13q11 -14 12 -26q0 -10 -8 -17l-9 -7t-8 -7l-7 -1q-13 0 -34 21z" />
<glyph unicode="k" horiz-adv-x="435" d="M-22 45l1 7q1 9 47 44t51 43q10 16 20 26q0 5 5 22l5 5q2 4 6 8q1 6 3 15l2 10t3 12q5 7 11 19l14 29q1 4 2 9t3 12q2 6 4 13.5l4 15.5q2 2 3.5 4t3.5 4t4.5 5.5t4.5 7.5q3 7 3 32q0 21 13 34t13 47q0 6 4 15t4 20q0 5 8 21q8 14 8 33q0 5 6 14q5 10 5 22q0 4 6 22 q5 18 5 32t10 24q7 6 10.5 11l5.5 8q1 3 1.5 6.5t2.5 8.5q2 10 6 20q16 10 22 32q4 14 6.5 21.5t3.5 9.5q7 4 21 15q2 6 5.5 13.5l7.5 15.5q2 2 5 5.5t7 7.5t7.5 9t7.5 10l2.5 7.5t5.5 10.5q11 5 29 21q1 2 1.5 5t2.5 6q2 7 6 13q30 36 45 40q2 4 6 8q2 2 4 4.5t4 6.5 q2 2 5.5 4.5l7.5 5.5q4 2 8.5 5.5l9.5 7.5q7 10 21 24q6 7 13.5 14.5l15.5 15.5l18 9q5 6 11 10h7q7 0 11 1q6 0 13 4t11 4v-1q36 0 58 -22q6 -6 11 -12l10 -12t10.5 -12t10.5 -13l1 -5q0 -74 -78 -74q-15 0 -27 -5q-4 -2 -7 -3t-5 -2t-4 -1.5t-4 -1.5q-32 -7 -58.5 -10.5 t-48.5 -3.5q-7 0 -26 -13t-26 -13t-8 -3q-3 -6 -4 -7h-4q0 3 -8 -26q-5 -17 -22 -27v-5q-15 -7 -37 -24q-2 -6 -2 -12q-2 -6 -6 -15q-10 -6 -13 -15q-5 -17 -6 -18q-2 -2 -5 -5.5t-6 -7.5q-2 -4 -5 -9t-7 -10v-22q0 -10 -8 -21q-11 -15 -12 -21q0 -7 -1 -15.5t-3 -18.5 q-2 -7 -11 -21q-5 -8 -5 -30q0 -9 -9 -22q-6 -9 -8.5 -14.5t-3.5 -7.5q-2 -10 -5.5 -22t-8.5 -26t-9.5 -29.5t-11.5 -32.5q-14 -36 -14 -39q0 -9 6 -18q2 -4 5.5 -7.5l7.5 -7.5q9 -7 18 -11q5 -2 9.5 -3t9.5 -1q25 0 49 38t55 38q11 0 37 -31q25 -31 25 -45q0 -12 -10 -19 q-11 -8 -22 -8q2 0 -4 1.5t-19 6.5q-26 8 -41 8q-8 0 -24 -3l-2 -5q-8 -4 -14 -6.5t-9 -4.5q-11 -8 -18 -18l-5 -2q-2 -8 -1 -9q0 -2 0.5 -5t1.5 -8q2 -10 2 -13q0 -2 -0.5 -4t-0.5 -6q-2 -8 -2 -10q0 -7 8 -18q4 -5 5.5 -9t2.5 -6q-2 -17 6 -45q15 -17 39 -60q4 -4 12 -4 q26 0 54 40q28 41 39 41q8 0 7 -10q0 -24 -17 -48q-11 -16 -17 -26t-8 -15q-2 -3 -6 -6q-3 -1 -11 -7q-3 -2 -6 -5.5t-6 -7.5q-5 -6 -10 -21q-2 0 -7.5 -0.5t-13.5 -0.5q-8 -1 -13.5 -1.5t-10.5 -0.5q-31 0 -43 26q-2 7 -4 13t-4 13t-4.5 13t-4.5 13q-3 7 -15 18 q-12 12 -14 15q-7 12 -8 25q0 5 -5 13l-8.5 13.5t-4.5 6.5h-6l-6 49q0 2 -2 13t-7.5 23.5t-12.5 12.5h-6q-10 -17 -21 -50q0 -4 -0.5 -9t-0.5 -11q-1 -5 -2 -11.5l-2 -13.5q-4 -9 -13 -17q-9 -6 -14 -20l-6 -9q-5 -5 -9 -12q-2 -3 -4 -6.5t-4 -7.5q-4 -7 -4 -14 q0 -22 32 -22q18 0 32 9q24 16 27 17l3 3q10 0 13 -10q2 -5 3 -9.5t2 -9.5q-2 -1 -5 -3t-7 -4t-8 -4.5t-9 -4.5q-7 -5 -14 -11t-15 -12q-14 -11 -32 -16q-8 0 -23 -3q-4 -1 -11 -7q-8 -6 -15 -6q-5 0 -15 3q-9 3 -14 3t-10 -1t-11 -1q-22 0 -22 49z" />
<glyph unicode="l" horiz-adv-x="153" d="M-50 7q0 8 7 16q6 7 8 13q4 18 21 58q5 4 18 20q0 4 0.5 7.5t1.5 8.5q1 9 3 21q6 5 14 17l24 70q0 9 14 25q14 14 14 31q0 7 7 20q3 6 4.5 9.5t2.5 5.5l2.5 10.5t3.5 17.5q2 4 6 8q2 2 4 4.5t4 6.5q1 10 6 27q2 2 4 7q1 3 5 9q3 17 12 53q2 3 4 6.5t4 8.5l9 21q1 2 1 7 q0 7 1 11q9 9 26 32q1 4 2.5 11t3.5 18q2 4 5 8.5t6 9.5q4 10 12 24q0 5 1.5 13t3.5 21q2 6 15 17q11 10 14 15q1 4 3 14q1 4 2 9t3 10q2 1 4.5 3t5.5 4q4 4 12 9q2 2 4 5.5t4 7.5t4.5 8t6.5 9q6 4 14 10t18 16q2 13 15 32q2 1 5 1.5t6 2.5q7 2 13 6q1 6 6 18q1 -1 2 0t0 2 q2 2 5 4.5t7 5.5l6.5 6.5t7.5 8.5l16 19q5 3 25 5q15 2 21 14h4q19 28 52 46t66 18v1q31 0 54 -33l4.5 -1.5t13.5 -3.5q12 -3 12 -11q0 -5 -3 -11q1 -2 4.5 -8l8.5 -14q6 -9 6 -30v-8q-1 -3 -1 -7q0 -3 -1 -7q-45 -26 -92 -25q-6 0 -18 -6l-2 -1q-4 0 -13 3t-14 3 q-11 0 -65 -16q-57 -16 -65 -22q-6 -4 -10 -7l-15 -9q-7 -2 -13.5 -3.5t-13.5 -3.5q-16 -5 -24 -13v-4q-8 -6 -20 -25q-11 -17 -13 -28q-1 -10 -14 -19q-14 -11 -15 -16q-2 -7 -4.5 -14.5t-5.5 -15.5q-7 -18 -16 -37q-3 -2 -6 -6q-3 -2 -9 -8q0 -7 -1 -12q-1 -3 -2 -7t-2 -9 q-11 -8 -24 -24q0 -14 -6 -39q-3 -3 -7.5 -9t-9.5 -16v-9q-1 -2 -1 -6q0 -3 -1 -7q-1 -3 -5 -9q-2 -2 -4 -5.5t-4 -7.5q-2 -8 -5.5 -20l-8.5 -29l-2 -4l-6 -6q-1 -4 -2 -8.5t-3 -11.5q-5 -12 -9 -15q-1 -2 -1 -5q0 -2 -1 -4q-2 -6 -3 -10q-1 -3 -14 -16q-5 -5 -5 -26 q0 -14 -18 -41l-5 -2q-1 -8 -5 -21t-12 -33l-5 -3v-8q0 -4 -1 -10q-2 -13 -10 -29q-9 -17 -9 -27q0 -20 13 -20q4 0 13 3t14 3q1 0 16 -5l3 -15q-1 -4 -32 -27q-7 -5 -12.5 -9.5l-9.5 -7.5l-6 -4.5t-3 -2.5q-2 -1 -5 -1t-7 -1q-8 -2 -18 -3q-8 -7 -36 -16h-6q-2 1 -4 1 q-3 0 -5 1q-2 10 -3 13l-1.5 3z" />
<glyph unicode="m" horiz-adv-x="466" d="M-34 18q-1 4 14 45q16 40 22 46q2 1 3.5 3t3.5 4q6 6 9 10q-1 9 2 36l6 6l7.5 7.5t9.5 10.5q18 19 18 47v8q0 6 -1 9q-1 2 -2 5.5t-3 8.5t-3.5 10t-3.5 10q-2 13 4 30q2 4 2.5 8t2.5 8q4 10 5 15q1 6 30 24q28 18 37 18h-1q15 0 20 -15q3 -12 6 -16q1 -5 5 -8q3 -3 5 -3 q1 -2 2 -2.5t3 -2.5q17 2 32 9t27 17q23 19 34 19q41 0 52 -62q3 -17 20 -17q-1 0 7 2h-3l17 8.5l20 10.5l2 5q7 0 21 14t27 14l7.5 -2.5l21.5 -7.5l1 -4q8 -9 9 -22q2 -5 -3 -11q-4 -4 -4 -7q1 -3 1 -12q-1 -3 -1 -7q0 -3 -1 -8q-1 -6 -13 -16q-10 -7 -13 -12q-2 -9 -6 -20 l-4.5 -11.5t-5.5 -13.5q-3 -3 -6 -5q-2 -2 -3.5 -4t-3.5 -4q-1 -2 -2 -5.5t-2 -7.5q-2 -8 -6 -18q-1 -1 -2 -2.5l-3 -4.5q-2 -2 -4 -6.5t-6 -9.5q-10 -16 -9 -23l3 -6q-7 -7 -11 -33q3 -19 19 -20q4 0 9 5q3 4 6 4q7 0 15 -3h1l5 -2l-1 -2l2 -5l-1 -1q-1 -9 -19 -14l-6 -2 t-6 -1q-4 -2 -12 -4q-4 -1 -15 -17q-7 -10 -27 -10q-25 0 -30 29q-2 6 10 28q2 4 4 7t4 7t4 7t4 7q1 14 6 44q3 9 14 27q13 17 16 25q1 6 3 13t4 15q2 1 3.5 3t3.5 4q2 3 8 9q1 3 2 6.5t3 8.5l4 10t4 12q1 1 2 3q1 0 3 4q4 3 3 7l-3 4.5l-8 12.5q-1 -1 -11 1l-9 -6l-26 -17 q-35 -23 -37 -25q-2 -8 -22 -24q-4 -4 -4 -9q-2 -3 -4 -11l-2 -6t-1 -5q-2 -2 -2.5 -4t-2.5 -3l-5 -5l-6 -6q0 -6 -3 -16q-9 -5 -13 -17q-3 -8 -4.5 -12.5t-2.5 -6.5q-4 -2 -9 -5.5t-10 -7.5l-2.5 -10t-5.5 -16q-6 -4 -16 -16q-2 -3 -6 -39q-3 -24 -24 -29q-4 2 -8 5t-8 5 q-8 4 -9 15q-2 10 4 25q4 15 3 24q0 2 6 8q6 4 6 7q2 8 12 29q9 5 18 17q-1 8 2 35q1 1 2.5 3.5t5.5 6.5t9 9.5l12 13.5q23 24 23 58v11q-1 2 -1 5t-1 5q-3 18 -19 18q-35 0 -72 -34q-4 -8 -18 -26q-5 -2 -20 -12q-2 -8 -2 -15q-2 -5 -2.5 -10t-2.5 -10q-4 -4 -10 -13 q-1 -3 -1 -10q-1 -3 -3 -13q-1 -4 -6 -10q-2 -3 -4 -6.5t-4 -7.5q0 -10 -3 -26q-8 -4 -10 -12q-1 -2 -1 -4t-1 -4t-1 -3t-1 -2q-9 -8 -24 -27q-2 -5 -3 -10.5l-2 -10.5q-2 -11 -6 -20q-3 -10 -10 -15t-16 -5h-11q-2 1 -5 1t-7 1q-3 2 -10 19z" />
<glyph unicode="n" horiz-adv-x="407" d="M38 24q1 -11 18 -27q15 -15 26 -15v-1q8 0 25 30l21 39l17 17q1 4 1.5 9t-0.5 13q-1 9 -1.5 15.5t-0.5 10.5q0 11 5 16q10 12 14 23q6 28 6 43q16 18 28 26q7 13 10 20q22 10 54 48l5 1q3 0 11 -3q8 -2 9 -2q4 -1 10 2q8 2 9 2l7 -2h1q4 -9 4 -15q0 -11 -16 -27 q1 -2 1 -10v-22q-16 -22 -27 -29q-4 -11 -5.5 -20t-2.5 -16l-14 -20q-8 -12 -7 -24q3 -26 -18 -36q-20 -9 -19 -31q2 -25 21 -38q10 3 14 3q2 4 4 6.5t3 4.5l44 42l40 37q12 20 11 32q-2 10 -6 14q-2 2 -6.5 5t-9.5 7v8q0 2 6 7q4 4 4 12q-1 14 8 30q8 14 8 19q-2 18 24 65 q25 46 25 51q-2 18 -17 26q4 1 -2 1h-21q-21 0 -32 -10q-18 -15 -22 -15q-3 -2 -16 -2q-11 -2 -15 -4q-1 -8 -11 -18q-9 -9 -19 -9h-11q-9 7 -10 23q-1 8 -1 15q0 8 -1 16q-4 16 -24 16h-4q-2 -1 -4 -1l1 -1q-35 0 -49 -11l-18 -16.5l-17 -16.5q-1 -1 -14 -8q-9 -5 -11 -11 q-1 -6 -1.5 -10.5t0.5 -8.5l9 -5q4 0 9 5q2 2 3.5 3t2.5 2q4 2 7 3t5 2q7 21 28 21q2 0 12 -2l3 -5l12 -5l6 -10q-8 -32 -18 -47l-6.5 -6.5l-4.5 -4.5q-3 -11 -4.5 -19l-2.5 -13l-10.5 -15t-13.5 -17q-2 -2 -4 -3t-4 -3q-4 -2 -2 -10q2 -24 -16 -49q-18 -26 -18 -27 q2 -11 -17 -40q-18 -29 -18 -30z" />
<glyph unicode="o" horiz-adv-x="272" d="M14 57q0 -15 30 -39q28 -24 46 -24q53 0 116 93l15.5 15.5t11.5 10.5l5 17t3 12q5 5 8.5 8t5.5 5q10 19 13 29q4 5 7 11t7 12q4 8 4 26q0 14 5 39l3.5 19.5t1.5 15.5q0 15 -1 19l-6 8q-1 9 -1 18t-2 17q-3 24 -19 24q-7 0 -20 3q-6 1 -10.5 1.5t-7.5 0.5h-1 q-21 0 -35 -17q-1 -1 -5.5 -9t-13.5 -22q-15 -14 -24 -18q-14 -17 -25 -32l-19 -26q-7 -7 -12.5 -12t-9.5 -9q-5 -14 -6 -21q-5 -8 -8.5 -14.5t-6.5 -11.5l-3.5 -14.5l-2.5 -10.5q-8 -14 -14 -20q-1 -7 -1 -13q0 -5 -1 -9q-7 -8 -10 -13q-3 -4 -10 -35q-7 -29 -7 -34zM72 87 q0 6 12 29l8 15.5l8 15.5q4 16 6.5 28.5l4.5 22.5l6 3q14 17 24.5 28.5t18.5 18.5l8 16.5t9 16.5q9 13 37 13q15 0 18 -14v-26v1l2 -4q-4 -37 -10 -44q-12 -14 -17 -25q-4 -7 -8 -42q-3 -28 -18 -38q-5 -3 -9.5 -5t-6.5 -4q-2 -7 -5 -14t-5 -14q-10 -19 -46 -19 q-10 0 -23 16q-14 17 -14 25z" />
<glyph unicode="p" horiz-adv-x="270" d="M-562 -524q2 -6 20 -21q17 -16 22 -16l29 -1h12l7 5h2q4 1 12 -2q7 -3 11 -3q6 0 18 3t19 3q8 0 23 -3q13 -3 20 -3q4 0 18 9q12 7 15 9q2 1 9 1t9 1q4 4 7 6.5t5 4.5l21 3.5t15 1.5q3 1 17 13q8 8 19 8q22 0 36 8q16 7 17 7q30 0 49 16q29 25 34 27q16 5 27 8l19 5 l45.5 38.5l43.5 36.5q1 1 13 6.5t36 17.5q36 18 36 35v14l-2 2l-3 3q-3 3 -7 3q-10 0 -20 -10l-9 -9t-8 -9l-21 -12t-16 -7l-3 -4q-9 -5 -16 -8.5t-12 -5.5q-50 -39 -69 -39h-6q-5 0 -10 1t-9 1h-7v12q0 -1 19 31q18 31 18 46v6q0 3 -1 8t-1 9v6q0 19 22 59t22 46 q0 26 12 40q20 23 24 31q5 23 5 31l16 35l5 3q2 8 3 14t2 11q5 2 8.5 2.5t5.5 1.5q7 0 11 -7q4 -10 8 -12q8 -5 34 -5q16 0 25 3q5 4 8.5 7.5l5.5 5.5q11 7 19 10q21 18 29 27q31 16 46 21q7 6 10 10q6 2 10.5 3t7.5 2q7 18 6 31l-9 5l-23 -23l-11.5 -5t-8.5 -3l-9 -12 t-23 -9q-10 -2 -17 -3t-11 -1q-5 -2 -10 4l-5 5q12 28 33 54q7 14 10 18q3 6 17 11q13 4 18 12q4 15 4 24q7 5 13 11t13 11q22 19 22 32q0 4 14 43q2 6 12 16q9 10 9 21q0 29 -26 40l-48 9q-26 5 -26 21q0 6 3 14q1 4 1.5 7t0.5 6q2 11 -17 11h-1q-12 0 -25 -12 q-14 -11 -23 -11q-25 0 -25 -16q0 -5 -5 -10q-4 -4 -6 -8q-4 -7 -24 -32q-10 -13 -16.5 -19.5l-8.5 -8.5h-3l-1 -5q1 -5 1.5 -9t0.5 -9q0 -21 -10 -48q-9 -27 -9 -33q0 -27 -12 -39q-11 -11 -11 -18q0 -3 2 -13t2 -12q0 -9 -9 -24q-8 -14 -10 -22q-1 -5 -1 -28q0 -8 -1 -14 t-3 -11q-2 -8 -12 -23q-9 -13 -17 -40l-4 -5v-3q-2 -5 3 -14q3 -9 3 -13q0 -9 -12 -22q-12 -14 -12 -22q-1 -2 -0.5 -6t0.5 -11q0 -6 -8 -14q-4 -4 -6.5 -6t-3.5 -4q-6 -24 -5 -36q-1 -4 -13 -18q-10 -11 -10 -21q0 -7 -0.5 -12t-0.5 -9q-13 -25 -24 -34q-2 -6 -3 -10.5 t-2 -7.5q-3 -3 -10 -7t-7 -10q0 -52 -43 -77q-4 -4 -10 -5q-4 -1 -6 -2l-4 -2q-10 -10 -13 -18q-9 -4 -16 -6.5t-12 -3.5q-6 -4 -10.5 -7.5t-7.5 -5.5q-23 -5 -33 -5q-8 -2 -22 -11t-29 -9q-14 0 -25 -0.5t-19 -0.5q-7 0 -20 -6q-15 -5 -18 -5q-5 -2 -13 3q-7 4 -11 4 q-5 0 -12 -4q-5 -4 -8 -4q-4 0 -11 4q-5 4 -9 4q-3 0 -7 -3q-5 -3 -9 -3q-5 0 -14 3t-13 3q-9 0 -23 -17t-14 -27zM83 102q0 19 20 36l-1 2q1 4 -2 12q-3 7 -3 11q0 6 7 16q7 8 7 15h-1q0 39 27 65q8 6 14.5 10t11.5 6q7 7 8 10q8 3 13.5 4.5l9.5 2.5q1 1 3 2.5l6 4.5 q4 4 13 4q8 0 21 -8q11 -8 11 -16q0 -5 -3 -12q-1 -4 -1.5 -6.5t-0.5 -4.5q-2 -11 0 -15q-3 -10 -21 -25q-11 -9 -17.5 -15t-8.5 -9q-8 -17 -9 -27q-12 -9 -21 -13q-5 -8 -8 -14.5t-5 -11.5q-8 -4 -14 -6.5t-11 -3.5q-8 -11 -13.5 -21t-9.5 -18h-11q-4 0 -8 10q-3 10 -3 15z " />
<glyph unicode="q" horiz-adv-x="229" d="M-471 -562q16 -13 28 -13q3 0 7.5 0.5t11.5 1.5q6 1 10.5 1.5t8.5 0.5h7l6 -5q14 -2 24 -3t17 -1q27 0 65 23q20 -2 49 15q28 15 46 15q13 0 21.5 1t13.5 2q1 -1 38 14q37 14 38 15l4 4t9 8q7 7 15 7q25 0 34 9q8 8 14.5 12.5t10.5 6.5q7 2 11.5 2.5t7.5 1.5q12 7 47 60 l-4 4l-4 1q-16 1 -26 -9q-8 -8 -12 -10q-2 -1 -31 -7q-16 -3 -31 -12q-1 -1 -2 -2.5t-3 -3.5q-4 -4 -8 -4l-11 1q-4 6 -9 22l13 9q5 12 5 17q7 3 11 3q14 22 24 44q11 14 20 21q10 21 15 33l9 10q3 11 4.5 19t2.5 14q1 2 3 7t7 13q7 13 7 22q1 2 0.5 6t-0.5 9q-2 5 -2 9v5 l5 4q1 12 3 18q1 6 9 18q8 13 8 20q0 18 12 35q11 17 11 26t8 19l8.5 11.5t4.5 6.5q0 12 7 16q6 4 6 11q0 6 3 18q3 10 3 17q0 20 -2 12l7 9q2 16 4.5 26.5t6.5 17.5q7 8 11.5 14t8.5 10l3.5 13.5t2.5 9.5q9 11 16.5 18.5l12.5 12.5q2 5 2.5 8.5t1.5 6.5l5 5q4 3 4 6v2l3 1 t9 4q8 3 8 9q0 4 3 9q1 3 3 7q4 14 6 25t4 18q1 2 15 19q9 12 9 22v12l4 4q9 22 9 31q0 5 -5 20q-5 12 -10 12l-5 -1q-41 -24 -44 -40q-2 -3 -10 -8q-8 -3 -12 -16q-2 -1 -4.5 -2t-6.5 -3q-5 -4 -8 -4q-4 0 -11 3q-6 3 -10 3q-11 0 -24 -8q-24 -27 -35 -44l-31 -28.5 l-25 -21.5q-1 -1 -9 -19q-5 -9 -16 -14q-3 -8 -4.5 -13.5t-2.5 -9.5q-1 -2 -10 -9q-7 -4 -7 -14q0 -17 -7 -23q-6 -5 -6 -9q0 -9 -6 -25q-5 -18 -5 -28t22 -33q23 -23 30 -23q42 1 42 -26q0 -21 -13 -40q-5 -7 -9 -14t-9 -14l-3.5 -24t-1.5 -17q-2 -5 -7 -10q-6 -5 -6 -9 t2 -8q0 -2 0.5 -4t0.5 -4q0 -8 -7 -15q-7 -9 -9 -14q-7 -25 -9 -40q-1 -1 -2.5 -3.5t-4.5 -6.5q-5 -8 -5 -12q0 -12 -8 -30q-7 -15 -7 -24q0 -3 2 -13l-1 -6q-11 -11 -18 -20t-11 -15l-17.5 -17l-12.5 -12q-4 -7 -6.5 -12.5t-3.5 -9.5q-5 -7 -15 -17.5t-27 -26.5 q-34 -31 -44 -35q-35 -11 -54 -15q-1 -1 -4.5 -2.5t-8.5 -5.5q-4 -4 -16 -4q-23 0 -43 -10t-32 -10q-94 0 -123 -17q-7 -4 -10 -13q-1 -2 -2 -6t-2 -11zM37 113q4 14 7 23.5t7 16.5q-5 15 2 25h5l20 17q3 2 9 24q5 17 17 17l-1 1q19 0 28 10q7 9 17 9q7 0 11 -16l-13 -7 q2 -14 3 -19.5t1 -1.5q0 -20 -20 -34v-4q-1 -2 -1 -5q0 -16 -16 -45q-15 -30 -26 -32q-13 -2 -22 -3t-14 -2q-2 2 -5 4.5t-5 4.5q-4 4 -4 17zM90 -370q10 -2 12 -2q16 0 43 24q26 23 26 35l3.5 14t3.5 10l-7 5q-77 -53 -81 -86z" />
<glyph unicode="r" horiz-adv-x="344" d="M-23 149q4 4 2 7q5 4 10 9l11 11q6 5 13 12.5l15 15.5q2 2 4 5.5t4 7.5t5 8l7 9q8 4 28 21q2 4 3 7q1 2 2 4.5t2 4.5q3 1 11 7q2 2 5.5 4.5t7.5 4.5q2 5 12 20q42 36 63 43l10 14.5t12 15.5l35 16q7 0 13 -10q5 -12 5 -17q0 -13 -7 -20t-7 -16q0 -20 22 -20q13 0 26 19 q14 20 29 20q32 0 53 -37q-1 1 21 1q6 0 8 -3q1 -3 4 -3q-18 -38 -39 -38h-1q-6 7 -27 18q-19 10 -32 10q-19 0 -38 -28q-6 -8 -11 -15.5t-9 -12.5q-8 -11 -11 -12q-1 -8 -6 -26q-2 -3 -4 -6.5t-4 -7.5q-5 -8 -9 -18q-1 -2 -3 -4.5t-4 -5.5l-11 -11l-12 -12q-2 -3 -4 -5.5 t-4 -4.5q-1 -5 -3 -11.5l-4 -13.5l-9 -9q-7 -6 -7 -9l1 -6q-2 -2 -6.5 -5.5l-10.5 -8.5q-1 -1 -3.5 -4t-7.5 -8q-4 -5 -10.5 -11.5t-14.5 -16.5q-24 -27 -39 -31q-11 17 -11 36q0 21 10 30l9 9t7 6l6 6q1 1 2 4.5t4 10.5t12 12q1 3 3 13q1 4 2 9l2 10q1 2 2 5t3 8q2 4 5 9.5 l7 12.5q12 22 12 37q0 12 13 25t13 26q-2 18 -18 18l-10 -2l-2 -4q-11 -7 -19 -18q-5 -9 -7 -11q-5 -1 -10.5 -2.5t-13.5 -5.5q-14 -6 -22 -24q-4 -11 -9 -19q-3 -7 -5 -9q-11 -5 -27 -15q-11 -17 -29 -35h-8z" />
<glyph unicode="s" horiz-adv-x="288" d="M-51 46q4 7 5 35q0 2 32 49h4l10 -2t11 -2q12 -2 14 -7q5 -11 9 -11q5 2 10 -3l3 -6l2 -4l2 -4q6 0 15 -3q1 -1 4.5 -5t11.5 -12q7 -10 30 -10q57 0 75 73q2 7 10 17q8 12 7 18q-6 6 -15 50l-2 10.5t-3 12.5t-3.5 14.5t-3.5 15.5q2 11 3 43q-2 16 11 23q5 3 8.5 5.5 t5.5 4.5q6 4 7 6l3 6q1 2 3 8q1 3 15 12q15 10 17 10v1l15 -6q30 -6 39 -11q6 -5 9 -37q0 -4 4 -9q4 -4 4 -9q0 -3 -3 -9q-4 -6 -8 -10q-6 -6 -10 -9q-5 -3 -8 -3q-5 0 -9 4q-2 2 -5 3.5t-5 3.5t-5 4t-5 4q-5 3 -9 3q-8 0 -30 -15q7 -19 9 -40l2 -4t1 -4q2 -3 4 -9 q1 -5 -3 -9q-3 -5 -3 -9q1 -7 1 -12v-9q1 -4 1 -7q3 -8 6 -21q1 -8 -5 -14q-4 -4 -6 -8q0 -11 -6 -32q-11 -20 -52 -61v-5q-1 -1 -7 -5t-7 -5l1 -5q-38 -41 -61 -41q-3 0 -10 3q-8 2 -10 2q-4 0 -14 -5q-8 -5 -13 -5q-6 0 -15 4q-9 3 -14 3t-10 -1t-11 -1h-18q-3 1 -10 1h-8 q-2 4 -4 9t-4 12q-4 11 -9 29z" />
<glyph unicode="t" horiz-adv-x="263" d="M20 46q0 38 5 58q5 10 16 21q12 12 19 29q5 8 9 35q1 9 5 20l8 22.5l8 22t6 18.5q1 2 -6 8t-16 13t-16.5 14t-5.5 10q1 3 13.5 9t26.5 11l25.5 9l11.5 4l7.5 5t11.5 18q2 2 7 15t22 27q7 6 18 21q3 4 6.5 11.5l7.5 16t7.5 15t5.5 7.5q4 1 10 7q2 2 5.5 4.5t7.5 4.5 l1.5 1.5t4.5 5.5q2 3 6.5 7.5t9.5 11.5q13 15 29 15h-1q18 0 18 -14q0 -13 -21 -55q-20 -42 -30 -46l-30 -41q3 0 -2.5 -6.5l-12 -14l-11.5 -13.5t-2 -7q3 0 15 -1t26.5 -1.5t27.5 -1.5t16 -2v-9l1 -4q-1 -3 -12 -17q-5 -7 -12 -15.5t-15 -19.5q-8 -3 -34 -3q-5 0 -16 2 t-15 0t-5 -9t-4 -9t0 -2.5t1 -2.5q-11 -8 -14.5 -14t-6 -11.5l-5 -11t-9.5 -12.5q-2 -5 -4.5 1t-3.5 5q-3 -6 -6 -20q-5 -15 -8 -19q-1 -1 -14 -17q-9 -11 -9 -20q1 -5 1 -9v-5v-1q0 -7 -9 -16q-10 -9 -10 -20q0 -16 16 -19q8 -2 15.5 -2.5t15.5 -1.5q18 30 44 30 q16 0 16 -11q0 -20 -30 -32q-5 -2 -11 -4t-11 -4l-12 -4t-11 -4q-5 -3 -17 -20q-8 -11 -23 -11q-31 0 -41 10q-11 9 -11 38z" />
<glyph unicode="u" horiz-adv-x="309" d="M-13 31q2 -19 16 -26q-5 -1 1 -1h23q21 0 32 10q20 15 22 15q3 2 15 2q11 2 15 4q1 10 12 19q9 9 19 8l11 -1q8 -6 8 -22q2 -8 2.5 -16t2.5 -16q3 -16 23 -16h4q2 1 4 1l-2 1q35 0 49 11l18 16.5l17 16.5l14 8q9 5 11 11q1 7 1.5 12t-0.5 8l-9 5q-4 0 -9 -5 q-2 -2 -3.5 -3t-2.5 -2q-4 -2 -7 -3t-5 -2q-8 -21 -28 -21q-1 0 -11 2l-3 5l-13 4l-6 10q5 17 10 28.5t9 18.5q7 9 10 11q3 11 4.5 19l2.5 13l10.5 15t13.5 17q2 2 4 3t4 3q4 2 2 10q-2 24 16 49t18 27q-2 11 17 40q18 28 18 30q-2 12 -17 27q-15 16 -26 16h-1q-9 0 -25 -30 l-21 -39q-11 -11 -15 -18q-5 -6 -3 -20q1 -10 1.5 -16.5t0.5 -10.5q0 -11 -5 -16q-10 -12 -14 -23q-3 -6 -3 -21q0 -14 -3 -21q-8 -10 -15 -16l-12 -10l-6.5 -11.5t-4.5 -8.5q-23 -11 -54 -48l-4 -1q-3 0 -10 3q-8 2 -10 2q-4 0 -11 -3q-8 -2 -9 -2l-6 3h-2l-3 15 q-1 10 15 26q-1 2 -1 10v22q16 22 27 29q4 11 5.5 20t2.5 16q1 1 4 6t10 15q8 12 7 24q-3 26 21 43q24 16 22 39q-2 24 -21 37q-5 -1 -8 -1.5t-5 -0.5q-4 -4 -5 -7t-3 -5q-85 -85 -90 -94q-12 -20 -11 -32q2 -10 6 -14q2 -2 6.5 -5t9.5 -7v-8q0 -3 -6 -7q-4 -4 -4 -12 q1 -14 -8 -30q-8 -14 -8 -19q2 -19 -23 -64q-25 -46 -25 -51z" />
<glyph unicode="v" horiz-adv-x="324" d="M12 218q-2 24 4 43q4 19 23 38q19 24 23 36l46 12l6 5q2 1 13 1h8q7 0 10 1l8 5q3 1 12 1q4 1 14 1q8 0 16 -3q6 -1 12 -5q1 -3 1 -11q1 -2 1.5 -5t1.5 -5q-11 -8 -21 -18l-20 -20v-8q-1 -2 -1 -5t-1 -7l-2 -5l-6 -5q-1 -2 -1 -4t-2 -5q0 -2 -1 -5.5t-2 -7.5 q-1 -2 -2 -4.5t-3 -5.5q-2 -7 -6 -14q3 -6 0 -34q-1 -2 -1 -6t-1 -9t-1 -11q0 -5 -1 -13q-2 -33 4 -33q12 0 39 39q12 17 19 29.5t9 20.5q3 11 26 28q25 19 34 51q1 1 1 8q0 11 -4 18q-3 8 -8 16l-9 15q-2 4 -3 7.5t-2 8.5q7 1 16 5q7 3 14 3l4 1l4.5 4.5t6.5 4.5q7 4 18 12 q23 14 29 14l1 -1q16 0 16 -20q0 -5 -1 -12.5t-3 -15.5l-1 -5l3 -5q3 -26 -12 -47q-5 -2 -9 -6q-2 -2 -4.5 -4t-6.5 -4q-2 -2 -5 -5.5l-7 -8.5q-4 -4 -8.5 -9t-11.5 -10q-2 -5 -5.5 -10l-7.5 -11l-9 -13t-10 -15q-6 -3 -18 -12q-1 -3 -5 -9q-1 -4 -6 -10q-2 -2 -5 -4.5 t-6 -5.5l-14 -14q-2 -4 -4 -7t-4 -7l-4 -6t-4 -7q-4 -3 -12 -11l-6 -6t-6 -5q-8 -15 -30 -39q-1 -2 -1.5 -4t-1.5 -4t-2 -4.5t-2 -4.5q-1 -3 -8 -6q-6 -4 -7 -6q-2 -5 -5 -10q-2 -5 -5 -10l-30 -23l-12 -2l-3 3q-1 2 -2 2.5t-2 1.5q2 7 6 18.5l10 27.5l6 5q2 5 4 11.5 t4 14.5t4.5 16t4.5 16q4 7 2 25q-1 5 2 12l2 8q0 3 -5 11q0 19 1.5 33.5t3.5 25.5l5 12.5t5 16.5q2 8 5 18.5t7 21.5l1 8q-12 6 -13 6q1 0 -17 -6l-7 1q-3 0 -12 -23q-5 -3 -15 -27q-1 -3 -1 -6q-1 -1 -1 -2v0q-32 -12 -30 -12z" />
<glyph unicode="w" horiz-adv-x="528" d="M4 218q-3 22 3 43q6 20 24 38q9 11 14.5 20t8.5 16l46 12l6 5q2 1 13 1h8q6 0 10 1l8 5q3 1 11 1q4 1 15 1t21 -5q6 -4 16 -7v-13q-11 -8 -22.5 -18t-23.5 -24q0 -2 -0.5 -4t-0.5 -4t-0.5 -5t-0.5 -7l-2 -5l-6 -5q-2 -3 -3 -9q-1 -3 -3 -13q-2 -2 -2.5 -4.5t-2.5 -5.5 q-2 -4 -6 -14q3 -6 0 -34q-2 -6 -2 -15q-1 -5 -1.5 -10.5t-0.5 -13.5q-3 -33 4 -33q12 0 39 39l18.5 29.5t9.5 20.5q2 11 26 28q5 4 9.5 9t9.5 10q0 21 16 43q-1 9 -5 18q-2 4 -4 7.5t-4 7.5t-3 7t-3 7q-3 8 -2 17q3 1 6.5 2t6.5 2q8 2 12 2l4 1q3 4 11 9l18 12q23 14 29 14 l1 -1q16 0 16 -20q0 -8 -3 -24l6 5q2 1 13 1h8q6 0 10 1l8 5q3 1 11 1q4 1 15 1q18 0 26 -7q9 -6 20 -6q10 0 24 7q15 6 26 6l4 1q3 4 11 9l18 12q23 14 29 14l1 -1q16 0 16 -20q0 -5 -1 -12.5t-3 -15.5l-1 -5l3 -5q3 -26 -12 -47q-5 -2 -9 -6q-3 -2 -11 -8q-2 -2 -5 -5.5 l-7 -8.5l-9 -9t-11 -10l-6 -10t-7 -11q-8 -10 -19 -28q-6 -3 -18 -12q-2 -2 -2.5 -4.5t-2.5 -4.5q-4 -6 -6 -10q-4 -3 -11 -10l-14 -14q-2 -4 -4 -7t-4 -7q-6 -8 -8 -13q-4 -3 -12 -11l-6 -6t-6 -5q-9 -15 -30 -39q-1 -2 -1.5 -4t-1.5 -4q-2 -3 -4 -9q-4 -4 -8 -6 q-5 -3 -7 -6q-2 -2 -2.5 -5t-2.5 -5t-2.5 -5t-2.5 -5l-30 -23l-12 -2l-3 3l-4 4q2 7 6 18.5l10 27.5l6 5q2 5 4 11.5t4 14.5q3 16 9 32q3 10 2 25q-2 7 1 12q3 6 3 8q0 3 -5 11q0 19 1 33.5t4 25.5q2 5 4.5 12.5l5.5 16.5q2 8 5 18.5t7 21.5l1 8q-6 3 -9.5 4.5l-3.5 1.5h-1 l-1 -1q-2 -1 -3 -1l-2 -1q0 -1 -2 -3q-5 -2 -9 -6q-3 -2 -11 -8q-1 -1 -5 -7l-8 -8q-2 -2 -2.5 -5t-2.5 -5t-2.5 -5t-1.5 -5l-2 -6v-2l-6 -2t-5 -1q-3 -2 -7 -4l-5.5 -7.5l-5.5 -7.5t-5.5 -8l-5.5 -9q-6 -3 -18 -12q-2 -2 -2.5 -4.5t-2.5 -4.5q-4 -6 -6 -10q-4 -3 -11 -10 l-14 -14q-2 -4 -4 -7t-4 -7q-6 -8 -8 -13q-4 -3 -12 -11l-6 -6t-6 -5q-9 -15 -30 -39q-1 -2 -1.5 -4t-1.5 -4q-2 -3 -4 -9q-4 -4 -8 -6q-5 -3 -7 -6q-2 -2 -2.5 -5t-2.5 -5t-2.5 -5t-2.5 -5l-30 -23l-12 -2l-3 3l-4 4q2 7 6 18.5l10 27.5l6 5q2 5 4 11.5t4 14.5q3 16 9 32 q3 10 2 25q-2 7 1 12q3 6 3 8q0 3 -5 11q0 19 1 33.5t4 25.5q2 5 4.5 12.5l5.5 16.5q2 8 5 18.5t7 21.5l1 8q-6 3 -9.5 4.5l-3.5 1.5l-4 -1.5t-13 -4.5l-7 1q-3 0 -12 -23q-6 -3 -15 -27l-2 -6v-2q-33 -12 -30 -12zM374 150q-3 -33 4 -33q12 0 39 39l18.5 29.5t9.5 20.5 q1 10 26 28q25 21 34 51q0 1 0.5 3t0.5 5q0 5 -6 19q-5 11 -5 23q-14 1 -40 9q-14 -10 -26 -21t-24 -24q0 -2 -0.5 -4t-0.5 -4t-0.5 -5t-0.5 -7l-2 -5l-6 -5q-2 -3 -3 -9q-1 -3 -3 -13q-2 -2 -2.5 -4.5t-2.5 -5.5q-2 -4 -6 -14q3 -6 0 -34q-2 -6 -2 -15q-1 -5 -1.5 -10.5 t-0.5 -13.5z" />
<glyph unicode="x" horiz-adv-x="397" d="M-88 8q4 -9 16 -9q7 0 20 7t18 7h2q7 0 13 7q10 13 12 14q3 3 14 7q13 5 16 8q4 4 7 11l3 6l2 4q9 9 15 13l13.5 17l9.5 12q13 9 21 12q3 4 5 7.5t4 5.5q9 9 16.5 15l12.5 10l11 1q6 0 7 -8q2 -7 -1 -20q0 -7 -0.5 -10.5t-0.5 -5.5q0 -9 6 -19q3 -5 4.5 -9.5t2.5 -6.5 q1 -10 0.5 -18t-1.5 -13q0 -2 3 -9q1 -5 0 -12q-1 -3 -1 -9q0 -12 11 -21q11 -8 23 -8q19 10 37 10q3 8 51 52q48 42 59 74q4 13 -4 13q-7 0 -44 -39q-38 -38 -60 -38q-1 -1 -8 2l1 3l-18 63l1 6q4 21 5 36t0 25q5 16 9 27t8 19q5 17 36 32q30 14 46 14q32 0 41 -16l6 -1 q16 0 27 12q10 13 10 28q0 21 -14 41t-29 20t-48 -37q-32 -36 -60 -36q-20 0 -24 16q-8 27 -8 26q-9 7 -12 8q-2 1 -7 11q-3 10 -7 11q-18 5 -27 5l-11 8q-7 5 -13 5h-1q-18 0 -50 -29l-45 -45q-5 -4 -9 -6t-6 -4q-7 -7 -16 -32q-11 -29 5 -29q8 0 20 12q11 11 14 20 q13 45 51 45q12 0 22 -7l9 -7t8 -7q14 -11 15 -23q0 1 0 -8q0 -8 -1 -25q-1 -25 -3 -37q-7 -25 -19 -35q-5 -2 -8.5 -2.5t-5.5 -1.5q-18 -15 -29 -26q-9 -2 -28 -15q-20 -12 -30 -12q-12 0 -15 -1l-15 -6q-12 -5 -15 -5q-25 0 -47 -27q-9 -11 -16 -24.5t-12 -27.5 q-5 -12 0 -21z" />
<glyph unicode="y" horiz-adv-x="336" d="M-381 -498q0 -21 6 -31q11 -17 13 -22q-3 -6 -3 -10q0 -8 12 -11l18 -5q24 -33 55 -33q33 0 66 18q32 18 51 46h5q6 13 21 15q10 2 16.5 2.5t8.5 2.5q1 0 16 19q8 9 14.5 15t11.5 10q-1 1 0 2t2 0l6 18q8 4 13.5 6.5t10.5 3.5q13 21 14 32l19 15.5t14 10.5q14 20 19 29 q8 6 13 10.5t9 6.5q4 11 5.5 19l2.5 13q2 6 15 17q12 10 14 16q4 19 4 33q7 15 12.5 25.5t10.5 17.5q5 21 6 29q8 11 14.5 19t11.5 13q2 12 3 17q9 26 16 37q5 17 8 30.5l5 22.5q3 5 5 9.5t4 6.5q4 16 6 27l8.5 11.5t5.5 7.5q2 9 3 15.5t2 11.5q2 6 16 30q14 26 14 33 q7 10 12 13q3 11 4.5 19l2.5 13l10.5 15t13.5 17q2 2 4 3t4 3q4 2 2 10q-2 24 16 49t18 27q-2 11 17 40q18 28 18 30q-2 10 -18 27q-15 15 -26 15q-9 0 -25 -30l-21 -39l-16 -16q-3 -9 -2 -22q1 -9 1.5 -15.5t0.5 -10.5q0 -11 -5 -16q-10 -12 -14 -23q-6 -29 -6 -43 q-16 -17 -28 -26q-7 -13 -10 -20q-23 -11 -54 -48l-4 -1q-4 0 -11 3l-6 1.5t-4 0.5q-4 1 -10 -2q-8 -2 -9 -2l-6 2h-2l-3 15q-2 10 15 27q-1 2 -1 10v22q16 21 27 28q4 13 5.5 22l2.5 15l14 20q8 12 7 24q-3 26 21 43q24 16 22 39q-1 21 -22 37q-4 -1 -8 -1q-3 0 -5 -1 q-6 -8 -7 -11q-85 -85 -90 -94q-12 -20 -11 -32q1 -9 6 -15q2 -2 6.5 -5t9.5 -7v-7q0 -4 -6 -8q-4 -4 -4 -12q1 -14 -8 -30q-8 -14 -8 -19q2 -17 -24 -64q-25 -46 -25 -51q2 -18 17 -26q-4 -1 1 -1h22q20 0 33 10q20 15 22 15q3 2 15 2q11 2 15 4q3 19 29 27l21 6 q-5 -13 -6 -19l-6 -9q-4 -4 -4 -12q0 -10 -3 -13l-6 -7.5l-2 -2.5q-12 -31 -15 -49q-4 -8 -7 -13t-5 -9q-1 -8 -1.5 -13.5t-0.5 -9.5q-11 -17 -18 -24q-2 -14 -3 -23.5t-2 -16.5q-15 -19 -25 -24q-5 -18 -5 -27q-4 -5 -7.5 -8.5t-6.5 -5.5q-10 -21 -16 -37.5l-11 -29.5 q-2 -6 -15 -16q-11 -10 -13 -19q-2 -10 -14 -29q-14 -21 -20 -24l1 -5q-32 -16 -51 -19q-17 -10 -25 -18q-5 -2 -21.5 -7t-45.5 -13q-55 -16 -64 -16q-4 -1 -14 2q-8 3 -12 3h-3q-11 -6 -17 -6q-49 0 -92 -26q-3 -11 -3 -21z" />
<glyph unicode="z" horiz-adv-x="257" d="M-712 -609q0 -8 11 -19q10 -10 18 -10q11 0 28 -3q15 -3 22 -3q20 0 65 12q15 0 42 9q24 7 40 7q17 0 22 -1l5 4q15 3 26.5 5t19.5 4l19 7l13 5l23.5 5t16.5 3l17 12t12 10q21 8 34 10q10 7 16 13q5 2 9 3t6 2l5 6q5 4 20 7q14 2 20 6q10 11 17 13l7 9t5 7q33 18 49 24 q18 18 26 30q5 4 14.5 9t23.5 11q26 10 37 18q16 22 24 39l33 28.5t26 20.5q10 11 17 19.5t11 15.5q4 2 8 4.5t8 4.5q8 5 8 13q0 5 -1 9q-1 3 -1 7q0 12 12 20q18 11 19 14q8 9 15 18t14 19q18 24 18 40q0 12 -15 12q-2 0 -3 -1h-3v-1l-4 -4q2 -10 2 -12q0 -8 -10 -15 q-8 -5 -11.5 -8t-5.5 -5q-1 -2 -3 -5.5t-5 -9.5q-4 -11 -11 -16q-7 -4 -12 -6.5l-9 -4.5q-6 -3 -13 -16q-7 -12 -16 -20v-5q-7 -4 -12.5 -6.5t-9.5 -3.5q-14 -18 -18 -26q-5 -4 -9.5 -5.5l-7.5 -2.5l-5 -10q-2 -2 -8 -2q-6 -2 -7 -3t-5 -7t-5 -7l-16 8v8q0 6 11 14 q12 9 13 10q6 16 6 26q3 3 7 6q5 5 5 8l-1 11l5 6v7q0 31 15 43q19 16 22 26q1 8 1.5 13.5t0.5 9.5q2 5 8 14q6 10 6 17q0 21 -1 16q1 7 10 13q13 22 13 32q0 8 11 21q10 13 10 20q1 20 5.5 39.5t14.5 38.5q14 16 22 21q5 17 6 25q3 6 12 15q7 7 12 21q1 5 11 15q8 8 10 15 q3 14 20 27q20 16 25 24q11 29 16 47l4 2l14 20t15 20q7 11 13 50l4 6l1 8q0 26 -21 26q-16 0 -31 -25q-4 -7 -7.5 -14t-7.5 -14l-19 -11q-40 -16 -60 -29q-8 -2 -14.5 -4t-11.5 -3q-10 -5 -20 -14t-21 -21q-8 -10 -17 -19.5l-18 -19.5q-4 -4 -17 -10q-12 -4 -17 -12 q-5 -11 -7.5 -19.5t-3.5 -14.5q-3 -3 -16 -10t-13 -16l1 -8q30 13 33 13q11 2 20 4t15 3q2 2 8.5 7t16.5 15q18 18 44 31q1 0 7 6q4 3 8 3q3 0 12 -3q9 -14 9 -15q-12 -25 -24 -32q-2 -6 -2.5 -10.5t-1.5 -7.5q-6 -15 -27 -30q-23 -16 -30 -26q-1 -1 -2 -3.5l-3 -7.5 q-3 -9 -8 -12q-8 -2 -17 -6t-20 -12q-23 -16 -23 -30t19 -14h7q5 0 10 1q8 2 13 0q6 -1 17 -6v-7q1 -5 -5 -11l-6 -8q-2 -10 -4 -17.5t-3 -13.5l-8 -8q-1 -4 -4.5 -14.5l-9.5 -27.5q-11 -33 -11 -37q3 -12 1 -17q-23 -23 -23 -40q0 -30 -10 -36q-17 -8 -24 -21q-2 -8 -3 -14 t-2 -10q-4 -5 -6.5 -9t-4.5 -6q-4 -10 -7.5 -17.5t-5.5 -13.5q-2 -2 -6 -7t-9 -13q-9 -15 -18 -20q-4 -2 -7.5 -2.5t-5.5 -1.5q-4 -9 -4 -15l-6.5 -6.5l-4.5 -4.5l-12 -16t-13 -16q-11 -14 -33 -25l1 -2l-9 -1q-16 0 -18 -1q-7 -12 -29 -28q-23 -17 -33 -17q-26 0 -41 -16 q-15 -15 -27 -15q-16 2 -22.5 3t-4.5 1l-4 -5l-30 -6q-14 0 -18 1l-5 -4q-12 -3 -18 -3q-5 -1 -19 -9q-13 -8 -21 -8q-20 0 -32 -5t-34 -5h-42l-4 -3t-12 -8q-16 -10 -39 -10q-11 0 -23 3q-6 2 -26 -24t-20 -33z" />
<glyph unicode="{" horiz-adv-x="478" d="M-80 -48q-2 2 3 37q0 1 -0.5 5l-1.5 12q-2 13 1 16q0 1 2 2q0 1 2 1q2 11 1 14q8 13 15 22q1 1 1 9q2 7 6 11q6 6 9 8q8 14 8 19q9 15 16 22q7 14 8 19q7 7 10 9q13 20 19 34q11 13 26 41q11 20 6 26q1 4 12 12t11 11q-1 1 -1 2t-1 2q5 20 6 31q-1 14 -1.5 25.5 t-2.5 21.5l-1.5 4.5l-0.5 1.5v3l-4 1t-9 2.5t-9 2.5l-4 1q1 1 -3.5 0.5t-2.5 1.5l7.5 1.5t17 4.5t19 7t14.5 9q18 21 19 24q16 26 21 31q3 4 3 8q0 3 -4 10q-4 5 -2 10q10 16 12 27q6 27 4 40q0 4 4 17q3 13 2 17v1q0 3 -2 5q0 2 -2 4q-1 3 3 10t4 9q1 8 0.5 13t-1.5 9 q0 3 4 8q4 6 3 10q-1 3 -2 5l-2 4q-2 5 2 10l5 10q1 8 1.5 13t0.5 9q0 1 5 6q4 5 3 6v2q-1 0 -1 1q-1 3 10 17q4 4 7.5 8l7.5 9l15.5 26t7.5 11l12 8.5t9 5.5q7 4 45 33q29 23 50 34q9 5 15.5 8t11.5 5l27.5 17.5l19.5 12.5q36 17 92 31q37 9 64 9q7 0 19 -3q5 -1 9.5 -1.5 t7.5 -0.5h5t8 2q5 0 8 0.5t5 -0.5q12 -5 13 -9h-68q-36 0 -73 -9q-46 -10 -73 -26q-8 -5 -12 -9l-24.5 -12l-18.5 -9q-16 -13 -21 -19l-30.5 -18l-22.5 -13q-10 -13 -11 -18q-8 -8 -13.5 -13t-10.5 -9q-5 -15 -6 -20q-5 -7 -9 -12t-8 -9q-3 -20 -3 -30q-2 -4 -4 -7.5 t-4 -7.5q-4 -10 -3 -16q2 -5 2.5 -8t1.5 -5q2 -8 -8 -26q-9 -19 -8 -25q3 -20 9 -29q6 -8 6 -7q0 -3 -8 -14q-5 -8 -9 -19q0 -2 5 -9q4 -6 3 -9q-2 -8 1 -11q0 -1 0.5 -2t0.5 -2q-2 -2 0 -3q1 -3 -6 -13q-1 -5 -1 -10q-4 -6 -9 -11q-6 -5 -6 -9q0 -3 5 -11q2 -2 -7 -8 q-4 -2 -6 -4l-3 -3q-3 -11 -3 -15q-10 -14 -40 -33q5 -2 8 -2.5l3 -0.5v-10q0 -4 -1 -9q-5 -25 -18 -35q-9 -3 -14 -3q16 -17 16 -33q0 -3 -4 -7t-4 -8q0 -2 4 -6q3 -5 3 -6q0 -2 -2 -4q-14 -11 -14 -16q0 -3 2 -6q0 -2 0.5 -4.5t0.5 -4.5q-6 -12 -6 -8q-2 -12 -6 -15 q-2 -2 -2.5 -3t-1.5 -2q-6 -4 -11 -12q-5 -6 -10 -10.5t-9 -7.5q-5 -12 -5 -19q0 -14 -7 -17q-8 -5 -17.5 -13.5t-20.5 -20.5q-6 -6 -11 -27q-3 -19 -10 -23q-4 -3 -13 -12q-10 -21 -12 -32q-5 -10 -9 -17t-8 -12q-2 -14 0 -21q-2 -7 -4 -12t-4 -9q-1 -3 4 -12q4 -10 4 -11 q-1 -5 -1 -9q0 -5 -1 -8q17 -22 29 -31q7 -14 8 -18q17 -14 29 -21l3 -6l2 -4q14 -16 54 -26q31 -9 66 -9h68l-21 -9q-7 0 -12 1q-4 1 -7 1h-4q-7 0 -20 -3q-7 -1 -11.5 -1.5t-7.5 -0.5q-28 0 -59 9q-47 13 -69 30q-17 20 -24 32q-7 4 -11.5 7t-8.5 5q-34 47 -44 69 q-4 4 -6.5 7t-4.5 5z" />
<glyph unicode="|" horiz-adv-x="416" d="M1 -146q-1 -5 10 -34q46 8 47 9q7 8 14 15l15 15l7 3q2 5 4 11l7.5 29t3.5 12q4 10 28 34l7 2q7 10 16 35q5 13 9 21.5t8 13.5l-2 43q5 12 8.5 24t8.5 25q3 9 6 21t5 28l7 13.5t5 9.5h3l2 5q3 32 2 45q3 41 26 93q2 5 11 16t11 19v15q0 7 -1 12q4 11 7.5 18.5t5.5 12.5 q6 37 6 58q8 37 19 67t24 54q10 13 15 21q1 5 2 9.5t2 9.5q2 5 14 16l2 6q1 8 1.5 13.5t-0.5 9.5q11 20 21 32q4 11 7 18.5l5 12.5q5 10 32 34q29 26 42 49l-12 3l-34.5 -21t-24.5 -16q-5 -8 -9.5 -14t-6.5 -11l-8 -6l-25 -19q-19 -13 -24 -37q-2 -17 -3 -24t-11 -10t-13 -6 q-5 -11 -6 -15q-14 -19 -27 -48t-26 -67q-3 -16 -5 -28.5t-3 -21.5q-2 -18 -15 -43q-13 -24 -16 -39q-2 -10 -4.5 -19l-5.5 -19q-4 -17 -19 -32l-2 -8q-1 -8 -1 -15v-11l-2 -5q-14 -19 -14 -20q-1 -1 1 -10q2 -6 -2 -8q-17 -16 -29 -42q-12 -27 -8 -27l-5 -34t-4 -21v-2 q-6 -21 -10 -28q-1 -11 -1.5 -19.5t0.5 -13.5q-1 -8 -15 -25q-13 -18 -14 -26q-1 -4 -0.5 -9t1.5 -13q1 -15 0 -24q-9 -38 -40 -82q-30 -44 -30 -40zM430 939q-4 -6 21 -11q21 -5 37 -7t27 -3l1 -11q-7 -1 -19 -22q-13 -20 -14 -29q-1 -2 -1 -9l5 -6q44 16 52 34l16.5 8 l18.5 9q18 7 21 23h1q4 16 -8 29q-11 12 -28 12q-9 0 -24 -4q-15 -3 -23 -3q-6 0 -18 5q-10 5 -13 6h-8q-39 -16 -44 -21z" />
<glyph unicode="}" horiz-adv-x="478" d="M-160 -200l15 -9h5t8 1t8 1h4q6 0 18 -3q5 -1 9.5 -1.5t8.5 -0.5q26 0 64 9q56 13 91 30l28.5 19t19.5 13l27 12l57 40t38 29l10.5 7t8.5 5q19 27 24 37q1 1 4.5 5l10.5 12q12 14 11 16v2q-1 0 -1 1q-2 1 4 7q4 6 4 7q3 16 2 22q0 4 4 9q3 6 2 10q0 -2 -3 9q-1 4 3 10 q4 5 4 9q0 2 -0.5 4.5t-0.5 6.5q-3 6 -1 11q0 2 4 9q3 8 2 10q0 -2 -3 9q-2 4 3 18q4 12 4 16q-2 8 3 41q6 22 13 26q2 5 -2 11q-4 5 -4 9t5 7q5 10 9.5 17.5t8.5 13.5q1 3 20 25q4 5 15 9t22.5 7t21 4.5t9.5 2.5q1 1 1.5 2t2.5 2q3 1 3 4v3l-2 6q0 6 -8 12t-18 11.5t-18 11 t-9 11.5q2 10 3 18t2 14l-2 4q0 4 11 12t12 11q-5 6 6 27q25 38 27 40q5 11 9.5 19l8.5 15v1q3 3 6 5l4 4q6 10 8 19q5 7 9.5 12.5t7.5 9.5q5 10 7 18q7 7 10 9q8 14 6 20q5 8 9 13t6 9q1 5 1 12q1 1 3 2v1h1q3 20 0 34v6t2 13q2 13 -2 19q-5 8 -9 11q-2 4 -7 12.5l-13 22.5 q-6 11 -11.5 19.5t-12.5 14.5q-11 8 -19 13l-14.5 17.5t-10.5 12.5q-55 40 -127 40q-6 0 -19 -3q-6 -1 -10.5 -1.5t-8.5 -0.5q-7 0 -12 1t-12 1q-16 -4 -22 -9h69q34 0 66 -9q40 -10 54 -26q3 -3 5 -9l16 -12t12 -9q6 -10 8 -19l4.5 -4.5t11.5 -10.5q12 -10 13 -16 q0 -10 -2 -18q0 -3 5 -11q4 -9 3 -11q-2 -7 -4 -12t-4 -8v-21q-10 -21 -16 -30q-1 -1 -4 -16q-3 -9 -9 -15q-4 -5 -7.5 -8t-5.5 -5q-7 -7 -11 -26q-5 -18 -10 -25q-21 -23 -38 -33q-7 -3 -7 -17q0 -7 -5 -19q-5 -6 -10 -10.5t-9 -7.5q-5 -8 -10 -12q-2 -2 -4 -3.5t-3 -2.5 q-2 -2 -2 -13q0 -2 -3 -5t-3 -5q-2 -6 1 -10q0 -2 0.5 -3t0.5 -2q0 -5 -14 -16q-2 -2 -2 -3q0 -2 4 -6q3 -5 3 -6q0 -3 -4 -7t-4 -8q-2 -14 15 -33q-7 -2 -10 -2h-3q0 2 -11 -18q-10 -19 -10 -31q0 -4 1 -6q6 -3 11 -3q-30 -20 -39 -33q-3 -11 -2 -15q-1 -1 -10 -7t-7 -9 q4 -7 4 -11q0 -3 -6 -9q-7 -7 -8 -11q-2 -6 -2 -8q-8 -12 -6 -14q1 -1 1 -3q-2 -2 0 -3q3 -4 1 -12q0 -2 5 -9q4 -6 3 -9q-4 -11 -9 -19q-8 -13 -8 -14q0 1 6 -8t9 -29q1 -7 -9 -26q-9 -17 -7 -25q2 -5 4 -11q2 -8 -3 -15q-2 -5 -4 -9l-4 -8q-1 -10 -1.5 -17t-0.5 -12 q-11 -14 -18 -21q-5 -14 -6 -21q-13 -15 -25 -23q-4 -5 -6 -9.5t-4 -7.5q-16 -11 -29 -18.5t-23 -12.5q-15 -12 -21 -18q-14 -7 -25 -12t-19 -9q-6 -6 -12 -10q-27 -16 -73 -26q-38 -9 -73 -9h-68z" />
<glyph unicode="~" horiz-adv-x="463" d="M20 867q-1 -40 14 -49q8 -2 13 0q4 -2 8 -5q3 -4 6 -4q-2 0 29 14q12 5 13 2q6 -6 7 -6q15 -3 29 4q12 9 18 15q15 8 27 13t22 7l14.5 10.5t11.5 7.5q3 1 11 1q5 -3 12 1q3 1 26 19q16 13 26 13q6 0 14 -4q7 -3 13 -3q5 0 12 4t13 4q13 0 26 -24q10 -21 10 -50 q0 -12 10 -12q8 0 20 6l27 34l-9 24q-1 10 -2 17t-3 12q-10 40 -18 46q-8 5 -16 5q-1 0 -44 -13q-27 -3 -36 -2q-5 -2 -9.5 -4t-7.5 -4l-36.5 -19t-26.5 -13q-80 -37 -114 -37q-18 0 -34 8q-18 10 -19 16q-1 3 -1 28q0 9 1 23t3 33l-7 3q-52 -65 -53 -121z" />
<glyph unicode="&#xa1;" horiz-adv-x="470" d="M83 -10q1 -19 18 -19q16 0 36 13q22 14 24 20q2 4 10 36q4 21 18 33l3 7q1 3 1 14q-1 9 0 13l2 4q14 19 14 20q1 1 -1 10q-2 6 2 8q18 18 29 43q12 27 8 27q6 43 9 55v2q3 9 5.5 15.5l4.5 11.5q1 11 1.5 19t0.5 13q2 12 14 27q13 18 14 26q1 3 0.5 8t-1.5 13q-2 13 0 24 q7 37 39 84q30 43 30 39q1 7 -9 33l-47 -8q-7 -8 -14 -15l-15 -15l-7 -3q-1 -4 -2 -6.5t-2 -4.5l-7.5 -29t-3.5 -12q-5 -11 -28 -34l-7 -3q-7 -10 -16 -35q-5 -12 -9 -20.5t-8 -13.5l1 -44q-24 -79 -27 -97l-12 -24l-3 1l-2 -6q-5 -32 -3 -48q-5 -44 -25 -89q-2 -5 -11 -16 t-11 -19q-1 -10 -0.5 -16.5t1.5 -11.5q-1 -2 -2.5 -6t-5.5 -9q-6 -10 -5 -15h-1zM363 682q-2 20 1 24q9 12 11 18q2 5 -1 23q-1 13 10 24l8.5 7t5.5 5q4 4 7 10q7 7 43 21q2 1 6 1q25 0 29 -13q5 -20 3 -23q-1 -16 0 -26l-4 -4l-30 -39q-4 -5 -7 -11t-7 -11q-11 -11 -36 -21 v-1q-8 -3 -12 -3q-18 0 -25 19l1 -1z" />
<glyph unicode="&#xa2;" horiz-adv-x="261" d="M-6 98q0 -20 13 -37q13 -18 30 -22q-1 -13 -7 -13q-11 -26 -15 -31q-5 -8 -6 -9q-9 -20 -9 -27q0 -12 15 -16q1 -1 3 -1q25 -8 30 3q17 22 17 31q1 3 17 20q8 10 11 29l2 14l1 2q2 14 23 20q33 10 50 30q4 4 9 25l8.5 23l5.5 14l-16 -4h-3q-7 0 -12 -8l-2 -3q-2 -2 -6 -4 q-12 -5 -17 -13q-23 -17 -37 -20l-3 -3q-2 -1 -4 -1q-29 0 -31 2t-2 29q9 22 9 35l8 5l3 7.5t2 4.5l1 3q5 7 9 12t8 9l11.5 13.5t6.5 9.5q5 9 6 11q22 13 32 16l4 1q3 0 7.5 0.5t11.5 1.5q6 1 10.5 1.5t7.5 0.5q18 0 31 8q1 1 6 6.5t15 15.5v5q0 28 -23 39q4 4 5.5 10.5 l3.5 14.5l2 15l1 2q0 4 1 7v7v20l-7 15l-26 -2l-15.5 -27.5t-14.5 -27.5q-3 -7 -4 -7q-8 -17 -12 -27q-5 -1 -11 -3q-16 -4 -23 -14q-7 -9 -10 -11l-3 -2q-27 -24 -39 -42q-3 -3 -13 -10q-9 -6 -12 -12q-4 -9 -4 -16q-2 -5 -15 -15q-14 -11 -14 -23q2 -12 3 -16.5t1 -0.5 q0 -3 -4 -7l-2 -3q-9 -14 -9 -22q0 -6 -5 -19q-5 -12 -5 -19z" />
<glyph unicode="&#xa3;" horiz-adv-x="567" d="M-1 -228q19 -10 24 -10h1q-3 0 18 7q9 2 16 3t12 2t14.5 6.5l25.5 14.5q25 15 45 15q10 -2 17 -3t12 -2q38 -1 67 -1.5t49 -0.5h10q7 0 15 2q8 0 14.5 0.5t10.5 0.5q7 0 18 -0.5t27 -1.5t27.5 -1.5t19.5 -0.5q36 0 56 11l3 -1q3 1 12 -1q10 -2 11 -2q11 0 26 4q16 3 24 3 h7q5 0 12 -1t11 -1h9q25 1 54 7t62 19l25 12.5t18 9.5l42 15q21 7 36 21q15 13 20 21q4 2 7 4.5t7 4.5q6 5 8 14q3 16 11 22q9 7 10 11q0 13 -1 17h-15q-3 0 -39 -17q-35 -17 -36 -21q-2 -4 -2 -7q-1 -7 -1 -12v-9q-2 -8 -16 -24q-17 -18 -24 -22q-15 -9 -41 -12l-20 -2 t-21 -3q-3 -1 -8 -2.5t-13 -5.5q-13 -7 -25 -7q-37 0 -33 1q-13 -3 -22.5 -5.5t-15.5 -4.5h-10q-5 0 -13 2q-7 0 -12 0.5t-8 0.5h-45q-48 -2 -76 -2q-27 0 -37 -2q-4 0 -21 -5q-13 -4 -23 -4t-35 5t-33 5t-24 -3q-8 -1 -14 -1.5t-10 -0.5q-13 0 -18 5q-2 2 -4.5 5t-4.5 5 l30 48.5t21 34.5l17 29l12 20l24 24l14 32.5t9 23.5q1 4 15 24q10 14 11 26q2 12 3 21t2 16q15 26 25 37l5 12q7 7 27 7h24q10 0 13 2q1 0 34 18v18l-10.5 0.5t-32.5 2.5q-26 1 -42 6l1 7q-1 -1 -2 2v8q4 5 7.5 10l6.5 9q6 13 12 42q6 30 13 42l12.5 17.5l9.5 12.5 q4 8 7 19.5l7 27.5q6 31 12 45q5 14 23 34l14 17.5t8 12.5q2 3 3.5 8l3.5 12q2 11 6 20q21 27 32 37q6 6 19 32q10 19 22 30q5 4 9 6.5t7 3.5l19.5 19.5t13.5 14.5q24 13 35 17l13 11.5t8 8.5q13 4 21 6q24 15 37 27q12 4 21 6.5t15 3.5q10 5 17 9t12 8q102 40 206 40 q81 0 119 -26q12 -15 14 -21l16 -14.5l12 -11.5q13 -23 13 -64q0 -52 -16 -99q5 -2 5 -3l-2 -4l24 3q25 41 29 74q4 23 1 39q-7 16 -13 23q-4 14 -6 23.5t-4 16.5q-17 23 -30 34l-15 18q-9 10 -18 15q-20 8 -45 11l-25.5 2t-24.5 3q-5 1 -25 6q-18 5 -28 5h-9 q-25 -7 -41 -14q-3 -1 -10.5 -1.5t-20.5 -2.5q-21 -2 -30 -7q-11 -5 -15 -9l-43.5 -12t-31.5 -7q-8 -5 -14.5 -9.5t-11.5 -8.5q-10 -2 -17.5 -4t-12.5 -3q-50 -25 -71 -39q-10 -4 -17 -6.5t-12 -4.5q-4 -4 -6.5 -7t-4.5 -5q-27 -16 -41 -20q-28 -23 -47.5 -41.5t-31.5 -32.5 q-10 -8 -18 -13.5t-13 -9.5l-12 -17.5t-7 -12.5l-7 -3q-4 -8 -6.5 -15t-4.5 -12l-17.5 -25l-12.5 -18q-10 -19 -13 -33q-14 -17 -21 -24q-5 -12 -8 -21l-5 -15l-18 -36.5t-13 -26.5q-4 -11 -6 -19t-4 -13q-2 -10 -18 -38q-12 -23 -15 -36q-3 -19 -8 -26l-3 -1q-4 -3 -7 -6 t-7 -5q-7 -5 -22 -5h-9q-4 0 -11 1t-12 1h-6q-59 1 -132 -26l1 -13q72 9 120 9q62 0 65 -16q1 -4 0.5 -9.5t-1.5 -13.5q-7 -24 -13.5 -41.5t-11.5 -28.5l-34.5 -83t-13.5 -33l-33 -48.5t-25 -34.5q-5 -6 -21 -33q-13 -21 -23 -31q-8 -8 -21.5 -16.5t-31.5 -16.5l-37.5 -16 t-19.5 -10z" />
<glyph unicode="&#xa4;" horiz-adv-x="258" d="M27 601q-2 -8 21 -20q21 -12 34 -12q42 0 89 46l11.5 8t8.5 5q2 5 3.5 9.5t2.5 6.5q1 1 2 1t3 2q2 0 5 3q6 9 9 15q14 14 14 24q0 9 4 20q3 10 3 17q1 4 0 9l-4 4q-1 5 -1 9t-1 9q-5 12 -15 12h-6t-9 1t-8 1h-5h-1q-18 0 -40 -25q-5 -2 -9.5 -4t-8.5 -4q-11 -8 -20 -15.5 l-15 -12.5l-9 -7t-6 -5q-4 -4 -4 -9l-7 -8.5t-5 -5.5q-2 -4 -2.5 -7t-1.5 -5q-6 -6 -10 -12q-2 -6 -2 -8q-1 -1 -1.5 -2t-2.5 -2t-2.5 -2t-1.5 -1q-2 -3 -7 -18zM70 616q0 -2 21 30q8 17 9 25l4 1q10 9 18 15l13 10q4 4 7 7.5t7 7.5q7 7 28 7h-1q12 0 13 -7v-13l1 1l2 -2 q-5 -20 -7 -22q-11 -11 -13 -14q-2 -2 -7 -20q-3 -13 -14 -19q-1 -1 -5 -2l-6 -2q-2 -4 -4 -7t-4 -7q-7 -10 -34 -10q-7 0 -18 8q-10 7 -10 13z" />
<glyph unicode="&#xa5;" horiz-adv-x="1266" d="M26 -34q-2 -8 3 -42q4 -15 7.5 -26t5.5 -18q1 -20 0 -30q2 -7 6 -11l-1 -7q-3 -17 5 -33l8 -13.5t9 -13.5q2 -2 4 -9.5t6 -18.5q6 -17 15 -24q9 -8 28 -9q31 -3 32 -3q6 -1 27 -11q7 -3 16 -5t22 -2q5 0 11.5 0.5t15.5 1.5q9 -3 15.5 -6t11.5 -5h3q12 0 32 10q19 8 32 10 l5 1l10 -4h7q5 0 20 5q6 2 10.5 3t7.5 2q14 0 24.5 -0.5t17.5 -1.5q7 2 25 10q20 9 37 12q8 1 52 27q7 7 9 12l13 8q28 3 42 3q4 2 49 31q46 30 48 34q1 3 3 7q153 81 217 142q115 111 162 216q24 53 32 90q1 19 0 28q2 8 6 19.5t10 25.5l24.5 54l18.5 40q8 16 13 28.5 t9 20.5q10 22 12 26q3 4 15 15q10 10 13 18t5 14.5t4 11.5q10 22 43 59q47 54 52 61l35 49t26 35l20 25.5t8 10.5q5 14 -2 25q-11 10 -15 12q-43 -36 -61 -57l-17.5 -13.5t-12.5 -9.5q-11 -17 -16 -28q-5 -7 -21 -20q-11 -11 -18 -25q-2 -9 -5.5 -16t-7.5 -12l-11 -9l-9 -7 l-8.5 -14t-5.5 -10l-5.5 -5.5t-9.5 -8.5q-12 -12 -14 -17q-3 -5 -5 -9.5t-4 -7.5q-3 -5 -10.5 -13.5t-20.5 -21.5q-18 -19 -28 -41q-12 -28 -19 -43t-9 -17q-3 -5 -10 -12.5t-19 -18.5q-9 -9 -15.5 -17.5t-9.5 -18.5l-2 -6l3 -12l-2 -4l-9 -20t-7 -15q-6 -11 -6 -19 q0 -5 3 -14t2 -16q-3 -16 -12 -37q-15 -32 -27 -55l-20 -39v1q-18 -44 -39 -63q-14 -13 -25 -27.5t-21 -30.5q-8 -12 -50 -51q-20 -19 -34.5 -30.5t-22.5 -16.5q-21 -10 -34 -13l-9 -9t-6 -8q-6 -5 -15.5 -11.5t-23.5 -14.5q-28 -17 -38 -27q-9 -9 -17 -15q-5 -4 -23 -7 q-17 -2 -24 -6q-15 -12 -19 -18q-13 -5 -19 -6q-10 -13 -27 -16q-16 -1 -28 -1.5t-20 -0.5q-11 -2 -35 -12q-12 -5 -23.5 -7.5t-22.5 -4.5q-45 -9 -70 -17q-5 -1 -13 -0.5t-19 1.5q-10 1 -19.5 0.5t-17.5 -1.5q-11 -2 -21 4l-18 9q-12 2 -21 3t-15 1q-27 6 -52 34 q-20 23 -40 49q-3 4 -5 6l-4 4l1 1q3 7 -5 18q-10 15 -12 26l-10.5 36.5t-8.5 25.5q-1 3 7 40q3 17 5.5 27.5t4.5 14.5q13 24 21 36q1 11 1.5 19t0.5 13l2 1q1 6 20 35q17 29 21 32l22.5 8.5t16.5 5.5l30.5 25t21.5 21q15 3 23 3q6 1 20 18q13 16 28 19q11 2 30 -7 q17 -9 29 -7q34 5 47 9q12 4 18 4q12 -7 31 -5q5 1 14 -4q7 -5 18 -3q18 -18 23 -35q3 -4 13 -10t13 -12q8 -15 11 -38q3 -18 -2 -29q-4 -10 -5.5 -16t-2.5 -8q-8 -38 -13 -45q-4 -7 -42 -28l-4 -6l-10 -3q-35 -4 -40 23q-2 12 8 32q9 20 8 32q-3 8 -6 14l-5 10 q-13 -1 -32 9q-20 10 -26 9q-30 -8 -44 -13l-4 -2q-6 -9 -28 -29q-13 -13 -13 -31q0 -5 0.5 -10t1.5 -11q11 -77 77 -77q4 0 8 0.5t9 0.5q22 2 38.5 1.5t27.5 -1.5q9 1 26 15q13 12 23 14q13 1 39 41q11 17 18.5 30.5t9.5 22.5q2 16 3 23q1 2 2.5 4.5t4.5 6.5q4 4 3 15 l-9 30.5t-8 21.5q-1 17 -15 23q-20 9 -24 13q-15 19 -22 33q-27 24 -76 18q-8 -1 -29 7q-10 4 -19 6t-17 0q-18 -3 -31.5 -5t-21.5 -4q0 -1 -2 -3l-2 5q0 -3 1 -4v-1h-27q-11 -2 -21 -15q-11 -14 -40 -17q-10 -1 -22 -15q-11 -14 -21 -24q-13 -10 -23 -17l-17 -12 q-21 -35 -27 -54l-13.5 -18l-9.5 -12q-4 -11 -6 -19.5t-4 -14.5q-5 -9 -19 -24q-15 -17 -18 -30q-2 -6 -2.5 -13.5t-1.5 -15.5l-1.5 -36t-0.5 -13zM578 174q0 -22 30 -22q21 0 47 15l45 27l63 24q13 10 19 16q10 5 19.5 11t19.5 11l21.5 13t16.5 12q11 11 18.5 19.5 t12.5 13.5q1 1 14 7q7 3 10 13q12 7 21 11t14 6q41 33 56 51q1 1 20 12q12 7 16 16q0 4 -2 6l2 2q-23 2 -36 -7l-3 -9l-10 -4q-10 -11 -12 -16l-30.5 -21t-24.5 -14q-14 -15 -17 -21l-28.5 -19t-21.5 -13q-14 -11 -28 -20.5t-28 -20.5q-17 -12 -31 -21t-28 -14l-1 -4 q-5 -1 -12 -1q-23 -2 -23 17q0 8 4 16q12 22 22 37.5t16 26.5q37 62 57.5 104t34.5 60q10 13 18 22l13 15q11 17 18 29l12 20l13.5 16.5t10.5 11.5q10 24 11 34l28.5 41t22.5 29q22 32 36 54.5t20 36.5l5 13.5t4 9.5l6 9l11 9q6 7 10 17q3 9 3 16q0 15 -17 15h1q-8 0 -21 -6 q-20 -10 -23 -10q-2 -2 -15.5 -5t-36.5 -9q-32 -8 -53 -18q-31 -19 -47 -32q1 0 4 -4q1 -4 9 -4t27 13q20 14 25 15q11 2 20 3t14 1q0 -3 3 -6q4 -2 2 -5q-8 -17 -17.5 -33t-20.5 -32q-2 -3 -6 -7.5t-11 -11.5q-9 -9 -15 -23q-9 -23 -14.5 -40t-9.5 -28q-7 -17 -35 -55 q-13 -18 -21.5 -31.5t-12.5 -23.5q-7 -17 -10.5 -30l-5.5 -21q-4 -4 -9 -14q-6 -7 -11 -11.5t-9 -8.5q-14 -17 -23.5 -30.5l-15.5 -22.5q-5 -5 -11 -9t-11 -8t-9 -10.5t-8 -14.5q-3 -8 -5 -14.5t-4 -10.5q-32 -47 -50 -65q-52 -68 -52 -96z" />
<glyph unicode="&#xa6;" horiz-adv-x="2195" d="M44 42q0 -48 63 -48q15 0 20 1l4 5q36 16 61 16q10 0 31 -12t39 -12q24 0 41 12q15 11 20 22q5 3 46 17q0 -3 0.5 -7.5t1.5 -10.5q1 -5 1.5 -9.5t0.5 -7.5q0 -9 -8 -22q-7 -11 -7 -19q0 -12 6 -36q5 -25 5 -35v-36q9 -22 16 -32q2 -3 6 -25q5 -17 10 -24q7 -5 12 -8t9 -5 q12 -16 16 -26q9 -8 16.5 -14l12.5 -10q7 -5 17 -21t20 -23t25 -8q8 -1 15 -2l14 -2q10 -8 27 -9q8 -1 16 -1t16 -1q-2 2 1 6q0 2 0.5 3t0.5 2q-26 16 -48 24q-16 2 -25 3t-12 3q-18 6 -16 31l-21 27q-15 5 -34 40q-20 37 -20 53q0 14 -11 49q-10 31 -10 51q0 6 1.5 15 l3.5 22t3 22t1 15q0 66 12 93q19 23 25 37q1 2 1 9q0 16 17 56q16 36 16 45l6 2q5 11 8 19l5 13q14 25 30.5 45t33.5 36q7 13 8 15q13 5 18 5q8 5 41 32q5 4 10 11l13 18q13 18 25 27l19 8.5t13 5.5q8 5 18 19q11 14 19 18q13 4 22 6.5l16 4.5q14 25 55 34q49 10 59 19 q12 -2 33 9q19 10 32 10t56 10q43 9 58 9h2q13 -9 38 -11v-8q-48 -56 -48 -105q0 -12 18 -22q17 -10 31 -10q11 0 26 7t23 7q15 0 29 -26q11 -23 14 -40q2 -1 6 -2t11 -3q10 -3 16 -3q28 0 49 15t29 15q6 0 14 -7q-18 -73 -29 -100q-1 -2 -4.5 -7l-9.5 -13q-8 -11 -8 -23 q-2 -25 -17 -46q-16 -22 -16 -37q0 -29 -13 -36q-18 -10 -23 -20q-2 -10 -3 -17.5t-2 -12.5l-8 -7l-1 -5q-1 -5 -8 -21q-5 -15 -5 -18q0 -10 -3 -31q-3 -20 -3 -31q0 -8 1 -11l8 -11q5 0 8 -1h7q11 0 25 12q18 17 22 18q8 3 14 5t10 3q4 5 6.5 9t3.5 7q25 6 37 25 q5 10 10.5 19.5l11.5 19.5q7 13 35 39q23 21 34 44v8q56 31 59 31q11 0 11 -14v-7l-8 -16q2 -17 -19 -51t-37 -45q-2 -8 -3 -14.5t-2 -11.5q-1 -2 -19 -22q-6 -8 -6 -44q0 -5 13 -22q3 0 6 -1h5h4q1 1 2 1l8 10q10 -1 18 16q3 6 5.5 12t5.5 12q10 7 13 18q5 19 6 20 q13 18 19 24q2 6 2.5 10.5t1.5 8.5l9.5 9.5t7.5 6.5q4 11 5.5 19.5l2.5 14.5q11 14 16 18q2 3 3 13t5 14q11 8 16 9q5 7 11 14l12 14q17 20 49 20h3q1 -1 2 -1q0 -16 -7 -41q-4 -14 -7 -23.5t-7 -14.5l-8 -6q-10 -15 -42 -83q-33 -69 -33 -79q0 -3 8 -21q12 -3 11 -3 q5 1 6.5 1.5t0.5 0.5l3 5q5 2 9.5 3.5t6.5 2.5q3 4 8 9.5t12 12.5l12 12t8 9q5 14 7.5 25t3.5 19q13 22 24 33q2 8 3 14.5t2 11.5q19 19 19 24q19 19 30 27l24 32q11 11 34 21q12 -9 12 -15v-2q-1 -1 -1 -2q-17 -18 -36 -61q-10 -22 -18.5 -37t-15.5 -24q-4 -11 -6 -20.5 t-4 -17.5l-3 1v-6q-15 -14 -15 -34q0 -6 5 -6l-1 -13l35 -29q9 0 50 30q41 29 60 29h3l1 -3q-6 -28 18 -38q7 -15 35 -15q9 0 38 18q13 8 22.5 14.5t14.5 11.5h1q2 2 20 8q9 3 17 15l37 23q2 0 4 1h4h7q4 -1 8 -1q13 23 19 35l6 12q1 1 5 4.5l12 10.5t10 18v3q0 10 -18 10 q-51 0 -51 -26q0 -31 -57 -65l-2 3q-8 -6 -12 -11q-21 -10 -31 -10q-6 0 -26 11q-2 31 17 55l21 17t14 12q15 10 51 19q33 9 50 17l1 -1h6q10 10 15 18h6q17 17 31 20q10 6 13 22q1 2 4 27l-16 -5q-6 -2 -12 2q-10 17 -10 21q0 9 6 29q6 19 6 30v4q-1 1 -1 4q-1 1 -1.5 3 t-2.5 4q-2 4 -4 7h-4q-10 13 -22 13q-7 0 -26 -11q-18 -11 -23 -18q-8 -12 -12 -22q-7 -9 -25 -16q-14 -7 -25 -28q-4 -1 -9 -11q-11 -10 -17 -24t-17 -20q-5 -3 -8 -4.5l-3 -1.5q-9 -20 -9 -32q-25 -35 -40 -48l-3.5 -7t-6.5 -14q-6 -13 -14 -18q-11 -5 -19.5 -7.5 t-14.5 -3.5q-11 -23 -38 -27l-8 8q7 25 22 35v13q0 38 19 66l26.5 39.5t10.5 15.5q2 4 3.5 12t4.5 22q3 17 18 32q0 2 1 3v3v3q-1 2 -1 4q-31 14 -47 14q-20 0 -37 -17q-15 -17 -23 -17q-2 0 -3 1h-4l-14 25t-11 18q-7 7 -23 7q-32 0 -51 -22t-34 -22q-11 0 -11 14v25 q-27 27 -35 27t-19 -11l-8 1l-21 -24v-6q-13 -5 -24 -7q-15 -21 -16 -33q-5 -5 -9 -8.5t-7 -5.5q-8 -14 -9 -20q-14 -29 -55 -67l-11 -3q-30 -32 -42 -51q-12 -10 -21.5 -17t-16.5 -11q-5 -5 -8 -9.5l-5 -7.5q-6 -2 -10.5 -3t-8.5 -2l-8 -11h-10l-6 8v5q-1 2 -1 4 q0 50 28 77q6 16 10 28t6 20q9 11 16.5 18.5l12.5 12.5v9l6 5q3 9 9 35q4 22 12 34l13 11q2 6 5 12t5 13q5 8 20 20q5 13 5 33q0 21 5 29q8 15 32 23l14 26.5t8 19.5q4 5 71 51q5 1 8.5 1.5t5.5 0.5q16 16 21 27l59 45l27.5 14l19.5 10q5 5 12 16q7 12 13 16q27 11 40 14 l22.5 21.5t14.5 17.5q6 6 26 20l14.5 11t10.5 10q7 9 11.5 16.5l7.5 12.5l18 20t19 20q12 16 12 56q0 15 -4 24q-10 8 -19 17l-18 18q-20 16 -47 16q-42 0 -73 -28l-28.5 -27l-28.5 -28l-39.5 -29l-34.5 -24l-29 -61q-7 -5 -13.5 -9l-11.5 -7q-5 -7 -8 -20q-3 -15 -7 -20 q-13 -12 -22 -17q-9 -16 -13 -26q-29 -29 -45 -57q-1 -4 -2 -7t-3 -7q-1 -1 -5 -4t-12 -8q-10 -26 -13 -43l-12 -19t-9 -13q-5 -2 -9.5 -2.5t-7.5 -1.5q-10 -13 -13 -22q-6 -4 -10.5 -6.5t-8.5 -4.5q-12 -10 -20.5 -18t-13.5 -14q-11 -5 -18.5 -9.5t-12.5 -6.5q-13 0 -25 13 q-11 13 -11 25v7l6 8q0 21 8 29q19 16 21 19q28 42 32 56q3 10 5 17.5t3 12.5q5 8 28 27q16 13 16 35q0 13 -10 34q-8 -2 -14.5 -3t-11.5 -2q2 -8 -6 -13q-5 -4 -8.5 -6t-4.5 -3q-2 -7 -4.5 -13t-4.5 -13q-6 -17 -20 -17q-5 0 -9 2q-3 0 -5.5 0.5t-4.5 0.5h-3l-7 -5h-3 q-2 -1 -4 -1q-27 0 -24 1l-7 -6q-5 0 -15 3q-9 3 -14 3q-8 0 -17 -4t-17 -4h-38l-8 -8q-30 -11 -35 -11q-7 0 -15 5h-6q-3 0 -7 1h-13q-15 0 -28 -3q-17 -16 -33 -16q-15 0 -39 -9q-23 -9 -35 -9q-24 0 -34 -7q-15 -10 -27 -13l-45 -9q-1 -1 -3.5 -2.5l-7.5 -4.5 q-8 -6 -13 -6q-17 0 -14 1q-9 -9 -16 -9q-18 0 -38 -23l-12 -13.5t-11 -13.5q-18 -5 -26 -5q-26 -8 -21 -8q-11 0 -30 10q-18 9 -31 9h-4q-17 -23 -17 -29q0 -9 8 -23q8 -13 8 -18q0 -15 -19 -28q-23 -16 -27 -22q-10 -21 -12 -29q-9 -13 -18 -22q-8 -17 -9 -24l-13.5 -12 t-9.5 -7v-5h-3q-17 -22 -24 -40l-24 -27t-18 -19q-8 -21 -9 -31q-12 -12 -14 -28q-2 -29 -4 -33q-9 -18 -9 -19q0 -7 2 -12q0 -4 0.5 -7t0.5 -5q-66 -29 -71 -29q-17 0 -30 12q-12 12 -12 28q0 8 8 22q7 16 7 22q0 2 -0.5 4.5t-1.5 6.5l-1.5 6t-0.5 4q0 9 11 17q10 7 12 11 q4 8 6.5 14.5t3.5 11.5q1 3 15 18q9 9 11 20q2 16 3 23q2 8 13 21q8 10 8 25q0 30 -3 38q-4 10 -29 18l-32.5 -27l-23.5 -19q-47 -9 -71 -24q-26 -17 -50 -58q-1 -3 -17 -12q-14 -8 -18 -15q-2 -7 -4 -11.5t-3 -7.5l-11.5 -15t-8.5 -10q-16 -46 -20 -67q-1 -2 -4.5 -8 l-8.5 -14q-8 -14 -8 -22q0 -10 -4 -19q-3 -11 -3 -17zM46 -678v-6l3 -5v-8q48 -20 101 -20q15 0 39 10q23 10 38 10h7q5 0 11 -1q5 -1 9 -1h7q10 0 27 6q16 6 25 6q9 1 30 6q19 4 33 4h9q6 0 14 -2q7 0 12 -0.5t9 -0.5q12 0 26 6q13 6 18 6q2 0 12 -2t13 -2h3q1 1 2 1 q15 7 22 14q7 3 28 6q17 1 28 7l11 9q7 5 13 5q20 0 43 12l25.5 12.5l13.5 6.5q17 3 30 5t24 3q32 17 52 25l70 45t51 31q13 8 22 13l16 9q15 16 21 27q8 5 14.5 9.5t11.5 6.5l5 11.5t3 8.5q23 20 38 26q10 7 21 27q4 8 8 15t8 15l8 6q12 18 12 41q0 11 -22 23h-4q-2 1 -5 1 q-22 0 -22 -11q0 -4 4 -12q3 -9 3 -14q0 -13 -11 -29q-5 -8 -11 -14.5t-11 -13.5l-5 -3q-2 -10 -2 -12v-12q-19 -4 -25 -8q-10 -22 -25 -27q-26 -9 -31 -13q-12 -9 -35 -32q-22 -22 -37 -32q-68 -28 -109 -37q-4 -1 -36 -22q-29 -19 -31 -19q-3 0 -37 8l1 5q0 17 16 29 l15.5 11.5l15.5 11.5q30 25 48 66q19 45 29 56q7 7 27 15q21 8 27 14q8 2 16.5 3.5t16.5 3.5q18 3 28 18q-2 3 -7 3q-6 0 -18 -3t-18 -3q-8 0 -14 7q-3 4 -6 7t-6 7l-1 5l22 67q17 28 30 41q5 17 7 29.5t3 20.5q3 10 9 25.5t17 37.5l15.5 35.5t9.5 27.5q1 3 1 20q0 6 1 10.5 t3 8.5q16 18 29 25l2 4t2 6q1 3 9 8q7 22 9 35q2 2 7.5 8.5t15.5 19.5l15.5 20.5t7.5 9.5q2 4 4 19q1 15 6 21q13 10 19 11q15 16 21 24q4 5 8 20q4 11 12 19l2 7q-2 11 7 25q8 16 8 22q-4 1 -4 12v9t1 9t1 7v3q0 9 -22 22q-11 -6 -27 -24q-18 -18 -27 -22q-5 -2 -13 -3 q-8 -2 -15 -10h-6q-3 -1 -6 -1h-5t-8 1t-9 1h-5q-8 0 -15 -3q-9 -14 -16 -15q-13 -4 -17 -7q-5 -20 -32 -38q-16 -11 -25 -19.5t-13 -13.5q-4 -8 -6.5 -14t-3.5 -10q-14 -17 -20 -23q-3 -4 -6 -16q-1 -10 -5 -15q-11 -12 -19 -17l-8.5 -22.5t-5.5 -16.5q-21 -21 -21 -59 q0 -22 15 -46q16 -27 37 -27q3 0 7.5 0.5t9.5 1.5t9 1.5t6 0.5h4l6 -6v-7q0 -5 1 -10v-16q0 -17 -10 -30q-9 -14 -9 -25q0 -16 -10 -26t-10 -20q0 -23 -2 -29q-4 -5 -7 -11l-6 -12l-8 -24t-9 -23q-4 -12 -37 -39l-4 -4t-8 -10q-6 -6 -19 -7q-17 -2 -31 -7t-25 -12l2 -10 q49 -13 49 -40l-9 -24l-3.5 -14.5l-2.5 -10.5l-7 -5q-3 -13 -21 -28q-21 -15 -25 -25q-6 -6 -44 -25q-30 -16 -38 -28q-2 -1 -5 -2t-8 -2q-6 -2 -14 -11q-5 -2 -14.5 -5t-22.5 -5q-24 -4 -38 -13l-2 -5q-6 -1 -20 -3q-11 -2 -21 -10l-4 -1q-5 -1 -13 -3.5t-18 -7.5 q-19 -10 -30 -10q-9 0 -28 3q-20 3 -29 3q-7 0 -19 -6q-12 -5 -17 -5q-6 0 -21 -3t-23 -3h-7q-4 0 -9 2q-5 0 -9.5 0.5t-7.5 0.5t-10 -3q-8 -2 -10 -2q-7 0 -12 2q-4 0 -6 0.5t-4 0.5h-5l-8 -6q-11 -1 -23 -1t-24 -1q-28 -6 -28 -29zM96 64q0 16 14 38t30 29q0 28 29 77 q29 47 55 47q23 0 23 -37q0 -21 -13 -43q-12 -23 -12 -40q0 -37 -4 -44q-6 -12 -16 -18q-5 -2 -10 -5l-10 -6q-3 -5 -6 -9.5t-6 -9.5q-9 -12 -40 -12q-8 0 -21 12t-13 21zM811 69q0 10 4 19q7 18 7 19l6 33q2 2 5 6t8 9q7 7 9 21t16 36q7 11 13.5 19t12.5 13q7 7 21 9 q7 1 13 2l12 2l7 6q21 0 40 -16v-16q-17 -17 -42 -70q-15 -32 -25.5 -52.5t-18.5 -31.5q-29 -41 -64 -41q-10 0 -17 12q-7 11 -7 21zM1161 561q0 19 23 33q34 22 36 22v1q2 0 3 1h3q7 0 20 -8q11 -8 11 -15q0 -11 -33 -36q-32 -25 -44 -25q-19 0 -19 27zM1549 668q0 15 1 18 q13 22 24 30q4 4 7 18q2 8 14 20q6 12 23 32l14 17.5t8 13.5q7 3 18 15q12 12 17 14q14 16 25.5 27.5l19.5 19.5q33 1 59 18q25 17 40 17q9 0 38 -12q2 -14 3 -19.5t1 -1.5q0 -8 -44 -61q-22 -26 -36 -41t-20 -20l-7 -3.5t-13 -7.5t-17 -17q-8 -2 -14 -4t-10 -3 q-6 -4 -11 -20q-3 -16 -9 -20q-16 -7 -26 -9q-20 -14 -27 -24q-21 -11 -37.5 -18t-28.5 -11l-8 5q-4 7 -4 27zM1598 470q0 19 13 38q12 20 29 20q27 0 27 -31q0 -12 -11 -25q-5 -6 -11 -11.5l-11 -10.5q4 -1 -18 -1q-18 0 -18 21zM2010 230q0 19 13 39q12 20 29 20 q27 0 27 -31q0 -12 -11 -25q-5 -6 -11 -11.5l-11 -10.5q-5 0 -9 -1t-9 -1q-18 0 -18 21z" />
<glyph unicode="&#xa7;" horiz-adv-x="1266" d="M27 -34q-2 -8 3 -42q4 -15 7.5 -26t5.5 -18q1 -20 0 -30q2 -7 6 -11l-1 -7q-3 -17 5 -33l8 -13.5t9 -13.5q2 -2 4 -9.5t6 -18.5q6 -17 15 -24q9 -8 28 -9q16 -2 23.5 -2.5l7.5 -0.5q7 -1 27 -11q13 -7 39 -7q5 0 11.5 0.5t15.5 1.5q9 -3 15.5 -6t11.5 -5h3q12 0 32 10 q19 8 32 10l5 1l10 -4h7q5 0 20 5q6 2 10.5 3t7.5 2q14 0 24.5 -0.5t17.5 -1.5q7 2 25 10q20 9 37 12q8 1 52 27q7 7 9 12l13 8q28 3 42 3q4 2 49 31q46 30 48 34q1 3 3 7q153 81 217 142q115 111 162 216q24 53 32 90q1 19 0 28q2 8 6 19.5t10 25.5l24.5 54l18.5 40 q8 16 13 28.5t9 20.5q10 22 12 26q3 4 15 15q10 10 13 18t5 14.5t4 11.5q10 22 43 59q47 54 52 61l35 49t26 35l20 25.5t8 10.5q5 14 -2 25q-11 10 -15 12q-43 -36 -61 -57l-17.5 -13.5t-12.5 -9.5q-11 -17 -16 -28q-5 -7 -21 -20q-11 -11 -18 -25q-2 -9 -5.5 -16t-7.5 -12 l-11 -9l-9 -7l-8.5 -14t-5.5 -10l-5.5 -5.5t-9.5 -8.5q-12 -12 -14 -17q-3 -5 -5 -9.5t-4 -7.5q-3 -5 -10.5 -13.5t-20.5 -21.5q-18 -19 -28 -41q-12 -28 -19 -43t-9 -17q-3 -5 -10 -12.5t-19 -18.5q-9 -9 -15.5 -17.5t-9.5 -18.5l-2 -6l3 -12l-2 -4l-9 -20t-7 -15 q-6 -11 -6 -19q0 -5 3 -14t2 -16q-3 -16 -12 -37q-15 -32 -27 -55l-20 -39v1q-20 -44 -39 -63q-14 -14 -25 -28.5t-21 -30.5q-4 -7 -16.5 -19.5l-32.5 -31.5q-20 -18 -35 -29.5t-23 -16.5q-21 -10 -34 -13l-9 -9t-6 -8q-6 -5 -15.5 -11.5t-23.5 -14.5q-28 -17 -38 -27 q-9 -9 -17 -15q-5 -4 -23 -7q-17 -2 -24 -6q-15 -12 -19 -18q-13 -5 -19 -6q-10 -13 -27 -16q-16 -1 -28 -1.5t-20 -0.5q-11 -2 -35 -12q-12 -5 -23.5 -7.5t-22.5 -4.5q-45 -9 -70 -17q-5 -1 -13 -0.5t-19 1.5q-10 1 -19.5 0.5t-17.5 -1.5q-11 -2 -21 4l-18 9q-12 2 -21 3 t-15 1q-27 6 -52 34q-20 23 -40 49q-3 4 -5 6l-4 4l1 1q3 7 -5 18q-10 15 -12 26l-10.5 36.5t-8.5 25.5q-1 3 7 40q3 17 5.5 27.5t4.5 14.5q13 24 21 36q1 11 1.5 19t0.5 13l2 1q1 6 20 35q17 29 21 32l22.5 8.5t16.5 5.5l30.5 25t21.5 21q15 3 23 3q6 1 20 18q13 16 28 19 q11 2 30 -7q17 -9 29 -7q34 5 47 9q12 4 18 4q12 -7 31 -5q5 1 14 -4q7 -5 18 -3q18 -18 23 -35q3 -4 13 -10t13 -12q8 -15 11 -38q3 -18 -2 -29q-4 -10 -5.5 -16t-2.5 -8q-8 -38 -13 -45q-4 -7 -42 -28l-4 -6l-10 -3q-35 -4 -40 23q-2 12 8 32q9 20 8 32q-3 8 -6 14l-5 10 q-13 -1 -32 9q-20 10 -26 9q-30 -8 -44 -13l-4 -2q-6 -9 -28 -29q-13 -13 -13 -31q0 -5 0.5 -10t1.5 -11q11 -77 77 -77q4 0 8 0.5t9 0.5q22 2 38.5 1.5t27.5 -1.5q9 1 26 15q13 12 23 14q13 1 39 41q11 17 18.5 30.5t9.5 22.5q2 16 3 23q1 2 2.5 4.5t4.5 6.5q4 4 3 15 l-9 30.5t-8 21.5q-1 17 -15 23q-20 9 -24 13q-15 19 -22 33q-27 24 -76 18q-8 -1 -29 7q-10 4 -19 6t-17 0q-18 -3 -31.5 -5t-21.5 -4q0 -1 -2 -3l-2 5q0 -3 1 -4v-1h-27q-11 -2 -21 -15q-11 -14 -40 -17q-10 -1 -22 -15q-11 -14 -21 -24q-13 -10 -23 -17l-17 -12 q-21 -35 -27 -54l-13.5 -18l-9.5 -12q-4 -11 -6 -19.5t-4 -14.5q-5 -9 -19 -24q-15 -17 -18 -30q-2 -6 -2.5 -13.5t-1.5 -15.5l-1.5 -36t-0.5 -13z" />
<glyph unicode="&#xa8;" horiz-adv-x="502" d="M71 875q1 16 0 27l4 3q10 14 18 23.5l13 15.5q4 5 7.5 11t7.5 12q7 10 34 21q7 3 12 3q18 0 25 -19v2l3 -1q2 -20 -2 -24q-4 -6 -6.5 -10.5t-4.5 -8.5q-2 -5 1 -23q1 -13 -10 -24q-9 -6 -14 -11q-2 -2 -3.5 -5t-3.5 -5q-7 -7 -43 -21q-6 -3 -20 2q-10 4 -14 10 q-7 15 -4 22zM339 875q1 8 1.5 15t-0.5 12l4 3q19 27 30 39q4 5 7.5 11t8.5 12q7 10 34 21q6 3 12 3q17 0 24 -19v2l3 -1q2 -20 -1 -24q-10 -15 -11 -19q-2 -5 1 -23q1 -13 -10 -24q-9 -6 -14 -11q-2 -2 -3.5 -5t-3.5 -5q-7 -7 -43 -21q-2 -1 -6 -1q-25 0 -29 13 q-7 13 -4 22z" />
<glyph unicode="&#xa9;" horiz-adv-x="614" d="M43 207l1 -3l14.5 -24.5t10.5 -17.5q6 -12 12 -19q7 -22 9 -35q17 -14 29 -21q4 -4 8 -13t10 -13q15 -5 27 -7.5t20 -3.5q1 -1 3.5 -2t6.5 -3q4 -4 10 -4q7 0 12 2q4 0 7 0.5t5 0.5q7 0 18 -4q12 -3 18 -3q8 2 13.5 4t8.5 4q4 2 32 4q26 1 40 6q29 22 39 34q18 9 27 12 q15 13 21 21l20 12q7 4 11.5 8t7.5 8q7 11 11.5 20l7.5 15l8 10t9 10q8 11 8 18q0 23 10 33t10 19q0 6 -2 11q0 6 -2 10h4q-3 0 -4 1q2 2 3 2v42q0 14 -9 29q-8 14 -8 21q0 39 -23 59q-9 5 -16 8.5t-12 5.5q-4 2 -13 18q-6 10 -20 10q-9 0 -9 -13q0 -23 26 -26q5 -3 16 -5 q9 -3 14 -9q-1 -9 5 -15q5 -7 5 -11q0 -13 7 -23q0 -2 -3 -14v-38q0 -10 9 -23q8 -14 8 -23q0 -12 -12 -25q-12 -12 -12 -19q0 -21 1 -17q-25 -25 -31 -47q-3 -11 -5 -19t-3 -13q-2 -3 -23 -20q-21 -18 -25 -19v-3q-8 -2 -14 -2.5t-11 -1.5q-20 -15 -26 -21q-3 -2 -11.5 -6 l-22.5 -11q-27 -12 -31 -12q-8 0 -20 5q-8 4 -12 5.5t-6 2.5q-8 2 -18 2h-5q-6 0 -10.5 0.5t-8.5 1.5q-12 7 -16 11q-11 7 -21.5 13t-21.5 14q-24 16 -32 36q-4 10 -5.5 17l-2.5 12q-1 2 -2.5 5.5t-6.5 8.5q-6 7 -6 15q0 15 -4 30q-3 16 -3 25q0 10 3 30q3 19 3 28 q0 16 5 38q2 10 3 17t1 11t-0.5 8.5t-1.5 11.5t-1.5 11.5t-0.5 7.5q0 13 10 23q3 10 3 16q4 5 6.5 9t4.5 6l3.5 24t1.5 17l7 8.5t5 5.5l19 39l13 28q5 5 8 8.5t5 5.5q5 21 6 28q4 8 11.5 20.5t20.5 30.5q25 38 34 44l6 4l19 13q18 12 18 21v9l-9 2q-17 -11 -26 -24 q-9 -14 -14 -17q-5 -2 -8 -2.5t-5 -1.5q-27 -18 -40 -36q-13 -24 -17 -35q-11 -14 -20.5 -24t-16.5 -16q-11 -27 -16 -44q-5 -4 -8 -7l-5 -5t-22 -42q-19 -38 -19 -41l0.5 -5l1.5 -15q1 -11 -2 -20l-7 -8.5t-5 -5.5l-8 -21q-7 -18 -7 -22q0 -13 -5 -31t-5 -21q0 -6 3 -18 q1 -5 1.5 -9.5t0.5 -7.5q0 -2 -0.5 -5t-1.5 -8t-1.5 -9t0.5 -7l1 -6l4 -7l1 -4q0 -9 -6 -27t-5 -26zM165 197q0 -22 16 -41q16 -18 38 -18q15 0 25 10t17 10q14 0 43 17q27 16 41 18q12 28 15 52l-1 -1h-4q1 0 -11 -12q-5 -2 -9 -4t-7 -3q-10 -10 -13 -16q-11 -5 -19 -8 l-13 -5q-14 -7 -17 -9q-36 -1 -41 4q-4 4 -4 42q6 4 8 19q1 11 1 16v6l12 6l6 18l21.5 24.5l19.5 21.5q4 8 6 14q11 7 20.5 12t16.5 7l7 1q4 0 9.5 0.5t12.5 1.5t11.5 1.5t7.5 0.5q18 0 29 8q1 1 6.5 6t15.5 16v2q0 11 -8 24q-8 11 -19 13l-2 5l-6 1q-4 0 -8.5 0.5t-9.5 1.5 t-8.5 1.5t-4.5 0.5v-1q3 0 -18 -9q-22 -8 -31 -11q-12 -10 -18 -19l-8.5 -5t-5.5 -4q-20 -22 -34 -40q-18 -17 -27 -24q-4 -11 -4 -19q-3 -6 -17 -17t-14 -19q0 -3 3 -10q2 -8 2 -10q0 -6 -9 -16q-8 -11 -8 -20t-6 -21q-5 -12 -5 -19z" />
<glyph unicode="&#xaa;" horiz-adv-x="303" d="M-7 293q0 -32 66 -32h23q4 0 13 3q10 2 13 2q6 0 14 -7q7 -7 13 -7q5 0 20 5q7 2 11.5 3t7.5 1q12 0 15 -6q1 -4 5 -12l-1 1q-2 -8 6 -8q9 0 26 12q16 12 18 18q3 1 8 9q7 3 15 3q26 0 27 1t3 2.5t5 5.5q6 7 16 7q2 0 5 -0.5t7 -0.5q4 -2 7 -2h6q18 0 58 32 q-2 10 -3 16.5t-2 11.5q-5 7 -23 8q-5 1 -11.5 1.5t-14.5 0.5q-39 1 -60 -16q-1 -1 -3 -3.5l-6 -7.5q-3 -5 -11 -5q-13 0 -22 -10q-9 -4 -24 -4q-17 0 -39 7q-15 5 -24.5 7t-13.5 3q-23 4 -45 4q-64 -1 -88 -18q-17 -12 -17 -25zM26 418q2 -26 26 -38q21 -10 46 -7l11 1l5 5 q38 16 60 16q10 0 30 -12q19 -12 37 -12q27 0 43 13q9 0 13 10q5 10 7 10q1 2 15 7q8 3 11 8q3 18 2 25q-1 0 -6 5t-9 5t-11 -4t-12 -4q-14 -1 -29 10q-13 10 -14 26q-1 9 8 26q8 16 7 25q0 -4 -1 0.5t-3 16.5q0 8 9 16q14 11 15 13q8 17 9 25l15 18q4 4 6.5 9.5t4.5 12.5 q3 13 3 21q2 6 16 24q7 8 4 39q-2 25 -6 29q-5 5 -25 11l-1 -1q-17 -17 -31 -27.5l-24 -18.5q-2 0 -20 -5t-20 -5q-18 0 -46 -27q-24 -24 -34 -45q-1 -1 -4.5 -3.5t-11.5 -7.5q-15 -9 -19 -16q-2 -7 -4 -11.5t-3 -6.5q-2 -5 -10 -13q-4 -4 -6 -7.5t-4 -5.5q-8 -22 -13 -38.5 t-7 -27.5q-5 -10 -9.5 -20t-9.5 -20q-11 -27 -10 -44zM79 441q-2 18 13 40q15 23 31 30q0 29 30 77q29 47 54 47q23 0 24 -25q2 -27 -7 -44l-8 -17.5l-8 -16.5q-3 -10 -2 -30q1 -21 -5 -32q-4 -10 -15 -16l-10 -6t-10 -5q-3 -5 -6.5 -9.5t-6.5 -9.5q-9 -13 -40 -13 q-7 0 -20 12q-12 10 -14 18z" />
<glyph unicode="&#xab;" horiz-adv-x="813" d="M44 328q18 18 20 19q21 13 54 15q19 1 32 3t20 4l57.5 30t41.5 23l12 1l22.5 10.5t15.5 8.5q28 6 44 6q11 4 20 6.5t14 4.5l42 3.5t30 0.5l3 0.5t10 2.5q9 2 11 0q2 -4 4 -5.5t3 -2.5q-3 -3 -6 -13q-1 -10 -6 -13q-9 -7 -51 -16q-20 -4 -33 -6t-20 -2q-10 0 -31 -6 q-14 -4 -22 -6t-10 -3q-78 -13 -101 -30l-8 -4t-9 -4q-9 -2 -9 -4q0 -3 17 -22q11 -13 39 -19q26 -6 31 -11t8 -8.5t5 -6.5q24 -12 37 -12q15 -8 37 -28q20 -19 35 -27q2 -1 5 -2t8 -2q9 -1 23 -11q13 -7 13 -46q0 -34 -24 -34q-3 0 -11 2q-10 3 -21 8t-22 13l-29 19.5 t-11 7.5q-3 2 -11 5l-21 8q-20 7 -27 14l-14 14q-16 8 -28 13t-21 7l-17 13.5t-12 10.5q-29 9 -45 12q-19 7 -47 26q-13 9 -23 13q-11 5 -16 6q-3 3 -3 7q-2 2 -2.5 4t-1.5 3h-1zM340 322l12 10.5t8 7.5h1q20 14 54 16q20 1 32.5 3t19.5 4l57.5 30t41.5 23h12l22.5 10.5 t15.5 8.5q15 3 26 4.5l18 2.5q11 4 19.5 6.5t13.5 4.5l42 3.5t30 0.5l14 3q9 1 11 -1q2 -4 4 -5.5t3 -2.5q-4 -3 -7 -13q-2 -9 -6 -12q-9 -7 -51 -16q-20 -4 -33 -6t-20 -2q-10 0 -31 -6q-14 -4 -22 -6t-10 -3q-78 -15 -100 -30q-9 -6 -19 -8q-8 -2 -8 -4q0 -3 17 -22 q11 -13 39 -19q26 -6 31 -11t8 -9.5t5 -6.5q25 -11 37 -11q15 -8 37 -28q21 -20 36 -28q2 -1 5 -2t8 -2q9 -1 23 -11q13 -7 13 -46q0 -34 -24 -34q-3 0 -11 2q-22 7 -44 22l-28.5 19t-12.5 9q-2 1 -9.5 3.5t-20.5 7.5q-20 7 -27 14q-10 13 -14 15q-33 16 -50 20l-29 23 q-30 9 -44 12q-21 10 -48 27l-11.5 7.5l-10.5 6.5q-5 2 -9.5 2.5t-7.5 1.5q-2 5 -4 9l-3 6h-1z" />
<glyph unicode="&#xac;" horiz-adv-x="507" d="M9 -16q0 -25 51 -25h3l9 7q3 1 46 1q9 0 27 -3t28 -3h10q22 19 30 19q1 0 11 -2q7 -2 12 0q4 1 13 9q10 8 18 8l15 3q19 12 30 15q10 12 22 17t19 14q12 15 23 50l-2 11h-9q-2 0 -8 -10q-2 -5 -4 -7.5t-3 -3.5q-9 -9 -44 -28t-48 -19q-7 0 -14 7q-4 3 -7 6l-6 6l-1 12 l14 4q2 2 2 6q0 12 1 13q4 2 7 6.5t7 9.5q6 11 13 15q-2 1 0 12q1 9 4 8q12 20 13 29q1 3 15 15q10 9 10 17q0 30 13 63q1 2 2.5 4.5t5.5 6.5q5 7 5 13q0 18 6 20q10 1 12 5q1 5 1.5 8t0.5 5l7 6l2 4t2 6q1 3 2 5t1 4q2 1 5 3.5t8 7.5q7 6 7 13q0 6 -2 10q0 3 -0.5 5t-0.5 4 q0 11 13 24q6 6 9 9.5t4 4.5q1 5 1 9t1 6q10 11 15 14l6 13.5l7 14.5q8 15 17 20q19 7 26 8l10 8q2 1 4 1t6 1q4 0 70 32q64 32 68 37l33 6q18 14 26 25q8 5 14.5 8.5t11.5 5.5l7 12q25 7 40 9l10.5 10.5t6.5 8.5q19 9 28 12q37 33 52 52q10 5 19 11l18 12q27 19 28 29 q3 4 3 11q0 19 3 27q2 5 15 23q-18 8 -21 14t-4 7q-13 4 -23 4q-9 5 -27 25q-11 11 -56 11v-1q-11 0 -36 -5q-23 -6 -32 -6q-81 0 -86 -14q13 -13 22 -17l10 1q3 1 7.5 2t10.5 2v-14q-5 -5 -9 -9.5t-9 -9.5q-9 -11 -20 -16q-14 -4 -23 -6q-8 -11 -13 -16t-27 -14 q-22 -11 -29 -18q0 -2 -19 -30q-10 -14 -15.5 -23t-7.5 -11l-10.5 -8.5t-8.5 -5.5q-2 -5 -3 -8.5t-2 -5.5q-7 -12 -26 -28q-18 -15 -25 -29q-8 -20 -9 -30q-11 -10 -20 -15q-7 -31 -43 -47q-30 -14 -65 -14h-5q-5 5 -12 5l-7 -5h-6h-17q-8 -5 -14 -5q-7 0 -16 10t-15 10 q-1 0 -9 -2q-6 -2 -8 -1q-3 3 -15 11q-13 9 -13 10v10q5 2 9 5t8 5q7 4 21 3q24 13 29 11q22 13 32 25q5 2 13 3q7 2 15 11l24 3q6 1 17 18l7 17q0 1 -2 11t-1 13q5 3 5 11q0 5 -26 36q-8 3 -16 3q-42 0 -61 -22q-11 -1 -19 -3q-15 -12 -22 -23q-14 -8 -21 -9 q-7 -7 -11.5 -12.5t-7.5 -9.5q-4 -4 -28 -18q-17 -11 -24 -24q-2 -2 -3 -11q-2 -5 -13 -12q-2 -10 -2 -11q0 -17 -7 -28l-1 -4q-2 -24 11 -37l27 -27q1 -1 6 -11q4 -11 9 -12q0 -1 47 -5l8 2q6 2 8 2q6 0 27 -25q24 -29 32 -33v-12v-3l-5 -4q-6 0 -7 -3l-7 7v7l-10 3 q-1 -7 -2 -11.5t-2 -7.5q-3 2 -10 3q-4 1 -7 1q-2 0 -4 1q-8 -30 -8 -32v-6l5 -7q5 0 7 -3l7 5l-2 21h7l33 -30q3 -9 3 -10q0 -5 -6 -12q-4 -6 -6 -13q3 -13 2 -15l-5 -4q-2 -8 -4 -14t-4 -10q-3 -4 -6 -7l-5 -5q1 -9 -3 -16t-4 -12q0 -4 4 -9q3 -6 3 -10q0 -7 -11 -18 l-12 -12q-2 -1 -5 -11q-3 -9 -8 -13q-7 -4 -12 -6t-9 -4q-4 -16 -4 -28q-23 -32 -33 -42q-2 -1 -13 -6t-32 -13q-43 -17 -44 -17q-20 0 -27 -9l-14 -6t-15 -6q-15 -9 -15 -27zM282 446q0 1 2 9q12 7 15 18q19 10 29 10q5 0 12 -4t12 -4l13 1q1 -5 1.5 -9t0.5 -6 q0 -12 -24 -43h-3l-4 2q-1 1 -4 1h-3l-4 -4q0 -9 -1 -12q-7 2 -12 4t-9 3q-2 6 -2 8q0 5 12 14v9q-13 -5 -21 -5q-10 3 -10 8zM508 587q2 24 17 32q22 12 24 16q2 5 3 16q2 13 4 16q17 15 31 29l26 27q8 8 14.5 13l11.5 9l2 14q8 3 13.5 4.5l9.5 2.5q4 2 26 21t33 21l10 12 q8 2 10 2q10 0 36 9q27 8 48 8q2 0 5.5 -0.5t8.5 -1.5q9 -3 13 -3h27q12 -2 12 -21v-7q-4 -9 -30 -37q-27 -30 -31 -30l-13 -11.5t-9 -8.5l-11.5 -6.5t-8.5 -4.5q-21 -17 -30 -27q-3 -2 -12 -4q-6 -1 -15 -10l-5 -1q-21 0 -35 -11q-13 -11 -21 -11q-7 0 -17 -5 q-10 -6 -18 -5q-14 -12 -20 -20l-25.5 -14t-19.5 -9q-13 -10 -18 -10h-8t-9 1q-5 0 -19 -8q-9 8 -10 13z" />
<glyph unicode="&#xad;" horiz-adv-x="331" d="M15 233q1 -14 11 -33q11 -23 21 -23q13 0 33 17q6 3 9 3q21 2 30 8l1 -3h3q1 -1 3 -1q5 0 13 4q5 2 4 1.5t5 -1.5q28 -3 33 -3q6 0 9 1h9q2 0 7 3q4 3 6 3q10 -9 17 -9q2 0 5.5 0.5t8.5 1.5q13 2 15 1q5 0 12 -4t13 -4v-1q8 0 21 13t13 20q0 4 -16 13q-16 8 -20 8 q-3 0 -7 -3q-5 -3 -8 -3q-4 0 -10 8q-6 7 -11 7q-2 0 -9 -5q-4 -4 -9 -4q-2 0 -4 0.5l-6 1.5q-8 2 -10 2h-9q-5 -1 -10 -1q-24 0 -43 -4q-14 -2 -15.5 -3t-1 -1.5t-1.5 -1t-16 -1.5l-11 6q-2 0 -9 -5q-4 -4 -9 -4q-3 0 -8 4t-11 4q-2 1 -13 -1q-10 -2 -11 -2q-2 0 -6 3 q-6 2 -7 2z" />
<glyph unicode="&#xae;" horiz-adv-x="599" d="M43 217l1 -3l14.5 -24.5t10.5 -17.5l12 -20q8 -23 9 -34q17 -14 29 -21q4 -4 8 -13t10 -13q15 -5 27 -7.5t20 -3.5q1 -1 3.5 -2t6.5 -3q4 -4 10 -4q7 0 12 2q4 0 7 0.5t5 0.5q7 0 18 -4q12 -3 18 -3q8 2 13.5 4t8.5 4q4 2 32 4q26 1 40 6q29 22 39 34q18 9 27 12 q15 13 21 21l20 12q7 4 11.5 8t7.5 8q7 11 11.5 20l7.5 15l8 10t9 10q8 11 8 18q0 23 10 33t10 19q0 6 -2 11q0 6 -2 10l1 1q2 -1 4 -1l-4 1q0 2 2 2v42q0 14 -9 29q-8 14 -8 21q0 39 -23 59q-9 5 -16 8.5t-12 5.5q-4 2 -13 18q-6 10 -20 10q-9 0 -9 -13q0 -23 26 -26 q5 -3 16 -5q9 -3 14 -9q-1 -9 5 -15q5 -7 5 -11q0 -13 7 -23q0 -2 -3 -14v-38q0 -10 9 -23q8 -14 8 -23q0 -12 -12 -25q-12 -12 -12 -19q0 -21 1 -17q-25 -25 -31 -47q-3 -11 -5 -19t-3 -13q-2 -3 -23 -20q-21 -18 -25 -19v-3q-8 -2 -14 -2.5t-11 -1.5q-20 -15 -26 -21 q-3 -2 -11.5 -6l-22.5 -11q-27 -12 -31 -12q-8 0 -20 5q-8 4 -12 5.5t-6 2.5q-8 2 -18 2h-5q-6 0 -10.5 0.5t-8.5 1.5q-12 7 -16 11q-11 7 -21.5 13t-21.5 14q-24 16 -32 36q-4 10 -5.5 17l-2.5 12q-9 21 -9 37q0 35 51 71q8 4 13.5 7l9.5 5q1 1 3.5 6.5t7.5 15.5 q6 13 18 19q13 5 19 6q1 1 6 9t14 14l2 4q2 0 4 1h3q15 0 15 -14q0 -7 -11 -20t-11 -21q0 -14 -8 -29q-6 -13 -9.5 -19.5t-4.5 -8.5q-2 -8 -4 -14.5t-3 -11.5q-12 -13 -14 -23l-5 -5t-12 -11q-8 -8 -8 -24q0 -11 10 -29q12 4 31 25l21 23.5t8 8.5q4 4 7.5 6.5t5.5 4.5l-1 6 q0 2 6 7l6 6q2 7 3 12t2 9q18 24 31 35l8.5 14t5.5 11q2 7 3 12t2 9q2 2 8.5 10t16.5 22q15 22 30 22q7 0 26 -8q16 -8 21 -15h1q18 0 31 31l-3 3q0 2 -6 2h-17q-19 28 -42 28q-13 0 -23 -16t-22 -16q-16 1 -16 18q0 6 6 12q5 7 5 15q-3 22 -15 22l-28 -12q-5 -8 -9.5 -14 t-7.5 -11q-17 -2 -51 -33q-9 -12 -10 -17l-10.5 -7t-8.5 -5q-4 -8 -6 -14l-12.5 -9t-9.5 -6q-5 -8 -9.5 -14.5t-6.5 -11.5q-44 -54 -60 -54q-11 0 -11 21q0 16 6 45q10 47 10 65q0 4 -0.5 9t-1.5 12t-1.5 11.5t-0.5 7.5q0 13 10 23q3 10 3 16q4 5 6.5 9t4.5 6l3.5 24t1.5 17 l7 8.5t5 5.5l19 39l13 28q5 5 8 8.5t5 5.5q5 21 6 28q4 8 11.5 20.5t20.5 30.5q25 38 34 44l6 4l19 13q18 12 18 21v9l-9 2q-17 -11 -26 -24q-9 -14 -14 -17q-5 -2 -8 -2.5t-5 -1.5q-27 -18 -40 -36q-13 -24 -17 -35q-11 -14 -20.5 -24t-16.5 -16q-11 -27 -16 -44 q-5 -4 -8 -7l-5 -5t-22 -42q-19 -38 -19 -41l0.5 -5l1.5 -15q1 -11 -2 -20l-7 -8.5t-5 -5.5l-8 -21q-7 -18 -7 -22q0 -13 -5 -31t-5 -21q0 -6 3 -18q1 -5 1.5 -9.5t0.5 -7.5q0 -2 -0.5 -5t-1.5 -8t-1.5 -9t0.5 -7l1 -6l4 -7l1 -4q0 -9 -6 -27t-5 -26z" />
<glyph unicode="&#xaf;" horiz-adv-x="300" d="M-312 -400q0 20 3 22l8 8q0 4 5 26q3 2 9 8q2 2 4.5 5t6.5 7q1 4 3 9l4 10l27.5 34.5t26.5 30.5l25.5 28t26.5 27l26.5 26l27.5 26t29.5 25.5l32.5 26.5l48 36q1 2 2 3.5t3 3.5q1 4 6 9q5 3 11 7t12 9q11 14 11 42q0 16 -9 27q-9 10 -9 18q0 35 9 58q7 8 12 19q1 1 -2 24 q0 9 14 23q20 15 21 19l4.5 9t6.5 12l6.5 13l7.5 15q3 2 6 4.5t7 6.5q2 6 4 9q1 4 6 12l9 5q8 17 38 44q31 27 49 30q6 -1 22 2q3 3 4 5q3 3 4 6q5 5 10.5 9.5t10.5 9.5l21 18l12 -6q1 -8 9 -24q1 -1 7 -6.5l18 -16.5q15 -14 15 -29l-1 -5l-5 -8v-15q0 -17 -23 -20 q-32 -3 -36 -6v-2q-6 -2 -6 -10l-4 -10q-2 -1 -3.5 -3t-3.5 -4q-6 -6 -9 -10q-1 -5 -3 -11.5l-4 -13.5l-5 -5q-1 -2 -6 -7q-1 -5 -3 -11.5l-4 -13.5q0 -1 -9 -8q-3 -5 -3 -12q0 -10 9 -10q7 0 19 6q13 5 18 5h13q0 -12 1 -14q-26 -23 -54 -45q-14 -11 -27.5 -23l-27.5 -25 q-1 -14 -9 -40q-5 -9 -21 -24q-7 -6 -7 -55q0 -9 -10 -32q-5 -14 -9 -21q-2 -4 -3 -6.5t-2 -4.5q-12 -7 -22 -35q3 -44 -20 -85q0 -20 -7 -37q-6 -17 -15 -33l-63 -68q-6 -2 -11.5 -5.5t-10.5 -7.5q-11 -8 -17 -14q-4 -3 -6.5 -6t-4.5 -5l-5 -5q-9 0 -22 -8 q-6 -4 -10.5 -6.5t-6.5 -3.5q-6 0 -10 -4q-2 -2 -5 -4t-7 -4l-6.5 -4.5t-7.5 -4.5t-7.5 -3t-8.5 -2l-14 -6t-15 -6q-15 -6 -30 -6q-40 0 -54 7q-18 6 -43 31q-4 7 -4 44zM-227 -343q0 -61 51 -61q29 5 52 16q12 6 23.5 12.5t22.5 13.5l21.5 14l21.5 15q20 13 44 24h1 q1 3 1 8q0 4 1 6q7 15 13 32q5 17 5 32l9 6v4q1 1 1 4q0 4 3 13t3 16t9 22q11 14 12 19l4 15.5l4 15.5l3 30l2 4t3 4q4 6 5 9q9 16 9 35q0 18 -14 18q-6 0 -51 -44q-48 -45 -51 -44l-19.5 -20l-19.5 -20l-20 -19.5l-21 -19.5l-9 -3q-2 -1 -4.5 -2t-6.5 -2q-6 -4 -15 -13 q-5 -5 -9.5 -8.5t-6.5 -5.5q-2 -1 -7 -6q-2 -2 -3.5 -4t-3.5 -4v-10l-8 -10l-9 -11l-21 -27q-2 -2 -5.5 -6.5t-7.5 -11.5q-12 -14 -12 -36zM29 -314h3q1 1 1 2v1l2 4l-3 -3q-1 -2 -3 -4zM74 96q0 -18 28 -18q16 0 39 26q22 25 22 42q0 7 7 17q6 7 8 14v24q0 3 3 8q1 4 6 10 l6 12q2 8 2 11q0 8 -8 26l-8 -1l-3 1h-1q-1 -1 -4 -3.5l-9 -7.5q-5 -5 -14 -12t-20 -17q-26 -22 -26 -56q0 -4 -4 -8q-2 -2 -4 -5t-4 -7l-4 -8t-4 -9q-3 -9 -3 -21q0 -3 -3 -9q-2 -6 -2 -9z" />
<glyph unicode="&#xb0;" horiz-adv-x="258" d="M27 601q-2 -8 21 -20q21 -12 34 -12q42 0 89 46l11.5 8t8.5 5q2 5 3.5 9.5t2.5 6.5q1 1 2 1t3 2q2 0 5 3q6 9 9 15q14 14 14 24q0 9 4 20q3 10 3 17q1 4 0 9l-4 4q-1 5 -1 9t-1 9q-5 12 -15 12h-6t-9 1t-8 1h-5h-1q-18 0 -40 -25q-5 -2 -9.5 -4t-8.5 -4q-11 -8 -20 -15.5 l-15 -12.5l-9 -7t-6 -5q-4 -4 -4 -9l-7 -8.5t-5 -5.5q-2 -4 -2.5 -7t-1.5 -5q-6 -6 -10 -12q-2 -6 -2 -8q-1 -1 -1.5 -2t-2.5 -2t-2.5 -2t-1.5 -1q-2 -3 -7 -18zM70 616q0 -2 21 30q8 17 9 25l4 1q10 9 18 15l13 10q4 4 7 7.5t7 7.5q7 7 28 7h-1q12 0 13 -7v-13l1 1l2 -2 q-5 -20 -7 -22q-11 -11 -13 -14q-2 -2 -7 -20q-3 -13 -14 -19q-1 -1 -5 -2l-6 -2q-2 -4 -4 -7t-4 -7q-7 -10 -35 -10q-6 0 -17 8q-10 7 -10 13z" />
<glyph unicode="&#xb1;" horiz-adv-x="960" d="M-42 -345q0 -13 25 -38q27 -25 40 -29q5 -1 9.5 -2t7.5 -1q2 -2 7 -5t12 -10q8 -8 25 -8q20 0 28 -3q7 -3 12 -4t8 -2q19 -4 58 -4q7 0 17.5 0.5t24.5 1.5t24.5 1.5t17.5 0.5q39 0 44 6q9 11 19 15q28 5 39 5q19 10 26 15l27.5 3.5t19.5 1.5q25 10 36 18q8 2 13.5 2.5 t9.5 1.5q23 5 53 29l24 24q14 7 25 11.5l19 7.5q2 2 7 6.5t13 12.5q6 6 11.5 9.5l10.5 6.5q18 10 32 15q14 15 17 21q2 2 22 16q13 8 19 18q14 19 18 28l24 19t17 13l10.5 14t6.5 10q2 1 4.5 2l7.5 3q9 3 12 7q5 17 7 29q5 15 10 26t9 18l14 25t13 25q14 28 14 53 q-8 27 -14 33l-7 -1q-3 0 -4 1q-12 -11 -18 -18q-26 -12 -39 -15q-8 -5 -13.5 -9.5t-9.5 -6.5q-7 -4 -17 -4q-7 0 -25 5q-8 2 -14.5 3t-11.5 1q-7 0 -31 -8t-38 -8q-1 0 -1 3q-1 2 -3 4q-14 26 -14 29q0 5 5 17l3.5 8.5t2.5 5.5q2 8 3 13.5t1 10.5q4 11 19 32q14 18 14 34 q0 14 8 25q7 12 7 18q0 16 15 39l25 36l14 34.5l10 24.5q20 27 34 41q19 33 24 47q10 9 15 12l6 15q15 14 21 17l3 9q6 5 13 7q4 2 8 8l9 14q9 16 17 21l9 3q7 2 8 3q-2 10 15 21q16 10 28 10q40 8 49 14q7 1 13 1h12q16 0 24 8q11 17 12 26q1 1 3.5 3l7.5 6q7 4 7 13 q0 14 5 26q2 5 3 9t1 6q0 6 -30 36l-6 1q-8 15 -17 28t-30 15q-11 1 -19 1h-14q-3 1 -11 12q-4 7 -17 7q-5 0 -11.5 -0.5t-14.5 -1.5t-14.5 -1.5t-10.5 -0.5q-10 0 -17 6q-8 5 -15 5q-5 0 -12 -5q-5 -4 -13 -4q-2 0 -6 0.5t-9 1.5t-9 1.5t-7 0.5q-12 0 -41 -8q-25 -7 -40 -7 q-31 0 -28 1l-3 -7q-3 -2 -18 -7q-6 -2 -10.5 -4t-7.5 -4l-2 -6l-29.5 -8.5t-20.5 -5.5q-27 -17 -39 -27q-4 -2 -10 -4t-15 -4q-19 -5 -27 -10q-10 -7 -20 -24q-10 -16 -19 -23q-14 -8 -29 -15.5t-29 -15.5q-34 -19 -34 -52q0 -27 -1 -29q-6 -6 -9 -8q-18 -24 -18 -55 q-4 -35 2 -48q20 -19 32 -24q7 -10 9 -17q18 -23 39 -30q10 -3 34 -3q23 2 34 -5q25 -42 50 -42h3l9 6h2q2 1 5 0.5t7 -0.5q5 -2 12 -2q1 -2 1.5 -4t2.5 -6q3 -6 3 -11q0 -11 -16 -24q-21 -18 -23 -23q-5 -11 -7.5 -19.5t-4.5 -13.5q-8 -8 -15 -13.5l-12 -9.5q-2 -7 -3 -12 t-2 -9q-19 -16 -30 -20q-20 -17 -27 -27q-15 -7 -23 -9q-13 -13 -18 -23q-29 -12 -43 -15q-14 -8 -18 -12q-47 -6 -71 -6q-3 -1 -8 -2.5t-13 -5.5q-13 -7 -22 -7q-7 0 -16 4q-9 3 -14 3h-6l-3 -7q-26 -15 -35 -15q-7 0 -9 1q-7 1 -40 34q-30 32 -35 43q-2 11 -5 21l-6 21 q-6 20 -37 20q-22 0 -50 -15q-33 -17 -33 -35q0 -14 -7 -25q-6 -12 -6 -14q6 -43 13 -56q24 -16 38 -20q10 -8 16 -15l10 -12q29 -7 48 -7q15 -5 26 -11q19 -3 29 -3l9 -6q9 -1 19 6q10 6 15 6q15 2 24 5t13 5q14 1 24 1.5t17 0.5q10 2 23 11q14 10 25 10h23t2 -1 q27 6 59 26l12 12q3 3 15 6q6 1 12 12l4 2t5 1l8 4l9 9t6 8q10 3 15 3q26 9 47 35l8 13.5l8 13.5q11 18 22 20l2 1h12q4 -2 6 -3.5t4 -2.5q6 -11 6 -48q0 -15 -20 -35q-19 -19 -19 -47q0 -25 13 -44t38 -19q12 0 18 4q11 8 13 8q22 7 33 9q28 1 60.5 -1t70.5 -7q4 -11 6 -13 q-13 -41 -15 -43q-1 -4 -14 -10q-11 -5 -11 -13q1 -4 0 -10q-11 -15 -18 -21q-4 -8 -6.5 -13.5t-4.5 -9.5q-30 -27 -48 -36q-5 -8 -6 -12q-8 -5 -12 -6q-16 -16 -23 -26q-11 -7 -20 -12t-16 -8q-5 -5 -8.5 -9t-5.5 -6q-11 -3 -15 -3q-14 -9 -18 -15q-49 -22 -71 -29l-20 -14 t-15 -11q-21 -9 -37 -15l-27 -10q-6 -4 -10.5 -6.5t-7.5 -4.5q-45 -8 -68 -6q-11 -4 -19 -7.5t-13 -5.5q-20 -3 -43 -3q-9 0 -24 6q-15 5 -24 5q-27 -1 -42.5 -0.5t-19.5 1.5q-23 13 -33 24q-12 3 -21 5t-16 4q-16 21 -21 35q-3 1 -24 22q-14 14 -32 14q-21 0 -30 -11 q-5 -5 -14 -29zM499 504q0 8 6 19q5 12 5 16q-1 35 16 59q13 13 23 18l6.5 11.5t3.5 8.5q7 11 26 24q1 1 6 1q3 0 7 2q1 1 6 9t7 9q25 17 68 29q7 2 12 2.5t9 0.5q4 4 6 8q21 21 49 20q4 0 9 -0.5t12 -1.5t12.5 -1.5t9.5 -0.5q18 0 35 12q16 12 29 12q46 0 59 -19 q25 -33 40 -41l1 -12q1 -15 -19 -35q-18 -18 -37 -23q-3 -6 -3 -12q1 -17 0 -24q-10 -10 -20 -15q-19 -19 -27 -32q-5 -3 -9.5 -6t-9.5 -5q-12 -8 -12 -16q0 -12 -18 -28l-19 -17t-8 -8q-5 -10 -9 -17t-6 -12q-12 -15 -18 -20l-3 -12q-18 -14 -26 -18q-1 -1 -3.5 -4.5 t-6.5 -10.5q-7 -12 -14 -14q-1 -1 -8 -1q-21 0 -25 42q-5 0 -15 3q-11 3 -17 3q-8 0 -21 -6q-13 -5 -19 -5q-13 0 -22 11q-11 14 -17 18q-19 7 -26 8q0 8 -7 15q-8 7 -9 12q-1 10 -1.5 17.5t-0.5 12.5l-6 5q-1 2 -1 9z" />
<glyph unicode="&#xb2;" horiz-adv-x="1809" d="M-634 -98l5 12t5 15t5 18.5t5 21.5v17q1 5 1 11t1 13q3 20 13 34q13 24 15 31q4 22 24 63q2 1 4.5 3t5.5 4q4 4 12 9q2 7 6 13l4.5 9t6.5 10l9 3q4 8 14 24l10 14.5t10 17.5l12 12.5l15 15.5q16 16 36 39q2 2 4 5.5t5 7.5q2 4 5.5 9t7.5 10l18 13.5t26 21.5l11 11.5 t14 13.5l17 15t20 16q8 2 26 12l4 4t5 6l9 9q8 2 26 12q5 5 12 10t15 12t17.5 14.5l20.5 15.5l8 4t9 4t10 5l12 7q3 5 11 11q2 1 5 1q2 0 6 2q6 0 14 5q2 2 4.5 5t5.5 6q2 2 5.5 5t7.5 7q2 1 5.5 2t8.5 3l10 4l10 4l8.5 6.5l9.5 7.5t11.5 8l14.5 9q10 0 21 4q8 6 21 14 t31 18q7 2 16 5.5l20 7.5t23 9t26 10l6 7q4 3 12 3q9 0 42 17q40 21 48 24t19 5.5t24 6.5q13 3 28.5 7t32.5 9q8 5 20 10t26 10q-3 -1 19 -1q4 0 16.5 3t33.5 11l37 12.5t19 5.5t10 1h13q13 1 33 3q21 1 44 6q11 2 22 3.5t22 3.5l4 2l4 2t4.5 2t4.5 2q10 2 101 2h17 q5 1 10 1t12 1q23 2 78.5 8.5t146.5 6.5h13q-5 0 13 -2.5t58 -6.5q13 -2 28 -2h33q18 -2 39 -3t46 -3q39 -5 72 -18l4 -4l4 -4q4 -5 12 -9q4 -1 8 -1.5t9 -0.5q5 -2 10 -2.5t12 -2.5l5 -5q2 -2 4 -3.5t4 -3.5q16 -1 46 -9q7 -5 18 -12q12 -8 25 -15l49.5 -23.5t40.5 -20.5 q18 -9 31.5 -17t23.5 -15q79 -56 89 -129q1 -7 1.5 -12t0.5 -10q1 -8 0 -12q-2 -12 -13 -23q-16 -16 -18 -20l-8.5 -14t-14.5 -21q-5 -7 -14 -13.5l-20 -14.5l-24.5 -15t-30.5 -16l-16 -6l-16 -6t-15.5 -6.5t-15.5 -6.5q-44 -17 -54 -34q-3 -12 -12 -36l21 -13l21 -13 t21.5 -13t21.5 -13q46 -34 46 -81v-10q-1 -2 -1 -5q0 -2 -1 -4q-12 -68 -86 -104q-47 -23 -141 -60q-8 -2 -18 -3q-5 -1 -10 -1t-10 -1h-23q-11 0 -14 -1q-4 -1 -11 -3.5t-19 -7.5q-17 -6 -32 -6q-11 0 -32 3q-10 1 -18 1.5t-13 0.5h-6q-3 0 -7 -1t-8 -1h-9q-5 -1 -9 -1 t-9 -1q-4 -1 -8 -1h-6q-13 0 -45 8q-14 4 -25.5 6.5t-19.5 3.5q-5 -1 -12 -1h-15q-8 1 -17 1t-20 2q-4 0 -18 7q-11 6 -22 6h-7q-4 0 -9 -1t-10 -1h-7q-10 0 -18 5q-11 4 -15 6l-14.5 2t-16.5 2t-19.5 2t-22.5 2q0 3 -8 9q1 2 2.5 7t5.5 12q7 2 14 6q4 2 7.5 3.5t7.5 3.5 q4 4 11 8.5l17 10.5q22 8 43 8q25 0 81 -14t81 -14q31 0 69 9q44 10 65 26q2 2 4.5 5.5t6.5 7.5l6.5 9t7.5 10q3 3 6 4q2 1 3.5 2t3.5 3q14 10 25 27q11 24 28 45q18 21 24 47q1 9 -10 14q-16 6 -19 9q-2 2 0 8q1 3 -1 7q13 7 30 18l16 10.5t17 12.5q1 1 6 15l5 15t6 20 q5 14 8 29t7 29t7 29t8 29q26 81 59 98q6 0 17 6q12 5 23 12q6 5 28 9q7 -21 6 -30q-8 -14 -15 -30q-4 -8 -8 -17.5l-9 -20.5q-1 -7 -3 -16.5t-4 -20.5l-4.5 -24t-6.5 -27q-2 -4 -3.5 -9t-3.5 -11t-3.5 -13.5t-3.5 -15.5l-1 -10q21 -2 28 -3q5 -1 2 -1q11 0 25 8q11 7 17 10 l6 3q34 13 54 24q10 5 16 8.5t10 5.5q16 12 26.5 30t14.5 44q2 16 4 39t5 54q-4 6 -9 10q-6 5 -22 7q-17 1 -22 7q-2 2 -5.5 6.5t-8.5 9.5l-9 4.5t-10 5.5t-11.5 6.5l-13.5 7.5q-2 3 -8 9q-2 2 -5 4.5t-7 6.5q-4 1 -8 3t-9 4t-10.5 5l-12.5 7q-5 9 -20 23q-8 3 -28 3 q-14 0 -24 7q-14 9 -19 11q2 -1 -16 -1q-8 0 -42 25q-19 14 -31 21.5t-19 9.5q-4 2 -10 2q-5 0 -12 2q-7 0 -14.5 0.5t-15.5 -0.5q-35 -2 -51 3q-7 5 -33 16q-26 4 -60 6q-17 1 -37.5 1.5t-43.5 0.5q-2 0 -5.5 -0.5t-8.5 -1.5t-8.5 -1.5t-5.5 -0.5h-11q-6 0 -14 1t-15 1h-11 q-20 0 -40 -10q-5 -1 -14 -1.5t-22 -0.5h-17q-5 1 -11 1h-11q-5 1 -11 1h-11q-5 1 -10 1h-7q-4 0 -18.5 -1t-40.5 -3l-63.5 -5l-87.5 -7h-12q-6 0 -14 -2q-8 0 -16.5 -1t-18.5 -2q-2 -1 -5 -2t-7 -3q-6 -1 -17 -6q-4 -1 -9 -1h-11q-6 -1 -13 -1t-15 -2q-10 -1 -22 -6 q-5 -2 -11.5 -3.5t-13.5 -4.5q-41 -17 -45 -18q-5 -1 -10.5 -2t-12.5 -3q-13 -1 -31 -6q-8 -5 -18 -9q-5 -2 -11.5 -5t-13.5 -7q1 1 -13 1q-7 0 -14 -7q-5 -4 -9 -6.5t-6 -3.5q-13 0 -28 -4q-10 -8 -22 -15q-5 -2 -11 -4t-13 -4t-14.5 -5.5t-17.5 -7.5q-5 -4 -13 -9t-19 -10 l-45 -15q-14 -6 -34 -22q-21 -17 -33 -21q-4 -1 -7.5 -3t-8.5 -4t-10 -4.5t-12 -5.5q-8 -9 -24 -24q-21 -8 -60 -27l-38 -32l-18 -11.5t-21 -14.5t-25 -16.5t-29 -19.5q-14 -10 -41.5 -38l-69.5 -74q-2 -2 -5 -4.5t-7 -5.5q-4 -2 -7.5 -5.5l-7.5 -7.5q-2 -5 -5.5 -11 l-8.5 -14l-10 -16.5l-11 -18.5q-8 -4 -19 -20q-1 -1 -1 -14q-2 -3 -8 -9q-2 -2 -4.5 -5.5t-4.5 -7.5q-1 -4 -3 -17q0 -5 -1 -6l-8 -7q-4 -7 -7 -14l-6 -14t-6.5 -14t-6.5 -14q-8 -16 -12 -30t-6 -27q-5 -21 -3 -42q0 -6 4 -15q3 -9 1 -18q-1 -2 -1 -4q0 -3 -1 -6 q-1 -4 -3 -14q-3 -11 5 -22q7 -9 5 -20q-3 -14 -28 -30q-26 -17 -41 -17h-23q-15 50 -13 64zM1206 39q1 -1 5 -3q3 -3 5 -4q5 -1 22 -2t47 -2q13 0 30 -5q8 -5 15 -5q3 -2 5 -2q3 0 5 -1q16 -3 53 -3q82 0 116 19q9 5 17 19q4 8 8 14q2 3 6 7l6 3q1 1 3 1.5t4 2.5 q9 11 13 34q4 31 -3 50q-6 15 -32 33q-11 8 -20 13t-20 13q-3 2 -6 5t-6 5t-6 5t-6 5q-15 12 -28 12h-2l-1 -1q-29 -17 -46 -40l-16 -23l-16 -23q-10 -11 -35 -30q-5 -3 -9.5 -6t-9.5 -6t-9.5 -6t-9.5 -7q-13 -15 -43 -40q-5 -1 -12 -3.5t-17 -7.5q-1 -5 -3 -10.5z" />
<glyph unicode="&#xb3;" />
<glyph unicode="&#xb4;" horiz-adv-x="313" d="M94 725l9 -4q19 6 31 18q13 12 20 13q9 2 12 1q21 4 47 24l15.5 19t10.5 15q5 4 8.5 6t5.5 4q11 11 10 25q-1 19 0 23q1 3 11 18q1 4 0 24l-3 1v-1q-8 18 -24 18q-6 0 -12 -3q-27 -11 -34 -22q-4 -5 -7.5 -11t-7.5 -11q-4 -6 -8 -14l-9 -15l1 -19q-10 -12 -20 -21v-1 q-11 -30 -32 -52q-19 -19 -21 -25z" />
</font>
</defs>
</svg>
