<?xml version="1.0" ?><!DOCTYPE svg  PUBLIC '-//W3C//DTD SVG 1.1//EN'  'http://www.w3.org/Graphics/SVG/1.1/DTD/svg11.dtd'><svg enable_background="new 0 0 850 851" height="851px" style="stroke-linejoin: round; stroke:#000; fill: none;" version="1.1" viewBox="0 0 850 851" width="850px" xmlns="http://www.w3.org/2000/svg" xmlns:xlink="http://www.w3.org/1999/xlink"><defs><style type="text/css"><![CDATA[path { fill-rule: evenodd; }]]></style></defs><metadata><views><view h="851" padding="0.06" w="850"><proj id="laea" lat0="51.423631497" lon0="7.55593198638"/><bbox h="104.32" w="79.29" x="982.53" y="950.78"/></view></views></metadata><g class="" id="context"><path d="M850,633L842,629L838,628L833,628L829,632L827,635L817,637L806,636L790,627L782,628L775,627L761,621L755,620L745,624L744,621L739,619L734,619L733,621L732,637L731,643L725,643L718,654L718,661L709,661L704,660L700,661L697,666L685,667L675,665L671,656L666,653L660,650L658,650L658,652L659,665L658,668L654,673L651,675L638,670L637,672L635,689L629,696L622,700L614,703L602,711L597,716L593,721L594,725L600,733L608,742L608,750L605,759L615,761L616,765L616,773L616,780L615,783L612,784L606,781L599,776L599,771L597,768L591,766L585,767L581,770L578,770L575,767L569,765L559,763L558,764L559,770L558,773L526,778L517,782L510,787L505,789L504,792L499,796L493,797L492,796L488,798L482,800L477,799L471,792L470,788L461,788L455,785L439,787L438,799L436,804L432,810L428,813L424,814L424,805L417,804L415,802L416,799L413,794L408,791L399,787L393,785L391,787L387,790L380,789L378,790L380,792L385,796L384,804L379,816L380,817L385,832L384,835L383,837L386,837L394,839L401,842L405,849L430,849L436,843L441,845L443,849L488,849L490,845L497,841L510,840L517,838L523,838L528,838L534,838L547,832L560,827L560,832L558,837L560,842L567,849L796,849L800,845L809,843L823,845L824,842L823,832L826,827L830,825L839,813L844,809L850,809L850,794L848,786L850,780L847,772L847,769L850,768L850,744L844,743L843,741L850,734L850,633Z " data-iso="AUT"/><path d="M126,464L135,461L139,467L133,466L145,467L146,469L153,474L155,479L160,483L156,488L158,493L164,494L167,498L167,503L168,511L156,519L152,529L152,531L151,530L150,527L143,526L136,534L130,546L127,550L126,561L130,566L136,578L131,587L129,589L124,588L111,591L106,586L97,574L92,572L87,569L79,563L74,562L70,562L69,556L69,549L66,544L71,527L68,525L65,526L61,530L57,540L50,544L39,545L26,543L24,538L27,533L28,529L24,524L27,514L19,506L13,504L1,503L-1,505L-3,506L-5,504L-7,491L-9,489L-16,486L-26,485L-29,482L-30,476L-30,469L-33,462L-38,457L-43,458L-50,461L-55,462L-60,458L-65,452L-70,445L-70,441L-69,437L-72,427L-73,423L-44,407L-27,400L-19,398L-18,406L-15,411L-12,412L-5,408L1,409L6,411L10,416L15,417L24,413L32,407L35,403L36,400L41,402L45,403L47,402L46,396L50,393L54,391L55,394L59,397L62,397L69,390L71,392L73,399L75,400L81,399L87,393L88,395L90,406L97,413L103,415L111,414L114,413L116,414L118,417L122,422L131,425L136,429L135,433L130,443L129,449L124,455L123,457L126,464L126,464Z " data-iso="BEL"/><path d="M383,837L378,837L377,837L376,833L376,826L379,816L384,804L385,796L380,792L378,790L366,783L355,776L351,776L334,778L331,773L328,772L324,774L316,767L313,766L309,767L304,771L302,775L303,778L305,779L312,778L312,782L307,783L303,785L297,784L288,784L281,787L270,788L254,788L249,785L240,790L235,799L230,801L225,802L221,801L218,799L218,797L216,796L210,796L205,799L200,805L201,808L206,809L205,814L203,818L185,839L184,842L181,844L170,849L405,849L401,842L394,839L386,837L383,837Z M443,849L441,845L436,843L430,849L443,849Z " data-iso="CHE"/><path d="M704,435L703,436L701,439L699,440L691,436L691,430L689,430L687,427L686,423L683,421L674,421L671,420L669,421L667,424L671,428L676,432L675,433L665,438L659,442L653,445L647,450L635,455L626,457L624,459L621,466L619,468L615,466L607,472L603,479L593,481L589,490L584,489L578,488L574,491L569,492L564,493L558,498L553,506L548,516L545,509L538,503L535,508L538,513L541,517L544,524L549,530L556,534L561,538L565,543L565,545L562,553L558,559L559,562L570,575L576,586L579,591L584,595L588,599L595,598L603,605L611,614L617,618L621,620L625,623L629,631L632,633L639,632L649,640L655,645L658,650L660,650L666,653L671,656L675,665L685,667L697,666L700,661L704,660L709,661L718,661L718,654L725,643L731,643L732,637L733,621L734,619L739,619L744,621L745,624L755,620L761,621L775,627L782,628L790,627L806,636L817,637L827,635L829,632L833,628L838,628L842,629L850,633L850,464L846,463L839,463L839,464L843,471L849,479L849,481L836,491L833,495L831,497L825,496L817,484L807,475L805,473L799,471L797,468L801,462L805,460L808,452L804,448L799,445L785,449L782,451L777,446L774,446L763,440L757,440L745,437L741,437L738,436L733,429L731,422L722,419L714,418L713,419L714,427L714,431L709,434L704,435Z " data-iso="CZE"/><path d="M626,121L613,113L614,120L620,126L619,132L621,137L629,138L636,137L638,137L637,132L637,129L626,121Z M462,94L462,92L459,86L450,83L448,85L446,90L450,91L453,95L462,94Z M604,88L597,84L596,81L600,73L598,69L589,66L587,63L585,58L580,58L575,65L575,70L572,75L572,78L572,89L574,96L585,104L588,103L591,94L598,93L605,98L606,95L604,88Z M304,70L304,66L295,67L294,70L297,72L302,72L304,70Z M310,62L316,71L322,81L326,87L326,94L319,98L308,101L307,106L308,112L314,112L316,110L320,111L324,115L324,141L325,145L329,148L334,151L343,152L349,155L368,180L377,185L371,184L365,180L349,159L342,155L324,158L307,154L302,163L301,175L303,186L301,202L300,190L298,187L291,181L289,183L288,191L286,197L283,199L278,195L281,188L271,173L249,172L228,174L224,176L218,186L216,194L214,204L220,209L223,214L222,223L222,242L222,246L218,254L214,268L213,277L211,279L195,279L192,289L192,292L195,296L200,298L209,298L213,304L212,316L209,322L201,329L195,333L193,339L198,344L194,351L180,357L174,356L170,360L166,357L158,354L148,358L145,361L145,365L151,376L153,378L153,382L159,393L157,407L151,420L155,427L142,438L138,437L139,444L143,445L147,447L149,452L145,467L146,469L153,474L155,479L160,483L156,488L158,493L164,494L167,498L167,503L168,511L156,519L152,529L152,531L151,533L151,539L153,545L160,556L165,559L172,563L175,563L176,568L175,572L168,583L166,592L165,598L168,597L173,599L178,604L182,614L191,628L193,628L198,624L201,623L208,626L209,631L216,631L221,633L229,631L235,629L238,629L243,635L248,638L261,640L274,643L283,647L283,655L269,674L263,681L260,689L258,703L255,716L249,729L246,738L248,744L247,754L243,767L243,777L245,784L249,785L254,788L270,788L281,787L288,784L297,784L303,785L307,783L312,782L312,778L305,779L303,778L302,775L304,771L309,767L313,766L316,767L324,774L328,772L331,773L334,778L351,776L355,776L366,783L378,790L380,789L387,790L391,787L393,785L399,787L408,791L413,794L416,799L415,802L417,804L424,805L424,814L428,813L432,810L436,804L438,799L439,787L455,785L461,788L470,788L471,792L477,799L482,800L488,798L492,796L493,797L499,796L504,792L505,789L510,787L517,782L526,778L558,773L559,770L558,764L559,763L569,765L575,767L578,770L581,770L585,767L591,766L597,768L599,771L599,776L606,781L612,784L615,783L616,780L616,773L616,765L615,761L605,759L608,750L608,742L600,733L594,725L593,721L597,716L602,711L614,703L622,700L629,696L635,689L637,672L638,670L651,675L654,673L658,668L659,665L658,652L658,650L655,645L649,640L639,632L632,633L629,631L625,623L621,620L617,618L611,614L603,605L595,598L588,599L584,595L579,591L576,586L570,575L559,562L558,559L562,553L565,545L565,543L561,538L556,534L549,530L544,524L541,517L538,513L535,508L538,503L545,509L548,516L553,506L558,498L564,493L569,492L574,491L578,488L584,489L589,490L593,481L603,479L607,472L615,466L619,468L621,466L624,459L626,457L635,455L647,450L653,445L659,442L665,438L675,433L676,432L671,428L667,424L669,421L671,420L674,421L683,421L686,423L687,427L689,430L691,430L691,436L699,440L701,439L703,436L704,435L704,433L709,419L711,410L713,394L707,382L706,376L704,374L692,369L691,367L692,358L690,355L687,351L683,345L681,338L685,331L685,325L688,313L685,310L684,306L684,300L682,296L678,294L675,290L673,286L673,279L675,269L668,258L651,245L642,237L642,231L645,226L651,221L655,212L656,194L646,168L642,151L642,150L628,148L623,145L618,140L614,124L607,111L591,114L572,101L564,88L556,88L549,86L537,85L527,98L522,104L515,111L512,117L494,120L488,123L475,139L472,141L454,136L443,138L439,136L436,130L447,119L450,109L447,99L443,99L431,106L408,95L400,98L395,90L380,92L384,88L388,81L388,72L384,65L380,61L371,59L371,57L366,56L364,54L357,56L348,60L343,60L339,56L322,51L309,51L310,62Z M288,63L290,56L305,55L307,52L292,51L292,48L293,40L296,36L293,35L287,50L287,65L288,63Z " data-iso="DEU"/><path d="M464,47L458,41L447,43L446,47L446,59L471,73L479,69L484,69L489,67L488,58L487,54L482,51L475,52L464,47Z M414,53L415,52L410,49L406,48L401,44L397,42L398,45L406,53L410,55L414,53Z M532,35L524,29L518,28L516,26L515,31L508,42L512,44L521,36L530,37L532,35Z M389,50L389,48L385,40L375,34L372,33L374,49L380,50L383,52L389,50Z M429,62L438,31L439,21L438,21L434,32L428,41L426,47L422,53L422,55L426,63L429,62Z M654,0L654,11L666,17L676,19L677,17L680,10L679,4L672,0L654,0Z M376,0L376,3L381,16L383,19L384,23L400,30L411,33L421,32L430,24L431,17L429,10L431,5L429,0L376,0Z M451,0L451,3L458,15L460,16L465,14L469,14L479,16L482,25L483,31L486,37L486,43L494,57L505,52L505,42L505,36L504,26L504,14L517,9L522,3L521,0L451,0Z M309,51L322,51L339,56L343,60L348,60L357,56L364,54L366,56L371,57L369,47L370,43L365,37L361,36L354,36L357,28L364,19L366,13L363,0L305,0L307,8L308,25L303,28L307,36L308,42L309,51Z " data-iso="DNK"/><path d="M249,785L245,784L243,777L243,767L247,754L248,744L246,738L249,729L255,716L258,703L260,689L263,681L269,674L283,655L283,647L274,643L261,640L248,638L243,635L238,629L235,629L229,631L221,633L216,631L209,631L208,626L201,623L198,624L193,628L191,628L182,614L178,604L173,599L168,597L165,598L161,595L159,594L155,593L151,594L148,597L144,598L140,597L132,592L129,589L124,588L111,591L106,586L97,574L92,572L87,569L79,563L74,562L70,562L69,556L69,549L66,544L71,527L68,525L65,526L61,530L57,540L50,544L39,545L26,543L24,538L27,533L28,529L24,524L27,514L19,506L13,504L1,503L0,503L0,849L170,849L181,844L184,842L185,839L203,818L205,814L206,809L201,808L200,805L205,799L210,796L216,796L218,797L218,799L221,801L225,802L230,801L235,799L240,790L249,785Z " data-iso="FRA"/><path d="M830,825L843,824L845,827L848,837L850,838L850,809L844,809L839,813L830,825Z M850,768L847,769L847,772L850,780L850,768Z M850,734L843,741L844,743L850,744L850,734Z " data-iso="HUN"/><path d="M567,849L560,842L558,837L560,832L560,827L547,832L534,838L528,838L523,838L517,838L510,840L497,841L490,845L488,849L567,849Z " data-iso="ITA"/><path d="M384,835L385,832L380,817L379,816L376,826L376,833L377,837L378,837L383,837L384,835Z " data-iso="LIE"/><path d="M151,530L150,527L143,526L136,534L130,546L127,550L126,561L130,566L136,578L131,587L129,589L132,592L140,597L144,598L148,597L151,594L155,593L159,594L161,595L165,598L166,592L168,583L175,572L176,568L175,563L172,563L165,559L160,556L153,545L151,539L151,533L152,531L151,530Z " data-iso="LUX"/><path d="M1,409L6,411L10,416L15,417L24,413L32,407L35,403L36,400L29,402L22,398L14,402L4,400L0,398L0,409L1,409Z M20,363L10,362L5,364L6,369L12,367L20,375L28,373L20,363Z M83,232L84,221L75,230L73,235L77,239L83,232Z M98,209L93,208L85,215L86,216L98,209Z M36,400L41,402L45,403L47,402L46,396L50,393L54,391L55,394L59,397L62,397L69,390L71,392L73,399L75,400L81,399L87,393L88,395L90,406L97,413L103,415L111,414L114,413L116,414L118,417L122,422L131,425L136,429L135,433L130,443L129,449L124,455L123,457L126,464L126,464L130,466L133,466L145,467L149,452L147,447L143,445L139,444L138,437L142,438L155,427L151,420L157,407L159,393L153,382L153,378L151,376L145,365L145,361L148,358L158,354L166,357L170,360L174,356L180,357L194,351L198,344L193,339L195,333L201,329L209,322L212,316L213,304L209,298L200,298L195,296L192,292L192,289L195,279L211,279L213,277L214,268L218,254L222,246L222,242L222,223L223,214L215,212L209,209L206,204L200,198L185,198L173,200L155,200L144,203L123,214L118,219L112,231L94,244L83,249L80,246L76,245L72,252L70,258L61,294L56,308L49,319L38,332L33,337L30,338L26,345L23,353L21,356L31,371L34,377L23,378L28,383L37,388L39,391L35,392L31,392L16,380L7,377L0,377L0,391L3,392L11,396L22,393L30,398L36,400Z M141,285L141,293L137,298L118,316L107,311L90,305L89,303L90,299L92,297L92,295L93,288L92,283L93,277L97,277L104,273L104,267L99,261L97,256L95,251L94,247L99,243L106,237L113,234L114,236L115,250L115,253L117,255L123,256L129,256L130,259L127,263L127,265L126,272L127,275L129,278L140,280L141,285Z M111,201L126,197L125,196L116,197L103,201L105,202L111,201Z M147,195L144,193L134,193L135,196L147,195Z M171,190L169,190L162,192L163,194L171,190Z M196,183L200,179L197,179L192,181L190,184L196,183Z " data-iso="NLD"/><path d="M637,129L637,132L638,137L646,137L659,140L660,147L660,151L662,158L656,155L642,151L646,168L656,194L655,212L651,221L645,226L642,231L642,237L651,245L668,258L675,269L673,279L673,286L675,290L678,294L682,296L684,300L684,306L685,310L688,313L685,325L685,331L681,338L683,345L687,351L690,355L692,358L691,367L692,369L704,374L706,376L707,382L713,394L711,410L709,419L704,433L704,435L709,434L714,431L714,427L713,419L714,418L722,419L731,422L733,429L738,436L741,437L745,437L757,440L763,440L774,446L777,446L782,451L785,449L799,445L804,448L808,452L805,460L801,462L797,468L799,471L805,473L807,475L817,484L825,496L831,497L833,495L836,491L849,481L849,479L843,471L839,464L839,463L846,463L850,464L850,14L838,18L806,31L792,41L786,47L768,54L758,67L755,75L749,83L741,86L733,88L699,104L666,119L648,130L640,130L637,129Z " data-iso="POL"/><path d="M830,825L826,827L823,832L824,842L823,845L809,843L800,845L796,849L850,849L850,838L848,837L845,827L843,824L830,825Z " data-iso="SVN"/></g><g class="" id="regions"><path d="M212,319L200,331L195,332L193,335L190,336L198,344L198,346L194,352L192,352L187,353L181,355L169,360L168,358L166,357L156,352L155,354L157,356L144,360L146,364L145,369L148,370L148,374L153,380L153,382L159,391L160,398L159,400L159,408L156,410L153,416L150,425L152,426L155,424L156,425L155,428L151,430L145,435L142,439L139,437L137,440L139,445L141,444L146,445L146,449L150,452L149,457L146,458L144,465L152,472L156,478L157,481L161,483L157,486L155,488L159,494L161,493L167,495L166,496L167,501L166,506L169,510L169,511L172,509L170,506L171,504L174,509L179,506L182,506L186,508L186,508L191,509L196,507L195,501L193,499L194,497L197,494L199,497L202,496L202,494L206,488L209,487L212,484L215,485L219,483L221,480L224,481L227,481L231,480L233,479L234,474L247,470L249,468L254,465L252,462L256,459L258,460L257,453L259,450L264,451L263,455L265,456L269,460L271,460L272,463L276,472L276,474L280,474L281,475L282,473L284,472L284,469L281,466L285,460L291,455L296,456L298,454L302,451L303,447L307,441L306,433L312,433L314,434L317,432L319,419L317,415L312,417L312,418L309,416L310,413L315,406L323,404L326,405L328,403L331,403L331,400L330,400L329,394L332,392L338,392L342,398L345,398L348,396L349,393L353,390L357,382L355,381L361,378L362,376L359,377L359,368L362,363L362,359L362,357L363,355L354,356L355,352L354,350L351,348L352,345L349,343L348,344L344,343L346,340L345,336L345,332L343,331L342,328L334,328L333,324L336,322L338,318L332,315L334,308L338,307L341,301L339,292L334,294L332,297L327,302L322,303L316,302L315,294L311,290L300,294L299,296L298,298L294,298L290,297L292,302L298,306L299,308L300,321L302,323L298,329L297,330L288,329L286,331L279,336L273,336L269,338L267,337L265,333L267,331L271,330L273,325L268,324L266,322L269,315L267,313L270,311L266,305L260,305L254,301L252,296L248,295L246,299L245,305L244,305L235,312L233,312L229,315L226,316L218,316L212,319L212,319Z " data-fips="GM07" data-fips-="GM06" data-iso3="DEU" data-name="Nordrhein-Westfalen" data-p="NW"/><path d="M346,585L345,586L343,591L334,595L335,597L333,598L330,603L327,603L328,597L329,595L331,594L332,592L328,593L320,589L318,582L310,591L303,585L301,585L300,588L303,594L302,598L306,599L306,605L305,614L299,622L297,632L292,643L289,647L287,648L286,650L284,653L279,664L276,666L275,668L272,669L272,671L267,676L264,678L261,683L261,689L262,692L260,694L257,701L257,704L258,710L254,713L253,720L248,726L246,739L249,744L248,748L246,750L245,758L245,759L242,766L243,770L242,773L243,778L247,785L247,786L252,785L251,787L253,790L259,789L262,785L269,788L277,788L287,783L290,782L294,783L295,785L299,786L303,786L310,782L313,785L313,778L310,778L301,778L306,768L311,767L314,764L315,764L316,768L318,765L321,768L323,768L322,771L323,774L326,774L327,772L332,777L339,778L343,776L351,776L355,776L356,778L361,778L380,789L380,789L387,783L387,782L391,782L394,780L399,776L401,775L407,776L410,774L414,774L416,776L416,774L417,774L418,770L418,766L415,762L418,760L416,755L415,745L416,744L418,731L416,727L413,715L407,705L406,703L410,698L410,696L413,694L417,694L424,690L426,688L428,687L429,683L427,677L426,676L425,673L426,671L430,672L436,670L436,674L439,670L437,667L435,666L435,661L436,657L436,656L436,650L437,648L435,645L428,637L423,633L420,631L422,629L422,626L420,625L415,619L413,614L415,614L415,610L412,604L415,602L413,594L410,589L410,587L408,588L408,590L405,593L401,593L399,586L393,587L396,580L393,577L392,572L390,569L386,573L380,573L380,566L374,564L370,562L364,564L361,564L358,566L359,569L362,570L363,572L364,570L366,577L358,579L355,585L346,586L346,585Z " data-fips="GM01" data-fips-="" data-iso3="DEU" data-name="Baden-Württemberg" data-p="BW"/><path d="M392,401L389,400L390,402L389,403L387,401L385,401L380,405L382,407L381,412L380,412L378,410L371,407L370,403L375,400L375,395L372,389L373,386L377,384L375,380L371,379L366,378L364,376L362,377L362,376L361,378L355,381L357,382L353,390L349,393L348,396L345,398L342,398L338,392L332,392L329,394L330,400L331,400L331,403L328,403L326,405L323,404L315,406L310,413L309,416L312,418L312,417L317,415L319,419L317,432L314,434L312,433L306,433L307,441L303,447L302,451L298,454L296,456L291,455L285,460L281,466L284,469L284,472L282,473L281,475L281,476L281,479L283,484L283,486L278,490L277,489L273,491L274,498L272,504L275,505L280,512L279,517L276,517L274,522L273,521L268,523L266,528L269,530L268,533L261,536L258,538L263,542L265,546L268,546L276,542L284,539L288,540L295,547L296,551L295,554L301,567L304,567L302,571L300,571L297,574L297,577L299,582L301,585L303,585L310,591L318,582L320,589L328,593L332,592L331,594L329,595L328,597L327,603L330,603L333,598L335,597L334,595L343,591L345,586L346,585L345,584L343,582L346,579L347,570L348,569L346,566L347,564L345,563L344,558L342,559L340,552L340,544L341,545L339,538L336,537L344,530L347,532L350,529L358,528L361,529L365,533L371,525L370,524L370,519L371,518L380,518L380,515L385,511L385,507L386,501L391,501L396,500L400,497L404,490L404,489L404,489L404,486L403,483L404,474L400,473L397,475L398,477L397,478L393,478L393,474L394,472L396,467L395,463L397,459L400,458L403,452L399,448L398,450L396,446L402,446L401,442L402,440L406,439L408,441L411,440L412,438L411,436L408,435L409,430L407,426L409,426L411,428L412,424L409,420L403,418L401,412L397,412L395,410L393,406L393,403L395,402L392,401Z " data-fips="GM05" data-fips-="" data-iso3="DEU" data-name="Hessen" data-p="HE"/><path d="M305,220L301,219L302,222L308,224L311,230L314,234L314,237L318,236L321,238L324,238L327,239L330,236L331,233L329,230L330,227L327,225L325,228L320,225L318,225L305,220Z M302,181L305,186L305,187L304,190L304,190L307,192L308,191L309,188L308,183L308,181L302,180L302,181Z " data-fips="GM03" data-fips-="" data-iso3="DEU" data-name="Bremen" data-p="HB"/><path d="M196,184L199,180L192,181L192,184L196,184Z M217,173L214,172L206,173L204,174L217,173Z M232,170L232,169L225,169L222,169L219,171L222,172L229,171L232,170Z M237,169L237,170L237,169L237,169Z M249,167L248,166L240,166L240,169L242,169L242,167L249,167Z M259,164L260,164L255,163L252,164L254,166L259,164Z M302,180L308,181L308,183L309,188L308,191L307,192L304,190L303,191L301,197L301,206L300,196L304,187L302,186L297,185L288,180L286,183L285,186L286,190L288,189L290,191L290,194L287,201L284,201L280,197L276,196L275,192L278,191L281,188L281,187L278,185L279,183L274,178L272,175L273,171L268,170L250,172L241,174L239,172L230,173L225,175L217,183L217,185L220,187L218,190L215,190L213,195L213,204L213,207L216,208L229,209L232,210L232,211L230,210L226,210L225,212L222,228L222,232L223,242L221,249L216,257L214,263L213,278L212,280L206,279L202,278L197,278L193,284L191,288L191,291L193,296L206,299L209,297L213,303L213,310L212,318L212,319L218,316L226,316L229,315L233,312L235,312L244,305L245,305L246,299L248,295L252,296L254,301L260,305L266,305L270,311L267,313L269,315L266,322L268,324L273,325L271,330L267,331L265,333L267,337L269,338L273,336L279,336L286,331L288,329L297,330L298,329L302,323L300,321L299,308L298,306L292,302L290,297L294,298L298,298L299,296L300,294L311,290L315,294L316,302L322,303L327,302L332,297L334,294L339,292L341,301L338,307L334,308L332,315L338,318L336,322L333,324L334,328L342,328L343,331L345,332L345,336L346,340L344,343L348,344L349,343L352,345L351,348L354,350L355,352L354,356L363,355L362,357L362,359L362,363L359,368L359,377L362,376L362,377L364,376L366,378L371,379L375,380L377,384L373,386L372,389L375,395L375,400L370,403L371,407L378,410L380,412L381,412L382,407L380,405L385,401L387,401L389,403L390,402L389,400L392,401L395,402L398,400L407,397L416,390L416,389L420,386L421,381L424,380L429,384L438,383L437,377L440,375L438,372L438,367L433,361L432,356L433,354L436,350L434,345L436,343L432,341L431,338L435,337L436,334L440,333L448,333L454,328L456,327L460,323L458,318L462,314L457,308L460,302L460,299L458,298L451,291L452,288L455,288L452,282L452,275L451,276L447,273L445,268L442,265L439,259L439,255L441,253L446,253L451,251L454,246L466,247L476,246L483,242L483,237L486,235L487,231L484,230L480,228L479,228L474,230L473,230L473,230L472,229L470,227L468,223L464,223L460,220L458,221L454,221L447,215L440,210L438,208L436,207L433,201L431,201L427,201L425,202L423,201L414,196L412,196L410,196L408,196L402,199L396,194L393,195L391,197L388,198L382,197L380,195L376,185L372,184L365,181L360,174L359,171L354,166L348,156L346,154L337,154L332,156L331,157L329,157L322,158L317,157L313,154L311,153L307,153L304,158L302,164L300,170L300,175L301,179L302,180Z M302,222L301,219L305,220L318,225L320,225L325,228L327,225L330,227L329,230L331,233L330,236L327,239L324,238L321,238L318,236L314,237L314,234L311,230L308,224L302,222Z " data-fips="GM06" data-fips-="" data-iso3="DEU" data-name="Niedersachsen" data-p="NI"/><path d="M542,426L541,430L543,433L539,439L539,440L523,438L516,433L510,434L509,434L506,429L505,427L503,426L495,427L493,427L490,427L488,426L488,421L482,416L488,412L489,409L483,401L473,398L470,398L460,397L458,396L458,392L456,388L456,386L454,382L456,379L452,376L448,375L441,376L440,375L437,377L438,383L429,384L424,380L421,381L420,386L416,389L416,390L407,397L398,400L395,402L393,403L393,406L395,410L397,412L401,412L403,418L409,420L412,424L411,428L409,426L407,426L409,430L408,435L411,436L412,438L411,440L408,441L406,439L402,440L401,442L402,446L396,446L398,450L399,448L403,452L400,458L397,459L395,463L396,467L394,472L393,474L393,478L397,478L398,477L397,475L400,473L404,474L403,483L404,486L404,489L404,489L407,485L409,486L414,486L416,489L421,491L423,495L426,498L427,500L430,500L433,504L436,504L440,510L440,513L441,517L444,517L448,518L448,515L455,515L455,512L450,509L447,507L447,503L450,503L451,500L457,499L458,500L464,503L470,503L471,502L475,505L474,507L478,511L479,509L481,510L482,507L482,506L483,500L482,499L481,493L482,489L485,488L486,485L492,486L491,488L492,493L498,498L505,498L512,496L516,495L518,495L521,495L523,494L522,493L524,491L525,487L524,485L527,481L530,481L534,478L537,478L538,474L539,472L544,471L546,469L548,466L545,465L544,462L542,461L545,457L543,454L550,450L553,450L555,447L558,445L564,445L567,443L564,437L560,435L555,427L545,425L541,425L542,426Z " data-fips="GM15" data-fips-="" data-iso3="DEU" data-name="Thüringen" data-p="TH"/><path d="M410,194L405,190L404,188L401,186L401,182L403,180L402,173L400,171L400,166L398,168L394,168L393,172L391,172L390,174L386,175L379,181L377,177L376,177L375,183L377,183L380,184L380,186L380,186L376,185L380,195L382,197L388,198L391,197L393,195L396,194L402,199L408,196L410,196L410,194Z " data-fips="GM04" data-fips-="" data-iso3="DEU" data-name="Hamburg" data-p="HH"/><path d="M322,94L326,90L326,89L320,89L318,91L322,94Z M460,88L457,85L452,83L449,84L447,86L446,90L446,91L451,91L452,95L457,94L464,95L460,88Z M310,91L311,85L305,90L308,92L310,91Z M291,70L289,71L287,75L291,79L293,77L290,72L291,70Z M304,72L305,68L302,66L296,66L293,70L299,72L304,72Z M375,183L376,177L377,177L379,181L386,175L390,174L391,172L393,172L394,168L398,168L400,166L400,171L402,173L403,180L401,182L401,186L404,188L405,190L410,194L410,196L412,196L414,196L423,201L425,202L427,201L428,200L430,192L432,192L433,190L436,189L439,186L440,183L441,181L444,180L446,183L447,181L446,174L447,172L446,169L438,164L435,163L435,158L434,153L434,151L442,146L443,147L445,146L443,145L442,141L442,141L435,137L433,133L436,128L439,128L444,123L451,118L452,108L450,101L452,100L454,98L452,97L448,100L447,98L442,99L433,106L428,106L423,101L413,98L406,94L400,98L399,102L397,106L396,107L398,94L399,93L394,89L380,93L378,91L385,89L387,87L389,72L386,71L382,72L387,69L385,66L384,63L380,60L380,62L375,63L375,61L368,58L365,58L362,57L362,53L358,57L354,59L342,60L341,60L339,55L327,53L322,51L310,52L308,54L307,57L312,68L315,71L320,79L318,81L328,88L329,90L329,93L324,98L314,100L310,101L308,101L307,104L311,105L306,106L306,107L307,112L309,114L313,112L323,111L322,112L327,109L324,114L321,115L320,118L319,121L320,126L321,129L325,126L327,126L331,131L330,138L325,137L320,138L325,147L329,151L333,151L336,152L343,152L351,157L354,157L355,163L356,166L362,169L363,177L365,179L372,183L375,183Z M293,52L291,50L292,41L294,39L294,37L297,36L294,35L292,38L287,52L286,66L288,64L288,55L296,55L299,52L307,53L308,52L295,52L293,52Z " data-fips="GM10" data-fips-="" data-iso3="DEU" data-name="Schleswig-Holstein" data-p="SH"/><path d="M169,511L163,512L161,517L158,518L155,520L154,526L152,528L151,533L151,539L154,548L156,549L158,554L164,559L165,559L168,561L176,564L175,572L175,573L171,576L170,579L166,585L166,590L166,591L175,590L183,590L187,588L190,588L199,584L204,581L208,581L213,583L217,583L223,587L226,586L226,588L224,599L225,601L228,605L233,607L233,610L232,612L229,619L227,620L230,626L232,627L234,627L235,628L239,629L239,631L241,634L247,637L257,640L258,639L264,641L269,640L280,646L286,647L287,648L287,648L289,647L292,643L297,632L299,622L305,614L306,605L306,599L302,598L303,594L300,588L301,585L299,582L297,577L297,574L300,571L302,571L304,567L301,567L295,554L296,551L295,547L288,540L284,539L276,542L268,546L265,546L263,542L258,538L261,536L268,533L269,530L266,528L268,523L273,521L274,522L276,517L279,517L280,512L275,505L272,504L274,498L273,491L277,489L278,490L283,486L283,484L281,479L281,476L281,475L280,474L276,474L276,472L272,463L271,460L269,460L265,456L263,455L264,451L259,450L257,453L258,460L256,459L252,462L254,465L249,468L247,470L234,474L233,479L231,480L227,481L224,481L221,480L219,483L215,485L212,484L209,487L206,488L202,494L202,496L199,497L197,494L194,497L193,499L195,501L196,507L191,509L186,508L186,508L182,506L179,506L174,509L171,504L170,506L172,509L169,511L169,511Z " data-fips="GM08" data-fips-="" data-iso3="DEU" data-name="Rheinland-Pfalz" data-p="RP"/><path d="M165,594L165,597L169,597L175,600L177,604L180,607L179,611L186,619L187,623L188,622L188,626L190,628L195,629L197,627L197,623L198,623L209,626L209,632L211,633L214,630L218,632L226,633L227,632L232,627L232,627L230,626L227,620L229,619L232,612L233,610L233,607L228,605L225,601L224,599L226,588L226,586L223,587L217,583L213,583L208,581L204,581L199,584L190,588L187,588L183,590L175,590L166,591L165,594Z " data-fips="GM09" data-fips-="" data-iso3="DEU" data-name="Saarland" data-p="SL"/><path d="M404,489L404,490L400,497L396,500L391,501L386,501L385,507L385,511L380,515L380,518L371,518L370,519L370,524L371,525L365,533L361,529L358,528L350,529L347,532L344,530L336,537L339,538L341,545L340,544L340,552L342,559L344,558L345,563L347,564L346,566L348,569L347,570L346,579L343,582L345,584L346,585L346,586L355,585L358,579L366,577L364,570L363,572L362,570L359,569L358,566L361,564L364,564L370,562L374,564L380,566L380,573L386,573L390,569L392,572L393,577L396,580L393,587L399,586L401,593L405,593L408,590L408,588L410,587L410,589L413,594L415,602L412,604L415,610L415,614L413,614L415,619L420,625L422,626L422,629L420,631L423,633L428,637L435,645L437,648L436,650L436,656L436,657L435,661L435,666L437,667L439,670L436,674L436,670L430,672L426,671L425,673L426,676L427,677L429,683L428,687L426,688L424,690L417,694L413,694L410,696L410,698L406,703L407,705L413,715L416,727L418,731L416,744L415,745L416,755L418,760L415,762L418,766L418,770L417,774L416,774L416,776L414,774L410,774L407,776L401,775L399,776L394,780L391,782L387,782L387,783L380,789L384,790L388,790L393,784L398,788L403,789L407,788L410,794L412,793L415,798L414,801L419,805L424,804L425,806L422,814L429,813L433,810L437,804L438,803L441,799L440,792L439,792L439,787L438,784L441,783L443,787L446,788L451,784L460,787L461,788L468,786L471,788L469,791L472,793L476,796L476,800L477,800L484,800L490,796L493,796L493,799L496,798L499,795L505,793L503,791L506,787L511,787L516,786L521,778L524,778L530,778L533,779L535,776L541,775L557,774L559,772L559,767L557,765L559,762L561,763L560,766L572,764L576,769L578,770L583,770L585,767L591,765L596,767L600,771L599,772L598,777L602,779L606,782L609,784L614,784L616,782L617,765L614,760L606,760L605,759L607,754L611,746L609,744L606,739L603,736L599,730L594,726L592,722L601,711L604,710L609,705L617,701L626,699L628,697L634,691L636,682L637,678L636,675L636,671L640,670L647,671L651,674L654,675L654,672L659,667L659,657L657,655L657,649L653,643L651,640L648,640L645,637L643,633L639,631L636,632L635,635L629,631L628,630L627,625L620,619L616,619L605,607L602,604L601,601L595,598L593,597L591,599L587,599L585,597L582,593L577,589L576,588L575,581L572,580L565,566L561,564L558,560L558,558L562,555L562,550L563,550L565,542L561,540L562,536L547,529L546,526L543,524L542,519L539,513L536,511L537,508L536,505L534,503L536,503L528,500L528,496L524,493L523,494L521,495L518,495L516,495L512,496L505,498L498,498L492,493L491,488L492,486L486,485L485,488L482,489L481,493L482,499L483,500L482,506L482,507L481,510L479,509L478,511L474,507L475,505L471,502L470,503L464,503L458,500L457,499L451,500L450,503L447,503L447,507L450,509L455,512L455,515L448,515L448,518L444,517L441,517L440,513L440,510L436,504L433,504L430,500L427,500L426,498L423,495L421,491L416,489L414,486L409,486L407,485L404,489Z " data-fips="GM02" data-fips-="GM15" data-iso3="DEU" data-name="Bayern" data-p="BY"/><path d="M606,263L594,265L590,266L590,270L586,270L585,277L587,279L584,282L584,286L584,288L587,290L591,287L594,288L598,288L602,290L604,290L607,288L610,287L617,289L618,293L621,286L622,285L618,278L615,278L616,273L611,271L606,263Z " data-fips="GM16" data-fips-="" data-iso3="DEU" data-name="Berlin" data-p="BE"/><path d="M589,366L593,362L594,360L592,355L592,352L594,347L597,344L593,343L586,345L577,340L574,340L560,332L557,335L550,332L545,332L542,329L541,327L531,316L531,310L533,309L530,304L531,297L532,290L532,289L534,281L531,282L530,280L525,281L526,279L523,279L525,276L525,272L527,270L529,264L528,263L526,255L528,253L528,252L527,248L524,246L521,247L520,245L515,245L507,244L503,242L499,235L496,237L493,234L490,233L490,230L487,231L486,235L483,237L483,242L476,246L466,247L454,246L451,251L446,253L441,253L439,255L439,259L442,265L445,268L447,273L451,276L452,275L452,282L455,288L452,288L451,291L458,298L460,299L460,302L457,308L462,314L458,318L460,323L456,327L454,328L448,333L440,333L436,334L435,337L431,338L432,341L436,343L434,345L436,350L433,354L432,356L433,361L438,367L438,372L440,375L441,376L448,375L452,376L456,379L454,382L456,386L456,388L458,392L458,396L460,397L470,398L473,398L483,401L489,409L488,412L482,416L488,421L488,426L490,427L493,427L495,427L503,426L505,427L506,429L509,434L510,434L516,433L523,438L539,440L539,439L543,433L541,430L542,426L541,425L539,425L536,421L536,417L534,416L534,410L533,409L532,403L535,402L533,391L534,387L534,381L536,379L540,378L544,376L549,376L549,373L555,372L556,373L564,371L566,368L570,369L575,364L582,368L586,368L588,368L589,366Z " data-fips="GM14" data-fips-="" data-iso3="DEU" data-name="Sachsen-Anhalt" data-p="ST"/><path d="M541,425L545,425L555,427L560,435L564,437L567,443L564,445L558,445L555,447L553,450L550,450L543,454L545,457L542,461L544,462L545,465L548,466L546,469L544,471L539,472L538,474L537,478L534,478L530,481L527,481L524,485L525,487L524,491L522,493L523,494L524,493L528,496L528,500L536,503L539,503L542,508L545,509L545,510L550,518L551,508L553,505L555,501L559,499L559,496L561,494L574,492L577,488L581,487L587,490L590,490L592,485L593,481L599,480L602,480L604,477L606,471L610,472L611,471L612,469L615,466L617,468L622,466L626,457L629,456L634,456L639,454L643,454L646,452L646,448L652,445L655,445L665,439L667,436L669,435L674,435L676,433L674,430L672,430L670,427L667,426L668,422L671,419L675,422L680,421L681,419L682,421L688,424L687,430L687,431L692,432L691,435L691,437L694,438L697,440L699,440L702,439L703,433L709,421L711,413L711,409L712,407L712,400L713,392L708,386L706,375L702,372L696,370L692,369L691,368L690,367L685,366L683,366L678,367L670,372L668,372L660,370L656,372L653,374L651,377L650,382L647,388L645,390L634,392L624,392L618,391L614,387L611,386L598,390L597,391L598,380L597,376L595,376L593,371L592,371L588,369L588,368L586,368L582,368L575,364L570,369L566,368L564,371L556,373L555,372L549,373L549,376L544,376L540,378L536,379L534,381L534,387L533,391L535,402L532,403L533,409L534,410L534,416L536,417L536,421L539,425L541,425Z " data-fips="GM13" data-fips-="" data-iso3="DEU" data-name="Sachsen" data-p="SN"/><path d="M507,206L507,206L503,209L500,210L502,212L497,213L491,210L487,212L484,216L485,220L484,224L482,224L479,222L477,222L476,225L469,225L470,227L472,229L473,230L473,230L474,230L479,228L480,228L484,230L487,231L490,230L490,233L493,234L496,237L499,235L503,242L507,244L515,245L520,245L521,247L524,246L527,248L528,252L528,253L526,255L528,263L529,264L527,270L525,272L525,276L523,279L526,279L525,281L530,280L531,282L534,281L532,289L532,290L531,297L530,304L533,309L531,310L531,316L541,327L542,329L545,332L550,332L557,335L560,332L574,340L577,340L586,345L593,343L597,344L594,347L592,352L592,355L594,360L593,362L589,366L588,368L588,369L592,371L593,371L595,376L597,376L598,380L597,391L598,390L611,386L614,387L618,391L624,392L634,392L645,390L647,388L650,382L651,377L653,374L656,372L660,370L668,372L670,372L678,367L683,366L685,366L690,367L690,366L692,360L692,358L690,353L687,351L684,347L684,345L680,341L681,337L684,334L686,328L687,318L687,315L683,309L684,303L683,302L684,297L683,296L677,294L676,293L676,291L672,284L672,280L674,277L676,272L675,270L676,264L670,258L666,257L659,249L650,244L648,242L642,239L644,236L643,229L645,226L649,224L652,220L656,210L655,205L658,197L655,195L654,191L654,189L650,192L646,198L637,197L637,195L642,191L644,188L644,181L637,181L635,183L629,182L625,183L621,177L621,175L618,174L616,172L616,174L618,178L616,178L612,179L609,182L606,186L604,186L602,189L600,196L595,201L590,200L586,202L585,206L584,206L581,203L578,207L572,213L569,213L569,211L563,212L562,211L557,211L556,209L551,208L548,206L542,205L537,205L531,201L524,199L523,197L518,197L515,198L512,204L509,206L508,206L507,206Z M606,263L611,271L616,273L615,278L618,278L622,285L621,286L618,293L617,289L610,287L607,288L604,290L602,290L598,288L594,288L591,287L587,290L584,288L584,286L584,282L587,279L585,277L586,270L590,270L590,266L594,265L606,263Z " data-fips="GM11" data-fips-="GM16" data-iso3="DEU" data-name="Brandenburg" data-p="BE"/><path d="M477,133L475,132L471,135L470,138L473,139L477,133Z M479,130L483,125L479,127L479,130Z M623,118L617,115L615,114L612,109L611,108L609,111L613,118L611,124L616,121L616,125L618,124L621,119L622,119L626,123L627,129L624,129L619,126L619,128L622,132L619,137L617,138L616,141L622,141L628,137L629,137L637,136L636,129L625,119L623,118Z M442,141L443,145L445,146L443,147L442,146L434,151L434,153L435,158L435,163L438,164L446,169L447,172L446,174L447,181L446,183L444,180L441,181L440,183L439,186L436,189L433,190L432,192L430,192L428,200L427,201L431,201L433,201L436,207L438,208L440,210L447,215L454,221L458,221L460,220L464,223L468,223L469,225L476,225L477,222L479,222L481,223L482,224L484,224L485,220L484,216L487,212L491,210L497,213L502,212L500,210L503,209L507,206L508,206L509,206L512,204L515,198L518,197L523,197L524,199L531,201L537,205L542,205L548,206L551,208L556,209L557,211L562,211L563,212L569,211L569,213L572,213L578,207L581,203L584,206L585,206L586,202L590,200L595,201L600,196L602,189L604,186L606,186L609,182L612,179L616,178L618,178L616,174L616,172L618,174L621,175L621,177L625,183L629,182L635,183L637,181L644,181L644,188L642,191L637,195L637,197L646,198L650,192L654,189L652,184L651,179L647,172L646,170L646,164L642,154L640,153L643,150L640,148L638,150L633,150L629,149L626,148L618,142L615,141L615,138L619,134L619,131L617,130L615,127L610,123L612,115L605,111L606,109L600,113L593,115L593,118L592,118L588,111L585,110L583,109L581,105L574,101L570,98L568,96L568,91L565,90L564,87L561,87L557,91L554,95L551,94L550,91L547,93L545,91L534,98L529,105L529,107L527,105L527,105L526,101L529,98L529,96L531,93L533,93L535,94L536,93L539,92L542,89L549,89L558,87L557,86L554,86L552,85L538,86L533,84L530,92L522,105L515,111L514,117L512,118L511,122L511,114L509,116L495,119L490,119L486,121L481,131L477,135L475,145L472,142L469,142L468,140L465,142L462,142L462,138L458,135L451,136L446,139L443,141L442,141Z M570,70L570,70L570,70L570,70Z M570,70L570,69L567,69L566,79L566,83L569,69L570,70Z M583,63L583,59L575,62L574,65L578,64L576,72L577,72L582,67L587,72L592,70L590,72L591,79L586,77L586,75L584,74L582,76L582,73L583,70L579,73L579,76L576,73L571,74L573,78L575,77L575,79L578,80L572,86L574,85L577,89L578,90L573,91L570,95L575,99L576,101L579,103L583,100L582,103L584,104L589,105L588,101L585,102L587,99L592,93L603,91L602,94L605,93L601,96L605,96L606,98L608,92L606,91L602,86L598,86L596,80L600,75L601,73L600,70L598,68L596,68L588,70L586,69L583,66L583,63Z " data-fips="GM12" data-fips-="" data-iso3="DEU" data-name="Mecklenburg-Vorpommern" data-p="MV"/></g></svg>