<?xml version="1.0" encoding="utf-8"?><!DOCTYPE svg  PUBLIC '-//W3C//DTD SVG 1.1//EN'  'http://www.w3.org/Graphics/SVG/1.1/DTD/svg11.dtd'><svg enable_background="new 0 0 1000 604" height="604px" pretty_print="False" style="stroke-linejoin: round; stroke:#000; fill: none;" version="1.1" viewBox="0 0 1000 604" width="1000px" xmlns="http://www.w3.org/2000/svg" xmlns:xlink="http://www.w3.org/1999/xlink"><defs><style type="text/css"><![CDATA[path { fill-rule: evenodd; }]]></style></defs><metadata><views><view h="604.816027229" padding="0" w="1000"><proj id="laea-usa" lat0="45" lon0="-100"/><bbox h="321.76" w="532.88" x="746.23" y="918.78"/></view></views></metadata><g class="" id="layer0"><path d="M625,251L623,248L621,246L594,250L578,251L568,252L551,252L551,253L552,254L555,260L556,260L558,263L558,265L559,265L561,267L567,269L567,271L566,271L564,276L567,279L569,283L570,284L573,284L573,285L575,325L576,334L576,345L590,344L601,344L645,340L659,338L660,340L661,340L661,342L656,350L669,348L669,346L671,345L668,343L671,341L670,341L671,340L671,338L671,336L670,336L672,335L672,336L672,336L673,336L673,336L673,333L676,334L677,332L676,330L677,325L677,324L676,325L672,324L672,322L669,318L670,317L668,309L665,308L665,307L661,305L660,306L659,304L654,301L651,299L651,296L652,291L653,289L653,287L654,284L647,282L646,284L644,283L643,280L643,279L642,276L640,274L636,271L633,269L630,266L629,264L628,263L628,262L627,259L626,252L627,251L625,251Z " data-key="MO" data-label="Missouri"/><path d="M403,58L384,56L371,55L355,54L329,51L314,49L295,46L269,42L245,37L235,35L230,59L232,64L233,66L234,71L232,72L234,73L235,76L238,77L238,79L240,81L241,84L242,86L242,89L246,91L246,93L250,94L248,99L245,108L246,111L244,112L243,113L242,116L245,121L247,119L249,119L253,117L253,118L254,120L254,124L255,127L258,133L257,136L259,139L260,139L262,140L263,148L265,150L266,148L272,148L273,149L275,147L277,148L282,148L282,149L284,148L287,149L288,146L290,145L292,149L295,152L296,140L310,142L311,142L346,146L362,147L394,150L410,151L410,151L411,129L412,113L413,100L414,83L415,58L403,58Z " data-key="MT" data-label="Montana"/><path d="M535,208L532,206L532,205L531,205L527,203L525,203L523,201L516,202L513,201L511,203L509,203L508,202L502,198L489,198L464,198L448,198L422,197L408,197L407,218L406,234L406,243L417,243L431,244L440,244L440,259L440,267L453,267L464,268L494,268L512,267L533,267L547,266L559,265L558,265L558,263L556,260L555,260L552,254L551,253L551,252L550,251L548,249L549,248L549,245L548,243L548,239L547,235L547,232L544,230L543,227L544,225L542,222L543,221L540,219L539,216L539,215L537,212L538,209L537,209L535,208Z " data-key="NE" data-label="Nebraska"/><path d="M227,199L223,198L216,197L204,195L186,191L182,190L166,187L157,185L145,182L137,180L133,194L121,248L130,261L151,291L170,317L191,346L200,359L202,355L202,352L201,348L202,345L201,340L202,339L201,336L201,334L204,333L209,334L211,337L212,337L215,334L218,315L220,300L225,270L229,242L234,216L236,201L227,199Z " data-key="NV" data-label="Nevada"/><path d="M933,63L931,63L930,65L930,67L930,70L931,73L930,77L933,80L933,82L930,87L928,89L927,90L929,94L929,99L929,101L928,104L928,107L930,119L931,120L930,122L931,124L932,126L933,126L942,124L952,120L956,114L958,114L958,113L958,109L956,108L955,107L955,106L951,103L950,99L940,76L934,62L933,63Z " data-key="NH" data-label="New Hampshire"/><path d="M905,171L905,174L902,180L904,182L903,187L904,189L906,189L910,193L915,196L913,197L909,203L909,204L907,206L905,208L905,209L904,212L905,213L905,216L907,218L908,217L913,219L918,219L919,221L919,225L920,224L921,218L923,215L923,213L924,211L925,210L924,208L927,205L927,202L926,197L927,195L926,188L925,187L920,186L920,182L922,182L922,180L923,173L922,173L914,171L907,169L905,171Z " data-key="NJ" data-label="New Jersey"/><path d="M402,335L383,334L349,332L349,332L329,330L309,328L307,351L303,388L297,458L313,460L314,449L329,451L347,452L345,450L346,447L363,448L397,450L416,451L417,428L418,405L420,347L420,347L421,336L402,335Z " data-key="NM" data-label="New Mexico"/><path d="M922,182L920,182L920,186L922,182Z M948,160L943,166L941,167L935,169L935,171L933,171L929,174L929,173L926,175L926,177L923,182L924,183L930,180L930,180L936,175L937,175L939,173L941,173L943,170L946,167L947,168L952,163L951,162L948,164L946,167L945,167L946,165L947,161L948,160Z M895,83L890,85L879,88L873,94L868,104L868,106L866,109L864,111L864,112L862,114L861,117L858,129L847,132L828,137L821,144L824,147L826,152L827,153L828,154L830,157L830,158L827,161L827,164L824,166L823,168L818,173L820,179L837,174L854,170L875,163L892,158L894,161L898,161L900,165L901,167L906,168L907,169L914,171L922,173L923,173L922,180L924,177L925,176L925,176L927,172L927,172L925,170L928,166L926,164L924,156L922,147L921,146L920,130L919,129L915,113L913,111L911,111L911,108L908,102L908,99L908,97L907,95L907,93L904,89L904,85L903,85L902,81L895,83Z " data-key="NY" data-label="New York"/><path d="M895,353L895,355L896,355L895,353Z M925,296L926,297L926,297L925,296Z M918,285L919,286L921,289L922,290L924,294L924,293L921,288L918,283L918,283L918,285Z M916,285L918,285L917,283L916,284L916,284L915,284L916,285Z M814,309L814,311L814,314L811,317L810,321L807,321L804,323L802,326L801,327L799,325L794,329L795,331L794,333L792,333L785,340L780,341L778,342L776,345L777,348L776,349L772,350L772,356L785,353L785,353L795,351L800,348L801,348L807,343L809,343L832,339L833,342L835,340L838,343L838,346L859,341L873,350L884,357L891,354L894,354L896,346L898,342L901,338L906,332L910,330L914,329L915,327L917,328L918,325L920,321L919,320L918,322L917,320L916,321L913,322L912,325L909,324L907,322L911,324L914,320L914,318L913,318L913,316L915,316L914,314L910,314L910,313L912,313L911,310L912,310L912,312L920,312L922,310L923,306L926,303L926,301L924,297L922,296L920,299L921,304L920,303L918,297L916,297L913,299L912,299L908,301L907,299L909,299L911,298L913,295L914,295L917,293L919,291L921,291L918,288L917,287L915,285L913,285L900,288L900,289L871,297L853,301L839,305L820,308L814,309Z " data-key="NC" data-label="North Carolina"/><path d="M506,59L484,60L446,59L427,59L415,58L414,83L413,100L412,113L411,129L428,129L444,130L469,130L503,130L515,130L532,129L531,127L531,121L529,118L527,113L527,107L526,105L526,102L525,95L525,91L524,87L522,85L521,81L520,79L521,75L520,73L520,68L521,66L519,63L518,59L506,59Z " data-key="ND" data-label="North Dakota"/><path d="M829,156L812,171L794,180L788,186L777,197L773,198L765,195L763,191L763,187L763,185L764,184L762,187L762,193L761,195L759,199L750,201L737,204L738,212L741,226L744,243L747,264L748,263L751,264L753,262L755,264L756,264L759,268L762,269L765,268L768,270L770,271L771,268L778,269L780,266L782,265L786,269L789,270L789,271L790,271L794,269L794,267L796,265L794,261L796,255L799,257L801,256L800,251L801,249L803,248L803,246L805,244L806,246L809,244L812,238L813,237L814,235L813,234L813,230L814,230L814,226L815,220L814,217L812,214L813,213L814,213L812,202L807,182L811,180L818,173L823,168L824,166L827,164L827,161L830,158L830,157L828,154L829,156Z M760,199L759,199L760,199L760,199Z M763,190L763,190L763,190L763,190Z M763,190L763,187L763,188L763,190Z " data-key="OH" data-label="Ohio"/><path d="M567,334L536,336L518,336L503,337L459,337L438,337L421,336L420,347L436,348L466,349L476,349L476,393L477,393L482,397L484,398L484,397L488,397L488,396L491,398L492,401L496,401L498,402L501,403L502,402L504,403L505,404L508,402L511,403L513,406L516,406L516,408L517,409L519,408L521,406L523,408L528,408L530,407L531,409L530,411L532,412L532,410L536,406L536,408L540,409L540,407L542,407L542,408L545,410L547,412L548,410L550,410L555,407L557,408L561,405L562,407L567,406L568,404L571,406L573,406L574,408L579,410L580,410L582,412L583,411L582,398L582,386L582,370L580,362L576,345L576,334L567,334Z " data-key="OK" data-label="Oklahoma"/><path d="M105,70L103,69L103,68L101,69L100,67L99,72L98,73L97,77L97,79L95,83L95,86L90,96L89,98L88,102L83,114L80,121L77,126L74,130L72,133L70,138L68,140L68,142L69,145L69,147L67,149L66,154L66,157L68,160L82,165L98,169L120,176L137,180L145,182L157,185L166,187L182,190L186,191L189,177L195,150L197,146L197,144L198,142L194,139L195,134L199,129L201,128L203,125L204,123L206,121L208,117L212,111L211,107L209,105L207,103L207,101L200,99L175,93L174,94L166,93L165,93L163,94L158,93L154,95L150,94L148,92L143,94L140,93L139,93L138,92L134,89L130,88L128,89L122,90L116,87L115,86L115,82L116,75L114,73L112,72L110,72L107,68L105,70Z M108,70L109,72L108,71L108,70Z M121,90L121,89L121,90L121,90Z " data-key="OR" data-label="Oregon"/><path d="M811,180L810,180L809,181L809,181L807,182L812,202L814,213L818,228L819,234L837,229L854,225L873,219L886,215L896,213L900,211L901,209L903,207L905,208L907,206L909,204L909,203L913,197L915,196L910,193L906,189L904,189L903,187L904,182L902,180L905,174L905,171L907,169L906,168L901,167L900,165L898,161L894,161L892,158L875,163L854,170L837,174L820,179L818,173L811,180Z " data-key="PA" data-label="Pennsylvania"/><path d="M962,146L960,144L961,147L962,146Z M962,146L963,147L964,146L962,142L961,142L962,146Z M949,138L952,147L952,147L954,152L953,153L954,153L956,153L959,150L958,144L961,143L960,142L958,140L958,139L953,137L949,138Z " data-key="RI" data-label="Rhode Island"/><path d="M849,409L849,409L849,409L849,409Z M851,403L852,406L853,404L851,403Z M852,398L852,399L853,403L856,399L856,398L853,399L852,398Z M850,397L849,399L851,402L852,400L850,397Z M857,393L857,396L858,397L860,394L857,393Z M861,390L860,391L859,393L861,390Z M861,389L862,391L861,394L863,393L861,389Z M795,351L795,353L791,358L792,359L795,360L798,362L801,362L804,366L806,369L808,371L809,373L815,375L818,379L819,379L824,382L824,384L828,386L828,388L833,390L834,391L838,399L841,400L843,403L845,409L848,409L850,405L851,403L849,401L849,399L850,397L852,398L855,397L858,393L861,389L865,391L866,388L867,386L870,384L869,383L871,381L872,381L876,376L875,374L876,371L879,364L881,361L884,358L884,357L873,350L859,341L838,346L838,343L835,340L833,342L832,339L809,343L807,343L801,348L800,348L795,351Z " data-key="SC" data-label="South Carolina"/><path d="M515,130L503,130L469,130L444,130L428,129L411,129L410,151L410,151L409,169L409,180L408,197L422,197L448,198L464,198L489,198L502,198L508,202L509,203L511,203L513,201L516,202L523,201L525,203L527,203L531,205L532,205L532,206L535,208L537,209L535,205L535,201L536,198L535,196L536,194L536,192L534,192L535,188L533,186L536,185L535,177L534,144L533,142L530,142L527,137L527,136L530,134L531,132L532,129L515,130Z " data-key="SD" data-label="South Dakota"/><path d="M778,317L749,322L744,323L738,324L726,325L716,327L701,329L701,328L697,329L698,332L698,333L674,336L673,336L672,336L671,336L671,338L671,340L670,341L671,341L668,343L671,345L669,346L669,348L669,349L670,350L668,351L669,352L666,354L665,356L667,357L664,360L662,364L662,366L664,367L662,370L662,372L661,372L660,373L679,370L686,369L700,368L700,367L711,366L724,364L735,362L748,360L753,359L766,357L772,356L772,350L776,349L777,348L776,345L778,342L780,341L785,340L792,333L794,333L795,331L794,329L799,325L801,327L802,326L804,323L807,321L810,321L811,317L814,314L814,311L814,309L809,310L809,310L794,314L785,315L778,317L778,317Z " data-key="TN" data-label="Tennessee"/><path d="M550,533L549,535L544,538L550,535L550,533Z M601,501L599,498L601,496L603,493L603,490L603,487L602,486L602,481L604,478L605,472L604,470L606,470L604,466L601,460L600,460L598,452L594,448L593,437L592,425L591,412L588,413L585,413L583,411L582,412L580,410L579,410L574,408L573,406L571,406L568,404L567,406L562,407L561,405L557,408L555,407L550,410L548,410L547,412L545,410L542,408L542,407L540,407L540,409L536,408L536,406L532,410L532,412L530,411L531,409L530,407L528,408L523,408L521,406L519,408L517,409L516,408L516,406L513,406L511,403L508,402L505,404L504,403L502,402L501,403L498,402L496,401L492,401L491,398L488,396L488,397L484,397L484,398L482,397L477,393L476,393L476,349L466,349L436,348L420,347L420,347L418,405L417,428L416,451L397,450L363,448L346,447L345,450L347,452L348,453L350,454L353,460L356,462L358,463L361,467L365,470L365,472L370,476L372,476L378,482L379,486L381,490L381,494L382,498L384,502L384,503L388,507L390,507L392,510L395,512L399,514L401,515L404,516L406,519L410,520L413,520L415,516L417,515L418,512L418,512L419,508L422,504L425,502L427,503L429,500L433,502L440,502L442,503L447,503L449,506L451,506L451,509L455,510L456,512L460,515L460,517L462,518L463,522L465,525L466,529L468,530L468,531L469,534L472,539L474,540L478,546L479,548L480,549L482,552L485,552L486,554L487,556L486,559L488,563L488,566L491,570L494,575L494,577L495,578L496,580L501,581L506,583L509,584L510,586L514,588L517,588L521,587L525,588L529,591L532,592L532,591L535,589L535,587L534,587L533,585L532,580L531,578L529,570L529,567L527,568L528,564L530,563L530,560L527,561L526,560L526,559L528,558L530,558L533,550L531,549L530,547L528,546L533,546L534,547L537,543L536,541L535,542L534,541L537,538L538,540L540,540L543,537L542,536L542,533L544,533L545,535L550,532L547,529L545,527L546,526L546,527L549,528L555,528L558,527L559,527L560,526L563,525L565,524L571,521L574,518L575,514L580,510L580,508L577,505L578,502L580,503L581,500L584,501L583,506L587,504L588,506L598,501L601,501Z " data-key="TX" data-label="Texas"/><path d="M278,207L268,206L251,204L240,202L236,201L234,216L229,242L225,270L220,300L218,315L229,317L254,321L269,323L292,326L309,328L310,316L312,301L312,299L318,246L319,236L297,234L284,232L285,221L287,209L278,207Z " data-key="UT" data-label="Utah"/><path d="M932,126L931,124L930,122L931,120L930,119L928,107L928,104L929,101L929,99L929,94L927,90L928,89L930,87L933,82L933,80L930,77L931,73L930,70L918,75L913,77L902,81L903,85L904,85L904,89L907,93L907,95L908,97L908,99L908,102L911,108L911,111L913,111L915,113L919,129L920,130L933,126L932,126Z " data-key="VT" data-label="Vermont"/><path d="M912,251L914,253L912,255L911,260L911,266L912,269L913,271L913,266L918,250L917,249L918,248L913,249L913,250L912,251Z M869,235L858,230L859,232L858,235L858,237L855,243L854,244L853,248L850,247L848,257L847,258L844,258L842,256L840,255L840,261L839,263L838,266L837,270L835,274L833,279L835,280L833,282L834,283L831,285L831,284L827,288L825,287L825,289L824,290L819,293L816,291L815,293L813,295L811,295L809,294L808,294L806,292L804,289L799,297L795,299L793,301L793,303L791,305L791,307L788,309L787,312L781,315L778,317L785,315L794,314L809,310L809,310L814,309L820,308L839,305L853,301L871,297L900,289L900,288L913,285L914,284L915,284L915,284L916,284L915,282L916,280L918,283L918,283L915,279L913,275L912,276L907,276L908,278L905,279L905,277L901,276L901,274L905,275L906,277L908,275L908,273L904,271L905,269L903,268L904,267L906,268L906,265L904,264L904,263L900,263L896,259L898,259L900,262L904,261L903,257L895,251L891,252L889,251L887,249L887,248L884,250L882,250L881,247L882,243L883,243L885,240L884,237L883,236L883,236L882,236L882,236L880,235L878,234L875,234L874,231L872,230L869,230L869,235Z " data-key="VA" data-label="Virginia"/><path d="M121,89L121,90L121,90L121,89Z M135,24L131,28L133,30L132,33L134,36L136,36L136,34L134,31L133,27L136,27L135,24Z M129,17L128,20L130,21L130,19L129,17Z M133,16L131,18L132,19L135,18L133,16Z M203,28L191,25L159,17L148,14L137,10L135,12L136,15L139,17L138,19L139,21L137,22L137,24L135,22L134,24L137,27L137,33L138,35L136,36L133,42L134,44L132,44L132,49L129,49L127,52L125,53L121,51L123,48L124,51L125,49L128,50L130,44L130,43L130,40L132,40L133,37L130,38L128,40L125,41L127,37L131,36L129,30L127,30L126,28L121,28L117,25L112,23L108,19L105,16L102,20L102,26L104,31L104,35L103,40L103,42L103,45L102,50L103,48L103,52L102,51L102,55L104,57L103,58L103,60L101,64L101,67L105,68L107,68L110,72L112,72L114,73L116,75L115,82L115,86L116,87L122,90L128,89L130,88L134,89L138,92L139,93L140,93L143,94L148,92L150,94L154,95L158,93L163,94L165,93L166,93L174,94L175,93L200,99L207,101L207,99L208,97L207,92L207,90L212,69L220,32L203,28Z " data-key="WA" data-label="Washington"/><path d="M813,213L812,214L814,217L815,220L814,226L814,230L813,230L813,234L814,235L813,237L812,238L809,244L806,246L805,244L803,246L803,248L801,249L800,251L801,256L799,257L796,255L794,261L796,265L794,267L794,269L790,271L789,271L790,275L790,278L793,281L793,282L797,285L798,287L800,288L803,289L804,289L806,292L808,294L809,294L811,295L813,295L815,293L816,291L819,293L824,290L825,289L825,287L827,288L831,284L831,285L834,283L833,282L835,280L833,279L835,274L837,270L838,266L839,263L840,261L840,255L842,256L844,258L847,258L848,257L850,247L853,248L854,244L855,243L858,237L858,235L859,232L858,230L869,235L869,230L869,229L865,225L866,224L863,225L859,224L858,226L857,226L855,229L852,230L849,229L847,233L845,233L842,238L840,241L837,229L819,234L818,228L814,213L813,213Z " data-key="WV" data-label="West Virginia"/><path d="M603,106L603,106L600,106L600,108L598,108L600,122L594,125L593,127L592,129L591,130L591,134L593,134L595,151L594,153L599,157L602,156L605,159L607,160L612,165L616,167L618,168L622,173L622,176L623,179L624,182L626,184L625,187L628,196L630,197L634,198L635,201L645,199L656,198L667,197L683,195L683,191L683,187L681,186L681,184L680,183L680,181L679,177L680,172L680,170L681,167L680,162L681,157L682,154L681,152L682,147L683,143L683,140L681,139L678,141L677,145L674,147L674,148L673,148L673,144L674,140L675,138L677,137L678,134L676,134L676,129L675,128L673,129L672,127L673,122L669,120L667,119L667,118L660,115L658,116L654,116L650,114L634,112L631,108L628,107L628,106L628,107L626,106L623,105L622,106L621,105L621,102L621,100L621,99L618,99L616,101L615,101L613,103L606,106L603,107L603,106Z M687,130L687,128L685,129L685,131L683,132L683,135L681,138L682,140L684,140L684,139L685,134L686,133L686,132L687,130Z " data-key="WI" data-label="Wisconsin"/><path d="M394,150L362,147L346,146L311,142L310,142L296,140L295,152L292,169L291,179L289,197L287,209L285,221L284,232L297,234L319,236L330,237L346,239L371,241L390,242L404,243L406,243L406,234L407,218L408,197L409,180L409,169L410,151L394,150Z " data-key="WY" data-label="Wyoming"/><path d="M735,362L724,364L711,366L700,367L700,368L701,369L702,370L702,396L703,414L703,439L709,473L709,473L714,473L714,469L716,465L718,468L718,472L722,474L724,475L726,474L728,470L728,469L728,464L725,463L722,460L723,457L746,454L758,452L774,449L773,447L771,445L771,443L771,437L769,434L768,430L769,426L769,424L772,420L769,419L770,416L767,413L765,409L764,407L753,373L750,364L748,360L735,362Z " data-key="AL" data-label="Alabama"/><path d="M12,596L12,595L12,596L12,596Z M5,591L4,592L6,593L5,591Z M12,594L9,596L12,595L12,594Z M14,594L13,595L14,595L14,594Z M26,599L24,599L24,599L26,599Z M32,600L31,601L32,601L32,600Z M24,596L20,598L23,599L24,597L24,596Z M45,601L44,602L44,602L45,601Z M49,603L55,601L55,600L52,600L52,601L49,603Z M64,600L63,600L64,601L64,600Z M62,598L59,599L60,600L55,602L60,602L62,600L63,600L62,598Z M65,598L64,598L66,599L65,598Z M80,600L80,600L81,600L80,600Z M217,591L218,592L218,591L217,591Z M83,597L82,597L83,598L83,597Z M224,588L223,589L223,590L224,588Z M77,595L73,595L71,598L74,597L77,598L77,595L77,595Z M96,597L95,598L96,599L96,597Z M215,589L215,591L217,593L217,592L215,589Z M222,587L222,589L223,589L222,587Z M94,596L93,598L94,598L94,596Z M214,589L213,589L214,590L214,589Z M91,595L91,597L91,596L91,595Z M220,586L221,588L221,588L220,586Z M212,589L212,590L213,589L212,589Z M212,588L212,588L212,589L212,588Z M212,586L211,586L212,586L212,586Z M114,595L113,595L113,596L114,595Z M208,586L208,587L209,587L208,586Z M221,582L220,586L222,587L224,584L221,582Z M220,582L220,582L220,582L220,582Z M215,581L215,583L217,583L215,581Z M210,582L211,583L211,586L212,584L213,586L219,591L221,591L219,588L217,587L217,585L212,582L210,582Z M215,580L218,582L217,580L215,580Z M121,590L120,590L121,591L121,590Z M212,578L213,580L214,579L212,578Z M207,579L209,582L209,579L207,579Z M208,577L210,582L212,581L212,580L211,577L208,577Z M125,586L125,587L126,587L125,586Z M201,576L201,578L206,585L205,581L201,576Z M124,580L125,581L125,581L124,580Z M128,580L127,580L127,581L128,580Z M125,580L124,582L123,581L119,584L119,587L122,588L123,587L126,586L126,584L129,585L128,581L125,580Z M125,579L125,580L126,580L125,579Z M198,571L195,573L198,577L200,577L199,575L202,576L200,574L202,572L198,571Z M201,569L204,576L205,579L207,575L204,572L204,570L201,569Z M128,577L126,579L127,580L129,579L128,577Z M129,576L129,576L128,577L129,576Z M95,570L94,571L94,572L95,570Z M150,563L148,566L147,567L150,563Z M77,554L74,555L72,554L72,555L74,557L76,558L78,558L77,554Z M152,562L152,564L154,563L152,562Z M148,562L147,564L148,565L148,562Z M155,561L153,562L153,562L155,561Z M146,560L146,561L146,561L146,560Z M146,559L146,560L147,560L146,559Z M96,534L95,535L95,535L96,534Z M66,524L64,527L67,527L70,531L70,532L74,531L70,528L70,526L66,524Z M124,484L125,482L123,481L120,483L116,483L111,486L107,486L101,494L101,494L94,493L93,496L92,497L95,500L98,504L98,508L102,510L103,510L103,512L101,510L103,516L102,517L96,515L95,511L88,513L84,514L83,517L86,519L84,520L85,524L90,526L94,527L97,529L102,526L103,528L102,531L102,534L100,536L97,535L93,538L90,536L88,536L86,540L84,540L82,544L80,546L80,548L82,550L82,553L80,554L82,556L83,560L87,561L91,560L92,565L91,570L92,571L97,569L100,571L102,574L103,574L104,571L106,574L110,573L108,576L106,581L101,585L101,586L94,588L92,591L89,590L83,593L81,595L84,596L86,593L90,595L95,593L103,590L101,590L106,588L106,587L112,585L111,584L113,583L115,581L121,579L122,577L124,573L122,572L122,570L126,568L126,566L128,566L130,562L133,558L137,557L142,559L136,559L134,560L133,564L132,565L133,568L131,571L134,572L139,568L140,568L142,566L144,566L146,564L147,562L145,560L147,559L152,557L157,562L159,561L159,563L162,563L163,564L167,563L173,563L173,564L176,565L181,562L180,566L186,568L188,570L196,570L194,568L197,569L197,571L200,571L201,570L198,565L202,569L205,570L209,577L212,577L213,578L217,580L218,583L218,584L221,582L224,584L224,587L225,589L226,589L228,585L226,582L224,579L217,578L216,577L215,575L207,567L200,563L199,563L198,561L196,560L192,566L189,566L179,560L178,561L174,561L163,492L157,489L153,491L145,490L145,489L137,488L136,488L133,486L133,485L127,484L127,483L124,484Z " data-key="AK" data-label="Alaska"/><path d="M292,326L269,323L254,321L229,317L218,315L215,334L212,337L211,337L209,334L204,333L201,334L201,336L202,339L201,340L202,345L201,348L202,352L202,355L200,359L199,362L202,366L203,372L204,373L207,376L204,379L201,380L200,382L198,384L198,389L197,392L194,395L192,395L193,398L192,402L192,404L195,404L196,406L195,409L194,411L190,411L188,413L187,416L222,435L257,453L275,456L297,458L303,388L307,351L309,328L292,326Z " data-key="AZ" data-label="Arizona"/><path d="M656,350L661,342L661,340L660,340L659,338L645,340L601,344L590,344L576,345L580,362L582,370L582,386L582,398L583,411L585,413L588,413L591,412L592,425L601,424L620,423L629,422L648,420L649,419L649,415L647,411L648,410L646,407L647,407L646,405L647,402L649,402L648,400L649,399L648,398L649,396L651,396L651,395L650,394L652,393L652,390L653,390L653,388L656,387L656,382L657,381L658,377L660,376L661,375L660,373L661,372L662,372L662,370L664,367L662,366L662,364L664,360L667,357L665,356L666,354L669,352L668,351L670,350L669,349L669,348L656,350Z " data-key="AR" data-label="Arkansas"/><path d="M117,389L118,393L120,395L121,394L117,389Z M119,379L121,381L121,383L124,384L123,381L119,379Z M95,360L91,360L93,363L95,362L95,360Z M97,360L98,362L100,363L104,363L97,360Z M120,176L98,169L82,165L68,160L67,163L65,165L67,166L67,170L66,174L64,178L63,183L61,186L59,189L57,190L54,194L54,197L54,199L58,206L60,211L60,214L59,218L57,222L57,230L56,232L60,238L61,242L63,245L64,249L66,252L63,256L64,256L66,257L71,263L73,256L74,256L78,260L80,258L81,260L78,260L77,259L74,259L73,261L74,262L73,264L76,268L76,272L74,272L74,271L72,269L72,266L72,263L70,264L70,266L69,269L69,270L70,274L69,276L70,280L73,285L76,285L77,289L76,292L75,293L74,293L73,296L73,300L77,308L78,309L78,311L80,314L80,317L82,319L84,323L86,324L87,327L85,328L86,330L89,332L89,333L88,337L88,339L87,341L88,342L87,346L89,347L89,349L95,350L98,350L100,352L105,353L107,355L110,358L111,361L118,366L123,366L124,369L125,371L124,373L126,375L130,375L132,379L140,388L142,392L142,397L142,401L144,403L144,405L143,406L172,409L190,411L194,411L195,409L196,406L195,404L192,404L192,402L193,398L192,395L194,395L197,392L198,389L198,384L200,382L201,380L204,379L207,376L204,373L203,372L202,366L199,362L200,359L191,346L170,317L151,291L130,261L121,248L133,194L137,180L120,176Z " data-key="CA" data-label="California"/><path d="M319,236L318,246L312,299L312,301L310,316L309,328L329,330L349,332L349,332L383,334L402,335L421,336L438,337L439,319L439,307L439,289L440,277L440,267L440,259L440,244L431,244L417,243L406,243L404,243L390,242L371,241L346,239L330,237L319,236Z " data-key="CO" data-label="Colorado"/><path d="M949,138L934,143L922,147L924,156L926,164L928,166L925,170L927,172L929,169L930,168L934,165L936,162L945,158L948,156L949,156L953,153L953,153L954,152L952,147L952,147L949,138L949,138Z " data-key="CT" data-label="Connecticut"/><path d="M905,208L903,207L901,209L900,211L903,220L909,239L919,237L920,236L920,234L918,233L918,229L916,229L913,227L910,224L910,221L908,219L907,218L907,218L905,216L905,213L904,212L905,209L905,208Z " data-key="DE" data-label="Delaware"/><path d="M882,236L883,236L883,236L884,237L884,238L886,236L886,236L883,234L883,234L882,236L882,236Z " data-key="DC" data-label="District of Columbia"/><path d="M884,569L886,568L889,563L890,559L889,560L889,561L886,568L884,569Z M846,536L848,540L849,537L846,536Z M774,449L758,452L746,454L723,457L722,460L725,463L728,464L728,469L728,469L730,470L729,472L731,471L733,466L734,467L734,468L736,467L738,468L737,469L744,468L747,465L748,466L751,465L753,465L754,467L747,467L746,468L750,468L755,469L759,470L762,472L761,469L760,469L760,468L761,468L763,469L762,470L764,472L769,475L772,477L772,480L779,478L781,476L781,477L787,472L789,471L791,472L791,471L789,471L790,468L792,467L796,466L805,469L807,473L810,474L811,477L814,478L818,481L819,484L824,483L827,487L827,489L828,492L829,492L829,497L828,504L828,512L831,514L833,515L833,512L830,510L832,508L834,512L836,512L835,509L837,510L837,511L836,513L833,520L835,521L839,529L842,533L845,530L848,531L848,535L850,540L853,540L856,548L863,552L865,551L866,552L867,554L868,554L870,559L873,562L876,561L878,563L878,564L876,564L873,562L872,565L875,566L879,564L882,564L884,563L887,562L890,557L889,555L889,552L890,548L890,546L891,545L891,539L890,530L889,525L888,521L885,516L884,516L881,511L879,506L871,495L866,488L868,487L868,489L869,492L870,492L870,489L871,486L868,485L860,476L857,469L851,459L845,446L845,442L843,442L842,442L835,441L833,443L833,446L834,447L834,452L832,453L831,452L830,448L778,455L776,454L776,451L774,449Z " data-key="FL" data-label="Florida"/><path d="M844,428L843,430L845,430L844,428Z M846,422L844,424L845,426L846,422L846,422Z M846,415L845,416L846,418L848,415L846,415Z M847,409L848,412L849,411L847,409Z M795,351L785,353L785,353L772,356L766,357L753,359L748,360L750,364L753,373L764,407L765,409L767,413L770,416L769,419L772,420L769,424L769,426L768,430L769,434L771,437L771,443L771,445L773,447L774,449L776,451L776,454L778,455L830,448L831,452L832,453L834,452L834,447L833,446L833,443L835,441L842,442L843,442L844,441L844,437L842,436L843,434L842,431L844,427L843,425L847,420L846,413L847,414L848,412L847,409L848,409L845,409L843,403L841,400L838,399L834,391L833,390L828,388L828,386L824,384L824,382L819,379L818,379L815,375L809,373L808,371L806,369L804,366L801,362L798,362L795,360L792,359L791,358L795,353L795,351Z " data-key="GA" data-label="Georgia"/><path d="M351,558L350,560L352,564L350,568L347,570L349,573L351,580L350,585L351,587L356,589L359,584L364,581L371,579L374,576L374,575L370,572L370,570L368,570L368,568L365,565L360,562L357,561L351,558Z M336,550L333,551L333,553L336,552L336,550Z M327,543L325,543L326,545L327,547L330,547L331,546L329,543L327,543Z M335,540L333,544L335,546L338,546L338,550L345,550L348,548L348,546L346,545L343,543L340,543L338,544L335,540Z M321,536L320,539L324,539L329,540L333,538L329,537L321,536Z M305,525L302,528L300,528L300,530L303,534L307,534L309,535L312,534L308,531L308,529L305,525Z M260,517L257,520L258,523L259,521L261,520L260,517Z M275,512L271,512L268,514L267,516L267,518L270,520L274,521L276,519L277,515L277,513L275,512Z " data-key="HI" data-label="Hawaii"/><path d="M292,149L290,145L288,146L287,149L284,148L282,149L282,148L277,148L275,147L273,149L272,148L266,148L265,150L263,148L262,140L260,139L259,139L257,136L258,133L255,127L254,124L254,120L253,118L253,117L249,119L247,119L245,121L242,116L243,113L244,112L246,111L245,108L248,99L250,94L246,93L246,91L242,89L242,86L241,84L240,81L238,79L238,77L235,76L234,73L232,72L234,71L233,66L232,64L230,59L235,35L220,32L212,69L207,90L207,92L208,97L207,99L207,101L207,103L209,105L211,107L212,111L208,117L206,121L204,123L203,125L201,128L199,129L195,134L194,139L198,142L197,144L197,146L195,150L189,177L186,191L204,195L216,197L223,198L227,199L236,201L240,202L251,204L268,206L278,207L287,209L289,197L291,179L292,169L295,152L292,149Z " data-key="ID" data-label="Idaho"/><path d="M683,195L667,197L656,198L645,199L635,201L635,201L640,204L640,206L645,209L645,211L645,216L643,217L643,221L641,223L639,223L638,225L634,225L631,227L630,230L634,234L634,238L632,240L632,243L631,245L627,247L628,251L627,251L626,252L627,259L628,262L628,263L629,264L630,266L633,269L636,271L640,274L642,276L643,279L643,280L644,283L646,284L647,282L654,284L653,287L653,289L652,291L651,296L651,299L654,301L659,304L660,306L661,305L665,307L665,308L668,309L670,317L669,318L672,322L672,324L676,325L677,324L676,323L680,318L684,320L689,321L689,319L687,316L688,313L691,311L694,310L693,307L694,304L695,303L694,297L695,296L695,294L695,291L696,291L698,288L699,282L701,280L700,277L700,275L697,271L698,269L697,267L698,266L696,248L695,238L691,211L689,210L687,204L685,203L684,200L683,195L683,195Z " data-key="IL" data-label="Illinois"/><path d="M737,203L724,205L709,208L702,209L699,211L696,213L693,213L691,212L691,211L695,238L696,248L698,266L697,267L698,269L697,271L700,275L700,277L701,280L699,282L698,288L696,291L695,291L695,294L695,296L694,297L695,303L696,303L697,302L696,301L700,300L701,301L702,301L702,298L703,299L705,298L711,301L712,300L712,298L716,295L718,297L721,296L721,293L725,290L725,292L727,293L731,292L731,288L733,286L734,286L735,284L736,281L737,280L739,278L738,275L738,274L741,273L743,274L745,272L748,271L749,269L747,268L747,266L746,265L747,264L744,243L741,226L738,212L737,204L737,203Z " data-key="IN" data-label="Indiana"/><path d="M615,180L589,182L569,184L555,184L536,185L533,186L535,188L534,192L536,192L536,194L535,196L536,198L535,201L535,205L537,209L538,209L537,212L539,215L539,216L540,219L543,221L542,222L544,225L543,227L544,230L547,232L547,235L548,239L548,243L549,245L549,248L548,249L550,251L551,252L568,252L578,251L594,250L621,246L623,248L625,251L627,251L628,251L627,247L631,245L632,243L632,240L634,238L634,234L630,230L631,227L634,225L638,225L639,223L641,223L643,221L643,217L645,216L645,211L645,209L640,206L640,204L635,201L635,201L634,198L630,197L628,196L625,187L626,184L624,182L623,179L615,180Z " data-key="IA" data-label="Iowa"/><path d="M547,266L533,267L512,267L494,268L464,268L453,267L440,267L440,277L439,289L439,307L439,319L438,337L459,337L503,337L518,336L536,336L567,334L576,334L575,325L573,285L573,284L570,284L569,283L567,279L564,276L566,271L567,271L567,269L561,267L559,265L547,266Z " data-key="KS" data-label="Kansas"/><path d="M671,336L672,336L672,336L672,335L670,336L671,336Z M789,270L786,269L782,265L780,266L778,269L771,268L770,271L768,270L765,268L762,269L759,268L756,264L755,264L753,262L751,264L748,263L747,264L746,265L747,266L747,268L749,269L748,271L745,272L743,274L741,273L738,274L738,275L739,278L737,280L736,281L735,284L734,286L733,286L731,288L731,292L727,293L725,292L725,290L721,293L721,296L718,297L716,295L712,298L712,300L711,301L705,298L703,299L702,298L702,301L701,301L700,300L696,301L697,302L696,303L695,303L694,304L693,307L694,310L691,311L688,313L687,316L689,319L689,321L684,320L680,318L676,323L677,324L677,325L676,330L677,332L676,334L673,333L673,336L673,336L674,336L698,333L698,332L697,329L701,328L701,329L716,327L726,325L738,324L744,323L749,322L778,317L778,317L781,315L787,312L788,309L791,307L791,305L793,303L793,301L795,299L799,297L804,289L803,289L800,288L798,287L797,285L793,282L793,281L790,278L790,275L789,271L789,270Z " data-key="KY" data-label="Kentucky"/><path d="M654,504L653,505L654,506L657,507L654,504Z M640,499L638,500L642,502L643,502L643,500L640,499Z M648,420L629,422L620,423L601,424L592,425L593,437L594,448L598,452L600,460L601,460L604,466L606,470L604,470L605,472L604,478L602,481L602,486L603,487L603,490L603,493L601,496L599,498L601,501L604,499L608,498L614,498L617,498L632,502L636,500L634,497L636,497L640,494L643,496L646,496L646,498L647,498L648,500L653,501L657,504L657,507L660,507L662,508L663,507L665,508L667,503L669,503L670,502L672,503L675,508L678,506L678,501L678,499L674,498L676,497L679,499L680,498L683,498L684,500L685,498L686,499L689,501L691,504L694,503L695,505L697,507L698,505L698,503L695,500L694,502L690,499L689,499L687,497L685,497L685,494L686,491L689,491L690,488L688,486L686,486L686,488L685,489L681,487L681,485L684,484L685,482L687,481L685,480L683,475L681,474L679,471L679,468L680,467L681,463L643,467L644,466L643,464L643,463L642,461L644,461L644,455L646,454L647,447L650,444L652,440L650,440L653,438L653,436L654,435L653,435L653,433L650,432L651,430L649,428L651,427L649,426L649,424L650,422L647,422L648,420Z " data-key="LA" data-label="Louisiana"/><path d="M983,64L982,67L985,68L984,67L986,65L984,63L983,64Z M934,62L940,76L950,99L951,103L955,106L955,108L957,109L958,108L959,101L960,101L960,98L960,96L962,95L960,92L960,90L962,87L967,88L965,86L966,83L968,85L970,83L970,81L971,80L973,81L975,77L974,76L974,71L973,68L974,67L976,70L977,69L980,69L979,67L981,65L982,63L984,61L986,64L989,62L988,58L991,58L993,57L993,54L994,55L998,51L999,47L997,46L997,45L993,41L991,41L990,42L987,40L987,38L986,34L985,33L979,33L977,28L967,3L965,3L963,2L957,0L956,1L956,2L953,3L950,8L947,7L946,4L943,4L938,25L940,31L938,34L938,38L939,38L939,40L940,43L941,44L940,47L941,48L938,52L937,58L938,60L936,60L934,62Z " data-key="ME" data-label="Maine"/><path d="M907,239L907,242L907,245L907,248L909,247L910,249L909,252L910,252L911,251L913,250L913,249L918,248L918,245L918,245L920,241L920,239L919,237L909,239L907,239Z M837,229L840,241L842,238L845,233L847,233L849,229L852,230L855,229L857,226L858,226L859,224L863,225L866,224L865,225L869,229L869,230L872,230L874,231L875,234L878,234L880,235L882,236L883,234L883,234L886,236L886,236L884,238L885,241L883,244L882,247L884,249L887,246L889,249L890,247L891,250L895,249L898,251L898,250L900,252L901,250L898,247L898,245L895,243L893,237L893,235L892,233L894,230L892,229L892,227L893,222L894,223L896,219L896,217L897,217L898,219L896,223L895,227L898,227L897,230L898,233L897,234L896,236L902,238L901,239L898,239L900,241L898,242L903,245L905,243L906,244L907,242L907,240L903,220L900,211L896,213L886,215L873,219L854,225L837,229Z " data-key="MD" data-label="Maryland"/><path d="M982,142L983,143L982,145L984,144L982,142Z M972,143L971,145L971,147L976,145L972,143Z M974,127L976,128L978,131L976,136L970,137L971,139L971,142L973,141L974,139L980,135L980,132L979,129L977,127L974,127Z M933,126L920,130L921,146L922,147L934,143L949,138L949,138L953,137L958,139L958,140L960,142L961,142L962,142L964,146L964,145L966,142L967,142L970,133L966,132L967,130L964,127L960,128L959,127L959,125L960,122L960,121L962,119L963,117L962,116L961,118L958,115L958,114L956,114L952,120L942,124L933,126Z " data-key="MA" data-label="Massachusetts"/><path d="M759,199L759,199L759,199L759,199Z M767,183L767,183L765,183L764,184L767,183Z M769,177L771,176L771,172L771,167L771,166L771,166L769,164L766,155L763,149L762,147L759,145L757,144L756,145L755,146L753,147L751,149L750,154L749,154L747,157L743,156L742,155L742,152L743,149L745,148L747,146L747,142L749,139L748,133L748,131L747,127L744,125L744,123L746,122L746,120L744,119L744,118L742,117L736,116L734,115L732,115L729,112L728,112L725,113L720,111L717,113L716,115L716,118L718,121L715,121L713,123L712,126L713,128L713,132L712,136L710,135L710,130L709,127L706,133L705,133L704,134L703,135L703,138L702,139L701,140L702,143L702,147L700,153L699,155L700,158L701,161L700,165L705,173L708,180L709,185L709,191L708,196L707,199L705,206L703,208L702,209L709,208L724,205L737,203L737,204L750,201L759,199L760,197L760,197L761,193L762,192L762,187L762,187L763,185L766,182L766,178L767,177L766,176L767,174L769,175L769,177L769,177Z M737,100L736,100L736,101L733,103L735,104L736,104L738,104L739,102L737,100Z M732,101L729,99L732,102L732,101Z M728,96L727,95L727,92L723,93L721,94L720,96L719,94L716,96L712,95L712,90L712,89L709,90L704,93L698,93L696,94L695,94L693,96L690,98L688,101L686,100L684,101L682,100L679,101L677,101L675,99L674,99L671,95L668,94L664,94L662,94L661,94L658,98L658,96L658,93L656,92L656,91L654,90L653,88L650,91L649,94L647,94L646,96L643,98L637,100L633,104L628,106L628,107L631,108L634,112L650,114L654,116L658,116L660,115L667,118L667,119L669,120L673,122L672,127L673,129L675,128L676,129L676,134L678,134L678,132L681,126L681,124L682,120L685,119L687,118L688,115L690,115L691,114L692,116L691,116L690,119L691,119L692,116L695,115L696,111L705,109L706,106L710,105L715,106L720,109L721,104L726,105L731,104L733,104L733,103L730,102L730,100L727,100L726,96L728,96Z M763,185L763,185L764,184L763,185Z M688,100L687,98L687,99L687,101L688,100Z M668,82L666,80L662,81L659,82L657,84L654,88L654,90L656,90L658,93L660,88L665,82L668,82Z M651,70L652,67L651,67L648,69L644,72L643,73L644,75L647,74L647,72L651,70Z M709,116L709,114L708,114L707,117L709,116Z " data-key="MI" data-label="Michigan"/><path d="M633,72L633,73L628,71L625,72L619,72L617,69L613,72L611,74L609,74L604,73L604,72L601,72L599,71L598,68L595,69L595,71L594,72L591,67L589,67L589,65L587,65L584,64L579,64L576,65L576,66L571,67L570,65L564,64L564,63L560,64L557,61L557,60L554,50L552,49L549,49L550,57L525,59L518,59L519,63L521,66L520,68L520,73L521,75L520,79L521,81L522,85L524,87L525,91L525,95L526,102L526,105L527,107L527,113L529,118L531,121L531,127L532,129L531,132L530,134L527,136L527,137L530,142L533,142L534,144L535,177L536,185L555,184L569,184L589,182L615,180L623,179L622,176L622,173L618,168L616,167L612,165L607,160L605,159L602,156L599,157L594,153L595,151L593,134L591,134L591,130L592,129L593,127L594,125L600,122L598,108L600,108L600,106L603,106L603,106L602,106L601,104L605,100L610,96L616,87L619,83L623,81L630,78L635,74L636,72L637,72L633,72Z " data-key="MN" data-label="Minnesota"/><path d="M686,369L679,370L660,373L661,375L660,376L658,377L657,381L656,382L656,387L653,388L653,390L652,390L652,393L650,394L651,395L651,396L649,396L648,398L649,399L648,400L649,402L647,402L646,405L647,407L646,407L648,410L647,411L649,415L649,419L648,420L647,422L650,422L649,424L649,426L651,427L649,428L651,430L650,432L653,433L653,435L654,435L653,436L653,438L650,440L652,440L650,444L647,447L646,454L644,455L644,461L642,461L643,463L643,464L644,466L643,467L681,463L680,467L679,468L679,471L681,474L683,475L685,480L687,481L688,481L692,478L697,475L702,475L706,474L709,473L709,473L703,439L703,414L702,396L702,370L701,369L700,368L686,369Z " data-key="MS" data-label="Mississippi"/></g></svg>