<?xml version="1.0" standalone="no"?>
<!DOCTYPE svg PUBLIC "-//W3C//DTD SVG 1.1//EN" "http://www.w3.org/Graphics/SVG/1.1/DTD/svg11.dtd">

<svg style="stroke-width:0.7pt; stroke-linejoin: round; stroke:#000; fill:#f3f3f0;" xmlns="http://www.w3.org/2000/svg" font-family="Helvetica, Arial, FreeSans, Sans, sans, sans-serif" height="729px" viewBox="0 0 1000 729" width="1000px" version="1.1" xmlns:xlink="http://www.w3.org/1999/xlink" enable-background="new 0 0 1000 729">

<defs>

<style type="text/css">path { fill-rule: evenodd; }
#context path { fill: #eee; stroke: #bbb; } </style>

</defs>

<metadata>

<views>

<view padding="0" h="729.379066616" w="1000">

<proj lon0="-12.2" id="laea" lat0="39.65" />

<bbox y="941.43" h="103.35" w="141.89" x="1019.77" />

<llbbox lon1="4.1" lon0="-10.0" lat1="43.3" lat0="36.0" />

</view>

</views>

</metadata>

<g id="context">

<path d="M88.7,636.6L90.7,634.7L93.4,633.4L95.6,632.4L98.3,632.0L100.3,631.5L102.2,630.3L106.3,630.8L107.5,627.6L109.5,626.8L113.4,627.0L116.5,627.7L119.3,628.6L123.5,629.5L128.8,628.5L133.2,630.1L136.3,629.2L139.9,628.4L144.9,630.0L147.7,631.4L156.6,637.5L159.8,638.5L162.0,637.6L165.4,635.6L166.7,633.9L176.8,626.5L179.9,623.2L181.8,622.0L186.3,619.5L190.4,618.4L193.5,618.5L193.0,617.6L192.5,614.2L191.0,612.1L190.8,608.7L190.3,605.4L190.3,602.6L189.5,599.3L188.6,596.6L187.5,593.0L186.4,590.7L184.3,588.4L183.5,585.8L184.9,583.8L185.6,581.6L186.8,579.7L186.9,577.5L188.4,576.1L188.3,574.0L188.7,571.5L189.8,569.1L191.2,567.3L193.2,564.7L196.2,561.9L197.6,558.9L198.7,557.1L199.0,554.7L199.9,552.2L200.5,550.2L199.3,548.2L201.8,547.2L204.5,545.8L206.6,546.5L208.9,545.5L208.4,543.3L210.3,541.9L212.5,542.7L214.1,544.3L217.0,543.4L217.7,540.5L218.7,535.6L219.5,533.3L218.6,531.3L219.3,529.3L220.9,527.0L219.8,526.3L217.5,526.9L215.5,527.6L214.4,529.6L212.4,529.4L210.6,531.0L209.0,529.4L208.2,527.2L206.3,525.0L205.5,522.7L203.9,521.0L201.9,517.6L197.1,512.4L194.8,509.6L193.6,507.6L194.8,505.0L193.4,503.5L194.2,500.8L194.8,498.1L196.5,495.3L197.6,492.2L195.8,490.9L195.9,485.3L196.4,483.3L200.5,479.4L202.9,477.1L205.4,474.9L207.4,474.2L208.4,471.5L210.2,468.8L209.3,466.8L211.2,463.9L213.5,460.2L215.5,456.3L214.8,453.7L213.1,450.8L208.2,448.6L204.7,450.4L201.6,448.5L202.4,446.5L202.4,444.2L200.1,443.5L197.4,443.1L194.7,439.9L194.4,437.5L195.4,435.3L192.3,432.4L190.0,428.8L188.7,426.7L189.5,422.3L190.2,419.9L188.2,418.5L185.7,418.1L183.7,416.3L182.5,414.0L179.8,412.7L178.7,410.6L176.3,409.6L175.2,406.8L174.0,404.9L173.5,402.6L178.8,402.7L184.0,403.5L186.8,404.2L189.9,402.3L192.4,401.6L195.5,401.9L200.6,401.4L204.4,401.8L207.9,400.4L208.8,396.6L209.1,394.3L210.0,391.4L209.0,389.6L210.2,386.8L212.3,385.2L213.7,383.7L214.3,381.3L214.4,379.2L215.2,376.5L215.0,373.1L215.4,369.8L215.0,367.8L212.5,365.8L211.1,362.6L209.2,361.7L207.1,361.5L205.3,359.3L205.1,357.2L205.0,354.7L205.3,352.2L207.9,351.2L209.2,349.3L212.1,349.3L214.8,347.8L214.9,345.3L217.6,342.8L219.4,342.0L219.9,339.3L216.1,335.8L214.9,332.0L216.8,328.6L218.2,326.6L217.6,323.3L214.6,322.1L215.0,319.6L216.3,317.5L216.8,312.0L215.1,307.8L214.5,305.9L214.6,303.7L215.2,301.6L214.6,299.5L216.1,297.4L215.3,294.5L212.6,293.1L212.5,291.0L211.6,288.9L209.7,287.1L208.2,284.8L206.6,283.3L207.5,281.4L212.8,282.0L214.4,280.5L216.6,277.7L217.7,275.1L217.7,271.9L218.9,269.9L221.4,266.9L221.9,264.8L223.9,262.2L226.4,261.8L228.9,262.6L230.4,260.9L232.8,260.2L233.8,258.2L236.4,257.0L237.3,255.1L238.3,252.6L240.9,251.2L239.9,249.2L242.3,249.6L244.5,248.8L244.6,246.1L245.0,243.2L246.1,240.6L248.3,238.6L249.0,236.6L250.4,233.2L250.9,230.2L248.6,229.3L247.3,227.1L244.9,225.2L241.3,224.0L239.2,224.1L235.9,223.8L233.9,225.0L231.2,226.0L229.3,224.6L228.1,222.6L227.2,220.8L227.0,217.6L227.6,215.6L227.9,213.2L228.1,210.8L228.8,207.2L225.9,205.6L226.4,201.3L223.1,201.2L220.8,201.9L216.8,202.9L213.4,202.3L212.0,198.8L209.4,200.2L207.1,202.7L204.3,203.1L201.1,202.9L198.2,200.6L196.9,202.6L194.3,202.5L192.3,202.7L191.5,200.9L189.4,199.9L187.3,200.0L185.2,201.6L185.2,204.0L185.6,207.8L184.2,209.4L181.8,210.6L179.5,212.1L177.5,213.1L174.9,213.5L172.7,213.4L170.6,215.8L169.2,213.8L168.5,211.6L165.3,211.4L164.1,213.9L160.8,215.1L158.3,215.3L159.0,212.5L159.8,210.6L157.3,210.9L154.4,209.9L152.3,208.8L148.3,209.7L146.5,211.2L143.1,213.1L140.9,213.9L140.6,211.7L139.8,207.7L138.8,209.5L138.1,211.9L135.0,212.4L133.6,214.5L132.5,216.6L129.6,217.9L127.3,218.6L125.0,218.7L122.7,218.0L122.4,214.2L120.3,212.7L118.9,209.9L120.2,207.5L121.8,205.4L123.6,203.1L125.2,201.7L127.0,200.5L127.0,197.9L126.1,195.8L122.7,195.2L120.4,195.5L118.6,190.1L116.2,190.4L114.4,191.8L112.8,193.5L110.9,195.4L108.8,195.0L106.2,195.9L103.7,195.8L98.5,197.6L96.5,198.9L94.1,198.6L91.3,199.4L90.0,201.0L88.8,204.5L86.4,205.6L84.5,207.3L84.0,209.6L79.2,212.8L77.4,215.2L77.1,216.7L76.6,218.9L77.3,221.2L77.1,223.4L76.6,225.6L77.7,228.6L79.7,231.1L80.5,233.0L80.9,235.6L81.6,237.7L82.9,243.0L83.1,245.0L83.3,247.2L84.3,249.7L84.2,252.3L83.7,254.6L84.8,257.2L86.1,259.8L87.2,261.6L87.2,263.7L88.3,269.4L89.1,271.4L90.3,274.4L91.3,276.5L92.4,279.0L93.2,282.1L93.6,285.9L94.5,288.8L94.1,293.4L92.3,304.2L88.4,321.3L88.8,323.4L87.0,332.3L83.6,349.4L80.1,362.3L82.2,363.7L83.1,365.6L82.8,368.3L81.3,373.8L76.7,388.6L73.2,398.2L72.5,400.6L72.0,404.2L69.9,411.7L70.7,413.8L68.3,417.6L67.2,419.3L66.7,421.4L64.6,421.7L62.4,424.3L61.0,427.5L56.6,431.7L53.1,434.1L50.9,433.7L49.0,434.7L52.3,436.4L53.2,438.6L54.1,442.8L54.0,445.8L52.8,450.7L50.0,456.9L48.9,459.3L49.3,462.1L48.7,465.6L49.1,467.6L49.6,470.6L47.0,479.2L45.0,486.6L46.3,489.1L45.4,491.2L47.3,492.4L50.1,492.7L51.9,491.6L57.2,493.1L59.4,491.7L63.8,492.2L70.6,489.5L72.1,486.1L72.1,481.9L74.8,479.2L76.6,477.4L78.8,477.4L80.3,479.9L82.1,482.1L81.5,485.6L77.7,488.4L75.4,489.6L75.1,491.9L77.9,491.0L81.4,491.3L79.4,491.9L77.6,493.3L78.9,495.0L76.4,494.2L74.5,493.2L74.1,495.6L75.0,497.4L75.3,499.7L74.0,497.9L73.2,496.0L70.0,495.2L68.5,492.3L66.3,493.2L61.8,495.6L64.2,499.4L66.1,504.4L66.6,506.6L66.5,509.7L65.2,513.2L66.0,516.6L67.8,514.8L71.7,513.6L74.6,514.1L77.3,513.0L80.4,510.1L84.0,507.5L86.9,506.2L90.6,508.5L93.8,508.8L95.6,507.9L93.6,506.1L93.3,504.0L95.3,504.1L96.4,501.9L96.6,504.1L97.4,506.4L97.9,508.7L98.0,511.0L99.8,512.7L103.1,515.7L99.8,514.7L96.9,514.7L94.5,514.7L92.4,512.9L93.8,515.4L93.1,517.3L91.5,514.7L91.1,512.7L89.2,511.6L87.1,510.5L85.3,508.7L87.3,511.3L91.2,514.9L93.1,518.9L94.4,523.8L95.1,530.0L95.0,535.3L94.0,540.9L92.3,547.0L90.1,552.8L89.7,555.4L91.4,556.8L93.8,557.3L94.7,560.3L95.1,562.6L95.4,565.3L94.5,570.8L94.4,573.6L95.9,575.7L95.8,577.7L94.7,584.8L94.7,587.6L96.0,589.8L96.7,591.7L96.4,594.5L96.0,596.5L96.3,599.5L95.5,602.1L93.5,606.7L91.5,611.2L91.9,613.5L91.9,616.3L89.1,621.8L89.3,624.8L87.5,629.0L85.9,632.2L84.9,634.6L83.9,636.6L86.0,636.2L87.1,638.9Z " />

<path d="M771.6,103.3L773.3,101.7L775.0,99.4L776.3,97.1L778.4,97.0L781.0,95.8L782.9,94.4L786.6,94.7L788.9,96.0L791.7,96.3L794.6,96.4L796.3,98.2L799.6,100.0L802.4,100.4L804.2,97.9L806.5,98.5L810.7,98.2L809.3,95.4L809.6,93.0L812.1,91.0L814.3,90.2L817.3,90.3L818.0,88.4L819.2,86.4L821.9,85.8L824.6,85.5L825.6,83.3L828.4,83.5L831.6,83.0L832.9,84.9L835.2,86.6L837.3,85.2L840.7,84.8L839.5,83.5L838.8,81.4L837.2,79.6L835.7,78.3L833.4,77.5L831.0,76.3L828.4,67.0L827.9,62.1L827.2,58.9L826.2,51.6L826.1,44.6L824.4,42.8L824.4,38.8L824.7,35.5L826.1,29.9L827.5,27.2L827.9,25.2L829.5,21.9L832.6,17.3L834.8,14.5L838.1,11.2L843.2,8.5L845.7,9.2L848.4,9.2L851.0,3.9L853.6,0.0L536.9,0.0L536.5,5.7L535.8,12.8L535.4,19.4L535.5,23.9L534.0,29.3L532.0,34.5L530.9,37.6L529.7,39.6L528.5,42.1L527.2,44.2L525.8,46.2L523.9,47.1L518.8,49.6L517.6,52.0L518.5,52.6L520.8,53.4L521.7,56.3L524.3,54.8L526.9,54.7L528.0,56.5L529.7,59.2L531.9,59.0L532.1,55.7L535.7,54.8L538.3,56.2L541.7,55.8L543.9,57.6L544.1,60.1L544.7,62.8L543.7,65.9L543.3,68.4L541.8,70.3L540.0,72.4L542.5,75.6L548.2,76.6L548.6,74.2L548.0,70.7L549.4,69.0L552.4,68.2L550.5,72.5L554.7,74.4L556.8,73.4L559.3,74.3L561.7,76.7L564.4,75.8L566.2,76.9L571.2,78.3L574.7,79.7L577.8,79.2L579.8,79.3L584.7,77.5L586.7,77.0L588.3,78.7L589.0,80.8L588.8,82.9L591.1,84.1L593.2,84.3L595.3,85.8L597.7,87.4L598.2,89.9L600.1,89.3L601.8,90.3L602.8,88.5L604.7,87.8L608.1,89.2L611.2,88.5L612.8,86.7L613.7,84.7L616.2,84.1L618.3,84.9L620.4,85.3L622.1,86.7L624.2,87.7L626.4,87.0L626.9,89.0L628.9,90.2L630.3,92.8L632.7,92.7L634.2,94.5L636.4,95.1L638.2,93.3L641.6,92.7L643.8,91.8L645.6,90.5L647.8,88.9L651.3,90.1L653.9,91.9L656.2,93.3L657.6,90.3L659.6,88.3L661.8,89.0L663.9,90.7L667.3,89.3L670.3,88.7L674.3,88.8L676.3,88.4L678.9,88.4L680.1,86.7L679.0,84.9L677.0,83.2L676.8,80.6L678.1,78.8L677.2,76.5L677.9,74.1L679.8,73.3L681.6,74.1L685.8,74.2L689.6,75.0L691.5,75.8L694.8,77.4L696.3,75.7L699.3,76.6L702.1,77.0L704.6,76.9L707.5,78.4L708.2,80.7L711.8,81.1L714.2,79.9L717.3,80.2L719.4,80.0L722.4,79.3L724.0,81.3L724.9,83.4L726.8,84.3L727.6,86.9L729.3,88.5L731.3,87.3L731.0,84.0L733.5,84.1L737.0,83.4L738.9,85.0L743.0,84.9L745.2,84.3L747.8,84.8L747.4,86.9L751.4,87.6L749.2,88.8L748.7,91.6L748.5,94.2L750.0,94.7L753.0,95.1L754.9,94.7L757.8,96.0L760.2,97.1L763.0,97.1L764.3,99.9L765.3,102.3L766.9,103.8L769.4,103.9Z " />

</g>

<g id="spain">

<path data-nuts="ES12" d="M209.8,117.7L211.9,117.1L216.7,116.6L218.9,117.0L221.0,117.4L223.2,115.8L225.2,115.3L228.1,114.6L227.9,112.5L225.4,112.3L224.9,110.3L228.4,110.4L229.0,107.8L229.8,105.9L232.7,104.7L234.3,106.2L236.8,105.7L238.4,107.3L240.7,107.7L242.9,104.1L244.6,105.3L247.4,105.9L249.2,104.6L249.4,101.8L251.4,101.8L253.5,102.8L256.4,101.7L256.8,103.8L257.8,105.7L261.1,107.9L263.8,108.6L266.5,109.4L268.6,109.3L270.0,107.6L271.0,104.8L272.1,102.6L275.9,101.5L278.3,102.8L282.2,103.5L284.8,103.1L287.7,101.5L289.7,100.1L293.4,100.4L294.4,96.3L297.2,97.4L299.9,97.3L302.0,96.2L304.1,96.4L305.8,95.0L308.8,94.5L311.3,94.4L311.7,91.9L312.3,89.2L313.9,87.0L317.3,86.5L318.8,85.0L320.4,82.9L323.4,81.4L325.7,83.9L328.6,85.8L331.0,84.9L333.9,84.6L334.3,81.3L333.5,79.0L335.8,78.2L337.9,77.9L339.9,76.3L341.0,74.5L343.4,75.1L344.6,76.7L346.5,75.9L346.3,72.8L344.9,70.4L345.9,68.4L346.2,66.0L344.7,65.5L341.8,65.8L339.4,66.0L335.7,65.5L333.6,65.7L331.4,65.3L329.8,64.2L325.5,63.8L323.3,63.8L321.3,62.9L318.9,62.6L312.8,62.9L309.5,61.9L306.8,61.3L304.4,62.3L301.5,62.7L299.2,60.5L297.9,59.0L295.9,57.7L292.3,58.3L289.5,57.0L287.3,57.1L285.1,57.1L282.5,57.6L280.0,57.7L275.6,57.4L273.1,58.8L270.8,58.5L271.8,56.5L269.7,56.9L266.7,55.7L265.7,53.7L264.0,51.4L261.7,51.2L259.8,50.1L258.6,52.9L256.6,53.0L255.5,55.1L254.0,57.2L251.8,57.7L249.7,56.8L247.5,58.8L245.1,59.3L243.1,59.2L240.9,58.9L238.8,58.8L237.2,57.4L235.4,58.5L232.6,60.0L230.0,60.9L226.7,60.6L224.6,61.4L222.0,60.0L221.0,62.0L218.8,62.0L216.6,61.9L213.7,61.8L211.9,60.9L209.0,61.8L207.0,61.6L204.8,61.5L202.4,62.5L199.2,61.8L196.6,62.3L193.9,61.7L191.5,62.6L189.0,63.5L186.9,64.5L187.0,65.3L186.1,67.8L186.2,70.4L183.7,72.6L182.6,74.8L180.5,74.8L178.7,76.0L178.2,78.2L179.7,79.7L181.8,79.7L181.6,81.9L182.7,83.7L183.8,85.6L186.1,85.9L185.8,88.3L186.6,90.7L188.4,91.9L191.1,93.5L193.0,95.2L192.1,97.1L193.8,99.7L196.1,99.1L198.1,96.7L199.5,95.3L201.3,97.3L202.0,100.2L199.9,102.1L198.0,103.2L195.3,104.1L193.6,106.1L192.7,107.9L192.6,110.4L194.6,111.8L194.3,108.2L195.5,110.4L197.5,112.1L199.9,112.1L202.6,116.1L203.4,118.3L207.8,120.8Z " />

<path data-nuts="ES51" d="M697.5,275.0L698.2,272.7L699.5,271.0L703.3,267.2L705.6,266.4L707.8,265.1L710.8,264.8L708.7,269.2L706.6,269.2L704.2,270.6L702.2,272.1L704.3,273.0L707.1,271.9L709.0,269.6L711.1,264.9L712.8,263.0L718.3,258.3L717.4,256.3L715.3,255.7L710.5,251.2L708.0,251.8L710.1,253.7L706.6,252.2L706.2,250.1L708.2,247.3L709.5,245.5L711.3,243.1L712.6,240.6L715.2,236.3L717.1,233.1L718.6,231.2L720.1,228.8L722.3,227.2L724.8,225.1L727.2,224.7L731.3,223.9L733.5,223.7L733.8,221.6L736.3,220.5L738.6,218.6L740.0,217.1L743.1,216.8L747.0,214.8L750.7,212.0L754.1,210.2L761.6,207.7L763.6,207.1L767.6,204.8L770.0,203.9L771.9,202.5L774.4,202.2L779.8,198.8L785.4,197.5L791.7,193.0L792.2,189.8L793.9,187.4L793.4,189.5L794.4,185.4L795.7,183.4L797.8,178.6L800.1,176.7L804.3,174.3L810.9,168.1L814.9,165.2L823.9,159.2L825.5,157.7L827.6,156.8L828.1,154.5L829.6,152.9L832.4,151.5L835.2,150.2L837.5,147.8L838.3,145.7L841.7,142.7L843.3,141.3L843.7,138.8L845.3,136.2L847.6,134.9L849.3,133.9L849.6,131.8L851.1,130.0L850.9,127.1L851.5,124.2L849.1,122.3L848.3,120.1L848.9,117.1L847.7,115.2L845.8,112.6L843.0,111.8L841.5,110.3L840.3,105.5L840.7,102.3L841.7,100.4L844.1,101.0L846.6,101.7L848.4,100.7L850.2,99.2L850.1,96.6L850.6,94.7L850.7,92.6L847.1,92.8L845.4,91.4L842.7,91.8L840.3,89.9L840.1,87.3L840.7,84.8L837.3,85.2L835.2,86.6L832.9,84.9L831.6,83.0L828.4,83.5L825.6,83.3L824.6,85.5L821.9,85.8L819.2,86.4L818.0,88.4L817.3,90.3L814.3,90.2L812.1,91.0L809.6,93.0L809.3,95.4L810.7,98.2L806.5,98.5L804.2,97.9L802.4,100.4L799.6,100.0L796.3,98.2L794.6,96.4L791.7,96.3L788.9,96.0L786.6,94.7L782.9,94.4L781.0,95.8L778.4,97.0L776.3,97.1L775.0,99.4L773.3,101.7L771.6,103.3L769.4,103.9L766.9,103.8L765.3,102.3L764.3,99.9L763.0,97.1L760.2,97.1L757.8,96.0L754.9,94.7L753.0,95.1L750.0,94.7L748.5,94.2L747.3,95.7L745.0,94.8L745.0,97.4L743.0,98.6L741.0,98.8L738.8,99.8L738.5,102.1L736.4,102.8L732.4,102.8L731.1,100.5L730.9,97.8L732.2,96.3L730.7,93.9L728.8,92.7L728.6,90.4L729.3,88.5L727.6,86.9L726.8,84.3L724.9,83.4L724.0,81.3L722.4,79.3L719.4,80.0L717.3,80.2L714.2,79.9L711.8,81.1L708.2,80.7L707.5,78.4L704.6,76.9L702.1,77.0L699.3,76.6L696.3,75.7L694.8,77.4L691.5,75.8L689.6,75.0L685.8,74.2L681.6,74.1L679.8,73.3L677.9,74.1L677.2,76.5L678.1,78.8L676.8,80.6L677.0,83.2L679.0,84.9L680.1,86.7L678.9,88.4L679.9,89.3L681.6,90.9L682.7,94.0L685.3,94.2L686.5,96.0L686.3,98.9L686.6,101.0L685.1,102.5L685.8,104.5L683.5,105.7L685.0,107.9L685.4,109.9L686.8,112.4L688.3,114.0L687.1,115.9L689.4,117.2L690.3,119.2L689.3,121.2L689.3,125.8L688.7,128.5L688.5,130.5L688.2,134.6L689.0,137.3L688.3,139.8L688.0,143.8L687.0,145.8L687.6,147.9L685.3,149.3L683.6,151.5L682.5,154.7L685.3,156.4L686.1,159.5L684.7,161.6L683.2,163.2L680.9,164.7L679.1,166.8L678.7,170.0L673.6,172.9L672.9,175.3L671.4,177.1L671.3,180.4L673.3,182.5L673.1,185.4L678.1,184.4L678.7,187.6L680.0,189.4L678.5,191.9L677.5,194.4L674.1,195.4L675.0,199.0L675.0,201.1L673.8,203.3L677.7,206.4L676.5,208.9L677.9,211.0L679.4,212.7L679.0,215.4L678.5,217.6L676.0,217.9L675.6,223.4L673.8,225.0L672.5,226.8L669.4,227.5L669.7,229.6L671.3,232.1L671.4,233.0L673.4,234.5L675.8,236.1L675.4,238.0L676.8,240.8L676.5,243.3L675.5,246.1L676.0,248.8L676.4,251.2L678.2,253.2L677.1,255.2L675.6,258.2L673.6,259.4L672.3,261.8L674.1,262.3L676.1,262.7L678.6,263.3L680.7,264.5L679.5,268.5L681.9,269.9L684.7,271.0L689.2,271.6L691.5,273.2L691.9,275.4L697.3,276.7Z " />

<path data-nuts="ES24" d="M616.8,345.0L618.2,343.0L616.1,341.6L614.8,338.5L615.1,336.0L617.2,334.5L619.4,332.5L619.8,329.2L622.2,329.6L624.6,328.8L626.7,326.5L628.8,326.0L627.4,323.4L629.9,320.4L630.6,318.2L630.2,316.0L630.8,313.4L632.6,310.7L634.8,311.3L637.5,310.3L641.6,306.0L640.8,303.7L643.1,302.7L644.1,300.1L647.1,297.6L645.5,295.0L643.1,292.8L642.7,290.0L646.5,287.8L645.8,285.8L644.1,284.8L644.4,281.5L643.8,279.1L642.3,276.6L640.2,276.9L637.8,276.2L637.2,272.7L640.4,270.8L642.1,272.4L643.7,270.4L646.3,269.1L646.2,265.9L647.0,263.1L647.8,260.7L651.1,261.0L652.7,262.7L657.0,264.4L660.0,263.7L663.3,264.8L664.4,266.6L666.1,264.3L668.6,262.8L670.7,263.3L672.3,261.8L673.6,259.4L675.6,258.2L677.1,255.2L678.2,253.2L676.4,251.2L676.0,248.8L675.5,246.1L676.5,243.3L676.8,240.8L675.4,238.0L675.8,236.1L673.4,234.5L671.4,233.0L671.3,232.1L669.7,229.6L669.4,227.5L672.5,226.8L673.8,225.0L675.6,223.4L676.0,217.9L678.5,217.6L679.0,215.4L679.4,212.7L677.9,211.0L676.5,208.9L677.7,206.4L673.8,203.3L675.0,201.1L675.0,199.0L674.1,195.4L677.5,194.4L678.5,191.9L680.0,189.4L678.7,187.6L678.1,184.4L673.1,185.4L673.3,182.5L671.3,180.4L671.4,177.1L672.9,175.3L673.6,172.9L678.7,170.0L679.1,166.8L680.9,164.7L683.2,163.2L684.7,161.6L686.1,159.5L685.3,156.4L682.5,154.7L683.6,151.5L685.3,149.3L687.6,147.9L687.0,145.8L688.0,143.8L688.3,139.8L689.0,137.3L688.2,134.6L688.5,130.5L688.7,128.5L689.3,125.8L689.3,121.2L690.3,119.2L689.4,117.2L687.1,115.9L688.3,114.0L686.8,112.4L685.4,109.9L685.0,107.9L683.5,105.7L685.8,104.5L685.1,102.5L686.6,101.0L686.3,98.9L686.5,96.0L685.3,94.2L682.7,94.0L681.6,90.9L679.9,89.3L678.9,88.4L676.3,88.4L674.3,88.8L670.3,88.7L667.3,89.3L663.9,90.7L661.8,89.0L659.6,88.3L657.6,90.3L656.2,93.3L653.9,91.9L651.3,90.1L647.8,88.9L645.6,90.5L643.8,91.8L641.6,92.7L638.2,93.3L636.4,95.1L634.2,94.5L632.7,92.7L630.3,92.8L628.9,90.2L626.9,89.0L626.4,87.0L624.2,87.7L622.1,86.7L620.4,85.3L618.3,84.9L616.2,84.1L613.7,84.7L612.8,86.7L611.2,88.5L608.1,89.2L604.7,87.8L602.8,88.5L601.8,90.3L600.1,89.3L598.2,89.9L597.7,87.4L595.3,85.8L593.2,84.3L591.1,84.1L588.8,82.9L589.0,80.8L587.7,81.1L585.3,81.2L583.2,83.3L583.6,86.0L581.5,88.2L582.8,93.4L581.5,95.9L579.9,97.6L577.8,98.6L576.0,101.5L571.8,103.1L572.0,105.5L571.5,107.4L565.2,107.8L564.5,112.3L562.8,114.3L561.6,117.5L559.0,116.6L557.9,119.7L559.0,121.9L559.0,124.7L557.0,126.2L555.7,130.0L554.9,132.8L557.1,134.5L555.5,136.6L554.1,142.1L553.8,144.5L553.4,148.3L555.1,150.0L555.3,152.7L555.2,154.8L557.4,156.2L558.7,159.0L561.4,158.8L562.1,161.3L560.2,163.7L558.8,166.9L558.3,169.8L557.0,171.4L556.0,173.4L552.3,172.8L549.6,174.5L546.7,174.3L544.7,173.5L543.3,171.7L540.6,170.7L538.7,172.0L535.0,171.1L533.1,168.9L530.3,169.0L527.8,168.5L527.6,169.4L528.2,177.1L529.6,179.8L531.2,182.2L531.1,184.7L530.6,187.5L532.0,189.2L533.1,191.6L534.8,193.1L533.4,196.0L533.6,198.2L530.6,198.5L528.4,201.3L527.2,204.4L524.8,204.1L522.6,204.8L522.8,206.8L524.8,209.3L524.7,211.9L524.6,214.6L526.6,216.4L527.2,219.2L528.2,221.0L525.4,221.8L523.7,223.5L521.9,222.0L520.8,219.6L517.2,219.0L516.4,220.8L516.4,225.7L514.7,229.0L514.3,231.0L514.8,233.5L515.5,235.6L516.9,241.9L521.6,243.2L523.4,244.4L523.6,243.9L527.2,242.9L529.8,241.8L532.0,244.6L534.0,244.4L535.7,246.4L540.8,248.4L543.4,250.8L545.0,252.1L548.3,254.8L550.9,256.8L553.7,258.7L554.4,261.2L554.1,264.2L556.6,267.0L558.7,268.0L560.0,269.6L560.5,272.2L559.8,275.0L559.9,277.6L561.5,280.8L561.1,284.2L560.6,286.7L562.0,288.3L558.9,291.6L556.4,290.3L553.4,289.7L552.9,291.9L552.4,294.2L553.5,298.8L550.1,301.3L548.6,304.4L547.2,305.9L548.9,307.7L551.1,310.3L553.5,313.6L554.4,315.8L555.5,314.1L557.8,316.2L562.7,319.7L564.4,321.6L566.6,323.1L568.4,321.8L571.0,323.2L573.2,321.9L574.2,326.8L576.8,326.9L579.4,327.0L581.7,325.0L580.9,322.0L582.5,320.5L583.6,322.8L586.5,324.7L586.8,327.3L589.4,327.5L593.2,326.6L595.8,328.2L598.7,330.7L598.2,332.9L595.2,335.1L593.2,335.8L593.4,336.7L595.1,338.9L597.5,338.3L599.6,337.7L602.7,337.7L605.0,336.8L609.8,337.7L610.7,341.7L611.4,344.4L612.6,346.8L614.8,347.4Z " />

<path data-nuts="ES41" d="M327.9,356.2L330.0,354.9L333.3,352.3L334.5,349.8L337.8,350.1L338.3,353.1L341.9,350.8L343.9,350.4L343.7,347.5L347.6,344.1L350.1,341.7L350.1,339.5L351.0,337.7L355.0,337.4L357.7,338.3L359.0,340.5L359.1,342.5L361.4,343.5L363.8,343.2L366.2,341.5L366.9,339.5L367.3,336.2L368.9,334.6L368.7,330.7L370.4,332.6L373.6,331.9L374.4,329.1L373.9,326.1L375.1,324.2L378.1,323.8L380.8,322.0L381.4,319.7L381.0,317.3L380.5,314.9L380.5,311.1L382.6,309.7L382.2,305.9L383.2,304.0L384.1,306.0L387.2,305.8L389.7,303.3L389.4,300.1L390.1,298.1L391.4,295.9L392.7,293.3L393.7,291.2L395.2,288.6L398.6,289.3L401.1,287.5L401.7,284.1L402.7,281.7L402.1,279.2L402.8,276.2L404.3,274.5L405.2,272.5L407.4,271.3L410.3,270.3L412.3,268.9L414.6,264.0L418.5,260.7L420.8,257.3L422.0,255.0L423.9,253.8L426.7,253.1L429.1,251.7L431.6,250.4L432.5,248.2L434.7,246.3L434.3,244.0L436.9,243.8L439.9,243.4L442.9,241.9L444.4,243.2L445.9,239.6L448.3,238.8L452.5,239.5L454.8,240.0L456.7,240.6L460.3,239.3L462.8,238.3L464.2,236.3L466.3,234.9L468.7,237.2L469.4,239.2L472.6,240.4L475.5,240.7L476.2,238.5L479.1,238.1L479.8,240.1L484.0,240.7L485.6,241.9L488.0,242.5L487.3,244.8L488.9,246.6L489.5,248.9L491.8,246.6L493.7,249.1L495.8,250.2L497.0,253.4L499.6,253.7L501.5,254.4L504.3,251.9L506.7,254.3L510.5,252.9L512.2,250.1L516.4,249.8L518.5,247.5L520.2,249.1L522.1,249.9L524.3,250.3L523.1,247.4L523.4,244.4L521.6,243.2L516.9,241.9L515.5,235.6L514.8,233.5L514.3,231.0L514.7,229.0L516.4,225.7L516.4,220.8L517.2,219.0L520.8,219.6L521.9,222.0L523.7,223.5L525.4,221.8L528.2,221.0L527.2,219.2L526.6,216.4L524.6,214.6L524.7,211.9L524.8,209.3L522.8,206.8L522.6,204.8L524.8,204.1L527.2,204.4L528.4,201.3L530.6,198.5L533.6,198.2L533.4,196.0L534.8,193.1L533.1,191.6L532.0,189.2L530.6,187.5L531.1,184.7L531.2,182.2L529.6,179.8L528.2,177.1L524.8,174.5L522.7,176.3L520.0,177.1L517.9,175.5L515.5,174.9L511.1,174.3L511.2,170.9L509.6,169.0L507.1,165.7L509.0,162.8L507.0,162.4L502.8,163.5L500.7,164.6L499.0,163.0L498.8,161.0L494.4,160.2L491.3,161.3L488.5,161.7L486.1,164.6L484.1,164.1L484.5,168.1L482.5,170.9L481.0,174.8L477.9,174.2L475.0,175.3L472.8,174.0L470.3,174.9L469.3,172.9L471.9,166.4L469.9,164.7L467.6,165.0L466.6,167.8L466.6,170.5L465.0,172.6L463.0,173.9L460.9,175.2L459.2,173.4L457.1,169.2L453.7,169.7L451.1,170.1L447.4,166.3L446.9,164.2L445.1,162.8L444.0,160.8L445.4,157.8L445.4,155.2L445.3,153.1L444.9,149.7L443.8,147.7L446.7,146.4L443.8,144.6L444.4,141.4L445.1,143.5L447.2,145.4L446.1,141.0L447.0,139.1L444.5,136.9L444.4,134.7L444.6,132.1L442.4,132.3L440.5,131.3L442.3,130.1L443.2,127.6L444.7,125.6L442.8,122.5L447.2,122.1L449.4,122.3L451.6,121.7L453.7,123.2L455.8,122.9L456.4,121.2L454.2,118.9L453.8,116.7L451.8,115.6L448.3,115.9L446.9,114.0L444.7,113.7L443.0,112.0L440.6,111.7L438.3,112.0L438.4,109.9L437.1,108.0L438.0,105.7L438.9,103.6L437.9,101.1L436.1,104.3L434.0,103.4L432.1,107.0L428.1,103.5L428.2,101.2L430.0,99.0L431.1,96.7L433.9,96.8L436.0,98.8L437.7,100.0L439.9,100.2L444.5,98.9L446.5,95.9L443.9,94.4L442.6,92.6L439.2,91.3L435.6,91.2L433.4,90.1L435.2,88.8L434.1,85.5L434.2,82.8L432.2,81.6L432.9,79.2L433.8,76.8L431.4,77.4L429.1,77.6L425.5,76.3L423.7,78.0L421.3,79.8L419.1,81.1L417.2,82.0L415.6,82.3L412.5,82.4L409.2,81.5L406.5,81.2L404.7,80.1L402.2,79.3L401.3,81.5L400.5,83.4L399.3,85.3L396.3,86.9L395.1,88.6L392.9,88.5L391.6,90.5L390.8,92.7L388.2,92.9L387.3,95.2L384.4,97.1L383.7,99.1L382.8,103.0L384.1,104.6L387.2,104.0L389.1,102.9L390.4,100.2L392.9,103.2L391.4,104.6L388.9,104.9L389.2,106.9L388.2,108.7L390.5,109.3L390.7,107.2L393.0,106.6L393.4,108.9L394.5,110.9L394.5,113.5L392.1,114.8L390.0,113.4L389.2,116.6L387.0,117.4L383.6,117.1L383.6,114.5L381.9,112.9L381.5,115.6L380.7,117.6L378.5,118.2L377.2,115.8L373.9,116.2L371.5,113.6L374.2,112.7L373.2,109.1L371.4,110.4L369.4,111.6L368.6,109.2L367.4,105.7L365.4,101.6L359.9,101.5L358.0,98.7L356.2,96.4L353.3,94.8L351.3,96.5L348.4,96.0L345.2,98.1L343.1,97.5L341.2,99.3L336.7,99.0L334.5,98.9L334.2,96.4L332.6,95.0L328.2,92.9L327.4,90.3L327.7,88.2L325.7,83.9L323.4,81.4L320.4,82.9L318.8,85.0L317.3,86.5L313.9,87.0L312.3,89.2L311.7,91.9L311.3,94.4L308.8,94.5L305.8,95.0L304.1,96.4L302.0,96.2L299.9,97.3L297.2,97.4L294.4,96.3L293.4,100.4L289.7,100.1L287.7,101.5L284.8,103.1L282.2,103.5L278.3,102.8L275.9,101.5L272.1,102.6L271.0,104.8L270.0,107.6L268.6,109.3L266.5,109.4L263.8,108.6L261.1,107.9L257.8,105.7L256.8,103.8L256.4,101.7L253.5,102.8L251.4,101.8L249.4,101.8L249.2,104.6L247.4,105.9L244.6,105.3L242.9,104.1L240.7,107.7L238.4,107.3L236.8,105.7L234.3,106.2L232.7,104.7L229.8,105.9L229.0,107.8L228.4,110.4L224.9,110.3L225.4,112.3L227.9,112.5L228.1,114.6L225.2,115.3L223.2,115.8L221.0,117.4L218.9,117.0L216.7,116.6L211.9,117.1L209.8,117.7L207.8,120.8L203.4,118.3L201.9,118.4L203.0,121.2L200.6,122.0L201.5,124.2L202.8,126.2L201.3,129.5L199.3,131.9L197.2,133.8L195.2,133.4L193.8,135.3L191.5,136.7L191.5,139.8L192.5,142.4L190.7,143.6L191.8,147.8L190.5,150.0L190.4,152.6L189.4,154.5L191.4,154.4L194.1,154.6L196.1,155.4L196.8,153.3L199.7,153.9L203.4,155.4L205.6,155.5L206.0,158.3L206.3,161.1L205.1,162.8L208.1,164.4L210.1,165.7L212.2,166.1L211.9,168.8L212.1,171.4L210.6,175.1L208.9,176.5L208.6,178.6L204.2,178.4L202.8,179.9L201.5,181.6L199.8,183.2L199.2,186.9L197.0,187.7L196.4,191.0L194.5,192.0L196.0,193.8L198.4,193.4L199.3,195.6L198.3,198.2L198.2,200.6L201.1,202.9L204.3,203.1L207.1,202.7L209.4,200.2L212.0,198.8L213.4,202.3L216.8,202.9L220.8,201.9L223.1,201.2L226.4,201.3L225.9,205.6L228.8,207.2L228.1,210.8L227.9,213.2L227.6,215.6L227.0,217.6L227.2,220.8L228.1,222.6L229.3,224.6L231.2,226.0L233.9,225.0L235.9,223.8L239.2,224.1L241.3,224.0L244.9,225.2L247.3,227.1L248.6,229.3L250.9,230.2L250.4,233.2L249.0,236.6L248.3,238.6L246.1,240.6L245.0,243.2L244.6,246.1L244.5,248.8L242.3,249.6L239.9,249.2L240.9,251.2L238.3,252.6L237.3,255.1L236.4,257.0L233.8,258.2L232.8,260.2L230.4,260.9L228.9,262.6L226.4,261.8L223.9,262.2L221.9,264.8L221.4,266.9L218.9,269.9L217.7,271.9L217.7,275.1L216.6,277.7L214.4,280.5L212.8,282.0L207.5,281.4L206.6,283.3L208.2,284.8L209.7,287.1L211.6,288.9L212.5,291.0L212.6,293.1L215.3,294.5L216.1,297.4L214.6,299.5L215.2,301.6L214.6,303.7L214.5,305.9L215.1,307.8L216.8,312.0L216.3,317.5L215.0,319.6L214.6,322.1L217.6,323.3L218.2,326.6L216.8,328.6L214.9,332.0L216.1,335.8L219.9,339.3L219.4,342.0L217.6,342.8L214.9,345.3L214.8,347.8L217.9,349.9L220.4,349.3L222.5,349.1L225.0,347.5L226.6,349.5L227.7,347.7L230.1,347.4L233.2,346.7L234.9,344.4L234.7,341.5L236.2,339.8L240.6,337.4L242.3,336.4L243.6,334.8L247.1,332.6L248.3,330.7L253.4,327.9L255.3,326.4L257.7,326.7L259.0,328.3L261.3,330.4L263.3,329.8L262.6,331.7L264.7,332.2L267.0,333.5L266.0,335.6L264.5,337.1L268.1,338.2L270.5,338.1L271.4,341.1L274.0,342.3L277.4,343.1L278.7,340.6L279.3,338.7L281.8,338.4L285.1,336.2L284.9,340.9L287.5,342.1L289.2,340.8L292.2,340.8L294.6,343.6L297.1,344.5L299.2,346.9L303.5,348.5L307.4,345.6L309.8,343.0L312.1,342.9L315.3,341.4L314.7,344.8L314.5,346.9L314.6,349.0L315.3,351.3L316.9,354.3L318.3,355.0L321.9,354.6L324.9,354.4L325.8,356.4Z M478.1,116.6L476.9,114.8L474.6,116.2L472.4,114.5L474.4,111.7L475.0,108.4L473.1,109.7L471.8,108.0L469.5,108.8L467.2,107.7L463.7,106.8L457.1,107.4L456.4,110.4L456.8,113.6L458.6,114.9L461.3,115.4L462.6,118.2L466.5,117.1L469.5,116.9L471.2,118.8L474.4,118.2L476.9,119.1Z " />

<path data-nuts="ES23" d="M522.7,176.3L524.8,174.5L527.6,169.4L527.8,168.5L526.2,168.2L524.1,167.0L523.7,162.8L527.0,156.8L529.5,156.5L531.6,155.5L534.6,156.7L536.0,154.3L535.0,151.5L532.7,149.7L530.5,150.1L528.4,149.5L526.5,147.9L523.4,147.0L522.5,144.6L520.0,142.4L518.4,140.9L515.9,139.9L513.3,138.5L511.2,140.3L508.8,140.1L508.5,137.7L507.2,135.1L505.2,134.9L502.7,136.3L500.4,135.6L498.6,134.2L496.4,133.8L494.4,132.9L492.4,133.5L490.2,133.0L487.9,132.4L484.5,130.6L482.8,131.7L479.9,130.1L479.4,132.3L476.6,131.9L475.3,133.7L474.5,131.1L473.0,132.5L471.2,131.4L469.8,129.7L468.0,130.6L468.7,128.3L468.9,123.8L466.8,123.4L463.3,121.9L463.0,124.2L461.6,126.4L460.1,128.2L460.0,125.0L458.5,123.6L455.8,122.9L453.7,123.2L451.6,121.7L449.4,122.3L447.2,122.1L442.8,122.5L444.7,125.6L443.2,127.6L442.3,130.1L440.5,131.3L442.4,132.3L444.6,132.1L444.4,134.7L444.5,136.9L447.0,139.1L446.1,141.0L447.2,145.4L445.1,143.5L444.4,141.4L443.8,144.6L446.7,146.4L443.8,147.7L444.9,149.7L445.3,153.1L445.4,155.2L445.4,157.8L444.0,160.8L445.1,162.8L446.9,164.2L447.4,166.3L451.1,170.1L453.7,169.7L457.1,169.2L459.2,173.4L460.9,175.2L463.0,173.9L465.0,172.6L466.6,170.5L466.6,167.8L467.6,165.0L469.9,164.7L471.9,166.4L469.3,172.9L470.3,174.9L472.8,174.0L475.0,175.3L477.9,174.2L481.0,174.8L482.5,170.9L484.5,168.1L484.1,164.1L486.1,164.6L488.5,161.7L491.3,161.3L494.4,160.2L498.8,161.0L499.0,163.0L500.7,164.6L502.8,163.5L507.0,162.4L509.0,162.8L507.1,165.7L509.6,169.0L511.2,170.9L511.1,174.3L515.5,174.9L517.9,175.5L520.0,177.1Z " />

<path data-nuts="ES22" d="M552.3,172.8L556.0,173.4L557.0,171.4L558.3,169.8L558.8,166.9L560.2,163.7L562.1,161.3L561.4,158.8L558.7,159.0L557.4,156.2L555.2,154.8L555.3,152.7L555.1,150.0L553.4,148.3L553.8,144.5L554.1,142.1L555.5,136.6L557.1,134.5L554.9,132.8L555.7,130.0L557.0,126.2L559.0,124.7L559.0,121.9L557.9,119.7L559.0,116.6L561.6,117.5L562.8,114.3L564.5,112.3L565.2,107.8L571.5,107.4L572.0,105.5L571.8,103.1L576.0,101.5L577.8,98.6L579.9,97.6L581.5,95.9L582.8,93.4L581.5,88.2L583.6,86.0L583.2,83.3L585.3,81.2L587.7,81.1L589.0,80.8L588.3,78.7L586.7,77.0L584.7,77.5L579.8,79.3L577.8,79.2L574.7,79.7L571.2,78.3L566.2,76.9L564.4,75.8L561.7,76.7L559.3,74.3L556.8,73.4L554.7,74.4L550.5,72.5L552.4,68.2L549.4,69.0L548.0,70.7L548.6,74.2L548.2,76.6L542.5,75.6L540.0,72.4L541.8,70.3L543.3,68.4L543.7,65.9L544.7,62.8L544.1,60.1L543.9,57.6L541.7,55.8L538.3,56.2L535.7,54.8L532.1,55.7L531.9,59.0L529.7,59.2L528.0,56.5L526.9,54.7L524.3,54.8L521.7,56.3L519.6,57.4L518.1,59.0L518.1,61.0L516.4,62.9L514.7,64.1L513.1,62.9L512.6,65.1L510.9,63.8L510.8,67.2L511.4,69.1L511.7,72.2L510.5,74.1L508.6,76.4L506.1,79.4L504.9,81.6L505.8,83.5L505.6,85.8L502.1,86.9L500.3,90.1L497.1,90.8L495.1,89.7L493.7,91.9L493.0,95.0L494.0,97.3L494.6,99.9L492.8,101.9L492.3,104.5L493.8,107.6L490.5,108.7L491.0,111.3L492.6,113.8L491.9,116.1L489.7,118.0L487.6,116.8L485.0,116.0L483.0,117.6L481.8,119.5L480.1,120.6L481.0,123.0L484.2,123.6L485.2,120.9L486.7,122.3L487.1,126.2L487.9,128.5L487.9,132.4L490.2,133.0L492.4,133.5L494.4,132.9L496.4,133.8L498.6,134.2L500.4,135.6L502.7,136.3L505.2,134.9L507.2,135.1L508.5,137.7L508.8,140.1L511.2,140.3L513.3,138.5L515.9,139.9L518.4,140.9L520.0,142.4L522.5,144.6L523.4,147.0L526.5,147.9L528.4,149.5L530.5,150.1L532.7,149.7L535.0,151.5L536.0,154.3L534.6,156.7L531.6,155.5L529.5,156.5L527.0,156.8L523.7,162.8L524.1,167.0L526.2,168.2L527.8,168.5L530.3,169.0L533.1,168.9L535.0,171.1L538.7,172.0L540.6,170.7L543.3,171.7L544.7,173.5L546.7,174.3L549.6,174.5Z " />

<path data-nuts="ES13" d="M380.7,117.6L381.5,115.6L381.9,112.9L383.6,114.5L383.6,117.1L387.0,117.4L389.2,116.6L390.0,113.4L392.1,114.8L394.5,113.5L394.5,110.9L393.4,108.9L393.0,106.6L390.7,107.2L390.5,109.3L388.2,108.7L389.2,106.9L388.9,104.9L391.4,104.6L392.9,103.2L390.4,100.2L389.1,102.9L387.2,104.0L384.1,104.6L382.8,103.0L383.7,99.1L384.4,97.1L387.3,95.2L388.2,92.9L390.8,92.7L391.6,90.5L392.9,88.5L395.1,88.6L396.3,86.9L399.3,85.3L400.5,83.4L401.3,81.5L402.2,79.3L404.7,80.1L406.5,81.2L409.2,81.5L412.5,82.4L415.6,82.3L417.2,82.0L415.9,78.9L415.6,75.8L415.5,72.7L417.4,72.2L418.2,69.9L421.9,67.6L424.5,67.6L427.9,66.6L429.9,66.3L432.4,64.2L431.9,61.3L430.7,60.9L428.8,59.8L427.1,58.2L421.9,57.4L419.8,57.2L417.6,57.2L414.4,57.9L412.4,56.0L411.9,58.9L410.0,57.3L411.5,55.4L413.6,55.6L413.2,53.5L410.8,53.5L407.0,51.8L405.6,50.3L403.0,50.2L401.4,51.8L399.1,52.4L396.1,53.9L394.6,55.8L392.1,56.1L394.2,58.2L392.3,57.2L392.0,59.3L389.9,61.2L390.4,59.2L388.5,57.7L390.2,56.1L391.5,53.7L388.1,54.0L386.3,55.1L381.2,56.2L379.1,58.8L377.0,58.4L375.0,59.4L372.9,59.7L371.5,61.2L368.6,62.4L365.7,63.7L363.7,63.8L360.7,65.1L355.9,64.3L353.4,65.1L351.3,65.4L348.9,65.9L346.2,66.0L345.9,68.4L344.9,70.4L346.3,72.8L346.5,75.9L344.6,76.7L343.4,75.1L341.0,74.5L339.9,76.3L337.9,77.9L335.8,78.2L333.5,79.0L334.3,81.3L333.9,84.6L331.0,84.9L328.6,85.8L327.7,88.2L327.4,90.3L328.2,92.9L332.6,95.0L334.2,96.4L334.5,98.9L336.7,99.0L341.2,99.3L343.1,97.5L345.2,98.1L348.4,96.0L351.3,96.5L353.3,94.8L356.2,96.4L358.0,98.7L359.9,101.5L365.4,101.6L367.4,105.7L368.6,109.2L369.4,111.6L371.4,110.4L373.2,109.1L374.2,112.7L371.5,113.6L373.9,116.2L377.2,115.8L378.5,118.2Z M426.2,74.8L425.7,72.5L425.5,69.5L424.1,71.9L424.1,74.9Z " />

<path data-nuts="ES21" d="M476.6,131.9L479.4,132.3L479.9,130.1L482.8,131.7L484.5,130.6L487.9,128.5L487.1,126.2L486.7,122.3L485.2,120.9L484.2,123.6L481.0,123.0L480.1,120.6L481.8,119.5L483.0,117.6L485.0,116.0L487.6,116.8L489.7,118.0L491.9,116.1L492.6,113.8L491.0,111.3L490.5,108.7L493.8,107.6L492.3,104.5L492.8,101.9L494.6,99.9L494.0,97.3L493.0,95.0L493.7,91.9L495.1,89.7L497.1,90.8L500.3,90.1L502.1,86.9L505.6,85.8L505.8,83.5L504.9,81.6L506.1,79.4L508.6,76.4L510.5,74.1L511.7,72.2L511.4,69.1L510.8,67.2L510.9,63.8L512.6,65.1L513.1,62.9L514.7,64.1L516.4,62.9L518.1,61.0L518.1,59.0L519.6,57.4L521.7,56.3L520.8,53.4L518.5,52.6L517.6,52.0L517.2,50.8L516.1,48.9L512.3,50.8L511.5,52.8L508.4,54.4L506.2,54.8L505.0,56.5L503.0,56.2L496.7,59.9L493.7,60.3L491.7,59.1L489.2,59.6L486.9,60.5L484.4,60.6L482.3,60.2L479.4,58.9L476.9,58.1L474.5,56.9L472.0,54.9L469.8,55.5L467.3,54.7L464.4,54.2L462.7,53.0L459.6,52.9L457.2,52.0L455.5,50.4L453.7,51.3L451.8,52.1L449.0,52.6L446.7,52.3L444.1,52.9L442.8,55.0L441.6,57.0L438.9,58.8L440.7,60.8L440.7,63.0L438.6,61.9L436.4,60.8L436.0,58.7L434.3,61.3L431.9,61.3L432.4,64.2L429.9,66.3L427.9,66.6L424.5,67.6L421.9,67.6L418.2,69.9L417.4,72.2L415.5,72.7L415.6,75.8L415.9,78.9L417.2,82.0L419.1,81.1L421.3,79.8L423.7,78.0L425.5,76.3L429.1,77.6L431.4,77.4L433.8,76.8L432.9,79.2L432.2,81.6L434.2,82.8L434.1,85.5L435.2,88.8L433.4,90.1L435.6,91.2L439.2,91.3L442.6,92.6L443.9,94.4L446.5,95.9L444.5,98.9L439.9,100.2L437.7,100.0L436.0,98.8L433.9,96.8L431.1,96.7L430.0,99.0L428.2,101.2L428.1,103.5L432.1,107.0L434.0,103.4L436.1,104.3L437.9,101.1L438.9,103.6L438.0,105.7L437.1,108.0L438.4,109.9L438.3,112.0L440.6,111.7L443.0,112.0L444.7,113.7L446.9,114.0L448.3,115.9L451.8,115.6L453.8,116.7L454.2,118.9L456.4,121.2L458.5,123.6L460.0,125.0L460.1,128.2L461.6,126.4L463.0,124.2L463.3,121.9L466.8,123.4L468.9,123.8L468.7,128.3L468.0,130.6L469.8,129.7L471.2,131.4L473.0,132.5L474.5,131.1L475.3,133.7Z M476.9,119.1L474.4,118.2L471.2,118.8L469.5,116.9L466.5,117.1L462.6,118.2L461.3,115.4L458.6,114.9L456.8,113.6L456.4,110.4L457.1,107.4L463.7,106.8L467.2,107.7L469.5,108.8L471.8,108.0L473.1,109.7L475.0,108.4L474.4,111.7L472.4,114.5L474.6,116.2L476.9,114.8L478.1,116.6Z M424.1,74.9L424.1,71.9L425.5,69.5L425.7,72.5L426.2,74.8Z " />

<path data-nuts="ES11" d="M127.3,218.6L129.6,217.9L132.5,216.6L133.6,214.5L135.0,212.4L138.1,211.9L138.8,209.5L139.8,207.7L140.6,211.7L140.9,213.9L143.1,213.1L146.5,211.2L148.3,209.7L152.3,208.8L154.4,209.9L157.3,210.9L159.8,210.6L159.0,212.5L158.3,215.3L160.8,215.1L164.1,213.9L165.3,211.4L168.5,211.6L169.2,213.8L170.6,215.8L172.7,213.4L174.9,213.5L177.5,213.1L179.5,212.1L181.8,210.6L184.2,209.4L185.6,207.8L185.2,204.0L185.2,201.6L187.3,200.0L189.4,199.9L191.5,200.9L192.3,202.7L194.3,202.5L196.9,202.6L198.2,200.6L198.3,198.2L199.3,195.6L198.4,193.4L196.0,193.8L194.5,192.0L196.4,191.0L197.0,187.7L199.2,186.9L199.8,183.2L201.5,181.6L202.8,179.9L204.2,178.4L208.6,178.6L208.9,176.5L210.6,175.1L212.1,171.4L211.9,168.8L212.2,166.1L210.1,165.7L208.1,164.4L205.1,162.8L206.3,161.1L206.0,158.3L205.6,155.5L203.4,155.4L199.7,153.9L196.8,153.3L196.1,155.4L194.1,154.6L191.4,154.4L189.4,154.5L190.4,152.6L190.5,150.0L191.8,147.8L190.7,143.6L192.5,142.4L191.5,139.8L191.5,136.7L193.8,135.3L195.2,133.4L197.2,133.8L199.3,131.9L201.3,129.5L202.8,126.2L201.5,124.2L200.6,122.0L203.0,121.2L201.9,118.4L203.4,118.3L202.6,116.1L199.9,112.1L197.5,112.1L195.5,110.4L194.3,108.2L194.6,111.8L192.6,110.4L192.7,107.9L193.6,106.1L195.3,104.1L198.0,103.2L199.9,102.1L202.0,100.2L201.3,97.3L199.5,95.3L198.1,96.7L196.1,99.1L193.8,99.7L192.1,97.1L193.0,95.2L191.1,93.5L188.4,91.9L186.6,90.7L185.8,88.3L186.1,85.9L183.8,85.6L182.7,83.7L181.6,81.9L181.8,79.7L179.7,79.7L178.2,78.2L178.7,76.0L180.5,74.8L182.6,74.8L183.7,72.6L186.2,70.4L186.1,67.8L187.0,65.3L186.9,64.5L186.5,63.9L184.4,63.9L181.4,63.9L178.1,64.0L176.0,63.6L173.9,63.1L172.4,64.8L173.3,62.6L170.8,61.3L169.3,60.0L167.5,58.3L166.4,56.6L165.8,54.6L163.5,54.0L160.7,52.3L158.7,52.3L157.1,50.2L155.0,49.6L153.4,51.2L151.8,53.4L149.7,54.8L149.6,52.7L148.7,50.9L146.9,49.2L144.4,49.0L144.6,46.7L143.0,48.5L140.8,49.4L139.2,50.7L136.9,51.4L135.8,53.4L133.7,54.1L134.9,56.3L131.5,56.5L133.5,56.2L132.9,53.9L134.7,52.9L133.5,50.0L133.3,47.5L131.0,48.0L129.6,50.6L127.7,52.2L125.3,53.8L123.3,53.2L121.4,54.1L121.0,56.7L121.4,59.3L119.6,57.4L118.7,59.7L116.8,60.4L115.0,62.4L113.1,63.2L112.3,65.1L108.2,67.2L106.2,67.7L106.4,70.1L105.4,71.9L105.8,73.9L105.1,76.1L107.5,75.9L109.5,75.2L110.7,72.9L111.6,74.8L113.8,73.3L116.1,71.5L114.9,73.8L113.6,75.7L111.5,75.5L109.3,75.5L107.8,78.1L110.3,79.2L112.5,78.6L114.7,79.6L112.8,81.6L113.6,84.2L112.5,86.1L110.4,83.7L108.6,82.6L107.3,80.7L104.6,81.6L105.0,83.7L105.0,85.8L102.7,86.2L101.0,84.1L99.0,83.1L97.9,85.0L95.7,86.0L94.3,88.0L91.9,89.6L88.6,88.7L86.9,90.0L81.2,91.2L78.1,91.1L76.0,89.1L73.3,88.0L71.7,90.2L69.5,89.5L69.9,91.8L66.7,92.0L64.6,93.8L67.1,94.7L67.9,97.8L65.3,97.7L62.8,99.0L61.6,100.9L59.2,102.1L57.0,101.1L54.5,102.0L52.9,103.5L50.9,105.0L53.1,106.8L53.9,104.7L54.4,106.9L53.9,109.0L52.3,110.2L50.6,108.2L50.6,110.4L48.8,111.9L46.8,115.1L48.6,118.0L47.9,121.4L46.7,123.2L47.7,126.0L48.1,128.6L48.7,126.6L49.2,124.6L51.5,124.3L53.5,125.3L54.0,122.9L54.9,125.5L56.4,127.5L55.9,129.5L58.4,131.7L58.3,134.4L56.6,135.6L59.2,139.1L60.7,140.5L62.0,138.6L61.5,136.3L64.7,136.5L68.5,136.5L70.4,135.0L72.1,133.4L70.9,135.6L68.8,139.0L66.5,139.9L65.1,142.8L64.1,144.5L63.3,146.4L63.5,149.2L62.1,150.8L61.1,152.7L60.4,154.8L62.6,154.5L64.4,156.9L63.7,159.6L66.1,159.8L67.1,157.9L66.9,155.5L68.9,153.9L71.3,153.3L70.1,151.5L73.8,148.9L74.9,150.7L75.2,148.5L76.2,146.7L75.8,144.4L77.8,146.3L79.1,148.7L82.0,147.3L83.5,144.9L82.5,147.6L81.1,151.6L79.3,153.6L77.1,154.1L76.7,156.2L78.4,158.1L79.0,160.6L77.3,161.9L77.4,164.2L75.1,165.2L75.8,163.1L74.0,161.8L70.6,162.8L70.9,165.0L73.2,164.2L74.9,166.0L75.4,168.4L77.2,170.7L78.7,169.2L81.3,170.2L82.9,168.8L85.0,167.2L86.5,165.5L88.8,166.7L85.6,169.2L84.1,171.2L82.9,174.0L79.8,174.5L77.7,175.0L78.8,176.8L77.6,178.8L76.3,177.2L75.9,180.0L76.1,182.7L78.3,182.2L80.6,182.5L82.8,181.1L85.1,179.0L87.1,179.4L89.1,178.2L88.9,176.2L89.9,174.1L91.9,173.5L91.3,176.6L90.9,178.8L88.5,179.4L86.4,181.1L84.9,182.7L83.0,184.4L81.6,186.2L79.5,189.0L77.2,190.5L79.2,191.7L78.9,194.1L76.2,194.1L74.3,195.2L74.6,198.3L75.5,200.7L76.0,203.9L75.4,206.1L75.8,211.2L76.1,213.5L77.4,215.2L79.2,212.8L84.0,209.6L84.5,207.3L86.4,205.6L88.8,204.5L90.0,201.0L91.3,199.4L94.1,198.6L96.5,198.9L98.5,197.6L103.7,195.8L106.2,195.9L108.8,195.0L110.9,195.4L112.8,193.5L114.4,191.8L116.2,190.4L118.6,190.1L120.4,195.5L122.7,195.2L126.1,195.8L127.0,197.9L127.0,200.5L125.2,201.7L123.6,203.1L121.8,205.4L120.2,207.5L118.9,209.9L120.3,212.7L122.4,214.2L122.7,218.0L125.0,218.7Z M71.0,173.3L71.9,169.6L70.4,171.3L70.5,173.5Z " />

<path data-nuts="ES52" d="M643.6,517.1L643.6,514.8L645.2,512.7L646.2,510.8L647.2,508.6L649.4,505.2L649.0,502.6L648.7,500.5L648.7,493.3L651.1,488.3L655.1,487.8L656.6,485.3L655.8,483.2L654.8,478.3L655.5,474.9L657.3,473.7L659.2,472.0L661.6,472.1L661.4,468.6L662.3,465.6L664.1,463.8L667.5,460.5L672.4,457.5L675.6,456.4L677.0,454.4L680.6,455.0L683.5,451.1L682.5,449.3L684.9,445.4L688.3,444.1L690.8,442.7L692.1,440.4L694.0,438.8L695.6,437.6L698.5,434.2L700.2,433.0L698.3,431.6L697.3,428.2L695.2,427.4L691.8,426.1L689.6,424.7L686.9,424.3L684.2,424.6L680.5,423.1L674.3,418.0L671.3,414.7L667.3,409.1L664.0,402.4L664.7,398.7L658.7,388.9L656.5,384.7L654.4,379.3L655.0,376.3L654.6,374.0L655.0,369.6L656.5,366.9L657.3,362.4L658.5,360.2L660.1,357.6L660.8,352.3L666.1,339.8L670.5,334.1L671.6,327.8L672.7,323.1L674.7,321.0L677.1,320.1L678.6,318.1L678.8,315.0L680.4,310.1L682.7,307.4L684.7,306.2L685.2,303.0L688.4,298.4L689.4,296.4L691.1,293.7L691.9,291.6L693.4,286.7L693.9,284.7L695.5,281.8L697.3,276.7L691.9,275.4L691.5,273.2L689.2,271.6L684.7,271.0L681.9,269.9L679.5,268.5L680.7,264.5L678.6,263.3L676.1,262.7L674.1,262.3L672.3,261.8L670.7,263.3L668.6,262.8L666.1,264.3L664.4,266.6L663.3,264.8L660.0,263.7L657.0,264.4L652.7,262.7L651.1,261.0L647.8,260.7L647.0,263.1L646.2,265.9L646.3,269.1L643.7,270.4L642.1,272.4L640.4,270.8L637.2,272.7L637.8,276.2L640.2,276.9L642.3,276.6L643.8,279.1L644.4,281.5L644.1,284.8L645.8,285.8L646.5,287.8L642.7,290.0L643.1,292.8L645.5,295.0L647.1,297.6L644.1,300.1L643.1,302.7L640.8,303.7L641.6,306.0L637.5,310.3L634.8,311.3L632.6,310.7L630.8,313.4L630.2,316.0L630.6,318.2L629.9,320.4L627.4,323.4L628.8,326.0L626.7,326.5L624.6,328.8L622.2,329.6L619.8,329.2L619.4,332.5L617.2,334.5L615.1,336.0L614.8,338.5L616.1,341.6L618.2,343.0L616.8,345.0L614.8,347.4L612.6,346.8L611.4,344.4L610.7,341.7L609.8,337.7L605.0,336.8L602.7,337.7L599.6,337.7L597.5,338.3L595.1,338.9L594.4,339.7L591.0,341.9L592.1,344.3L592.0,351.0L592.0,353.6L588.8,360.2L589.3,362.3L589.6,364.7L587.0,366.4L583.1,365.2L580.2,368.5L579.3,371.0L578.1,375.7L575.8,377.6L575.7,379.9L575.6,383.0L575.8,385.2L575.3,387.7L576.9,389.7L579.3,390.4L579.7,392.4L581.5,394.1L583.9,393.5L586.7,394.0L588.5,395.2L590.5,394.7L593.2,395.2L595.3,396.0L598.4,396.3L600.9,396.7L600.3,399.1L600.6,404.9L599.9,408.1L598.2,410.5L596.8,414.7L596.4,417.4L597.2,420.3L599.6,421.5L601.5,424.0L604.7,427.0L605.9,429.1L613.4,427.7L615.5,426.1L618.3,426.2L619.2,429.0L620.8,431.6L620.8,433.6L621.5,437.5L622.0,439.8L619.9,440.9L621.4,444.0L622.9,446.5L622.9,449.0L621.1,451.1L616.8,451.7L617.8,453.4L618.3,455.9L619.4,458.7L618.3,463.2L619.4,465.4L616.8,469.3L615.8,471.5L615.4,473.8L618.0,478.8L620.1,479.2L623.4,481.5L624.8,484.1L624.6,487.4L624.2,490.8L623.2,493.8L621.6,496.6L622.5,500.0L623.7,502.5L627.7,506.8L631.5,512.3L633.2,514.0L640.4,518.7L643.3,519.4Z M593.2,335.8L595.2,335.1L598.2,332.9L598.7,330.7L595.8,328.2L593.2,326.6L589.4,327.5L586.8,327.3L586.5,324.7L583.6,322.8L582.5,320.5L580.9,322.0L581.7,325.0L579.4,327.0L576.8,326.9L574.2,326.8L573.8,328.7L575.5,330.6L578.5,335.1L579.2,337.0L581.9,336.6L585.2,336.9L587.9,337.8Z " />

<path data-nuts="ES61" d="M326.7,711.1L330.7,708.8L334.2,707.5L336.8,704.9L336.2,702.5L335.2,700.5L334.9,698.2L337.2,695.8L340.5,696.8L342.4,698.0L342.5,695.8L343.4,691.2L344.8,689.6L346.3,684.9L347.9,683.5L348.6,679.8L349.9,677.5L352.3,674.2L354.6,673.1L356.7,672.3L360.0,670.7L363.6,669.5L367.2,667.2L369.8,665.1L373.5,664.6L382.5,665.7L386.3,663.9L388.9,663.3L392.2,657.2L395.1,656.6L397.2,654.6L398.8,650.9L400.5,648.7L402.3,644.3L404.5,643.2L408.1,643.8L411.6,643.3L414.4,643.4L419.2,642.6L424.1,641.3L426.3,639.1L431.1,639.3L434.5,640.3L437.6,638.6L439.8,638.4L442.7,637.1L446.9,638.1L448.9,638.0L451.0,638.2L453.8,638.1L455.1,636.6L459.0,636.4L462.5,638.6L465.2,637.8L469.2,639.6L473.1,638.3L475.7,637.4L477.3,635.2L479.6,635.0L483.3,633.1L486.6,633.2L489.1,633.4L491.7,632.6L500.1,632.6L502.3,632.7L505.8,631.1L507.9,632.3L512.5,634.6L515.0,635.1L517.0,636.2L521.9,635.5L525.2,633.7L527.4,630.2L528.0,626.7L530.3,622.9L532.2,622.5L534.3,621.8L536.2,620.5L539.7,622.4L541.1,620.9L543.8,619.2L546.8,619.6L548.9,620.6L552.1,623.3L557.2,628.4L559.4,627.2L561.3,626.1L562.2,624.1L565.0,622.7L566.1,618.4L568.2,617.2L568.2,614.9L568.7,612.7L570.5,611.3L571.3,609.0L573.0,607.6L575.0,606.4L574.3,603.0L575.6,600.5L576.2,598.1L577.0,595.7L576.8,593.2L577.6,591.2L578.0,588.3L577.9,585.6L578.7,582.1L580.5,580.3L581.3,578.1L584.5,574.2L585.4,571.0L587.7,569.4L589.1,567.4L581.1,562.4L576.3,563.8L573.6,562.2L572.0,559.7L564.7,550.4L563.0,549.1L561.7,547.1L560.1,544.7L559.8,542.3L560.7,539.8L559.3,535.8L559.5,531.6L560.7,528.2L559.3,526.6L557.6,527.8L554.1,526.8L551.7,527.4L550.4,525.8L547.2,527.2L544.5,525.1L541.6,523.8L539.1,521.6L537.5,518.4L534.3,516.6L530.5,516.5L528.0,515.8L524.2,515.0L521.7,514.1L519.6,513.1L521.5,510.8L522.7,508.6L524.2,506.3L525.8,503.6L525.0,501.1L525.3,497.9L525.1,494.8L522.1,493.9L522.1,489.7L520.9,487.8L521.4,485.7L518.5,485.1L515.9,484.8L514.7,483.0L515.1,480.6L514.8,478.1L511.1,476.5L505.6,478.1L502.9,476.5L500.2,477.4L498.5,478.7L497.1,481.2L495.1,481.5L493.9,483.6L492.1,482.2L488.2,482.5L486.3,485.2L486.1,488.3L481.3,482.6L476.7,486.6L473.8,485.9L466.9,485.6L463.6,484.1L460.4,485.0L460.6,488.1L458.4,489.7L455.8,492.0L453.5,491.9L450.2,491.2L449.2,488.6L446.5,488.4L446.7,492.4L444.5,493.6L442.6,492.9L439.0,492.5L436.3,492.7L433.0,492.0L430.3,495.1L427.4,496.7L424.6,497.7L418.9,498.3L415.0,497.7L411.3,497.7L409.0,497.6L407.0,497.9L403.6,497.1L401.3,496.9L400.0,499.1L399.1,501.6L396.7,500.7L390.6,498.5L388.1,498.1L386.6,496.1L384.5,494.6L382.8,493.2L381.5,491.6L379.0,490.8L376.8,490.8L375.0,488.5L371.7,486.8L369.7,484.8L367.7,484.6L364.0,483.1L361.7,483.3L359.0,482.0L358.2,479.1L357.3,475.8L353.6,476.5L351.1,476.3L348.6,474.3L345.6,473.0L340.8,474.5L338.5,474.7L336.4,474.6L337.8,478.2L335.9,479.2L334.2,481.0L332.3,483.1L329.8,484.6L329.1,487.1L327.1,487.6L324.8,487.9L324.0,489.8L322.8,491.6L321.3,493.6L319.3,495.1L317.8,498.1L315.4,498.5L312.2,501.4L311.4,505.6L312.8,507.5L312.4,510.4L314.1,512.6L315.3,515.1L316.4,517.1L316.6,519.4L315.7,521.4L316.1,524.2L314.6,526.0L313.0,527.6L309.7,527.3L307.5,530.6L305.9,532.3L303.1,532.3L303.0,530.3L304.1,528.1L306.1,525.9L303.9,523.6L301.9,523.0L299.3,523.9L296.6,525.0L294.6,525.4L293.0,527.0L292.9,529.0L290.7,530.0L289.8,532.9L291.4,534.7L289.9,538.1L288.2,540.9L284.4,541.9L282.4,541.5L280.3,542.7L277.8,543.2L275.3,545.4L273.6,547.0L272.0,545.3L268.5,544.7L264.9,544.3L263.1,542.7L260.9,541.2L260.2,538.5L257.0,537.8L255.0,539.0L253.7,542.2L251.6,541.6L248.1,541.0L245.3,541.3L245.6,539.1L242.5,535.4L240.0,536.0L237.7,535.9L235.1,536.5L233.1,535.9L231.1,535.0L229.2,534.2L230.2,532.1L230.3,529.0L226.7,529.4L222.9,527.5L220.9,527.0L219.3,529.3L218.6,531.3L219.5,533.3L218.7,535.6L217.7,540.5L217.0,543.4L214.1,544.3L212.5,542.7L210.3,541.9L208.4,543.3L208.9,545.5L206.6,546.5L204.5,545.8L201.8,547.2L199.3,548.2L200.5,550.2L199.9,552.2L199.0,554.7L198.7,557.1L197.6,558.9L196.2,561.9L193.2,564.7L191.2,567.3L189.8,569.1L188.7,571.5L188.3,574.0L188.4,576.1L186.9,577.5L186.8,579.7L185.6,581.6L184.9,583.8L183.5,585.8L184.3,588.4L186.4,590.7L187.5,593.0L188.6,596.6L189.5,599.3L190.3,602.6L190.3,605.4L190.8,608.7L191.0,612.1L192.5,614.2L193.0,617.6L193.5,618.5L194.1,618.2L196.0,618.6L198.4,616.7L201.5,615.8L210.6,614.7L217.5,614.2L219.7,614.8L225.9,617.5L228.7,617.7L230.7,618.9L235.5,620.7L241.7,623.9L250.2,628.6L255.3,632.1L257.5,634.0L260.8,637.9L264.8,646.2L268.0,647.6L265.0,650.3L262.9,651.5L262.4,654.0L265.5,659.2L266.5,661.8L270.2,662.2L272.3,662.3L274.1,663.4L275.2,665.4L277.5,664.8L278.2,666.7L277.7,669.3L276.7,671.0L278.9,671.3L281.5,671.3L279.9,673.8L278.4,675.4L276.4,674.7L275.4,671.6L274.3,668.7L272.5,669.7L274.1,671.0L276.2,674.6L278.2,677.7L280.1,681.9L282.2,683.4L285.4,689.5L288.2,690.3L292.1,697.1L294.6,698.4L297.4,699.0L299.8,698.0L301.9,698.0L305.6,700.9L310.1,705.8L312.2,705.8L314.1,707.1L316.3,707.9L318.4,707.1L321.1,708.2L324.6,711.7Z " />

<path data-nuts="ES62" d="M590.2,566.5L592.2,564.8L594.3,563.6L596.1,561.6L599.0,561.5L598.4,559.5L599.6,556.4L601.6,554.7L604.0,552.5L606.1,550.0L608.0,548.7L612.5,547.9L614.7,547.0L618.0,547.3L619.1,549.2L623.2,549.2L622.7,546.3L624.9,544.8L629.0,545.1L630.4,542.6L631.7,544.5L633.5,545.9L635.9,545.5L638.3,543.6L640.1,542.6L642.3,543.4L644.6,541.4L648.7,539.9L649.3,536.9L647.7,534.4L646.3,531.0L646.5,528.5L645.4,526.8L644.4,524.9L646.1,528.6L646.0,531.3L647.3,534.7L648.2,536.7L646.1,537.0L640.9,534.8L638.1,531.3L639.9,527.8L641.0,524.0L642.8,522.0L644.9,524.1L643.9,522.0L643.3,519.4L640.4,518.7L633.2,514.0L631.5,512.3L627.7,506.8L623.7,502.5L622.5,500.0L621.6,496.6L623.2,493.8L624.2,490.8L624.6,487.4L624.8,484.1L623.4,481.5L620.1,479.2L618.0,478.8L615.4,473.8L615.8,471.5L616.8,469.3L619.4,465.4L618.3,463.2L619.4,458.7L618.3,455.9L617.8,453.4L616.8,451.7L615.6,451.3L610.3,447.7L609.7,445.4L605.3,444.4L601.0,446.4L599.0,449.4L595.3,452.5L593.5,450.4L590.1,453.1L589.1,456.8L589.0,461.6L586.8,463.5L587.3,467.7L588.2,470.7L589.3,476.7L589.3,479.6L584.5,484.7L582.5,486.0L579.9,486.6L577.0,486.2L575.6,483.4L574.2,481.5L572.2,482.1L569.6,481.7L568.9,483.8L566.6,485.8L563.6,487.8L561.2,489.8L555.0,491.7L552.9,490.6L550.6,491.0L549.6,493.9L547.8,496.5L544.2,498.0L541.4,500.3L541.0,502.6L539.4,506.1L539.0,508.5L537.1,510.9L534.8,513.1L534.3,516.6L537.5,518.4L539.1,521.6L541.6,523.8L544.5,525.1L547.2,527.2L550.4,525.8L551.7,527.4L554.1,526.8L557.6,527.8L559.3,526.6L560.7,528.2L559.5,531.6L559.3,535.8L560.7,539.8L559.8,542.3L560.1,544.7L561.7,547.1L563.0,549.1L564.7,550.4L572.0,559.7L573.6,562.2L576.3,563.8L581.1,562.4L589.1,567.4Z " />

<path data-nuts="ES53" d="M781.2,428.0L782.1,426.1L784.9,426.4L787.6,428.1L791.5,426.6L789.6,424.5L785.8,425.6L783.8,423.5L781.8,422.2L780.3,419.9L779.7,423.2L777.2,423.9L777.5,426.2L778.3,428.2L778.7,430.6Z M776.9,412.4L776.9,408.8L778.6,406.2L781.0,406.2L782.7,404.1L784.1,401.5L784.8,399.4L787.0,398.5L787.6,396.2L788.1,393.5L786.5,391.5L787.2,389.5L784.0,389.8L782.1,387.9L780.7,389.5L778.4,389.6L777.1,391.1L775.0,391.5L773.1,392.8L771.2,393.4L769.2,396.1L767.2,398.2L767.2,401.2L769.0,402.7L767.0,403.3L764.7,403.4L763.1,405.0L764.8,406.4L763.7,409.9L764.9,412.2L767.0,413.0L767.9,411.1L770.8,411.7L773.0,411.2L775.1,414.4Z M876.1,372.0L876.3,371.8L875.5,369.9L873.1,369.3L873.8,372.0Z M884.2,353.9L885.8,352.5L888.1,349.9L891.2,347.7L892.0,345.3L893.0,343.3L892.7,338.9L893.4,335.4L894.9,331.9L897.2,329.1L899.0,327.7L897.5,326.0L897.8,323.6L900.3,322.6L900.9,319.4L900.5,317.4L900.0,314.8L898.6,313.2L896.2,311.8L894.1,311.4L891.4,310.9L891.2,313.3L888.8,315.3L885.8,316.5L879.8,314.4L877.9,312.9L876.8,311.1L878.2,308.8L880.1,308.1L880.6,305.8L880.4,303.8L876.9,305.9L873.9,306.3L873.0,303.7L874.8,302.5L877.5,301.0L880.8,297.0L877.1,298.0L875.8,300.0L873.5,300.6L871.3,301.3L869.3,301.4L867.5,302.7L865.2,303.9L863.6,305.1L861.1,306.3L860.0,308.0L857.7,309.5L855.8,311.0L854.0,312.4L851.9,313.5L848.2,317.1L847.6,319.5L845.3,322.1L843.4,325.1L841.6,326.9L839.1,328.2L837.2,330.2L836.1,332.1L833.8,334.4L830.6,336.4L829.4,339.1L830.8,341.6L832.9,342.0L833.1,344.2L835.3,343.5L837.5,342.3L839.2,343.4L839.1,345.6L840.6,347.2L842.9,348.1L843.4,345.4L843.0,342.4L846.1,340.9L848.4,339.4L849.4,337.5L852.5,338.2L855.4,339.7L857.3,342.0L855.7,344.4L857.9,347.1L858.0,350.1L860.3,351.8L862.8,352.8L865.4,352.5L867.8,352.0L870.1,352.3L872.8,351.5L876.6,354.9L877.8,356.5L879.6,357.7L881.9,358.3Z M952.7,297.3L953.9,295.3L953.5,292.9L952.5,291.1L949.8,290.2L952.5,290.6L954.8,291.1L953.0,289.6L951.5,288.2L949.6,285.9L948.7,283.3L947.8,281.5L945.0,282.6L942.9,280.4L941.6,278.7L939.4,277.5L938.7,280.0L938.7,277.6L937.5,279.4L935.4,277.5L934.1,279.4L931.6,279.5L929.6,280.2L928.6,280.3L926.2,279.9L924.8,281.4L922.0,281.2L919.2,282.1L918.5,284.6L918.1,287.0L920.2,286.9L920.8,290.6L921.9,292.9L925.1,292.6L927.4,291.3L929.8,290.3L931.7,290.7L935.4,291.4L939.7,293.8L943.1,294.6L947.9,296.6L950.2,297.3Z " />

<path data-nuts="ES43" d="M275.3,545.4L277.8,543.2L280.3,542.7L282.4,541.5L284.4,541.9L288.2,540.9L289.9,538.1L291.4,534.7L289.8,532.9L290.7,530.0L292.9,529.0L293.0,527.0L294.6,525.4L296.6,525.0L299.3,523.9L301.9,523.0L303.9,523.6L306.1,525.9L304.1,528.1L303.0,530.3L303.1,532.3L305.9,532.3L307.5,530.6L309.7,527.3L313.0,527.6L314.6,526.0L316.1,524.2L315.7,521.4L316.6,519.4L316.4,517.1L315.3,515.1L314.1,512.6L312.4,510.4L312.8,507.5L311.4,505.6L312.2,501.4L315.4,498.5L317.8,498.1L319.3,495.1L321.3,493.6L322.8,491.6L324.0,489.8L324.8,487.9L327.1,487.6L329.1,487.1L329.8,484.6L332.3,483.1L334.2,481.0L335.9,479.2L337.8,478.2L336.4,474.6L338.5,474.7L340.8,474.5L345.6,473.0L349.3,471.8L350.4,469.9L351.0,467.3L351.2,463.8L351.7,461.6L353.4,458.6L358.0,458.7L358.1,455.5L357.6,453.1L353.5,452.0L351.5,451.0L350.5,448.2L350.8,444.1L354.7,445.8L356.7,444.5L358.0,442.8L355.9,441.9L354.6,439.9L355.6,437.8L355.7,435.3L356.9,433.2L358.2,431.0L360.7,431.6L364.7,431.5L369.2,432.4L366.8,430.8L365.1,429.1L363.1,425.7L360.7,420.2L363.9,417.7L364.7,414.5L366.0,410.7L364.6,408.5L360.3,411.9L359.2,413.6L356.8,413.9L353.0,416.7L350.3,416.0L348.1,414.7L347.3,414.8L343.3,411.6L337.9,407.2L335.0,404.7L333.3,402.4L329.0,398.6L331.7,394.4L332.3,392.4L331.9,389.9L332.8,388.0L331.1,384.3L330.2,380.8L327.7,381.2L324.8,385.4L320.5,384.0L320.3,381.9L320.7,378.4L321.3,375.0L319.0,373.7L316.3,374.2L314.1,374.6L314.3,371.7L315.9,366.0L315.6,361.9L314.8,359.4L314.8,355.9L316.9,354.3L315.3,351.3L314.6,349.0L314.5,346.9L314.7,344.8L315.3,341.4L312.1,342.9L309.8,343.0L307.4,345.6L303.5,348.5L299.2,346.9L297.1,344.5L294.6,343.6L292.2,340.8L289.2,340.8L287.5,342.1L284.9,340.9L285.1,336.2L281.8,338.4L279.3,338.7L278.7,340.6L277.4,343.1L274.0,342.3L271.4,341.1L270.5,338.1L268.1,338.2L264.5,337.1L266.0,335.6L267.0,333.5L264.7,332.2L262.6,331.7L263.3,329.8L261.3,330.4L259.0,328.3L257.7,326.7L255.3,326.4L253.4,327.9L248.3,330.7L247.1,332.6L243.6,334.8L242.3,336.4L240.6,337.4L236.2,339.8L234.7,341.5L234.9,344.4L233.2,346.7L230.1,347.4L227.7,347.7L226.6,349.5L225.0,347.5L222.5,349.1L220.4,349.3L217.9,349.9L214.8,347.8L212.1,349.3L209.2,349.3L207.9,351.2L205.3,352.2L205.0,354.7L205.1,357.2L205.3,359.3L207.1,361.5L209.2,361.7L211.1,362.6L212.5,365.8L215.0,367.8L215.4,369.8L215.0,373.1L215.2,376.5L214.4,379.2L214.3,381.3L213.7,383.7L212.3,385.2L210.2,386.8L209.0,389.6L210.0,391.4L209.1,394.3L208.8,396.6L207.9,400.4L204.4,401.8L200.6,401.4L195.5,401.9L192.4,401.6L189.9,402.3L186.8,404.2L184.0,403.5L178.8,402.7L173.5,402.6L174.0,404.9L175.2,406.8L176.3,409.6L178.7,410.6L179.8,412.7L182.5,414.0L183.7,416.3L185.7,418.1L188.2,418.5L190.2,419.9L189.5,422.3L188.7,426.7L190.0,428.8L192.3,432.4L195.4,435.3L194.4,437.5L194.7,439.9L197.4,443.1L200.1,443.5L202.4,444.2L202.4,446.5L201.6,448.5L204.7,450.4L208.2,448.6L213.1,450.8L214.8,453.7L215.5,456.3L213.5,460.2L211.2,463.9L209.3,466.8L210.2,468.8L208.4,471.5L207.4,474.2L205.4,474.9L202.9,477.1L200.5,479.4L196.4,483.3L195.9,485.3L195.8,490.9L197.6,492.2L196.5,495.3L194.8,498.1L194.2,500.8L193.4,503.5L194.8,505.0L193.6,507.6L194.8,509.6L197.1,512.4L201.9,517.6L203.9,521.0L205.5,522.7L206.3,525.0L208.2,527.2L209.0,529.4L210.6,531.0L212.4,529.4L214.4,529.6L215.5,527.6L217.5,526.9L219.8,526.3L220.9,527.0L222.9,527.5L226.7,529.4L230.3,529.0L230.2,532.1L229.2,534.2L231.1,535.0L233.1,535.9L235.1,536.5L237.7,535.9L240.0,536.0L242.5,535.4L245.6,539.1L245.3,541.3L248.1,541.0L251.6,541.6L253.7,542.2L255.0,539.0L257.0,537.8L260.2,538.5L260.9,541.2L263.1,542.7L264.9,544.3L268.5,544.7L272.0,545.3L273.6,547.0Z " />

<path data-nuts="ES42" d="M534.8,513.1L537.1,510.9L539.0,508.5L539.4,506.1L541.0,502.6L541.4,500.3L544.2,498.0L547.8,496.5L549.6,493.9L550.6,491.0L552.9,490.6L555.0,491.7L561.2,489.8L563.6,487.8L566.6,485.8L568.9,483.8L569.6,481.7L572.2,482.1L574.2,481.5L575.6,483.4L577.0,486.2L579.9,486.6L582.5,486.0L584.5,484.7L589.3,479.6L589.3,476.7L588.2,470.7L587.3,467.7L586.8,463.5L589.0,461.6L589.1,456.8L590.1,453.1L593.5,450.4L595.3,452.5L599.0,449.4L601.0,446.4L605.3,444.4L609.7,445.4L610.3,447.7L615.6,451.3L616.8,451.7L621.1,451.1L622.9,449.0L622.9,446.5L621.4,444.0L619.9,440.9L622.0,439.8L621.5,437.5L620.8,433.6L620.8,431.6L619.2,429.0L618.3,426.2L615.5,426.1L613.4,427.7L605.9,429.1L604.7,427.0L601.5,424.0L599.6,421.5L597.2,420.3L596.4,417.4L596.8,414.7L598.2,410.5L599.9,408.1L600.6,404.9L600.3,399.1L600.9,396.7L598.4,396.3L595.3,396.0L593.2,395.2L590.5,394.7L588.5,395.2L586.7,394.0L583.9,393.5L581.5,394.1L579.7,392.4L579.3,390.4L576.9,389.7L575.3,387.7L575.8,385.2L575.6,383.0L575.7,379.9L575.8,377.6L578.1,375.7L579.3,371.0L580.2,368.5L583.1,365.2L587.0,366.4L589.6,364.7L589.3,362.3L588.8,360.2L592.0,353.6L592.0,351.0L592.1,344.3L591.0,341.9L594.4,339.7L595.1,338.9L593.4,336.7L593.2,335.8L587.9,337.8L585.2,336.9L581.9,336.6L579.2,337.0L578.5,335.1L575.5,330.6L573.8,328.7L573.2,321.9L571.0,323.2L568.4,321.8L566.6,323.1L564.4,321.6L562.7,319.7L557.8,316.2L555.5,314.1L554.4,315.8L553.5,313.6L551.1,310.3L548.9,307.7L547.2,305.9L548.6,304.4L550.1,301.3L553.5,298.8L552.4,294.2L552.9,291.9L553.4,289.7L556.4,290.3L558.9,291.6L562.0,288.3L560.6,286.7L561.1,284.2L561.5,280.8L559.9,277.6L559.8,275.0L560.5,272.2L560.0,269.6L558.7,268.0L556.6,267.0L554.1,264.2L554.4,261.2L553.7,258.7L550.9,256.8L548.3,254.8L545.0,252.1L543.4,250.8L540.8,248.4L535.7,246.4L534.0,244.4L532.0,244.6L529.8,241.8L527.2,242.9L523.6,243.9L523.4,244.4L523.1,247.4L524.3,250.3L522.1,249.9L520.2,249.1L518.5,247.5L516.4,249.8L512.2,250.1L510.5,252.9L506.7,254.3L504.3,251.9L501.5,254.4L499.6,253.7L497.0,253.4L495.8,250.2L493.7,249.1L491.8,246.6L489.5,248.9L488.9,246.6L487.3,244.8L488.0,242.5L485.6,241.9L484.0,240.7L479.8,240.1L479.1,238.1L476.2,238.5L475.5,240.7L472.6,240.4L469.4,239.2L468.7,237.2L466.3,234.9L464.2,236.3L462.8,238.3L460.3,239.3L456.7,240.6L454.8,240.0L452.5,239.5L448.3,238.8L445.9,239.6L444.4,243.2L442.9,241.9L439.9,243.4L436.9,243.8L434.3,244.0L434.7,246.3L432.5,248.2L431.6,250.4L429.1,251.7L426.7,253.1L426.8,254.4L429.6,256.5L431.6,258.7L434.8,261.0L435.5,264.4L437.5,266.5L436.3,268.6L435.4,271.4L434.8,273.6L434.1,275.7L435.6,277.5L433.6,278.7L433.4,281.1L432.9,283.8L431.8,285.5L434.8,285.6L436.4,287.5L437.3,290.2L436.2,293.9L438.3,295.0L439.9,293.2L441.7,294.2L442.6,296.2L444.0,297.6L445.8,296.3L444.7,298.6L445.2,300.9L448.6,302.9L448.8,305.9L451.0,305.1L452.9,306.4L454.5,308.9L454.9,311.5L457.0,313.8L458.8,315.2L459.9,317.6L458.9,319.7L459.2,322.8L457.8,326.5L457.0,329.5L458.8,331.4L459.8,328.6L462.5,326.5L463.4,328.6L464.2,330.4L465.2,332.9L464.9,334.9L466.4,337.3L464.6,338.8L466.3,340.1L467.5,342.9L465.8,344.9L463.9,345.9L461.0,345.9L459.0,344.6L457.9,346.4L453.8,348.0L451.8,347.8L449.4,345.6L446.7,346.5L447.0,348.6L445.3,350.1L441.9,349.1L439.4,349.6L437.7,352.1L432.9,354.2L430.6,357.6L427.8,358.3L425.6,359.0L423.5,361.1L421.5,363.2L420.1,365.7L417.9,364.6L415.5,364.4L414.9,362.3L417.8,362.0L419.7,360.3L421.8,359.9L423.6,358.6L423.8,356.5L424.9,354.8L427.2,353.5L429.3,351.2L430.4,349.1L431.3,347.2L431.3,345.0L426.0,343.5L423.4,342.4L420.1,343.4L419.1,341.5L416.8,340.9L414.5,341.4L412.7,339.8L410.5,339.9L407.9,340.2L407.5,338.2L405.0,338.7L402.5,336.6L400.7,335.5L398.7,334.3L397.3,336.6L394.6,336.5L393.2,334.5L390.4,333.2L388.7,334.3L387.1,335.9L385.5,338.8L383.1,339.3L381.4,337.0L380.3,335.2L378.5,331.6L377.6,334.6L375.3,337.0L374.8,339.3L372.6,339.8L370.8,340.9L369.7,342.6L366.2,341.5L363.8,343.2L361.4,343.5L359.1,342.5L359.0,340.5L357.7,338.3L355.0,337.4L351.0,337.7L350.1,339.5L350.1,341.7L347.6,344.1L343.7,347.5L343.9,350.4L341.9,350.8L338.3,353.1L337.8,350.1L334.5,349.8L333.3,352.3L330.0,354.9L327.9,356.2L325.8,356.4L324.9,354.4L321.9,354.6L318.3,355.0L316.9,354.3L314.8,355.9L314.8,359.4L315.6,361.9L315.9,366.0L314.3,371.7L314.1,374.6L316.3,374.2L319.0,373.7L321.3,375.0L320.7,378.4L320.3,381.9L320.5,384.0L324.8,385.4L327.7,381.2L330.2,380.8L331.1,384.3L332.8,388.0L331.9,389.9L332.3,392.4L331.7,394.4L329.0,398.6L333.3,402.4L335.0,404.7L337.9,407.2L343.3,411.6L347.3,414.8L348.1,414.7L350.3,416.0L353.0,416.7L356.8,413.9L359.2,413.6L360.3,411.9L364.6,408.5L366.0,410.7L364.7,414.5L363.9,417.7L360.7,420.2L363.1,425.7L365.1,429.1L366.8,430.8L369.2,432.4L364.7,431.5L360.7,431.6L358.2,431.0L356.9,433.2L355.7,435.3L355.6,437.8L354.6,439.9L355.9,441.9L358.0,442.8L356.7,444.5L354.7,445.8L350.8,444.1L350.5,448.2L351.5,451.0L353.5,452.0L357.6,453.1L358.1,455.5L358.0,458.7L353.4,458.6L351.7,461.6L351.2,463.8L351.0,467.3L350.4,469.9L349.3,471.8L345.6,473.0L348.6,474.3L351.1,476.3L353.6,476.5L357.3,475.8L358.2,479.1L359.0,482.0L361.7,483.3L364.0,483.1L367.7,484.6L369.7,484.8L371.7,486.8L375.0,488.5L376.8,490.8L379.0,490.8L381.5,491.6L382.8,493.2L384.5,494.6L386.6,496.1L388.1,498.1L390.6,498.5L396.7,500.7L399.1,501.6L400.0,499.1L401.3,496.9L403.6,497.1L407.0,497.9L409.0,497.6L411.3,497.7L415.0,497.7L418.9,498.3L424.6,497.7L427.4,496.7L430.3,495.1L433.0,492.0L436.3,492.7L439.0,492.5L442.6,492.9L444.5,493.6L446.7,492.4L446.5,488.4L449.2,488.6L450.2,491.2L453.5,491.9L455.8,492.0L458.4,489.7L460.6,488.1L460.4,485.0L463.6,484.1L466.9,485.6L473.8,485.9L476.7,486.6L481.3,482.6L486.1,488.3L486.3,485.2L488.2,482.5L492.1,482.2L493.9,483.6L495.1,481.5L497.1,481.2L498.5,478.7L500.2,477.4L502.9,476.5L505.6,478.1L511.1,476.5L514.8,478.1L515.1,480.6L514.7,483.0L515.9,484.8L518.5,485.1L521.4,485.7L520.9,487.8L522.1,489.7L522.1,493.9L525.1,494.8L525.3,497.9L525.0,501.1L525.8,503.6L524.2,506.3L522.7,508.6L521.5,510.8L519.6,513.1L521.7,514.1L524.2,515.0L528.0,515.8L530.5,516.5L534.3,516.6Z " />

<path data-nuts="ES63" d="M346.2,720.9L347.4,718.9L345.2,719.8L343.2,719.3L340.9,719.0L341.9,721.6L344.2,721.7Z " />

<path data-nuts="ES30" d="M421.5,363.2L423.5,361.1L425.6,359.0L427.8,358.3L430.6,357.6L432.9,354.2L437.7,352.1L439.4,349.6L441.9,349.1L445.3,350.1L447.0,348.6L446.7,346.5L449.4,345.6L451.8,347.8L453.8,348.0L457.9,346.4L459.0,344.6L461.0,345.9L463.9,345.9L465.8,344.9L467.5,342.9L466.3,340.1L464.6,338.8L466.4,337.3L464.9,334.9L465.2,332.9L464.2,330.4L463.4,328.6L462.5,326.5L459.8,328.6L458.8,331.4L457.0,329.5L457.8,326.5L459.2,322.8L458.9,319.7L459.9,317.6L458.8,315.2L457.0,313.8L454.9,311.5L454.5,308.9L452.9,306.4L451.0,305.1L448.8,305.9L448.6,302.9L445.2,300.9L444.7,298.6L445.8,296.3L444.0,297.6L442.6,296.2L441.7,294.2L439.9,293.2L438.3,295.0L436.2,293.9L437.3,290.2L436.4,287.5L434.8,285.6L431.8,285.5L432.9,283.8L433.4,281.1L433.6,278.7L435.6,277.5L434.1,275.7L434.8,273.6L435.4,271.4L436.3,268.6L437.5,266.5L435.5,264.4L434.8,261.0L431.6,258.7L429.6,256.5L426.8,254.4L426.7,253.1L423.9,253.8L422.0,255.0L420.8,257.3L418.5,260.7L414.6,264.0L412.3,268.9L410.3,270.3L407.4,271.3L405.2,272.5L404.3,274.5L402.8,276.2L402.1,279.2L402.7,281.7L401.7,284.1L401.1,287.5L398.6,289.3L395.2,288.6L393.7,291.2L392.7,293.3L391.4,295.9L390.1,298.1L389.4,300.1L389.7,303.3L387.2,305.8L384.1,306.0L383.2,304.0L382.2,305.9L382.6,309.7L380.5,311.1L380.5,314.9L381.0,317.3L381.4,319.7L380.8,322.0L378.1,323.8L375.1,324.2L373.9,326.1L374.4,329.1L373.6,331.9L370.4,332.6L368.7,330.7L368.9,334.6L367.3,336.2L366.9,339.5L366.2,341.5L369.7,342.6L370.8,340.9L372.6,339.8L374.8,339.3L375.3,337.0L377.6,334.6L378.5,331.6L380.3,335.2L381.4,337.0L383.1,339.3L385.5,338.8L387.1,335.9L388.7,334.3L390.4,333.2L393.2,334.5L394.6,336.5L397.3,336.6L398.7,334.3L400.7,335.5L402.5,336.6L405.0,338.7L407.5,338.2L407.9,340.2L410.5,339.9L412.7,339.8L414.5,341.4L416.8,340.9L419.1,341.5L420.1,343.4L423.4,342.4L426.0,343.5L431.3,345.0L431.3,347.2L430.4,349.1L429.3,351.2L427.2,353.5L424.9,354.8L423.8,356.5L423.6,358.6L421.8,359.9L419.7,360.3L417.8,362.0L414.9,362.3L415.5,364.4L417.9,364.6L420.1,365.7Z " />

</g>

</svg>

